<?xml version="1.0" encoding="utf-8"?><svg version="1.1" id="Calque_1"
                        xmlns="http://www.w3.org/2000/svg" xmlns:xlink="http://www.w3.org/1999/xlink" x="0px" y="0px"
                       viewBox="0 0 3450.5 4472" style="enable-background:new 0 0 3450.5 4472;" xml:space="preserve">
                        <defs>
<linearGradient id="doorgradient" x1="50%" y1="0%" x2="50%" y2="100%" > 
            
            <stop offset="0%" stop-color="#0f0718">
                <animate attributeName="stop-color" values="#0f0718; #274e88; #0f0718" dur="10s" repeatCount="indefinite"></animate>
            </stop>

            <stop offset="100%" stop-color="#274e88">
                <animate attributeName="stop-color" values="#274e88; #0f0718; #274e88" dur="10s" repeatCount="indefinite"></animate>
            </stop>

        </linearGradient> 

                            
                        </defs>
                        <g>
                        <path fill="url(#doorgradient)"  d="M3450.5,876.6c0,1198,0,2396,0,3594c-11.6,1.5-23.2,2.6-34.6-1.6c-160.4-59.6-320.9-119.1-481.3-178.6
		c-37.5-13.9-74.8-28-112.4-41.7c-8.1-3-11.8-7.9-11.5-16.4c0.2-7.3-0.1-14.7-0.1-22c0-355.7,0-711.3,0-1067c0-5-0.2-10,0.4-15
		c0.4-3.7,0.7-8.2,7.3-8.6c0.4,3.8,1,7.3,1,10.8c-0.1,32.3-0.6,64.7-0.6,97c0,100,0.1,200,0.1,300c0,4.9-0.4,10.1-1.8,14.8
		c-2.1,6.9-3.9,13.3,0.6,19.9c1,1.5,1.1,3.9,1,5.8c-1,25.6,2.4,51.3-1.9,76.8c-0.4,2.5,0.3,5.2,0.7,7.9c0.5,3.6,1.7,7.2,1.7,10.8
		c0.1,17.3-0.2,34.6-0.2,51.9c0,11,0.1,22,0.3,32.9c0.2,9.7,0.8,19.3,0.8,29c0,23.3-0.2,46.6-0.3,69.9c-0.2,37.6-0.4,75.3-0.5,112.9
		c-0.3,86.7-0.5,173.3-0.7,260c0,11.9,0.4,12.3,11.7,16.5c193.9,71.8,387.9,143.6,581.8,215.4c3,1.1,6.2,1.7,10.3,2.8
		c0.3-4.4,0.7-7.7,0.8-10.9c0.3-17,0.8-34,0.8-51c-0.1-259-0.4-518-0.6-776.9c-0.1-139.7-0.2-279.3-0.2-419
		c-0.1-236.3-0.2-472.6-0.3-709c0-82.3,0-164.6,0-247c0-78,0-156,0-234c0-62,0-124,0-186c0-63.6,0-127.3,0-190.9
		c0-50,0.3-100,0.3-150c0-55.7-0.4-111.3-0.5-167c-0.1-67.7-0.1-135.3,0-203c0.1-68.7,0.4-137.3,0.5-206c0-3.1-0.7-6.2-1.2-10.9
		c-7.6,2.7-13.8,4.9-19.9,7.1c-188.1,69.4-376.1,138.8-564.2,208.3c-22,8.1-19,3.7-19.1,27.1c-0.2,100,0,200-0.2,300
		c0,12.6-1.3,25.2-1.9,37.8c-0.1,2.6,0.3,5.3,0.6,7.9c0.5,5.6,1.6,11.2,1.6,16.8c0,49.7,0,99.3-0.3,149c-0.1,9.9-1.4,19.9-1.9,29.8
		c-0.2,5.6,0.1,11.3,0.4,16.9c0.3,5.6,1.4,11.2,1.4,16.9c0.2,13-0.2,26,0.2,39c0.2,8.2-0.1,16-6.4,21.9c6.3,9.4,6.3,9.4,6.3,20.7
		c0,14,0.3,28-0.1,42c-0.3,12.3-1.5,24.6-2,36.9c-0.2,6.9,0.2,13.9,0.4,20.9c0.4,10,0.9,19.9,1.2,29.9c0,1.8-1,3.6-1.7,5.9
		c-6.8-4.8-6.2-11.5-6.2-17.5c-0.2-26.3-0.3-52.7,0.1-79c0.1-7.2,2.4-14.4,3.1-21.7c0.7-6.9,1.1-13.9,0.6-20.7
		c-0.9-11.9-3.7-23.7-3.8-35.6c-0.4-50.6-0.2-101.3-0.1-151.9c0-6.6,0.7-13.3,1-19.9c0.3-9.9,0.8-19.9,0.7-29.9
		c-0.1-9-1.5-17.9-1.5-26.9c-0.1-135-0.1-270-0.1-405c0-2.3,0.6-4.9-0.2-6.9c-0.7-1.7-2.9-3.3-4.7-3.9c-0.7-0.2-3.2,2.3-3.4,3.7
		c-0.5,3.2-0.2,6.6,0,10c0.5,10,1.4,20,1.4,29.9c0,52-0.1,104-0.4,156c-0.1,14.6-1.2,29.3-1.5,43.9c-0.1,6.9,0.1,14,1,20.8
		c1.6,11.6,2.4,23.2,0,34.8c-0.5,2.5-1.1,5.4-0.4,7.8c3.1,11,1.5,21.8,0.1,32.7c-0.6,4.5-0.2,9.2,0.1,13.8c0.5,7,1.8,13.9,1.8,20.9
		c0,56-0.3,112-0.3,168c0,41.3,0.3,82.6,0.4,124c0.1,67.3,0,134.7,0,202c0,26.9,0.2,53.9,0.2,80.8c-0.3,712.3-0.2,1424.6-0.2,2136.9
		c0,3.3,0.2,6.7-0.1,10c-0.5,5.5-1.3,11.1-2,17.3c-715.7,0-1430.5,0-2145.7,0c-1.3,15.9-11.3,23.5-24.9,27.8
		c-4.8,1.5-9.4,3.2-14.1,5c-121.4,45-242.8,90.1-364.2,135.2c-68.7,25.5-137.5,50.6-205.9,76.7c-15.5,5.9-30.4,3.7-47,3.8
		c0-6.7,0-12.3,0-17.9C0,3268,0,2082.7,0,897.4c0-4.3-0.1-8.7,0.1-13c0.1-2.5,0.8-5,1.2-8c13.3-0.2,25.9-1.6,38.2,2.8
		c21,7.6,42.1,14.9,63,22.6c126.8,47,253.5,94.1,380.2,141.2c2.3,0.9,4.8,1.4,7.9,2.3c0.5-6.2,1.3-11.5,1.2-16.8
		c-0.3-16.2-1.1-32.3-1.6-48.5c-0.2-6.9,0-13.8,0-22.1c-9.8,0-18.6,0-27.4,0c0-13.6,0-25.8,0-39.4c9.3,0,18.1,0,27.4,0
		c0-20-0.1-38.7,0.1-57.3c0.1-4-2.2-6-4.7-8.1c-23.4-19.8-46.8-39.6-70.1-59.6c-3.8-3.3-7.8-4.5-12.8-4.4c-11,0.2-22,0.1-33,0
		c-3.5,0-7-0.4-10.7-0.6c0-24.5,0-48,0-71.3c3-0.6,5.4-1.1,8.6-1.8c-13.5-17-26.2-33.1-39.3-49.6c3.5-1.7,5.8-3,8.2-4.1
		C537.4,568,737.9,474.1,938.5,380.2c219-102.5,437.9-205,656.9-307.5c48.9-22.9,97.9-45.3,146.4-68.9c10.2-4.9,17.9-5.1,27.7-0.4
		c45.1,21.4,90.6,42.1,135.8,63.3c278.1,130.1,556.2,260.3,834.3,390.5c145.1,67.9,290.2,135.8,435.2,203.7c3.2,1.5,6.2,3.3,10,5.3
		c-13.3,16.8-26.1,32.8-39.3,49.4c4,0.9,6.4,1.5,8.6,2c1.7,20,1,64-1.2,71.7c-13.8,0-27.8,0.1-41.7-0.1c-5.2-0.1-9.5,1.1-13.7,4.6
		c-23,19.8-46.1,39.4-69.4,58.9c-3.7,3.1-5.1,6.3-5,11.1c0.3,15.7,0.1,31.3,0.1,47c0,2.5,0.6,5,1,8.6c9.1,0,17.6,0,26.2,0
		c0,13.3,0,25.5,0,38.9c-8.1,0-15.6,0-23.4,0c0,22.7,0,44.1,0,66.8c3.7-1,6.5-1.6,9.2-2.6c64.3-23.9,128.5-48,192.8-71.7
		c65.2-24.1,130.6-47.7,195.9-71.9C3433.5,875.7,3441.9,876.3,3450.5,876.6z M45,4455.1c13.9-5.1,26.7-9.8,39.4-14.5
		c182.4-67.4,364.8-134.7,547.2-202.1c11.1-4.1,10.1-2.6,10.1-13.9c0-42.3-0.1-84.6,0-127c0.1-55.7,0.9-111.3,0.1-167
		c-0.8-63.3-1.7-126.6,0.5-189.9c0.2-5.3,0.1-10.7,0-16c-0.4-15-1.1-29.9-1.5-44.9c-0.2-8.3-0.6-16.7,2.8-24.6
		c0.6-1.5,1-3.5,0.5-4.9c-4.7-13-2.2-26.5-2.7-39.7c-0.7-16.6-1.2-33.3,2.4-49.8c0.9-4.1,0-8.6-0.4-12.9c-0.7-7.9-2.2-15.9-2.2-23.8
		c-0.2-90.7-0.1-181.3-0.1-272c0-37,0-74,0-110.9c0-7.6,0.5-15.1,2-22.7c1.6-8.3,0.3-17.2-0.1-25.7c-0.3-4.9-2-9.8-2.1-14.6
		c-0.2-40.3-0.1-80.6-0.1-121c-0.1-88.3-0.2-176.7-0.2-265c0-25.3,0.1-50.6,2.9-75.9c1-8.8-0.9-17.8-1.5-26.8
		c-0.5-7.2-1.8-14.5-1.8-21.7c0.2-18.6,0.8-37.3,1.5-55.9c0.3-7.6,1.3-15.1,1.8-22.7c0.2-3.6,0.8-7.4,0-10.9
		c-4.3-18.1-3.7-36.3-1.3-54.6c0.5-3.6-0.1-7.3-0.4-10.9c-1.1-13.6-3.3-27.2-3.4-40.8c-0.4-49.3-0.2-98.7-0.2-148
		c0-248.7,0.1-497.3,0.2-746c0-11.9-1.5-23.9,2.8-35.6c1-2.7,0.4-5.9,0.4-8.9c0-20.3,0-40.7-0.1-61c-0.2-81.7-0.3-163.3-0.5-245
		c0-4.3-0.4-8.5-0.6-12.3C624,1106.5,53.8,896.8,44.1,896.2c-0.2,3.2-0.7,6.4-0.7,9.6c0.1,9.3,0.6,18.6,0.7,28
		c0.2,60.6,0.2,121.3,0.3,181.9c0.1,78.6,0.5,157.3,0.4,235.9c0,59.6-0.8,119.2-0.8,178.8c0,62,0.9,123.9,1,185.9
		c0.1,57.6-0.3,115.3-0.4,172.9c-0.1,25.6,0,51.3,0,76.9c0,32.6,0.1,65.3,0,97.9c-0.1,20.3-0.7,40.6-0.7,61
		c-0.1,49.9,0,99.9-0.1,149.8c0,11.3-0.5,22.7-0.4,34c0.3,31.3,1.2,62.6,1.1,93.9c-0.1,59-1,118-1.2,176.9
		c-0.3,88.3-0.2,176.7-0.3,265c-0.1,99-0.3,198-0.3,297c0,172.3,0.2,344.7,0.3,517c0,256.3,0,512.6,0,769c0,5.7,0,11.3,0.3,17
		C43.5,4447.7,44.3,4450.8,45,4455.1z M3172.5,669.1c-3.6-1.9-5.8-3.2-8.2-4.3c-28-13.2-56.1-26.3-84.1-39.4
		c-233.4-109.2-466.9-218.5-700.3-327.7C2175.1,201.8,1970.3,106,1765.6,10c-6.3-3-11.3-3-17.6,0c-100.9,47.5-202,94.7-303,142
		c-213.2,99.8-426.4,199.6-639.7,299.4C654.2,522.1,503.1,592.8,352,663.5c-3.5,1.6-6.9,3.5-10.9,5.6c10,12.5,19.3,24.2,28.6,36
		c1.9,2.3,3.9,4.6,5.5,7.1c2.6,3.9,1.9,8.1,0.9,12c-3.4,0.6-6.2,1-9.1,1.5c0,18.5,0,36.4,0,54.1c10.3,2.2,2771.7,1.9,2779.2-0.2
		c0-18.1,0-36.3,0-55.2c-4.5,0.7-8.1,1.3-11.5,1.9c-1.5-6.1,0.4-10.6,4.1-15.1C3150,697.6,3160.9,683.7,3172.5,669.1z
		 M3014.5,1030.3c0-18.5-0.1-35.8,0-53.1c0.1-19.1-0.7-16.6-17.1-16.6c-823.6,0-1647.2,0-2470.8,0c-2.7,0-5.3-0.1-8,0
		c-9.9,0.3-11,1.3-11.1,11c-0.2,24.7-0.1,49.3-0.3,74c0,4.3,1.4,7,5.3,8.5c5.3,2.1,10.5,4.2,15.8,6.1c34.9,13,69.9,26,104.8,38.9
		c2.8,1,5.6,1.9,8.7,3c4.1-5.1,9.5-5.9,15.4-5.7c5.3,0.2,10.7-0.1,16-0.1c672.3,0,1344.6,0,2016.9,0c39,0,78,0.3,117,0.3
		c5.9,0,11,0.8,14.6,5.6c15.7-6.6,31.4-11.7,45.9-19.9c-3.8-1.2-7.3-1.2-10.8-1.2c-32.3,0.1-64.7,0.2-97,0.3
		c-174,0.2-348,0.5-521.9,0.5c-297.3-0.1-594.6-0.4-891.9-0.5c-225.6-0.1-451.3-0.2-676.9-0.3c-5.3,0-10.7-0.3-15.9-1.2
		c-6.6-1.1-6.5-1.5-4.9-10.2c3.4-0.3,7.1-0.8,10.7-0.8c13.3-0.1,26.7-0.1,40-0.1c728.6,0,1457.2,0,2185.9,0.2
		c17.6,0,34.4-1.8,50.6-9.1c8.2-3.7,16.8-6.3,25.2-9.4C2978.3,1043.9,2996,1037.2,3014.5,1030.3z M3081.5,797.1
		c-0.2-0.8-0.5-1.6-0.7-2.3c-2.9,0-5.8,0-8.6,0c-124.3-0.6-248.6-1.4-372.9-1.9c-271.6-1.2-543.2-3.3-814.9-3.4
		c-288-0.1-575.9,1.6-863.9,2.6c-193,0.7-385.9,1.8-578.9,2.7c-3.1,0-6.2,0.4-10.9,0.6c3.5,3.3,5.6,5.3,7.8,7.2
		c14.5,12.3,29.3,24.2,43.3,37c7.4,6.8,15,9.2,25,9.2c830.9-0.2,1661.8-0.2,2492.6,0.1c15.4,0,27.2-3.7,38.2-14.2
		C3051.6,821.5,3066.9,809.7,3081.5,797.1z M3014.6,865.9c-838.8,0-1677.2,0-2515.6,0c0,17.9,0,35.1,0,52.5
		c838.8,0,1676.9,0,2515.6,0C3014.6,900.7,3014.6,883.6,3014.6,865.9z M468,952.7c96.1-4.1,191.3-1.5,286.5-2
		c95.7-0.4,191.3-0.1,287-0.1c95.3,0,190.7,0,286,0c95.7,0,191.3,0,287,0c95.3,0,190.7,0,286,0c95.7,0,191.3,0,287,0
		c95.3,0,190.7,0,286,0c95.7,0,191.3-0.2,287,0.1c95,0.3,190-1.3,285.7,1.1c0-5.1,0-9.4,0-13.7c0-4.2,0-8.5,0-13.1
		c-860.1,0-1718.9,0-2578.2,0C468,934.2,468,942.7,468,952.7z M3432,2670.5C3432,2670.5,3432,2670.5,3432,2670.5
		c0,583.9,0,1167.9,0,1751.8c0,6.7-0.1,13.3,0,20c0,2.6,0.1,5.5,1,7.9c0.6,1.4,2.8,2.7,4.5,3c1,0.1,2.8-1.7,3.3-3
		c0.8-2.1,1-4.5,1-6.8c0.1-7.3-0.1-14.7-0.1-22c-0.2-575.3-0.4-1150.5-0.5-1725.8c-0.1-594.3,0-1188.5,0-1782.8
		c0-4.3,0.1-8.7-0.1-13c-0.1-2,0.1-4.2-0.8-5.9c-0.8-1.4-2.7-2.7-4.3-3c-0.9-0.2-2.8,1.7-3.2,3c-0.7,2.5-0.7,5.3-0.7,7.9
		c0,7.7,0.4,15.3,0.4,23c-0.1,144.6-0.4,289.3-0.4,433.9C3432,1795.9,3432,2233.2,3432,2670.5z M1227.3,3248.3
		c2.7-27.1-21.1-47.5-46.1-48.7c-29.3-1.3-52.1,22.8-52.3,46c-0.3,30,20.1,50.5,49.7,51.9
		C1202.8,3298.7,1227.1,3283.1,1227.3,3248.3z M2073.5,4002.9c18.1-0.1,31.1-11.5,30.8-27c-0.4-18.8-14.6-33.1-33-33.1
		c-17.8,0-30.6,12-30.4,28.6C2041.1,3988.1,2056.5,4003,2073.5,4002.9z M2639.3,4122.7c8.3-0.4,16.5-3.6,21.6-11.9
		c1.8-2.9,3.2-6.8,3-10.2c-0.8-14.5-15.5-26-29.9-23.9c-10.9,1.6-21.1,11.7-21,20.8C2613.2,4110.3,2625.3,4122.5,2639.3,4122.7z
		 M2530.3,1405.5c0.1,9.9,6.6,17.2,15.2,17.2c9.6-0.1,16.3-7.4,16.1-17.5c-0.2-8.9-6.9-14.8-16.5-14.6
		C2536.5,1390.7,2530.3,1397,2530.3,1405.5z M1204.9,2137.9c0-8.5-7.9-17.1-15.3-16.7c-5.7,0.3-11.7,8.1-11.9,15.3
		c-0.1,8.5,6.4,15.9,14.4,16.1C1199.1,2152.9,1205,2146.2,1204.9,2137.9z M988.2,1918.4c-0.1-6.4-7.3-14-13.3-14.1
		c-6.9-0.1-14.1,7.3-14,14.4c0.1,6,8,13.8,13.8,13.6C981.3,1932,988.3,1924.8,988.2,1918.4z M1203.4,1350.9
		c-0.1,5.9,6.7,12.9,12.7,12.9c7,0,13.8-6,14.2-12.6c0.4-6.3-6.6-14.4-12.2-14.4C1208.7,1336.8,1203.8,1344.8,1203.4,1350.9z
		 M745.1,1663c-0.5,6.9,5.1,13.2,11.7,13.4c6.4,0.2,13-5.6,13.8-12c0.7-6.3-5-13.4-11.1-13.8C750.5,1650.1,745.7,1654.2,745.1,1663z
		 M1269.2,2315.3c0.8-6.2-3.9-11.7-10.3-12.2c-5.2-0.4-12,5-12.7,10.2c-0.8,5.9,3.8,11.7,10.1,12.7
		C1262.8,2327,1268.2,2322.6,1269.2,2315.3z M2060,2082.6c12.2-6.1,12.4-6.3,11.2-12.1c-1.5-7.5-4.9-10.7-10.8-10.6
		c-5.8,0.1-10,3.4-11.5,9C2047.3,2074.7,2049.2,2077,2060,2082.6z M2331.1,1955.2c5.7,0.6,10.1-3.1,10.8-9.1
		c0.7-5.9-3.6-11.6-9.2-12.2c-6-0.6-11,4.2-11.7,11.1C2320.7,1949.8,2325.4,1954.6,2331.1,1955.2z M1676.3,3643.4
		c-7.7,5.6-9.9,10.3-7.4,15.6c2,4.4,6.5,6.5,11.5,5.5c3.6-0.8,8.6-6.2,8.8-9.6C1689.5,3648.9,1686.7,3646.3,1676.3,3643.4z
		 M2573.5,2750c-2.8,0.1-4.9,3.1-4.9,6.9c0.1,5.7,3.2,9.7,7.5,9.7c4,0,8.2-4.3,8-8.4C2584,2752.7,2580.2,2749.7,2573.5,2750z
		 M1046.4,3011.4c-0.2,4.2,2.7,7.3,6.7,7.5c4,0.2,7.6-3.1,7.9-7.1c0.4-4.9-2.6-8.9-6.8-9.2
		C1049.2,3002.3,1046.6,3005.2,1046.4,3011.4z M1226.4,1532.3c3.5,0.2,7.8-4.5,7.8-8.7c0.1-3.7-3.5-8.5-6.6-8.8
		c-3.3-0.3-7,3.5-7.5,7.8C1219.6,1527.3,1222.8,1532.1,1226.4,1532.3z M1376.3,3477.9c-0.2-3.9-3.9-7.7-7.6-7.7
		c-4-0.1-8.4,4.6-7.9,8.4c0.5,3.6,4.8,7.4,8.3,7.2C1373.3,3485.5,1376.5,3482,1376.3,3477.9z M2211.4,3348.7
		c0.8-1.2,3.2-3.2,3.5-5.4c0.5-4.4-3.8-7.6-8.6-7.3c-3.2,0.2-5.9,1.2-5.5,5.2C2201.1,3345.5,2205.3,3349,2211.4,3348.7z
		 M938.4,2790.1c-0.3-9.3-1.6-11.6-6-11.3c-3.8,0.2-7.1,3.7-6.7,7C926.2,2789.8,929.7,2791.1,938.4,2790.1z M1134.7,4065
		c-0.3-5.9-6-10.9-10.4-9.7c-1.5,0.4-3.4,3.1-3.4,4.7c0,4.3,5.1,8.5,9.6,7.9C1132.2,4067.6,1133.7,4065.7,1134.7,4065z
		 M2418.7,3151.7c0-3.4-2.9-6.1-6.6-5.8c-3.5,0.3-5.9,2.6-5.1,5.9c0.6,2.3,3,5,5.3,5.8C2415.3,3158.7,2418.6,3155.1,2418.7,3151.7z
		 M1011,2170.6c5.7-4.3,7.7-8.3,4.9-10.1c-2-1.3-5.8-1.6-8-0.6C1004.6,2161.4,1005.8,2165.8,1011,2170.6z M903,1640.9
		c-0.2-5.3-2-7.1-5.6-7.1c-3.4,0.1-6.4,1.9-5.8,5.1c0.4,2.1,3.4,4.9,5.7,5.3C899.1,1644.6,901.5,1641.9,903,1640.9z M2306.4,3708.7
		c2.2-3.9,4.3-6.2,4.5-8.6c0.4-3.9-3-4.4-6.1-4.6c-4.1-0.2-5.4,3.1-4.8,5.8C2300.5,3703.6,2303.3,3705.3,2306.4,3708.7z
		 M1425.5,1464.7c-7-2.2-10.7-1.2-11.9,5c2.6,1.9,5.1,3.7,9,6.7C1423.7,1471.7,1424.5,1468.5,1425.5,1464.7z M2365.1,3492.4
		c-3.6-0.5-7,0.1-7.3,4.3c-0.1,1.8,1.4,4.4,3,5.6c1.1,0.8,4.2,0.4,5.2-0.6C2369,3498.7,2367.5,3495.4,2365.1,3492.4z M1752.5,2030.8
		c-2.1,2.8-3.7,4.1-3.9,5.6c-0.5,2.7,0.2,5.8,3.8,5.3c1.9-0.2,3.6-2.1,5.4-3.2C1756.2,2036.3,1754.8,2034.1,1752.5,2030.8z
		 M1122.5,1196.4c-2.9-1.7-4.9-3.7-5.8-3.2c-2,0.9-3.5,3.1-5.2,4.7c1.4,1.2,3.2,3.7,4.2,3.4
		C1117.8,1200.7,1119.6,1198.7,1122.5,1196.4z M2013.9,3877.8c-1.9-5.9-4.7-7.8-10-6.2C2004.5,3878,2007.6,3879.4,2013.9,3877.8z
		 M2581.1,3757.9c2.7,2.8,4.9,6,8.1,2.1c0.8-1,0-4.6-1.2-5.6C2584.4,3751.3,2583.1,3755,2581.1,3757.9z M1524.3,3619.9
		c-2.8-2.1-4.2-4-5.9-4.2c-1-0.1-3.5,2.5-3.3,3.6c0.3,1.8,2.1,3.4,3.3,5.1C1520,3623.3,1521.5,3622.1,1524.3,3619.9z M1546.5,1355.4
		c2.9,2.2,5.8,3.7,7.8-0.6c0.4-0.9-1.2-3.9-2.5-4.4C1547.6,1348.8,1547.1,1352.1,1546.5,1355.4z M1806.1,1944.9
		c2.2,2.9,4.1,5.6,7.3,2.7c1-0.9,1.2-4.3,0.4-5C1811,1940.1,1808.4,1941.3,1806.1,1944.9z M1097.6,3791c-3.6,0.8-6.5,1.7-5,5.6
		c0.4,1,2.6,2.3,3.6,2C1100.3,3797.4,1099.1,3794.5,1097.6,3791z M1072.6,3293.4c2.3,3.1,3.8,5,5.2,7c1-1.1,2.7-2.1,2.9-3.3
		C1081.1,3293.1,1078.8,3292,1072.6,3293.4z M1823.5,2866.4c-6.5,3.6-6.5,3.6-2.4,8.1C1821.8,2872.2,1822.3,2870.2,1823.5,2866.4z
		 M989,3166.1c-2.2-1-3.5-2-4.8-2.1c-0.8,0-2.5,2-2.3,2.3c0.7,1.2,1.9,2.8,3,2.9C985.9,3169.3,987.1,3167.7,989,3166.1z
		 M2549.9,2918.6c0.9,0.6,1.8,1.1,2.7,1.7c0.5-1.5,1.5-3.1,1.4-4.6c-0.1-1.2-1.4-2.4-2.2-3.5c-1.2,0.8-3,1.5-3.3,2.5
		C2548.2,2915.8,2549.4,2917.3,2549.9,2918.6z M2273.8,2427.1c-1.5-2-2.3-3.9-3.2-4c-1.1-0.1-2.6,1.1-3.4,2.2
		c-0.3,0.3,0.9,2.5,1.7,2.7C2270,2428.3,2271.4,2427.6,2273.8,2427.1z M2096.2,3202.3c1,0.2,2.3-1.4,4.4-2.9
		c-2.2-1.2-3.4-2.3-4.7-2.3c-0.9,0-1.8,1.4-2.7,2.2 M2271.6,1922.6c-1.2-1.6-2-2.6-2.7-3.5c-1.4,1.1-2.7,2.1-4.1,3.2
		c0.8,0.8,1.7,2.3,2.5,2.3C2268.5,1924.6,2269.8,1923.5,2271.6,1922.6z M1546.9,3977.5c-2.5-1.2-3.8-2.4-4.8-2.1
		c-1.2,0.3-2.4,1.7-3,2.8c-0.2,0.4,1.4,2.5,2.1,2.4C1542.3,3980.5,1543.5,3979.4,1546.9,3977.5z M1968.2,3184.4
		c-1.1,1.9-1.9,2.9-2.1,3.9c-0.1,0.6,1.3,2,1.5,1.9c1-0.4,2.3-1.1,2.5-1.9C1970.3,3187.4,1969.2,3186.3,1968.2,3184.4z
		 M2399.1,2864.4c1.3-1.5,2.7-2.4,2.7-3.4c0-0.8-1.6-2.2-2.6-2.2c-0.8,0-2.3,1.4-2.4,2.2C2396.8,2861.9,2398.1,2862.9,2399.1,2864.4
		z M1140.8,2218.6c-1.4,1.6-2.8,2.4-2.8,3.2c0,0.9,1.2,1.8,1.9,2.7c0.9-0.7,2.2-1.3,2.5-2.1
		C1142.6,2221.5,1141.6,2220.4,1140.8,2218.6z M1489.2,4207.7c-0.6,0.2-1.1,0.5-1.7,0.7c0.5,0.6,0.8,1.2,1.4,1.6
		c0.2,0.1,0.9-0.6,1.4-1C1490,4208.6,1489.6,4208.1,1489.2,4207.7z M1412,3306.5c-2.2-1.1-3.3-2.1-4.3-1.9c-0.9,0.2-1.7,1.5-2.5,2.2
		c1,0.7,1.9,1.9,2.9,2C1409,3308.9,1410,3307.7,1412,3306.5z M2509.6,1518.8c1.4-1,2.7-1.5,2.7-1.9c0-1.1-0.7-2.1-1.2-3.1
		c-0.8,0.4-2.1,0.7-2.2,1.3C2508.7,1516,2509.2,1517.2,2509.6,1518.8z M1974.5,1475.7c0.8-2.2,1.4-3.2,1.4-4.3c0-0.4-1.6-1.1-2.3-1
		c-0.7,0.1-1.9,1.3-1.8,1.7C1972.1,1473.1,1973,1473.9,1974.5,1475.7z M1266.4,2784.8c0.5-0.7,1.1-1.3,1.6-2c-1.3-1-2.6-2-3.8-3
		c-0.5,0.7-1.6,2.1-1.5,2.1C1263.8,2783,1265.1,2783.9,1266.4,2784.8z M1088.6,3780.8c-1.5-1-2.4-2.1-2.8-1.9
		c-1,0.5-1.7,1.5-2.5,2.3c0.7,0.6,1.4,1.7,2,1.6C1086.3,3782.6,1087.2,3781.7,1088.6,3780.8z M2313.2,3168.8
		c-1.1-1.2-1.7-2.3-2.3-2.3c-1.2,0-2.3,0.6-3.5,1c0.7,0.9,1.2,2.3,2.1,2.6C2310.3,3170.4,2311.5,3169.5,2313.2,3168.8z
		 M2242.7,3129.2c-1.7-1.3-2.5-2.4-3-2.3c-1,0.3-1.7,1.3-2.5,1.9c0.9,0.6,1.7,1.5,2.7,1.7
		C2240.6,3130.6,2241.4,3129.8,2242.7,3129.2z M1904.6,1913.7c-1.6-0.5-2.6-1.1-3.6-1c-0.5,0-0.9,1.2-1.4,1.9
		c0.9,0.6,1.8,1.4,2.8,1.6C1902.8,1916.2,1903.5,1915,1904.6,1913.7z M1961.8,2195.9c-1.2-1.4-2-2.2-2.7-3.1
		c-0.9,0.8-2.3,1.6-2.4,2.5c-0.1,0.8,1.2,1.9,1.9,2.8C1959.5,2197.6,1960.4,2196.9,1961.8,2195.9z M1006,4091.1
		c-0.9,1.3-1.9,2.2-2.1,3.2c-0.1,0.5,1.5,1.9,1.7,1.8c1-0.6,1.9-1.3,2.5-2.3C1008.2,4093.5,1007,4092.5,1006,4091.1z M1026.6,2959.6
		c-1.9-0.8-2.9-1.5-3.9-1.5c-0.6,0-1.8,1.4-1.6,1.7c0.5,1,1.3,2.3,2.1,2.4C1024,2962.2,1024.9,2961,1026.6,2959.6z"/>
	<path fill="url(#doorgradient)"  class="st0" d="M3432,2670.5c0-437.3,0-874.6,0-1311.8c0-144.6,0.3-289.3,0.4-433.9c0-7.7-0.3-15.3-0.4-23
		c0-2.6,0.1-5.4,0.7-7.9c0.3-1.3,2.3-3.1,3.2-3c1.6,0.3,3.6,1.6,4.3,3c0.9,1.6,0.8,3.9,0.8,5.9c0.1,4.3,0.1,8.7,0.1,13
		c0,594.3-0.1,1188.5,0,1782.8c0.1,575.3,0.3,1150.5,0.5,1725.8c0,7.3,0.1,14.7,0.1,22c0,2.3-0.2,4.7-1,6.8c-0.5,1.3-2.3,3.2-3.3,3
		c-1.7-0.2-3.9-1.6-4.5-3c-0.9-2.4-1-5.2-1-7.9c-0.1-6.7,0-13.3,0-20C3432,3838.3,3432,3254.4,3432,2670.5
		C3432,2670.5,3432,2670.5,3432,2670.5z"/>
	<path fill="url(#doorgradient)"  class="st0" d="M1204.9,2137.9c0,8.3-5.8,15-12.8,14.8c-8-0.3-14.5-7.7-14.4-16.1c0.1-7.2,6.2-15,11.9-15.3
		C1197,2120.8,1204.9,2129.4,1204.9,2137.9z"/>
	<path fill="url(#doorgradient)"  class="st0" d="M2573.5,2750c6.6-0.3,10.5,2.6,10.7,8.2c0.1,4.1-4,8.5-8,8.4c-4.3-0.1-7.4-4-7.5-9.7
		C2568.6,2753.1,2570.7,2750.2,2573.5,2750z"/>
	<path fill="url(#doorgradient)"  class="st0" d="M1376.3,3477.9c0.2,4.1-3,7.6-7.2,7.8c-3.5,0.2-7.8-3.6-8.3-7.2c-0.5-3.8,3.9-8.4,7.9-8.4
		C1372.4,3470.2,1376.1,3474,1376.3,3477.9z"/>
	<path fill="url(#doorgradient)"  class="st0" d="M1011,2170.6c-5.2-4.8-6.4-9.2-3.1-10.7c2.3-1,6-0.7,8,0.6C1018.7,2162.4,1016.7,2166.4,1011,2170.6z"/>
	<path fill="url(#doorgradient)"  class="st0" d="M903,1640.9c-1.5,1-3.9,3.7-5.8,3.4c-2.2-0.4-5.3-3.2-5.7-5.3c-0.6-3.2,2.5-5,5.8-5.1"/>
	<path fill="url(#doorgradient)"  class="st0" d="M1140.8,2218.6c0.8,1.8,1.8,3,1.6,3.8c-0.2,0.9-1.6,1.4-2.5,2.1c-0.7-0.9-2-1.8-1.9-2.7
		C1138,2220.9,1139.4,2220.1,1140.8,2218.6z"/>
	<path fill="url(#doorgradient)"  class="st0" d="M1489.2,4207.7c0.4,0.4,0.7,0.9,1.1,1.3c-0.5,0.4-1.2,1.1-1.4,1c-0.6-0.4-1-1-1.4-1.6
		C1488.1,4208.2,1488.7,4207.9,1489.2,4207.7z"/>
	<path fill="url(#doorgradient)"  d="M3186.3,3043.1c-4.2,10.5-10.9,10.3-18.2,9.9c-63.5-4-127-7.9-190.6-11.8c-25.6-1.6-51.2-3-76.8-4.5c-3.3-0.2-6.6,0-10,0
		c-5.2,13.1,0.8,27.5-4.7,42.2c-5.7-10-6.6-37.2-2.8-57.8c4.3-0.2,8.8-0.7,13.3-0.4c36.6,2.3,73.2,4.7,109.7,7.1
		c36.2,2.3,72.5,4.6,108.7,7c47.6,3.1,95.1,6.2,142.6,9.2c18,1.1,35.9,2,53.9,2.9c18.3,1,18.2,1,18.2,18.7c-0.3,75-0.5,150-0.8,225
		c-0.3,84-0.6,168-1,252c-0.6,120.6-1.2,241.3-1.8,361.9c-0.4,68-0.9,136-1.4,203.9c0,4.6,0,9.2,0,15.4c-5.5-0.9-9.7-1.1-13.6-2.3
		c-73.9-21.2-148-42-221.8-63.8c-62.6-18.5-124.8-38-187.3-57.1c-3.5-1.1-6.9-2.5-10.4-3.4c-7.1-1.9-10.6-6.4-10.6-13.7
		c0-3.3-0.2-6.7-0.2-10c0-258,0-516,0-774c0-5.3,0.1-10.7,0.5-16c0.3-3.4,0.6-7.2,6.2-9.7c0.4,4.4,0.9,7.8,0.9,11.3
		c0.1,14,0,28,0,42c0,192.7,0,385.3,0,578c0,54,0,108,0,162c0,2.3,0,4.7,0,7c0.2,10.1,1.4,11.7,11.4,14.7c8,2.4,16,4.6,24,6.9
		c122.5,35.3,245.1,70.6,367.7,105.8c6,1.7,12.3,2.9,18.6,3.2c6,0.3,7.6-1.7,8.2-7.7c0.3-2.6,0.1-5.3,0.1-8c0.2-62,0.3-124,0.5-186
		c0.1-69.3,0.1-138.7,0.3-208c0.4-120.3,0.9-240.6,1.5-360.9c0.4-83.3,1.2-166.6,1.8-249.9c0-2,0.1-4,0.1-6
		c0.5-15.2,0.5-15.6-14.9-16.8c-22.9-1.8-45.9-3-68.8-4.4c-10.6-0.7-21.3-1.7-31.9-1.7C3198.8,3055,3191.2,3054.4,3186.3,3043.1z"/>
	<path fill="url(#doorgradient)"  d="M3300.5,4065c-5.1-1.2-8.6-1.9-12-2.9c-120.2-34.8-240.5-69.7-360.7-104.6c-0.6-0.2-1.3-0.4-1.9-0.6
		c-23.3-6.6-18.4-3-19-25.2c-0.8-29.3-0.5-58.6-0.6-88c-0.1-92.7-0.2-185.3-0.2-278c0-107.3-0.1-214.6,0-321.9c0-50,0.4-100,0.6-150
		c0-0.7,0-1.3,0-2c0.3-10.9,0.7-11.2,11.5-10.5c61.8,3.9,123.7,7.7,185.5,11.6c63.5,4,127,8,190.5,12c10.4,0.7,11.7,2.2,11.6,12.9
		c-0.2,23.7-0.4,47.3-0.4,71c-0.4,118.3-0.7,236.6-1.1,354.9c-0.1,42-0.5,84-0.7,126c-0.4,83.6-0.8,167.3-1.2,250.9
		c-0.2,43.3-0.3,86.6-0.6,130C3301.9,4055.1,3301,4059.5,3300.5,4065z M2913.6,3095.2c-0.5,5.1-1.3,9.3-1.3,13.5
		c-0.7,162.6-1.5,325.3-1.8,487.9c-0.1,63.6,1,127.3,1.4,190.9c0.2,46.7,0,93.3,0.1,140c0,11.1,0.5,11.6,10.8,14.6
		c120.1,35.3,240.2,70.6,360.3,105.8c3.3,1,6.8,1.5,11.2,2.5c0.3-4.7,0.7-7.9,0.7-11.2c0.4-48,0.9-96,1.2-143.9
		c0.7-129.6,1.3-259.3,1.8-388.9c0.3-64.7,0.3-129.3,0.6-194c0.3-61,0.8-121.9,1.1-182.9c0-3.2-0.9-6.4-1.7-10.8
		C3169.9,3110.9,3042.3,3103.1,2913.6,3095.2z"/>
	<path fill="url(#doorgradient)"  d="M2905.1,1720.7c-0.4-3.7-1.2-7.3-1.2-11c0-28.3,0.2-56.7,0.3-85c0.2-47.3,0.4-94.6,0.5-142c0.1-51.3,0-102.6,0-154
		c0-2.3,0-4.7,0-7c0.2-10.9,0.4-11.3,11.1-14.3c82.8-23,165.5-45.9,248.3-69c45.9-12.8,91.7-25.8,137.5-38.6c3.4-1,7-1.4,11.8-2.4
		c0.5,5.5,1.1,10,1.1,14.5c0,42-0.2,84-0.2,126c0,172.6,0,345.3,0,517.9c0,71.3-0.2,142.6-0.2,214c0,90,0.2,179.9,0.2,269.9
		c0,35.3-0.4,70.6-0.6,105.9c-0.4,76.3-0.9,152.5-1.1,228.8c0,14.6,1.2,29.3,1.7,43.9c0.1,4,0.9,8.7-5.8,11.3
		c-0.4-3.8-1.1-6.5-1.1-9.3c0.1-50.7,0.3-101.3,0.4-152c0-2.7,0-5.3,0-8c0.1-121.6,0.1-243.3,0.2-364.9
		c0.1-156.3,0.4-312.6,0.5-468.9c0.1-80.7,0.2-161.3,0.2-242c0.1-83.6,0.1-167.3,0.2-250.9c0-5.3,0.5-10.7,0.4-16
		c-0.2-8.1-1.8-9.5-9.9-7.3c-15.4,4.1-30.8,8.6-46.2,13c-108.3,30.5-216.6,61-324.9,91.5c-17.6,5-17.5,4.9-17.6,23
		c-0.2,88-0.4,176-0.7,263.9c-0.1,36.6-0.7,73.3-1.1,109.9c0,2.9-0.4,5.8-0.7,8.7C2907.3,1720.5,2906.2,1720.6,2905.1,1720.7z"/>
	<path fill="url(#doorgradient)"  d="M3327,2864.2c-44.1,0-87,0-129.8,0c-0.4-7.9,0-8.6,5.6-9.2c2.6-0.3,5.3-0.1,8-0.1c32,0,64,0,96,0c4.3,0,8.6,0,14,0
		c0.6-5,1.4-9.1,1.4-13.2c0-26.3-0.2-52.7-0.1-79c0-4.6-0.2-9.6,1.4-13.8c3.4-9.4,3.3-18.9,3.3-28.6c-0.2-260.7-0.3-521.3-0.5-782
		c-0.1-249-0.2-498-0.3-747c0-4.3,0.3-8.7,0.1-13c-0.2-3.5-0.9-7-1.5-11.4c-13.3,3.4-25.5,6.4-37.6,9.7
		c-125,34.1-249.9,68.3-374.8,102.5c-1.9,0.5-3.8,1.1-5.7,1.7c-10.7,3.2-10.8,3.2-10.9,14.4c-0.4,83-1,166-1.3,249
		c-0.3,80.3-0.3,160.7-0.5,241c0,7.6-0.5,15.2-0.9,25.2c-2.3-3.4-3.9-4.7-4.1-6.2c-0.6-4.6-0.9-9.3-0.9-13.9c0-27.3,0.1-54.7,0.4-82
		c0.1-7.3,1-14.6,1.4-21.9c0.2-4,0.5-8,0.4-12c-0.4-21.6-1.4-43.3-1.4-64.9c-0.1-62,0.1-124,0.4-186c0.2-45,0.8-90,1.2-135
		c0-1.3,0-2.7,0.1-4c0.5-8.8,1.8-10.8,10.5-13.4c14.1-4.1,28.2-7.8,42.4-11.7c123.6-34,247.2-67.9,370.8-101.9
		c15.8-4.4,16.2-4.3,16.2,12.3c-0.1,96.3-0.4,192.7-0.6,289c0,1.3,0,2.7,0,4c-0.2,146.3-0.4,292.6-0.5,439
		c-0.1,94.3-0.2,188.7-0.3,283c-0.1,90.3-0.2,180.7-0.3,271c-0.1,89-0.3,178-0.4,267c-0.1,42.7,0,85.3-0.1,128
		C3328.2,2855,3327.4,2859.5,3327,2864.2z"/>
	<path fill="url(#doorgradient)"  d="M2908,1734.6c0.6,4.7,1.3,8.1,1.3,11.5c-0.3,67.6-0.8,135.3-1.2,202.9c-0.1,21-0.4,42-0.5,63
		c-0.5,123.6-0.9,247.2-1.4,370.8c-0.2,49-0.4,98-0.6,146.9c-0.4,73.6-0.8,147.3-1.2,220.9c-0.1,15-0.2,30-0.3,45
		c0,3.9,0.4,7.9,0.6,12.6c4,0.7,7.5,1.7,11,1.8c39,0.5,78,0.8,116.9,1.3c65.3,0.9,130.6,1.9,195.8,3c2.9,0,6,0.4,8.7,1.5
		c1.4,0.5,3.1,3,2.9,4.4c-0.2,1.5-2.1,3.5-3.7,3.9c-2.8,0.7-5.9,0.6-8.9,0.5c-59.3-0.6-118.6-1.3-177.9-2
		c-41.6-0.5-83.3-1.1-124.9-1.3c-7.9,0-15.7,1.6-24.2,2.5c-3.3-3.1-2.2-7.6-2.1-11.8c0.2-41.3,0.6-82.6,0.7-123.9
		c0-60.3-0.5-120.6-0.2-180.9c0.4-91.9,1.4-183.9,2-275.8c0.6-76.6,1.2-153.2,1.6-229.9c0.3-69,0.3-137.9,0.6-206.9
		c0.1-16.7,0.5-33.3,0.8-50C2903.9,1741.5,2903.5,1738.1,2908,1734.6z"/>
	<path fill="url(#doorgradient)"  d="M2889.4,2849.9c4.7,0.4,8.6,1,12.5,1c89.6,0.8,179.3,1.4,268.9,2.2c3.7,0,7.3,0.1,11,0.5c3.7,0.4,6.3,2.1,5.8,7.8
		c-2.7,0.4-5.8,1.3-8.8,1.3c-45.7,0.2-91.3,0.3-137,0.3c-45-0.1-90-0.4-135-0.6c-6,0-12-0.2-18-0.3c-4.1-0.1-6.2-2.1-6.2-6.2
		c0-4,0.1-8,0.1-12c0.1-20.7,0.2-41.3,0.2-62c0.2-53.7,0.3-107.3,0.5-161c0.4-108.6,0.8-217.3,1.4-325.9
		c0.4-71.6,0.9-143.3,1.5-214.9c0-3.4-0.9-7.3,3.1-11c0.6,2.2,1.3,3.5,1.3,4.8c0.2,34.3,0.5,68.6,0.5,102.9c0,18.7-0.3,37.3-0.4,56
		c-0.3,84-0.5,168-0.7,251.9c0,1.7,0.4,3.4-0.1,5c-4.5,16.4-0.3,32.7-0.3,49.1c0.1,34-0.7,68-0.8,101.9c-0.2,67.3-0.2,134.6-0.3,202
		C2888.8,2844.6,2889.2,2846.5,2889.4,2849.9z"/>
	<path fill="url(#doorgradient)"  d="M2818.7,1956.9c0,4.3,0,8.2,0,12.1c0.1,22.6,0.1,45.3,0.3,67.9c0.2,20,0.8,39.9,0.7,59.9c-0.2,30.6-1.3,61.2-1.4,91.8
		c-0.1,26.6,0.7,53.3,1,79.9c0.4,33,1.1,65.9,0.7,98.9c-0.4,29.6-2.3,59.2-0.1,88.8c0.5,6.7-1.8,13.8-3.9,20.3
		c-1.2,3.8-1.4,6.6,0,10.3c1.7,4.6,2.8,9.6,2.9,14.4c0.8,21.9,1.3,43.9,1.8,65.8c0.1,4,0.4,8-0.2,12c-0.8,5.6-2.2,11-8.6,15.7
		c-0.4-4.9-1.1-8.7-1.1-12.5c-0.1-36,0-72,0-107.9c0-164.9,0-329.8,0-494.7c0-5.7,0.3-11.3,0.8-17
		C2811.7,1959.8,2812.2,1956.6,2818.7,1956.9z"/>
	<path fill="url(#doorgradient)"  d="M2815.5,3090c-5.9-2.6-4.8-7.4-4.8-11.5c-0.1-19.3,0-38.6,0-58c0.1-50.3,0.4-100.6,0.4-150.9c0-52.6-0.2-105.3-0.4-157.9
		c-0.1-28-0.1-55.9,0-83.9c0-3.6,1-7.3,1.5-10.9c0.9-0.1,1.8-0.1,2.7-0.2c1.2,3.9,3.1,7.8,3.5,11.8c0.9,7.9,1.3,15.9,1.3,23.9
		c0.1,51.6,0.1,103.3,0,154.9c-0.1,34.6-0.3,69.2-0.5,103.8c-0.2,48-0.5,95.9-0.7,143.9c0,7.7,0.5,15.3,0.9,23
		C2819.7,3083.8,2819.8,3083.8,2815.5,3090z"/>
	<path fill="url(#doorgradient)"  d="M2889.5,2054.7c-4-1.8-3.1-5.5-3.1-8.7c0.1-40.9,0.3-81.9,0.5-122.8c0.1-23,0.3-45.9,0.5-68.9c0.1-6.3,0.4-12.6,1-18.9
		c0.3-2.8,1.4-5.5,2.6-10.1c3.6,7.6,2.8,13.4,1.8,19.3c-0.5,3.3-1.4,6.5-1.3,9.8c0.4,63.9,0.9,127.8,1.3,191.7
		C2892.7,2050.1,2892.6,2050.1,2889.5,2054.7z"/>
	<path fill="url(#doorgradient)"  d="M3306.2,2813.3c0.8-11.3,1.5-21.7,2.3-32.1c0.6-0.1,1.2-0.1,1.7-0.2c0.6,1,1.8,2,1.8,3c0.2,10.9,0.2,21.9,0.2,32.8
		c0,4.9-2.7,7.4-7.4,7.4c-14.3,0.1-28.5,0.1-42.8,0c-1.5,0-3.4-0.7-4.5-1.6c-1.1-0.9-2.4-3-2-4.1c0.5-1.5,2.2-3.2,3.8-3.7
		c2.1-0.7,4.6-0.3,6.9-0.3c9.6,0,19.2,0.1,28.9-0.1C3298.7,2814.4,3302.2,2813.7,3306.2,2813.3z"/>
	<path fill="url(#doorgradient)"  d="M2884.3,3122.6c5.8,8.2,4.4,14.7,1.7,23.1C2880.7,3137.9,2879.9,3131.4,2884.3,3122.6z"/>
	<path fill="url(#doorgradient)"  d="M138.2,3048.1c149.1-9.9,297.3-18.3,446.4-28.3c1.7,20.1,1.9,38.5,0.3,56.7c-5.7,0.6-6.1-2.5-6.2-5.5c-0.2-7-0.2-14-0.3-21
		c0-3.9,0-7.8,0-13.2c-6.1,0-11-0.3-15.8,0c-34.9,2.1-69.8,4.3-104.8,6.5c-27.3,1.7-54.5,3.4-81.8,5.1c-22.9,1.4-45.9,2.8-68.8,4.2
		c-2.7,0.2-5.3,0.3-8,0.4c-10.9,0.3-10.9,0.3-17.9-7.4c-0.8,0.5-2,0.8-2.4,1.5c-3.4,6.6-9.3,7.6-16,7.9c-20.3,1-40.6,2.2-60.9,3.6
		c-16.9,1.1-33.9,2.5-50.8,3.9c-1.6,0.1-3.2,0.6-5.9,1.2c-0.3,3.5-0.8,7-0.8,10.5c0.2,72.3,0.4,144.6,0.8,217
		c0.3,53.3,0.8,106.6,1,159.9c0.3,64.3,0.3,128.6,0.5,193c0.1,46.3,0.3,92.6,0.5,139c0.4,93.3,0.9,186.6,1.3,279.9
		c0.1,10.7,0.1,21.3,0.3,32c0.2,8.8,1.9,10.5,10.9,9.7c5.6-0.5,11.2-1.8,16.6-3.4c116.8-33.7,233.5-67.5,350.2-101.2
		c13.8-4,27.7-7.4,41.5-11.3c8.9-2.5,10.2-4,10.3-13.3c0.2-25.3,0.2-50.7,0.2-76c0-236.6,0-473.2,0-709.9c0-4.8,0.5-9.6,0.8-14.5
		c0.7-0.2,1.4-0.4,2.1-0.5c1.1,1.7,2.9,3.2,3.2,5c0.7,5.6,1.2,11.3,1.2,16.9c0.1,260,0,519.9,0,779.9c0,1,0,2,0,3
		c-0.2,13.7-1.2,14.9-14.1,19.2c-103.6,34.6-209,63.4-313.9,93.9c-33.6,9.8-67.2,19.4-100.8,28.9c-4.3,1.2-8.9,1.6-14.9,2.6
		c0-10.8,0-20,0-29.2c-0.1-24-0.2-48-0.3-72c-0.5-111-1-221.9-1.5-332.9c-0.2-38-0.4-76-0.6-114c-0.5-109.6-0.9-219.3-1.5-328.9
		c-0.3-61.3-0.8-122.6-1.1-183.9C137.1,3058.3,137.8,3053.8,138.2,3048.1z"/>
	<path fill="url(#doorgradient)"  d="M166.9,4065.4c-0.5-5.2-1.1-8.5-1.1-11.7c-0.4-38.3-0.9-76.6-1.1-114.9c-0.3-83.3-0.4-166.6-0.7-249.9
		c-0.5-139.6-1.2-279.2-1.8-418.8c-0.2-50.6-0.6-101.3-0.8-151.9c0-12.2,0.6-12.6,13-13.4c71.5-4.5,143-9.1,214.4-13.6
		c37.9-2.4,75.8-4.4,113.7-6.7c14.3-0.9,28.6-2,42.9-2.9c2.7-0.2,5.3-0.3,8-0.4c4.8-0.1,7.5,2.1,7.4,7.2c-0.1,2.7,0,5.3,0,8
		c0,277.6,0,555.2,0,832.8c0,7,0,13.9,0,22.1C429.8,3989.5,299.1,4027,166.9,4065.4z M173.8,4050.5
		c127.2-37.3,253.8-74.4,380.7-111.6c0.3-5.4,0.7-9.6,0.7-13.9c0.3-120.3,0.7-240.6,0.8-360.9c0-68-0.6-135.9-0.7-203.9
		c-0.1-79.3,0-158.6,0-237.9c0-5.7-0.1-11.3-0.4-17c-0.5-9.4-1.4-10.4-10.7-9.8c-30.6,1.8-61.2,3.8-91.8,5.7
		c-51.2,3.2-102.4,6.3-153.6,9.4c-35.9,2.2-71.8,4.2-107.7,6.5c-7.2,0.5-14.4,1.6-22.1,2.5c-0.5,3.6-1.3,6.5-1.3,9.4
		c0.2,37.6,0.6,75.3,0.8,112.9c0.7,124.3,1.4,248.6,1.9,372.8c0.6,139.9,1,279.9,1.5,419.8c0,3-0.1,6,0.1,9
		C172.1,4045.5,172.9,4047.3,173.8,4050.5z"/>
	<path fill="url(#doorgradient)"  d="M156.4,2729.1c-1-1.4-2.6-2.8-2.9-4.4c-0.6-3.6-0.7-7.3-0.7-10.9c0.3-40,0.7-79.9,1-119.9c0.1-15.3,0-30.7,0-46
		c-0.1-44-0.1-87.9-0.2-131.9c-0.2-76.7-0.6-153.3-0.8-230c-0.2-88.7-0.3-177.3-0.3-266c0-56,0.3-112,0.2-168
		c-0.1-179.7-0.3-359.3-0.4-539c0-4.8,0.5-9.7,0.9-15.7c5.4,1.1,9.6,1.7,13.7,2.8c120.9,33.7,241.8,67.5,362.7,101.3
		c7.4,2.1,14.8,3.9,22.2,5.9c9.2,2.5,10.5,4.2,10.6,13.9c0.1,6.7-0.1,13.3-0.1,20c0.2,122,0.3,244,0.5,366c0,4.5-0.4,9-0.6,13.6
		c-0.8,0.1-1.5,0.2-2.3,0.3c-0.6-1.8-1.8-3.6-1.8-5.4c-0.2-10.3-0.2-20.7-0.3-31c-0.5-67-1-134-1.3-201c-0.3-50-0.3-100-0.5-150
		c0-1,0-2,0-3c-0.3-9.7-1.5-11.4-10.8-14c-19.2-5.5-38.5-10.8-57.7-16.2c-105.4-29.8-210.8-59.7-316.2-89.5c-0.3-0.1-0.6-0.2-1-0.3
		c-11.1-3.1-13-1.7-12.9,9.8c0.1,62,0.2,124,0.4,186c0.2,120,0.4,240,0.6,360c0.1,43.7,0.2,87.3,0.2,131
		c0.1,144.7,0.1,289.3,0.2,434c0.1,104.3,0.2,208.7,0.4,313c0,24.3,0.3,48.7,0.3,73c0,3.7-0.6,7.5-0.9,11.2
		C157.9,2728.9,157.2,2729,156.4,2729.1z"/>
	<path fill="url(#doorgradient)"  d="M138.6,2660.6c-0.5-499.8-1-999.7-1.5-1499.5c0-1.9,0.9-3.8,1.5-6.6c3.5,0.6,6.8,0.9,9.8,1.8
		c136.8,37.5,273.5,75.1,410.3,112.7c18.1,5,18,5,18.1,23.7c0.2,51.3,0.6,102.6,0.8,153.9c0.3,66.6,0.3,133.3,0.6,199.9
		c0.3,48.6,1,97.2,1.6,145.8c0.1,5.6,0.3,11.3-4.9,16.7c-0.8-2.4-1.7-3.9-1.9-5.6c-0.3-2.3-0.1-4.7-0.1-7
		c-0.2-100-0.2-200-0.5-299.9c-0.2-66.6-0.5-133.3-0.8-199.9c0-1.3,0-2.7,0-4c-0.5-8.3-1.2-9.3-9.5-11.6
		c-20.9-5.8-41.7-11.4-62.6-17.2c-114.9-31.6-229.8-63.2-344.8-94.8c-3.8-1-7.6-1.8-12.9-3c-1.2,50.5-0.4,100-0.6,149.6
		c-0.1,50,0,100,0,150c0,49.7,0,99.3,0,149c0,50,0,100,0,150c0,49.7,0,99.3,0,149c0,49.7,0,99.3,0,149c0,50,0,100,0,150
		c0,49.7,0,99.3,0,149c0,50-0.1,100-0.1,150c0,49.6,0,99.3,0,148.9C140.3,2660.4,139.5,2660.5,138.6,2660.6z"/>
	<path fill="url(#doorgradient)"  d="M227,2816.6c4.1-0.7,8.5-2.2,12.9-2.2c55.6-0.8,111.3-1.4,166.9-2.2c47.3-0.6,94.6-1.4,141.9-2.2c4.2-0.1,8.5-0.9,14-1.5
		c-0.4-357.7-3.2-714.8-4.9-1071.9c0.8-0.2,1.7-0.3,2.5-0.5c0.8,1.8,2.2,3.6,2.3,5.5c0.5,4.6,0.6,9.3,0.6,14
		c0.1,70.7,0.1,141.3,0.4,212c0.3,73,0.8,146,1.3,219c0.5,70.6,1.4,141.3,1.7,211.9c0.6,119.3,0.8,238.6,1.2,357.9
		c0.1,19,0.3,38,0.5,57c0,2.3,0.5,4.9-0.5,6.9c-0.8,1.7-3.6,3.9-4.9,3.5c-21.4-5.7-43.2-1.8-64.7-2c-30.6-0.3-61.3,0.6-92,0.9
		c-52.6,0.6-105.3,1.2-157.9,1.8c-5.3,0.1-10.7-0.1-16-0.1C228.4,2824.4,226.7,2822.1,227,2816.6z"/>
	<path fill="url(#doorgradient)"  d="M577.1,2850c0.4-4.1,1.2-8,1.2-11.9c-0.4-73.6-0.9-147.3-1.3-220.9c-0.1-28.3-1.4-56.8,0.8-84.9
		c1.3-16.8-0.5-33.1-0.7-49.6c-0.5-35.7-0.5-71.3-0.7-107c-0.5-86-1.1-172-1.4-257.9c-0.1-15.9,1.1-31.9,3.4-48.3
		c0.7,1.8,2.1,3.5,2.1,5.3c0.3,8,0.4,16,0.4,24c0.2,53.7,0.4,107.3,0.7,161c0.4,102,0.9,204,1.4,305.9c0.5,94,1.1,188,1.6,281.9
		c0.1,15.2,0,15.2-15.4,15.2c-92.7,0-185.3,0-278,0c-2.7,0-5.4,0.2-8-0.3c-1.4-0.2-3.6-1.7-3.6-2.7c0-1.7,0.9-4,2.3-5
		c1.4-1.1,3.7-1.3,5.7-1.4c4-0.3,8-0.3,12-0.3c69.3-0.3,138.6-0.6,208-1c20.3-0.1,40.6-0.7,61-1.2
		C571.1,2850.8,573.7,2850.4,577.1,2850z"/>
	<path fill="url(#doorgradient)"  d="M140.5,2734.1c6.7,23.3,4,44.7,4.3,65.9c0.2,15-0.1,30,0.1,44.9c0.1,9.2,1.2,10,10.6,10c34.3,0.1,68.6,0.1,102.9,0.2
		c3.6,0,7.2,0,11.4,0c0.4,3.3,0.7,5.7,1.1,9c-43.5,0-86.3,0-130,0c-0.6-3.2-1.6-6.4-1.6-9.5c-0.1-38.3-0.1-76.6,0-114.8
		C139.2,2738.5,139.7,2737.4,140.5,2734.1z"/>
	<path fill="url(#doorgradient)"  d="M574.2,1827.2c5.5,6.1,5.5,13.1,5.6,19.9c0.3,13.3,0.3,26.6,0.3,39.9c0.1,51.9,0.2,103.8,0.2,155.8c0,4.1-0.8,8.2-1.2,12.3
		c-0.7,0.1-1.3,0.1-2,0.2c-0.8-1.5-2.1-3-2.3-4.6c-0.4-2.9-0.2-6-0.2-9c0-56.3,0.1-112.5-0.1-168.8c0-11.5,2.3-23.1-1.3-34.6
		C572.2,1835.1,573.8,1830.9,574.2,1827.2z"/>
	<path fill="url(#doorgradient)"  d="M158.3,2779.7c0.7,10.7,1.5,21.4,2.3,33.1c3.4,0.5,6.5,1.3,9.6,1.4c10.3,0.2,20.6,0.2,30.9,0.3c2.3,0,4.7-0.2,6.9,0.3
		c1.4,0.3,3.4,1.9,3.4,2.9c0,1.7-0.9,4.1-2.3,4.9c-1.8,1.2-4.3,1.6-6.6,1.6c-13.3,0.1-26.6,0.2-39.9,0c-6.7-0.1-8-1.1-8.2-7.3
		c-0.4-11.6-0.1-23.3-0.1-34.9c0-0.8,0.8-1.6,1.2-2.4C156.6,2779.7,157.5,2779.7,158.3,2779.7z"/>
	<path fill="url(#doorgradient)"  d="M581.4,3144.1c-3.7-7.1-2.8-13.6,0.3-21C586.7,3130.7,586.5,3136.6,581.4,3144.1z"/>
	<path fill="url(#doorgradient)"  d="M3079.8,693.8c-10.7,1.9-18.4,0-26.3-3.7c-218.9-103.3-437.9-206.5-656.9-309.6c-210.6-99.2-421.1-198.4-631.6-297.7
		c-6-2.9-10.8-2.6-16.8,0.2c-267.7,126.3-535.5,252.4-803.3,378.6c-162.1,76.4-324.1,152.7-486.1,229.1c-7.3,3.4-14.4,4.8-22.8,3.5
		c1.9-3.7,5.6-4.3,8.6-5.7c87.6-41.3,175.3-82.6,263-123.9C911.8,468.4,1116,372.2,1320.3,276c142.2-67,284.4-133.9,426.4-201.2
		c7.4-3.5,13.1-3.3,20.4,0.1C2083,223.9,2399,372.8,2715,521.7c118.1,55.6,236.2,111.2,354.3,166.9
		C3072.2,689.9,3075,691.4,3079.8,693.8z"/>
	<path fill="url(#doorgradient)"  d="M638.9,692.6c24.8-11.2,49.7-22.5,74.5-33.7c220.9-99.9,441.8-199.7,662.6-299.6c124.1-56.1,248.2-112.1,372.2-168.4
		c7-3.2,12.4-1.9,18.7,0.9c182.9,82.8,365.9,165.5,548.8,248.2c183.3,82.8,366.5,165.7,549.8,248.5c3,1.3,5.9,2.8,9.9,4.8
		c-8.1,2.7-14.3,1-20.6-1.9c-86.4-39.1-173-78.2-259.4-117.2c-276.1-124.8-552.2-249.6-828.2-374.6c-7.2-3.3-13-3.7-20.5-0.3
		c-275.7,124.9-551.5,249.5-827.3,374.2c-86.8,39.2-173.6,78.4-260.3,117.7C652.5,694.2,646.1,695.4,638.9,692.6z"/>
                        </g>
                    </svg>