<?xml version="1.0" encoding="utf-8"?><svg version="1.1" id="Calque_1"
                        xmlns="http://www.w3.org/2000/svg" xmlns:xlink="http://www.w3.org/1999/xlink" x="0px" y="0px"
                        viewBox="0 0 5687 5928" style="enable-background:new 0 0 7954 6787;" xml:space="preserve">
                        <defs>
                            <lineargradient id="doorgradient" x1="50%" y1="0%" x2="50%" y2="100%">
                                <stop offset="0%" stop-color="#000000">
                                    <animate attributename="stop-color" values="#000000; #4615a0; #000000" dur="20s"
                                        repeatcount="indefinite"></animate>
                                </stop>
                                <stop offset="100%" stop-color="#4615a0">
                                    <animate attributename="stop-color" values="#4615a0; #000000; #4615a0" dur="20s"
                                        repeatcount="indefinite"></animate>
                                </stop>
                            </lineargradient>
                        </defs>
                        <g>
                            <path fill="url(#doorgradient)"
                                d="M60,5928c-20,0-40,0-60,0C0,3954.7,0,1981.4,0,8c8-2.7,16-5.3,24-8c6.7,0,13.3,0,20,0c6.1,2.5,12.1,5.3,18.3,7.5 c22.6,7.9,45.5,15.2,68,23.5c110.5,41,220.9,82.3,331.4,123.4c107.4,39.9,214.7,79.8,322.2,119.6c7.3,2.7,14.3,7.3,23.8,6.1 c0.4-5.9,1-11.8,1.2-17.6c1.3-40.6,2.5-81.3,3.9-121.9c0.3-7.9-1-16.1,5.4-24.5c5.5-0.2,12-0.8,18.6-0.8 c185.3-0.1,370.6-0.2,555.8-0.2c221.3-0.1,442.5-0.1,663.8-0.2c201.9-0.1,403.9-0.2,605.8-0.3c290.6-0.2,581.2-0.3,871.7-0.4 c74.6,0,149.3,0.4,223.9,0.4c164.6-0.1,329.2-0.3,493.8-0.4c229.9-0.2,459.9-0.3,689.8-0.4c6.7,0,13.4-0.2,20,0.3 c22.2,1.6,25.2,4.7,25.4,26.5c0.2,29.3,0,58.7,0,88c0,5.2,0,10.5,0,15.5c9.2,2.5,15.6-2.1,22.1-4.6 c148-54.9,295.8-110.1,443.8-164.9c64.9-24,129.3-49.8,195.4-70.5c2.4-0.7,4.5-2.6,6.7-3.9c8,0,16,0,24,0c2.7,1.3,5.3,2.7,8,4 c0,1974.7,0,3949.3,0,5924c-14.7,0-29.3,0-44,0c-12.4-4.7-24.7-9.6-37.1-14.2c-315.3-117-630.7-233.9-946-350.9 c-4.4-1.6-8.7-3.5-13.1-4.9c-8.7-2.8-13.1-9-13.8-17.7c-0.7-8.6-0.9-17.3-0.9-25.9c0-378.6,0-757.3,0-1135.9 c0-209.3,0.1-418.6,0.1-628c0-10-0.2-20,0-30c0.1-4,0.1-8.2,1.6-11.7c1-2.3,4.6-3.4,7.4-5.3c4.8,8,3.4,15.4,3.3,22.5 c-0.3,49.3-0.9,98.6-1.2,147.9c-0.1,11.3,0.8,22.6,0.8,34c0.1,156,0,312,0.1,468c0,12.2-0.7,24-6.7,34.9 c-3.2,5.8-3.4,11.2,0.3,16.9c5.3,8.2,6,17.3,5.9,26.8c-0.3,28-0.3,56,0,84c0.1,13.4,0,26.5-5.5,35.8c2.6,11.7,6.4,20.7,6.4,29.6 c-0.1,33.3,1.8,66.7-2.1,99.9c-0.8,6.6-0.6,13.3,0.1,19.9c3.7,34.6,3.6,69.2,1.1,103.8c-0.6,8.6-0.7,17.3-0.5,26 c0.3,14.6,1.2,29.3,1.6,43.9c2,64.6-3.8,129.3-0.4,193.9c0.1,2.7-0.1,5.3-0.2,8c-0.4,28.7-1,57.3-1.2,86c-0.4,72-0.7,144-0.8,216 c0,42.7,0.5,85.3,0.8,128c0,1.3,0.1,2.7,0.1,4c-0.2,7.6,3.4,12.5,10.6,15c13.2,4.7,26.3,9.6,39.4,14.4 c251.7,93.2,503.4,186.4,755.1,279.6c57.5,21.3,114.9,42.6,172.4,63.6c6.6,2.4,13,6.9,21.4,4.2c0.4-5.4,1-10.6,1.1-15.9 c0.3-18.7,0.6-37.3,0.6-56c0.1-242.7,0.4-485.3,0.3-728c-0.2-527.3-0.7-1054.6-1-1581.9c-0.1-260,0.1-520,0-780 c0-40.7-0.7-81.3-0.8-122c-0.1-26.7,0.2-53.3,0.2-80c-0.1-46.6-0.7-93.3-0.6-139.9c0-32.6,1-65.3,1-97.9c0-43.3-0.8-86.6-0.9-129.9 c-0.1-54,0-108,0.2-161.9c0.1-26.7,0.5-53.3,0.6-80c0.1-18.7,0-37.3-0.1-56c-0.2-30-0.7-59.9-0.6-89.9 c0.2-51.3,1.3-102.6,1.1-153.9c-0.2-62-1.3-124-1.9-185.9c-0.4-43.3-0.5-86.6-0.6-129.9c0-7.3,0.5-14.6,0.8-22 c0.5-12.6,1.3-25.3,1.3-37.9c-0.4-53.3-1.1-106.6-1.5-160c-0.1-18.6,0.2-37.2,0.6-55.8c0.4-20.7,1.1-41.3,1.4-62 c1.4-83.3-3.2-166.6-1.4-249.9c0.9-40.6,0.1-81.3,0-121.9c0-2.7,0.1-5.3,0.2-8c0.3-46.6,0.6-93.3,0.8-139.9c0-5.3-0.4-10.7-0.4-16 c-0.1-22-0.3-44-0.3-66c0-9.3,0.6-18.7,0.5-28c-0.1-43.3-0.7-86.6-0.6-129.9c0.1-58.7,0.8-117.3,1.1-176c0-6.5,1.3-13.3-2.1-20 c-8.4-2.3-15.5,2.4-22.7,5.1c-249.6,93.1-500.1,183.5-749.6,276.8c-67.4,25.2-135,49.8-202.4,74.8c-7.3,2.7-15.5,4-22.1,11.1 c-0.2,7.9-0.7,16.5-0.7,25.1c0,149.3,0,298.7,0,448c0,12,0,24,0,36c-0.1,12.7-0.1,25.3-0.3,38c-0.3,12,1.8,24.8-1.9,35.7 c-4.6,13.6,2.8,24.6,2.7,37.1c-0.7,92.7-0.3,185.3-0.6,278c0,9.9-1.9,19.8-3.7,29.5c-1.3,6.7-1.3,13,0,19.7 c1.8,9.1,3.5,18.4,3.7,27.6c0.5,26.7,0.2,53.3,0.2,80c0,8.1,0,15.7-7.2,21.8c-3.7,3.2-4.1,9,0.4,12.3c6.5,4.7,6.5,11.1,6.5,17.9 c0,31.3-0.4,62.7,0.2,94c0.3,16.8-1.7,33.2-4.3,49.6c-1.5,9.6-1.1,18.5,1,27.6c3.8,16.7,4.4,40.1,1.3,62.6 c-2.4-2.4-4.6-3.9-5.6-5.9c-4.1-8.6-4.6-17.9-4.6-27.3c0-39.3,0.2-78.7-0.1-118c-0.1-15.4,1-30.5,5.9-45.3 c3.9-11.7,4.1-23.7,0.5-35.5c-5.3-17.4-6.3-35.3-6.6-53.3c-0.7-39.3,1.5-78.5,0.4-117.8c-1.3-48.6-0.4-97.3-0.2-146 c0-8,0.3-16.1,1.9-23.8c3.4-16.6,2.3-33.1,0.9-49.7c-1-11.2-2.6-22.5-2.6-33.8c-0.2-221.3-0.2-442.6-0.2-664c0-8,0.4-16,0.1-24 c-0.4-9.8-1.6-10.6-15.4-10.3c-1.3,9-1.3,18.1-0.1,27.3c1.2,9.2,2.2,18.5,2.2,27.8c0.1,40-0.2,80-0.3,120 c-0.1,62.7,0.1,125.3-0.1,188c0,8.6-1.9,17.1-2.1,25.7c-0.5,15.3-2.9,31.1,0,45.8c4.2,22,5.4,43.3-0.3,65c-0.8,3.1-0.6,6.8,0.4,9.9 c5.4,17.1,3.2,34.1,0.2,51.3c-1.3,7.7-2.1,16.4-0.1,23.7c3.6,12.5,3.2,25,3.2,37.6c0.1,32,0,64,0,96c0,52,0.5,104-0.1,156 c-0.6,52.6,1.1,105.2,0.7,157.9c-1.1,140.6-0.5,281.3-0.5,422c0,15.3-0.7,30.6,2.4,45.8c0.9,4.4,0.2,9.3,0,13.9 c-0.7,13.9-2.3,27.9-2.3,41.8c-0.1,1181.9-0.1,2363.9-0.1,3545.8c0,7.3,0.1,14.7-0.1,22c-0.1,3.8-0.8,7.6-1.2,11.9 c-11.2,3.6-21.9,2.2-32.4,2.2c-633.8,0.1-1267.7,0.1-1901.5,0c-519.9,0-1039.7,0-1559.6-0.1c-10.6,0-21.2-1.4-31.8-1.7 c-7.8-0.2-15.9-2.3-23.6,2.6c-0.3,4.7-1,9.4-0.8,14c0.5,14.1-6.3,21.8-19.7,26.1c-20.9,6.7-41.4,14.7-62,22.4 c-307.2,113.9-614.4,227.9-921.6,341.9C62.7,5925,61.4,5926.8,60,5928z M1055.7,5543.1c0.3-9.1,0.7-17,0.8-24.9 c0.3-20.7,0.5-41.3,0.7-62c0.3-18.6,1-37.3,0.8-55.9c-0.2-28-1.6-56-1.6-84c-0.1-89.3,0.2-178.6,0.4-267.9c0-5.3-0.2-10.7-0.3-16 c-0.5-24-1-48-1.3-72c-0.9-59.9,2.2-119.9-0.3-179.9c-0.4-10-0.1-20,0.5-30c1.5-22.5,4.9-45,0.1-67.5c-0.4-1.9-0.1-4-0.1-6 c-0.1-23.3-0.1-46.7-0.2-70c0-7.3,0.3-14.4,3.4-21.5c2-4.6,3.1-11.1,1.3-15.4c-5.2-12.3-3.7-24.9-3.8-37.4 c-0.2-25.3-0.1-50.7-0.1-76c0-8,1-15.6,2.9-23.5c2.2-9.4,2.6-20.2,0.2-29.5c-2.6-9.9-3.4-19.6-3.4-29.5c0-153.3,0-306.6,0-459.9 c0-9.3,0.5-18.6,0.6-28c0.3-27.3,0.8-54.6,0.6-81.9c-0.2-30-1-59.9-1.5-89.9c0-2-0.3-4.3,0.5-5.9c7-14.6,3.7-30.1,4.2-45.2 c0.1-3.8-0.3-8.4-2.3-11.4c-3.7-5.7-2.5-11.5-2.5-17.4c0.3-44.6,0.7-89.3,0.7-133.9c0-26.7-0.5-53.3-0.8-80 c-0.8-71.9,0.8-143.8,0.1-215.7c-0.9-94.6-0.4-189.3-0.1-284c0-12.5,2.8-25.1,3.6-37.6c1.2-20.5,4.1-41-2.7-61.3 c-3.4-10.2-3.7-20.9-2.5-31.7c3.1-29.1,4.6-58.2,2.9-87.4c-0.3-5.3-0.4-10.7-0.6-16c-0.3-8-0.1-15.7,2.7-23.6 c3.1-8.8,2.3-18.3-0.2-27.5c-1.7-6.3-3-12.9-3.2-19.4c-0.5-14.6-0.3-29.3-0.1-44c0.1-6,0.2-12.1,1.8-17.8 c1.7-6.1,1.4-11.7,0.3-17.7c-5.7-31.5-6.8-63.2-6.8-95.1c0.3-489.3,0.2-978.5,0.2-1467.8c0-6-0.2-12,0.1-18 c0.2-3.9,0.2-8.4,2.1-11.6c4.1-6.9,3.3-14.1,3.3-21.4c0-101.3,0-202.6-0.1-304c0-68,0-136-0.1-204c0-7.2-0.5-14.5-0.8-22 c-8.4-3.3-15.8-6.3-23.2-9.1c-251.7-93-503.4-186.1-755.2-279.1C211.1,81,145.6,56.7,79.9,32.7c-6.6-2.4-13-7.2-21-4.3 c-4.1,6.1-2.5,12.9-2.4,19.3c0.6,42,1.6,84,2.1,126c0.3,24,1.1,48.1-0.6,72c-1.7,24.1-1.3,47.9,0.2,71.9c0.5,7.3,0.4,14.6,0.4,22 c-0.1,12-0.5,23.9-0.6,35.9c-0.2,25.3-0.5,50.6-0.5,75.9c0,20,0.5,40,0.6,59.9c0.1,11.3-0.2,22.6-0.4,33.9 c-0.2,14.6-0.4,29.3-0.4,43.9c0,6.7,1.6,13.4,1.1,19.9c-2.8,38.6-1.1,77.2,0.2,115.8c0.4,12,0.3,24,0.3,36 c-0.1,29.3,0.6,58.7-0.8,87.9c-2.6,57.3-1.6,114.6-1.2,171.9c0.1,17.3,4.2,34.5,0,51.8c-0.6,2.5,0.1,5.3,0.2,8 c0.6,15.3,1.7,30.6,1.8,45.9c0.1,26-0.3,52-0.7,78c-0.3,19.3-1,38.6-1.3,57.9c-0.1,10,0.1,19.9,0.5,29.9c0.4,9.3,1.8,18.6,1.9,27.8 c0.2,57.3,0.2,114.6,0,171.9c-0.1,38.7-0.2,77.3-1.1,116c-0.4,19.3-3.8,38.5,0,57.8c0.5,2.5,0,5.3-0.2,8 c-2.7,37.9-1.9,75.8-0.1,113.8c1.3,28.5,0.4,57.2,0.2,85.7c-0.1,20.6-1.9,41.3-0.9,61.9c1.7,34,2.4,67.9,0,101.9 c-0.4,5.3-0.5,10.7-0.4,16c0.6,34,1.6,67.9,1.7,101.9c0.1,20.6-1.3,41.3-2,61.9c-0.2,6.7-0.8,13.4,0.2,19.9 c2.5,16,1.6,31.9,0.9,47.9c-1.8,40-2.4,79.9,0.7,119.8c0.4,4.6-0.5,9.3-0.6,13.9c-0.3,14-1.5,28-0.6,41.9 c1.8,27.3,1.2,54.6,0.5,81.9c-0.7,28.6,0,57.3,0.1,85.9c0.1,12.7,0.4,25.3,0.2,38c-0.3,18.7-1.5,37.3-1.5,55.9 c-0.2,56,0.1,112,0.1,168c-0.3,264.6-0.9,529.2-1,793.9c-0.1,721.2,0.1,1442.4,0.2,2163.7c0,16.7,0.2,33.3,0.5,50 c0.1,4.4,1.1,8.8,1.7,12.8c2.5,0.5,4,1.4,5,1c326.7-120.6,653.4-241.2,980-362C1046.8,5547.8,1050.2,5545.8,1055.7,5543.1z M1064.5,319.5c10.5-0.7,19.1-1.5,27.7-1.7c9.3-0.2,18.7,0.2,28,0.2c1204.9,0,2409.9,0,3614.8,0c16.7,0,33.3-0.4,50-0.4 c9.4,0,18.4-1.7,27.3-5.1c46.8-17.5,93.7-34.7,140.5-52.1c4.9-1.8,9.6-4.1,15.4-6.5c2-34.2,0.6-68.1-0.3-102 c-0.1-4.5-1.2-8.9-1.9-13.5c-8.7-3.2-16.7-2.2-24.6-2.2c-1358.9,0-2717.8,0-4076.7,0c-8.7,0-17.3-0.3-26,0 c-4.5,0.2-8.9,1.5-13.6,2.3c-0.8,4.1-2,7.3-2,10.5c-0.1,45.9-0.1,91.9-0.1,136.1c2.3,2.5,2.9,4,4.1,4.5c5.5,2.4,11.1,4.6,16.7,6.7 c51,19.3,103.7,34.1,153.7,56.2c14,6.2,28.4,11.4,42.7,17c4.8,1.9,9.7,3.5,15.3,5.5c6.2-11.1,16-11.9,26.3-11.7 c6.7,0.2,13.3,0,20,0c309.2,0,618.5-0.1,927.7-0.1c579.1,0,1158.3,0.1,1737.4,0.1c156.6,0,313.2-0.1,469.8,0 c127.3,0,254.6,0.2,381.9,0.4c8.6,0,17.2-0.6,24.9,1.9c1.3,3.2,2.2,5.4,3.6,8.7c23.7-9.3,46.6-18.2,69.5-27.3 c5.5-2.2,10.9-5,16.2-7.6c0.3-0.1,0.1-1.2,0.2-3c-7.1-0.2-14.2-0.5-21.3-0.5c-205.9,0.1-411.9,0.4-617.8,0.5 c-371.9,0.1-743.8,0.2-1115.6,0.2c-561.8,0-1123.6-0.2-1685.4-0.4c-69.3,0-138.6-0.3-207.9-0.5c-6.5,0-13.4,1.5-20.3-2.9 C1064.5,329.5,1064.5,325.8,1064.5,319.5z M5659.8,20.2c-4.4,7.3-3.7,14-3.6,20.6c0.2,12.7,0.6,25.3,0.6,38 c-0.2,595.2-0.6,1190.5-0.8,1785.7c-0.1,278.6,0,557.3,0,835.9c0,1057.2,0,2114.4,0,3171.5c0,7.3-0.1,14.7,0.2,22 c0.2,3.9,0.7,8.1,2.1,11.7c0.8,2,3.5,3.9,5.7,4.5c3.6,0.9,6.6-1.2,7.8-4.6c1.1-3.1,1.5-6.5,1.6-9.8c0.2-7.3,0.1-14.7,0.1-22 c-0.2-1349.8-0.5-2699.6-0.7-4049.4c-0.1-590.6,0-1181.2,0-1771.7c0-8,0.2-16-0.4-24c-0.2-2.9-1.9-6.7-4.2-8.2 C5666.1,19.1,5662.2,20.2,5659.8,20.2z M27.8,20.6c-0.2,9.8-0.6,18.4-0.6,26.9c-0.2,609.9-0.4,1219.8-0.4,1829.7 c-0.1,1332.4,0,2664.9,0,3997.3c0,8,0,16,0.2,24c0.1,2.6,0.1,5.7,1.4,7.7c1.2,1.9,4.2,3.6,6.4,3.6c2.2,0.1,5.2-1.5,6.6-3.3 c1.4-1.9,1.8-4.9,1.9-7.5c0.3-9.3,0.4-18.7,0.4-28c-0.1-1357.1-0.3-2714.2-0.4-4071.3c0-523.2,0-1046.5,0-1569.7 c0-63.3,0.2-126.6,0.3-190c0-4,0-8-0.3-12C42.6,21.3,41.1,20.5,27.8,20.6z M3467.4,5110.9c0.1-31.1-22.7-54.5-53.5-55 c-32.2-0.5-54.4,22.2-56,54.4c-1.5,29.5,26.4,55.8,53.5,55C3443.8,5164.5,3467.3,5142.8,3467.4,5110.9z M4390.3,5319.1 c-0.3-23.4-20-43-43.4-43c-24,0-44.1,20.8-43.5,45c0.6,22.2,20.7,42.6,42.4,42C4371.3,5362.5,4390.2,5344.2,4390.3,5319.1z M1985.2,2080.1c-0.2-15.6-13.2-28.3-28.2-27.6c-14.3,0.7-26.1,13.3-26.1,27.8c0,15.3,11.1,26.8,26.1,27.2 C1972.7,2108,1985.4,2095.7,1985.2,2080.1z M2016.9,1051.1c-9-0.1-16.3,7.1-16.4,16.1c-0.1,9,7.3,16.4,16.2,16.3 c9.1-0.1,16.6-7.3,16.5-16.1C2033.2,1058.5,2025.9,1051.2,2016.9,1051.1z M1852.6,5272.8c9.2,0.2,16.6-6.8,16.8-16 c0.2-8.7-7.6-16.1-16.9-16c-8.5,0.1-16.2,8.5-15.9,17.3C1836.9,5265.9,1844.1,5272.6,1852.6,5272.8z M3651,4069.4 c0.2-7.8-5.5-14.1-13.2-14.6c-8.8-0.6-15.9,5.4-16.3,13.7c-0.4,8.4,6.2,15.8,14.2,16C3643.8,4084.8,3650.8,4077.8,3651,4069.4z M3306.7,4960.2c6.1,0.2,11.6-4.6,12-10.7c0.4-6-4.3-11.8-10.3-12.5c-6.8-0.9-13,4.8-12.9,11.7 C3295.6,4955,3300.4,4959.9,3306.7,4960.2z M2490.6,2884.2c-4.3-2.9-7-5.8-10.2-6.6c-3.5-0.9-7.3,3.7-7.4,7.5 c-0.1,4.8,4.8,9.4,8.9,7.6C2485,2891.4,2487,2887.9,2490.6,2884.2z M3241.1,4750.9c2.1,1.1,5,3.7,8.2,4.1c3.5,0.4,6.5-4.9,5.3-8.6 c-1-3.4-3.4-5.4-7.1-5.1C3243.5,4741.6,3240.4,4745.3,3241.1,4750.9z M1829.3,2239.1c1.2-1.2,4-3,5.1-5.4c1.5-3.5-2.2-7.7-6.1-7.9 c-3.8-0.2-6,2.1-7,5.4C1820.2,2234.8,1823.6,2238.8,1829.3,2239.1z M1811.8,5287.3c3.5,3.3,5.3,6,7.8,7.2c2.8,1.3,6.6-1.9,6.9-5.3 c0.4-3.9-1.8-6.9-5.3-6.9C1818.7,5282.3,1816.1,5284.9,1811.8,5287.3z M2093.7,2027.8c-3.2-3.2-4.9-6.3-7.4-7.2 c-3.3-1.1-6.3,0.9-7.4,4.6c-1.2,4,2,8.7,5.9,8C2087.5,2032.9,2089.8,2030.4,2093.7,2027.8z M4315.6,3877.5c-3.5-2.7-5.6-5.4-8.2-6 c-3.4-0.9-6.2,1.5-6.8,5.2c-0.7,3.9,2.9,8.1,6.9,7C4310.1,3883,4312.1,3880.3,4315.6,3877.5z M1417.2,1441.7 c3.9,2.7,6.1,5.2,8.7,5.7c3.7,0.8,7.3-3.8,6.6-7.5c-0.7-3.6-3.5-6.5-6.5-5.7C1423.1,1434.9,1420.9,1438.3,1417.2,1441.7z M2581.9,3906.6c-2.2,3.7-4.5,5.9-4.8,8.4c-0.1,1.4,2.9,3.8,5,4.4c2.9,0.8,6.2-3.2,5.1-6.1 C2586.5,3911.2,2584.5,3909.7,2581.9,3906.6z M3765.4,1609.8c-3.3-1.9-5.2-3.8-7.3-4c-3.3-0.4-6.2,4-4.4,6.7c1.1,1.7,4,3.3,5.9,3.1 C3761.4,1615.3,3762.8,1612.6,3765.4,1609.8z M2207,2133.8c3-3.3,5.7-5.2,6.4-7.7c0.4-1.2-2.5-4.3-4.5-5.2 c-2.9-1.3-6.9,2.1-6.3,5.2C2203,2128.3,2204.8,2130.2,2207,2133.8z M1945.3,4207.1c-4.2-1.3-6.3-2.6-8.3-2.4 c-1.2,0.1-3.3,3.3-3,3.9c1.1,1.8,3.1,4.2,4.8,4.3C1940.4,4212.9,1942.1,4210.2,1945.3,4207.1z M4228.2,4847.1 c-2.5-2.3-4.3-4.6-5-4.4c-1.9,0.9-3.3,2.8-5,4.2c1.2,1.3,2.5,3.7,3.6,3.6C4223.7,4850.4,4225.5,4848.7,4228.2,4847.1z M2873.9,5168.7c-1.8-1.7-3-3.9-4.2-3.9c-1.2-0.1-3.6,1.9-3.6,3.2c-0.1,1.3,1.7,3.6,3,3.9C2870.2,5172,2871.8,5170.1,2873.9,5168.7 z M2316.9,4911.3c-1.1,2.4-2.1,3.8-2.3,5.3c-0.1,0.6,2,2.3,2.5,2.1c1.4-0.7,3.3-1.9,3.4-3.1 C2320.7,4914.5,2318.7,4913.3,2316.9,4911.3z M3102.9,4650.7c1.7-1.7,3.8-2.9,3.9-4.2c0.1-1.2-2-3.5-3.2-3.5 c-1.3-0.1-3.6,1.6-3.9,2.9C3099.5,4647,3101.5,4648.6,3102.9,4650.7z M4058.1,5338.4c1.9-2,3.3-3.1,4-4.5c0.3-0.6-1.1-2.9-1.7-2.8 c-1.5,0.1-3.8,0.7-4.2,1.7C4055.8,5334,4057.1,5335.8,4058.1,5338.4z M2548.3,5331.1c-1.5-2.1-2.4-4.4-3.6-4.6 c-1.2-0.2-3.7,1.5-4,2.7c-0.3,1.2,1.2,3.7,2.5,4.2C2544.3,5333.7,2546.1,5332.1,2548.3,5331.1z M2565.9,1385.9 c-1.5,1.8-3.5,3.3-3.4,4.5c0.1,1.3,2.3,3.5,3.5,3.5c1.3-0.1,3.4-2.1,3.6-3.5C2569.6,1389.2,2567.5,1387.7,2565.9,1385.9z M3479.7,3570.1c-2-1.3-3.5-3-4.9-2.9c-1.3,0.1-3.3,1.9-3.7,3.3c-0.7,2.6,2.5,5.3,4.7,4.1C3477.2,3573.9,3478.1,3572,3479.7,3570.1 z M3885.9,4825.1c1-2,2.5-3.6,2.2-4.8c-0.3-1.4-2.3-2.3-3.5-3.5c-1.2,1.7-2.4,3.5-3.6,5.2 C3882.4,4822.9,3883.8,4823.8,3885.9,4825.1z M4173,3580.4c-0.8-0.6-1.5-1.3-2.4-1.7c-0.2-0.1-1.3,0.8-1.2,0.9 c0.3,0.9,0.9,1.8,1.4,2.6C4171.5,3581.6,4172.3,3581,4173,3580.4z M3229.3,3564.2c1.1,0.5,2.4,1.6,3.2,1.3c0.8-0.3,1.1-2,1.6-3.1 c-1.1-0.4-2.4-1.4-3.3-1.1C3230.1,3561.4,3229.8,3563.1,3229.3,3564.2z M1286.2,2859.1c1.7-0.9,2.7-1.4,3.7-1.9 c-0.8-1.3-1.6-2.8-2.6-3.9c-0.2-0.2-2.7,1-2.6,1.4C1284.8,2856.2,1285.6,2857.6,1286.2,2859.1z M1593.1,1179 c-0.6,1-1.2,2.1-1.9,3.1c1.1,0.5,2.2,1.5,3.1,1.4c0.7-0.1,1.1-1.8,1.7-2.7C1595.1,1180.1,1594.1,1179.5,1593.1,1179z M3119.9,3087.9c-2.5-1.4-3.8-2.6-5.3-2.9c-0.7-0.1-2.5,1.7-2.4,2.1c0.5,1.5,1.5,3.5,2.7,3.8 C3115.9,3091.3,3117.5,3089.5,3119.9,3087.9z M1226.1,1097.7c-0.4,1.1-1.4,2.3-1.1,3.2c0.2,0.7,1.9,1,2.9,1.4 c0.5-1.1,1.5-2.4,1.2-3.1C1228.8,1098.4,1227.2,1098.2,1226.1,1097.7z M3769.7,1593c-0.7,1.5-1.5,2.9-1.7,4.4 c-0.1,0.4,2.4,1.8,2.6,1.5c1.1-1.1,1.9-2.5,2.7-3.8C3772.4,1594.5,3771.4,1593.9,3769.7,1593z M2175.4,2136.5 c-1,0.6-2.6,1.1-2.7,1.8c-0.1,1,0.8,2.2,1.3,3.3c1.3-1,2.7-2,4-3C2177.1,2137.9,2176.3,2137.2,2175.4,2136.5z M3520.8,2176.4 c-0.9-1.7-1.4-2.7-2-3.7c-1.3,0.9-2.8,1.6-3.7,2.8c-0.3,0.5,0.9,2.1,1.4,3.2C3518,2177.9,3519.4,2177.2,3520.8,2176.4z M2123.7,945 c-0.8,1.6-1.7,3-2,4.6c-0.1,0.3,2.7,1.8,2.9,1.6c1.1-1.1,1.9-2.6,2.4-4C2127.1,946.9,2125.3,945.9,2123.7,945z M4581.7,3160.5 c0.5,0.2,1.1,0.7,1.4,0.6c0.3-0.1,0.5-0.9,0.7-1.4c-0.5-0.2-1.1-0.7-1.4-0.6C4582,3159.3,4581.9,3160,4581.7,3160.5z M1638.8,5077.7c-0.9,0.6-2.4,1.1-2.5,1.9c-0.2,1,0.6,2.2,0.9,3.3c1.2-0.9,2.5-1.8,3.7-2.6 C1640.2,5079.5,1639.5,5078.6,1638.8,5077.7z M4271.9,2401.9c-0.7,0.6-2.2,1.2-2.4,2.1c-0.2,0.9,0.9,2,1.4,3c1.2-1,2.3-1.9,3.5-2.9 C4273.6,2403.4,4272.8,2402.7,4271.9,2401.9z M3217.4,3335.6c-1-0.6-1.9-1.3-3-1.7c-0.2-0.1-1.3,1.1-1.2,1.3c0.4,1,1.2,1.9,1.8,2.8 C3215.9,3337.2,3216.6,3336.4,3217.4,3335.6z M2816.5,3552.5c1.6,0.7,3,1.7,4.6,2c0.3,0.1,1.8-2.6,1.5-2.9c-1-1.2-2.6-1.9-4-2.8 C2818,3549.8,2817.4,3550.9,2816.5,3552.5z M1614.2,677.3c-0.5,1-1.2,1.9-1.5,2.9c-0.1,0.3,1,1.4,1,1.3c1-0.6,1.8-1.3,2.7-2 C1615.7,678.8,1615,678,1614.2,677.3z M3690.8,648.7c0.5,1,0.7,2.7,1.4,2.9c0.8,0.3,2.1-0.7,3.1-1.1c-0.5-1.1-0.9-2.1-1.4-3.2 C3692.8,647.8,3691.8,648.2,3690.8,648.7z M2600,2057c-1-0.5-2-1-3-1.3c-0.1,0-1,1.2-0.9,1.4c0.5,0.9,1.2,1.6,1.9,2.4 C2598.7,2058.6,2599.3,2057.8,2600,2057z M2607,4204.2c-0.4-1.1-0.8-2.2-1.1-3.3c-1.1,0.4-2.8,0.7-3.1,1.4 c-0.3,0.8,0.7,2.1,1.2,3.2C2604.9,4205.1,2606,4204.7,2607,4204.2z M3700,4142.4c-0.5-1-0.7-2.5-1.5-2.9c-0.5-0.3-2.5,0.5-2.7,1.2 c-0.3,0.8,0.6,2,1,3C3697.9,4143.3,3699,4142.8,3700,4142.4z M1296.6,4823.1c0.8,0.5,1.6,1.1,2.5,1.4c0.2,0.1,1.1-1,1-1.2 c-0.4-0.8-1.1-1.5-1.6-2.3C1297.9,4821.7,1297.2,4822.4,1296.6,4823.1z M4063.9,4401.3c-1-0.6-1.9-1.3-2.9-1.8 c-0.1-0.1-1.2,1.1-1.1,1.4c0.4,1,1.1,1.8,1.7,2.7C4062.4,4402.9,4063.1,4402.1,4063.9,4401.3z M3190.4,4518.6 c-0.8-0.6-1.6-1.4-2.6-1.8c-0.4-0.1-1.1,0.6-1.6,0.9c0.6,1,1.1,2,1.7,2.9C3188.8,4519.9,3189.6,4519.2,3190.4,4518.6z M2441.7,3639 c0.5-1,1.1-2,1.4-3.1c0.1-0.3-0.9-1.2-1.4-1.2c-0.5,0-1.5,0.9-1.4,1.2C2440.6,3637,2441.2,3638,2441.7,3639z M1312.6,862.1 c-0.3-0.5-0.5-1.2-0.9-1.3c-0.5-0.2-1.2,0.1-1.7,0.2c0.4,0.7,0.8,1.4,1.2,2.2C1311.7,862.8,1312.1,862.5,1312.6,862.1z M2930.3,2317.6c-0.9-0.3-1.8-0.7-2.7-0.8c-0.4,0-0.8,0.8-1.2,1.2c0.8,0.6,1.7,1.3,2.5,1.9 C2929.4,2319.2,2929.8,2318.4,2930.3,2317.6z M1782,2331.2l-0.8,1.3l1.2,0.2L1782,2331.2z M2698.8,1370.8c0.5-0.2,0.9-0.4,1.4-0.6 c-0.4-0.3-0.7-0.8-1.2-0.9c-0.4-0.1-0.9,0.3-1.4,0.5C2698,1370.2,2698.4,1370.5,2698.8,1370.8z M3352,2633 c-0.6,0.2-1.2,0.3-1.7,0.5c0.1,0.5,0.3,1.3,0.4,1.3c0.6,0,1.1-0.2,1.7-0.4C3352.3,2634,3352.1,2633.5,3352,2633z M1441.7,846.7 c-0.4,0.4-1.3,0.8-1.3,1.1c0.2,1,0.7,1.9,1.1,2.9c0.5-0.3,1.4-0.8,1.3-1C1442.7,848.6,1442.2,847.7,1441.7,846.7z M3330.6,810.3 c-0.4-0.4-0.9-1.1-1.3-1.1c-0.4,0-0.9,0.7-1.4,1c0.7,0.6,1.4,1.1,2,1.7C3330.2,811.3,3330.4,810.8,3330.6,810.3z M2881.6,1174 c-0.4-0.5-0.9-1.5-1.2-1.4c-1.1,0.2-2.2,0.8-3.3,1.2c0.4,0.5,0.9,1.5,1.2,1.4C2879.4,1175,2880.5,1174.4,2881.6,1174z M1710.2,2806.2c-0.3-0.5-0.4-1.4-0.8-1.5c-0.5-0.2-1.2,0.2-1.8,0.3c0.4,0.8,0.8,1.5,1.2,2.3 C1709.3,2806.9,1709.7,2806.5,1710.2,2806.2z" />
                            <path fill="url(#doorgradient)" class="st0"
                                d="M24,0C16,2.7,8,5.4,0,8c0-2.7,0-5.3,0-8C8,0,16,0,24,0z" />
                            <path fill="url(#doorgradient)" class="st0"
                                d="M5686.8,4c-2.7-1.3-5.3-2.7-8-4c2,0,4,0.1,6,0C5688.8-0.2,5685.9,2.8,5686.8,4z" />
                            <path fill="url(#doorgradient)" class="st0"
                                d="M1593.1,1179c1,0.6,2,1.1,3,1.7c-0.6,1-1,2.6-1.7,2.7c-0.9,0.2-2.1-0.8-3.1-1.4 C1591.9,1181,1592.5,1180,1593.1,1179z" />
                            <path fill="url(#doorgradient)" class="st0"
                                d="M1226.1,1097.7c1.1,0.5,2.7,0.7,3,1.5c0.3,0.7-0.8,2-1.2,3.1c-1-0.5-2.7-0.7-2.9-1.4 C1224.7,1100,1225.7,1098.8,1226.1,1097.7z" />
                            <path fill="url(#doorgradient)" class="st0"
                                d="M3352,2633c0.1,0.5,0.3,0.9,0.4,1.4c-0.6,0.2-1.2,0.4-1.7,0.4c-0.2,0-0.3-0.9-0.4-1.3 C3350.8,2633.4,3351.4,2633.2,3352,2633z" />
                            <path fill="url(#doorgradient)"
                                d="M5474.5,3611.9c-22.5-5.8-46-3.8-69-6.2c-23.8-2.5-47.8-3.5-71.8-4.9c-23.3-1.4-46.5-2.7-70-4c-4.1-5.6-7.8-10.8-12.7-17.4 c-4.2,6-7.4,10.7-11.2,16.2c-158.9-8.6-318.3-20-479-29.1c-0.7,6.9-1.7,12-1.8,17.1c-0.3,14.7-0.1,29.3-0.5,44 c-0.2,5.3-3.1,8.6-9.1,7.4c-3-14.5-3.3-72.2-0.4-92.7c4-0.5,8.4-1.7,12.7-1.5c18,0.9,35.9,2.4,53.9,3.5 c74.5,4.8,148.9,9.7,223.4,14.5c51.9,3.3,103.7,6.4,155.6,9.7c73.8,4.7,147.6,9.6,221.4,14.3c14.6,0.9,29.3,1.3,43.9,2.2 c8.5,0.5,17.1,1.7,24.8,2.6c4.9,8.1,3.1,15.6,3.1,22.8c-0.4,144.7-0.8,289.3-1.5,434c-1.7,363.3-3.6,726.6-5.4,1089.9 c-0.4,69.3-0.9,138.6-1.3,208c0,6.6-0.4,13.2-0.7,20.1c-6.5,3.5-12,0.9-17.6-0.7c-34.6-9.9-69.1-19.8-103.7-29.7 c-133.7-38.6-267.6-76.7-401.1-116c-62.6-18.4-124.5-39.2-186.6-59.1c-21.7-7-22.8-8.9-23-31.1c-0.1-12,0.1-24,0.1-36 c-0.1-415.3-0.1-830.6-0.2-1245.9c0-10,0.1-20,0.4-30c0.2-7.3,1-14.4,6.5-19.6c4.3,0.5,4.6,3.2,4.7,5.8c0.2,6,0.2,12,0.2,18 c0,352.6-0.1,705.3-0.1,1057.9c0,77.3,0,154.6,0.1,231.9c0,29.3,0.3,28.6,27.8,36.3c57.7,16.2,115.1,33.2,172.7,49.8 c157.4,45.4,314.8,90.7,472.2,136c11.6,3.3,23.2,5.9,34.9,1.6c5.2-7.7,3.4-15.9,3.4-23.7c0.3-61.3,0.4-122.7,0.6-184 c0.8-281.3,1.3-562.6,2.5-843.9c0.9-214.6,2.9-429.3,4.3-643.9C5477.3,3628.3,5479,3620.2,5474.5,3611.9z" />
                            <path fill="url(#doorgradient)"
                                d="M4789.9,3643.2c2.9-0.8,4.8-1.9,6.7-1.8c214.1,13.3,428.1,26.7,642.2,40.3c2.5,0.2,5,1.6,7.1,2.4 c3.9,7.4,2.4,14.8,2.4,22.1c-0.8,207.9-1.5,415.8-2.4,623.8c-1.4,304.5-2.9,609.1-4.4,913.6c0,7.1,1.8,14.7-3,22.6 c-6.8,0.2-13.5-2.5-20.3-4.4c-80.6-23.3-161.2-46.5-241.7-69.9c-122.8-35.6-245.5-71.2-368.2-106.8c-6.3-1.8-13-2.7-18.1-7.4 C4786.8,5057.4,4786.5,3665.9,4789.9,3643.2z M4801,3664.4c-4.1,9.9-2.9,17.9-3,25.8c-0.3,225.9-0.5,451.9-0.9,677.8 c0,28,0.4,56-1.1,83.9c-1.7,32-2.3,63.9,0.2,95.9c0.7,8.6,0.8,17.3,0.8,26c0.1,58,0.2,116,0.2,174c0.1,96.6,0.1,193.3,0.3,289.9 c0,7.2-1.6,14.7,4,22.7c205.7,60.5,412.6,121.3,619.6,182c2.4,0.7,5.2,0.4,7.6,0.5c3.8-6.7,2.5-13.5,2.5-20 c0.8-136.6,1.6-273.3,2.3-409.9c1.2-253.9,2.2-507.9,3.3-761.8c0.5-108,1.1-215.9,1.6-323.9c0-7.2,1.9-14.7-3.2-22.8 c-7.6-0.9-16-2.4-24.6-2.9C5207.8,3689.1,5005,3676.8,4801,3664.4z" />
                            <path fill="url(#doorgradient)"
                                d="M5453,548.8c-8.3-3.2-15,0.4-22,2.3c-68.6,19.4-137.1,38.9-205.7,58.2c-135.9,38.3-271.7,76.5-407.6,114.7 c-21.5,6-21.9,6.1-22,28.6c-0.5,132-0.8,264-1.4,395.9c-0.3,76.7-1,153.3-1.6,230c0,5.6,1.4,11.7-2.8,16.5c-5-0.9-5.3-4.5-5.4-7.7 c-0.3-11.3-0.4-22.7-0.4-34c0.6-100,1.6-200,1.8-299.9c0.3-103.3-0.2-206.6-0.2-309.9c0-9.2-1-18.6,2.8-28.9 c111.7-31,223.7-62.8,336-93.1c111.7-30.1,221.8-66.1,333.5-93.3c5.2,3.3,4.4,7.5,4.5,11.3c0.2,6.7,0.1,13.3,0.1,20 c-0.2,326.6-0.3,653.2-0.5,979.8c-0.1,138-0.3,276-0.3,413.9c0,61.3,1.5,122.7,0.6,184c-1.1,82.6-0.3,165.3,0,247.9 c0.2,46-1.3,92-1.6,138c-0.2,27.3,0.1,54.6,0.7,82c0.7,28.7,2.2,57.3-1.2,85.9c-0.2,2-0.3,4-0.3,6c0.5,27.9,1.1,55.9,1.4,83.8 c0.2,14-0.3,27.9-0.5,41.9c-0.5,32.6-1.3,65.3-1.6,97.9c-0.3,23.3-0.4,46.7,0.1,70c0.3,14.6,1.7,29.2,2.4,43.8 c0.3,6,0.7,12,0.1,17.9c-0.4,3.8-2,7.9-7.7,7.7c-4.6-3.1-2.9-8.1-2.9-12.4c-0.1-38.7-0.1-77.3,0-116c0.3-208,0.7-415.9,1-623.9 c0.8-578.6,1.5-1157.1,2.2-1735.7C5454.6,564.3,5455.8,556.2,5453,548.8z" />
                            <path fill="url(#doorgradient)"
                                d="M5479.6,477.3c-17.2,1.9-670.5,180.3-706.4,192.7c-4.5,6.5-2.8,14.1-2.9,21.2c-0.2,64.7,0,129.3-0.4,194 c-0.5,78-1.8,156-2.1,234c-0.5,132-0.5,264-0.8,395.9c0,7.9,0,15.9,0,27.2c-4-4.4-7-6.2-7.3-8.4c-1.2-7.9-2.2-15.8-2.2-23.8 c0-34,0.1-68,0.6-102c0.3-23.3-0.6-46.9,2.5-69.9c3.2-23.6-2.4-46.4-2.1-69.7c1.1-73.3,0.6-146.6,1-220c0.7-122,1.6-244,2.3-365.9 c0.2-28.8,0.3-28,26.7-35.3c164.4-45,328.8-90.1,493.2-135.2c60.4-16.6,120.7-33.3,181-50c7-1.9,14.1-3.7,20.1-5.2 c5.6,2.8,5.5,7,5.6,10.8c0.2,13.3,0.2,26.7,0.2,40c-0.4,342.6-1,685.2-1.4,1027.9c-0.6,513.3-1.1,1026.5-1.6,1539.8 c-0.1,61.3-0.1,122.6-0.3,184c0,7.8,1,15.9-3.6,24.6c-67.3,0-134.5,0-201.8-0.1c-3.9,0-7.8-0.7-12.5-1.2c0-4.5,0-8.2,0-11.7 c7.2-4.8,14.8-2.9,21.9-3c54.6-0.2,109.3-0.1,163.9-0.1c6.5,0,13-0.6,19.5-0.9c4.1-7.9,2.8-15.3,2.8-22.5c0-42-0.1-84-0.4-126 c-0.1-12.1,0.7-23.7,5.1-35.3c2.7-7.2,2.6-15.6,2.6-23.5c0-95.3-0.3-190.6-0.4-286c-0.2-517.9-0.4-1035.9-0.6-1553.8 c-0.1-238.6,0-477.3-0.1-715.9C5481.9,495.6,5483.4,486.8,5479.6,477.3z" />
                            <path fill="url(#doorgradient)"
                                d="M5377.2,885.1c-18.5,2.5-480,132.3-500.6,140.4c-4.4,5.8-2.8,12.7-2.9,19.2c-0.4,34-0.7,68-1,102 c-0.1,9.2-0.4,18.5-4.4,27.6c-0.5-3.5-1.4-6.9-1.4-10.4c0-44,0.2-88,0.3-132c0-2,0-4,0.1-6c0.7-12,2.4-14.6,14.5-18.1 c25.6-7.4,51.3-14.2,77-21.4c131.9-37.5,263.8-75,395.8-112.3c8.7-2.5,17.3-7.2,26.8-4.8c4.1,7.2,2.7,14.7,2.7,21.9 c0.1,53.3-0.1,106.6-0.1,160c-0.3,543.9-0.5,1087.8-0.8,1631.6c0,31.3,0.2,62.7-0.4,94c-0.3,17.3-2.4,34.5-3,51.8 c-0.4,10.6,0.2,21.3,0.7,31.9c0.4,7.9,1.4,15.8,2,22.3c-5.5,6.2-11.2,4.6-16.2,4.5c-42.6-0.6-85.3-1.5-127.9-2.2 c-113.3-2-226.5-3.9-339.8-6c-12.6-0.2-25.3,0.7-37.3-2.7c-0.7-0.9-1.1-1.4-1.4-2c-0.3-0.6-0.8-1.2-0.9-1.8 c-0.5-31.3-1.5-62.6-1.3-93.9c0.5-79.3,1.5-158.6,2.3-237.8c0-0.6,0.4-1.3,0.8-1.8c0.3-0.4,0.9-0.7,2.2-1.6c0.8,1.6,2.1,3,2.2,4.4 c0.3,4,0.1,8,0.1,12c-0.3,94-0.7,187.9-1,281.9c0,7.9-1.2,16,1.9,23.2c5.7,5.9,12.5,5.1,19.1,5.2c20.7,0.2,41.3,0.1,62,0.5 c129.2,2.4,258.5,5,387.7,7.4c11.9,0.2,23.8,0,36.2,0c1.6-4.7,3.5-8.3,3.9-12c0.7-7.3,0.6-14.6,0.6-22 c0.2-231.9,0.4-463.9,0.6-695.8c0.2-225.3,0.3-450.6,0.6-675.8c0.2-183.3,0.6-366.6,0.8-549.9 C5377.9,906.4,5377.5,896.5,5377.2,885.1z" />
                            <path fill="url(#doorgradient)"
                                d="M4789.1,1413.7c5.5,10.5,4.2,17.9,4.2,25c-0.2,38-0.9,76-1.1,114c-1.2,214.6-2.4,429.2-3.4,643.9 c-1.1,235.3-1.9,470.6-3,705.8c-0.4,88.6-1.2,177.3-1.7,265.9c0,7.2,0.5,14.4,0.7,20.6c7.2,5.8,14.1,4.2,20.5,4.3 c68,1,135.9,1.8,203.9,2.7c101.9,1.4,203.9,2.8,305.8,4.2c9.2,0.1,18.8-0.6,26.1,6.4c0.5,5.9-1.9,9.6-7.3,10.3 c-5.3,0.6-10.6,0.5-16,0.5c-103.3-1.2-206.6-2.4-309.8-3.5c-64-0.7-127.9-1.4-191.9-2.1c-10-0.1-20,0.1-29.4,4.2 c-2.3,1-5,0.8-8.9,1.3c-1-3.5-2.4-6.4-2.6-9.4c-0.4-5.3-0.1-10.7,0-16c0.6-98,2.3-196,1.6-293.9c-2-281.9,3-563.8,4.5-845.8 c1.1-202,1-403.9,2.6-605.9c0.1-7.3,0.1-14.7,0.6-22C4784.6,1421.8,4786.4,1419.5,4789.1,1413.7z" />
                            <path fill="url(#doorgradient)"
                                d="M5361.6,2838.4c-3.9,0.3-7.8,0.9-11.6,0.8c-148.5-3.5-297-7.1-445.5-10.7c-0.5,0-1-0.7-1.4-1.2c-0.4-0.5-0.6-1.2-1.5-3.3 c7-0.3,13.5-0.7,19.9-0.7c103.9-0.1,207.9-0.2,311.8-0.3c34.6,0,69.3-0.1,103.9-0.3c6.5,0,13.4,1.3,19.8-3.6 c0.4-2.9,1.3-6.2,1.3-9.4c0-622.5-0.1-1244.9-0.3-1867.4c0-1.9-1.1-3.7-1.7-5.5c-7.1-2.9-13.2,0.4-19.5,2.2 c-63.4,18.2-126.7,36.3-190,54.6c-76.8,22.1-153.5,44.2-230.3,66.5c-8.2,2.4-17.3,2.8-24.3,10.3c-0.2,4.6-0.7,9.9-0.8,15.2 c-0.1,6,0,12,0,18c0,5.3,0.1,10.7,0.1,16c0,6,0.1,12-0.1,18c-0.2,5,0.1,10.1-3.9,17.9c-1.5-5.5-2.6-7.7-2.6-9.9 c0.2-24.7,0.3-49.3,1-74c0.4-14.7,2.1-16.7,16.5-20.9c42.2-12.3,84.5-24.3,126.7-36.5c104.2-30.2,208.4-60.6,312.6-90.8 c6.3-1.8,12.7-3.2,20.2-5.1c1.2,5,2.7,8.6,2.8,12.3c0.4,12.7,0.4,25.3,0.4,38c0.1,316.6,0.2,633.1,0.2,949.7 c0,209.3-0.3,418.5-0.5,627.8c-0.1,89.3-0.4,178.6-0.7,267.9C5364.2,2821.8,5365.6,2829.9,5361.6,2838.4z" />
                            <path fill="url(#doorgradient)"
                                d="M4762.3,1966.5c0.8,31.6,2.1,60.8,2.2,90c0.1,36.6-1,73.3-1.2,109.9c-0.8,159.9-1.3,319.9-2.1,479.8 c-0.1,16.5,1.6,33.4-5.7,49.2c-1,2.1-0.6,5.6,0.5,7.6c5,9.3,4.4,19.4,4.5,29.3c0.1,52,0,103.9-0.1,155.9c0,8.7-0.5,17.3-0.5,26 c-0.2,89.3-0.3,178.6-0.4,267.9c0,19.3-0.2,38.6-0.3,58c0,5.9,0,11.8,0,18.6c4.8,1,8.5,2.3,12.3,2.3c96.6,1.2,193.2,2.4,289.8,3.2 c56,0.5,111.9,0.5,167.9,0.7c6,0,12,0.2,17.9,0.9c5.4,0.6,6.3,2.6,6.6,12.4c-2.4,0.6-4.8,1.5-7.3,1.7 c-29.5,1.7-479.5,0.3-493.7-1.5c-5.1-5.4-3.2-12.4-3.2-18.8c0-30.7,0.4-61.3,0.5-92c0.5-147.9,0.9-295.9,1.6-443.8 c1.1-244.6,2.4-489.1,3.6-733.7c0-6,0.1-12,0.8-17.9C4756.1,1970.7,4759,1969.4,4762.3,1966.5z" />
                            <path fill="url(#doorgradient)"
                                d="M4634.1,2649.1c1.9,4.3,3.3,8,5.2,11.4c3.8,6.6,4.9,13.6,4.5,21.2c-0.5,9.3-0.8,18.6-1,28c-0.4,25.9-0.3,51.7,3,77.5 c1.6,12.6,1.9,25.4-3.2,37.4c-1.4,3.3-4,6.2-7.4,11.3c-1.4-4.8-2.7-7.1-2.8-9.5c-0.3-7.3-0.3-14.7-0.3-22c0-329.9,0-659.8,0-989.7 c0-8.6,0.6-17.3,1.5-25.9c0.3-3,1.1-6.6,5.3-7c3.7,0.6,3.9,3.7,4,6.1c0.4,14.6,0.5,29.3,0.5,43.9c0,4.6-1.4,9.3-1.3,13.9 c0.5,25.3,1.4,50.6,1.7,75.9c0.2,15.3,0.3,30.6-0.6,45.9c-0.7,11.4-0.9,22.5,0.5,33.9c1.1,8.5,1.3,17.3,0.3,25.8 c-2,16.6-2.2,33.2-1.2,49.9c1.1,17.9,1.8,35.9,2,53.9c0.1,9.3-1.2,18.6-1.9,27.9c-0.3,4-1.5,8-1.2,11.9c3.2,33.2,0,66.5,1.7,99.8 c1.6,32.6,1.3,65.3,1.5,97.9c0.2,33.3,0.1,66.6,0.1,100c0,8,0.4,16,0,24c-0.9,18.6-4.6,37.5-2.7,55.8c1.9,18.6,2,37.2,2.7,55.7 C4645.9,2620.1,4644.8,2635.8,4634.1,2649.1z" />
                            <path fill="url(#doorgradient)"
                                d="M4635.6,2871.2c4.7,8.6,7.1,16.1,7.6,24.1c0.7,10.6,1.6,21.3,1.6,31.9c0.1,90.6,0,181.2-0.2,271.8c0,10.6-1,21.3-1.2,31.9 c-0.1,6.6,0.4,13.2,0.8,19.8c0.2,2.6,1.3,5.3,1.1,7.9c-3.7,61.9,0.7,123.8-0.7,185.7c-0.4,16.6-1.7,33.3-1.1,49.9 c1.9,49.2-4,98.6,1.5,147.8c0.1,1.3,0.3,2.9-0.2,3.9c-0.9,1.6-2.2,3.6-3.7,4c-1.5,0.4-4.2-0.2-5.2-1.4c-1.7-1.8-3.1-4.4-3.4-6.9 c-0.6-5.3-0.5-10.6-0.5-16c0.4-91.9,1.1-183.9,1.2-275.8c0.1-43.3-1.1-86.6-1.2-129.9c-0.2-62-0.1-123.9,0-185.9 c0-8,0.4-16,1.1-23.9c1.1-13.3,0.6-26.5-0.3-39.8c-1.5-19.9-0.9-39.9-0.9-59.9c0-12,0.4-23.9,0.7-35.9 C4632.7,2874.1,4633.4,2873.7,4635.6,2871.2z" />
                            <path fill="url(#doorgradient)"
                                d="M4885.7,1828.7c0.7,4.3,1.9,8.6,2,12.8c0,13.3-0.5,26.7-0.6,40c-0.6,90-1.3,180-1.6,269.9c-0.8,204-1.6,407.9-2.2,611.9 c-0.1,19.2-2,38.6,2.5,57.7c0.3,1.2-2.3,4.4-2.7,4.3c-2.2-0.8-5.7-2-6-3.6c-0.9-5.8-1.1-11.9-1.1-17.8c0.7-88,1.6-176,2.1-263.9 c1.1-203.3,1.9-406.6,2.9-609.9c0.1-28,0.5-56,0.8-84c0.1-5.8,0.9-11.6,1.3-17.4C4884,1828.8,4884.9,1828.7,4885.7,1828.7z" />
                            <path fill="url(#doorgradient)"
                                d="M4863,1794.9c6.4,1.9,6.9,5.4,7.1,8.6c0.5,6.6,0.7,13.3,0.7,19.9c-1.6,226.4-3.2,452.9-4.8,679.3c0,4.6,0,9.2,0,14.1 c-5.2-0.8-5.8-4.2-6-7.5c-0.4-6-0.6-12-0.5-18c1.2-227.8,2.4-455.5,3.5-683.3C4863,1804.2,4863,1800.2,4863,1794.9z" />
                            <path fill="url(#doorgradient)"
                                d="M4765.6,1563.6c1.3,15.6,3.1,27.1-1.5,38.7c-1.3,3.4-1,7.7-0.8,11.5c0.5,7.9,2.1,15.8,2.1,23.7c0.2,96.5,0.1,193,0.1,289.4 c0,4.7,0.2,9.4-0.5,13.9c-0.3,2.2-2.6,4-4.1,6c-1.7-1.7-4.4-3.2-4.9-5.1c-0.9-3.8-0.6-7.9-0.6-11.9c0.6-106.5,1.1-212.9,1.8-319.4 c0.1-11.3,0.6-22.6,1.7-33.8C4759.3,1573.3,4762.2,1570.1,4765.6,1563.6z" />
                            <path fill="url(#doorgradient)"
                                d="M5448.9,3198.9c5.7-19-1.4-38.8,6.2-56.8c0.1-0.3,1.2-0.2,1.9-0.3c4.3,12.2,4.7,51.7,0.5,72.6c-3.3,0.7-7.1,2-10.8,2.1 c-22.5,0.2-45.1,0.2-67.6,0.2c-2.6,0-5.3-0.3-7.9-0.8c-3.6-0.7-6.8-5.2-6.3-9c0.5-3.7,3-6,6.7-6c18.6-0.2,37.1-0.2,55.7-0.4 C5434.5,3200.4,5441.7,3201.4,5448.9,3198.9z" />
                            <path fill="url(#doorgradient)"
                                d="M4749,3712.6c4.9-1.9,7.4,0.3,8.2,3.7c0.8,3.8,0.9,7.9,0.9,11.8c-0.1,5.8-0.5,11.6-0.8,16.7c-4.3,2.3-6,0.4-7-2.1 C4746.1,3732.6,4746.2,3722.4,4749,3712.6z" />
                            <path fill="url(#doorgradient)"
                                d="M4865.3,1268.4c-3.2-14.7-4.4-29.4-1.5-45C4870.5,1233.9,4871.4,1250.7,4865.3,1268.4z" />
                            <path fill="url(#doorgradient)"
                                d="M4863.6,1314.7c9.1,20.1,9.1,34.1,2.1,46.3c-0.7-0.8-2-1.6-2-2.3C4863.6,1345.5,4863.6,1332.4,4863.6,1314.7z" />
                            <path fill="url(#doorgradient)"
                                d="M4885.1,1291.6c-3-20.7-5-41.5-0.1-65.9C4889.5,1250,4886.6,1270.8,4885.1,1291.6z" />
                            <path fill="url(#doorgradient)"
                                d="M4884.4,1794.6c-2.9-16.3-2.7-29.7-1.4-43.8c6,3.7,3.6,9,4.3,13.3c0.7,4.5,0.9,9.1,0.9,13.7 C4888.1,1782.6,4891,1787.8,4884.4,1794.6z" />
                            <path fill="url(#doorgradient)"
                                d="M4865.1,1712.8c6.7,18.1,6.7,18.3-0.4,27.8C4861.1,1732,4861.6,1724.1,4865.1,1712.8z" />
                            <path fill="url(#doorgradient)"
                                d="M4870.9,1650.9c-1.3,8.1-2.5,16.2-4.1,26.4C4860.7,1665.4,4860.7,1665.4,4870.9,1650.9z" />
                            <path fill="url(#doorgradient)"
                                d="M4864,1580.5c5.5,7.9,5.5,7.9,5.1,19c-1-0.5-2.5-0.8-3-1.6C4863.2,1592.5,4862.4,1586.8,4864,1580.5z" />
                            <path fill="url(#doorgradient)"
                                d="M4886.1,1612.8c0,7,0,13.9,0,25.2C4881.4,1626.8,4882.9,1619.6,4886.1,1612.8z" />
                            <path fill="url(#doorgradient)"
                                d="M4864,1458.3c-1.7-8.2-1.7-13.7,4.6-19.3C4870.6,1446.4,4868,1451.3,4864,1458.3z" />
                            <path fill="url(#doorgradient)"
                                d="M4885.9,1441c0,6,0,12,0,18c-0.7,0-1.4,0-2.1,0c0-6.2,0-12.4,0-18.5C4884.5,1440.6,4885.2,1440.8,4885.9,1441z" />
                            <path fill="url(#doorgradient)"
                                d="M4866.3,1754.9c1.4,4.8,2.8,9.5,4.4,15C4861,1767.7,4864.9,1761,4866.3,1754.9z" />
                            <path fill="url(#doorgradient)"
                                d="M220.2,5363c-2.9-588.7-6.3-1176.5-8.4-1764.4c0-3.2,1-6.4,1.7-10.8c9.5-1,18.7-2.3,27.9-2.9c61.2-4,122.3-8,183.5-11.7 c53.2-3.3,106.4-6.2,159.6-9.5c52.5-3.3,105-6.9,157.6-10.2c50.5-3.2,101.1-6.3,151.6-9.6c11.3-0.7,22.6-1.9,33.9-2.4 c7.2-0.4,14.4-0.1,22.5-0.1c4.7,16,2.1,32,2.3,47.7c0.2,15.2,1.9,30.5-1.3,45.4c-5.5,1.7-8.6-0.8-9.2-5.2c-0.9-6.6-0.8-13.3-1-19.9 c-0.3-13.2,0.7-26.5-1.1-40.9c-5-0.4-9.4-1.3-13.8-1.1c-35.3,1.8-70.5,3.7-105.8,5.9c-28.6,1.8-57.2,4.1-85.7,5.9 c-54.5,3.3-109.1,6.4-163.6,9.7c-30.6,1.9-61.2,4.1-91.8,5.9c-6,0.4-12,0.1-19.3,0.1c-2.6-4-5.8-8.9-8.9-13.6 c-1.7,0.3-3.5,0.2-4,0.9c-3.2,4.2-6.1,8.6-9.5,13.4c-23.4,3.7-47.4,3.8-71.3,5.2c-23.3,1.3-46.6,2.3-69.8,4.7 c-23.7,2.5-47.8,1-70.8,5.9c-1,3.4-2.1,5.3-2.1,7.2c2.4,567.2,4.8,1134.4,7.3,1701.7c0,3.3,0.8,6.5,1.4,10.9 c4.5,0.9,8.9,2.9,13.2,2.5c8.6-0.8,17.2-2.1,25.4-4.4c191.6-54.2,383.1-108.5,573.7-166.1c24.8-7.5,50.1-13.6,75.2-20.4 c20-5.4,21.2-6.4,21.4-27.2c0.3-45.3,0-90.7,0.2-136c0.1-13.3,1-26.6,1.4-39.9c0.2-7.3,0.4-14.7,0.3-22 c-0.4-25.3-1.5-50.6-1.5-75.9c-0.2-339.9-0.2-679.9-0.2-1019.8c0-7.3,0-14.7,0.5-22c0.2-2.2,2.2-4.3,3.4-6.7 c6.4,5.6,6.9,12.3,7.2,19c0.4,10,0.6,20,0.6,30c-0.1,415.3-0.2,830.5-0.3,1245.8c0,14,0.4,28,0.1,42c-0.4,17.7-2.1,20.4-19,25.8 c-63.4,20.3-126.6,41.5-190.4,60.2c-165.5,48.5-331.3,95.9-497,143.6C238.6,5361.7,231.2,5365.7,220.2,5363z" />
                            <path fill="url(#doorgradient)"
                                d="M911.1,5077.7c-4.6,2-8.1,4.1-11.8,5.1c-212.2,61.5-424.4,122.9-636.7,184.4c-5.2-6.9-3.6-13.7-3.7-20.1 c-0.6-71.3-1.3-142.6-1.6-213.9c-2-441.1-3.9-882.3-5.8-1323.4c0-7.9,0-15.9,0-22.8c5.5-6.4,11.8-5.7,17.6-6.2 c19.3-1.5,38.5-2.8,57.8-4c53.9-3.2,107.7-6.1,161.6-9.4c49.9-3.1,99.7-6.7,149.5-9.9c25.3-1.6,50.5-2.8,75.8-4.4 c61.2-3.8,122.3-7.8,183.5-11.6c3.8-0.2,7.7,0.6,10.8,0.8c5.4,6,3.5,12.3,3.5,18.1c0.2,49.3,0.3,98.6,0.3,147.9 c-0.1,415.2-0.2,830.3-0.3,1245.5C911.5,5061.7,911.2,5069.7,911.1,5077.7z M902.2,5057.4c0.2-7.2,0.7-14.4,0.7-21.7 c0.1-151.3-0.5-302.6,0.6-453.9c0.4-55.3,0.2-110.5,0-165.8c-0.9-233.3-0.7-466.6-0.9-699.9c0-12.7,0.1-25.3-0.4-38 c-0.2-4.3-2-8.5-3.1-13.3c-5.8,0-10.5-0.2-15,0c-25.3,1.5-50.5,3.1-75.8,4.7c-54.5,3.5-109,7.1-163.6,10.4 c-30.6,1.9-61.2,3.3-91.8,5.2c-83.1,5.1-166.3,10.2-249.4,15.4c-13.2,0.8-26.4,2.5-38.5,3.6c-5,8.3-3.4,15.8-3.3,23 c1.9,407.9,4,815.9,5.9,1223.8c0.4,90,0.5,180,0.9,270c0,7.1-1.7,14.6,2.1,20.9c1.9,0.5,3.4,1.3,4.5,1 c205.8-60.2,411.5-120.5,617.2-180.9C895.2,5061.1,898.1,5059.3,902.2,5057.4z" />
                            <path fill="url(#doorgradient)"
                                d="M219.4,475c-0.5,9.9-1.1,16.4-1.1,22.9c-0.1,38.7,0,77.3,0,116c0,284,0,567.9,0,851.9c0,529.3,0.1,1058.6,0.2,1587.8 c0,13.9-0.7,27.8,4.4,41.4c2.2,5.9,1.2,13.2,1.2,19.8c0,42.7-0.2,85.3-0.2,128c0,7.2,0.3,14.5,0.5,20.7c6.8,6.4,13.8,4.3,20.2,4.4 c54.6,0.2,109.3,0.1,163.9,0.1c7.3,0,14.5,0,22.9,0c0.6,5.4,1.1,9.5,1.5,13.1c-2.5,1.3-3.6,2.4-4.7,2.4c-22,0.2-44,0.4-66,0.5 c-41.3,0.1-82.6,0-124,0c-6.6,0-13.1-0.4-20.8-0.6c-0.9-5.1-2.3-9.4-2.3-13.8c-0.4-54.7-2.1-109.4-0.4-164 c1.7-51.3,1-102.6,0.8-153.9c-0.5-144-1.9-287.9-2.1-431.9c-0.8-662.6-1.4-1325.2-2-1987.8c0-19.3-0.1-38.7,0-58 c0-5.2,0.8-10.5,1.2-15.9c9.1-1.8,16.4,2,23.9,4c60.4,16.5,120.6,33.4,181,50c165,45.3,330.1,90.5,495.1,135.7 c25.4,7,25.7,7.1,25.8,34.3c0.6,133.3,1.1,266.6,1.6,400c0.2,59.3,0.5,118.7,0.5,178c0,16.6-1.3,33.3-1.8,49.9 c-0.2,6.6-0.1,13.3,0.3,20c4.1,61.9,3.6,123.9,3.8,185.9c0,12.6-0.3,12.6-7.6,24.8c-4.1-3.9-2.7-8.7-2.7-12.7 c-0.1-54,0.1-108-0.1-162c-0.8-225.3-1.8-450.6-2.7-675.9c0-6.6,1.2-13.4-4-21C692.2,604.7,457.4,540.1,219.4,475z" />
                            <path fill="url(#doorgradient)"
                                d="M910.7,1396.5c-4.8-6.7-3.4-12.7-3.4-18.4c-0.7-84.7-1.3-169.3-1.8-254c-0.6-122-1.1-244-1.6-366 c-0.1-30.6,0.9-27.8-28-35.9c-198.7-56-397.3-112.2-596-168.1c-10.1-2.8-19.9-7.4-29.9-6.9c-6.5,4.4-5,10.2-5,15.2 c-0.1,33.3-0.1,66.7,0,100c0.5,272.6,1.2,545.3,1.5,817.9c0.6,517.9,1.1,1035.9,1.6,1553.8c0,8.5,1.1,17.2-1.1,25.3 c-4.7,1.5-7.5-0.7-8.1-4.1c-1-5.8-1.6-11.8-1.3-17.6c0.5-13.3,2.4-26.6,2.4-39.8c0.1-54,1-108-0.9-162 c-1.5-43.3,1.2-86.5,0.5-129.8c-0.1-3.3,0.3-6.7-0.1-10c-3.8-36.6-1-73.2-0.5-109.9c0.5-37.3-1.2-74.6-1.3-112 c-0.2-51.3,0.3-102.6,0.3-153.9c0-44.6-0.2-89.3-0.3-133.9c-0.2-50-0.7-100-0.7-150c0-95.3,0.2-190.6,0.4-285.9 c0.1-69.3,0.4-138.6,0.3-208c-0.1-116.7-0.5-233.3-0.6-350c-0.1-214.6-0.2-429.3-0.2-643.9c0-6.5-1-13.2,2.7-20.5 c3.9,0.6,7.8,0.7,11.4,1.7c83.9,23.8,167.7,47.9,251.7,71.4c115.4,32.3,231,64.1,346.5,96c20.5,5.7,41,10.9,60.3,16.1 c5.7,7.8,5,15.3,5,22.5c-0.1,21.3-0.6,42.7-0.6,64c-0.1,34-0.1,68,0,102c0,32,0.2,64,0.3,96c0.4,122,0.9,244,1.3,365.9 c0,8.7-0.1,17.3-0.7,26C914.7,1391.9,912.5,1393.8,910.7,1396.5z" />
                            <path fill="url(#doorgradient)"
                                d="M318.8,2887c-0.5-5.1-1.3-8.3-0.9-11.4c3.2-24,2.9-47.8-0.6-71.7c-1.2-8.5-0.8-17.3-0.8-26c-0.2-283.3-0.5-566.6-0.7-849.9 c-0.2-343.3-0.2-686.6-0.3-1029.8c0-9.3,0.3-18.5,0.5-27.5c6.1-4.1,11.1-1.9,16.1-0.5c37.2,10.5,74.3,21,111.5,31.5 c121.8,34.4,243.5,68.7,365.3,103c23.2,6.5,23.3,6.5,23.4,31.5c0.2,39.3,0.3,78.7,0.3,118c0,5.8-0.7,11.7-1.2,20.7 c-5.2-9.8-4-17.1-4.1-24.1c-0.3-33.3-0.4-66.7-0.6-100c0-4.7,0.1-9.3-0.1-14c-0.4-9.9-1.5-11.5-10.4-14.5 c-6.3-2.1-12.7-3.9-19.1-5.7c-149.9-42.3-299.9-84.7-449.8-127c-7-2-14-3.6-22.3-5.7c-0.9,5.4-2.2,9.8-2.3,14.1 c-0.3,20.7-0.3,41.3-0.3,62c0.2,218,0.6,435.9,0.7,653.9c0.3,396.6,0.4,793.2,0.5,1189.8c0,15.3-0.2,30.7-0.1,46 c0,4.6,0.5,9.3,1.1,13.9c0.3,1.9,1.6,3.6,3.1,6.7c4.5,0.5,9.6,1.6,14.7,1.5c24.7-0.2,49.3-0.8,74-1.2 c125.9-2.2,251.8-4.5,377.8-6.7c8-0.1,16,0.2,24-0.4c5.1-0.4,10.1-2,16.1-3.2c0.4-7,1-12.9,1-18.8c0-93.3-0.1-186.6-0.2-279.9 c0-7.9,0-15.8,2.8-24.1c0.7,2.4,2,4.9,2.1,7.3c0.3,6.7,0.1,13.3,0.1,20c0.3,30.7,0.8,61.3,0.9,92c0.3,65.9,0.6,131.9,0.7,197.8 c0,6.6-0.8,13.1-1.2,20.7c-5,0.9-9.4,2.1-13.8,2.5c-7.3,0.6-14.6,0.7-22,0.8c-152.6,2.7-305.1,5.5-457.7,8.2 C338.4,2887.1,329.8,2887,318.8,2887z" />
                            <path fill="url(#doorgradient)"
                                d="M921.7,3216.2c-2.1,0-5,0.8-7.1-0.1c-12.1-5.3-24.7-4.6-37.4-4.5c-163.2,1.9-326.4,3.7-489.6,5.5c-7.3,0.1-14.7,0-22-0.4 c-4.1-0.2-4.5-1.2-6.8-11.5c4.7-1.6,9.5-3.7,14.5-4.6c4.5-0.9,9.3-0.5,14-0.5c137.9-1.7,275.8-3.4,413.7-5.2 c32-0.4,63.9-1,95.9-1.6c5.2-0.1,10.4-0.8,15.2-1.2c5.4-7.5,3.3-15.1,3.3-22.1c-0.1-76-0.3-151.9-0.6-227.9 c-1.3-296.5-2.6-593.1-4.2-889.6c-1-200.6-2.4-401.2-3.6-601.7c0-8-0.2-16,0-24c0.1-3,1.1-5.9,2.3-11.7c3,4.1,5.3,5.9,5.5,7.9 c0.7,6.6,0.8,13.3,0.8,19.9c0.5,158.6,0.4,317.2,1.4,475.8c1.6,237.9,4.3,475.8,5.7,713.7c1,161.3,0.5,322.5,0.8,483.8 c0,26.7,0.6,53.3,0.7,80C924.4,3202.5,926,3209.3,921.7,3216.2z" />
                            <path fill="url(#doorgradient)"
                                d="M446.1,3278.1c0.3-9.2,1.4-11.6,6.6-12.2c5.9-0.7,12-0.8,17.9-0.9c88-0.4,175.9-0.5,263.9-1.2 c64.6-0.5,129.3-1.7,193.9-2.7c3.2,0,6.4-0.8,10.6-1.3c0.6-4.4,1.5-8.1,1.5-11.9c0.1-50.7,0.3-101.3,0-152 c-0.5-94.6-1.4-189.3-1.9-283.9c-0.1-28.7,0.1-57.3,0.9-86c0.3-10.4,5.2-21.2,3.7-31.1c-1.5-9.7-4.1-19.4-4.2-29.4 c-0.9-117.3-2-234.6-2.8-351.9c-0.6-88-0.9-176-1-264c0-20,1.5-39.9,2.2-59.9c0.2-6.6,0-13.2,0-20.4c2.8-2.1,5.7-1.2,6.3,3 c0.7,5.2,0.6,10.6,0.7,15.9c1.2,224.6,2.3,449.3,3.4,673.9c1,197.3,2,394.6,3,591.9c0,7.9,1.1,15.9-2,24.6c-4,0.5-7.8,1.4-11.6,1.5 c-9.3,0.2-18.7,0.1-28,0.1c-146.6,0-293.2,0-439.8-0.1C461.7,3280.1,453.6,3281.7,446.1,3278.1z" />
                            <path fill="url(#doorgradient)"
                                d="M335.9,917.9c9.5,2.4,15.9,3.8,22.2,5.6c108.1,31.3,216.1,62.8,324.2,94.1c36.4,10.6,73,20.8,109.4,31.3 c20.4,5.9,22.4,8.1,22.8,28.9c0.4,25.3,0.1,50.6,0.1,79.1c-3-4.8-5.5-6.9-5.8-9.3c-0.8-7.9-0.9-15.9-1-23.9c-0.1-18,0-35.9,0-52.6 c-6.9-7.8-15.3-8.3-22.8-10.5c-63.3-18.4-126.7-36.4-190-54.7c-74.2-21.4-148.4-42.9-222.6-64.4c-8.8-2.6-17.8-4.6-28-7.3 c-1.3,5-2.8,8.6-3,12.2c-0.5,8-0.3,16-0.3,24c0,606.5,0,1213,0,1819.4c0,9.9-1.2,19.9,2.3,30.7c4.5,0.7,8.9,2.1,13.3,2.1 c23.3,0.3,46.6,0.3,70,0.3c117.3,0.1,234.5,0.1,351.8,0.3c6.3,0,13-1.3,19.1,1.8c-1.6,4.5-5.2,4.2-8.4,4.4 c-12.6,0.6-25.3,1.2-37.9,1.4c-99.3,1.9-198.5,3.6-297.8,5.5c-26.6,0.5-53.3,1.5-79.9,2.1c-11.3,0.3-22.6,0-33.9,0 c-5.8-4.5-4-11-4-16.7c-0.2-49.3-0.3-98.6-0.3-148c-0.1-533.8-0.3-1067.7-0.4-1601.5c0-44,0.1-88,0.2-132 C335.1,933.9,335.6,927.3,335.9,917.9z" />
                            <path fill="url(#doorgradient)"
                                d="M815.2,2824.5c0.4-15.8,1.2-30.4,1.2-45c-0.3-255.1-0.5-510.2-1.2-765.4c-0.1-53.3-2.2-106.5-3.2-159.8 c-0.2-7.8-1.3-15.7,1.2-23.2c4.1,0,5,2.3,5.1,5.2c0.2,10,0.5,20,0.5,30c0.9,195.2,1.6,390.3,2.6,585.5 c0.6,117.2,1.5,234.5,2.2,351.7c0,6,0.2,12-0.6,17.9C822.6,2824.8,819.7,2826.9,815.2,2824.5z" />
                            <path fill="url(#doorgradient)"
                                d="M836.2,1796.2c1.9,236.9,3.8,473.8,3.6,710.8c0,2.5-1,5-1.8,8.7c-5.2-7-3.6-13.9-3.7-20.2c-0.9-55.9-1.9-111.8-2.3-167.7 c-1.2-165.1-2.2-330.2-3.2-495.3c0-7.3-0.3-14.7,0.2-22c0.4-5,2.1-9.9,3.2-14.9C833.6,1795.8,834.9,1796,836.2,1796.2z" />
                            <path fill="url(#doorgradient)"
                                d="M937.5,1947.7c-1-3.2-2.3-5.5-2.5-7.8c-0.4-5.3-0.3-10.7-0.3-16c0-95.3,0-190.6,0-286c0-6.7-0.4-13.5,0.9-19.9 c1.3-6.7,1.6-12.5-1.1-19.2c-3.9-9.9-2.3-20.5-1-32.2c2.7,2,5.2,2.8,5.4,4.1c1.6,8.5,3.8,17,3.8,25.5 c0.6,111.3,0.9,222.6,1.1,333.9c0,4.6-0.4,9.3-1.3,13.8C942.4,1945.2,939.9,1946,937.5,1947.7z" />
                            <path fill="url(#doorgradient)"
                                d="M241.7,3141.5c5.1,0.1,5.7,3.6,5.8,6.8c0.4,10,0.4,20,0.8,29.9c0.3,6.5,0.9,13,1.5,20.6c4.6,0.6,8.4,1.5,12.2,1.6 c18.6,0.2,37.3,0.1,55.9,0.2c2.7,0,5.3,0,8,0.1c4.1,0.2,8.2,0.9,9.2,5.8c0.9,4.3-3,9-7.9,9.8c-0.7,0.1-1.3,0.2-2,0.2 c-27.2,0-54.4,0.8-81.8-0.2c-1.4-3.4-3.3-5.7-3.3-8.1c-0.3-20.6-0.3-41.2-0.2-61.9C239.8,3144.6,241.1,3143,241.7,3141.5z" />
                            <path fill="url(#doorgradient)"
                                d="M812.6,1223c7.8,27.3,7.8,51.8,0,71.8C812.6,1270.3,812.6,1248.7,812.6,1223z" />
                            <path fill="url(#doorgradient)"
                                d="M835.4,1360.8c-8.5-17.8-8.2-26,0-42C835.4,1333.9,835.4,1347.3,835.4,1360.8z" />
                            <path fill="url(#doorgradient)"
                                d="M813.6,1751.4c6.5,15,5.9,27.3-0.9,41.1c-3-7.3-1-14.7-0.9-21.9C811.9,1764.9,812.9,1759.3,813.6,1751.4z" />
                            <path fill="url(#doorgradient)"
                                d="M949.4,3709.6c4.3,11.7,3.4,21.9,0.7,32c-0.5,1.9-3.2,3.3-5.6,5.7c-3.6-11.7-2.8-22-1-32.3 C943.8,3713.3,946.7,3712,949.4,3709.6z" />
                            <path fill="url(#doorgradient)"
                                d="M833.3,1268.6c-3-14.9-3.1-29.6-1.1-45c2.1,1.4,3.8,1.9,3.9,2.7c0.8,5.2,1.8,10.4,1.6,15.6 C837.3,1250.8,838,1260.1,833.3,1268.6z" />
                            <path fill="url(#doorgradient)"
                                d="M832.6,1653.2c3.2,6.8,7.9,13.5,3.1,22.1C830.3,1665.5,830.4,1665.5,832.6,1653.2z" />
                            <path fill="url(#doorgradient)"
                                d="M833.2,1712.4c5.6,11.8,5.9,19.5,1.4,28.2C829.9,1730.7,829.9,1730.7,833.2,1712.4z" />
                            <path fill="url(#doorgradient)"
                                d="M813.1,1635.5c0-8.5,0-15.3,0-22.3C818.6,1620.3,818.6,1620.3,813.1,1635.5z" />
                            <path fill="url(#doorgradient)"
                                d="M831.4,1600c-2.7-7.4-1.4-13,3.3-19.5C835.8,1591.8,835.7,1591.8,831.4,1600z" />
                            <path fill="url(#doorgradient)"
                                d="M834.8,1441.5c0.8,4.6,1.7,9.3,2.7,14.9c-2.6-1.1-4.4-1.4-4.5-2c-1-4.1-1.6-8.3-2.3-12.5 C832,1441.7,833.4,1441.6,834.8,1441.5z" />
                            <path fill="url(#doorgradient)"
                                d="M835.3,1754c0.2,4.1,0.6,6.6,0.4,9c-0.2,2.3-1.2,4.6-2.2,8.2C830.9,1764.1,830.9,1764.1,835.3,1754z" />
                            <path fill="url(#doorgradient)"
                                d="M815.5,1440.9c0,5.5,0,11,0,16.5c-0.7,0-1.4,0-2.1,0c0-5.5,0-11.1,0-16.6C814.1,1440.9,814.8,1440.9,815.5,1440.9z" />
                            <path fill="url(#doorgradient)"
                                d="M5384.2,5127.1c-8.8,3.1-15.5-0.6-22.4-2.5c-81.2-23.5-162.4-47.1-243.7-70.6c-82.5-23.9-165.1-47.7-247.6-71.5 c-3.8-1.1-7.8-2-11.6-3.1c-7-2.2-11.3-7-12.3-14.3c-0.8-5.9-1.5-11.9-1.5-17.9c-0.1-90-0.1-180,0-270c0-7.9,1.2-15.8,2.1-27.2 c4.7,9.5,3.2,15.9,3.2,22.1c0.1,85.3,0.1,170.7,0.1,256c0,7.3,0,14.6,0,20.5c5.9,8.1,13.9,8.2,20.7,10.2 c95.7,28.5,191.5,56.8,287.3,85.1c66.4,19.6,132.8,39.4,199.2,58.9c7.5,2.2,14.8,6.3,23.2,4.5c5.4-6.6,3.6-14.2,3.6-21.3 c-0.1-51.3-0.7-102.7-0.7-154c-0.3-345.3-0.5-690.6-0.7-1035.9c0-16.7,0-33.3-0.1-50c0-4.6-0.7-9.2-1-13.1 c-5.9-4.8-12.1-3.7-18-3.8c-16.7-0.2-33.3,0.2-50-0.4c-49.9-1.7-99.9-3.8-149.8-5.8c-7.3-0.3-14.6-1.1-21.9-2.3 c-8.7-1.4-9.6-3.3-8.9-16.6c3.7-0.3,7.6-0.9,11.5-0.9c47,0.8,229,12.7,244,16c3.3,6.3,2,13.7,2,20.8c-0.1,54-0.2,108-0.5,162 c-1.8,361.3-3.6,722.6-5.4,1083.9c0,8.7,0.6,17.3,0.5,26C5385.5,5117.1,5384.7,5122.3,5384.2,5127.1z" />
                            <path fill="url(#doorgradient)"
                                d="M4853.9,3801.8c-0.8,5.3-1.9,9.1-1.9,13c-0.2,11.3-0.1,22.7-0.1,34c0,239.9,0,479.9-0.1,719.8c0,7.8,1.3,15.9-2.4,24.7 c-4.9-9.2-3.9-17.8-3.9-26.2c-0.1-80.6-0.1-161.3,0-241.9c0-136.6,0.1-273.2,0.2-409.9c0-35.3,0.1-70.6,0.2-106 c0-6.5,0.7-13,1.1-20.4c4.9-0.7,8.7-1.8,12.5-1.7c22,0.4,44,0.7,65.9,1.7c37.9,1.9,75.8,4.3,113.7,6.5c4,0.2,8.1,0.1,11.9,0.9 c17.7,3.7,35.6,5,53.6,3.7c3.9-0.3,8,0.4,11.7,1.8c3.1,1.1,5.7,4.3,4.5,7.9c-1,2.9-3,6.2-5.5,7.5c-2.7,1.4-6.5,1.1-9.7,0.8 c-28.5-2.6-57-5.3-85.6-8c-37.8-3.5-75.6-7.1-113.4-10.5c-8.6-0.8-17.1-1.3-25.2,3.5C4873.4,3807.8,4864.8,3802.7,4853.9,3801.8z" />
                            <path fill="url(#doorgradient)"
                                d="M316,5130.1c-0.6-6.2-1.2-9.4-1.1-12.6c0-2.5,0.7-5.1,1.1-7.2c177.5-52.1,354.1-104.6,530.1-156.7c4.3-8.2,3-15.7,3-22.8 c0.1-85.3,0.1-170.6,0.1-255.9c0-6.6,0-13.3,0-20.1c5.1,0.6,5.2,4.1,5.4,7.2c0.4,6.6,0.6,13.3,0.6,20c0,86,0,171.9,0,257.9 c0,6,0.2,12-0.5,18c-1.6,15.2-4.9,18.6-20.2,23c-56.9,16.3-113.9,32.5-170.8,49c-105.5,30.6-210.9,61.5-316.3,92.1 C337.8,5124.8,328.1,5127,316,5130.1z" />
                            <path fill="url(#doorgradient)"
                                d="M852.9,3788.3c0.7,5.7,1.5,8.9,1.5,12.2c0.1,259.9,0.1,519.8,0.1,779.7c0,2.6-0.8,5.2-1.6,7.8c-0.3,1.1-1.4,2-2.4,3.3 c-4.1-0.2-2.6-3.7-2.7-5.6c-0.3-6.6-0.2-13.3-0.2-20c0-244.6,0-489.1,0-733.7c0-9.2-0.3-18.5-0.5-28.7c-4.4,0-7.5-0.5-10.4,0.1 c-8,1.8-15.3,1.7-23.2-2.1c-5-2.4-11.7-2.2-17.5-1.8c-13.9,1-27.8,2.9-41.7,4.1c-51.7,4.7-103.5,9.4-155.2,14 c-4.6,0.4-9.3,0.6-13.8,0.2c-4-0.4-7.1-4.7-6-8.9c0.7-2.8,3-6.2,5.4-7.3c3.5-1.5,7.8-1.6,11.7-1.4c16.7,1.1,33.1-0.5,49.7-3.2 c15.7-2.6,31.8-2.8,47.8-3.6c40.6-2.1,81.2-4.1,121.8-5.9C827.7,3786.8,839.6,3786.3,852.9,3788.3z" />
                            <path fill="url(#doorgradient)"
                                d="M308.2,3820c17.6-4,187.4-15.2,244.5-16.6c4.5-0.1,9,0.5,13.4,0.8c0.9,13.6,0.2,15.4-8.8,16.6c-10.6,1.4-21.2,2.3-31.8,2.8 c-63.2,3.1-126.4,6.3-189.8,5.7c-5.9-0.1-12.1-1.1-17.2,3.2c-0.4,0.6-0.7,1.1-1,1.7c-0.3,0.6-0.5,1.2-0.6,1.9 c-0.2,1.3-0.3,2.6-0.4,4c-0.1,2.7-0.1,5.3-0.1,8c-0.3,380.6-0.6,761.1-1.9,1141.7C312,4600,311.1,4210.3,308.2,3820z" />
                        </g>
                    </svg>