<?xml version="1.0" encoding="utf-8"?><svg version="1.1" id="Calque_1"
                        xmlns="http://www.w3.org/2000/svg" xmlns:xlink="http://www.w3.org/1999/xlink" x="0px" y="0px"
                        viewBox="0 0 1304.9 2638.8" style="enable-background:new 0 0 1304.9 2638.8;"
                        xml:space="preserve">
                        <defs>
                            <lineargradient id="facebottom" x1="50%" y1="0%" x2="50%" y2="100%">
                                <stop offset="0%" stop-color="#fff">
                                    <animate attributename="stop-color" values="#fff; #4615a0; #fff" dur="20s"
                                        repeatcount="indefinite"></animate>
                                </stop>
                                <stop offset="100%" stop-color="#4615a0">
                                    <animate attributename="stop-color" values="#4615a0; #fff; #4615a0" dur="20s"
                                        repeatcount="indefinite"></animate>
                                </stop>
                            </lineargradient>
                        </defs>
                        <defs>
                            <lineargradient id="facejupiter" x1="50%" y1="0%" x2="50%" y2="100%">
                                <stop offset="0%" stop-color="#fff">
                                    <animate attributename="stop-color" values="#fff; #ff4800; #fff" dur="20s"
                                        repeatcount="indefinite"></animate>
                                </stop>
                                <stop offset="100%" stop-color="#ff4800">
                                    <animate attributename="stop-color" values="#ff4800; #fff; #ff4800" dur="20s"
                                        repeatcount="indefinite"></animate>
                                </stop>
                            </lineargradient>
                        </defs>
                        <defs>
                            <lineargradient id="facesaturn" x1="50%" y1="0%" x2="50%" y2="100%">
                                <stop offset="0%" stop-color="#fff">
                                    <animate attributename="stop-color" values="#fff; #ffa600; #fff" dur="20s"
                                        repeatcount="indefinite"></animate>
                                </stop>
                                <stop offset="100%" stop-color="#ffa600">
                                    <animate attributename="stop-color" values="#ffa600; #fff; #ffa600" dur="20s"
                                        repeatcount="indefinite"></animate>
                                </stop>
                            </lineargradient>
                        </defs>
                        <defs>
                            <lineargradient id="facemeteor" x1="50%" y1="0%" x2="50%" y2="100%">
                                <stop offset="0%" stop-color="#fff">
                                    <animate attributename="stop-color" values="#fff; #24466d; #fff" dur="20s"
                                        repeatcount="indefinite"></animate>
                                </stop>
                                <stop offset="100%" stop-color="#24466d">
                                    <animate attributename="stop-color" values="#24466d; #fff; #24466d" dur="20s"
                                        repeatcount="indefinite"></animate>
                                </stop>
                            </lineargradient>
                        </defs>
                        <g>
                            <path
                                d="M97.6,327c4.3,0,7.5,3.4,7.3,7.7c-0.2,4.1-3.4,7.1-7.5,7.1c-4.3,0-7.5-3.4-7.3-7.7C90.2,330,93.4,327,97.6,327z">
                            </path>
                            <path class="ink-d-js-svg-path" fill="url(#facebottom)" class="st0"
                                d="M586.2,2614c-1.2-0.5-2.4-0.9-3.6-1.4c-20.6-8.8-41.1-17.6-61.8-26.3c-2.9-1.2-4.6-3-5.8-5.8 c-6.8-15-13.8-29.9-20.6-44.9c-1.3-2.8-3.1-4.7-5.8-6c-5.4-2.5-11-4.4-16.7-5.9c-9.8-2.4-19.6-4.6-29.4-6.8c-1.5-0.4-3.1-0.7-4.7-1 c-0.7-1.6-1.5-3-2.1-4.4c-3.3-7.6-6.7-15.2-9.9-22.9c-0.9-2-2.1-3.4-4.1-4.4c-43.8-22.6-86.7-46.7-129.8-70.4 c-21.3-11.7-42.5-23.5-63.8-35.2c-3-1.6-5.5-3.7-7.6-6.4c-26.2-33.5-52.5-66.9-78.8-100.4c-0.4-0.5-0.9-1-1.2-1.5 c-1.7-3.1-4.5-4.1-7.8-4.8c-23.9-5-47.8-10.2-71.7-15.2c-2.8-0.6-4-1.9-5-4.3c-5.8-15.2-11.8-30.4-17.6-45.6 c-3.6-9.2-7.2-18.5-10.7-27.7c-0.2-0.6-0.4-1.2-0.7-2c1.9-3.3,4.5-6.1,7.3-8.7c4.9-4.6,10.5-8.3,16.4-11.6 c10.4-5.8,21.4-10.2,32.7-13.6c11.3-3.4,22.8-6.4,34.1-9.7c20-5.7,39.6-12.4,58.6-21.1c33.3-15.4,61-37.8,83.1-67.1 c14-18.7,25.5-38.7,34.3-60.3c7.1-17.2,12.5-34.9,15.9-53.2c3.9-21.2,5.2-42.5,3.2-64c-0.8-8.9-2.2-17.8-4.2-26.5 c-0.3-1.2-0.4-2.5-0.5-3.5c0.9-1,1.7-0.6,2.4-0.3c12.4,3.9,25.1,6.5,38,7.8c12.1,1.3,24.2,1.6,36.4,0.9c31-1.7,61.1-8,90.9-16.4 c31.4-8.9,62.6-18.1,93.9-27.4c76.9-22.9,153.7-45.9,230.5-69c20.5-6.2,40.9-12.6,61.3-19.2c14.2-4.6,27.9-10.4,41-17.4 c25.6-13.7,46.3-32.8,63-56.4c15.4-21.9,26.5-45.9,34.6-71.4c6.4-20,11-40.4,14.5-61.1c2-11.8,3.6-23.7,5.4-35.6 c0.1-0.5,0-0.9-0.4-1.5c-0.5,1.4-1,2.8-1.4,4.2c-4.4,16-8.7,32.1-13.3,48c-6.2,21.5-13.5,42.7-23,63c-6.9,14.8-15,29-24.4,42.3 c-20.9,29.6-48,51-82,63.8c-14.4,5.4-29,9.9-43.8,14.2c-98.3,28.6-196.7,57.3-295,85.9c-23.3,6.8-46.6,13.7-70,20.2 c-17.7,5-35.6,8.9-53.8,11.7c-16.9,2.6-34,4-51.1,3.1c-53.4-2.9-97-24.9-129.4-67.7c-16.5-21.8-28.6-46.2-35.7-72.8 c-3-11.2-4.7-22.5-4.8-34.1c-0.1-7.4-0.3-14.7-2.3-21.9c-1.1-3.8-2.2-7.7-3.8-11.4c-15.3-35.4-25.9-72.2-33.8-109.8 c-4.6-22.1-9-44.2-13.2-66.3c-5.5-28.4-12-56.6-19.8-84.5c-4.3-15.4-8.1-30.9-10.6-46.7c-2.6-16.3-3.8-32.7-2.8-49.2 c1.2-20.5,4.5-40.7,8.6-60.7c7-33.8,14.1-67.6,21.2-101.4c1.2-5.7,1.1-11.5-0.1-17.2c-1.1-5.3-2.5-10.6-3.7-15.9 c-0.3-1.1-0.5-2.1-0.7-3.3c0.8-0.4,1.3-0.8,1.8-1c15.1-4.6,30.4-7.4,46.2-7.2c2.6,0,4.5,0.9,6.5,2.5c6.7,5.2,13.4,10.4,20.4,15.1 c4.7,3.2,9.9,5.8,14.9,8.7c2,1.2,3.8,1,5.8,0c12.1-5.9,24.2-11.6,36.3-17.5c11.2-5.4,22.6-10.5,34.2-15c2.5-1,4.8-1,7.4-0.1 c15,5.2,30.3,8.9,45.5,13.3c7.7,2.2,15.3,4.6,22.9,7c0.6,1.3,1.2,2.5,1.7,3.6c6.7,16.2,17.1,29.6,30.2,40.9 c7.4,6.4,15.9,10.6,25.1,13.7c9,3,18.2,4.9,27.4,6.8c9.2,1.8,18.5,3.8,27.7,5.7c1.2,0.3,2.5,0.8,3.7,1c3.1,0.6,5,2.3,6.2,5.2 c1.7,4.1,3.7,8.1,5.5,12.2c3.2,7.4,6.7,14.5,10.9,21.3c0.5,0.8,1.1,1.6,1.7,2.5c1-0.2,1.9-0.2,2.8-0.5c31.5-7.8,61.3-20,89.8-35.4 c8.7-4.7,17.3-9.7,25.8-14.7c2.2-1.3,4.2-1.7,6.8-1.6c12.1,0.5,24.3,0.8,36.4,1.1c12.6,0.3,25.3,0.5,37.9,0.9 c1.7,0,3.1-0.4,4.5-1.3c2.6-1.8,5.3-3.6,8-5.3c17.1-11.2,34.1-22.7,51.3-33.7c18.6-11.9,38-22.4,58.5-30.8c4.9-2,9.9-3.7,14.7-5.8 c2.8-1.2,5.4-1.2,8.3-0.4c15.3,4.1,30.6,7.9,45.9,12c18.7,5,37.4,10,56.2,14.3c2.1,0.5,3.9,0.8,6-0.3c13.1-6.4,27-10.9,40.8-15.3 c17.7-5.6,35.5-10.6,53.5-15.1c3.4-0.8,6.5-0.7,9.8,0.3c21.7,6.5,43.3,13.6,64.8,21c2,0.7,3.9,1.3,6,1.9c0.7-0.4,1.4-0.7,2-1.2 c7-5.6,14.1-11.1,20.8-17c12.7-11.2,27.1-18.4,43.8-21.3c39-6.8,70.6,19.9,78,49.2c2.7,10.8,3.7,21.7,2.8,32.8 c-1.4,18.9-7.1,36.7-14.3,54c-5.4,12.8-11.6,25.3-18.4,37.4c-16.3,29.2-32.8,58.2-49.2,87.4c-15.7,28-31.4,56.1-46.8,84.3 c-6.6,12.1-15.5,21.9-26.5,29.9c-10.3,7.4-21.5,13.3-33.1,18.2c-5.7,2.4-11.6,4.5-17.3,7.1c-7.8,3.6-15.7,3.7-23.9,2 c-9.6-2.1-18.6-5.8-27.1-10.7c-1.5-0.9-3-1.7-4.5-2.6c-1.2,0.8-0.4,1.6-0.1,2.1c1.8,3,3.5,6.1,5.7,8.8c7.6,9.5,17.1,16.2,28.7,20 c1.2,0.4,2.4,0.8,3.8,1.3c-0.3,1.4-0.6,2.7-0.9,3.8c-6.1,21-11.4,42.3-15.8,63.7c-3.3,16.3-6.1,32.7-8.3,49.2 c-4.3,31.9-6.1,64-6,96.2c0.1,20.3,0.9,40.6,2.5,60.9c1.7,21,4.1,42,7.2,62.9c3.6,24.4,7.9,48.6,12.8,72.7 c6.4,31.6,21.5,58.3,46,79.4c3.9,3.3,8,6.3,12.3,9.1c15.7,10.3,32.4,18.7,49.3,26.7c14.5,6.8,29,13.5,43.4,20.4 c13.8,6.7,27.2,14.2,39.9,22.9c10,6.9,19.4,14.7,27.9,23.3c1,1,1.9,2.1,3,3.3c-1.2,1.6-2.9,2.2-4.4,3 c-23.6,13.2-47.2,26.3-70.8,39.5c-1.5,0.8-3,1.7-4.6,2.7c-1.6,14.7-3.3,29.4-4.9,44c-1.6,14.6-3.3,29.2-4.9,43.8 c-1.9,1.3-3.6,2.4-5.4,3.5c-51.4,32.8-102.7,65.5-154.1,98.3c-0.3,0.2-0.5,0.4-0.8,0.5c-3.3,1.5-4.9,4.2-6.1,7.5 c-4.2,11.4-8.5,22.7-12.8,34.1c-5.1,13.6-10.3,27.2-15.4,40.8c-0.7,2-1.8,3.7-3.4,5c-15,12.3-30.2,24.1-46.5,34.7 c-6.4,4.2-13,8.2-20,11.4c-1.8,0.8-3.1,2.1-4.1,3.8c-3.6,6.1-8.3,11.4-13.3,16.3c-8,7.9-16.8,14.8-26,21.2 c-17.6,12.3-36.2,22.9-55.5,32.3c-2,1-4.2,1.6-6.4,2c-24.4,4.2-48.8,8.4-73.3,12.3c-5.7,0.9-10.6,2.8-15.5,5.8 c-19.5,12.3-38.9,24.7-57.3,38.5c-4.6,3.5-9.1,7.1-13.5,10.8c-22.9,19.5-46.8,37.7-70.7,56C587.9,2612.9,587.1,2613.4,586.2,2614z M1089.5,1314.7c1.2,0.6,1.7-0.4,2.3-1.1c4.1-4.5,9.3-7.3,15-9.1c5.4-1.7,10.8-2.8,16.5-2.9c5.6-0.1,11.2-0.1,16.8-0.1 c5.8,0,11.5-0.1,17.2-0.9c15.8-2.1,27.9-9.8,35.7-23.8c1.8-3.2,3.3-6.6,4.4-10.1c5.5-17.6,3.1-34.4-5.4-50.6 c-4.6-8.7-11.4-14.9-20.6-18.4c-4-1.5-8.1-3.1-12.1-4.7c-6.2-2.4-11.8-5.6-16.8-10c-0.7-0.6-1.4-1-2.1-1.6 c-0.2,0.4-0.4,0.6-0.4,0.7c0.3,0.6,0.5,1.2,0.9,1.7c3,4.2,6.6,7.8,10.9,10.7c3.5,2.3,7.1,4.3,10.7,6.4c3,1.8,6.2,3.4,9.2,5.2 c4.7,2.9,8.3,6.9,10.7,12c4.3,8.8,6.7,18,6.8,27.7c0.1,8.4-1.5,16.5-5.4,24.1c-5.2,10.1-13.1,16.8-24.1,19.7 c-2.2,0.6-4.4,1.1-6.6,1.4c-6,0.7-12.1,1.3-18.1,2c-5.1,0.6-10.2,1.1-15.2,2c-6.5,1.2-12.6,3.4-18.3,6.9 c-5.1,3.2-9.4,7.1-11.8,12.9c-0.1,0.3-0.2,0.5-0.3,0.8c0,0,0.2,0.1,0.3,0.2C1089.6,1315.4,1089.6,1315.1,1089.5,1314.7z M183.8,2148.7c-0.3,0-0.6,0-0.8,0c-0.1,0-0.2,0.1-0.4,0.1c0.2,0.1,0.4,0.3,0.6,0.3c0.3-0.1,0.4-0.4,0.7-0.5c0,0.6-0.2,1.4,0.1,1.7 c1,1,2.2,1.8,3.4,2.6c8.7,5.8,17.8,10.6,27.5,14.6c15.1,6.2,30.9,10.3,46.9,13.5c18.4,3.6,36.9,5.9,55.4,8.6 c16.3,2.4,32.5,5.3,48.4,9.7c28.2,7.7,53.9,20,75.5,40.1c0.5,0.5,1.2,0.8,1.8,1.3c0.7-1.2-0.1-1.8-0.5-2.3c-3-3.5-5.9-7.2-9.1-10.5 c-12-12.5-26.1-22-41.7-29.4c-19.5-9.2-40.1-14.9-61.4-18.3c-16.2-2.6-32.6-4.6-48.9-6.7c-14.9-1.9-29.8-3.8-44.5-6.8 c-16.6-3.5-32.8-8.3-48.3-15.4C186.8,2150.4,185.3,2149.4,183.8,2148.7z M1230.2,1217.6c0.6,0,1.4,0.2,1.7-0.1c1-1,2-2.1,2.8-3.2 c6.6-8.5,12.3-17.6,17.1-27.1c9.3-18.4,15.4-37.9,18.1-58.3c1.4-10.6,2.1-21.3,1.2-32.1c-0.5-6.7-1.9-13.3-4.9-19.4 c-6-12.6-16-19.1-29.9-19.6c-8.7-0.3-16.8,1.9-24.2,6.4c-14.9,9-29.1,19.2-42,31c-7.1,6.5-13.7,13.4-19.3,21.3 c-2.8,4-5.2,8.4-7.7,12.7c-0.3,0.6-0.3,1.4-0.6,2.8c3-2.6,5.3-4.8,7.7-6.9c17.6-15.1,35.9-29.3,54.8-42.8c4.5-3.2,9.3-6.2,14.1-9 c5.8-3.4,12.2-4.6,18.9-4.1c7.2,0.5,12.8,3.8,16.7,9.8c1.6,2.5,2.9,5.4,3.9,8.2c1.8,4.8,2.6,9.9,2.8,15c0.5,12.3,0.1,24.6-1.7,36.8 c-4,27.1-13.2,52.3-27.4,75.7c-0.6,1.1-1.5,2-2.3,3c0,0.3,0,0.6,0,0.9c0,0.1,0.1,0.2,0.2,0.3c0.1-0.2,0.4-0.5,0.3-0.6 C1230.8,1218,1230.5,1217.8,1230.2,1217.6z M480.3,2131.2c1.1,0.1,1.3-0.6,1.4-1.4c1.7-8.2,1.6-16.5,0.4-24.8 c-1.6-10.5-5.1-20.4-9.7-30c-3.6-7.5-7.8-14.7-12.5-21.6c-5.7-8.5-11.5-16.9-17.2-25.4c-9.4-13.8-17.3-28.4-23-44.1 c-2.9-8-5.6-16-8-24.1c-7-23.5-11.2-47.6-15.5-71.6c-2.2-12.4-4.5-24.8-6.8-37.3c-0.2-1.4-0.4-2.8-1.7-4.1 c-0.1,1.1-0.3,1.9-0.3,2.6c-1.2,12-1.1,23.9-1.1,35.9c0.1,20.4,1.9,40.5,5.9,60.5c6.4,31.7,18.9,60.6,38.6,86.3 c5.5,7.1,11.2,14,16.7,21.1c5.5,7.2,11,14.5,16.1,22c6,8.8,10.5,18.3,13.5,28.5C480,2112.8,481.4,2121.9,480.3,2131.2 c0,0.5,0,1.1,0,1.6c0,0,0.1,0,0.1,0C480.3,2132.3,480.3,2131.8,480.3,2131.2z M378.4,1476.3c-1.5,0.2-2.2,0.2-2.8,0.3 c-7.8,1.7-15.6,3.4-23.4,5c-14.3,2.8-28.7,4.6-43.3,5.2c-20.7,0.9-41.2-1-61.3-6.2c-0.7-0.2-1.4-0.2-2.7-0.3 c1.5,1.9,3.1,2.6,4.5,3.6c1.3,1,3.1,1.4,4.4,3.2c-1.7,0.7-3,1.2-4.3,1.7c-11.6,4.2-23.6,5.6-35.8,5.3c-3.3-0.1-6.7,0.2-10,0.5 c-3.1,0.3-5.9,1.3-8.5,2.9c-0.5,0.3-0.9,0.8-1.8,1.7c1.4,0.1,2.1,0.1,2.9,0.1c3.7,0.2,7.4,0.1,11,0.5c4.1,0.4,8.2,1.2,12.3,1.8 c9.1,1.3,18.2,0.9,27.2-1c6.4-1.3,12.7-3.4,18.7-6c2.8-1.2,5.3-1.4,8.3-0.5c9.9,2.8,20,4.1,30.3,4.1c16.8,0.1,33.1-2.7,48.8-8.5 c2.5-0.9,4.5-0.9,6.8,0.4c6.1,3.6,12.8,5.6,19.7,7.4c11.4,2.9,23,4.1,34.6,4.7c10.4,0.5,20.8,0.7,31.1,1.1c9.1,0.4,18.2,1,27.2,2.3 c11.1,1.6,22,4.2,32.6,7.5c0.8,0.3,1.7,0.4,3.2,0.6c-1.3-2.1-2.9-2.9-4.3-3.9c-8.4-5.7-17.8-9.2-27.7-11.6 c-13.6-3.2-27.4-4.5-41.3-5.7c-11.3-1-22.6-1.8-33.9-3.1c-9.2-1-18.3-2.9-27.1-5.9c-1-0.3-2-0.8-3.3-1.3 C372.7,1479.9,375.9,1479.2,378.4,1476.3z M270.2,1061.8c-0.5,0.3-0.8,0.5-1,0.7c-0.7,0.7-1.3,1.4-1.9,2.1 c-11.6,14.5-18.3,31.1-19.6,49.6c-0.6,8.4-2.9,16-7.7,22.8c-3.1,4.4-6.6,8.7-10.1,12.8c-3.5,4.1-7.3,8-11,12.1 c-6,6.6-11.8,13.5-16.9,20.9c-4.4,6.4-8.1,13-10.6,20.4c-2.3,6.7-3.5,13.6-3,20.7c0.7,10,3.5,19.5,8.2,28.3 c0.7,1.3,1.3,2.5,1.9,3.7c-0.6,1.5-1.2,2.9-1.7,4.2c-4.8,13.3-1.1,28.5,9.2,37.8c5,4.5,10.8,7.4,17.6,7.8c0.7,0,1.6,0.2,1.7-0.7 c-3-2.4-5.9-4.6-8.7-7c-2.8-2.5-4.9-5.5-6.7-8.7c-1.8-3.3-3-6.8-3.4-10.4c-0.4-3.5-1-7.2,0.7-10.6c0.5,0.2,0.9,0.2,1.1,0.4 c4.5,4.3,9.2,8.4,12.4,13.9c0.5,1,1.1,2,2.6,2.5c-1.7-6.7-3.6-10.7-7.4-15.7c-7.5-10-12.6-21.1-15-33.4c-2.2-11.7-1-22.9,4.8-33.5 c2.2-4.1,4.6-8,7.3-11.8c3-4.3,6.4-8.4,9.8-12.4c4.7-5.6,9.7-11.1,14.5-16.6c4.9-5.7,9.5-11.6,13.3-18.1c5.1-8.8,7.7-18.1,7.3-28.4 c-0.2-4.8,0-9.6,0.5-14.4c1.4-12.5,5.1-24.4,10.7-35.6C269.7,1064.2,270.7,1063.3,270.2,1061.8z M1113,2103.1 c0-0.2-0.1-0.4-0.1-0.6c-0.5,0-0.9,0-1.4,0.1c-14,3.9-28.1,7.6-42,11.6c-48.2,14-95.8,29.6-143.2,45.9 c-18.6,6.4-37.1,12.9-55.2,20.6c-16.6,7.1-32.8,15.2-47.8,25.4c-10.3,7-19.9,15-28.5,24.1c-1.1,1.2-2.5,2.3-3.1,3.9 c0.4,0.2,0.6,0.3,0.7,0.2c0.8-0.5,1.6-1,2.3-1.6c14.7-12.2,31-21.9,48.3-30c17.5-8.2,35.7-14.9,54-21 c35.6-11.9,71.2-23.7,106.5-36.4c35.2-12.6,70.2-25.7,104.7-40.2C1109.8,2104.6,1111.4,2103.8,1113,2103.1z M213.4,1464.6 c0.2,0.1,0.3,0.2,0.5,0.2c0.9-1.3,1.7-2.5,2.6-3.8c5.2-8,11.7-14.8,19.8-19.9c4.1-2.6,8.4-4.6,13.2-5.6c5.7-1.1,11.4-1.1,16.8,1.9 c5.3,2.9,11,4.2,17,4.5c7.9,0.4,15.6-0.6,23.2-2.6c6.6-1.8,13.2-3.7,19.8-5.6c11.6-3.2,23.4-3.6,35.2-2.2 c10.5,1.2,20.7,4.1,30.6,7.8c13.3,5.1,25.9,11.8,38,19.3c8.8,5.5,17.5,11.2,26.3,16.7c1.3,0.8,2.6,1.6,4,2.3c0-0.9-0.2-1.4-0.6-1.8 c-13.3-13.5-27.4-26-43.2-36.4c-14.9-9.7-30.8-17-48.3-20.4c-15.1-3-30.2-2.9-45.1,1.3c-6,1.7-11.9,3.6-17.9,5.5 c-6.1,1.9-12.3,3.4-18.7,3.8c-5.7,0.3-11.2-0.3-16.4-2.6c-4.7-2.1-9.5-2.6-14.5-2.1c-7,0.7-13.3,3.2-19.1,7.2 c-10.7,7.5-18.1,17.5-22.4,29.8C213.8,1462.8,213.6,1463.7,213.4,1464.6z M1057.1,1333.6c0-0.9,0-1.9,0-2.8c0-1,0-1.9,0.1-2.9 c1.2-13.2,7.2-23.4,19.2-29.5c2.7-1.4,5.6-2.4,8.4-3.6c4.3-1.8,8.6-3.5,12.8-5.4c11-5.2,18.2-13.8,22.2-25.2 c3.3-9.3,4.2-19,3.3-28.8c-0.7-8.8-2.4-17.4-3.9-26.1c-1.5-8.2-2.6-16.4-2.4-24.8c0.2-6.6,1.2-13,3.7-19.2c0.3-0.8,0.6-1.7,0.9-2.5 c-1.1,0.3-1.9,0.9-2.4,1.6c-4.5,5.6-7.1,12.1-8.8,19c-2.3,9.6-2.2,19.3-1.6,29.1c0.4,5.6,1,11.2,1.3,16.7c0.2,4.6,0.3,9.3,0.1,13.9 c-0.3,5.9-1.4,11.7-3.4,17.3c-2.8,7.7-7.6,13.7-14.7,17.6c-3.3,1.9-6.8,3.5-10.2,5.3c-3.9,2.1-7.9,4.2-11.6,6.7 c-10,6.9-15.2,16.6-16.2,28.6C1053.3,1323.9,1054.2,1328.9,1057.1,1333.6z M715,1326.3c0.2,0.1,0.3,0.3,0.5,0.4 c0.6-0.4,1.2-0.8,1.7-1.3c10-10,21.4-18.2,33.6-25.4c11-6.5,22.5-12.2,34.1-17.5c15.7-7.1,31.5-14.1,47.2-21.3 c12.2-5.6,24.1-11.9,35.3-19.2c7-4.6,13.6-9.6,19.5-15.5c5.9-5.9,11-12.4,14.6-20c0.3-0.7,1.1-1.5,0.5-2.5 c-0.2,0.1-0.4,0.1-0.5,0.2c-0.5,0.6-1,1.2-1.5,1.8c-4.8,6-10.3,11.4-16.6,15.8c-5.4,3.7-10.8,7.5-16.6,10.5 c-8.9,4.7-17.9,9.1-27.1,13.3c-13.8,6.3-27.8,12.2-41.7,18.4c-12.7,5.7-25.1,11.9-37,19.2c-9,5.5-17.6,11.6-25.5,18.6 c-6.8,6.1-13,12.8-18.1,20.4C716.5,1323.6,715.8,1325,715,1326.3z M437.3,1563c-0.7-0.1-0.9-0.2-1-0.2c-0.9,0.3-1.8,0.6-2.7,0.9 c-6.3,2.5-12.8,4.1-19.5,4.7c-10.6,1-21.1,0.4-31.5-1.5c-9.3-1.7-18.5-3.7-27.7-5.8c-12.2-2.7-24.3-5.5-36.7-6.6 c-7-0.6-14-0.6-21.1,0.1c-7.8,0.8-15.3,3-22.8,5.5c-4.4,1.5-8.8,2.9-13.3,4c-8.3,2.1-16.5,1.9-24.3-2c-0.2-0.1-0.5,0.2-0.9,0.3 c2.5,2.9,5.8,4.5,9.3,5.8c6.3,2.3,12.8,2.6,19.4,1.7c4.1-0.5,8.2-1.3,12.3-2.2c10.5-2.4,21.1-3.8,31.8-3c7.8,0.6,15.6,1.7,23.3,3.2 c11.3,2.2,22.5,4.7,33.8,6.7c12.9,2.3,26,3.3,39.1,1.5c9.9-1.3,19.4-4.1,27.9-9.5C434.3,1565.7,436,1564.8,437.3,1563z M212.2,1237 c0.3,0.8,0.4,1.1,0.5,1.4c0.2,0.4,0.5,0.8,0.8,1.2c3.6,4.5,8.4,7.3,13.8,9.2c7.9,2.8,16,2.8,24.2,1.6c7.9-1.2,15.6-3.6,23.2-5.8 c8.6-2.5,17.4-4.4,26.3-5.1c19-1.6,37.7,0.1,56,5.5c10,3,19.6,6.9,28.9,11.6c1,0.5,2,1.3,3.8,1.1c-5.2-5.1-10.5-9.2-16.2-12.7 c-28.4-17.1-58.7-21.4-90.9-13.8c-7.8,1.8-15.2,4.9-22.7,7.6c-5.6,2-11.2,3.9-17,4.8c-10.5,1.7-20.4,0.6-29.2-5.9 C213.4,1237.4,213.1,1237.3,212.2,1237z M389.2,1287c0-0.3-0.1-0.9-0.2-1.5c-0.5-4.2-2.8-7.4-6-10c-3-2.4-6.5-4-10.2-5.2 c-8.1-2.7-16.4-3.9-25-3.8c-5.8,0.1-11.5,0.8-17,2.6c-4.6,1.5-8.9,3.6-12.6,6.7c-2.1,1.8-3.9,3.8-5,6.3c-2.1,5,0.5,9.4,5.9,10.2 c2.6,0.3,5.1,0.2,7.5-0.9c2.3-1.1,4.5-2.3,6.7-3.6c2.3-1.4,4.5-3,6.9-4.3c5.2-2.9,10.4-2.6,15.5,0.5c1.8,1.1,3.4,2.3,5.1,3.6 c1.9,1.5,3.6,3.1,5.5,4.6c3.2,2.5,6.6,4.4,10.7,5.2C383.8,1298.5,389.1,1294.3,389.2,1287z M409.1,1618.9c-2.1-1.9-4.1-2.5-5.9-3.4 c-16.9-7.4-34.6-11.1-52.9-12.3c-16.3-1-32.5,0-48.5,3.6c-8.6,1.9-17,4.5-25,8c-0.6,0.3-1.6,0.4-1.2,1.7c14.8-0.7,29.6-1.6,44.4-2 c14.7-0.4,29.4-0.4,44,0.7C378.8,1616.5,393.6,1617.7,409.1,1618.9z M422,1309.6c0.1,0.3,0.1,0.6,0.2,0.9c1.2-0.2,2.5-0.3,3.7-0.6 c4.8-1.3,9.3-3.5,13.3-6.4c25.7-18.7,27.9-55.5,3.4-77c-4.9-4.3-10.5-7.3-16.7-9c-0.6-0.2-1.5-0.7-2.1,0.6c1.2,1,2.4,2,3.6,3 c7.7,6.5,13.5,14.4,17.3,23.8c3.6,9,4.6,18.3,2.7,27.8c-2.9,14.1-10.5,25.2-21.6,34.1C424.5,1307.6,423.3,1308.6,422,1309.6z M281,1399.9c3.6-2.8,6-6.4,7.7-10.3c8.2-18.3,7.4-36.3-2.4-53.8c-1.8-3.2-4.1-6.1-6.8-8.6c-0.5-0.5-1.2-0.8-2.6-1.7 c3.1,12.8,5.2,24.9,5.8,37.2C283.5,1375,282,1387.4,281,1399.9z M314,1359.6c-0.3,0.9-0.6,1.8-0.7,2.7c-1.7,11.7-3.4,23.4-5,35 c0,0.3,0.2,0.5,0.3,0.8c6.8-1.7,12.3-9,13.6-17.9C323.4,1371.7,320.1,1363.2,314,1359.6z">
                            </path>
                            <path class="ink-d-js-svg-path-meteor" fill="url(#facemeteor)"
                                d="M824.7,1045.3c-0.6-1.3-1.2-2.4-1.8-3.5c-8-17.3-19.4-31.9-34.1-44c-15.5-12.8-33.5-17.8-53.3-15.6 c-21.9,2.5-38.2,13.7-47.9,33.8c-3.1,6.3-4.5,13-4.6,19.9c-0.1,9.8,0.3,19.5,2.9,29c1,3.5,2.4,6.9,3.7,10.3 c0.3,0.7,0.8,1.3,1.7,1.8c-0.1-0.8-0.2-1.7-0.4-2.5c-2-9.3-2.4-18.7-1.8-28.2c0.3-4.1,0.4-8.3,1-12.4c2.8-17.1,12.4-29.1,27.7-36.8 c7.3-3.6,15.1-5.1,23.2-5.1c15.2,0.1,29,4.4,40.6,14.6c12.2,10.6,22.2,23,29.4,37.5c0.8,1.7,1.6,3.5,2.3,5.2 c-2.6,2-11.5,6.2-18.1,8.6c-0.4-0.6-0.9-1.1-1.1-1.8c-2.6-7.8-6.7-14.9-11.8-21.3c-3.5-4.5-7.3-8.9-11.2-13.2 c-1.7-1.9-3.7-3.5-5.7-5.2c-7.9-6.4-17-8.6-27-7.6c-6.9,0.7-12.3,4.1-15.7,10.5c-0.5,1-1,2-1.5,3c-3.1,6.4-3.5,12.9-0.9,19.5 c5.7,14.8,12.7,29,22.9,41.4c0.2,0.2,0.3,0.5,0.7,1.1c-0.6,0.5-1.2,1.2-2,1.7c-10,5.9-20.1,11.8-30.2,17.8c-2,1.2-3.9,1.7-6.3,1.4 c-7-0.6-14-1-21.1-1.4c-11.7-0.6-23.3-1.1-35-1.6c-1,0-1.9-0.2-3.2-0.3c-6.1-7.8-10.9-16.3-12.4-26.4c-0.8-5.4-1-10.8-0.4-16.3 c1.1-10.2,2.1-20.4,3-30.5c0.3-3.5,0.4-7,0.5-10.5c0.1-5.5-1.1-10.8-3.6-15.9c0.7-0.9,1.3-1.7,2.1-2.5c7.5-8,11.3-17.7,12-28.6 c0.7-11.5-1.3-22.6-5.8-33.3c-0.5-1.1-1.1-2.2-2.1-4c-0.4,1.3-0.6,1.8-0.6,2.4c0.1,3.7,0.1,7.4,0.3,11c0.5,8,0.4,16-1.5,23.8 c-1.4,5.8-3.9,11.1-7.8,15.8c-1,1.2-2.2,2.3-3.4,3.4c-0.6,0.5-1.3,0.9-2.1,1.4c-1.3-1.1-2.5-2.2-3.6-3.3 c-6.9-7.1-10.8-15.7-12.9-25.3c-1.9-9-2.3-18.1-1.6-27.2c0.8-11.3,2.3-22.6,4.4-33.7c0.5-2.5,1.2-5,2-7.4c1.1-3.4,2.9-6.4,5.4-8.9 c1.3-1.4,2.7-2.8,4.1-4.1c6.7-6.2,11.4-13.7,14.6-22.2c2.9-7.5,4.7-15.3,6.6-23c1.2-5,2.4-9.9,3.8-14.9c0.9-3.1,2-6.1,3.2-9 c3.1-7.4,7.8-13.5,14.3-18.3c2.4-1.8,5-3.5,7.4-5.3c2.7-1.9,5.5-3.8,8.2-5.8c6.4-4.7,11.7-10.4,15.7-17.3c2.5-4.3,4.7-8.7,7.1-13.1 c4.3-7.8,8.5-15.8,13.1-23.4c16.2-27,39-46.2,67.8-58.5c15.3-6.5,31.2-11.3,47.4-15.4c8.2-2.1,16.6-3.3,25-4.5 c7.1-1.1,13.6-3.6,19.7-7.2c3.4-2,6.8-4.3,10.2-6.3c3.1-1.9,6.3-3.8,9.5-5.6c4-2.2,8.3-3.4,12.8-3.8c5.3-0.5,10.2,0.7,14,4.8 c0.2,0.2,0.5,0.5,0.7,0.7c5.1,5.7,11.3,7.5,18.7,5.7c2.3-0.6,4.7-1.2,6.9-2c14.6-5.5,29.4-5.7,44.3-2.2c5.1,1.2,10.2,2.6,15.1,4.6 c7.6,3,15.5,4.8,23.6,6.3c6.4,1.2,12.9,2.4,19.3,3.8c4.7,1,9.2,2.6,13.5,4.9c4.3,2.3,8,5.3,10.5,9.6c11,18.3,25.6,33.5,42.3,46.7 c8.6,6.8,17.6,13.3,26.4,19.9c3.3,2.5,6.6,5,9.8,7.4c-0.8,3.9-1.8,7.5-2.2,11.1c-1.3,10.8,0.9,21,6.7,30.3c2.3,3.6,4,5.2,7.3,7.1 c-0.3-1.2-0.6-2.1-0.9-2.9c-1.2-3.5-2.6-6.9-3.6-10.4c-2.3-8.3-2.4-16.7-0.4-25.1c0.2-0.9,0.7-1.7,1.1-2.9c1,0.7,1.8,1.1,2.5,1.7 c5.2,4.7,10.1,9.8,14.4,15.4c7.4,9.5,12.2,20.2,14.5,32c1.5,7.5,2.6,15.1,3.8,22.7c1.1,6.1,2,12.3,3.3,18.4 c2.3,10.9,6.6,21,12.6,30.4c1.8,2.8,3.6,5.7,5.5,8.8c-1,0.5-1.8,1-2.6,1.2c-9.3,3-14.3,9.7-16,19.1c-1,5.5-0.5,10.9,0.4,16.2 c1,5.5,2.4,10.9,3.6,16.4c0.1,0.6,0.5,1.1,0.7,1.6c1.3-0.5,0.9-1.4,0.9-2.1c0.1-6.4,0.1-12.8,0.3-19.2c0.1-3.2,0.4-6.4,1-9.5 c0.5-2.5,1.4-4.9,2.7-7.1c2.4-4.3,6.3-6.7,11.3-7.1c2.6-0.2,4.6,0.7,5.9,3.2c4.9,8.6,7.7,17.8,8.9,27.7c0.7,6.4,1,12.8,0.9,19.2 c-0.2,8.8-0.5,17.6-0.6,26.4c0,2.1-0.8,3.6-2.2,5.1c-3,3.5-6.8,5.2-11.3,5.6c-8.8,0.8-16.4-1.6-22.9-7.6c-4.3-4-7.5-8.7-10-14 c-4.6-9.5-6.9-19.6-7.6-30c-0.6-9.1-0.1-18.2,1.4-27.3c0.3-1.7,0.4-3.4,0.6-5.2c-1.4-0.2-1.7,0.6-2,1.3c-4.1,7.2-6.6,14.9-7.6,23.1 c-1.7,14.5-0.1,28.7,5.6,42.3c2.7,6.6,6.3,12.6,11.4,17.6c11.6,11.2,25.1,14.6,40.6,9.8c0.7-0.2,1.5-0.5,2.5-0.8 c0.8,5.9-0.4,11.3-0.8,16.8c-0.5,5.4-1.1,10.8-2.3,16.2c-0.8,0.1-1.4,0.3-2,0.2c-23.6-2-44.9,4.3-64.3,17.6 c-3.9,2.7-7.6,5.9-11.2,9c-5,4.4-10.2,8.8-15.6,13c-1.4-0.4-2.8-0.7-4.1-1.2c-21.7-7.1-43.4-14.4-64.7-22.5 c-2.8-1.1-5.5-1.2-8.4-0.6c-6.1,1.2-12.3,2.2-18.4,3.3c-1,0.2-2.1,0.1-3.4,0.2c0.3-0.7,0.4-1.2,0.6-1.5c7.4-8.4,10-18.5,9.5-29.4 c-0.7-14.1-6.1-26.4-16.2-36.3c-2.6-2.6-5.6-4.8-8.9-6.4c-6.9-3.4-13.3-2.5-19.1,2.6c-1.1,0.9-2.1,2-3,3.1 c-6.4,7.8-11.1,16.4-13.5,26.2c-1,4.4-1.5,8.8-0.9,13.3c0.8,5.4,2.7,10.2,5.9,14.5c5.7,7.5,12.4,13.7,21.2,17.5 c0.4,0.2,0.8,0.5,1.2,0.7c-0.2,0.3-0.4,0.7-0.6,0.7c-11.6,3-23.2,5.9-35,8.9c-0.5-0.7-1.3-1.5-1.9-2.5c-2.4-3.8-4.8-7.6-7.2-11.4 c-9.7-15.5-15-32.4-15.1-50.8c0-0.5-0.1-0.9-0.1-1.4c-1.1-0.1-1.3,0.8-1.5,1.5c-2.8,9-3.5,18.2-2.8,27.5c0.7,8,2.3,15.8,4.8,23.4 c2,6.1,4.8,11.9,9.1,16.7c0.4,0.5,0.7,1,1.1,1.7c-3.3,2.2-6.5,3-10.5,2.1c-15.1-3.6-30.4-5.9-45.8-8.2c-18.3-2.7-36.7-5.3-54.8-9.6 c-2.6-0.6-5-0.5-7.5,0.5c-6.5,2.6-13.2,4.9-19.8,7.4C827.6,1044.3,826.2,1044.7,824.7,1045.3z M1012.2,826.8c0-6.7-1.4-13.5-4.2-20 c-8.8-20-23.3-34.5-43.1-43.7c-2.3-1.1-4.7-1.9-7.2-2.6c-5.9-1.6-11.8-2.5-18-1.5c-12.4,2-19,11.4-19.8,21.4 c-0.7,8.3,1,16.2,4.4,23.7c8.8,19.2,22.9,33.2,41.9,42.3c2.3,1.1,4.7,2,7.2,2.7c4.9,1.5,9.9,2.5,15.1,2.1 c12.2-0.8,21.4-7.4,23.3-21.1C1012.1,828.8,1012.1,827.3,1012.2,826.8z M829.3,919.1c7.9-2.6,15.2-1.9,20.7,4.6 c5.6,6.7,4.9,14.1,0.8,21.5c3.5,3.5,7.6,4.4,12,3.9c7.4-0.8,13.3-4.3,17.4-10.6c1.9-3,3.3-6.2,4.2-9.6c2.1-7.8,2.4-15.8,2-23.8 c-0.2-3.3-1.4-6.2-3.4-8.8c-2.2-2.8-4.8-5.1-7.9-6.9c-8-4.7-16.5-5.6-25.4-3.8c-5.3,1.1-10,3.4-13.9,7.1c-5.4,5-8.5,11.1-8.6,18.6 C827.1,914,827.7,916.6,829.3,919.1z M679.7,907.4c-1,2.6-1,2.6-0.9,3.7c0.7,6,5.4,12.7,13.6,14.2c14,2.7,27.3-6.2,29.8-20.3 c0.7-4.2,1.1-8.6,0.9-12.9c-0.5-11.7-3.6-22.7-9.1-33c-2-3.7-4.4-7-7.5-9.9c-2.5-2.3-5.3-4.2-8.6-5.1c-6.2-1.8-11.7-0.2-16.2,4.4 c-1.7,1.7-2.8,3.9-3.2,6.3c-0.3,1.6-0.1,3.2,1.3,4.4c0.7,0.6,1.4,1.3,2,2c5.6,5.8,9.8,12.6,12.4,20.3c1.7,5,2.8,10.1,2.5,15.5 c-0.2,2.4-0.8,4.7-1.9,6.9c-1.8,3.4-4.8,5-8.5,5.5C683.8,909.7,681.7,908.7,679.7,907.4z M896.1,780.5c-0.9,1.4-1.4,1.9-1.7,2.6 c-1.8,4.3-2.8,8.8-3,13.5c-0.4,11.4,2.7,21.8,8.4,31.5c3.4,5.8,7.6,11.1,12.4,15.8c12,11.9,25.4,21.9,39.6,31 c2,1.3,4.2,2.3,6.3,3.4c5.8,2.8,11.9,4.7,18.3,5.4c7.2,0.8,14.2,0,20.5-3.5c11.9-6.5,20.3-16.4,25.4-28.9c1.1-2.7,1.9-5.7,1.1-9.5 c-0.5,1.3-0.9,1.9-1.1,2.7c-1.5,4.5-4.1,8.3-7.2,11.8c-4.2,4.6-9,8.7-14.1,12.2c-8,5.5-16.8,6.7-26.1,4.4 c-7.4-1.8-14.1-5.2-20.2-9.6c-10-7.2-19.9-14.5-29.6-22c-6.1-4.7-11.6-10.1-16.4-16.1c-4.2-5.3-7.7-11-10-17.4 c-2.8-7.8-4.3-15.7-2.7-24C896.1,783,896,782.2,896.1,780.5z M1102.4,846.1c-0.2,0-0.5,0-0.7,0c-0.1,0.3-0.3,0.6-0.3,0.9 c-0.1,7.5,0.1,15,1.2,22.5c0.7,4.8,1.8,9.4,3.7,13.8c3.2,7.3,8.1,13,15.2,16.7c10.2,5.3,21.4,3.5,29.4-4.8c4.1-4.2,6.7-9.3,8.1-15 c1.5-6.2,1.5-12.4,0.5-18.6c-3-17.7-9.3-34.2-18.7-49.5c-1.9-3.1-4.3-6-6.7-8.7c-2.4-2.8-5.5-4.9-9.1-6c-5.5-1.7-10.7-1.3-15.5,2.2 c-0.5,0.4-1.4,0.8-0.9,2c0.9-0.3,1.8-0.6,2.6-0.9c5.3-1.8,10.1-0.8,14.3,2.9c1.9,1.7,3.5,3.7,4.9,5.8c1.4,2.1,2.5,4.4,3.6,6.8 c5.9,13,10.2,26.5,13.1,40.5c1.2,5.7,1.8,11.4,1.3,17.2c-0.5,5.6-2.5,10.6-6.5,14.5c-4,3.9-8.6,5.3-14.1,3.6 c-5.4-1.6-9.6-4.9-13-9.4c-2.6-3.5-4.5-7.4-5.8-11.5c-1.4-4.6-2.6-9.2-3.9-13.8C1104.3,853.4,1103.4,849.7,1102.4,846.1z M1098.4,776.2c-0.5-0.1-0.9-0.3-1.1-0.2c-1.7,0.9-3.4,1.8-5,2.8c-8,5.5-13.6,13-17.6,21.7c-4.5,9.7-6.2,20.1-6.6,30.7 c-0.3,9.1,0.6,18.2,1.9,27.2c1.3,9.7,2.9,19.3,5.7,28.6c2.7,8.8,6.3,17.1,12,24.4c7.1,9.2,16.4,15.1,27.9,17.3 c7.1,1.3,14,0.8,20.5-2.6c1.1-0.6,2-1.4,3-2.1c-1.1-0.2-2,0-2.9,0.2c-4.4,1.1-8.8,1.3-13.3,0.4c-7.9-1.6-14.7-5.2-20.6-10.6 c-5-4.7-8.5-10.4-11.2-16.5c-2.6-5.9-4.5-12-5.8-18.2c-2.7-12.8-4.7-25.8-6.1-38.8c-1-9.4-1.2-18.8,0.4-28.2 c2.2-13.3,7.4-25.1,17.4-34.4C1097.4,777.5,1097.8,776.9,1098.4,776.2z M723.8,929.1c5.2-2.5,8.5-6.8,11.1-11.6 c3.8-7,5.5-14.6,5.8-22.5c0.3-10-1.6-19.7-4.3-29.3c-2-6.9-4.5-13.6-8.2-19.9c-3.3-5.6-7.3-10.5-12.6-14.2c-6.6-4.8-14-6.8-22.1-6 c-6.4,0.7-12.1,3-16.2,8.2c-0.4,0.6-1.2,1.2-0.2,2.1c3.5-2.2,7.3-3.8,11.6-4c8.4-0.4,15.8,2.1,21.7,8.2c2.4,2.5,4.7,5.3,6.4,8.3 c2.2,3.8,4.1,7.9,5.7,12.1c3.2,8.2,5.5,16.7,7.3,25.3c1.5,6.9,2,13.9,1.4,21c-0.5,6.8-2.4,13.2-5.7,19.1 C725,926.9,724.4,928,723.8,929.1z M812.5,890c-1,1.1-1.7,1.7-2.1,2.5c-6.2,11-8.2,22.9-5.8,35.2c3.8,19.8,15.2,34.5,31.9,45.3 c3.6,2.4,7.7,3.9,11.9,4.8c5.6,1.1,11.1,0.8,16.4-1.7c2.4-1.2,4.7-2.6,6.5-5.5c-1.4,0.3-2.3,0.4-3.1,0.7c-3.9,1.1-7.8,1.4-11.8,0.5 c-4.8-1.1-9-3.2-12.9-6.1c-10.8-8.3-19.7-18.2-25.7-30.5c-5.6-11.3-7.8-23.2-6.3-35.8C811.8,896.3,812.1,893.5,812.5,890z M905.7,939.8c1.2-0.9,1.8-1.4,2.4-1.9c3.1-3.1,5.5-6.7,7.3-10.6c8.5-18,4.7-40.7-10.8-54.5c-10.3-9.2-22.4-13.3-36.2-11.8 c-2,0.2-4,0.6-5.8,1.5c0.5,1.4,1.6,1.2,2.5,1.4c6.8,1.2,13.3,3.5,19.3,7c18.8,10.7,27.9,29.2,25.6,50.8c-0.5,5.1-1.8,10.1-3.4,14.9 C906.2,937.3,906,938.2,905.7,939.8z M1016,796.6c-1.4-21.1-18-40.6-39.6-47.5c-18.3-5.8-43.3-1.6-52.4,9.1c1.5-0.4,2.7-0.6,3.9-1 c6.3-1.9,12.8-2.9,19.3-3.2c17.8-0.6,33.7,4.3,47.6,15.7c7.8,6.4,13.9,14,18.8,22.8C1014.4,793.9,1015.2,795.2,1016,796.6z M1070.2,715.9c3.1-4.2,3.6-7.9,3-11.8c-0.9-6.3-4-11.4-8.7-15.5c-6.7-5.9-14.5-9.9-23-12.4c-3.9-1.1-7.9-1.4-11.9-0.5 c-9.8,2.2-13.9,12.7-8.2,21c1.5,2.1,3.3,3.9,5.6,5.1c0.5,0.3,1,0.9,1.8,0c-0.5-1-1.1-2.1-1.5-3.3c-0.6-2-1.4-4-1.5-6 c-0.3-4.1,2.2-6.8,6.4-6.6c2.4,0.1,4.8,0.6,7,1.4c6.5,2.3,12.7,5.3,18.6,8.8C1064.9,700.4,1069.6,706.3,1070.2,715.9z M799.4,745.7 c0.9-0.1,1.4,0,1.7-0.2c4.2-2.3,7.1-5.9,8.6-10.5c3.9-11.8-4.4-24.9-16.9-26.7c-6.2-0.9-12.1,0.3-17.5,3.4 c-11,6.3-18.6,15.4-22.6,27.5c-1.3,4-1.7,8.1-1.3,12.3c0.1,0.6,0.2,1.3,0.4,1.9c0.2,0.6,0.6,1.2,1.1,2.3c0.8-4.6,1.7-8.5,3.5-12.1 c5.1-9.9,12.5-17.7,22.2-23.2c2.3-1.3,4.9-2.3,7.6-2.9c8-1.9,15.5,2.6,18.1,10.4c1.6,4.9,0.5,9.4-2,13.8 C801.4,742.9,800.5,744.1,799.4,745.7z M901.1,708.3c-2-1.8-3.2-2.8-4.4-3.8c-2.9-2.6-5.5-5.4-7.3-8.8c-1.5-2.8-1.3-4.7,1-6.9 c1.1-1.1,2.5-2,3.9-2.6c1.9-0.8,3.9-1.3,6-1.7c3.3-0.6,6.6-1.1,9.9-1.6c8.7-1.3,17.5-2.1,26.2-0.3c0.7,0.1,1.4,0,2.8,0 c-0.9-0.9-1.3-1.4-1.7-1.8c-4.5-3.6-9.6-5.7-15.2-6.8c-7.9-1.6-15.9-1.2-23.9-0.7c-1.4,0.1-2.9,0.4-4.2,0.7 c-5.3,1.3-9.8,3.8-13,8.4c-4.4,6.4-3.6,13.8,2,19.1c3.8,3.6,8.4,5.8,13.5,6.8C897.9,708.5,899,708.3,901.1,708.3z M1074.8,724.9 c-0.8,0-0.9-0.1-1-0.1c-0.4,0.2-0.9,0.4-1.3,0.6c-9.3,5.1-19.1,5.8-29.3,3.4c-8.5-2-15.6-6.4-21.9-12.3 c-5.6-5.3-10.1-11.6-13.8-18.3c-2.7-4.9-5.2-9.9-7.8-14.8c-0.5-0.9-0.6-2.2-1.9-2.5c-0.1,0.1-0.2,0.2-0.3,0.3c0,0.3-0.1,0.6,0,0.9 c1.3,12,5.3,23,12,33c2.9,4.4,6.4,8.4,10.4,11.8c9.9,8.2,21.2,11.5,33.9,10.1c6.1-0.7,11.8-2.9,16.6-6.9 C1072,728.8,1073.8,727.4,1074.8,724.9z M796.9,762.4c-1.8,1.6-2.8,2.5-3.7,3.3c-3.5,3-7.3,5.7-11.5,7.7c-13.9,6.9-28.1,8-42.5,1.7 c-7.1-3.1-13.3-7.6-18.6-13.3c-1.1-1.1-2.1-2.2-3.5-3.7c1.8,14.1,19.1,28.4,35.7,30C772.2,789.9,791.7,779,796.9,762.4z M1029.9,941.5c1.6,1.5,3.2,3.1,4.8,4.6c11,10.3,19.5,22.3,25.5,36.1c1.7,3.9,3.3,8,4.9,11.9c0.4,1,1,1.9,1.8,3.5 c0.4-1.8,0.8-2.8,0.9-3.9c0.5-6.3-0.1-12.4-1.9-18.4c-4.3-13.9-12.6-24.6-25.7-31.3C1037.1,942.4,1033.8,941.2,1029.9,941.5z M957.4,917.9c0,5.1,2.5,7.6,6.9,7.4c1.1,0,2.2-0.2,3.3-0.6c7-2.5,11.8-7.3,14.3-14.3c0.5-1.3,0.6-2.8,0.6-4.2 c-0.1-3.4-2.3-5.7-5.7-5.8c-1.6-0.1-3.2,0.1-4.7,0.6c-6.7,2.4-11.3,7-13.8,13.6C957.7,915.9,957.5,917.3,957.4,917.9z M951.4,691.1 c-0.2,1.2-0.5,2.5-0.7,3.7c-2.8,13.3-11.7,22.3-24.8,24.7c-2.9,0.5-6,0.3-9,0.5c-0.5,0-1.3-0.3-1.4,0.7c7.9,6.5,21.5,4.2,28.8-1.9 c4.7-3.9,7.8-8.8,9-14.8C954.1,699.6,954.2,695.2,951.4,691.1z M830.1,716.2c-0.2-1.3-0.1-2-0.3-2.4c-1.5-2.4-2.9-5-4.7-7.1 c-7.6-8.5-17.3-12.3-28.5-12.3c-5.5,0-10.8,1.3-15.5,4.3c-0.5,0.3-0.8,1-1.6,1.9C798.8,698.2,815.3,703.5,830.1,716.2z M1127.2,971.7c4.7,0,8.7-1.6,11.1-4.4c3.2-3.8,2.3-8.5-2.1-10.7c-5-2.4-12.6-0.8-16.1,3.6c-0.4,0.5-0.8,1-1.1,1.6 c-1.5,3-0.8,6,1.9,8C1122.9,971.3,1125.2,971.7,1127.2,971.7z M829.6,799c1.6-2.5,3-5,4.6-7.3c1.8-2.4,3.8-4.8,5.9-6.9 c2-2,4.3-3.8,6.7-5.4c2.5-1.7,5.2-3.1,7.9-4.3c2.5-1.2,5.2-1.9,8-3c-2.7-1.6-4.8-2-8.4-1.8c-5.6,0.4-10.5,2.5-14.9,5.7 C832.5,781.3,826.8,792.2,829.6,799z M754,901.3c1.8,0.2,2.5,0.3,3.1,0.3c13.4-0.5,25.7-13.6,25.4-27.1c0-0.5-0.4-1-0.8-1.9 c-3.8,5.7-7.4,11-11.8,15.6C765.4,892.9,760.1,896.7,754,901.3z M890.7,1026c-0.4-3.9-2.5-6.8-5.5-9c-3.7-2.8-7.9-4-12.5-3.7 c-8.3,0.6-15.2,6.6-15.5,13.7c5.1-3.6,10.1-6.8,16.5-6.9C880,1020,885.3,1022.7,890.7,1026z M1147,1027.9c2-2.4,3.4-4.3,5-6 c1.6-1.7,3.3-3.4,5.2-4.9c1.9-1.5,3.9-2.7,5.9-4c1.9-1.3,4.3-1.8,6.2-3.5c-2.7-2-5.4-1.7-8-1.5c-3.2,0.3-6.1,1.8-8.6,3.8 c-2.7,2.1-4.7,4.8-5.7,8C1146.2,1022.2,1145.7,1024.7,1147,1027.9z M873.1,659.8c-0.9-0.5-1.5-0.9-2.1-1.1c-12-3-22.5,8.1-21,17.7 c0.1,0.5,0.5,1,0.8,1.6C859.9,667.7,858.4,668.3,873.1,659.8z M800.6,829.3c4.4-0.1,9-4.7,8.9-9.1c-0.1-2.9-2.4-5.1-5.3-5.1 c-4.4,0-8.9,4.6-8.8,9.1C795.4,827.2,797.6,829.3,800.6,829.3z M1040.2,785.9c6,2.4,10.6,1.5,14.5-2.1c4-3.8,5.5-8.5,3.7-13.9 c-0.2-0.7-0.4-1.6-1.7-1.4c-1.3,2.2-2.5,4.7-4,6.9c-1.5,2-3.2,4-5.2,5.6C1045.5,782.7,1043.1,784,1040.2,785.9z">
                            </path>
                            <path class="ink-d-js-svg-path-saturn" fill="url(#facesaturn)"
                                d="M926,139.5c17.2,5.8,49.3,27.2,58.3,38.9c-3.1,3.2-6.1,6.5-9.3,9.6c-12.2,11.8-25.3,22.6-38.8,32.9 c-19.6,14.9-39.8,29-60.6,42.1c-13.9,8.8-28,17.3-42.1,25.9c-1.2,0.7-2.3,1.5-3.2,2.8c1.5-0.5,3-1,4.4-1.5 c14.8-5.2,28.9-12.1,42.6-19.7c28.7-15.9,56.3-33.5,82.2-53.8c11.2-8.8,22-18,31.5-28.7c0.4-0.5,0.9-0.9,1.4-1.3 c12.4,9.4,35,46,41.4,67.3c-0.9,1.6-2.7,2.1-4.2,2.9c-22.3,11.8-44.6,23.6-67,35.3c-38.9,20.4-78.1,40.3-118.1,58.5 c-36.1,16.4-72.7,31.5-110.3,44.1c-18.5,6.2-37.2,11.8-56,16.7c-1.5,0.4-3.1,0.7-4.7,1c-2.1-3.2-3.7-6.4-5-10.2 c1.1-0.4,2.1-0.9,3.1-1.1c55.8-13.3,109-33.6,159.6-60.4c22.9-12.1,44.9-25.8,65.9-41c1.5-1.1,3-2.3,4.7-3.6 c-1.8-0.5-2.8,0.5-3.9,1c-10.7,5.4-21.3,11-32,16.4c-45.1,22.5-91.3,42.4-139.2,58.3c-19.4,6.4-39,12.3-58.7,17.7 c-1.4,0.4-2.8,0.7-4.1,1c-2.2-3.5-4.4-9.8-6.2-17.7c1-1.6,3-1.6,4.6-2.2c19.8-6.5,38.9-14.6,57.4-24.2c7.2-3.8,14.1-8.1,21.1-12.3 c1.2-0.7,2.3-1.7,3.7-2.7c-2.1-0.7-3.5,0.4-4.9,1c-9.3,3.5-18.5,7.2-27.7,10.7c-17.6,6.7-35.6,12.3-53.9,17.2 c-0.9,0.2-1.8,0.4-2.7,0.5c-6.5-15.6-6.2-65,0.4-84.1c14-3.6,28.1-7.1,42.1-10.9c14.2-3.8,28.1-8.6,41.9-13.7 c13.6-5.1,27.1-10.7,40.3-16.7c13.4-6.2,26.5-12.8,39.3-20c12.7-7.1,25.1-14.6,37.3-22.7c12.3-8.1,24.3-16.6,35.8-25.7 C903.6,158.1,914.8,148.7,926,139.5z M909.1,198.6c-0.2-0.2-0.5-0.5-0.7-0.7c-1.3,0.9-2.6,1.8-3.9,2.7c-5.7,4-11.5,8.1-17.2,12.2 c-42.7,29.7-88.5,53.5-137.6,70.9c-12,4.3-24.2,8-36.4,12.1c-1.1,0.4-2.5,0.5-3.4,2c2.2-0.1,4.1-0.1,6-0.3c8.7-1.3,17.4-2.3,26-4 c37.9-7.8,73.2-22.3,105.9-43.1c21-13.3,40.3-28.8,57.2-47.1C906.4,201.6,907.8,200.1,909.1,198.6z">
                            </path>
                            <path class="ink-d-js-svg-path-saturn" fill="url(#facesaturn)"
                                d="M749.6,490.9c11.8-3.1,23.1-5.8,34.3-9c11.1-3.2,22-6.6,32.9-10.3c11-3.8,22-7.9,32.8-12.3 c10.6-4.3,21.2-9,31.6-13.9c10.5-5.1,20.8-10.6,31-16.2c10.1-5.5,19.8-11.6,29.9-18.5c-1.8-0.3-2.7,0.3-3.6,0.6 c-12.1,5.1-24.1,10.4-36.2,15.4C849.2,449,794.6,467,738.6,480.5c-0.8,0.2-1.6,0.3-2.3,0.5c-1.3,0.3-2.5,0.2-3.6-0.7 c-0.6-0.5-1.3-0.9-2-1.4c-11.4-8.3-21.8-17.7-31.2-28.3c-0.8-1-1.7-2-2.4-3c-0.2-0.2-0.2-0.6-0.4-1.1c1-0.4,2-0.9,3-1.2 c15.5-4.5,31.1-8.7,46.5-13.4c73.3-22,144.3-50.1,212.9-84c27.4-13.5,54.3-28,80.7-43.3c1.4-0.8,2.8-1.5,3.9-2.1 c1.3,0.4,1.2,1.3,1.2,2.1c0.2,1.8,0.2,3.5,0.4,5.3c0.2,1.8-0.4,3.1-1.7,4.2c-6.4,5.8-12.6,11.8-19.2,17.4 c-15.3,13-31.7,24.3-49.3,33.9c-6.7,3.7-13.5,7.3-20.3,10.9c-1.2,0.7-2.4,1.5-4.2,2.6c2.7,0.2,4.5-0.6,6.3-1.1 c7.5-2.1,14.8-5,22-8.2c22.4-10.1,43.2-22.9,62.2-38.5c1.1-0.9,2.2-1.7,3.5-2.8c0.3,0.8,0.6,1.2,0.6,1.6 c-0.5,15.6-3.2,30.8-7.4,45.8c-0.5,1.9-1.6,3.5-2.8,4.9c-30.1,35.8-65.5,65.1-107,86.7c-29.8,15.5-61.3,26.3-94.3,33 c-14,2.8-28,4.8-42.2,6.4c-4.4,0.5-8.5,0.1-12.6-1.6c-8.8-3.5-17.4-7.3-25.7-11.8C752.2,492.6,751.2,491.9,749.6,490.9z">
                            </path>
                            <path class="ink-d-js-svg-path" fill="url(#facebottom)"
                                d="M634.4,350.6c0.9,4.6,1.8,9.1,2.8,13.9c-1.3,0.7-2.5,1.5-3.8,2.1c-8.5,4.1-16.8,8.6-24.8,13.5 c-7.1,4.4-13.9,9.2-20.1,14.8c-4.2,3.8-7.9,7.9-10.8,12.8c-2,3.5-3.4,7.2-3.3,11.4c0,5.9,2.5,10.5,7.2,13.8c4,2.8,8.6,4.1,13.5,4.6 c4.9,0.5,9.9,0.3,14.8-0.4c63.2-9.5,123.9-28.1,183.1-51.8c39.9-16,78.9-34.1,117.3-53.4c47.4-23.8,94.4-48.4,141-73.8 c24.5-13.3,47.8-28.4,70.8-44.1c5.7-3.9,11.1-8.1,16.5-12.4c3-2.4,5.7-5.2,8.2-8c1.7-1.9,3.1-4.1,4.2-6.4c2.8-5.8,1-11.5-4.4-15 c-2.7-1.8-5.8-2.7-9-3.2c-4.9-0.7-9.8-0.9-14.8-0.6c-18.3,1.2-36,5.3-53.6,10.3c-16,4.6-31.7,10.1-46.7,17.2 c-0.7,0.3-1.4,0.6-2.3,0.9c-1-1.1-2-2.2-2.9-3.2c0.2-1.7,1.7-2,2.7-2.6c12.6-7,25.7-13,39.1-18.3c24.7-9.8,50-17.6,76.1-22.7 c11.9-2.4,23.9-4,36.1-4.7c2.6-0.2,5.1,0.1,7.5,1.1c8.6,3.4,12.4,13.2,8.3,21.5c-1.6,3.1-3.5,6.1-5.4,9c-4.8,7.2-10.2,14-16.1,20.3 c-19.7,21.2-41.1,40.3-65.3,56.2c-120.7,79.6-250.7,138.5-390,176.9c-22.5,6.2-44.8,13-67.2,19.4c-18.8,5.4-37.7,10.1-56.9,13.4 c-12.6,2.2-25.3,3.7-38.1,4.5c-12,0.7-24,0.8-35.9-0.1c-5.3-0.4-10.5-1.2-15.5-2.9c-2.1-0.7-4.2-1.6-6.1-2.8 c-1.4-0.8-2.6-1.9-3.6-3.1c-1.5-1.7-2-3.6-0.8-5.7c1.5-2.6,2.9-5.4,4.5-7.9c5.4-8,11.7-15.2,18.4-22.1 c14.9-15.1,31.5-28.1,49.5-39.3c22.7-14.1,46.8-24.9,72.3-32.7c0.8-0.2,1.5-0.4,2.3-0.6C633.5,350.4,633.6,350.5,634.4,350.6z">
                            </path>
                            <path class="ink-d-js-svg-path-saturn" fill="url(#facesaturn)"
                                d="M666,243.5c10.8-25.1,25.3-46.3,44.2-64.5c24.4-23.6,53-39.9,85.6-49.1c23.2-6.5,55.8-8.5,66.9-5.8 c-0.1,1.5-1.5,2-2.4,2.7c-19.3,15.9-39.7,30.2-61.2,42.9c-20.8,12.3-42.7,22.5-65,31.8c-11.5,4.8-23,9.6-34.5,14.4 c-1.5,0.6-2.9,1.3-4.4,2c0.4,1.3,1.4,0.8,2,0.8c0.8,0.1,1.6,0,2.4-0.1c9.9-1,19.6-2.7,29.3-5.1c13.8-3.5,27.1-8.5,40.2-14.2 c30.8-13.4,59.3-30.7,85-52.5c7.1-6,13.7-12.5,20.4-18.9c1.9-1.8,3.7-2.7,6.3-2.2c10.6,1.9,20.9,4.4,31.1,7.9 c0.4,0.1,0.8,0.5,1.3,0.9c-0.4,0.5-0.7,1.1-1.1,1.5c-25.4,22.4-52.6,42.3-81.5,59.7c-32.7,19.7-67,35.9-103,48.7 c-22.1,7.8-44.7,14.4-67.9,19.3c-0.8-2.4,0.7-4.1,1.1-6.2c28.4-7.1,55.5-17.5,81.3-31.3c9-4.8,17.8-10.1,26.1-16.1 c0.9-0.6,1.7-1.4,2.8-2.2c-1.7-0.4-2.7,0.3-3.8,0.8c-14.3,5.4-28.6,11-43,16.3c-17.5,6.5-35.3,12.2-53.3,17.3 C669.5,242.7,668.2,243,666,243.5z">
                            </path>
                            <path class="ink-d-js-svg-path-saturn" fill="url(#facesaturn)"
                                d="M1022.3,412.2c-2.1,8.4-19.4,32.6-33.4,46.8c-25.1,25.3-54.8,42.7-89.2,52.2c-28,7.7-62.7,8.1-81.1,3.9 c2.2-0.8,4.2-1.1,6.2-1.4c34.4-6,67.4-16.1,98.8-31.3c34.7-16.7,65.8-38.7,93.4-65.5c1.5-1.4,3-2.9,4.5-4.3 C1021.7,412.4,1022,412.3,1022.3,412.2z">
                            </path>
                            <path class="ink-d-js-svg-path-jupiter" fill="url(#facejupiter)"
                                d="M268.4,754.2c-4.1,0.8-8.1,1.9-12.2,2.5c-15,2.2-29.6,0.5-43.7-5.5c-5-2.2-9.7-4.9-14.1-8.2 c-3.1-2.3-6.2-4.6-9.2-6.9c-7.5-5.7-15.9-9.4-25.1-11.4c-4.4-0.9-8.7-1.9-13.1-2.9c-10.9-2.4-19.9-7.9-26.8-16.5 c-3.6-4.5-6.9-9.2-10.1-14c-2.9-4.4-5.6-9-8.4-13.4c-4.1-6.5-8.7-12.6-14.1-18.2c-6.3-6.5-13.6-11.7-22.3-14.4 c-0.6-0.2-1.2-0.5-1.9-0.8c-5.1-23-5.5-45.9-1-68.9c1.1-0.6,1.5,0.1,2,0.8c2.6,3.6,5,7.5,7.9,10.9c7.7,9.2,16.9,16.6,27.8,21.6 c7.1,3.2,14.4,6.2,21.6,9.3c5.7,2.5,11.5,4.9,17.1,7.6c7.8,3.8,14.9,8.8,21,15c3.6,3.6,7.1,7.4,10.7,11c4.8,4.7,9.4,9.6,14.5,14 c11,9.8,23.9,15,38.6,16.2c8.5,0.7,16.9,0.1,25.3-0.6c-0.3-1.6-1.4-1.3-2.3-1.4c-7.4-1.3-14.8-2.4-22.2-3.9 c-13.2-2.7-24.5-9.1-33.8-18.9c-4.3-4.5-8.4-9.2-12.6-13.8c-3.2-3.5-6.4-7.1-9.7-10.6c-7.7-8.1-16.6-14.6-26.7-19.2 c-7.4-3.3-15-6.3-22.5-9.5c-5.4-2.3-11-4.4-16.3-7c-12.3-6-22.3-14.9-29.9-26.3c-2.1-3.2-3.6-6.7-5.3-10.2 c-0.7-1.3-0.7-2.8-0.2-4.2c3.7-11.8,8.5-23.1,14.9-33.9c2.9-0.6,5.9-1.3,8.8-1.8c12.7-2,25.4-2.9,38.2-2.6 c5.6,0.2,11.1,1.1,16.5,2.9c4.2,1.4,8.5,2.8,12.7,4.4c10.4,4.1,21.2,5.8,32.3,6.4c7.5,0.4,15,0.7,22.5,1.1 c10.9,0.6,21.5,2.7,32.1,5.2c6.7,1.6,13.3,3.4,19.7,5.9c9.7,3.8,18.2,9.3,25.3,17c2.6,2.8,5.3,5.5,8.2,8.1 c5.7,5.2,12.4,7.7,20.1,7.9c2.7,0.1,5.4,0.1,8.2,0.2c7.1,0.1,13.1,2.7,18,7.7c2.7,2.7,5.1,5.7,7.5,8.7c2.8,3.5,5.3,7.2,8.1,10.7 c7.9,9.9,18.3,15.7,30.6,18.5c3.9,0.9,7.9,0.7,12.1-0.2c0.2,0.7,0.5,1.3,0.5,1.8c-2,20.2-7.2,39.6-16.1,57.9 c-0.5,1.1-1.2,2.2-1.9,3.3c-5.3-1.9-10.3-4-15.4-5.6c-5.3-1.7-10.9-2.8-16.5-3c-5.4-0.2-10.9-0.2-16.3,0c-5.6,0.3-11.1,1.4-16.5,3 c-5.2,1.5-10.3,3.2-15.5,6.4c2.5,0.7,4.3,0.1,6.1,0.1c1.9,0,3.8-0.2,5.8-0.2c1.9-0.1,3.8-0.1,5.8-0.2c1.9,0,3.8,0,5.8,0.1 c1.9,0.1,3.8,0.1,5.8,0.2c1.9,0.1,3.8,0.3,5.7,0.5c1.9,0.2,3.8,0.4,5.7,0.7c1.9,0.3,3.8,0.6,5.7,1c1.9,0.4,3.8,0.8,5.6,1.2 c1.9,0.4,3.7,0.9,5.6,1.4c1.9,0.5,3.7,1,5.5,1.6c1.8,0.6,3.7,1.1,5.5,1.7c1.8,0.6,3.6,1,5.2,2.1c-1.6,4.4-7.3,12.7-11.1,16.4 c-0.6-0.4-1.3-0.8-1.9-1.2c-8.5-6.2-18.2-9.1-28.6-10.1c-12.9-1.2-25.5,0.4-38,3.4c-9.6,2.3-19.3,4.7-28.9,6.7 c-8.3,1.7-16.7,2.5-25.3,1.7c-7.3-0.7-14.1-2.6-20.8-5.5c-6.2-2.7-12-6-17.6-9.7c-6.5-4.4-12.9-8.9-19.3-13.5 c-6.5-4.6-13.1-9.1-20.2-12.9c-7.4-4-15-7.2-23.2-9c-7.6-1.6-15.1-2.2-23.8,0c1.8,0.3,2.6,0.5,3.4,0.6c9.7,0.5,18.9,3,27.6,7.2 c8.1,3.9,15.7,8.7,22.9,14c6.4,4.8,12.7,9.8,19.2,14.4c6.1,4.4,12.3,8.7,18.7,12.6c8.4,5.1,17.4,8.8,27.1,10.5 c6.2,1.1,12.4,1.5,18.6,1.1c11.1-0.7,21.8-3.2,32.5-5.7c7.3-1.7,14.6-3.5,22-4.8c10-1.8,20-2.3,30-0.6c6,1.1,11.7,3.1,16.9,6.4 c0.8,0.5,1.5,1.1,2.2,1.7c-0.2,1.9-1.7,2.9-2.7,4c-22.8,24.7-50.5,41.5-82.9,50.3c-17.3,4.7-34.9,6.6-52.7,5.6 c-42.4-2.5-79-18.4-109.9-47.5c-20-18.9-34.5-41.4-44-67.2c-0.5-1.5-1-3-1.4-4.6c-0.1-0.3,0.1-0.6,0.1-1c0.8-0.7,1.5-0.2,2.1,0.3 c2.9,2.2,5.9,4.3,8.6,6.8c5.2,4.8,9.3,10.5,13.2,16.4c3.3,4.9,6.3,10,9.7,14.8c3.4,4.8,6.9,9.6,10.7,14.1 c8.9,10.5,20.3,16.9,33.9,19.1c5,0.8,10.1,1.8,15.1,2.8c6,1.2,11.6,3.5,16.7,6.9c4,2.6,7.9,5.4,11.9,8.1 c9.4,6.4,19.6,10.7,30.9,12.5c14.1,2.1,27.7,0.7,40.8-5.3C266.7,756,268.3,755.9,268.4,754.2c0.2-0.1,0.5-0.2,0.8-0.3 C268.9,754.1,268.6,754.2,268.4,754.2z M362.7,661.3c0,0.8,0.3,1,1,0.5c-0.4-0.1-0.7-0.3-1.1-0.4c-0.9-0.6-1.7-1.4-2.7-1.8 c-5.1-2.2-10.5-3.8-16-4.9c-11-2.2-22.2-2.6-33.4-2.4c-9.4,0.2-18.9,0.7-28.3,0.8c-7.5,0.1-15,0-22.5-0.5 c-5.1-0.3-10.2-1.2-15.1-2.4c-14-3.4-26.6-9.9-38.3-18.2c-5.7-4-11.3-8.3-16.7-12.8c-8.7-7.2-17.3-14.7-25.9-22.1 c-8.5-7.3-17.1-14.4-26.4-20.7c-9.2-6.2-18.7-11.7-29.2-15.4c-0.5-0.2-1-0.5-1.8-1c1-0.5,1.5-0.8,2.1-1c6.4-1.4,12.9-2.2,19.5-1.8 c7,0.4,14,1.3,20.8,3.1c10.5,2.8,21,5.7,31.4,8.6c12.2,3.3,24.5,6.1,37.1,7c11,0.8,22,1.3,33,1.9c9.6,0.5,19.1,1.3,28.6,3 c14.8,2.7,28.8,7.3,41.1,16.2c0.5,0.4,1.1,1.2,2,0.2c-0.6-0.7-1.2-1.5-1.9-2.1c-6.8-6.8-14.8-11.6-23.6-15.2 c-11.8-4.9-24.1-7.4-36.7-8.6c-11.1-1.1-22.3-1.9-33.4-2.8c-14.2-1.1-28.2-3.5-41.9-7.5c-11.2-3.3-22.4-6.5-33.7-9.4 c-12.8-3.3-25.8-4.7-39-2.4c-4.2,0.7-8.4,1.8-12.5,3.1c-3.3,1.1-5.1,3.7-5.2,7.3c-0.1,3.6,1.5,6.1,4.7,7.7c1.1,0.6,2.4,0.9,3.6,1.4 c3.1,1.2,6.3,2.3,9.4,3.7c10.6,4.7,20.2,11.1,29.2,18.3c8.7,7,17.1,14.5,25.6,21.7c8.4,7.1,16.7,14.4,25.3,21.3 c8.5,6.8,17.6,12.7,27.4,17.5c9.9,4.7,20.2,8,31,9.5c12.1,1.7,24.2,1.3,36.4,0.4c11.5-0.9,22.9-2.2,34.4-3c13-1,25.9-0.4,38.5,3 C360.5,661.3,361.6,661.2,362.7,661.3z M203.3,590.6c0,0.1,0.1,0.3,0.1,0.4c5.7,0.4,11.5,0.8,17.2,1.3c8.1,0.6,16.2,1.6,24.2,3.2 c10.2,2.1,20.1,5.3,29.3,10.2c6.1,3.2,12.6,4.6,19.4,4.7c1.9,0,3.8,0,5.8,0.1c10.1,0.7,19.4,3.8,27.6,9.9c1.9,1.4,3.5,3.2,5,5.1 c0.8,0.9,1.1,2.3,1.4,3.5c0.3,1.3-0.9,2.6-2.3,2.5c-0.9,0-1.9-0.2-2.8-0.5c-2.2-0.8-4.5-1.7-6.6-2.7c-8.2-4.1-16.8-5.1-25.7-3.7 c-5.4,0.8-10.7,1.8-16,2.9c-8.2,1.6-16.2,3.8-24.5,4.6c-12,1.2-23.2-0.9-33.5-7.5c-0.7-0.5-1.3-1.5-2.7-0.9c0.6,0.6,1,1.2,1.5,1.7 c4.7,4.2,10.1,7.3,16.1,9.3c8.7,2.9,17.6,3.4,26.5,2.3c9-1.1,18-2.5,27-3.8c10.3-1.5,20.4-1.4,29.7,4.2c2,1.2,4.4,1.9,6.7,2.6 c2.6,0.8,5.4,0.9,8,0c5.7-1.9,8.8-7.8,7.2-13.9c-1.3-4.8-4.1-8.6-8-11.7c-3.9-3.1-8.2-5.6-12.8-7.5c-7.9-3.4-16.1-5-24.7-4.9 c-11.2,0.1-10.4,0.5-21.4-4c-9.5-4-19.3-6.6-29.6-7.8c-12.6-1.5-25.2-1-37.8-0.3C206.3,589.8,204.8,590.3,203.3,590.6z">
                            </path>
                            <path class="ink-d-js-svg-path-jupiter" fill="url(#facejupiter)"
                                d="M91.4,514.4c2.1-4.5,7.5-11.9,12.4-17.1c9.6-0.4,18.9-3.5,28.1-6.7c5-1.7,10-3.3,15.2-4.3 c6-1,11.8-0.3,17.3,2.1c2.5,1.1,4.9,2.3,7.4,3.5c6.3,3.1,12.9,4.4,19.9,4.5c8.4,0.1,16.5-1.4,24.8-2.5c6.5-0.9,13-1.7,19.6-0.8 c12.6,1.7,23,7.3,31.5,16.7c1.6,1.8,3.1,3.7,4.6,5.5c5.1,6.6,12,9.8,20.2,10.7c3.5,0.4,7,0.6,10.5,1c3.8,0.4,7.6,1.1,11.1,2.8 c2.5,1.2,4.7,2.7,6.5,4.8c0.4,0.4,0.8,0.8,1.4,0.9c-0.9-3.2-3.1-5.4-5.7-7.3c-3.4-2.5-7.3-4-11.3-5c-3.1-0.7-6.3-1.3-9.4-1.9 c-1.7-0.4-3.4-0.8-5.1-1.2c-4.8-1.4-8.7-3.9-11.6-8c-1.3-1.8-2.6-3.7-3.9-5.4c-12.9-17.1-30.1-24.7-51.3-23.3 c-8.6,0.6-17.2,1.8-25.7,2.7c-8,0.8-15.6-0.4-22.8-4.1c-1.1-0.6-2.3-1.1-3.5-1.7c-10.1-5.1-20.5-5.8-31.2-2.6 c-5,1.5-10,3.4-14.9,5.2c-3.6,1.3-7.1,2.7-11.2,3.9c0.3-1.8,1.4-2.4,2.3-3.2c19.4-18.5,41.9-31.9,67.5-40 c21.1-6.7,42.8-9.3,64.9-7.5c72.4,5.8,128.9,54.1,150.2,116c0.4,1.2,0.7,2.4,1,3.5c-0.9,1-1.7,0.4-2.3,0.2 c-13-5.3-23.4-13.7-29.9-26.4c-1.3-2.6-2.6-5.1-4.1-7.6c-3.9-6.6-9.5-11.2-16.6-13.9c-4.9-1.9-10.1-3-15.3-3.9 c-5.2-0.9-10.4-1.8-15.5-2.9c-7.2-1.5-13.4-5-18.5-10.5c-2.1-2.2-4.2-4.4-6.3-6.6c-13-12.8-28.7-18.7-46.9-18.3 c-2.7,0.1-5.4,0.5-8.1,0.9c-1.2,0.2-2.4,0.7-3.7,1.4c0.6,0,1.3,0.1,1.9,0c20.8-2,38.4,4.6,52.6,20c1.8,2,3.6,4.1,5.2,6.2 c6,7.5,13.7,12.4,23,14.8c4.8,1.2,9.6,2.2,14.4,3.5c3.7,0.9,7.5,1.8,11.1,3.1c6.8,2.3,11.9,6.8,14.8,13.4c1.2,2.8,2.5,5.5,3.9,8.2 c7,13.3,17.4,22.7,31.9,27.4c2.6,0.8,5.3,1.2,7.9,1.8c1.1,0.2,2.2,0.4,3.5,0.6c0.3,0.9,0.8,1.7,1,2.6c3,12.7,4.3,25.5,4.4,38.5 c0,2.4-0.2,4.8-0.4,7c-1.8,1.7-3.9,2-6,2.1c-3.4,0.1-6.7-0.5-9.9-1.6c-9.8-3.4-18-8.9-23.9-17.6c-2.4-3.6-4.9-7.1-7.5-10.5 c-2.2-2.9-4.6-5.8-7.2-8.4c-6.2-6.3-13.8-9.6-22.7-9.9c-3.5-0.1-7-0.3-10.5-0.6c-4.6-0.4-8.6-2.4-12-5.5c-2.4-2.1-4.7-4.4-6.8-6.8 c-9.3-10.9-21.1-18.1-34.5-22.5c-16.1-5.3-32.6-9.1-49.7-10c-8.6-0.5-17.2-1.1-25.8-1.6c-9.1-0.6-18-2.3-26.7-5.5 c-4.5-1.7-9.1-3.1-13.6-4.6c-6-1.9-12.1-2.7-18.4-2.6c-12.8,0.2-25.5,1.6-38,4.3C93.7,514.1,92.7,514.2,91.4,514.4z M359.6,503.2 c-0.4-0.7-0.6-1.2-0.9-1.6c-2.1-2.8-4.8-5.1-7.8-7c-4.7-3.1-9.9-5.2-15.2-7c-4.8-1.6-9.7-3.2-14.5-5c-7-2.6-12.9-6.8-17.3-13.1 c-6.6-9.5-16-14.9-27.1-17.6c-7.7-1.9-15.5-2.4-23.3-2.3c-15.5,0.3-30.9,1.8-46.2,4.5c-1.4,0.3-2.9,0.5-4.7,1.6 c3.5,0,6.4,0.1,9.2,0c15.3-0.4,30.7-0.7,46,0.2c7.2,0.4,14.3,1.5,21.2,3.7c7.8,2.6,14.4,6.9,19.3,13.5c0.8,1,1.6,2,2.4,3 c3,3.6,6.6,6.5,10.8,8.5c3.2,1.5,6.4,2.8,9.8,3.8c4.9,1.5,9.9,2.6,14.8,3.8c8.3,2,16.2,5,22.6,10.9 C358.9,503.3,359,503.2,359.6,503.2z">
                            </path>
                            <path class="st0"
                                d="M600.8,77.4c-1.4-6.2-5.2-10.4-11.4-13c1.9-1.4,3.5-2.3,4.9-3.5c1.3-1.2,2.4-2.6,3.3-4.1 c1-1.6,1.6-3.5,2.5-5.7c2.1,5.8,5.6,9.7,11.2,11.6c-2.4,2.2-5,4.1-6.8,6.5C602.9,71.5,602.1,74.5,600.8,77.4z">
                            </path>
                            <path class="st0"
                                d="M632.7,612.9c4.9-6.3,5.3-4.7,7.2-14.9c1.7,0.8,2.2,2.8,3.6,3.7c1.6,1,3.1,2.2,4.8,3c1.6,0.7,3.3,1,5.3,1.5 c-1.8,2.6-4.3,4.6-5.4,7.7c-1.1,2.9-0.9,5.9-1,9.8C644,617.2,639.6,613.6,632.7,612.9z">
                            </path>
                            <path class="st0"
                                d="M358.7,903.9c-0.2,6.4,2.5,10.7,6.8,14.4c-2.8,1.2-5.6,2-7.9,3.6c-2.3,1.6-4,3.9-6.1,6.1 c-0.7-1.1-0.1-2.5-0.5-3.8c-0.4-1.4-0.7-2.8-1.2-4.1c-0.6-1.3-1.3-2.5-2.2-3.7c-0.8-1.1-1.9-2.1-3-3.3c2.7-1.1,5.5-1.9,7.8-3.4 C354.5,908.4,356.2,906.2,358.7,903.9z">
                            </path>
                            <path class="st0"
                                d="M36.3,770.7c5-3.3,8-7.6,8.8-13.9c1.5,2,2.4,3.6,3.6,4.9c1.2,1.3,2.6,2.4,4.1,3.3c1.6,1,3.4,1.6,5.4,2.5 c-5.6,3.7-8.7,8.4-8.4,15.6c-1.9-1.9-2.1-4.1-3.5-5.5c-1.3-1.4-2.6-2.8-4.2-3.9C40.5,772.5,38.5,771.8,36.3,770.7z">
                            </path>
                            <path class="st0"
                                d="M298.1,268.5c-2.3,2.1-4.4,3.6-5.9,5.6c-1.5,1.9-2.4,4.3-3.6,6.7c-3.3-6.5-4-7.2-9.8-10.8c0-0.3,0-0.7,0.1-0.8 c4.2-2.4,7.2-5.7,8.6-10.7c1.9,0.9,1.9,2.8,2.9,3.8c1.2,1.3,2.3,2.6,3.7,3.7C295.2,267,296.6,267.7,298.1,268.5z">
                            </path>
                            <path class="st0"
                                d="M1135.4,467.5c-1.4-2.6-2.9-5.4-4.4-8.1c2.4-1.5,4.9-3.1,7.7-4.8c1.4,2.4,3,5.1,4.5,7.7 C1140.6,464,1138,465.7,1135.4,467.5z">
                            </path>
                            <path
                                d="M480.2,2131.3c1.2-9.4-0.3-18.5-2.9-27.4c-3.1-10.2-7.6-19.7-13.5-28.5c-5.1-7.5-10.6-14.8-16.1-22 c-5.4-7.1-11.2-14-16.7-21.1c-19.8-25.7-32.3-54.6-38.6-86.3c-4-20-5.8-40.2-5.9-60.5c-0.1-12-0.1-24,1.1-35.9 c0.1-0.8,0.2-1.6,0.3-2.6c1.3,1.3,1.4,2.7,1.7,4.1c2.3,12.4,4.6,24.8,6.8,37.3c4.2,24.1,8.5,48.2,15.5,71.6 c2.4,8.1,5.1,16.2,8,24.1c5.7,15.7,13.6,30.3,23,44.1c5.8,8.4,11.6,16.9,17.2,25.4c4.6,6.9,8.9,14.1,12.5,21.6 c4.6,9.6,8.1,19.5,9.7,30c1.2,8.3,1.3,16.6-0.4,24.8C481.5,2130.6,481.4,2131.4,480.2,2131.3L480.2,2131.3z">
                            </path>
                            <path
                                d="M378.4,1476.3c-2.5,2.9-5.7,3.6-8,6.2c1.4,0.5,2.3,1,3.3,1.3c8.8,3,17.9,4.9,27.1,5.9c11.3,1.3,22.6,2.1,33.9,3.1 c13.9,1.2,27.7,2.5,41.3,5.7c9.9,2.3,19.3,5.8,27.7,11.6c1.4,1,3,1.8,4.3,3.9c-1.4-0.3-2.3-0.4-3.2-0.6 c-10.7-3.3-21.6-5.9-32.6-7.5c-9-1.3-18.1-1.9-27.2-2.3c-10.4-0.4-20.8-0.6-31.1-1.1c-11.7-0.6-23.3-1.8-34.6-4.7 c-6.8-1.7-13.6-3.7-19.7-7.4c-2.3-1.3-4.3-1.3-6.8-0.4c-15.7,5.9-32,8.6-48.8,8.5c-10.3-0.1-20.4-1.3-30.3-4.1 c-3-0.8-5.5-0.7-8.3,0.5c-6,2.6-12.2,4.6-18.7,6c-9,1.9-18.1,2.2-27.2,1c-4.1-0.6-8.2-1.4-12.3-1.8c-3.6-0.4-7.3-0.4-11-0.5 c-0.7,0-1.5-0.1-2.9-0.1c0.9-0.9,1.3-1.4,1.8-1.7c2.6-1.6,5.5-2.7,8.5-2.9c3.3-0.3,6.7-0.6,10-0.5c12.3,0.4,24.2-1,35.8-5.3 c1.3-0.5,2.6-1,4.3-1.7c-1.2-1.8-3-2.2-4.4-3.2c-1.4-1-3.1-1.7-4.5-3.6c1.3,0.1,2,0.1,2.7,0.3c20.1,5.2,40.6,7.1,61.3,6.2 c14.5-0.6,29-2.4,43.3-5.2c7.8-1.5,15.6-3.3,23.4-5C376.3,1476.5,376.9,1476.4,378.4,1476.3z">
                            </path>
                            <path
                                d="M270.2,1061.8c0.5,1.6-0.4,2.4-0.9,3.4c-5.7,11.2-9.3,23.1-10.7,35.6c-0.5,4.7-0.7,9.6-0.5,14.4 c0.4,10.2-2.2,19.6-7.3,28.4c-3.8,6.5-8.4,12.4-13.3,18.1c-4.8,5.6-9.7,11-14.5,16.6c-3.4,4-6.7,8.1-9.8,12.4 c-2.7,3.8-5.1,7.7-7.3,11.8c-5.7,10.5-7,21.8-4.8,33.5c2.3,12.3,7.5,23.4,15,33.4c3.8,5.1,5.7,9,7.4,15.7c-1.4-0.4-2-1.5-2.6-2.5 c-3.1-5.5-7.8-9.7-12.4-13.9c-0.2-0.2-0.6-0.2-1.1-0.4c-1.7,3.4-1.1,7.1-0.7,10.6c0.4,3.7,1.6,7.2,3.4,10.4 c1.8,3.2,3.9,6.2,6.7,8.7c2.7,2.4,5.7,4.6,8.7,7c-0.1,1-1,0.8-1.7,0.7c-6.8-0.4-12.6-3.3-17.6-7.8c-10.3-9.3-14-24.6-9.2-37.8 c0.5-1.3,1.1-2.7,1.7-4.2c-0.6-1.2-1.2-2.4-1.9-3.7c-4.8-8.9-7.5-18.3-8.2-28.3c-0.5-7.1,0.7-14,3-20.7c2.5-7.3,6.2-14,10.6-20.4 c5.1-7.4,10.8-14.2,16.9-20.9c3.6-4,7.4-7.9,11-12.1c3.5-4.1,6.9-8.4,10.1-12.8c4.8-6.8,7.1-14.4,7.7-22.8 c1.3-18.5,7.9-35.1,19.6-49.6c0.6-0.7,1.3-1.5,1.9-2.1C269.3,1062.2,269.7,1062.1,270.2,1061.8z">
                            </path>
                            <path
                                d="M1113,2103.1c-1.6,0.7-3.2,1.4-4.8,2.1c-34.5,14.5-69.5,27.5-104.7,40.2c-35.3,12.7-70.9,24.6-106.5,36.4 c-18.3,6.1-36.5,12.8-54,21c-17.3,8.1-33.6,17.8-48.3,30c-0.7,0.6-1.6,1.1-2.3,1.6c-0.1,0-0.3-0.1-0.7-0.2c0.6-1.7,2-2.7,3.1-3.9 c8.6-9.1,18.2-17.1,28.5-24.1c15-10.2,31.1-18.2,47.8-25.4c18.1-7.7,36.6-14.2,55.2-20.6c47.4-16.4,95.1-32,143.2-45.9 c14-4,28-7.8,42-11.6c0.4-0.1,0.9-0.1,1.4-0.1C1112.9,2102.7,1113,2102.9,1113,2103.1z">
                            </path>
                            <path
                                d="M213.4,1464.6c0.2-0.9,0.4-1.8,0.7-2.6c4.4-12.3,11.7-22.3,22.4-29.8c5.7-4,12.1-6.5,19.1-7.2c5-0.5,9.9,0,14.5,2.1 c5.2,2.4,10.7,3,16.4,2.6c6.4-0.4,12.6-1.9,18.7-3.8c6-1.8,11.9-3.7,17.9-5.5c14.9-4.2,30-4.3,45.1-1.3 c17.5,3.5,33.4,10.7,48.3,20.4c15.9,10.4,29.9,22.9,43.2,36.4c0.4,0.4,0.7,0.9,0.6,1.8c-1.3-0.8-2.7-1.5-4-2.3 c-8.8-5.6-17.5-11.3-26.3-16.7c-12.1-7.5-24.6-14.2-38-19.3c-9.9-3.8-20-6.6-30.6-7.8c-11.8-1.4-23.6-1-35.2,2.2 c-6.6,1.8-13.2,3.7-19.8,5.6c-7.6,2.1-15.3,3.1-23.2,2.6c-6-0.3-11.7-1.6-17-4.5c-5.4-3-11-3-16.8-1.9c-4.8,0.9-9.1,3-13.2,5.6 c-8.1,5.1-14.6,11.9-19.8,19.9c-0.8,1.3-1.7,2.6-2.6,3.8C213.7,1464.8,213.6,1464.7,213.4,1464.6z">
                            </path>
                            <path
                                d="M1230.3,1217.6c0.8-1,1.7-1.9,2.3-3c14.2-23.4,23.4-48.5,27.4-75.7c1.8-12.2,2.2-24.5,1.7-36.8c-0.2-5.1-1-10.2-2.8-15 c-1-2.8-2.3-5.7-3.9-8.2c-3.9-6-9.5-9.3-16.7-9.8c-6.7-0.5-13.1,0.7-18.9,4.1c-4.8,2.8-9.6,5.8-14.1,9 c-18.9,13.5-37.2,27.7-54.8,42.8c-2.4,2.1-4.8,4.2-7.7,6.9c0.3-1.4,0.2-2.2,0.6-2.8c2.5-4.3,4.9-8.6,7.7-12.7 c5.5-7.9,12.2-14.8,19.3-21.3c12.9-11.8,27-22,42-31c7.4-4.5,15.5-6.6,24.2-6.4c13.9,0.4,24,7,29.9,19.6c2.9,6.1,4.3,12.7,4.9,19.4 c0.9,10.7,0.2,21.4-1.2,32.1c-2.7,20.5-8.8,39.9-18.1,58.3c-4.9,9.6-10.6,18.6-17.1,27.1c-0.9,1.1-1.8,2.3-2.8,3.2 C1231.7,1217.8,1230.8,1217.6,1230.3,1217.6L1230.3,1217.6z">
                            </path>
                            <path
                                d="M183.8,2148.6c1.5,0.9,3,1.8,4.5,2.5c15.5,7.1,31.7,11.9,48.3,15.4c14.7,3.1,29.6,5,44.5,6.8c16.3,2.1,32.7,4.1,48.9,6.7 c21.2,3.4,41.8,9.1,61.4,18.3c15.6,7.4,29.8,16.8,41.7,29.4c3.2,3.3,6.1,7,9.1,10.5c0.5,0.5,1.2,1.1,0.5,2.3 c-0.6-0.4-1.3-0.8-1.8-1.3c-21.6-20.1-47.3-32.4-75.5-40.1c-15.9-4.3-32.1-7.3-48.4-9.7c-18.5-2.7-37.1-5-55.4-8.6 c-16-3.2-31.8-7.2-46.9-13.5c-9.6-4-18.8-8.8-27.5-14.6c-1.2-0.8-2.4-1.6-3.4-2.6C183.6,2149.9,183.9,2149.1,183.8,2148.6 C183.8,2148.5,183.8,2148.6,183.8,2148.6z">
                            </path>
                            <path
                                d="M1057.1,1333.6c-2.9-4.7-3.8-9.7-3.4-14.9c1-12,6.2-21.7,16.2-28.6c3.7-2.5,7.7-4.5,11.6-6.7c3.4-1.8,6.8-3.5,10.2-5.3 c7.1-4,11.9-10,14.7-17.6c2.1-5.6,3.2-11.4,3.4-17.3c0.2-4.6,0.1-9.3-0.1-13.9c-0.3-5.6-0.9-11.2-1.3-16.7 c-0.6-9.8-0.7-19.5,1.6-29.1c1.7-6.9,4.2-13.4,8.8-19c0.6-0.7,1.3-1.3,2.4-1.6c-0.3,0.8-0.6,1.7-0.9,2.5 c-2.5,6.2-3.6,12.6-3.7,19.2c-0.2,8.4,1,16.6,2.4,24.8c1.5,8.7,3.2,17.3,3.9,26.1c0.8,9.8-0.1,19.5-3.3,28.8 c-4,11.4-11.2,20-22.2,25.2c-4.2,2-8.5,3.6-12.8,5.4c-2.8,1.2-5.7,2.2-8.4,3.6c-12,6.1-18,16.3-19.2,29.5c-0.1,1-0.1,1.9-0.1,2.9 C1057.1,1331.7,1057.1,1332.7,1057.1,1333.6z">
                            </path>
                            <path
                                d="M1089.7,1314.8c2.4-5.7,6.7-9.6,11.8-12.8c5.6-3.5,11.8-5.8,18.3-6.9c5-0.9,10.1-1.4,15.2-2c6-0.7,12.1-1.2,18.1-2 c2.2-0.3,4.4-0.8,6.6-1.4c11-2.9,19-9.6,24.1-19.7c3.9-7.6,5.5-15.6,5.4-24.1c-0.1-9.8-2.5-19-6.8-27.7c-2.5-5-6-9.1-10.7-12 c-3-1.8-6.1-3.4-9.2-5.2c-3.6-2.1-7.2-4.1-10.7-6.4c-4.3-2.8-7.9-6.5-10.9-10.7c-0.4-0.5-0.6-1.1-0.9-1.7c0-0.1,0.1-0.2,0.4-0.7 c0.7,0.5,1.5,1,2.1,1.6c5,4.4,10.7,7.6,16.8,10c4,1.6,8,3.1,12.1,4.7c9.3,3.5,16,9.7,20.6,18.4c8.5,16.2,10.9,33,5.4,50.6 c-1.1,3.5-2.6,6.9-4.4,10.1c-7.8,14-19.9,21.7-35.7,23.8c-5.7,0.8-11.5,0.9-17.2,0.9c-5.6,0-11.2-0.1-16.8,0.1 c-5.6,0.1-11.1,1.2-16.5,2.9c-5.7,1.8-10.9,4.6-15,9.1c-0.6,0.7-1.1,1.7-2.3,1.1L1089.7,1314.8z">
                            </path>
                            <path
                                d="M715,1326.3c0.8-1.3,1.5-2.7,2.4-3.9c5.1-7.6,11.3-14.3,18.1-20.4c7.9-7,16.5-13.1,25.5-18.6c11.9-7.3,24.3-13.6,37-19.2 c13.9-6.2,27.8-12.1,41.7-18.4c9.2-4.2,18.2-8.6,27.1-13.3c5.8-3.1,11.2-6.8,16.6-10.5c6.3-4.4,11.8-9.8,16.6-15.8 c0.5-0.6,1-1.2,1.5-1.8c0.1-0.1,0.3-0.1,0.5-0.2c0.6,1-0.1,1.7-0.5,2.5c-3.6,7.6-8.7,14.1-14.6,20c-5.9,5.9-12.5,10.9-19.5,15.5 c-11.3,7.4-23.1,13.6-35.3,19.2c-15.7,7.2-31.5,14.1-47.2,21.3c-11.6,5.3-23.1,10.9-34.1,17.5c-12.1,7.2-23.6,15.4-33.6,25.4 c-0.5,0.5-1.1,0.9-1.7,1.3C715.3,1326.6,715.1,1326.4,715,1326.3z">
                            </path>
                            <path
                                d="M437.3,1563c-1.3,1.8-3,2.7-4.6,3.7c-8.5,5.4-18,8.2-27.9,9.5c-13.1,1.8-26.2,0.8-39.1-1.5c-11.3-2-22.6-4.5-33.8-6.7 c-7.7-1.5-15.4-2.6-23.3-3.2c-10.8-0.8-21.4,0.6-31.8,3c-4,0.9-8.1,1.7-12.3,2.2c-6.6,0.9-13.1,0.6-19.4-1.7 c-3.5-1.2-6.7-2.9-9.3-5.8c0.4-0.2,0.8-0.4,0.9-0.3c7.8,3.9,16,4.1,24.3,2c4.5-1.1,8.9-2.6,13.3-4c7.4-2.5,14.9-4.6,22.8-5.5 c7-0.7,14-0.7,21.1-0.1c12.4,1.1,24.6,3.9,36.7,6.6c9.2,2.1,18.4,4.1,27.7,5.8c10.4,1.9,20.9,2.4,31.5,1.5 c6.7-0.6,13.2-2.1,19.5-4.7c0.9-0.4,1.8-0.6,2.7-0.9C436.4,1562.8,436.6,1562.9,437.3,1563z">
                            </path>
                            <path
                                d="M212.2,1237c0.9,0.3,1.2,0.4,1.4,0.6c8.8,6.6,18.7,7.6,29.2,5.9c5.9-0.9,11.5-2.8,17-4.8c7.5-2.7,14.9-5.7,22.7-7.6 c32.1-7.6,62.5-3.3,90.9,13.8c5.7,3.5,11,7.6,16.2,12.7c-1.8,0.2-2.8-0.6-3.8-1.1c-9.3-4.7-18.9-8.6-28.9-11.6 c-18.3-5.4-37-7.1-56-5.5c-8.9,0.7-17.7,2.6-26.3,5.1c-7.7,2.2-15.3,4.6-23.2,5.8c-8.1,1.2-16.3,1.2-24.2-1.6 c-5.4-1.9-10.1-4.7-13.8-9.2c-0.3-0.4-0.6-0.8-0.8-1.2C212.6,1238.1,212.5,1237.8,212.2,1237z">
                            </path>
                            <path
                                d="M389.2,1287c-0.1,7.2-5.4,11.5-12.2,10.2c-4-0.8-7.5-2.7-10.7-5.2c-1.9-1.5-3.6-3.1-5.5-4.6c-1.6-1.3-3.3-2.5-5.1-3.6 c-5-3.1-10.2-3.4-15.5-0.5c-2.4,1.3-4.6,2.9-6.9,4.3c-2.2,1.3-4.4,2.5-6.7,3.6c-2.4,1.1-4.9,1.3-7.5,0.9c-5.4-0.7-8-5.1-5.9-10.2 c1.1-2.6,2.9-4.6,5-6.3c3.7-3.1,8-5.2,12.6-6.7c5.5-1.8,11.2-2.5,17-2.6c8.5-0.1,16.9,1.1,25,3.8c3.6,1.2,7.1,2.8,10.2,5.2 c3.2,2.6,5.5,5.8,6,10C389.1,1286.1,389.1,1286.8,389.2,1287z">
                            </path>
                            <path
                                d="M409.1,1618.9c-15.5-1.2-30.3-2.4-45.1-3.6c-14.7-1.2-29.4-1.2-44-0.7c-14.8,0.4-29.6,1.3-44.4,2c-0.5-1.3,0.6-1.4,1.2-1.7 c8.1-3.5,16.4-6.1,25-8c16-3.6,32.2-4.7,48.5-3.6c18.3,1.2,36,4.9,52.9,12.3C405,1616.4,407,1617,409.1,1618.9z">
                            </path>
                            <path
                                d="M422,1309.6c1.2-1,2.5-1.9,3.7-2.9c11.1-8.9,18.8-20,21.6-34.1c1.9-9.5,0.9-18.8-2.7-27.8c-3.7-9.4-9.6-17.3-17.3-23.8 c-1.2-1-2.4-2-3.6-3c0.6-1.2,1.5-0.7,2.1-0.6c6.3,1.7,11.9,4.7,16.7,9c24.4,21.5,22.3,58.2-3.4,77c-4,2.9-8.5,5.1-13.3,6.4 c-1.2,0.3-2.4,0.4-3.7,0.6C422.2,1310.1,422.1,1309.8,422,1309.6z">
                            </path>
                            <path
                                d="M281,1399.9c1-12.5,2.5-24.9,1.8-37.3c-0.7-12.3-2.8-24.4-5.8-37.2c1.4,0.9,2.1,1.2,2.6,1.7c2.7,2.5,5,5.4,6.8,8.6 c9.8,17.5,10.6,35.5,2.4,53.8C287,1393.5,284.6,1397.1,281,1399.9z">
                            </path>
                            <path
                                d="M314,1359.6c6.1,3.6,9.4,12.1,8.2,20.7c-1.3,8.9-6.8,16.2-13.6,17.9c-0.1-0.3-0.4-0.6-0.3-0.8c1.6-11.7,3.3-23.4,5-35 C313.4,1361.4,313.7,1360.6,314,1359.6z">
                            </path>
                            <path
                                d="M480.3,2131.2c0,0.5,0.1,1,0.1,1.6c0,0-0.1,0-0.1,0C480.2,2132.3,480.2,2131.8,480.3,2131.2 C480.2,2131.3,480.3,2131.2,480.3,2131.2z">
                            </path>
                            <path
                                d="M1230.2,1217.6c0.2,0.2,0.5,0.4,0.6,0.7c0.1,0.1-0.2,0.4-0.3,0.6c-0.1-0.1-0.2-0.2-0.2-0.3c0-0.3,0-0.6,0-0.9 C1230.3,1217.6,1230.2,1217.6,1230.2,1217.6z">
                            </path>
                            <path
                                d="M1089.5,1314.7c0,0.3,0.1,0.7,0.1,1c-0.1-0.1-0.3-0.1-0.3-0.2c0.1-0.3,0.2-0.5,0.3-0.8 C1089.7,1314.8,1089.5,1314.7,1089.5,1314.7z">
                            </path>
                            <path
                                d="M183.8,2148.5c-0.2,0.2-0.4,0.5-0.7,0.5c-0.1,0.1-0.4-0.2-0.6-0.3c0.1,0,0.2-0.1,0.4-0.1 C183.2,2148.6,183.5,2148.7,183.8,2148.5C183.8,2148.6,183.8,2148.5,183.8,2148.5z">
                            </path>
                            <path
                                d="M362.6,661.4c0.4,0.1,0.7,0.3,1.1,0.4c-0.7,0.5-0.9,0.2-1-0.5C362.7,661.3,362.6,661.4,362.6,661.4z">
                            </path>
                            <path
                                d="M268.4,754.2c0.3-0.1,0.5-0.2,0.8-0.3C268.9,754,268.6,754.1,268.4,754.2C268.3,754.1,268.4,754.2,268.4,754.2z">
                            </path>
                        </g>
                    </svg>