<?xml version="1.0"?>
<svg xmlns:rdf="http://www.w3.org/1999/02/22-rdf-syntax-ns#" xmlns="http://www.w3.org/2000/svg" xmlns:cc="http://web.resource.org/cc/" xmlns:xlink="http://www.w3.org/1999/xlink" xmlns:dc="http://purl.org/dc/elements/1.1/" xmlns:svg="http://www.w3.org/2000/svg" id="svg2" viewBox="0 0 298.934 493.892" version="1.0">
  <g id="g5129" fill-rule="evenodd">
    <path id="path15" stroke="#000" stroke-width=".036" stroke-miterlimit="10" d="m10.512 464.75c-0.648 3.53-0.9 6.87-0.9 10.19-0.036 3.27-1.08 6.55 0.9 9.28 1.872 2.6 5.184 4.76 10.908 6.34 5.688 1.48 16.308 2.66 23.112 2.74 6.732 0 12.42-0.83 17.208-2.49h187.02c3.13 1.3 6.77 2.2 10.91 2.7 4.1 0.4 8.21 0.58 13.82 0 5.62-0.72 15.3-1.22 19.48-3.85 3.92-2.74 3.81-7.16 4.53-12.02s0.65-10.48-0.21-17h-282.46c-1.438 1.37-2.878 2.74-4.318 4.11z"/>
    <path id="path17" stroke="#000" stroke-width=".036" stroke-miterlimit="10" d="m146.95 4.919c-11.48-0.036-22.17 1.152-32.72 3.636-10.55 2.52-19.838 5.976-29.918 11.196-10.152 5.22-20.772 11.448-30.24 19.872-9.432 8.424-18.972 18.432-25.992 30.204s-12.492 26.46-15.66 39.713c-3.168 13.24-2.628 28.04-3.096 39.16-0.468 11.09-0.36 19.88 0.288 26.86v267.3h280.01v-267.3c0.65-6.98 0.29-26.86 0.29-26.86s0.03-25.92-3.1-39.16c-3.17-13.253-8.68-27.941-15.66-39.713-7.02-11.772-16.56-21.78-26.03-30.204-9.43-8.424-20.08-14.652-30.2-19.872s-19.4-8.676-29.92-11.196c-10.54-2.484-21.27-3.672-32.72-3.636h-5.33z"/>
    <path id="path19" d="m146.88 6.323c-11.38-0.036-22 1.152-32.44 3.636s-19.617 5.94-29.661 11.124c-10.008 5.184-20.556 11.376-29.916 19.764-9.396 8.388-18.828 18.36-25.812 30.06-6.912 11.7-12.384 26.316-15.516 39.533-3.096 13.17-2.556 27.93-3.06 38.98-0.432 11.02-0.36 19.77 0.288 26.72v266h277.53c-1.37-88.6-0.04-177.44 0-266 0.61-6.95 0.72-15.7 0.25-26.72-0.47-11.05 0.07-25.81-3.02-38.98-3.17-13.216-8.61-27.832-15.56-39.532-6.94-11.7-16.41-21.672-25.77-30.06s-19.91-14.58-29.95-19.764c-10.01-5.184-19.23-8.64-29.67-11.124s-21.06-3.672-32.44-3.636h-5.25v-0.001z" fill="#fff"/>
    <path id="path21" stroke="#000" stroke-width=".036" stroke-miterlimit="10" d="m147.2 24.503c-10.08-0.036-19.47 1.08-28.69 3.456-9.25 2.376-17.39 5.652-26.242 10.62-8.892 4.968-18.18 10.908-26.496 18.864-8.28 8.028-16.632 17.568-22.788 28.728s-10.98 25.129-13.752 37.769c-2.736 12.56-2.268 26.64-2.7 37.18-0.396 10.55-0.324 18.9 0.252 25.53v254.01h245.49s-0.04-169.34 0-254.01c0.54-6.63 0.65-14.98 0.21-25.53-0.39-10.54 0.08-24.62-2.7-37.18-2.77-12.64-7.59-26.609-13.71-37.769-6.16-11.16-14.55-20.7-22.83-28.728-8.28-7.956-17.6-13.896-26.46-18.864-8.85-4.968-17.02-8.244-26.24-10.62-9.25-2.376-18.65-3.492-28.69-3.456h-4.65z"/>
    <path id="path23" d="m147.24 26.447c-9.9-0.036-19.15 1.08-28.26 3.42-9.07 2.376-17.1 5.652-25.812 10.548-8.712 4.932-17.892 10.8-26.064 18.72-8.136 7.956-16.38 17.424-22.428 28.512s-10.8 24.913-13.536 37.443c-2.7 12.49-2.232 26.42-2.628 36.9-0.432 10.44-0.324 18.75 0.216 25.31v251.96h241.56v-251.96c0.57-6.56 0.65-14.87 0.25-25.31-0.43-10.48 0.04-24.41-2.66-36.9-2.74-12.53-7.46-26.355-13.5-37.443-6.05-11.088-14.3-20.556-22.47-28.512-8.13-7.92-17.31-13.788-26.03-18.72-8.74-4.896-16.73-8.172-25.84-10.548-9.08-2.34-18.33-3.456-28.23-3.42h-4.57z" fill="#fff"/>
    <path id="path25" stroke="#000" stroke-width=".036" stroke-miterlimit="10" d="m147.56 45.671c-8.42-0.036-16.3 1.152-24.04 3.564-7.74 2.448-18.69 5.22-26.105 10.296-7.452 5.112-15.48 11.988-22.428 20.231-6.948 8.244-13.356 17.316-18.504 28.798-5.148 11.52-7.164 26.32-9.468 39.28-2.34 12.96-0.288 27.61-0.648 38.45-0.36 10.83-0.288 19.44 0.216 26.28v261.39h205.89v-261.39c0.47-6.84 0.54-15.45 0.21-26.28-0.36-10.84 1.23-26.61-1.08-39.57-2.34-12.99-3.67-26.42-8.78-37.9-5.19-11.525-14.11-22.181-21.06-30.425s-13.82-13.752-21.28-18.864c-7.41-5.076-17.2-7.848-24.94-10.296-7.74-2.412-15.63-3.6-24.05-3.564h-3.93z"/>
    <path id="path27" d="m147.6 48.155c-8.28-0.036-16.02 1.116-23.62 3.6-7.59 2.448-15.12 3.528-22.42 8.676-7.312 5.148-16.06 10.62-22.9 18.936-6.804 8.316-15.264 20.016-20.34 31.613-5.04 11.59-7.164 27.79-9.468 40.86-2.268 13.06-0.18 27.14-0.54 38.08-0.324 10.91-0.252 19.59 0.216 26.46v263.56h201.99v-263.56c0.47-6.87 0.54-15.55 0.18-26.46-0.32-10.94 1.52-23.65-0.72-36.72-2.3-13.06-4.21-28.76-9.25-40.39-5.07-11.55-12.17-22.139-18.97-30.455-6.8-8.28-14.18-14.94-21.49-20.088s-17.64-8.064-25.24-10.512c-7.59-2.484-15.33-3.636-23.58-3.6h-3.85z" fill="#fff"/>
    <path id="path29" stroke="#000" stroke-width=".036" stroke-miterlimit="10" d="m149.51 52.475c-5.76 2.232-10.12 3.456-13.21 3.816-3.06 0.216-4.14-0.216-5.19-1.836-1.22-1.692-1.04-5.436-1.83-7.884-0.9-2.484-1.48-3.816-3.24-6.768-1.84-3.06-5.8-8.136-7.6-10.944-2.02-2.844-3.38-4.392-3.67-5.904-0.18-1.548 1.22-2.628 2.27-3.24 0.9-0.684 1.98-0.828 3.24-0.576-2.38-4.464-4.86-7.092-7.6-8.28-2.7-1.116-5.33 0.144-8.86 1.404-3.67 1.152-9.608 3.528-13.1 5.328-3.564 1.62-6.228 3.168-7.992 4.644-0.54-2.628-0.54-4.788-0.288-6.336 0.18-1.692 0.36-1.98 1.944-3.24 1.656-1.368 4.464-2.772 7.596-4.356 3.024-1.764 7.092-3.636 10.4-5.04 3.21-1.368 6.12-2.268 9.04-2.7 2.92-0.576 6.19-0.792 8.28-0.252 2.02 0.54 3.24 1.656 3.82 3.492 2.48-1.044 5.61-1.836 9.25-2.376 3.71-0.576 9.03-0.9 12.67-0.972 3.46-0.144 4.75-0.108 8.32 0.108 3.45 0.036 8.78 0.324 12.49 0.864 3.6 0.504 6.69 1.296 9.29 2.376 0.54-1.836 1.76-2.952 3.81-3.492 2.09-0.54 5.22-0.324 8.28 0.252 2.88 0.432 5.65 1.332 9 2.7 3.24 1.404 7.31 3.276 10.4 5.04 3.07 1.584 5.87 2.988 7.6 4.356 1.55 1.26 1.69 1.548 1.98 3.24 0.22 1.548 0.22 3.708-0.29 6.336-1.87-1.476-4.5-3.024-8.03-4.644-3.63-1.8-9.43-4.176-13.06-5.328-3.64-1.26-6.27-2.52-8.86-1.404-2.77 1.188-5.25 3.816-7.59 8.28 1.22-0.252 2.3-0.108 3.24 0.576 1 0.612 2.26 1.692 2.23 3.24-0.33 1.512-1.73 3.06-3.64 5.904-1.91 2.808-5.83 7.884-7.6 10.944-1.87 2.952-2.44 4.284-3.24 6.768-0.9 2.448-0.72 6.192-1.83 7.884-1.15 1.62-2.23 2.052-5.19 1.836-3.13-0.36-7.45-1.584-13.24-3.816z"/>
    <path id="path31" d="m148.1 51.935c-2.59 0.72-4.93 1.368-7.02 1.944-2.19 0.504-4.24 1.44-5.76 1.404-1.58-0.144-2.52-0.612-3.24-1.944-0.86-1.44-0.68-4.248-1.4-6.48-0.79-2.34-1.73-5.328-2.95-7.452-1.26-2.304-2.67-3.528-4.36-5.904-1.83-2.448-4.97-6.516-6.05-8.46s-1.08-2.7-0.43-3.384c0.54-0.828 1.8-1.296 3.78-1.404 0.72 2.052 1.66 3.6 2.41 4.788 0.76 1.116 2.52 2.7 2.38 1.98-0.36-0.9-2.59-4.86-3.78-7.02-1.15-2.196-1.76-4.212-3.1-6.048-1.58-1.944-3.42-4.428-5.5-5.076-2.16-0.684-3.68-0.18-6.88 0.972-3.28 0.9-8.604 3.24-12.384 5.076-3.924 1.8-7.308 3.672-10.548 5.76-0.396-1.8-0.396-3.348-0.144-4.5 0.108-1.224 0.108-1.512 1.548-2.664 1.512-1.188 4.32-2.916 7.164-4.356 2.664-1.476 6.084-3.204 8.894-4.356 2.73-1.296 4.89-2.196 7.45-2.844 2.45-0.72 5.44-1.044 7.45-1.116 1.84-0.036 3.06 0.108 4.07 0.576 1.01 0.288 0.97 0.252 1.98 1.404 0.94 1.08 2.2 3.096 3.49 5.076 1.15 1.979 2.23 4.176 3.53 6.444 1.22 2.196 2.63 4.356 4.07 6.624 2.88-0.972 5.36-1.44 7.45-1.548 2.05-0.18 4.07 0 4.93 0.828 0.83 0.864 0.79 2.376-0.39 4.104-1.48 1.656-6.2 3.528-7.74 5.472-1.62 1.8-1.44 3.348-1.41 5.616-0.03 2.124 0.25 5.76 1.41 7.452 1.08 1.584 3.13 2.016 5.04 2.268 1.87 0.108 3.88-0.216 6.19-1.26h2.55c2.27 1.044 4.29 1.368 6.2 1.26 1.83-0.252 3.88-0.684 5.04-2.268 1.04-1.692 1.33-5.328 1.4-7.452-0.07-2.269 0.11-3.816-1.4-5.616-1.62-1.944-6.38-3.816-7.74-5.472-1.3-1.728-1.3-3.24-0.4-4.104 0.79-0.828 2.7-1.008 4.9-0.828 2.01 0.108 4.5 0.576 7.45 1.548 1.44-2.268 2.81-4.428 4.1-6.624 1.26-2.268 2.2-4.464 3.49-6.444 1.16-1.98 2.56-3.996 3.53-5.076 0.9-1.152 0.87-1.116 1.98-1.404 0.9-0.468 2.16-0.612 4.07-0.576 1.91 0.072 4.9 0.396 7.45 1.116 2.41 0.648 4.72 1.548 7.45 2.844 2.77 1.152 6.05 2.88 8.86 4.356 2.7 1.44 5.65 3.168 7.2 4.356 1.37 1.152 1.33 1.44 1.55 2.664 0.21 1.152 0.21 2.7-0.15 4.5-3.27-2.088-6.66-3.96-10.55-5.76-3.89-1.836-9.18-4.176-12.38-5.076-3.24-1.152-4.9-1.656-6.91-0.972-2.16 0.648-4.03 3.132-5.48 5.076-1.44 1.836-2.01 3.852-3.09 6.048-1.3 2.16-3.53 6.12-3.78 7.02-0.25 0.72 1.51-0.864 2.37-1.98 0.76-1.188 1.55-2.736 2.38-4.788 2.02 0.108 3.24 0.576 3.82 1.404 0.54 0.684 0.54 1.44-0.44 3.384-1.18 1.944-4.32 6.012-6.04 8.46-1.8 2.376-3.21 3.6-4.36 5.904-1.26 2.124-2.2 5.112-2.95 7.452-0.83 2.232-0.65 5.04-1.41 6.48-0.82 1.332-1.76 1.8-3.23 1.944-1.63 0.036-3.64-0.9-5.77-1.404-2.08-0.576-4.57-1.224-7.05-1.944h-2.81z" stroke="#000" stroke-miterlimit="10" stroke-width=".036" fill="#fff"/>
    <path id="path33" d="m90.72 11.111c2.664-1.764 9.252-5.256 13.36-6.732 4.06-1.584 7.59-2.34 10.44-2.412 2.62-0.216 3.52-0.072 5.47 1.692 1.83 1.8 5.79 7.992 6.05 8.856 0.21 0.612-2.96-3.06-4.65-4.212-1.83-1.296-3.02-2.556-6.05-2.52-3.16 0.072-7.84 1.656-12.38 3.24-4.716 1.512-12.6 5.328-14.76 5.76-2.088 0.252-0.18-1.944 2.52-3.672z"/>
    <path id="path35" d="m121.25 13.667c-0.43-0.072 2.27 4.212 3.81 7.02 1.48 2.592 3.06 7.992 5.33 9 2.27 0.9 6.01-1.98 8.17-3.096 1.98-1.152 4.86-3.348 3.93-3.384-1.19-0.108-7.38 3.24-9.97 2.952-2.56-0.36-3.6-3.06-5.37-5.04-1.94-2.196-5.58-7.416-5.9-7.452z"/>
    <path id="path37" d="m133.63 46.715c-0.68-0.144-0.07 2.232 0.58 3.24 0.43 0.936 0.86 2.52 2.81 2.52 2.01-0.108 8.67-2.34 9-2.664 0.03-0.468-5.84 1.116-7.89 0.576-2.05-0.612-3.92-3.6-4.5-3.672z"/>
    <path id="path39" d="m208.62 11.111c-2.74-1.764-9.36-5.256-13.36-6.732-4.14-1.584-7.7-2.34-10.4-2.412-2.74-0.216-3.6-0.072-5.51 1.692-1.94 1.8-5.9 7.992-6.05 8.856-0.32 0.612 2.85-3.06 4.65-4.212 1.73-1.296 2.91-2.556 6.05-2.52 3.09 0.072 7.74 1.656 12.38 3.24 4.64 1.512 12.53 5.328 14.76 5.76 2.02 0.252 0.07-1.944-2.52-3.672z"/>
    <path id="path41" d="m178.09 13.667c0.29-0.072-2.27 4.212-3.78 7.02-1.55 2.592-3.2 7.992-5.36 9-2.38 0.9-6.12-1.98-8.17-3.096-2.09-1.152-4.97-3.348-3.93-3.384 1.08-0.108 7.27 3.24 9.97 2.952 2.49-0.36 3.5-3.06 5.37-5.04 1.83-2.196 5.47-7.416 5.9-7.452z"/>
    <path id="path43" d="m165.71 46.715c0.54-0.144 0.03 2.232-0.54 3.24-0.54 0.936-0.94 2.52-2.85 2.52-2.08-0.108-8.78-2.34-9-2.664-0.14-0.468 5.73 1.116 7.89 0.576 1.98-0.612 3.85-3.6 4.5-3.672z"/>
    <path id="path45" d="m148.68 1.715c-3.1 0-6.19 0.036-9.43 0.396-3.35 0.324-7.45 0.792-9.83 1.404-2.38 0.432-3.92 0.9-4.5 1.404l3.2 4.788c0.94 1.872 1.84 3.744 2.7 5.22 0.8 1.44 1.59 2.88 2.24 3.924 3.27-0.972 6.04-1.44 8.46-1.404 2.37-0.108 4.57 0.36 5.61 1.548 0.9 1.116 1.08 3.6-0.14 5.508-1.37 1.836-6.27 4.032-7.74 5.76-1.59 1.656-1.41 2.412-1.41 4.356-0.14 1.944-0.18 5.4 0.72 7.02 0.83 1.404 2.88 1.548 4.5 1.692 1.55 0.072 3.14-0.252 4.9-0.972h2.12c1.7 0.72 3.39 1.044 4.94 0.972 1.54-0.144 3.56-0.288 4.5-1.692 0.86-1.62 0.72-5.076 0.68-7.02-0.22-1.944 0.11-2.7-1.4-4.356-1.59-1.728-6.48-3.924-7.74-5.76-1.3-1.908-1.16-4.392-0.15-5.508 1.01-1.188 3.17-1.656 5.66-1.548 2.41-0.036 5.03 0.432 8.42 1.404 0.68-1.044 1.44-2.484 2.27-3.924 0.75-1.476 1.69-3.348 2.66-5.22l3.24-4.788c-0.61-0.504-2.16-0.972-4.5-1.404-2.56-0.612-6.59-1.08-9.86-1.404-3.28-0.36-6.37-0.396-9.43-0.396h-0.69z" stroke="#000" stroke-miterlimit="10" stroke-width=".036" fill="#fff"/>
    <path id="path47" stroke="#000" stroke-width=".036" stroke-miterlimit="10" d="m71.784 157.96h158.94v37.4h-158.94l0.004-37.4z"/>
    <path id="path49" d="m78.083 161.34h25.237v4.9h-25.237v-4.9z" stroke="#000" stroke-miterlimit="10" stroke-width=".036" fill="#fff"/>
    <path id="path51" d="m109.04 161.34h25.24v4.9h-25.24v-4.9z" stroke="#000" stroke-miterlimit="10" stroke-width=".036" fill="#fff"/>
    <path id="path53" d="m78.083 167.82h25.237v4.9h-25.237v-4.9z" stroke="#000" stroke-miterlimit="10" stroke-width=".036" fill="#fff"/>
    <path id="path55" d="m109.04 167.82h25.24v4.9h-25.24v-4.9z" stroke="#000" stroke-miterlimit="10" stroke-width=".036" fill="#fff"/>
    <path id="path57" d="m78.083 174.3h25.237v4.9h-25.237v-4.9z" stroke="#000" stroke-miterlimit="10" stroke-width=".036" fill="#fff"/>
    <path id="path59" d="m109.04 174.3h25.24v4.9h-25.24v-4.9z" stroke="#000" stroke-miterlimit="10" stroke-width=".036" fill="#fff"/>
    <path id="path61" d="m78.083 180.78h25.237v4.9h-25.237v-4.9z" stroke="#000" stroke-miterlimit="10" stroke-width=".036" fill="#fff"/>
    <path id="path63" d="m109.04 180.78h25.24v4.9h-25.24v-4.9z" stroke="#000" stroke-miterlimit="10" stroke-width=".036" fill="#fff"/>
    <path id="path65" d="m78.083 187.26h25.237v4.9h-25.237v-4.9z" stroke="#000" stroke-miterlimit="10" stroke-width=".036" fill="#fff"/>
    <path id="path67" d="m109.04 187.26h25.24v4.9h-25.24v-4.9z" stroke="#000" stroke-miterlimit="10" stroke-width=".036" fill="#fff"/>
    <path id="path69" d="m104.69 161.12h2.55v30.93h-2.55v-30.93z" stroke="#000" stroke-miterlimit="10" stroke-width=".036" fill="#fff"/>
    <path id="path71" d="m163.58 161.34h25.2v4.9h-25.2v-4.9z" stroke="#000" stroke-miterlimit="10" stroke-width=".036" fill="#fff"/>
    <path id="path73" d="m194.54 161.34h25.2v4.9h-25.2v-4.9z" stroke="#000" stroke-miterlimit="10" stroke-width=".036" fill="#fff"/>
    <path id="path75" d="m163.58 167.82h25.2v4.9h-25.2v-4.9z" stroke="#000" stroke-miterlimit="10" stroke-width=".036" fill="#fff"/>
    <path id="path77" d="m194.54 167.82h25.2v4.9h-25.2v-4.9z" stroke="#000" stroke-miterlimit="10" stroke-width=".036" fill="#fff"/>
    <path id="path79" d="m163.58 174.3h25.2v4.9h-25.2v-4.9z" stroke="#000" stroke-miterlimit="10" stroke-width=".036" fill="#fff"/>
    <path id="path81" d="m194.54 174.3h25.2v4.9h-25.2v-4.9z" stroke="#000" stroke-miterlimit="10" stroke-width=".036" fill="#fff"/>
    <path id="path83" d="m163.58 180.78h25.2v4.9h-25.2v-4.9z" stroke="#000" stroke-miterlimit="10" stroke-width=".036" fill="#fff"/>
    <path id="path85" d="m194.54 180.78h25.2v4.9h-25.2v-4.9z" stroke="#000" stroke-miterlimit="10" stroke-width=".036" fill="#fff"/>
    <path id="path87" d="m163.58 187.26h25.2v4.9h-25.2v-4.9z" stroke="#000" stroke-miterlimit="10" stroke-width=".036" fill="#fff"/>
    <path id="path89" d="m194.54 187.26h25.2v4.9h-25.2v-4.9z" stroke="#000" stroke-miterlimit="10" stroke-width=".036" fill="#fff"/>
    <path id="path91" d="m190.15 161.12h2.56v30.93h-2.56v-30.93z" stroke="#000" stroke-miterlimit="10" stroke-width=".036" fill="#fff"/>
    <path id="path93" stroke="#000" stroke-width=".036" stroke-miterlimit="10" d="m148.72 152.63h-8.5c-2.11 0-3.82 1.61-3.82 3.6v46.37c0 1.98 1.71 3.6 3.82 3.6h16.99c2.11 0 3.82-1.62 3.82-3.6v-46.37c0-1.99-1.71-3.6-3.82-3.6h-8.49z"/>
    <path id="path95" d="m148.7 153.35h-7.9c-1.97 0-3.57 1.56-3.57 3.49v45.11c0 1.93 1.6 3.49 3.57 3.49h15.8c1.97 0 3.56-1.56 3.56-3.49v-45.11c0-1.93-1.59-3.49-3.56-3.49h-7.9z" fill="#fff"/>
    <path id="path97" stroke="#000" stroke-width=".036" stroke-miterlimit="10" d="m149.45 154.14h-5.7c-1.41 0-2.56 1.29-2.56 2.88v37.04c0 1.59 1.15 2.88 2.56 2.88h11.41c1.41 0 2.56-1.29 2.56-2.88v-37.04c0-1.59-1.15-2.88-2.56-2.88h-5.71z"/>
    <path id="path99" d="m145.6 155.4h-1.35c-0.79 0-1.44 0.64-1.44 1.44v2.99c0 0.79 0.65 1.44 1.44 1.44h2.7c0.8 0 1.44-0.65 1.44-1.44v-2.99c0-0.8-0.64-1.44-1.44-1.44h-1.35z" stroke="#000" stroke-miterlimit="10" stroke-width=".036" fill="#fff"/>
    <path id="path101" d="m152.91 155.47h-1.35c-0.8 0-1.44 0.65-1.44 1.44v2.99c0 0.79 0.64 1.44 1.44 1.44h2.7c0.79 0 1.44-0.65 1.44-1.44v-2.99c0-0.79-0.65-1.44-1.44-1.44h-1.35z" stroke="#000" stroke-miterlimit="10" stroke-width=".036" fill="#fff"/>
    <path id="path103" d="m145.6 162.6h-1.35c-0.79 0-1.44 0.64-1.44 1.44v2.99c0 0.79 0.65 1.44 1.44 1.44h2.7c0.8 0 1.44-0.65 1.44-1.44v-2.99c0-0.8-0.64-1.44-1.44-1.44h-1.35z" stroke="#000" stroke-miterlimit="10" stroke-width=".036" fill="#fff"/>
    <path id="path105" d="m152.91 162.67h-1.35c-0.8 0-1.44 0.65-1.44 1.44v3.03c0 0.79 0.64 1.44 1.44 1.44h2.7c0.79 0 1.44-0.65 1.44-1.44v-3.03c0-0.79-0.65-1.44-1.44-1.44h-1.35z" stroke="#000" stroke-miterlimit="10" stroke-width=".036" fill="#fff"/>
    <path id="path107" d="m145.6 169.51h-1.35c-0.79 0-1.44 0.65-1.44 1.44v3.03c0 0.79 0.65 1.44 1.44 1.44h2.7c0.8 0 1.44-0.65 1.44-1.44v-3.03c0-0.79-0.64-1.44-1.44-1.44h-1.35z" stroke="#000" stroke-miterlimit="10" stroke-width=".036" fill="#fff"/>
    <path id="path109" d="m152.91 169.58h-1.35c-0.8 0-1.44 0.65-1.44 1.44v3.03c0 0.79 0.64 1.44 1.44 1.44h2.7c0.79 0 1.44-0.65 1.44-1.44v-3.03c0-0.79-0.65-1.44-1.44-1.44h-1.35z" stroke="#000" stroke-miterlimit="10" stroke-width=".036" fill="#fff"/>
    <path id="path111" d="m145.6 176.53h-1.35c-0.79 0-1.44 0.65-1.44 1.44v3.03c0 0.79 0.65 1.44 1.44 1.44h2.7c0.8 0 1.44-0.65 1.44-1.44v-3.03c0-0.79-0.64-1.44-1.44-1.44h-1.35z" stroke="#000" stroke-miterlimit="10" stroke-width=".036" fill="#fff"/>
    <path id="path113" d="m152.91 176.6h-1.35c-0.8 0-1.44 0.65-1.44 1.44v3.03c0 0.79 0.64 1.44 1.44 1.44h2.7c0.79 0 1.44-0.65 1.44-1.44v-3.03c0-0.79-0.65-1.44-1.44-1.44h-1.35z" stroke="#000" stroke-miterlimit="10" stroke-width=".036" fill="#fff"/>
    <path id="path115" d="m145.6 183.19h-1.35c-0.79 0-1.44 0.65-1.44 1.44v2.99c0 0.79 0.65 1.44 1.44 1.44h2.7c0.8 0 1.44-0.65 1.44-1.44v-2.99c0-0.79-0.64-1.44-1.44-1.44h-1.35z" stroke="#000" stroke-miterlimit="10" stroke-width=".036" fill="#fff"/>
    <path id="path117" d="m152.91 183.26h-1.35c-0.8 0-1.44 0.65-1.44 1.44v2.99c0 0.8 0.64 1.44 1.44 1.44h2.7c0.79 0 1.44-0.64 1.44-1.44v-2.99c0-0.79-0.65-1.44-1.44-1.44h-1.35z" stroke="#000" stroke-miterlimit="10" stroke-width=".036" fill="#fff"/>
    <path id="path119" d="m145.6 189.82h-1.35c-0.79 0-1.44 0.64-1.44 1.44v3.02c0 0.79 0.65 1.44 1.44 1.44h2.7c0.8 0 1.44-0.65 1.44-1.44v-3.02c0-0.8-0.64-1.44-1.44-1.44h-1.35z" stroke="#000" stroke-miterlimit="10" stroke-width=".036" fill="#fff"/>
    <path id="path121" d="m152.91 189.89h-1.35c-0.8 0-1.44 0.64-1.44 1.44v3.02c0 0.8 0.64 1.44 1.44 1.44h2.7c0.79 0 1.44-0.64 1.44-1.44v-3.02c0-0.8-0.65-1.44-1.44-1.44h-1.35z" stroke="#000" stroke-miterlimit="10" stroke-width=".036" fill="#fff"/>
    <path id="path123" d="m138.74 189.92c-0.28-0.39-0.28 5.19 0 7.31 0.04 2.02 0.22 3.85 0.83 4.93 0.54 1.05 0.97 0.9 2.85 1.23 1.72 0.25 7.92 0.36 8.17 0.18 0.21-0.33-4.93-1.23-6.55-1.87-1.66-0.69-2.49-0.44-3.32-2.31-0.82-2.05-1.76-9.14-1.98-9.47z"/>
    <path id="path125" d="m153.9 203.5c0.11 0.32 1.98 0.1 2.84-0.11 0.58-0.29 0.98-0.83 1.34-1.62 0.28-1.01 1-3.46 0.75-3.6-0.39-0.07-1.51 2.12-2.37 3.13-0.83 0.83-2.7 1.84-2.56 2.2z"/>
    <path id="path127" stroke="#000" stroke-width=".036" stroke-miterlimit="10" d="m10.583 146.72c-1.8-0.07-3.168 0.26-4.5 0.98-1.404 0.64-2.556 1.62-3.168 3.34-0.684 1.73-1.476 5.01-0.576 6.92 0.936 1.69 2.772 2.91 5.904 3.52l-0.216 5.91c-3.636-0.36-5.868 0.07-7.092 1.58-1.224 1.48-1.224 5.37 0 7.09 1.08 1.66 3.312 2.38 6.696 2.56v4.54c-2.664 0.21-4.248 1-5.292 2.37-0.972 1.33-1.224 4.11-0.612 5.69 0.54 1.48 0.792 2.41 3.96 3.35 3.132 0.83 8.748 1.37 14.76 1.76 5.976 0.22 14.616 0.4 21.06 0.4 6.372 0.03 11.88 0.03 16.956 0 0.072 3.27 0.72 5.72 2.34 7.49 1.584 1.62 4.536 2.73 6.912 2.77 2.196 0 5.148-0.43 6.48-2.56 1.188-2.16 0.972-5.9 1.008-10.26 0-4.61-0.72-10.98-0.792-16.34-0.072-5.4 0.216-11.13 0.18-15.37-0.18-4.32-0.036-7.6-0.972-9.83-1.044-2.2-2.844-2.88-4.716-3.17-1.944-0.43-5.148 0.18-6.696 1.01-1.62 0.75-2.772 2.05-3.168 3.74-6.516 0.22-13.032 0.33-20.088 0.18-7.02-0.18-17.172 0.29-21.852-0.97-4.787-1.3-6.911-3.53-6.516-6.7z"/>
    <path id="path129" d="m58.464 163.07l0.18-6.91c-11.484 0.18-20.592 0.18-27.756 0-7.164-0.26-11.556-0.62-14.976-1.37-3.492-0.94-4.608-2.2-5.724-3.35-1.224-1.15-1.476-2.27-1.152-3.35-1.764 0.25-2.988 0.87-3.96 1.98-0.972 1.08-1.836 2.7-1.764 4.32-0.072 1.62 0.468 3.39 1.764 4.72 1.26 1.15 2.232 1.51 6.12 2.19 3.816 0.54 9.252 1.05 17.136 1.37 7.919 0.33 17.784 0.36 30.132 0.4z" stroke="#000" stroke-miterlimit="10" stroke-width=".036" fill="#fff"/>
    <path id="path131" d="m58.248 171.13l0.216 7.09c-8.964 0.04-17.064-0.07-24.84-0.18-7.884-0.21-16.38-0.32-21.456-0.61-5.076-0.36-6.948-0.18-8.676-0.97-1.872-0.9-2.124-2.77-2.16-3.96-0.144-1.37 0.72-2.92 1.764-3.53 0.936-0.65 2.52-0.72 4.356-0.21-1.26 0.21-0.54 0.64 2.16 1 2.628 0.4 8.568 1.05 13.788 1.37 5.148 0.15 10.979 0.22 16.92 0.22 5.796-0.04 11.772-0.11 17.928-0.22z" stroke="#000" stroke-miterlimit="10" stroke-width=".036" fill="#fff"/>
    <path id="path133" d="m58.248 187.87v7.09c-6.696 0.47-12.744 0.69-18.684 0.8-5.904 0-11.232 0-16.56-0.4-5.508-0.36-12.384-1.3-15.768-1.98-3.528-0.83-3.78-1.76-4.5-2.95-0.828-1.37-0.432-3.53 0.36-4.54 0.792-0.97 2.304-1.47 4.536-1.37-0.252 0.62 0.216 1.19 1.404 1.59 1.116 0.39 2.268 0.47 5.688 0.79 3.276 0.22 7.56 0.36 14.796 0.58 7.272 0.1 16.704 0.28 28.728 0.39z" stroke="#000" stroke-miterlimit="10" stroke-width=".036" fill="#fff"/>
    <path id="path135" d="m9.792 161.88v6.52c3.456 0.61 7.02 1.11 11.232 1.36 4.104 0.11 8.748 0.22 13.392 0.18 4.608 0.04 9.144 0.04 14.004 0v-5.68c-7.884 0.21-14.796 0.14-21.276-0.22-6.517-0.43-12.168-1.15-17.352-2.16z" stroke="#000" stroke-miterlimit="10" stroke-width=".036" fill="#fff"/>
    <path id="path137" d="m9.432 178.62c1.764 0.47 5.76 0.86 11.988 1.19 6.228 0.21 14.544 0.39 25.236 0.39v5.91c-6.336 0.14-11.808 0.25-16.956 0.18-5.148-0.11-10.188-0.25-13.572-0.58-3.384-0.43-5.616-0.86-6.696-1.58v-5.51z" stroke="#000" stroke-miterlimit="10" stroke-width=".036" fill="#fff"/>
    <path id="path139" d="m51.948 164.65v5.11h5.904v-5.11h-5.904z" stroke="#000" stroke-miterlimit="10" stroke-width=".036" fill="#fff"/>
    <path id="path141" d="m51.948 180.78v5.11h5.904v-5.11h-5.904z" stroke="#000" stroke-miterlimit="10" stroke-width=".036" fill="#fff"/>
    <path id="path143" d="m61.02 198.89c0.576 4.39 1.62 4.07 3.132 5.15 1.368 0.97 3.636 1.51 5.148 1.18 1.44-0.39 3.06-0.54 3.744-3.34 0.612-3.06-0.036-7.96 0-14.01-0.036-6.12-0.108-16.27-0.216-21.85-0.18-5.51-0.072-8.93-0.792-11.23-0.972-2.59-2.592-3.35-4.32-3.53s-4.968 0.86-6.12 2.56c-1.188 1.54-1.368 3.42-1.368 7.27-0.144 3.96 0.18 9.47 0.396 15.95 0.072 6.3-0.252 17.24 0.396 21.85z" fill="#fff"/>
    <path id="path145" d="m6.083 155c0.036 0.87 0.576 2.24 1.764 3.14 1.224 0.72 1.872 1.15 5.688 1.58 3.78 0.36 15.984 1.15 16.74 0.97 0.576-0.32-9.54-1.62-12.996-2.34-3.6-0.72-6.12-1.19-7.848-1.98-1.728-1.04-1.872-3.13-2.376-3.35-0.611-0.21-1.116 1.05-0.972 1.98z"/>
    <path id="path147" d="m3.6 172.36c0.072 0.93 0.792 2.12 2.016 2.98 1.224 0.62 2.016 0.98 5.832 1.08 3.852 0.11 16.02-0.21 16.776-0.39 0.432-0.29-9.612-0.9-13.176-1.26-3.672-0.51-6.156-0.58-7.992-1.33-1.836-0.8-2.124-2.99-2.664-3.14-0.72-0.21-0.936 1.12-0.792 2.06z"/>
    <path id="path149" d="m4.572 188.7c0.072 0.94 0.756 2.12 2.052 2.99 1.26 0.61 1.944 0.97 5.796 1.08s16.02-0.22 16.776-0.4c0.504-0.29-9.576-0.9-13.14-1.26-3.6-0.5-6.228-0.57-8.028-1.33-1.872-0.79-2.052-2.99-2.628-3.13-0.684-0.22-1.008 1.11-0.828 2.05z"/>
    <path id="path151" d="m63.396 175.67c-0.324 0.72-0.108 12.92 0.36 17.31 0.396 4.25 0.9 7.06 2.196 8.28 1.296 1.01 5.004-1 5.292-1.58 0.036-0.61-3.348 0-4.32-1.76-0.972-1.91-1.08-5.55-1.584-9.26-0.612-3.85-1.764-13.64-1.944-12.99z"/>
    <path id="path153" d="m63.576 168.76c-0.612-0.08-0.72-6.52-0.18-9.04 0.504-2.59 3.168-5.62 3.708-5.72 0.468-0.08-0.252 2.77-0.756 5.32-0.684 2.49-2.305 9.29-2.772 9.44z"/>
    <path id="path155" stroke="#000" stroke-width=".036" stroke-miterlimit="10" d="m288.43 146.47c1.69-0.07 3.21 0.25 4.54 0.97 1.29 0.65 2.48 1.62 3.17 3.35 0.61 1.73 1.4 5.01 0.57 6.91-0.97 1.7-2.81 2.92-5.9 3.53l0.21 5.91c3.53-0.36 5.84 0.07 7.06 1.58 1.12 1.48 1.12 5.36 0 7.09-1.12 1.66-3.35 2.38-6.7 2.56v4.53c2.56 0.22 4.29 1.01 5.33 2.38 1.01 1.33 1.08 4.1 0.61 5.69-0.64 1.47-0.86 2.41-3.96 3.35-3.2 0.82-8.82 1.36-14.76 1.76-6.08 0.22-14.72 0.4-21.06 0.4-6.44 0.03-11.91 0.03-16.95 0-0.07 3.27-0.87 5.72-2.38 7.48-1.73 1.62-4.53 2.74-6.87 2.78-2.34 0-5.3-0.44-6.52-2.56-1.22-2.16-1.04-5.9-0.97-10.26-0.07-4.61 0.61-10.98 0.79-16.34 0-5.4-0.4-11.13-0.22-15.38 0.15-4.32-0.03-7.59 1.01-9.82 0.97-2.2 2.74-2.88 4.72-3.17 1.83-0.43 5.04 0.18 6.69 1.01 1.59 0.75 2.74 2.05 3.17 3.74 6.44 0.22 13 0.32 20.09 0.18 6.95-0.18 17.1 0.29 21.85-0.97 4.79-1.3 6.77-3.53 6.48-6.7z"/>
    <path id="path157" d="m240.59 162.82l-0.18-6.92c11.45 0.18 20.52 0.18 27.75 0 7.1-0.25 11.49-0.61 14.98-1.36 3.38-0.94 4.54-2.2 5.69-3.35 1.11-1.15 1.51-2.27 1.19-3.35 1.73 0.25 2.95 0.86 3.96 1.98 0.9 1.08 1.76 2.7 1.76 4.32s-0.54 3.38-1.76 4.72c-1.37 1.15-2.31 1.51-6.12 2.19-3.89 0.54-9.33 1.05-17.14 1.37-7.96 0.32-17.86 0.36-30.13 0.4z" stroke="#000" stroke-miterlimit="10" stroke-width=".036" fill="#fff"/>
    <path id="path159" d="m240.77 170.88l-0.18 7.09c8.85 0.04 16.99-0.07 24.8-0.18 7.74-0.21 16.35-0.32 21.49-0.61 5.01-0.36 6.77-0.18 8.64-0.97 1.77-0.9 2.02-2.77 2.16-3.96 0.04-1.37-0.82-2.92-1.76-3.53-1.04-0.65-2.48-0.72-4.32-0.22 1.19 0.22 0.47 0.65-2.16 1.01-2.74 0.4-8.68 1.05-13.79 1.37-5.29 0.14-11.12 0.22-16.95 0.22-5.84-0.04-11.81-0.11-17.93-0.22z" stroke="#000" stroke-miterlimit="10" stroke-width=".036" fill="#fff"/>
    <path id="path161" d="m240.77 187.62v7.09c6.59 0.47 12.78 0.69 18.72 0.79 5.83 0 11.12 0 16.56-0.39 5.4-0.36 12.31-1.3 15.73-1.98 3.38-0.83 3.74-1.77 4.54-2.95 0.61-1.37 0.43-3.53-0.4-4.54-0.83-0.97-2.34-1.48-4.54-1.37 0.29 0.61-0.21 1.19-1.36 1.59-1.23 0.39-2.34 0.46-5.69 0.79-3.39 0.21-7.67 0.36-14.8 0.57-7.38 0.11-16.77 0.29-28.76 0.4z" stroke="#000" stroke-miterlimit="10" stroke-width=".036" fill="#fff"/>
    <path id="path163" d="m289.22 161.63v6.51c-3.49 0.62-7.09 1.12-11.23 1.37-4.21 0.11-8.85 0.22-13.39 0.18-4.61 0.04-9.22 0.04-13.97 0v-5.69c7.81 0.22 14.76 0.15 21.28-0.21 6.44-0.43 12.17-1.15 17.31-2.16z" stroke="#000" stroke-miterlimit="10" stroke-width=".036" fill="#fff"/>
    <path id="path165" d="m289.62 178.37c-1.87 0.47-5.83 0.86-12.02 1.19-6.27 0.21-14.62 0.39-25.2 0.39v5.91c6.26 0.14 11.77 0.25 16.95 0.18 5.04-0.11 10.12-0.26 13.57-0.58 3.35-0.43 5.58-0.86 6.7-1.58v-5.51z" stroke="#000" stroke-miterlimit="10" stroke-width=".036" fill="#fff"/>
    <path id="path167" d="m247.1 164.4v5.11h-5.94v-5.11h5.94z" stroke="#000" stroke-miterlimit="10" stroke-width=".036" fill="#fff"/>
    <path id="path169" d="m247.1 180.53v5.11h-5.94v-5.11h5.94z" stroke="#000" stroke-miterlimit="10" stroke-width=".036" fill="#fff"/>
    <path id="path171" d="m238.03 198.64c-0.65 4.39-1.8 4.06-3.17 5.14-1.4 0.98-3.7 1.52-5.11 1.19-1.55-0.39-3.17-0.54-3.74-3.35-0.72-3.06-0.07-7.95 0-14-0.07-6.12 0-16.27 0.21-21.85 0.08-5.51-0.03-8.93 0.8-11.23 0.86-2.6 2.48-3.35 4.32-3.53 1.69-0.18 4.78 0.86 6.08 2.55 1.19 1.55 1.19 3.42 1.4 7.28 0.08 3.96-0.28 9.46-0.39 15.94-0.15 6.3 0.14 17.25-0.4 21.86z" fill="#fff"/>
    <path id="path173" d="m292.97 154.75c-0.18 0.87-0.54 2.23-1.77 3.13-1.29 0.72-2.05 1.16-5.72 1.59-3.89 0.36-16.09 1.15-16.74 0.97-0.65-0.32 9.47-1.62 13-2.34 3.45-0.72 6.08-1.19 7.88-1.98 1.62-1.04 1.76-3.13 2.38-3.35 0.5-0.21 1 1.05 0.97 1.98z"/>
    <path id="path175" d="m295.45 172.1c-0.14 0.94-0.86 2.13-2.01 2.99-1.34 0.61-2.13 0.97-5.84 1.08-3.92 0.11-16.12-0.21-16.77-0.39-0.54-0.29 9.5-0.9 13.17-1.26 3.5-0.51 6.16-0.58 8-1.34 1.76-0.79 1.94-2.98 2.62-3.13 0.58-0.21 0.9 1.12 0.83 2.05z"/>
    <path id="path177" d="m294.48 188.45c-0.18 0.93-0.86 2.12-2.05 2.99-1.37 0.61-2.06 0.97-5.8 1.08-3.92 0.1-16.13-0.22-16.77-0.4-0.62-0.29 9.5-0.9 13.14-1.26 3.52-0.5 6.15-0.58 8.02-1.33 1.77-0.79 1.95-2.99 2.63-3.13 0.58-0.22 0.9 1.11 0.83 2.05z"/>
    <path id="path179" d="m235.66 175.42c0.28 0.72-0.08 12.92-0.4 17.31-0.54 4.25-0.94 7.06-2.16 8.28-1.4 1.01-5.08-1.01-5.33-1.58-0.18-0.61 3.31 0 4.36-1.77 0.9-1.9 0.97-5.54 1.58-9.25 0.51-3.85 1.66-13.64 1.95-12.99z"/>
    <path id="path181" d="m235.48 168.5c0.54-0.07 0.64-6.51 0.18-9.03-0.69-2.59-3.28-5.62-3.75-5.73-0.61-0.07 0.25 2.78 0.79 5.33 0.58 2.49 2.2 9.29 2.78 9.43z"/>
    <path id="path183" stroke="#000" stroke-width=".036" stroke-miterlimit="10" d="m147.28 59.099c-4.07 0.072-8.32 0.576-12.75 1.368-4.5 0.648-8.82 1.512-14.07 3.42-5.51 1.944-12.17 5.184-17.64 8.46-5.368 3.24-10.156 6.84-14.368 10.8-4.356 3.744-7.956 7.668-11.232 11.916-3.276 4.176-6.012 8.457-8.352 13.397-2.412 5-4.644 9.14-5.868 16.02-1.296 6.76-1.836 14.61-1.764 24.08h176.58c0.07-9.47-0.58-17.32-1.8-24.08-1.34-6.88-3.57-11.02-5.87-16.02-2.41-4.94-5.15-9.221-8.35-13.397-3.32-4.248-6.95-8.172-11.2-11.916-4.28-3.96-9.07-7.56-14.36-10.8-5.58-3.276-12.21-6.516-17.64-8.46-5.37-1.908-9.65-2.771-14.12-3.42-4.53-0.792-8.64-1.296-12.7-1.368h-4.5z"/>
    <path id="path185" d="m147.24 60.467c-3.96 0.072-8.03 0.468-12.42 1.116-4.43 0.684-9.18 2.268-14.36 3.924-5.22 1.692-8.97 3.852-14.22 6.588-5.26 2.7-8.572 5.94-12.784 9.145-4.176 3.168-7.74 6.336-10.944 9.9-3.204 3.528-6.768 8.568-9.108 12.67-2.34 4.11-6.408 11.63-7.668 17.25-1.26 5.61-1.908 13.93-1.908 13.93h171.93c-1.04-7.38-2.41-13.57-4.24-19.01-1.95-5.51-4-9.32-6.56-13.39-2.59-4.106-5.29-7.67-8.49-11.09-3.24-3.456-6.84-6.732-10.8-9.828-4.07-3.312-8.86-6.876-13.39-9.576-4.76-2.88-9.87-5.112-14.37-6.84s-8.1-2.412-12.45-3.168c-4.47-0.828-8.93-1.368-13.79-1.62h-4.43v-0.001z" stroke="#000" stroke-miterlimit="10" stroke-width=".036" fill="#fff"/>
    <path id="path187" d="m149.65 137.04h-84.652c-0.805 0-1.458 0.68-1.458 1.53v6.8c0 0.85 0.653 1.53 1.458 1.53h169.3c0.81 0 1.46-0.68 1.46-1.53v-6.8c0-0.85-0.65-1.53-1.46-1.53h-84.65z" stroke="#000" stroke-miterlimit="10" stroke-width=".036" fill="#fff"/>
    <path id="path189" stroke="#000" stroke-width=".036" stroke-miterlimit="10" d="m67.644 125.7l25.056 7.24 25.7-8.46v7.77l3.28 0.29v-8.06l29.27 8.89 25.02-9.33v8.9h3.85v-8.61l27.5 8.5 22.54-9.47 0.14-2.16h-56.19l-23.26 8.6-30.24-9.18-26.817 9.04-25.56-7.52c-0.073 1.18-0.182 2.37-0.289 3.56z"/>
    <path id="path193" d="m187.06 97.511l6.69-7.236c3.75 3.06 6.63 5.94 9.18 9.036 2.41 3.059 4.29 5.939 5.47 9.039l6.7-3.46c1.76 2.74 2.92 5.29 3.85 7.81 0.76 2.45 1.3 4.83 1.23 7.13h-19.84c-0.14-4.17-1.15-8.1-3.42-11.77-2.27-3.82-5.51-7.2-9.86-10.549z"/>
    <path id="path195" d="m194.44 98.771l-0.8 8.609-6.73 0.97 6.3 2.16 1.12 5.47 1.22-5.04 4.25-2.05-4.1-1.66-1.26-8.459z"/>
    <path id="path199" d="m117.04 94.091c-2.45-0.324-5.87-1.008-10.66-2.052-4.82-1.044-10.62-2.448-17.784-4.212 4.68-4.176 9.324-7.74 13.784-10.692 4.47-3.024 8.28-5.112 13-7.092 4.64-2.088 9.72-3.78 14.8-4.932 4.96-1.188 9.97-1.872 15.15-2.052l-0.11 6.408c2.56 0.108 4.83 0.288 7.1 0.684 2.19 0.324 4.24 0.828 6.15 1.512l-5.47 10.944c-3.46-1.116-7.06-1.476-10.94-1.368-3.96 0-8.9 1.008-12.32 2.196-3.49 1.188-6.22 3.204-8.35 5.076-2.16 1.728-3.56 3.636-4.35 5.58z"/>
    <path id="path201" stroke="#000" stroke-width=".036" stroke-miterlimit="10" d="m159.59 73.859c5.18 1.44 9.5 2.808 13.53 4.5 3.89 1.512 6.84 3.204 9.98 5.076 3.02 1.872 5.9 3.924 8.49 6.156l1.37-1.08c-3.96-3.06-7.7-5.76-11.63-7.956-3.99-2.232-8.1-4.104-11.63-5.472-3.56-1.404-6.62-2.448-9.32-2.988-0.25 0.576-0.5 1.152-0.79 1.764z"/>
    <path id="path203" stroke="#000" stroke-width=".036" stroke-miterlimit="10" d="m88.164 89.195c-1.152 0.792-2.376 1.98-3.672 3.42-1.476 1.368-2.988 3.096-4.392 5.184-1.404 2.052-2.772 4.461-3.96 7.241l22.968 4.78 25.852-8.89 6.3 4.11c4.1-2.13 7.7-3.17 11.08-3.53 3.32-0.36 6.23 0.36 8.9 1.62 2.66 1.15 4.89 3.35 6.55 5.47 1.47 2.05 2.12 4.1 2.34 6.98 0.18 2.88-0.33 6.12-1.37 10.12l2.99-1.22c1.33-3.96 1.65-7.56 1.11-10.8-0.68-3.42-2.34-6.48-4.53-8.79-2.2-2.3-5.76-4.03-8.46-4.895-2.74-0.9-4.79-1.224-7.81-0.684-3.14 0.432-6.74 1.479-10.8 3.279l-5.33-4.791c-12.57-2.844-25.17-5.724-37.766-8.604z"/>
    <path id="path205" d="m128.38 97.367l3.16 3.453c2.09-0.969 4.32-1.653 6.7-2.193 2.27-0.612 4.68-1.116 7.24-0.972 2.44 0.036 5.14 0.54 7.52 1.512 2.27 0.903 4.32 2.593 6.01 4.103 1.55 1.37 2.56 2.59 3.57 4.5 0.97 1.95 1.83 4.32 2.19 6.99 0.25 2.55 0.11 5.43-0.43 8.49l7.12-2.63c0-3.63-0.35-6.73-1.08-9.57-0.79-2.92-1.65-5.01-3.42-7.38-1.94-2.49-4.35-5.259-7.37-6.951-3.07-1.728-6.95-2.736-10.55-3.168-3.71-0.54-7.78-0.216-11.23 0.432-3.49 0.612-6.59 1.692-9.43 3.384z"/>
    <path id="path207" d="m150.7 128.04l-29.7-9.58-27.904 9.29-24.48-7.13c0.864-3.09 1.908-5.65 3.132-8.06 1.152-2.41 2.52-4.46 3.96-6.16l23.832 6.02 25.27-9.83 7.27 4.35c5.69-2.8 10.3-4.03 14.37-3.67 3.89 0.33 7.31 3.35 9.29 5.73 1.87 2.3 2.37 5.14 2.48 8.1 0.07 2.88-0.58 5.83-1.94 9l-5.58 1.94z"/>
    <path id="path209" stroke="#000" stroke-width=".036" stroke-miterlimit="10" d="m71.244 253.43c-0.036 9.75-0.036 21.31 0 35.64-0.036 14.33-0.036 35.46 0 49.25-0.072 13.64-0.576 21.63 0 31.75 0.468 10.01 0.72 19.19 3.24 27.54 2.412 8.13 6.444 14.65 11.664 21.35 5.148 6.66 12.6 13.46 19.442 18.46 6.62 4.83 13.32 8.39 21.06 10.7 7.7 2.12 17.03 2.95 25.59 2.91 8.57 0.04 17.75-0.79 25.6-2.91 7.7-2.31 14.26-5.87 21.02-10.7 6.74-5 14.19-11.8 19.44-18.46 5.12-6.7 9.15-13.22 11.67-21.35 2.41-8.36 2.66-17.53 3.24-27.54 0.47-10.12-0.04-18.11 0-31.75-0.04-13.79-0.04-34.92 0-49.25-0.04-14.33-0.04-25.89 0-35.64h-30.71c-0.04 8.03-0.04 17.82 0 29.66-0.04 11.77-0.04 29.7 0 41 0.04 11.24 0.18 18.15 0 26.43-0.29 8.31-0.76 15.59-1.98 22.93-1.33 7.24-3.49 14.08-6.19 19.95-2.85 5.68-6.41 10.43-10.69 14.25-4.5 3.57-9.94 6.19-15.2 7.89-5.32 1.58-13.03 2.01-15.73 2.41-2.73 0.36 2.63 0.36 0 0-2.77-0.4-10.65-0.83-15.73-2.41-5.15-1.7-9.75-4.04-14.22-7.56-4.57-3.71-9.32-8.18-12.31-13.94-2.95-5.79-4.43-13.35-5.54-20.59-1.26-7.38-1.73-14.65-1.98-22.93-0.29-8.28-0.15-15.19 0-26.43-0.04-11.3-0.04-29.23 0-41-0.04-11.85-0.04-21.64 0-29.67h-31.686v0.01z"/>
    <path id="path211" d="m74.484 256.34c-0.036 9.76-0.036 21.32 0 35.64-0.036 14.33-0.036 35.46 0 49.25-0.144 13.65-0.612 21.64 0 31.75 0.576 10.01 1.224 19.69 3.888 27.54 2.628 7.64 6.948 12.53 11.988 18.44 4.932 5.79 11.7 12.13 17.82 16.52 6.01 4.25 11.2 7.2 18.47 9.4 7.2 2.08 16.05 3.42 24.62 3.56 8.46 0.03 18.22-0.79 25.92-2.92 7.53-2.19 13.07-5.69 19.41-10.04 6.22-4.5 13.1-10.51 18.14-16.52 4.9-6.13 9.11-12.1 11.66-19.73 2.52-7.82 2.88-16.57 3.57-26.25 0.57-9.86-0.07-18.18 0-31.75-0.04-13.79-0.04-34.92 0-49.25-0.04-14.33-0.04-25.88 0-35.64l-24.23-0.14c-0.04 8.03-0.04 17.82 0 29.66-0.04 11.78-0.04 29.7 0 41.01 0.04 11.23 0.18 18.14 0 26.42-0.36 8.32-0.43 15.45-2.02 22.93-1.69 7.31-4.46 14.98-7.77 21.06-3.49 5.87-7.74 10.88-12.32 14.58-4.64 3.6-9.64 5.8-14.86 7.42-5.22 1.55-10.95 2.3-16.2 2.27-5.47-0.07-10.77-1.12-15.88-2.59-5.11-1.59-9.97-3.39-14.58-6.77-4.68-3.42-9.9-8.07-13.28-13.93-3.49-6.09-5.98-14.55-7.45-22.04-1.588-7.66-1.732-14.61-1.984-22.93-0.288-8.28-0.144-15.19 0-26.42-0.036-11.31-0.036-29.23 0-41.01-0.036-11.84-0.036-21.63 0-29.66l-24.912 0.14z" fill="#fff"/>
    <path id="path213" stroke="#000" stroke-width=".036" stroke-miterlimit="10" d="m179.96 259.3l-7.66 11.73 8.35 11.3 7.88-11.73-8.57-11.3zm-27.75 0l-7.67 11.73 8.35 11.3 7.89-11.73-8.57-11.3zm-27.51 0l-7.66 11.73 8.31 11.3 7.92-11.73-8.57-11.3zm67.68 23.03l-7.66 11.74 8.35 11.27 7.88-11.74-8.57-11.27zm-25.74 0l-7.66 11.74 8.35 11.27 7.92-11.74-8.61-11.27zm-28.65 0l-7.67 11.74 8.35 11.27 7.92-11.74-8.6-11.27zm-24.59 0l-7.67 11.74 8.35 11.27 7.89-11.74-8.57-11.27zm66.56 28.88l-7.66 11.73 8.35 11.27 7.88-11.73-8.57-11.27zm-28.44 0l-7.66 11.73 8.35 11.27 7.92-11.73-8.61-11.27zm-26.17-0.18l-7.67 11.73 8.36 11.27 7.92-11.73-8.61-11.27zm-9.9 22.53l6.77 11.95c-1.51-0.57-2.77-0.75-3.64-0.68-0.9 0.07-1.54 0.4-1.8 1.12-0.28-2.34-0.93-3.71-1.8-4.5-0.93-0.8-2.08-0.8-3.6 0 1.34-2.63 2.7-5.26 4.07-7.89zm23.22-0.25l-8.35 15.34c0.29 0.57 0.54 1.4 0.9 2.48 0.32 1.12 0.76 2.27 1.15 3.85 1.66-3.52 3.31-5.97 5.4-7.88 1.95-1.87 4.18-2.88 6.55-3.17-1.87-3.53-3.74-7.05-5.65-10.62zm26.43 0l8.31 15.34c-0.32 0.57-0.57 1.4-0.9 2.48-0.39 1.12-0.72 2.27-1.11 3.85-1.73-3.52-3.35-5.97-5.4-7.88-1.98-1.87-4.22-2.88-6.56-3.17 1.88-3.53 3.75-7.05 5.66-10.62zm16.02 40.39c-0.72-0.25-1.66-1.44-2.96-3.16-1.4-1.84-2.8-4.4-4.75-7.67 0.69 2.52 1.12 4.82 1.15 6.77 0 2.01-0.25 3.49-0.9 4.96 1.3-0.18 2.52-0.32 3.82-0.43 1.19-0.11 2.45-0.39 3.64-0.47zm-58.25 0c0.68-0.25 1.62-1.44 2.95-3.16 1.33-1.84 2.77-4.4 4.75-7.67-0.72 2.52-1.15 4.82-1.15 6.77-0.04 2.01 0.22 3.49 0.9 4.96-1.33-0.18-2.56-0.32-3.82-0.43-1.22-0.11-2.48-0.39-3.63-0.47zm15.12 23.69c-2.13-0.79-2.95-1.62-2.92-2.48 0.15-1.05 1.87-2.85 3.39-2.92 1.29-0.07 3.92 0.76 4.96 2.49 1.01 1.61 1.66 4.78 1.12 6.98-0.54 2.05-2.09 4.46-4.5 5.44-2.56 0.86-6.91 1.33-10.15-0.26-3.39-1.73-7.17-6.15-9.25-9.68-2.16-3.6-3.17-8.46-3.17-11.52 0-3.17 1.65-5.87 3.17-6.98 1.33-1.23 4.1-0.9 5.4 0 1.26 0.75 2.01 2.37 2.26 4.71l3.17-4.71c0.4 2.05 1.05 3.67 2.23 5.4 1.12 1.58 2.63 3.05 4.54 4.28-4.07 0.28-6.98 1.15-8.6 2.73-1.7 1.55-1.95 4.65-1.34 6.52 0.51 1.73 2.88 3.45 4.5 4.07 1.44 0.39 3.86 0.07 4.76-0.69 0.82-0.71 0.97-1.79 0.43-3.38zm-39.854-146.56l9.724 20.74-6.48 21.71 10.04 28.51-10.04 27.22s-0.33 5 1.29 8.1c1.62 3.06 2.85 4.28 5.19 4.21s4.03-2.99 4.21-4.54c0.14-1.54-2.67-0.25-3.57-1.62-0.9-1.36-0.61-3.56 0-3.88 0.62-0.33 4.07-0.47 6.05 0.79 1.95 1.22 2.13 4.21 5.62 6.66 0.57 3.38 0.25 6.62-0.97 9.72-1.26 2.98-4.9 7.52-6.48 8.75-1.8 1.04-3.32-0.8-3.57-1.62-0.25-0.83 0.51-1.91 2.27-3.24-3.82 0.25-6.3 1.11-7.45 2.59-1.15 1.47-0.9 5 0.32 6.15 1.05 1.01 3.1 1.01 6.16 0-0.58 4.04-0.15 7.82 1.29 11.34 1.37 3.42 3.75 6.66 7.13 9.72 3.39 2.96 9 6.74 12.96 8.43 3.75 1.65 6.77 2.19 10.05 1.62 3.2-0.79 7.3-4.57 9.39-5.51 1.84-0.94 0.54-0.94 2.49 0 1.98 0.94 6.08 4.72 9.39 5.51 3.17 0.57 6.19 0.03 10.05-1.62 3.85-1.69 9.46-5.47 12.96-8.43 3.38-3.06 5.61-6.3 7.09-9.72 1.37-3.52 1.8-7.3 1.29-11.34 2.99 1.01 5.04 1.01 6.16 0 1.12-1.15 1.37-4.68 0.32-6.15-1.22-1.48-3.7-2.34-7.45-2.59 1.69 1.33 2.45 2.41 2.27 3.24-0.36 0.82-1.87 2.66-3.56 1.62-1.73-1.34-5.22-5.55-6.45-8.75-1.19-3.21-1.58-6.77-0.9-10.55 3.49-2.45 3.46-5.04 5.44-6.3 1.94-1.26 5.54-0.65 6.12-0.32 0.61 0.32 0.9 2.52 0 3.88-0.87 1.37-3.71 0.08-3.56 1.62 0.18 1.55 1.87 4.47 4.21 4.54 2.37 0.07 3.56-1.15 5.18-4.21 1.62-3.1 1.3-8.1 1.3-8.1l-10.04-27.22 10.04-28.51-6.48-21.71 9.72-20.74-6.12-1-9.04 11.52-6.08-11.27h-8.82l-9.47 12.85-10.15-13.32h-8.1l-9.94 13.07-7.02-13.28-10.36-0.26-10.37 13.79-7.02-12.42-6.234 0.32zm67.354 146.56c2.09-0.79 2.88-1.62 2.92-2.48-0.22-1.05-1.95-2.85-3.39-2.92-1.4-0.07-4.03 0.76-4.97 2.49-1.07 1.61-1.72 4.78-1.11 6.98 0.5 2.05 2.05 4.46 4.5 5.44 2.45 0.86 6.8 1.33 10.15-0.26 3.28-1.73 7.06-6.15 9.25-9.68 2.06-3.6 3.06-8.46 3.17-11.52-0.11-3.17-1.76-5.87-3.17-6.98-1.44-1.23-4.21-0.9-5.4 0-1.33 0.75-2.08 2.37-2.26 4.71l-3.14-4.71c-0.39 2.05-1.15 3.67-2.27 5.4-1.18 1.58-2.59 3.05-4.5 4.28 4.07 0.28 6.88 1.15 8.57 2.73 1.62 1.55 1.84 4.65 1.33 6.52-0.61 1.73-2.95 3.45-4.5 4.07-1.55 0.39-3.96 0.07-4.75-0.69-0.86-0.71-1-1.79-0.43-3.38zm25.53-63.83l-6.77 11.95c1.47-0.57 2.73-0.75 3.63-0.68 0.87 0.07 1.52 0.4 1.8 1.12 0.26-2.34 0.9-3.71 1.8-4.5 0.9-0.8 2.06-0.8 3.6 0-1.33-2.63-2.7-5.26-4.06-7.89z"/>
    <path id="path215" d="m181.12 255.7l-10.62 15.33 9.93 15.12 9.69-15.12-9-15.33zm-28.44 1.36l-10.16 13.97 10.84 14.01 9.47-13.76-10.15-14.22zm-27.76 0l-9.94 14.22 10.37 14.22 9.51-15.12-9.94-13.32zm67.68 23.01l-10.37 14 10.59 13.07 9.5-13.75-9.72-13.32zm-26.17-0.9l-10.15 14.9 10.83 14.22 9.94-15.12-10.62-14zm-28.44 0.68l-9.47 13.97 9.94 14.22 10.15-14.65-10.62-13.54zm-24.59-0.68l-9.25 14.9 9.93 13.75 10.16-14.43-10.84-14.22zm66.78 28.44l-10.37 14.87 11.05 14.9 9.26-14.65-9.94-15.12zm-28.66 0.21l-9.9 15.12 10.84 15.34 9.68-16.24-10.62-14.22zm-25.92 0.47l-9.72 14.65 10.16 13.54 10.15-14.9-10.59-13.29zm-9.93 21.89l9.03 17.14c-2.01-0.87-3.7-1.19-5.22-1.12-1.54 0.07-2.77 0.54-3.81 1.55 0.03-2.45-0.54-4.07-1.59-4.72-1.18-0.65-2.7-0.47-4.96 0.69 2.16-4.5 4.35-9 6.55-13.54zm23.47-0.94l-10.4 18.08c0.46 2.19 1.04 4.1 1.58 5.86 0.54 1.73 1.19 3.06 1.8 4.29 2.02-4 4.07-6.91 6.55-9.04 2.41-2.12 5.01-3.27 7.92-3.6-2.48-5.18-4.97-10.37-7.45-15.59zm26.6 0.69l10.16 18.72c-1.01 1.04-1.88 2.23-2.45 3.85-0.65 1.51-1.15 3.31-1.37 5.4-1.94-3.71-4.25-6.59-6.77-8.78-2.59-2.27-5.4-3.68-8.57-4.5 2.99-4.9 5.98-9.8 9-14.69zm18.08 45.14c-1.41-1.29-3.06-3.13-4.97-5.65-1.98-2.56-4.07-5.54-6.56-9.25 0.22 4.1 0.29 7.41 0.22 9.93-0.14 2.52-0.39 4.25-0.9 5.19 2.16-0.15 4.32-0.22 6.34-0.22 2.05-0.07 3.96-0.07 5.87 0zm-64.08-0.68c1.76-1.59 3.85-3.64 5.86-6.3 1.98-2.77 4.29-5.87 6.52-9.72-0.9 4.39-1.3 7.88-1.33 10.62-0.04 2.77 0.29 4.46 1.11 5.61-1.04 0.65-2.41 0.9-4.5 0.9-2.05-0.07-4.6-0.39-7.66-1.11zm17.82 23.9c-3.17-1.47-4.4-2.77-4.07-4.03 0.36-1.33 4.14-3.89 6.33-3.64 2.09 0.29 5.51 2.99 6.52 5.19 0.86 1.94-0.04 4.93-0.9 7.02-0.94 2.09-2.16 4.39-4.5 5.4-2.56 0.83-6.73 1.08-10.15-0.22-3.46-1.47-7.81-4.97-10.15-8.13-2.42-3.32-3.82-7.46-4.07-11.06-0.4-3.7 0.68-8.53 2.27-10.58 1.54-2.05 5.22-1.98 6.98-1.58 1.66 0.28 2.63 1.36 2.92 3.38l2.95-4.07c1.37 3.82 2.91 6.7 4.5 8.79 1.62 2.01 3.13 3.09 4.97 3.38-5.19 1.3-8.72 2.52-10.59 4.07-1.91 1.51-1.44 3.24-0.93 4.75 0.36 1.44 2.23 2.66 3.38 3.38 1.04 0.47 2.63 0.29 3.38 0 0.8-0.39 1.08-1.08 1.16-2.05zm-37.23-146.66l9 19.87-6.77 21.67 10.41 28.19-9.94 27.29s-0.72 4.82 0.9 7.92c1.62 3.06 1.26 2.77 3.6 2.69 2.34-0.06 2.09 0.19 2.27-1.36 0.14-1.51-2.74-1.55-3.6-2.92-0.9-1.36 1.87-5.29 2.48-5.65 0.58-0.32 5.01 1.01 6.99 2.27 1.94 1.26 3.06 4.1 6.55 6.55 0.36 5.19-0.14 9.29-1.8 12.85-1.8 3.46-5.83 6.74-7.92 7.89-2.2 0.86-3.53-1.15-4.28-2.02-0.72-0.79-0.65-1.87 0.21-2.95-1.98 0.54-3.17 1.37-3.56 2.34-0.47 0.94-0.11 2.81 1.08 3.53 1.19 0.54 3.09 0.75 5.87 0.25 0 4.14 0.46 7.92 1.8 11.48 1.26 3.53 2.44 6.63 5.65 9.72 3.06 2.99 9.14 6.7 12.85 8.36 3.64 1.65 5.4 2.05 9.04 1.33 3.56-0.94 8.42-6.48 12.2-6.52 3.6 0.04 6.7 5.15 9.68 6.3 2.92 0.9 4.43 1.08 8.14-0.43 3.64-1.62 10.3-5.9 13.75-8.82 3.42-2.95 5.15-5.33 6.56-8.78 1.26-3.6 1.58-7.82 1.11-12.64 3.82 0.36 6.37 0.11 7.67-0.47 1.19-0.65 0.32-2.56-0.22-3.38-0.64-0.9-1.73-1.62-3.38-2.02 1.73 1.66 2.09 2.74 1.37 3.39-0.98 0.64-3.89 1.29-6.12 0.43-2.24-0.98-5.33-3.03-6.77-6.3-1.44-3.46-2.16-7.99-2.02-14.01 3.49-2.44 2.99-5.04 4.97-6.3 1.94-1.26 9.32-2.37 9.94-2.05 0.57 0.36 1.33 4.03 0.43 5.44-0.9 1.37-3.53 1.37-3.39 2.91 0.18 1.55-0.32 1.73 2.06 1.8 2.34 0.11 1.98 0.61 3.6-2.48 1.62-3.06 1.11-6.98 1.11-6.98l-10.83-28.19 11.95-28.44-7.89-21.67 10.37-20.31-3.81-0.21-9.04 11.52-6.08-11.31h-8.79l-9.72 14.65-11.52-15.08h-6.51l-11.09 14.65-8.1-14.9-8.14-0.22-11.27 14.9-8.35-14-2.7 0.22zm67.68 145.54c1.44-0.35 2.2-1.08 2.27-2.01 0.04-0.98-0.47-3.46-2.05-3.85-1.69-0.55-6.34-0.76-8.1 0.9-1.87 1.61-3.46 6.22-2.95 8.82 0.39 2.44 2.88 5.14 5.65 6.29 2.84 1.08 7.2 1.63 10.83 0.22 3.46-1.65 7.85-5.76 10.12-9.25 2.16-3.56 2.7-8.32 3.13-11.48 0.47-3.28 0.54-5.76-0.61-7.45-1.4-1.77-5.29-3.03-7.24-2.96-1.94 0-3.49 0.94-4.5 2.96l-3.85-3.18c-0.11 2.89-0.65 5.37-2.01 7.46-1.37 1.98-3.28 3.56-5.87 4.75 5.29 0.94 8.82 2.16 10.58 3.82 1.77 1.65 0.47 4.39 0 5.86-0.54 1.33-2.05 2.09-3.13 2.27-1.3 0.18-3.46-0.72-3.85-1.15-0.4-0.54 0.18-1.26 1.58-2.02zm23.47-67.46l-9.93 17.14c1.87-0.51 3.6-0.65 5.18-0.44 1.62 0.15 2.95 0.73 4.29 1.59-0.15-2.56 0.35-4.28 1.36-5.19 1.08-0.97 2.49-1 4.75-0.25-1.87-4.28-3.74-8.56-5.65-12.85z" stroke="#000" stroke-miterlimit="10" stroke-width=".036" fill="#fff"/>
    <path id="path217" d="m127.62 299.04c0.18-0.5 4.25 5.29 6.08 7.67 1.59 2.23 2.74 5.07 4.29 5.61 1.58 0.4 5.43-3.89 5.43-3.13-0.18 0.76-3.78 6.95-5.65 7.2-1.91-0.07-3.49-3.81-5.18-6.77-1.84-3.02-5.11-10.11-4.97-10.58z"/>
    <path id="path219" d="m155.59 299.04c0.18-0.5 4.25 5.29 6.09 7.67 1.69 2.23 2.62 5.07 4.32 5.61 1.62 0.4 5.36-3.89 5.4-3.13-0.19 0.76-3.78 6.95-5.66 7.2-1.9-0.07-3.49-3.81-5.18-6.77-1.84-3.02-5.11-10.11-4.97-10.58z"/>
    <path id="path221" d="m141.62 274.67c0.18-0.51 4.25 5.29 6.09 7.67 1.58 2.23 2.73 5.07 4.28 5.61 1.62 0.4 5.37-3.89 5.4-3.13-0.07 0.76-3.89 6.95-5.61 7.2-1.8-0.07-3.53-3.82-5.19-6.77-1.83-3.02-5.11-10.11-4.97-10.58z"/>
    <path id="path223" d="m142.06 327.01c0.18-0.5 4.24 5.29 6.08 7.67 1.58 2.3 2.74 5.11 4.28 5.65 1.59 0.4 5.44-3.85 5.44-3.17-0.18 0.76-3.78 6.95-5.65 7.2-1.91-0.07-3.49-3.81-5.19-6.77-1.83-3.02-5.11-10.11-4.96-10.58z"/>
    <path id="path225" d="m119.27 279.89c0.07-0.4 2.84 3.56 4.03 5.07 1.01 1.44 1.8 3.42 2.81 3.71 1.08 0.22 3.53-2.55 3.6-2.09-0.15 0.4-2.56 4.68-3.75 4.79-1.26-0.07-2.3-2.59-3.42-4.5-1.22-2.01-3.38-6.66-3.27-6.98z"/>
    <path id="path227" d="m173.41 279.42c0.07-0.4 2.85 3.56 4.03 5.07 1.05 1.44 1.77 3.39 2.85 3.75 1.11 0.22 3.42-2.56 3.56-2.09-0.07 0.43-2.56 4.61-3.71 4.75-1.22-0.1-2.37-2.52-3.45-4.46-1.23-2.05-3.39-6.66-3.28-7.02z"/>
    <path id="path229" d="m159.66 260.01c0.07-0.39 2.84 3.57 4.03 5.08 1.01 1.44 1.8 3.39 2.81 3.74 1.08 0.22 3.53-2.55 3.6-2.08-0.14 0.43-2.56 4.61-3.74 4.75-1.26-0.11-2.31-2.52-3.42-4.46-1.23-2.06-3.39-6.66-3.28-7.03z"/>
    <path id="path231" d="m131.22 259.37c0.07-0.33 2.84 3.49 4.03 5.04 1.05 1.44 1.77 3.38 2.85 3.74 1.04 0.22 3.52-2.56 3.56-2.09-0.14 0.44-2.56 4.61-3.74 4.76-1.26-0.11-2.31-2.52-3.42-4.47-1.23-2.09-3.39-6.55-3.28-6.98z"/>
    <path id="path233" d="m118.58 330.22c0.08-0.33 2.85 3.49 4.04 5.03 1.04 1.45 1.76 3.39 2.84 3.75 1.12 0.22 3.42-2.56 3.56-2.09-0.07 0.43-2.55 4.61-3.7 4.75-1.23-0.1-2.38-2.52-3.46-4.46-1.22-2.09-3.38-6.55-3.28-6.98z"/>
    <path id="path235" d="m172.98 332.01c0.07-0.39 2.84 3.57 4.03 5.08 1.01 1.44 1.8 3.42 2.81 3.71 1.12 0.21 3.42-2.56 3.56-2.09-0.07 0.4-2.55 4.68-3.7 4.79-1.26-0.07-2.31-2.59-3.42-4.5-1.23-2.02-3.39-6.66-3.28-6.99z"/>
    <path id="path237" d="m112.07 307.82c-0.15 0.72 1.01 7.74 2.91 7.46 1.91-0.54 8.21-9.19 8.36-9.94-0.15-0.72-6.2 5.15-8.14 5.65-2.05 0.29-3.1-3.82-3.13-3.17z"/>
    <path id="path239" d="m183.56 300.16c1.3 0.82 8.5 10.69 8.82 11.95 0.18 1.08-6.26-3.03-7.67-4.97-1.54-2.09-2.44-7.85-1.15-6.98z"/>
    <path id="path241" d="m184.03 349.58c-0.61-0.14-5.54 1.48-6.33 4.04-0.83 2.37 1.04 10.4 1.58 10.62 0.4 0.03 0.58-7.28 1.37-9.73 0.79-2.59 3.81-4.75 3.38-4.93z"/>
    <path id="path243" d="m123.34 350.23c0.75 0.51 3.6 4.21 4.06 6.12 0.33 1.77-0.75 4.93-1.58 4.5-0.76-0.5-2.88-5.76-3.17-7.45-0.5-1.94-0.14-3.6 0.69-3.17z"/>
    <path id="path245" stroke="#000" stroke-width=".036" stroke-miterlimit="10" d="m152.22 345.74c10.83 0 19.62 10.05 19.62 22.43s-8.79 22.43-19.62 22.43-19.62-10.05-19.62-22.43 8.79-22.43 19.62-22.43"/>
    <path id="path247" d="m151.98 347.74c9.6 0 17.39 9.04 17.39 20.19s-7.79 20.2-17.39 20.2-17.39-9.05-17.39-20.2 7.79-20.19 17.39-20.19" stroke="#000" stroke-miterlimit="10" stroke-width=".036" fill="#fff"/>
    <path id="path249" d="m152.48 235.14h-71.876c-0.795 0-1.44 0.64-1.44 1.42v18.11c0 0.78 0.645 1.42 1.44 1.42h143.75c0.8 0 1.44-0.64 1.44-1.42v-18.11c0-0.78-0.64-1.42-1.44-1.42h-71.87z"/>
    <path id="path251" stroke="#000" stroke-width=".036" stroke-miterlimit="10" d="m152.48 212.21h-75.584c-0.795 0-1.44 0.63-1.44 1.42v22.71c0 0.79 0.645 1.43 1.44 1.43h151.16c0.8 0 1.44-0.64 1.44-1.43v-22.71c0-0.79-0.64-1.42-1.44-1.42h-75.58z"/>
    <path id="path253" d="m152.5 213.5h-74.506c-0.785 0-1.422 0.58-1.422 1.28v20.41c0 0.71 0.637 1.28 1.422 1.28h149.01c0.78 0 1.42-0.57 1.42-1.28v-20.41c0-0.7-0.64-1.28-1.42-1.28h-74.5z" fill="#fff"/>
    <path id="path255" d="m88.956 214.69h-9.144c-0.795 0-1.44 0.64-1.44 1.42v16.78c0 0.78 0.645 1.42 1.44 1.42h18.288c0.795 0 1.44-0.64 1.44-1.42v-16.78c0-0.78-0.645-1.42-1.44-1.42h-9.144z"/>
    <path id="path257" d="m215.28 214.69h-9.15c-0.79 0-1.43 0.64-1.43 1.42v16.78c0 0.78 0.64 1.42 1.43 1.42h18.29c0.8 0 1.44-0.64 1.44-1.42v-16.78c0-0.78-0.64-1.42-1.44-1.42h-9.14z"/>
    <path id="path259" d="m97.236 251.56c0.54-0.87 1.476-2.09 2.664-3.82 1.19-1.91 3.13-4.03 4.46-6.66 1.3-2.59 2.16-5.44 3.03-8.68h90.54c1.08 3.06 2.37 5.58 3.74 8.1 1.37 2.34 3.24 4.4 4.5 6.3 1.15 1.84 1.91 3.42 2.41 4.76h-111.34z" fill="#fff"/>
    <path id="path261" d="m152.35 207.82h-48.49c-0.8 0-1.44 0.63-1.44 1.42v27.57c0 0.79 0.64 1.43 1.44 1.43h96.98c0.8 0 1.44-0.64 1.44-1.43v-27.57c0-0.79-0.64-1.42-1.44-1.42h-48.49z"/>
    <path id="path263" d="m152.42 208.75h-47.37c-0.78 0-1.41 0.59-1.41 1.31v25.56c0 0.73 0.63 1.32 1.41 1.32h94.75c0.77 0 1.4-0.59 1.4-1.32v-25.56c0-0.72-0.63-1.31-1.4-1.31h-47.38z" fill="#fff"/>
    <path id="path265" fill="#a12161" d="m132.35 217.79h-0.55c-0.8 0-1.44 0.63-1.44 1.42v23.54c0 0.79 0.64 1.43 1.44 1.43h1.11c0.8 0 1.44-0.64 1.44-1.43v-23.54c0-0.79-0.64-1.42-1.44-1.42h-0.56z"/>
    <path id="path267" fill="#a12161" d="m142.25 217.79h-0.55c-0.8 0-1.44 0.63-1.44 1.42v23.54c0 0.79 0.64 1.43 1.44 1.43h1.11c0.8 0 1.44-0.64 1.44-1.43v-23.54c0-0.79-0.64-1.42-1.44-1.42h-0.56z"/>
    <path id="path269" fill="#a12161" d="m151.94 217.79h-0.56c-0.8 0-1.44 0.63-1.44 1.42v23.54c0 0.79 0.64 1.43 1.44 1.43h1.12c0.79 0 1.44-0.64 1.44-1.43v-23.54c0-0.79-0.65-1.42-1.44-1.42h-0.56z"/>
    <path id="path271" fill="#a12161" d="m162.09 217.79h-0.56c-0.79 0-1.44 0.63-1.44 1.42v23.54c0 0.79 0.65 1.43 1.44 1.43h1.12c0.79 0 1.44-0.64 1.44-1.43v-23.54c0-0.79-0.65-1.42-1.44-1.42h-0.56z"/>
    <path id="path273" fill="#a12161" d="m171.88 217.79h-0.56c-0.79 0-1.44 0.63-1.44 1.42v23.54c0 0.79 0.65 1.43 1.44 1.43h1.12c0.79 0 1.44-0.64 1.44-1.43v-23.54c0-0.79-0.65-1.42-1.44-1.42h-0.56z"/>
    <path id="path275" fill="#a12161" d="m181.31 217.79h-0.55c-0.8 0-1.44 0.63-1.44 1.42v23.54c0 0.79 0.64 1.43 1.44 1.43h1.11c0.79 0 1.44-0.64 1.44-1.43v-23.54c0-0.79-0.65-1.42-1.44-1.42h-0.56z"/>
    <path id="path277" fill="#a12161" d="m191.46 217.79h-0.55c-0.8 0-1.44 0.63-1.44 1.42v23.54c0 0.79 0.64 1.43 1.44 1.43h1.11c0.8 0 1.44-0.64 1.44-1.43v-23.54c0-0.79-0.64-1.42-1.44-1.42h-0.56z"/>
    <path id="path279" stroke="#000" stroke-width=".036" stroke-miterlimit="10" d="m153.63 247.74h-59.508c-0.885 0-1.602 0.64-1.602 1.42v1.23c0 0.78 0.717 1.42 1.602 1.42h119.02c0.88 0 1.6-0.64 1.6-1.42v-1.23c0-0.78-0.72-1.42-1.6-1.42h-59.51z"/>
    <path id="path281" stroke="#000" stroke-width=".036" stroke-miterlimit="10" d="m150.95 407.65c-1.23 0.97-2.2 2.38-2.92 4.65-0.93 2.12-1.98 4.96-1.73 8.38 0.29 3.39 1.37 7.28 3.39 11.81l0.25 10.26c-2.05 2.09-3.38 4.43-4.14 7.31-0.76 2.77-0.76 6.08-0.4 9.65 0.22 3.49 0.8 8.82 2.02 11.55 1.15 2.63 2.92 4 5.15 4.25 2.19-0.25 3.96-1.62 5.15-4.25 1.15-2.73 1.69-8.06 2.01-11.55 0.29-3.57 0.25-6.88-0.39-9.65-0.8-2.88-2.13-5.22-4.14-7.31l0.25-10.26c1.98-4.53 3.06-8.42 3.38-11.81 0.15-3.42-0.9-6.26-1.73-8.38-0.79-2.27-1.76-3.68-2.91-4.65h-3.24z"/>
    <path id="path283" d="m152.46 408.83c1.97 0 3.56 5.22 3.56 11.66s-1.59 11.67-3.56 11.67-3.56-5.23-3.56-11.67 1.59-11.66 3.56-11.66" stroke="#000" stroke-miterlimit="10" stroke-width=".036" fill="#fff"/>
    <path id="path285" d="m152.58 446.64c3.26 0 5.9 5.76 5.9 12.85s-2.64 12.85-5.9 12.85-5.9-5.76-5.9-12.85 2.64-12.85 5.9-12.85" stroke="#000" stroke-miterlimit="10" stroke-width=".036" fill="#fff"/>
    <path id="path287" stroke="#000" stroke-width=".036" stroke-miterlimit="10" d="m148.54 454.81c1.08-1.37 4.89-4.03 5.9-4.5 0.76-0.43 0.5 1.19-0.61 2.38-1.15 1.22-4.9 4.28-5.8 4.75-0.86 0.29-0.65-1.51 0.51-2.63z"/>
    <path id="path289" stroke="#000" stroke-width=".036" stroke-miterlimit="10" d="m148.79 459.64c1.33-1.63 5.94-4.97 7.16-5.48 1.01-0.46 0.47 1.37-0.79 2.88-1.44 1.48-5.9 5.26-6.98 5.8-1.05 0.25-0.8-1.66 0.61-3.2z"/>
    <path id="path291" stroke="#000" stroke-width=".036" stroke-miterlimit="10" d="m150.19 464.6c1.08-1.33 4.9-4.14 5.91-4.53 0.79-0.4 0.39 1.15-0.65 2.41-1.12 1.22-4.93 4.28-5.76 4.75-0.87 0.29-0.65-1.51 0.5-2.63z"/>
    <path id="path293" stroke="#000" stroke-width=".036" stroke-miterlimit="10" d="m10.583 381.37c-1.476 0.47-2.664 1.48-3.42 2.74-0.9 1.29-1.404 3.45-1.368 4.97 0.036 1.36 0.648 2.37 1.836 3.16-1.152 1.48-1.908 2.92-2.268 4.32-0.396 1.44-0.396 2.7 0 4.07-1.116 1.23-1.728 2.38-1.836 3.85-0.18 1.37 0.18 2.88 0.936 4.54-0.936 0.5-1.62 1.84-2.052 3.85-0.54 1.95-0.792 1.33-0.9 8.17-0.18 6.77-0.18 24.88 0 32.4 0.036 7.35 0.072 8.64 0.684 12.24 0.648 3.6 1.512 7.71 3.168 9.54 1.584 1.8 3.528 2.31 6.12 1.37 0.288 1.84 1.548 3.49 3.636 4.97 2.088 1.51 2.052 2.77 9.036 3.64 7.02 0.68 17.604 0.79 32.436 0.46 0.036-10.29-0.072-20.8-0.468-31.96-0.432-11.27-1.152-22.61-2.016-34.71 0.684-3.06 1.044-5.51 0.684-7.49-0.252-2.05-1.224-3.34-2.52-4.28 0.18-2.59 0.18-4.68 0-6.12-0.18-1.51-0.756-2.38-1.332-2.74 0.756-2.44 1.008-4.35 0.9-5.86-0.216-1.52-0.828-2.63-1.836-3.21-6.156 0.58-11.772 0.83-16.992 0.47-5.328-0.43-10.512-1.08-14.292-2.48-3.707-1.41-6.515-3.42-8.136-5.91z"/>
    <path id="path295" d="m50.939 418.56c1.296 9.54 2.196 19.26 2.7 30.13 0.468 10.84 0.54 21.85 0.216 34.02-9.216-0.18-16.416-0.29-21.744-0.47-5.292-0.18-7.524-0.21-10.188-0.68-2.736-0.54-4.86-1.44-6.372-2.7-1.692-1.48-2.772-3.28-3.384-5.69-2.52 1.23-4.536 1.05-5.904-0.68-1.512-1.73-2.016-4.9-2.484-9.51-0.576-4.78-0.576-11.55-0.684-18.36-0.216-6.91-0.756-15.91-0.216-21.99 0.504-5.98 1.584-10.59 3.384-13.83-0.936-2.01-1.26-3.63-1.116-5 0.108-1.4 0.828-2.41 2.016-3.17-0.72-1.19-0.864-2.52-0.432-3.85 0.324-1.33 1.224-2.81 2.7-4.28-1.08-1.77-1.656-3.32-1.584-4.79 0-1.55 0.648-2.77 1.8-4.07 2.016 2.84 5.076 4.86 9.324 6.34 4.212 1.36 11.016 1.87 16.092 2.05 4.968 0.11 9.576-0.4 13.824-1.37 0.612 0.5 1.008 1.37 0.9 2.74-0.144 1.33-0.504 3.02-1.368 5.22 1.152 1.04 1.908 2.23 2.268 3.85 0.252 1.58 0.108 3.35-0.432 5.43 1.8 1.44 2.772 2.89 2.916 4.76 0.037 1.72-0.575 3.74-2.232 5.9z" stroke="#000" stroke-miterlimit="10" stroke-width=".036" fill="#fff"/>
    <path id="path297" stroke="#000" stroke-width=".036" stroke-miterlimit="10" d="m10.116 392.93c3.708 1.58 7.416 2.77 11.556 3.85 4.068 0.94 8.496 2.02 12.708 2.27 4.14 0.18 8.1-0.07 12.024-0.9-3.852 0.54-8.676 0.43-14.76-0.47-6.156-0.9-13.141-2.48-21.528-4.75z"/>
    <path id="path299" stroke="#000" stroke-width=".036" stroke-miterlimit="10" d="m9.216 401.78c5.544 3.46 11.592 5.55 18.144 6.56 6.516 0.97 13.536 0.57 21.06-0.9-7.236 0.86-14.04 0.79-20.844-0.22s-13.284-3.02-19.728-5.9l1.368 0.46z"/>
    <path id="path301" stroke="#000" stroke-width=".036" stroke-miterlimit="10" d="m48.888 416.51c-10.548 1.69-19.188 2.01-26.064 1.11-6.984-0.94-11.916-3.24-15.192-6.76 3.744 2.19 8.892 3.77 15.876 4.75 6.911 0.86 15.228 1.29 25.38 0.9z"/>
    <path id="path303" stroke="#000" stroke-width=".036" stroke-miterlimit="10" d="m288.94 381.37c1.47 0.47 2.55 1.48 3.38 2.74 0.83 1.29 1.33 3.45 1.37 4.97-0.07 1.36-0.72 2.37-1.8 3.16 1.11 1.48 1.87 2.92 2.27 4.32 0.36 1.44 0.36 2.7 0 4.07 1 1.23 1.65 2.38 1.8 3.85 0.1 1.37-0.15 2.88-0.9 4.54 0.86 0.5 1.54 1.84 2.05 3.85 0.43 1.95 0.68 1.33 0.9 8.17 0.07 6.77 0.07 24.88 0 32.4-0.15 7.35-0.15 8.64-0.69 12.24-0.75 3.6-1.58 7.71-3.16 9.54-1.62 1.8-3.57 2.31-6.12 1.37-0.36 1.84-1.48 3.49-3.64 4.97-2.12 1.51-2.23 2.77-9.07 3.64-7.09 0.68-17.57 0.79-32.4 0.46-0.15-10.29 0-20.8 0.43-31.96 0.4-11.27 1.08-22.61 2.05-34.71-0.79-3.06-0.97-5.51-0.68-7.49 0.25-2.05 1.08-3.34 2.48-4.28-0.25-2.59-0.25-4.68 0-6.12 0.18-1.51 0.69-2.38 1.37-2.74-0.79-2.44-1.04-4.35-0.9-5.86 0.11-1.52 0.76-2.63 1.8-3.21 6.19 0.58 11.77 0.83 17.03 0.47 5.22-0.43 10.44-1.08 14.25-2.48 3.78-1.41 6.41-3.42 8.18-5.91z"/>
    <path id="path305" d="m248.58 418.56c-1.37 9.54-2.27 19.26-2.7 30.13-0.54 10.84-0.58 21.85-0.25 34.02 9.25-0.18 16.38-0.29 21.78-0.47 5.22-0.18 7.41-0.21 10.19-0.68 2.62-0.54 4.75-1.44 6.37-2.7 1.65-1.48 2.73-3.28 3.38-5.69 2.49 1.23 4.5 1.05 5.91-0.68 1.4-1.73 1.9-4.9 2.48-9.51 0.47-4.78 0.5-11.55 0.68-18.36 0.11-6.91 0.65-15.91 0.22-21.99-0.54-5.98-1.62-10.59-3.38-13.83 0.9-2.01 1.22-3.63 1.11-5-0.18-1.4-0.86-2.41-2.05-3.17 0.68-1.19 0.79-2.52 0.47-3.85-0.4-1.33-1.3-2.81-2.7-4.28 1.04-1.77 1.62-3.32 1.58-4.79-0.03-1.55-0.65-2.77-1.83-4.07-1.98 2.84-5.08 4.86-9.29 6.34-4.32 1.36-11.13 1.87-16.09 2.05-5.01 0.11-9.62-0.4-13.83-1.37-0.65 0.5-1.04 1.37-0.9 2.74 0 1.33 0.54 3.02 1.33 5.22-1.22 1.04-1.98 2.23-2.26 3.85-0.29 1.58-0.18 3.35 0.46 5.43-1.9 1.44-2.84 2.89-2.95 4.76-0.14 1.72 0.61 3.74 2.27 5.9z" stroke="#000" stroke-miterlimit="10" stroke-width=".036" fill="#fff"/>
    <path id="path307" stroke="#000" stroke-width=".036" stroke-miterlimit="10" d="m289.4 392.93c-3.7 1.58-7.52 2.77-11.59 3.85-4.18 0.94-8.53 2.02-12.67 2.27-4.25 0.18-8.03-0.07-12.02-0.9 3.74 0.54 8.6 0.43 14.72-0.47 6.08-0.9 13.18-2.48 21.56-4.75z"/>
    <path id="path309" stroke="#000" stroke-width=".036" stroke-miterlimit="10" d="m290.3 401.78c-5.58 3.46-11.62 5.55-18.14 6.56-6.66 0.97-13.5 0.57-21.1-0.9 7.17 0.86 14.08 0.79 20.88-0.22 6.84-1.01 13.29-3.02 19.73-5.9l-1.37 0.46z"/>
    <path id="path311" stroke="#000" stroke-width=".036" stroke-miterlimit="10" d="m250.63 416.51c10.51 1.69 19.15 2.01 26.07 1.11 6.94-0.94 11.88-3.24 15.19-6.76-3.82 2.19-8.93 3.77-15.88 4.75-6.98 0.86-15.26 1.29-25.38 0.9z"/>
    <path id="path313" d="m112.91 217.5h-0.64c-0.93 0-1.68 0.64-1.68 1.44v24.05c0 0.79 0.75 1.44 1.68 1.44h1.29c0.93 0 1.68-0.65 1.68-1.44v-24.05c0-0.8-0.75-1.44-1.68-1.44h-0.65z"/>
    <path id="path315" d="m112.88 217.79h-0.56c-0.8 0-1.44 0.63-1.44 1.42v23.54c0 0.79 0.64 1.43 1.44 1.43h1.12c0.79 0 1.44-0.64 1.44-1.43v-23.54c0-0.79-0.65-1.42-1.44-1.42h-0.56z" fill="#fff"/>
    <path id="path317" d="m191.46 217.5h-0.64c-0.93 0-1.68 0.64-1.68 1.44v24.05c0 0.79 0.75 1.44 1.68 1.44h1.29c0.93 0 1.68-0.65 1.68-1.44v-24.05c0-0.8-0.75-1.44-1.68-1.44h-0.65z"/>
    <path id="path319" d="m191.43 217.79h-0.56c-0.79 0-1.44 0.63-1.44 1.42v23.54c0 0.79 0.65 1.43 1.44 1.43h1.12c0.79 0 1.44-0.64 1.44-1.43v-23.54c0-0.79-0.65-1.42-1.44-1.42h-0.56z" fill="#fff"/>
    <path id="path321" d="m181.35 217.5h-0.65c-0.92 0-1.67 0.64-1.67 1.44v24.05c0 0.79 0.75 1.44 1.67 1.44h1.3c0.92 0 1.67-0.65 1.67-1.44v-24.05c0-0.8-0.75-1.44-1.67-1.44h-0.65z"/>
    <path id="path323" d="m181.31 217.79h-0.55c-0.8 0-1.44 0.63-1.44 1.42v23.54c0 0.79 0.64 1.43 1.44 1.43h1.11c0.79 0 1.44-0.64 1.44-1.43v-23.54c0-0.79-0.65-1.42-1.44-1.42h-0.56z" fill="#fff"/>
    <path id="path325" d="m171.94 217.5h-0.67c-0.92 0-1.67 0.64-1.67 1.44v24.05c0 0.79 0.75 1.44 1.67 1.44h1.33c0.93 0 1.68-0.65 1.68-1.44v-24.05c0-0.8-0.75-1.44-1.68-1.44h-0.66z"/>
    <path id="path327" d="m171.88 217.79h-0.56c-0.79 0-1.44 0.63-1.44 1.42v23.54c0 0.79 0.65 1.43 1.44 1.43h1.12c0.79 0 1.44-0.64 1.44-1.43v-23.54c0-0.79-0.65-1.42-1.44-1.42h-0.56z" fill="#fff"/>
    <path id="path329" d="m161.82 217.5h-0.67c-0.92 0-1.67 0.64-1.67 1.44v24.05c0 0.79 0.75 1.44 1.67 1.44h1.34c0.92 0 1.67-0.65 1.67-1.44v-24.05c0-0.8-0.75-1.44-1.67-1.44h-0.67z"/>
    <path id="path331" d="m161.78 217.79h-0.54c-0.79 0-1.44 0.63-1.44 1.42v23.54c0 0.79 0.65 1.43 1.44 1.43h1.08c0.8 0 1.44-0.64 1.44-1.43v-23.54c0-0.79-0.64-1.42-1.44-1.42h-0.54z" fill="#fff"/>
    <path id="path333" d="m152.01 217.5h-0.65c-0.92 0-1.67 0.64-1.67 1.44v24.05c0 0.79 0.75 1.44 1.67 1.44h1.3c0.92 0 1.67-0.65 1.67-1.44v-24.05c0-0.8-0.75-1.44-1.67-1.44h-0.65z"/>
    <path id="path335" d="m151.98 217.79h-0.56c-0.8 0-1.44 0.63-1.44 1.42v23.54c0 0.79 0.64 1.43 1.44 1.43h1.11c0.8 0 1.44-0.64 1.44-1.43v-23.54c0-0.79-0.65-1.42-1.44-1.42h-0.55z" fill="#fff"/>
    <path id="path337" d="m142.38 217.5h-0.67c-0.92 0-1.67 0.64-1.67 1.44v24.05c0 0.79 0.75 1.44 1.67 1.44h1.33c0.93 0 1.68-0.65 1.68-1.44v-24.05c0-0.8-0.75-1.44-1.68-1.44h-0.66z"/>
    <path id="path339" d="m142.34 217.79h-0.54c-0.79 0-1.44 0.63-1.44 1.42v23.54c0 0.79 0.65 1.43 1.44 1.43h1.08c0.8 0 1.44-0.64 1.44-1.43v-23.54c0-0.79-0.64-1.42-1.44-1.42h-0.54z" fill="#fff"/>
    <path id="path341" d="m132.17 217.5h-0.64c-0.93 0-1.68 0.64-1.68 1.44v24.05c0 0.79 0.75 1.44 1.68 1.44h1.29c0.93 0 1.68-0.65 1.68-1.44v-24.05c0-0.8-0.75-1.44-1.68-1.44h-0.65z"/>
    <path id="path343" d="m132.14 217.79h-0.56c-0.8 0-1.44 0.63-1.44 1.42v23.54c0 0.79 0.64 1.43 1.44 1.43h1.12c0.79 0 1.44-0.64 1.44-1.43v-23.54c0-0.79-0.65-1.42-1.44-1.42h-0.56z" fill="#fff"/>
    <path id="path345" d="m123.03 217.5h-0.65c-0.92 0-1.67 0.64-1.67 1.44v24.05c0 0.79 0.75 1.44 1.67 1.44h1.3c0.92 0 1.67-0.65 1.67-1.44v-24.05c0-0.8-0.75-1.44-1.67-1.44h-0.65z"/>
    <path id="path347" d="m122.99 217.79h-0.55c-0.8 0-1.44 0.63-1.44 1.42v23.54c0 0.79 0.64 1.43 1.44 1.43h1.11c0.8 0 1.44-0.64 1.44-1.43v-23.54c0-0.79-0.64-1.42-1.44-1.42h-0.56z" fill="#fff"/>
    <path id="path349" d="m152.12 216.24h-31.16c-0.82 0-1.48 0.64-1.48 1.42v10.37c0 0.79 0.66 1.42 1.48 1.42h62.32c0.81 0 1.47-0.64 1.47-1.42v-10.37c0-0.78-0.66-1.42-1.47-1.42h-31.16z"/>
    <path id="path351" d="m152.06 216.85h-30.52c-0.8 0-1.44 0.57-1.44 1.28v9.32c0 0.71 0.64 1.28 1.44 1.28h61.05c0.8 0 1.44-0.57 1.44-1.28v-9.32c0-0.71-0.65-1.28-1.44-1.28h-30.53z" fill="#fff"/>
  </g>
  <metadata>
    <rdf:RDF>
      <cc:Work>
        <dc:format>image/svg+xml</dc:format>
        <dc:type rdf:resource="http://purl.org/dc/dcmitype/StillImage"/>
        <cc:license rdf:resource="http://creativecommons.org/licenses/publicdomain/"/>
        <dc:publisher>
          <cc:Agent rdf:about="http://openclipart.org/">
            <dc:title>Openclipart</dc:title>
          </cc:Agent>
        </dc:publisher>
        <dc:title>Fifties Jukebox</dc:title>
        <dc:date>2007-11-14T18:12:33</dc:date>
        <dc:description>For a request.</dc:description>
        <dc:source>http://openclipart.org/detail/8423/fifties-jukebox-by-gerald_g-8423</dc:source>
        <dc:creator>
          <cc:Agent>
            <dc:title>Gerald_G</dc:title>
          </cc:Agent>
        </dc:creator>
        <dc:subject>
          <rdf:Bag>
            <rdf:li>clip art</rdf:li>
            <rdf:li>clipart</rdf:li>
            <rdf:li>colouring book</rdf:li>
            <rdf:li>fifties</rdf:li>
            <rdf:li>jukebox</rdf:li>
            <rdf:li>music</rdf:li>
            <rdf:li>record</rdf:li>
          </rdf:Bag>
        </dc:subject>
      </cc:Work>
      <cc:License rdf:about="http://creativecommons.org/licenses/publicdomain/">
        <cc:permits rdf:resource="http://creativecommons.org/ns#Reproduction"/>
        <cc:permits rdf:resource="http://creativecommons.org/ns#Distribution"/>
        <cc:permits rdf:resource="http://creativecommons.org/ns#DerivativeWorks"/>
      </cc:License>
    </rdf:RDF>
  </metadata>
</svg>
