<svg
    version="1.1"
    id="Calque_1"
    xmlns="http://www.w3.org/2000/svg"
    xmlns:xlink="http://www.w3.org/1999/xlink"
    x="0px"
    y="0px"
    viewBox="0 0 1440 1842.2"
    style="enable-background:new 0 0 16141.9 16134.7;"
    xml:space="preserve">
    <defs>
        <lineargradient id="whalegradient" x1="50%" y1="0%" x2="50%" y2="100%">
            <stop offset="0%" stop-color="#fff">
                <animate
                    attributename="stop-color"
                    values="#fff; #979efc; #fff"
                    dur="20s"
                    repeatcount="indefinite"></animate>
            </stop>
            <stop offset="100%" stop-color="#979efc">
                <animate
                    attributename="stop-color"
                    values="#979efc; #fff; #979efc"
                    dur="20s"
                    repeatcount="indefinite"></animate>
            </stop>
        </lineargradient>
    </defs>
    <g>
        <path
            fill="url(#whalegradient)"
            d="M1440,887.5c-1.1,0.3-0.8,1.2-0.9,1.9c-1,5-5,7.7-9.1,7.7c-2.2,0-4.5,0.1-6.7,0.1c-0.4,0-0.9-0.1-1.2,0.4
                                c-0.4,0.7,0.1,1.2,0.5,1.6c0.2,0.2,0.4,0.5,0.6,0.7c6.7,7.6,9.2,16.7,9.2,26.5c0,5.2-2.2,9.6-5.6,13.4c-2.2,2.5-5.1,3.8-8.4,4.1
                                c-4,0.4-8,0.2-11.9-0.5c-8.7-1.5-17.1-4.1-25.5-6.7c-1.5-0.5-3-1-4.6-1.4c-0.9-0.2-1.9-0.6-2.8,0c0.1,1.5,1.4,2,2.3,2.8
                                c5.4,4.5,10.9,8.9,16.4,13.3c3.5,2.8,6.9,5.7,10.2,8.7c4.1,3.7,7.3,8,9.2,13.3c2,5.7,1.3,11-1.8,16.1c-1.9,3.2-4.7,5.2-8.3,6.1
                                c-1.4,0.4-2.8,0.7-4.2,0.8c-11.2,1.1-22.3,0.6-33.1-3.3c-2.7-1-5.4-1.8-8.2-2.6c-0.4-0.1-1,0.1-1.3,0.4c-0.4,0.4-0.1,0.9,0.2,1.3
                                c0.9,1.1,1.9,2.2,2.8,3.3c4.2,4.6,8.4,9.2,12.5,13.9c2.2,2.5,4.4,5.1,6,8.1c2.2,4.3,3.1,8.7,1.4,13.4c-1.2,3.3-3.4,5.7-6.6,7.2
                                c-2.2,1-4.5,1.6-6.9,1.9c-7.5,0.9-14.7-0.1-21.5-3.4c-3.2-1.5-6.4-2.9-9.8-3.9c-1.6-0.5-2.6,0.4-2.1,2c0.9,2.7,1.7,5.5,1.8,8.4
                                c0,2.1,0.1,4.2-0.1,6.2c-0.4,4.4-2.6,7.8-6.3,10.3c-3,2-6.2,3.3-9.6,4.1c-2.4,0.6-4.8,0.5-7.1-0.2c-4.5-1.2-8.9-2.6-13.3-3.9
                                c-2.8-0.8-5.5-1.5-8.3-2.2c-1.3-0.3-2.2,0.6-1.9,1.9c0.5,2.4,0.5,4.8,0.6,7.2c0.2,3.9-1.5,6.7-4.6,8.9c-5.2,3.7-10.9,6-17.4,5.8
                                c-2.1-0.1-4.1-0.3-6.2-0.4c-0.6-0.1-1.3-0.2-1.9-0.3c-7.9-0.8-13,2.1-14.8,9.7c-2.2,9.4-8.9,12.7-17.3,14
                                c-4.7,0.7-9.2,0.1-13.6-1.7c-1.3-0.5-2.7-1-4.1-1.4c-2.1-0.6-3.8-0.1-5.1,1.7c-0.3,0.4-0.6,0.8-0.8,1.2
                                c-4.9,7.6-11.5,13.3-19.2,17.7c-4,2.3-8.1,4.5-12.3,6.5c-8.1,3.9-15.9,8.2-23.4,13.1c-4.8,3.1-9.8,6.1-14.7,8.9
                                c-6.1,3.5-12.7,6-19.7,7.2c-3.5,0.6-6.8,1.8-10,3.3c-14.1,6.3-28.3,12.6-42.9,17.7c-10.7,3.8-21.6,6.9-32.9,8.3
                                c-3.1,0.4-5.8,1.6-8.2,3.6c-1.6,1.3-3.2,2.7-4.8,4c-4.4,3.5-9.2,6.3-14.5,8.3c-6.3,2.4-12.5,2.4-18.8,0.3c-1.5-0.5-3-1.1-4.4-1.8
                                c-2.5-1.3-4.5-0.8-6.6,0.9c-3.6,3-7.9,4.9-12.5,5.8c-3.1,0.6-6.3,0.9-9.5,1.1c-5.6,0.4-11.2,0.7-16.8,1c-3.1,0.2-6,0.9-8.7,2.4
                                c-4.8,2.6-9.2,1.8-13.5-1.1c-7.3-5-12.9-11.4-17.2-19c-3.2-5.7-5.7-11.8-7.4-18.2c-1.3-5-4.5-7.5-9.3-8.4c-1.1-0.2-2.2-0.4-3.3-0.5
                                c-6.3-0.6-11-3.9-14.6-9c-2.1-3-3.6-6.4-5-9.8c-2.5-6.4-4.1-13.1-5.6-19.8c-0.2-0.8-0.5-1.5-0.8-2.2c0-0.1-0.3-0.1-0.8-0.2
                                c-0.4,1.1-0.4,2.3-0.6,3.5c-0.2,1.1-0.4,2.2-0.5,3.3c-0.6,10.2-2.2,20.3-4.4,30.3c-0.4,1.7-0.6,3.5-0.7,5.2c0,10.3-2,20.3-4,30.4
                                c-4.1,20-8.1,40.1-12.2,60.1c-3.3,16-6.8,31.9-10.2,47.8c-1.4,6.4-2.7,12.8-4.2,19.2c-0.7,3.1-1.7,6.2-2.8,9.1
                                c-1.9,4.8-3.1,9.7-3.8,14.8c-0.5,3.3-1.3,6.6-2.4,9.8c-0.8,2.6-1.7,5.2-2.2,7.8c-1.6,9.2-4.3,18-7.2,26.8
                                c-5.8,17.9-12.5,35.5-19.3,53.1c-0.5,1.2-1,2.4-1.6,3.5c-1.8,3.3-3,6.7-2.8,10.5c0.1,1.6-0.4,3.2-1.2,4.6c-2.1,3.8-3.3,8-4.5,12.1
                                c-2.6,9.1-5.1,18.1-7.9,27.1c-2.2,7.4-3.6,14.9-4.8,22.5c-2.4,15.5-4.8,30.9-7.2,46.4c-0.6,3.8-0.9,7.6-1.4,11.4
                                c-1.6,15-2.4,30-2.1,45c0,1.1-0.1,2.4,0.3,3.3c1.4,3,1.5,6.2,2.2,9.3c1.5,6.5,3.4,13,5.7,19.3c1.2,3.3,3.1,6.3,5.5,8.9
                                c1.4,1.5,2.8,3.1,4.2,4.6c2.4,2.6,4.8,5.1,8.7,5.5c0.8,0.1,1.5,0.6,2.2,1c5,2.8,10.5,4.7,15.9,6.5c4.6,1.5,9,3.2,13.2,5.6
                                c1.7,1,3.4,1.7,5.3,2.1c26.8,7.1,50.1,20.4,70.8,38.7c3.6,3.2,7.2,6.4,10.8,9.5c8,6.9,14.9,14.9,20.8,23.7
                                c3.2,4.8,6.4,9.6,9.5,14.4c8.5,12.9,13.9,26.9,16.4,42.1c0.6,3.9,1,7.9,0.9,11.9c-0.1,2.5-0.8,4.7-3.2,6c-1.5,0.9-2.3,0.9-3.4-0.3
                                c-2.4-2.8-4.9-5.5-6.3-8.9c-0.2-0.6-0.3-1.3-0.8-1.7c-3.6-3.4-6.6-7.4-11.5-9.2c-8.4-3-16.8-6.1-25.3-8.9c-5.5-1.8-11.3-2.3-17-3
                                c-9.7-1.2-19.4-1.9-29.2-1.8c-2.7,0-5.4-0.1-8.1-0.8c-2.3-0.6-4.8-0.6-7.2-0.5c-9.3,0.5-18.5,0.8-27.8,1.5
                                c-13.1,0.9-26.2,0.7-39.2-1.3c-3.1-0.5-6.3-1.2-9.4-2c-4.3-1.1-8-3.2-11.1-6.4c-2.2-2.3-4.6-4.4-7-6.6c-0.8-0.8-1.7-0.7-2.6,0
                                c-1.9,1.7-3.8,3.4-5.6,5.3c-3.8,4.2-8.6,6.5-14,7.8c-5.9,1.4-11.9,2.3-18,2.7c-11.7,0.8-23.3,0.5-35-0.4
                                c-5.9-0.5-11.8-0.9-17.7-1.2c-3.5-0.2-7-0.1-10.5,0.6c-3.8,0.7-7.6,0.9-11.5,0.9c-12.7-0.2-25.2,1.5-37.7,3.5
                                c-3.5,0.6-6.8,1.6-10.1,2.8c-6,2.1-12,4.5-18,6.4c-5.6,1.7-9.4,5.9-13.5,9.6c-0.3,0.3-0.7,0.8-0.8,1.2c-0.9,3.8-3.9,6.2-6,9.2
                                c-1.2,1.8-3.3,1.9-5,0.5c-1.7-1.3-2.2-3.1-2.2-5.1c-0.1-5.6,0.4-11.2,1.5-16.7c2.7-13.3,7.8-25.7,15.2-37c3.5-5.4,7-10.7,10.6-16
                                c5.5-8.1,11.9-15.5,19.3-21.9c4.4-3.8,8.6-7.7,12.9-11.5c17.5-15.4,37.3-26.8,59.2-34.6c0.5-0.2,0.9-0.4,1.3-0.5
                                c7-1.7,13.7-4,20.1-7.4c3.5-1.9,7.5-2.8,11.2-4.1c3.9-1.3,7.8-2.8,11.5-4.8c1.3-0.7,2.6-1.4,4-1.6c2.7-0.5,4.6-2.1,6.4-3.9
                                c0.3-0.3,0.6-0.7,1-1.1c6.3-6,10.5-13.1,12.5-21.6c1.2-5.3,3.4-10.3,3.7-15.8c0-0.3,0.1-0.6,0.2-0.9c1.9-4.1,1.6-8.4,1.6-12.7
                                c-0.1-10.2-0.1-20.5-1.1-30.7c-1.2-11-2.4-21.9-4.1-32.8c-2.2-13.2-4.2-26.5-6.3-39.8c-0.7-4.7-1.7-9.4-3-14
                                c-3.1-10.9-6.3-21.8-9.5-32.7c-0.8-2.9-1.8-5.8-3.2-8.5c-1.2-2.3-1.8-4.8-1.7-7.4c0.1-1.8-0.2-3.5-1-5.1c-4.5-9-7.6-18.6-11.3-28
                                c-5.4-14-10-28.3-14.6-42.6c-1.6-5-2.6-10.2-3.7-15.4c-0.4-2-0.8-4.1-1.5-6c-2.1-5.9-3.1-12-4.3-18.2c-0.3-1.7-0.6-3.5-1.3-5.1
                                c-3.6-8.4-5.3-17.4-7.3-26.3c-8.9-39.9-16.5-80.1-24.8-120.1c-1.6-7.9-2.5-15.8-2.8-23.8c-0.2-4-0.8-7.9-1.7-11.8
                                c-1.3-5.1-1.9-10.3-2.4-15.6c-0.5-5.1-0.7-10.2-1.9-15.6c-1.2,1-1.4,2.2-1.6,3.3c-1.1,5.2-2.4,10.3-4,15.3c-1.3,4.1-3,8.1-5.1,11.8
                                c-3.9,6.7-9.6,10.5-17.4,11.2c-1.4,0.1-2.8,0.3-4.2,0.8c-3.5,1.4-5.9,3.7-6.8,7.5c-1.3,5.5-3.5,10.6-5.9,15.6
                                c-4,8.2-9.5,15.1-16.9,20.5c-1.3,0.9-2.6,1.8-4,2.6c-3.3,1.8-6.7,2.1-10.1,0.4c-4.7-2.4-9.7-3.1-14.8-3.3
                                c-5.4-0.2-10.9-0.5-16.3-0.9c-6.3-0.5-12.3-2.2-17.3-6.3c-2.4-2-4.7-2.3-7.5-0.9c-1.7,0.9-3.6,1.4-5.4,2c-5.3,1.7-10.6,1.6-16-0.3
                                c-5.7-1.9-10.8-4.8-15.5-8.5c-1.6-1.3-3.2-2.7-4.8-4c-2.6-2.2-5.7-3.6-9.1-3.9c-10.9-1.2-21.3-4.3-31.5-7.8
                                c-14-4.9-27.6-10.9-41.2-16.9c-4.5-2-9.1-3.7-14-4.6c-6.3-1.2-12.3-3.5-17.8-6.8c-5.4-3.1-10.7-6.4-16-9.7
                                c-6.9-4.4-14-8.4-21.3-11.9c-4.3-2.1-8.6-4.3-12.7-6.6c-8-4.6-14.9-10.4-20-18.2c-2.3-3.5-3.6-3.8-7.7-2.2c-3,1.2-6,2.2-9.2,2.6
                                c-6.5,0.9-12.4-0.7-17.8-4.2c-2.8-1.8-4.5-4.5-5.4-7.7c-0.5-1.8-1.1-3.7-1.9-5.4c-1.9-4.1-5.2-6.3-9.8-6.5
                                c-2.7-0.1-5.4,0.2-8.1,0.5c-8.6,1.2-16.1-1.4-22.6-6.9c-2.1-1.7-3-4.1-3.1-6.7c-0.1-2.7,0.1-5.4,0.7-8.1c0.2-1.1-0.5-1.9-1.6-1.8
                                c-1.4,0.1-2.9,0.3-4.2,0.7c-5.1,1.4-10.1,2.9-15.1,4.5c-6.8,2.2-12.9,0.7-18.7-2.9c-4.4-2.7-6.7-6.7-7.1-11.8
                                c-0.3-4.2,0.1-8.3,1.5-12.3c0.3-0.9,0.8-1.9,0.1-2.7c-0.9-1-2.1-0.5-3.1-0.1c-3.1,1.2-6.2,2.5-9.3,3.9c-5.2,2.4-10.6,3.5-16.3,3.5
                                c-2.9,0-5.7-0.5-8.5-1.3c-7.8-2.1-11.8-9.2-9.8-17.1c0.9-3.7,2.8-6.8,5.2-9.6c3.6-4.2,7.4-8.4,11.1-12.6c2.1-2.4,4.3-4.7,6.4-7.1
                                c0.4-0.5,1-1.1,0.7-1.7c-0.4-0.8-1.4-0.6-2.1-0.4c-1.5,0.4-3,1-4.5,1.5c-3.3,1.1-6.6,2.3-10,3.1c-8.8,2.2-17.7,2.3-26.7,1.1
                                c-11.1-1.4-17.3-11.4-13.9-22.1c1.4-4.3,3.7-8.1,6.8-11.4c1.5-1.6,3.2-3.2,4.9-4.6c7.9-6.5,15.8-13,23.7-19.5
                                c1.2-1,2.8-1.6,3.2-3.4c-1-0.7-1.9-0.2-2.8,0c-6.4,1.9-12.9,3.8-19.3,5.7c-4.9,1.4-9.9,2.3-15,3.1c-3.2,0.5-6.4,0.3-9.5-0.4
                                c-3.4-0.8-6.1-2.6-8.2-5.4c-3.4-4.7-5-10-4.3-15.8c1-8.7,3.6-16.9,10-23.4c0.2-0.2,0.5-0.5,0.5-0.8c0.1-0.5,0-1-0.6-1.1
                                c-1.1-0.1-2.2-0.1-3.3-0.1c-1.8-0.1-3.5-0.1-5.3-0.3c-2.9-0.3-5.1-1.8-6.6-4.2c-0.6-0.9-1.2-1.9-1.7-2.8c-0.2-0.9-0.4-1.9-0.7-2.8
                                c-1.6-4.8-0.8-9.5,1.2-13.9c3.7-8.6,9.5-15.5,17.4-20.6c3.4-2.2,6.9-4,10.7-5.3c3.4-1.2,3.4-1.7,0.9-4.5c-1.2-1.3-2.5-2.5-3.5-4
                                c-1.4-2-2.6-4-3.7-6.1c-2.1-4.2-1.4-8,1.7-11.5c1.4-1.6,2.9-2.9,4.7-4.1c8-5.4,16.7-9.5,26.2-11.3c9.9-1.9,19.6-4.4,29.3-7
                                c10-2.7,20.3-4.4,30.4-6.5c13.4-2.8,26.9-5.5,40.3-8.3c15.3-3.2,30.7-6,46.2-8c8.6-1.1,17.1-2,25.8-2.2c6.5-0.2,13.1-0.8,19.6-1.1
                                c20-1.1,39.9-1,59.9-0.1c9.7,0.4,19.5,0.9,29.2,1.3c6.5,0.3,13.1,0.7,19.6,1.1c17.1,1,34.1,2.4,51.2,2.9c8,0.3,16,0.9,24,0.9
                                c3.4,0,5.6-1.1,7.6-3.9c8.8-12.2,19.5-22.4,31.9-30.9c1.4-1,2.8-2.1,4.1-3.3c2.1-2,4.5-3.5,7.3-4.4c4-1.2,7.8-2.8,11.5-4.6
                                c4.3-2.1,9-3.3,13.6-4.6c4.8-1.4,9.5-2.9,14.3-3.9c9.8-2.1,19.5-4.8,29.5-5.9c6.2-0.7,12.4-1.6,18.5-2.4c2.9-0.4,5.7-0.4,8.6,0
                                c4.3,0.7,8.5,1.4,12.8,2c1.7,0.3,3.4,0.5,5.1,1.1c3.7,1.3,7.5,1.2,11.3,0.3c2.2-0.5,3.7-1.9,4.4-4c0.4-1.2,0.7-2.5,0.8-3.7
                                c1-8.3,2-16.5,2.2-24.8c0.1-4.1,0.6-8.3,0.9-12.4c1.4-17.7,2.6-35.4,4.1-53.1c1.2-14,3-28,4.3-42c0.8-8.1,1.7-16.2,2.9-24.3
                                c1.8-12.5,4.6-24.8,8.3-36.9c2.1-6.7,4.3-13.4,6.4-20.1c0.3-1.1,0.7-2.1,1.2-3.1c3.2-5.9,5.8-12.1,8.5-18.2c0.9-2,1.9-4.1,3-6
                                c6.9-12.3,14.3-24.2,22.6-35.6c5.9-8.2,13.1-15.3,20.9-21.7c4.8-3.9,10.2-6.5,16.3-7.8c7.6-1.7,14.6,0,21,3.9
                                c7.4,4.5,13.9,10.2,19.4,16.9c9.8,11.9,18.3,24.6,25.9,38c15.8,27.8,26.1,57.5,31,89.1c1.6,10.1,2.7,20.3,3.7,30.4
                                c1.1,11.1,2.3,22.3,3.4,33.4c0.8,8.8,1.5,17.5,2.2,26.3c0.8,10.7,1.6,21.4,2.4,32c0.5,6.5,0.9,13.1,1.4,19.6
                                c0.4,4.6,0.7,9.2,1.2,13.9c0.2,1.6,0.5,3.2,1,4.7c1.2,3.7,3.6,5.5,7.4,5.7c2.2,0.1,4.4-0.2,6.7-0.7c4.5-1,9.1-1.9,13.6-2.8
                                c5.1-1,10.2-1,15.3-0.4c8.7,1,17.5,1.8,26.1,3.6c19.3,3.9,38.3,8.5,56.5,16.2c6.1,2.6,11.8,5.5,16.7,10.1c1.3,1.2,2.7,2.2,4.2,3.2
                                c9.4,6.8,17.5,14.9,24.5,24.2c0.6,0.8,1.1,1.6,1.7,2.3c2.4,2.9,5.4,4.4,9.2,4.4c1.6,0,3.2-0.1,4.8-0.1c17.7-0.9,35.4-1.8,53.2-2.8
                                c17.4-1,34.8-2.3,52.2-3.1c16.6-0.8,33.2-1.7,49.8-1.3c9.4,0.2,18.8,0.9,28.3,1.4c6.7,0.4,13.4,0.8,20.1,1.2
                                c12.3,0.7,24.5,2.6,36.6,4.4c19.6,3,38.8,7.8,58.3,11.4c20.3,3.8,40.2,8.9,60.3,13.5c3.3,0.8,6.5,1.5,9.8,2.2
                                c8.5,1.7,16.4,5.2,23.9,9.5c2.4,1.4,4.6,2.9,6.5,4.8c5,4.8,5.8,9.4,2.8,15.6c-1.1,2.2-2.4,4.1-3.9,6c-0.9,1.1-1.8,2.2-2.6,3.4
                                c-0.7,1-0.5,1.7,0.6,2.3c1.4,0.7,2.9,1.3,4.3,2c8.7,4.1,15.9,10.1,20.8,18.5c1.3,2.2,2.6,4.4,2.7,7.1c0,0.4,0.5,0.7,0.7,1.1
                                C1440,879.2,1440,883.4,1440,887.5z"/>
    </g>
</svg>