<?xml version="1.0" encoding="utf-8"?>
                                <svg
                                    version="1.1"
                                    id="Calque_1"
                                    xmlns="http://www.w3.org/2000/svg"
                                    xmlns:xlink="http://www.w3.org/1999/xlink"
                                    x="0px"
                                    y="0px"
                                    viewbox="0 0 499.7 330.3"
                                    style="enable-background:new 0 0 499.7 330.3;"
                                    xml:space="preserve">
                                    <defs>
                                        <lineargradient id="logo-gradient" x1="50%" y1="0%" x2="50%" y2="100%">
                                            <stop offset="0%" stop-color="#fff">
                                                <animate
                                                    attributename="stop-color"
                                                    values="#fff; #1f47b6; #fff"
                                                    dur="20s"
                                                    repeatcount="indefinite"></animate>
                                            </stop>
                                            <stop offset="100%" stop-color="#1f47b6">
                                                <animate
                                                    attributename="stop-color"
                                                    values="#1f47b6; #fff; #1f47b6"
                                                    dur="20s"
                                                    repeatcount="indefinite"></animate>
                                            </stop>
                                        </lineargradient>
                                    </defs>
                                    <g>
                                        <path
                                            fill="url(#logo-gradient)"
                                            d="M0,325.5c8.1-11.2,14.3-23.6,21.2-35.4c22.5-38.2,45-76.4,67-115c8.8-15.4,17.7-30.8,26.7-46.2c1.4-2.4,0.7-4.1-0.8-5.8
                                        c-4.3-4.9-8.6-9.7-13-14.5C69,73.9,36.9,39,4.8,4.1C3.9,3.2,2.3,2.5,2.8,1c0.5-1.6,2-0.7,3-0.7c62.9,0,125.9,0,188.8-0.1
                                        c3.1,0,5,1,7.1,3.2c21.6,23.7,43.4,47.3,65.1,71c21.1,22.9,42.2,45.7,63.3,68.6c0.5,0.6,0.7,1.6,1.9,1.2c1.1-0.7,0.5-1.8,0.5-2.7
                                        c0-44.5,0.1-88.9-0.1-133.4c0-3.9,1.1-4.6,4.7-4.6C387.4,3.7,437.7,3.7,488,3.8c1.2,0,2.9-0.9,3.6,0.6c0.8,1.4-0.8,2.4-1.4,3.5
                                        c-23.5,41.1-47.1,82.2-70.6,123.3c-12.3,21.5-24.6,43-37,64.4c-1.2,2.1-1.4,3.2,0.4,5.1c21.4,23.1,42.7,46.2,64,69.3
                                        c15.7,17,31.3,34,47,51c1.8,2,3.8,3.8,5.7,5.6c0,1,0,2,0,3c-2.9,1.4-5.9,0.4-8.8,0.4c-59.4,0.1-118.8,0-178.3,0.2
                                        c-6.7,0-11.4-1.8-16-6.9c-21-23.2-42.4-46-63.6-69c-24.6-26.8-49.4-53.6-74.1-80.4c-0.4-0.5-0.8-1-2-1.1c-1.1,1.8-0.6,4-0.6,6
                                        c0,45.5,0,90.9,0,136.4c0,1.8,0,3.7,0,5.5c-0.2,6.2-1.1,7.3-7.4,7.3c-47.8,0.1-95.5,0-143.3,0c-2,0-4,0-5.7-1.4
                                        C0,326.2,0,325.9,0,325.5z"/>
                                    </g>
                                </svg>