
                                <svg
                                    version="1.1"
                                    id="Calque_1"
                                    xmlns="http://www.w3.org/2000/svg"
                                    xmlns:xlink="http://www.w3.org/1999/xlink"
                                    x="0px"
                                    y="0px"
                                    viewbox="0 0 491.2 325.1"
                                    style="enable-background:new 0 0 491.2 325.1;"
                                    xml:space="preserve">
                                    <defs>
                                        <lineargradient id="logo-gradient" x1="50%" y1="0%" x2="50%" y2="100%">
                                            <stop offset="0%" stop-color="#fff">
                                                <animate
                                                    attributename="stop-color"
                                                    values="#fff; #1f47b6; #fff"
                                                    dur="20s"
                                                    repeatcount="indefinite"></animate>
                                            </stop>
                                            <stop offset="100%" stop-color="#1f47b6">
                                                <animate
                                                    attributename="stop-color"
                                                    values="#1f47b6; #fff; #1f47b6"
                                                    dur="20s"
                                                    repeatcount="indefinite"></animate>
                                            </stop>
                                        </lineargradient>
                                    </defs>
                                    <g>
                                        <path
                                            fill="url(#logo-gradient)"
                                            d="M200.9,163c0,51.5,0,103,0,154.5c0,7.4-0.2,7.6-7.5,7.6c-21.5,0-43,0-64.5,0c-5.9,0-6.5-0.6-6.5-6.7
                                            c0-103.6,0-207.3,0-310.9c0-7.2,0.3-7.5,7.7-7.5c21.3,0,42.7,0,64,0c6.1,0,6.8,0.7,6.8,6.9C200.9,59,200.9,111,200.9,163z"/>
                                        <path
                                            fill="url(#logo-gradient)"
                                            d="M368.8,163c0,51.5,0,103,0,154.5c0,7.6-0.1,7.7-7.4,7.7c-21.5,0-43,0-64.5,0c-6,0-6.5-0.4-6.5-6.6c0-104,0-207.9-0.1-311.9
                                            c0-4.6,1.3-6.6,6.3-6.6c21.8,0.2,43.7,0.1,65.5,0.1c6.2,0,6.7,0.5,6.7,7C368.8,59,368.8,111,368.8,163z"/>
                                        <path
                                            fill="url(#logo-gradient)"
                                            d="M115.3,268c0,17-0.1,34,0.1,51c0,4.2-1.2,6.1-5.7,6c-34.1-0.1-68.3-0.1-102.4-0.1c-6.6,0-7.2-0.5-7.2-7.1
                                            c0-33.5,0-67,0-100.4c0-6.7,0.5-7.2,7-7.2c34,0,68,0,101.9-0.1c4.8,0,6.4,1.6,6.4,6.4C115.1,233.7,115.3,250.8,115.3,268z"/>
                                        <path
                                            fill="url(#logo-gradient)"
                                            d="M433.9,210.1c17,0,34,0.1,51-0.1c4.5,0,6.3,1.5,6.3,6.1c-0.1,34.3-0.1,68.7,0,103c0,4.9-2.2,5.8-6.5,5.8
                                            c-34.2-0.1-68.3-0.1-102.5,0c-4.8,0-6.4-1.8-6.4-6.5c0.1-34,0.1-68,0-102c0-4.8,1.9-6.5,6.6-6.4
                                            C399.6,210.2,416.8,210.1,433.9,210.1z"/>
                                        <path
                                            fill="url(#logo-gradient)"
                                            d="M380.4,123.4c0-11.5,0-23,0-34.4c0-4.9,1.3-5.7,5.7-3.9c25.7,10.9,51.4,21.8,77,32.8c2.2,1,3.8,3.6,5.6,5.5
                                            c-1.9,1.9-3.4,4.5-5.7,5.4c-25.8,11.1-51.7,22-77.5,33c-4,1.7-5.2,0.1-5.1-3.6C380.4,146.7,380.4,135,380.4,123.4
                                            C380.4,123.4,380.4,123.4,380.4,123.4z"/>
                                        <path
                                            fill="url(#logo-gradient)"
                                            d="M110.9,123.7c0,11.3,0,22.7,0,34c0,5-1,5.8-5.5,3.9c-25.8-10.8-51.6-21.6-77.2-32.7c-2.3-1-3.8-3.7-5.7-5.6
                                            c1.9-1.8,3.5-4.4,5.9-5.4c25.6-11.1,51.4-22,77.1-32.9c4.1-1.8,5.4-1,5.4,3.7C111,100.4,110.9,112,110.9,123.7z"/>
                                    </g>
                                </svg>