<?xml version="1.0" encoding="utf-8"?>
<svg version="1.1" id="Calque_1" xmlns="http://www.w3.org/2000/svg" xmlns:xlink="http://www.w3.org/1999/xlink" x="0px" y="0px"
	 viewBox="0 0 316.7 423.1" style="enable-background:new 0 0 316.7 423.1;" xml:space="preserve">
<style type="text/css">
	.xx0{fill:#FEFEFE;}
	.xx1{fill:#DC0000;}
	.xx2{fill:#FECD00;}
</style>
<path class="xx0" d="M159.7,137.8c6.5-13.3,12.6-26,18.8-38.6c15.6-31.2,31.2-62.3,46.8-93.4c1.8-3.7,4.4-5.4,8.6-5.4
	c22,0.1,44,0.1,66,0c4.3,0,7.4,1.4,9.2,5.4c0.2,0.5,0.5,0.9,0.8,1.3c5.1,6.1,4,11.7,0.2,18.5c-33.7,59.3-67,118.9-100.6,178.3
	c-1.3,2.4-1.2,4,0.1,6.3c35.5,64,70.9,128.2,106.4,192.2c2.2,3.9,1.5,6.8-0.2,10.6c-3.6,8.1-9,10.7-18,10.4
	c-20.1-0.7-40.3-0.3-60.5-0.2c-4.4,0-7-1.5-9-5.5c-23.5-46.3-47.6-92.4-72.3-138.9c-2.8,5.9-5.5,11.6-8.3,17.3
	c-19.6,40.3-39.2,80.6-58.7,120.9c-2.1,4.3-4.7,6.2-9.6,6.1c-21.3-0.2-42.7-0.2-64,0c-4.9,0-8.4-1.1-10.4-5.8
	c-0.6-1.5-1.5-3-2.5-4.3c-2.7-3.7-2.4-7-0.2-11c22.5-41.1,44.8-82.2,67.2-123.3c12.2-22.5,24.4-45,36.7-67.4
	c1.2-2.1,1.3-3.6,0.1-5.8C73.2,144.5,40.1,83.3,6.9,22.2c-2.3-4.3-2.1-7.6-0.1-12C10.4,2.5,15.6,0,24.1,0.3
	c19.8,0.6,39.7,0.3,59.5,0.1c5.6-0.1,8.6,1.9,11.1,7C116.2,50.6,138.7,93.4,159.7,137.8z"/>
<path class="xx1" d="M162.9,280c-2.1-4-4.3-8-6.8-12.8c-2.3,4.7-4.2,8.7-6.2,12.7c-2.1,1.7-4.6,1.7-7.1,1.7c-20.2,0-40.4,0-60.7,0
	c-2.4,0-5,0.4-7-1.7c10-18.7,19.3-37.9,30.4-55.9c6.9-11.1,7.2-19.6,0.1-30.8c-10.6-16.8-19.1-34.9-28.5-52.4c2-1.6,4.4-1.3,6.7-1.4
	c21.8,0,43.6,0,65.4,0c2,0,4,0.1,5.9,0.9c1.5,2.8,3.1,5.7,4.9,9.1c1.7-3.5,3.1-6.4,4.5-9.3c2.1-0.6,4.2-0.7,6.4-0.7
	c20.1,0,40.3,0,60.4,0c2.6,0,5.4-0.5,7.7,1.4c-9.5,17.1-19,34.2-28.4,51.3c-2.7,4.9-7.5,9.9-7.5,14.8c0,5,4.6,10,7.3,14.9
	c9.9,18,19.9,36,29.8,54c0.7,1.3,1.2,2.7,1.9,4c-1.8,2-4.2,1.7-6.5,1.7c-22,0.1-44.1,0-66.1,0C167.2,281.6,164.8,281.6,162.9,280z"
	/>
<path class="xx2" d="M162.9,280c26.4-0.1,52.8-0.1,79.2-0.2c10.8,19.3,21.6,38.5,32.3,57.8c12.3,22.2,24.6,44.5,36.9,66.8
	c2.6,4.6-2.6,13.7-7.9,13.7c-22,0-43.9,0-65.9,0.1c-2.2,0-3.6-0.6-4.7-2.7c-23-44.4-46.1-88.8-69.1-133.1
	C163.3,281.6,163.1,280.8,162.9,280z"/>
<path d="M155.1,140.3c-1.6,0.2-3.3,0.4-4.9,0.4c-24.3,0-48.7,0-73,0c-10.5-19.2-21-38.4-31.5-57.6c-11.4-21-22.8-42-34.2-63
	c-3.2-5.9,2.1-14.6,8.7-14.6c21.3,0,42.6,0,64,0c2.5,0,4.2,0.2,5.5,2.9c21.4,42.9,43.6,85.4,64.2,128.7
	C154.4,138.1,154.7,139.2,155.1,140.3z"/>
<path class="xx2" d="M75,279.9c24.9,0,49.9,0,74.8,0.1c-8.5,19.7-18.6,38.6-27.9,57.9c-12,25-24.2,50-36.2,75
	c-1.8,3.7-3.7,5.4-8.2,5.3c-20.5-0.3-41-0.1-61.5-0.1c-6.9,0-12.1-8.5-8.9-14.5c21.9-40.2,43.8-80.3,65.7-120.5
	C73.5,282.1,74.3,281,75,279.9z"/>
<path d="M239,140.8c-22.9,0-45.8,0-68.6,0c-2,0-4,0.4-5.8-0.7c13.8-30.9,29.8-60.7,44.7-91.1c6.6-13.4,13.5-26.6,20.1-40
	c1.3-2.6,2.7-3.6,5.6-3.5c21.5,0.1,43,0.1,64.4,0.1c5.3,0,11,9,8.5,13.5c-22.5,40.1-45.1,80.1-67.7,120.2
	C239.9,139.8,239.4,140.3,239,140.8z"/>
</svg>
