<?xml version="1.0" encoding="utf-8"?>
<svg version="1.1" id="Calque_1" xmlns="http://www.w3.org/2000/svg" xmlns:xlink="http://www.w3.org/1999/xlink" x="0px" y="0px"
	 viewBox="0 0 316.7 423.1" style="enable-background:new 0 0 316.7 423.1;" xml:space="preserve">
<style type="text/css">
	.zz0{fill:#FEFEFE;}
	.zz1{fill:#C7102E;}
	.zz2{fill:#012169;}
</style>
<path class="zz0" d="M159.7,137.6c9.7-19.5,18.9-38.4,28.3-57.2C200.2,56,212.7,31.6,224.7,7c2.4-4.9,5.5-6.7,10.9-6.6
	c21.2,0.2,42.3,0.2,63.5,0c4.9,0,8.4,1.4,10.4,5.9c0.7,1.7,1.6,3.3,2.7,4.8c2.5,3.4,2.1,6.5,0.1,10.1
	c-15.9,28.2-31.7,56.4-47.6,84.7c-18.3,32.6-36.6,65.2-55,97.7c-1.4,2.5-1.4,4.2,0,6.7c35.5,64,70.9,128.2,106.4,192.2
	c2,3.7,1.6,6.5,0,10.2c-3.6,8.2-9.1,11.1-18.3,10.7c-20-0.8-40-0.3-60-0.2c-4.6,0-7.3-1.4-9.4-5.6c-23.5-46.4-47.6-92.4-72.2-138.7
	c-3.8,7.8-7.4,15.6-11.1,23.3c-18.6,38.2-37.2,76.4-55.7,114.7c-2.1,4.4-4.8,6.5-9.9,6.4c-21.5-0.2-43-0.2-64.5,0
	c-4.5,0-7.7-1.3-9.5-5.5c-0.6-1.5-1.5-3-2.5-4.3c-2.9-3.8-2.6-7.3-0.3-11.4c34.3-62.8,68.4-125.7,102.7-188.5
	c2.1-3.8,1.9-6.5-0.1-10.2C72.2,142.7,39.3,81.9,6.4,21.2c-2-3.6-2.1-6.8,0.2-10.2c1.3-1.9,2.5-3.9,3.5-6c1.6-3.3,4.2-4.5,7.7-4.5
	c22.8,0,45.7,0,68.5,0c4.1,0,6.1,2.3,7.8,5.7C115.9,49.8,138.5,93.1,159.7,137.6z"/>
<path class="zz1" d="M227.9,255.2c-15.2,0-30.5,0.2-45.8-0.1c-4.2-0.1-5.2,1.2-5.2,5.3c0.2,15.3,0.1,30.6-0.9,46.3
	c-6.6-12.9-13.1-25.7-20.1-39.4c-5.5,11.8-10.8,22.8-16,33.9c-0.3-0.1-0.6-0.2-0.9-0.3c0-13.7-0.1-27.5,0.1-41.2
	c0-3.4-0.8-4.5-4.4-4.5c-15.3,0.2-30.6,0.1-46.7,0.1c5.8-10.7,11.3-20.7,16.6-30.8c2.8-5.4,8.2-10.6,7.8-16.3
	c-0.4-5.5-5-10.6-7.9-15.9c-3.1-5.7-6-11.5-9.4-17c-2.1-3.6-0.9-4,2.5-3.9c11.8,0.1,23.7-0.2,35.5,0.2c5.1,0.2,5.9-1.5,5.8-6.1
	c-0.3-19-0.1-38,0.6-57.3c6.6,13.6,13.1,27.2,20,41.5c5.6-11.9,10.9-23.1,16.2-34.5c1.4,1.3,0.9,2.7,0.9,3.8
	c0,15.8,0.1,31.7-0.1,47.5c0,3.8,0.8,5.1,4.9,5c13.1-0.3,26.3-0.1,40.3-0.1c-4.4,7.9-7.8,15.8-12.8,22.4c-7,9.3-6.4,17.2,0,26.6
	c6.7,9.9,11.8,20.8,17.6,31.3C227.4,252.6,228.4,253.5,227.9,255.2z"/>
<path class="zz2" d="M38.4,5.5c16.6,0,32.1,0,47.5,0c2.1,0,2.8,1.2,3.6,2.8c11.9,23.6,23.8,47.1,35.7,70.7c0.7,1.4,1.3,3.1,1.3,4.7
	c0.1,12.4,0.1,24.9,0.1,38.9C96.8,83.1,68,44.8,38.4,5.5z"/>
<path class="zz2" d="M189.8,122.4c0-11.9,0-22.4,0-32.8c0-1.9,0.9-3.5,1.7-5.1c12.6-25.1,25.1-50.1,37.6-75.2c1.3-2.7,2.7-3.9,6-3.9
	c12.8,0.2,25.6,0.1,38.4,0.1c1.1,0,2.3-0.4,3.7,0.9C248.4,44.6,219.6,82.9,189.8,122.4z"/>
<path class="zz1" d="M201.6,143.4c-3.5,0-5.7,0-7.8,0c-4.2-0.1-5.3-1.9-3.3-5.5c0.5-1,1.3-1.9,2-2.8c31.7-42,63.4-84,94.9-126.2
	c4.1-5.6,9.3-3.3,14.1-3.2c4,0.1,4.3,4.9,6.1,7.7c1.1,1.6-1.1,2.9-2,4.2c-22.2,29.6-44.5,59.1-66.7,88.6
	c-7.2,9.6-14.8,18.9-21.5,28.8C213,141.3,208.5,145.7,201.6,143.4z"/>
<path class="zz1" d="M116,283.2c2.2,0,4.3,0,6.5,0c4.3,0.1,5.5,2.2,3.1,5.9c-1.8,2.8-4,5.3-6,8C90.4,335.9,61.1,374.6,32,413.5
	c-2.6,3.4-5.1,5.3-9.4,4.7c-2.4-0.3-5-0.3-7.5,0c-3.3,0.4-4.6-1.4-6.1-3.8c-1.5-2.5,0.4-3.7,1.5-5.1c30.2-40.2,60.5-80.2,90.6-120.5
	c3.1-4.1,6.1-6.6,11.4-5.7C113.7,283.3,114.9,283.2,116,283.2z"/>
<path class="zz2" d="M275.6,418.2c-13.7,0-26.4,0-39,0c-2,0-2.9-1-3.7-2.6c-14-27.4-28.1-54.7-42.1-82c-0.4-0.7-0.9-1.5-0.9-2.3
	c-0.1-8.6,0-17.1,0-26.9C218.8,342.7,246.9,380,275.6,418.2z"/>
<path class="zz2" d="M40.7,418.2c28.7-38.1,56.8-75.4,84.9-112.7c0,9.6,3,19.2-1.7,28.6c-13.2,26.6-26,53.4-38.8,80.2
	c-1.4,3-3,4.1-6.4,4C66.4,418,54.1,418.2,40.7,418.2z"/>
<path class="zz1" d="M210.7,283.1c8.2,0,15.3,0.1,22.4-0.1c2.8-0.1,3.5,2.1,4.9,3.7c25.9,30.6,45.1,65.4,63.8,100.4
	c2.7,5,5.1,10.1,8.3,14.8c2.8,4.2,3.1,7.7-1.1,11.6C276.5,370.5,244,327.3,210.7,283.1z"/>
<path class="zz1" d="M105.5,143.4c-8.2,0-15.5,0-22.7,0c-1.5,0-2.4-0.8-3.3-1.9c-4.2-5.6-8.3-11.2-11.6-17.4
	C49.1,89.6,30.3,55.1,11.5,20.5c0,0,0.2-0.2,0.9-0.7C43.2,60.8,74,101.7,105.5,143.4z"/>
</svg>
