<?xml version="1.0" encoding="utf-8"?>
<svg version="1.1" id="Calque_1" xmlns="http://www.w3.org/2000/svg" xmlns:xlink="http://www.w3.org/1999/xlink" x="0px" y="0px"
	 viewBox="0 0 316.7 423.1" style="enable-background:new 0 0 316.7 423.1;" xml:space="preserve">
<style type="text/css">
	.ww0{fill:#FEFEFE;}
	.ww1{fill:#C50B1E;}
	.ww2{fill:#FEC300;}
	.ww3{fill:#AB1518;}
	.ww4{fill:#9B8602;}
	.ww5{fill:#9C8604;}
	.ww6{fill:#CBCBCB;}
	.ww7{fill:#C5A602;}
	.ww8{fill:#7F1C11;}
	.ww9{fill:#A91518;}
	.ww10{fill:#C7B200;}
	.ww11{fill:#CCB500;}
	.ww12{fill:#9F1F16;}
	.ww13{fill:#9F2115;}
	.ww14{fill:#FBC201;}
	.ww15{fill:#CB6B97;}
	.ww16{fill:#C9C9CB;}
	.ww17{fill:#CD6A97;}
	.ww18{fill:#986E7E;}
	.ww19{fill:#0F4D99;}
	.ww20{fill:#144F97;}
	.ww21{fill:#ADABA8;}
	.ww22{fill:#A0A0A0;}
	.ww23{fill:#1D5081;}
	.ww24{fill:#A88C05;}
	.ww25{fill:#A91918;}
	.ww26{fill:#A81618;}
	.ww27{fill:#704F06;}
	.ww28{fill:#907B07;}
	.ww29{fill:#988107;}
	.ww30{fill:#C9C9C9;}
	.ww31{fill:#C9B300;}
	.ww32{fill:#B7A306;}
	.ww33{fill:#A08400;}
	.ww34{fill:#084B9E;}
	.ww35{fill:#094997;}
	.ww36{fill:#07499B;}
	.ww37{fill:#A5A6A7;}
	.ww38{fill:#A4A3A2;}
	.ww39{fill:#A6A5A3;}
	.ww40{fill:#AB9949;}
	.ww41{fill:#B99F4A;}
	.ww42{fill:#CACBCD;}
	.ww43{fill:#978035;}
	.ww44{fill:#0258B7;}
	.ww45{fill:#C6B200;}
	.ww46{fill:#642724;}
	.ww47{fill:#CBB500;}
	.ww48{fill:#816B0F;}
	.ww49{fill:#693B08;}
	.ww50{fill:#C49E04;}
	.ww51{fill:#928A7F;}
	.ww52{fill:#348F55;}
	.ww53{fill:#C5C7C9;}
	.ww54{fill:#AB1519;}
	.ww55{fill:#9C1516;}
	.ww56{fill:#5A100C;}
	.ww57{fill:#784808;}
	.ww58{fill:#902711;}
	.ww59{fill:#237345;}
	.ww60{fill:#FCC300;}
	.ww61{fill:#B8B6A7;}
	.ww62{fill:#86646D;}
	.ww63{fill:#825963;}
	.ww64{fill:#AD1A18;}
	.ww65{fill:#AE1D17;}
	.ww66{fill:#AE1D18;}
	.ww67{fill:#AE2417;}
	.ww68{fill:#AE1C18;}
	.ww69{fill:#776901;}
	.ww70{fill:#AF121A;}
	.ww71{fill:#BEAC00;}
	.ww72{fill:#C0AD00;}
	.ww73{fill:#2C6959;}
	.ww74{fill:#EACB87;}
	.ww75{fill:#A7A8AB;}
	.ww76{fill:#BD730A;}
	.ww77{fill:#C28E06;}
	.ww78{fill:#C18407;}
	.ww79{fill:#CACACA;}
	.ww80{fill:#A6A6A8;}
	.ww81{fill:#C7B000;}
	.ww82{fill:#898014;}
	.ww83{fill:#9E8D05;}
	.ww84{fill:#A18F06;}
	.ww85{fill:#8C231F;}
	.ww86{fill:#3E518D;}
	.ww87{fill:#C5B200;}
	.ww88{fill:#B5A000;}
	.ww89{fill:#B8A400;}
	.ww90{fill:#B09C00;}
	.ww91{fill:#1740C3;}
	.ww92{fill:#1540C3;}
	.ww93{fill:#0238F3;}
</style>
<path class="ww0" d="M24.1,0.3c19.8,0.6,39.7,0.3,59.5,0.1"/>
<path class="ww0" d="M234,0.4c22,0.1,44,0.1,66,0"/>
<path class="ww0" d="M314,22c-6.9,9.9-12.2,20.8-18.1,31.2c-28.4,50.3-56.7,100.7-85,151.1c-1.3,2.3-2,4-0.5,6.7
	c33.7,60.7,67.2,121.4,100.8,182.1c0.7,1.3,1.1,3.1,2.8,3.8c0,3.3,0,6.7,0,10c-2.7,0.3-3.2-1.9-4.1-3.6
	c-15.6-28.2-31.2-56.5-46.9-84.7c-4.8-9-9.8-17.8-14.7-26.6c-0.7-1.1-1.4-2.2-2-3.4c-0.3-0.8-0.6-1.5-0.9-2.3
	c-0.3-0.7-0.7-1.4-1.1-2.1c-0.5-0.7-0.9-1.3-1.3-2.1c-0.4-0.8-0.9-1.5-1.3-2.3c-4.1-7.5-8.5-14.9-12.4-22.5
	c-1.8-3.1-3.6-6.2-5.2-9.5c-0.6-1.2-1.4-2.2-2-3.4c-0.7-1.3-1.4-2.7-2.1-4c-0.7-1.6-1.7-3-2.6-4.3c-1-1.9-1.9-3.8-2.9-5.7
	c-0.4-0.7-0.8-1.5-1.2-2.2c-0.8-1.2-1.5-2.5-2.2-3.8c-0.6-1.3-1.3-2.7-2-3.9c-0.4-0.5-0.7-1.1-1.1-1.6c-2.1-3.6-4.2-7.1-5.4-11.1
	c1.7-5.1,5.2-9.4,7.3-14.3c2.5-4.1,4.7-8.4,7.2-12.5c0.7-1.1,1.3-2.3,1.9-3.5c0.7-1.4,1.4-2.7,2.3-4c1.5-2.1,2.4-4.7,3.9-6.8
	c0.5-0.7,0.9-1.5,1.3-2.3c1.4-2.4,2.1-5.1,3.7-7.3c9.3-15.8,18.3-31.8,26.9-48c14.6-25,28.4-50.4,42.7-75.6c2.4-4.2,4.8-8.4,7-12.7
	c2.8-5.3-1-12.3-7-12.4c-21-0.2-41.9,0-62.9-0.1c-3.9,0-5.4,2.5-6.9,5.4c-16.3,31.7-32.4,63.5-48.1,95.4
	c-6,12.1-11.5,24.3-17.3,36.4c-0.9,1.8-1,4.8-3.7,4.7c-2.7-0.1-3.2-3.1-4.1-5.1c-5.4-11.8-11.1-23.4-16.7-35.1
	C124.2,77.6,107,45.8,91.2,13.2c-1.8-3.7-4.2-5-8.2-5c-19.7,0.2-39.3,0.1-59,0.1c-10,0-13.8,5.8-9.1,14.5c9.5,18,19.3,35.7,29,53.6
	c5.9,11,12,21.9,17.8,33c11.6,21.3,23.1,42.7,34.7,64.1c5.5,10.2,11.1,20.5,16.7,30.7c2,3.8,1.9,7.1-0.1,10.8
	c-11.5,20.7-22.6,41.5-33.9,62.2c-7.5,13.7-15.2,27.3-22.3,41.3c-15.8,28.4-31,57.1-46.7,85.5c-3.5,6.4,0.6,13.6,7.9,13.6
	c20,0.1,40-0.1,60,0.1c4.5,0,6.5-2.3,8.2-5.8c15.4-31.2,30.1-62.8,45.8-93.9c5.5-12.5,12.3-24.4,17.6-37c0.2-0.4,0.4-0.8,0.6-1.3
	c1.6-2.5,2.6-5.3,3.6-8.1c0.2-0.4,0.4-0.8,0.6-1.3c3.5-4.4,4.5-0.3,6,1.8c0.2,0.4,0.4,0.8,0.6,1.2c1,2.4,2.2,4.7,3.4,7
	c0.2,0.4,0.4,0.8,0.6,1.1c0.7,1.7,1.6,3.4,2.5,5.1c0.2,0.4,0.4,0.8,0.5,1.2c0.5,1.2,1.5,2.2,2,3.4c4.2,9.2,9.4,17.9,14.1,26.8
	c11.9,21.7,23,43.9,34.3,65.9c5,9.8,10.4,19.3,15.1,29.3c1.6,3.3,3.9,4.5,7.5,4.5c20.3-0.1,40.6-0.1,60.9,0c3.5,0,6-1.1,7.8-4.2
	c0.9-1.6,1.6-3.8,4.3-3.5c0,3,0,6,0,9c-2.3,4.1-5.6,5.3-10.3,5.3c-21.7-0.2-43.3-0.2-65,0c-4.6,0-7.3-1.4-9.4-5.6
	c-23.5-46.3-47.5-92.4-72.2-138.7c-4,8.4-8,16.7-12,25c-18.4,37.9-36.8,75.8-55.2,113.7c-1.9,3.9-4.5,5.6-9,5.6
	c-21.7-0.2-43.3-0.2-65,0c-4.5,0-7.7-1.1-9.5-5.5c-0.6-1.5-1.5-3-2.5-4.3c-3-4-2.5-7.5-0.2-11.9c34.4-62.9,68.6-125.9,103-188.9
	c1.7-3.1,1.8-5.3,0.1-8.4C73.5,144.2,40.4,83.1,7.2,22c-1.8-3.2-1.5-6-0.1-9.4C10.7,4,16.4,0.9,26.1,1.3c19.6,0.8,39.3,0.4,59,0.2
	c5.1,0,8,1.6,10.4,6.4c21.4,42.9,43.6,85.4,64.3,128.7c0.3,0.5,0.5,1.1,1.1,2.3c3.5-7.2,6.5-13.8,9.7-20.2
	C189,81.5,207.6,44.5,226.1,7.4c2.1-4.3,5-6,9.8-5.9c20.7,0.2,41.3,0.4,62-0.1c6.9-0.1,11.5,1.8,14,8.3c0.5,1.2,1.4,2.2,2.1,3.3
	C314,16,314,19,314,22z"/>
<path class="ww1" d="M263.8,318c13.1,23.6,26.2,47.3,39.4,70.9c3.4,6.1,6.1,12.7,10.8,18.1c0,1,0,2,0,3c-0.4,0.2-1,0.4-1.1,0.7
	c-2.6,8-8.5,8.8-16,8.6c-19.3-0.5-38.7-0.2-58-0.2c-2,0-3.7,0.2-4.9-2.2c-16.9-33-33.9-65.9-50.9-98.8c1.8-2,4.2-1.8,6.5-1.8
	c22.5-0.1,45,0,67.5,0C259.5,316.4,261.8,316.5,263.8,318z"/>
<path class="ww2" d="M55.8,318c9.1-17,18.2-34,27.4-51c9.7-17.9,19.3-35.7,29.2-53.4c1.7-3,1.7-5.2,0-8.2
	c-16.6-30.4-33-60.8-49.5-91.2c-0.7-1.3-1.3-2.7-1.9-4c1.8-2,4.2-1.7,6.5-1.7c22.3-0.1,44.6,0,66.8,0c2.3,0,4.7-0.1,6.6,1.6
	c6.5,13.2,13.1,26.4,19.9,40.2c6.7-13.8,13.3-27.3,19.8-40.8c2.2-1.1,4.5-1,6.8-1c20.9,0,41.9,0,62.8,0c2.6,0,5.4-0.5,7.5,1.7
	c-8.7,16-17.3,32.1-27,47.6c-6.6-3-13.2-6.4-20.8-5.7c-0.6,0.1-1.4-0.2-1.9-0.6c-4.2-3.3-9.1-3.8-14.2-3.1c-3.1,0-6.5-3.2-8.9-1.4
	c-2.8,2.1-5.1,0.9-7.7,0.9c-7.4,2.7-14.9,4.9-22.8,5.1c-1.4,0-2.6,1.4-4,1.9c-2.8,1-5.6,2-6,5.6c-2.7,4.8-1.9,9.6,2.3,13.1
	c2,1.7,4.2,3.1,6.3,4.8c4.2,3.5,7.7,7.5,10.7,12.2c2.1,3.2,0.4,3.4-1.7,3.6c-3.6,0.4-7.3,0.3-10.9,0.1c-3.8-0.2-5,1.3-4.8,4.9
	c0.2,5.3,0.1,10.6,0,15.9c0,2.1,0.1,4.4-2.3,5.7c-3.8,1.1-7.4,0.1-10.9-1.3c-2.8-6.5-1.8-13.2-0.4-19.7c0.5-2.4,0.5-4.1-1-5.8
	c-0.1-0.3-0.2-0.6-0.2-1c-0.2-2,2.5-3.5,1-5.6c-1.5-2.1-4.3-2.9-6.4-3.4c-2.4-0.6-5.1,1.6-7.3,2.9c-2.1,1.3,0,2.8,0.6,4.2
	c0.3,0.8,0.4,1.6,0.1,2.4c-1.8,2-1.6,3.8-1,6.6c1.6,6.7,1.2,13.6,0.3,20.4c-0.7,1.6-2.2,2.4-3.7,3.2c-2,1.1-4.7,2-4.3,4.8
	c0.4,3.2,1.6,6.1,4.9,7.6c1.3,0.6,3,0.7,3.9,2c0.9,1.9,0.8,3.9,0.3,6c-0.6,1.7-2.1,2.3-3.6,3.1c-5.8,3.1-6.2,6.2-1.7,11.6
	c2.2-1-2.6-6.5,3.3-5.2c2.4,7.3,2.1,14.5-0.3,21.7c-0.4,1.2-1.2,2.3-1.4,3.7c-0.3,1.2-1,2.2-1.9,3c-0.6,0.6-0.8,1.4-0.8,2.3
	c0,0.4,0,0.8-0.1,1.3c-0.1,1.1,0,2.1,0.6,3c7.8,0.9,15.6,0.9,23.4,0c0.2-0.6,0.3-1.2,0.4-1.8c0-0.6,0-1.2,0-1.8
	c0-0.6-0.1-1.2-0.2-1.8c-0.3-1.3-1.8-1.6-2.3-2.8c-0.7-1.7-0.4-3.9-2-5.3c-1.7-2.5-1.7-5.3-1.6-8.1c0.1-6.4-0.3-12.8,0.2-19.2
	c0.3-1.7,1.6-2.8,2.8-4c3.7-4,3.1-7.5-1.9-10.1c-0.6-0.3-1.1-0.7-1.4-1.3c-0.6-1.7-0.6-3.3,0.6-4.8c3.8-1.9,7.7-1.1,11.5,0
	c1.2,0.4,2.2,1.2,2.6,2.5c1,11.6,0.2,23.1,0.4,34.7c0.1,2.8-0.1,5.6,1,8.3c0.5,1.4,1.3,2.7,2.1,4c0.8,1.2,0.8,2.7,1.2,4
	c-5.5,12.5-11.4,24.9-17.9,37c-1.7,1.4-3.7,1.4-5.7,1.4c-21.9,0-43.9,0.1-65.8,0C59.4,319.6,57.4,319.6,55.8,318z"/>
<path class="ww1" d="M141,110c-26.7,0.1-53.3,0.1-80,0.2C50.1,90.2,39.1,70.2,28.2,50.3c-5.4-9.9-10.8-19.9-16.1-29.8
	c-2.7-5,2.7-13.9,8.4-13.9c21.7,0,43.3,0,65,0c2.3,0,3.9,0.4,5.2,2.8c16.6,33.1,33.3,66.1,50,99.2C140.9,109,140.9,109.5,141,110z"
	/>
<path class="ww1" d="M257.9,110.1c-23.8,0-47.6,0-71.4-0.1c-2,0-4,0.5-5.9-0.6C197.4,76,214.1,42.6,230.8,9.1c1-1.9,2.2-2.6,4.3-2.6
	c22.2,0.1,44.3,0,66.5,0.1c4,0,9.5,9.3,7.6,12.7C292.1,49.6,275,79.9,257.9,110.1z"/>
<path class="ww1" d="M55.8,318c25.7,0.1,51.4,0.1,77,0.2c-9.5,19.7-19,39.4-28.5,59.1C98.2,390,92,402.6,86,415.4
	c-1.3,2.7-2.8,3.9-6,3.8c-21.3-0.2-42.6-0.1-63.9-0.1c-4.9,0-10.8-8.9-8.5-13c15.8-29,31.6-58,47.4-87
	C55.1,318.7,55.5,318.4,55.8,318z"/>
<path class="ww2" d="M263.8,318c-26.9,0.1-53.7,0.1-80.6,0.2C178,309.3,173,300.4,169,291c3-2.2,6.1-0.1,9.1,0c6.1,1,12.1,1,18.1,0
	c4.2-1.8,9-1.6,13.3-3.1c4.3-1.3,8.5-2.8,12-5.8c4.8-4.1,7.2-9.3,7.3-15.7c0-3-1.1-6.3,1.4-9c4.2,7.6,8.5,15.1,12.7,22.7
	c-1.1,1.7-3.6,1.4-4.4,3.4c-0.1,0.6-0.2,1.2-0.2,1.8c0,0.8,0,1.6,0.1,2.4c0.1,0.4,0.2,0.8,0.4,1.2c3.4,1.1,7.5-0.9,10.3,2.4
	C253.9,300.1,258.8,309.1,263.8,318z"/>
<path class="ww3" d="M230.2,257.3c0,2-0.1,4-0.1,5.9c0,15.1-5.1,21.7-19.9,25.7c-6.6,0.4-12.5-1.4-17.4-6c-1.3-1.5-2.3-3.2-3.6-4.8
	c-1.2-1.7-1.8-3.7-2.2-5.7c-0.4-3.8-0.1-7.6-0.2-11.4c0-1.6,0.3-3.4-1.4-4.5c-0.4-0.1-0.7-0.2-1.1-0.2c0.3,7.7,0.4,15.3,0,23
	c-0.2,1.2-0.8,2.2-1.6,3.1c-0.9,0.8-1.9,1.3-3.2,0.9c-2.1-1.5-1.7-3.8-1.7-5.9c0.1-7.8-0.4-15.6,0.3-23.4c0.2-1.7-0.3-2.9-1.6-3.9
	c-0.8-0.8-1.3-1.8-1.6-2.9c-1.5-5.5-1.8-10.8,1.2-16c2.3-3.4,5.5-5.7,9.4-7.1c1.6-0.5,3.2-0.5,4.9-0.4c6,0.7,9.5,4.7,11.3,10
	c1.3,3.9,3.5,5.1,7.3,5c4.1,0,8.3-1.2,12.1,1.4c0.6,1.2,1.2,2.5,1.8,3.7c-1.1,2.2-3,2.2-5.1,2.1c-4.9-0.4-9.8-0.1-14.9,0.3
	c3.7-0.3,6.3,0.3,5,4.9c-0.7,2.5,2.2,4.9,0.7,7.6c-0.3,0.4-0.7,0.6-1.2,0.6c-3.5-0.9-3.3-5.6-6.7-6.6c-0.2,3.1,5.3,2.8,3.7,6.7
	c-1,0.7-2.1,0.9-3.2,1.3c-5,1.7-6.5,0.4-6.1-5c-1.1,4-1.1,8.2-0.9,12.1c0.4,6.2,4.2,12.4,13,13.2c5.7,0.5,11.9-1.1,14.6-9
	c0.7-2.2,1.4-4,1-6.6c-0.8-5.3,0.7-10.7-0.2-16.2c-0.2-1.2,0.8-2.1,2.2-2.2C226.4,250.4,228.3,253.9,230.2,257.3z"/>
<path class="ww4" d="M143.8,220.2c1.9-1.3,1.1-3.3,1.2-5.1c0.1-6.2,0.1-12.3,0-18.5c-0.1-2.8,1-3.9,3.8-3.8c5,0.2,10,0,14.5,0
	c-2.4-5.9-7.4-10-11.6-14.8c0.7-1.4,1.6-1.7,2.9-0.9c3.1,1.7,10,1.3,12-1c1.5-1.7,2.8-2.3,4.5-0.7c3.3,2.9,5.5-2,7.8-1.2
	c2.8,0.9,4.8,2.8,7.1-0.5c1.3-1.8,2.5-0.6,3.6,0.5c2.6,1.7,12.9,1.9,15.4,0.3c0.7-0.3,1.4-0.2,2,0.1c1.5,2.4,3.1,4.3,6.6,3.2
	c2.1-0.7,3.3,1.5,4.5,3c-2.4,4.3-4.7,8.7-7.1,13c-5.7,2.8-11.5,1.9-17.4,0.8c-0.6-0.3-0.9-0.8-0.8-1.4c4.9-3.2,10.4-3.2,15.9-2.4
	c0,0,0-0.2,0.1-0.6c-8.9-0.4-17.7-1.7-26.6-0.8c-5.5-0.4-10.8,0.9-16.2,0.9c3.8,0.1,7.7-0.4,11.3,1.7c-1.7,4.1-5.8,1.4-8.4,3.1
	c-4.9,0.8-9.8,0.3-14.7,0.4c-1.8,0-3.6-0.1-5.3,0.7c-1.8,1.3-1.4,3.2-1.4,5c0,4.8,0,9.6,0,14.4c0,1.9,0.2,4-1.5,5.5
	C144.9,221.5,144.1,221.3,143.8,220.2z"/>
<path class="ww5" d="M154.1,177.9c-0.9-1-1.6,0.1-2.4,0.2c-4.3-2.5-8.6-4.8-9.6-10.5c-0.6-3.1-0.8-5.7,2-7.7c0.9-3.1,3.7-4.2,6-5.8
	c2.9-2.5,6.4-3.3,10.1-3.1c4.2,0.2,8.1-0.4,11.5-3.1c1.7-1.4,3.9-1.7,6-0.8c2.5,1.2,5,2,7.7,0.3c1.3-0.8,3.1-0.8,4.2,0.1
	c1.7,1.5,3,0.5,4.4-0.3c5.3-0.9,10.3-0.5,14.7,3.2c1.6,1.3,3.9,0.4,5.8,0.5c6.3,0.2,11.7,2.3,16.3,6.7c-1.2,2.4-1.8,5.2-3.9,7.1
	c-1.7-2.3-2.2-5.4-5.5-6.7c-5-1.9-7.2-1.1-8.8,3.9c-0.9,1.3-1.7,2.8-3.3,3.4c-1.1-0.7-2.3-1-3.5-0.2c-1.8-1.3-1.5-3-0.9-4.8
	c1.4-1.8,1.9-3.7,0.1-5.4c-2.8-2.5-6.1-3.2-9.8-2.3c-3,0.7-3.1,3.1-3.1,5.5c-0.1,1.4-0.2,2.9-1.4,4c-1.6,1.4-3.5-1.6-5.1,0.2
	c-1.3-0.1-2.1-1-2.6-2.1c-0.4-0.9-0.7-1.8-1-2.7c-0.4-1.9,0.7-4.4-2.5-5c-3.6-0.7-6.9-0.1-9.7,2.2c-2.1,1.8-1.4,3.8,0,5.7
	c-1.5,3.4,1,6.6,0.5,10c-0.2,0.4-0.5,0.8-0.9,1c-3.5,0.8-5.5-0.3-5-4.2c0.3-2.3-1.7-3.4-2.5-5.1c-0.6-3.3-1.5-5.9-6-5
	c-5,1.1-6.8,3.1-6.8,8.4c0.6,2,0.1,3.9-0.8,5.6c3-0.2,5,2.1,7.5,2.9c1,0.3,1.3,1.5,0.8,2.5C156.4,178,155.7,179.2,154.1,177.9z"/>
<path class="ww6" d="M193,193.8c6,0,11.9,0.1,17.9,0.1c-2.4,4.8-4.7,9.6-7.8,14c-2.9,1-4.1-0.8-5.1-3c-0.6-1.8-2-1.9-2.8-0.6
	c-1.4,2.2,1.1,2.5,2.2,3.4c1,0.9,1.9,1.8,2.8,2.8c2.2,2.5,1.4,4.1-1.7,4.9c-0.8,0.2-1.8-0.6-2.3,0.1c-0.4,0.6-0.2,1.6,0.4,2.2
	c1,0.9,1.7,0,2.6-0.4c3.7-1.6,7.2-2.3,10,1.6c0.3,0.4,0.5,0.7,0.8,1.1c-1.6,1.3-3.8,1.9-3.8,4.6c0.1,2.8-3.2,0.8-4,2.6
	c1.4,2.5,4.2,2.7,6.1,0.5c0.7-0.8,0.7-2.2,1.9-2.8c2,0.1,1.6,3.4,4,2.9c0.7,0.5,0.9,1.2,0.8,1.9c-0.4,1-3.1,1.8-0.4,3.2
	c1.4,0.7,2.2,1.9,3.3,3c1.7,0.8,2.2,2.6,3,4.1c-4.8-0.1-9.6-0.4-14.4-0.2c-3.3,0.1-4.9-0.5-5.7-4.2c-1.1-5.5-4.3-9.6-10.4-10.7
	c-2.8-0.3-3.9-2.1-3.9-4.8c-0.1-7.4-0.2-14.8,0.1-22.3C186.9,193.2,188.3,192.4,193,193.8z"/>
<path class="ww7" d="M224.6,246.9c-0.5,0.7-1.5,1.8-1.3,2c3.1,3.6-0.1,7.8,0.9,11.8c1.1,4.5,0.3,10.6-2.1,14.4
	c-1.3,2.1-3.3,6.9-8.6,6.6c-3.3-0.2-6.7,0.3-10.1-0.1c-4.8-0.4-7.4-4.3-8.6-7c-1.1-2.4-4.5-5.8-1.7-10c0.6-0.9,1.1-5.3,0.4-6.8
	c-1.9-4.2,2.4-3.3,2.8-5.6c2.1,3-3,5,0.1,7.7c2.7,2.3,4.4-1.9,6.9-0.7c0.4,0.2,1,0.1,1.5,0.1c0.8-0.2,1.4,0.1,1.9,0.8
	c0.3,0.7,0.2,1.4-0.2,2.1c-2.4,2.3-5.1,3.6-8.3,1.7c-0.8,2,0.1,3.3,0.1,5.2c1.6-4,5.4-4.4,8.1-6.4c0.8,0.1,1.2,0.6,1.3,1.4
	c-0.7,2.6-1.6,5-3.5,6.9c-4.1,4-4,4.1,2.7,6.8c-2.6-5.3-0.5-9.5,1.2-13.9c0.4-0.2,0.9-0.3,1.3-0.2c1.5,4.3,4.1,8.4,1.3,13.7
	c2.5-0.5,4.5-1,5.3-2.6c0.9-1.9-1.4-2.8-2.5-3.8c-2.1-1.9-2.9-4.4-3.6-7c0-0.8,0.4-1.3,1.2-1.4c2.4,2.4,6.7,2.2,8,7.1
	c0.2-2.4,1-3.8,0.2-5.5c-3.1,0.9-6.2,1.1-8.3-2.1c-0.1-0.5-0.1-0.9,0.1-1.4c1.7-1.4,3.1-3.5,5.9-2.5c2.5,0.9,2.8-0.6,2.5-2.6
	c-0.2-1-0.3-2-0.2-2.1c-0.3,4.2-5.4,4.1-8.1,6.7c-0.8,0-1.3-0.5-1.4-1.3c0.9-4.1,3-7.3,6.8-9.4c-0.5-1.2-1.4-0.5-1.9-0.6
	c-0.8-0.1-1.6-0.3-2.6,0.2c0.8,3.7-1.4,6.8-2.8,10.1c-0.5,0.1-0.9,0-1.3-0.3c1-3.6-3.4-6.9-0.5-10.7c0.3-0.3-1.3-1.4-2.4-1.1
	c-1.2,0.4-2.3,1.4-3.7,0.8c0.8-4.2,2.1-4.2,9-3.7c4.2,0.3,8.6,1.4,12.8-0.5C223.4,244.8,224,245.9,224.6,246.9z"/>
<path class="ww8" d="M145,221c2.1-6.8,0.4-13.7,1-20.6c0.2-2.2-1.1-4.7,1.1-6.5c1.7,2.1,1.4,4.7,1.4,7.2c0,10.1,0,20.3,0,30.4
	c0,5.4,0.6,5.9,6.1,6c4.3,0.1,8.6,0.1,13,0c2,0,4-0.2,5.1-2.4c0.9-1.7,1.5-3.6,3.7-4.2c0.3,0.1,0.5,0.2,0.8,0.3
	c-2.5,5.3-2.4,10.8-1.2,16.4c-1.4,2.7-0.3,5.5-0.4,8.2c-0.2,10.2,0,20.3-0.1,30.5c-1.1,2.1-2.7,2-4.4,0.9
	c1.2-13.4,0.1-26.8,0.5-36.2c0,6.6,0,17.2,0,27.7c0,2.8-0.1,5.6-0.6,8.4c-0.7,2.8-2.3,1.9-3.8,0.9c-0.1-0.2-0.1-0.4-0.1-0.7
	c1.1-14.2,0.2-28.4,0-42.7c-0.6,8.9-0.5,17.8-0.5,26.7c0,2.2,0.1,4.3-0.1,6.5c-0.2,1.8,0,3.8-2.2,4.6c-0.1-0.4-0.2-0.8-0.3-1.2
	c-2.4-6.9-1.1-14.1-1.4-21.2c-0.2-4.4,0-8.8-0.1-13.2c0,7.4,0.1,14.9-0.1,22.3c0,1.9,0.4,4.1-2.2,5c-0.2-0.4-0.4-0.9-0.5-1.3
	c-2.1-7.2-0.9-14.6-1.2-21.9c-0.1-2.4,0.3-4.9-1-7.3c-2.2,9,0.5,18.4-2.2,27.4c-0.2,0.4-0.3,0.7-0.5,1.1c-2.8-0.9-2.2-3.4-2.3-5.4
	c-0.1-6.6-0.1-13.3-0.1-19.9c0,7.7-0.1,15.4,0,23c0,3.5-0.3,7-1.4,10.3c-0.1,0.4-0.3,0.7-0.4,1.1c-1.1-0.8-1.8-1.9-2-3.3
	c-0.6-11.7,0.1-23.4-0.4-35.1c-2.3-2-3.2-4.6-2.9-7.7c0.2-1.7,0.4-3.5-0.3-5.2c-0.7-0.4-1.4-0.8-2.1-1.2
	C143.5,226.1,143.3,223.3,145,221z"/>
<path class="ww9" d="M209,165.1c1.1-1,1.5-2.7,3.1-3.2c5.1-2,10.4-0.4,14.3,4.3c-1.5,2.6-3,5.2-4.5,7.8c-1.8,0.7-3.1,1.7-2.1,4
	c-0.6,1-1.1,1.9-1.7,2.9c-2.6-0.2-4.4-3-7.8-1.4c-1.8,0.9-3.3-2-3.4-4.4c0.4-0.6,1-0.9,1.7-1c0.9-0.2,2.2,0.3,2.1-1.3
	c-0.4-0.8-1.3-1.1-1.9-1.7c-0.2-0.4-0.3-0.8-0.3-1.2C209.1,168.4,207.5,166.6,209,165.1z"/>
<path class="ww10" d="M164.2,282.3c1.4-5.4,0.5-10.9,0.6-16.4c0.2-7.5,0-15,0.1-22.5c0-1.3-0.3-2.9,1.6-3.1c2.1-0.1,2.4,1.3,2.4,3
	c0,13.7,0,27.3,0,41c0,1.4-0.1,2.7-1.9,2.9C166.1,285.6,165.2,284,164.2,282.3z"/>
<path class="ww11" d="M155.3,270.9c0-8.8-0.1-17.5-0.1-26.3c0-1.7-0.6-4.1,2.1-4.2c2.8-0.1,2.3,2.3,2.3,4c0,9.4,0,18.9,0,28.3
	C158.1,272.4,158.9,266.3,155.3,270.9z"/>
<path class="ww12" d="M160.3,274c1.7-7.7,0.3-15.5,0.7-23.3c0.1-2.2,0-4.3,0-6.5c0-1.2-0.4-3,1.7-2.9c1.6,0.1,1.3,1.7,1.3,2.8
	c0,6.8,0,13.6,0,20.4c0,5.5-0.1,11-0.1,16.5C162.1,279,161.3,276.4,160.3,274z"/>
<path class="ww13" d="M151.1,280c0-11.8-0.1-23.6-0.1-35.4c0-1.2-0.5-3.2,1.3-3.2c2.4-0.1,1.6,2.1,1.6,3.4c0.1,7.5,0,15,0.1,22.5
	c0,1.6-0.5,3.4,0.8,4.8C154,274.8,152.8,277.5,151.1,280z"/>
<path class="ww14" d="M226.4,166.3c-4.4-2.7-9-4.5-14.3-4.3c0.5-2.8-1.2-6.7,4.5-6.2c6.9,0.6,10.1,3,10.4,9.1
	C226.9,165.3,226.6,165.8,226.4,166.3z"/>
<path class="ww15" d="M198.2,215c2.1-0.9,3.6-1.7,0.8-3.8c-0.9-0.7-2.2-1.5-2.1-3.1c-1.7-0.6-2.8-1.7-2-3.5c0.9-1.8,2.4-1.6,3.9-0.5
	c0.3,2.5,2.5,3,4.4,3.8c2,3.7,4,7.4,6,11.1c-3.1-2.5-6.6-1-9.9-1c-1.2,0.7-2.2,0.7-2.6-0.8C196.4,216,196.3,214.8,198.2,215z"/>
<path class="ww16" d="M167.1,287.9c1.4,0,2.9,0.3,4.1-0.8l0,0c1.5,0.1,2.9,0.1,4-1.1c0.1-1,0.8-1.4,1.6-1.8c1.1-0.6,2.4-0.7,3.5-1.1
	c0.5-0.3,1-0.7,1.5-1c2.4-0.6,2.1,1.5,2.8,2.7c0.1,0.5,0.1,1,0,1.4c-0.5,1.4-1.8,1.5-3,1.4c1.2,2.2,6.4-0.3,5.3,4.6
	c-3,0.4-6,0.6-9-0.1c-3-0.4-5.9-0.7-8.9-1.1C168.3,290,166.8,289.5,167.1,287.9z"/>
<path class="ww17" d="M202,226.5c-0.6-0.6-1.2-1.5-0.5-2.1c1.4-1.2,2.2,0.4,3.7,1.4c-1-4.5,0.6-6.4,4.9-5.7c0.6,1.3,1.3,2.6,1.9,3.9
	c-1.2,0.7-2.6,1.1-2.5,3.1c0.3,3.3-2.4,2.3-4.1,2.5C203.2,229.8,201.5,229.4,202,226.5z"/>
<path class="ww18" d="M202,226.5c3.2,3.7,5.7,3.6,7-0.6c0.5-1.8,1.6-1.8,2.9-1.9c0.8,1.3,1.6,2.6,2.4,3.9c-2.2,0.7-2.2,0.7-4-2.1
	c-0.8,1.3,0.6,4-1.8,3.9c-2.4,0-5.1,3.3-7.5-0.5C200.1,227.8,199.8,228,202,226.5z"/>
<path class="ww19" d="M249,291.2c-3.3-0.4-6.5-1.9-9.9-0.2c-1.8,0.9-2.8-0.1-2-2.2c3.2-2.1,6.5-3.2,10-0.6
	C247.7,289.2,248.3,290.2,249,291.2z"/>
<path class="ww18" d="M218,236c-1.2-0.3-2.4-0.9-3.5-1c-2.3-0.1-2.3-2.6-2.5-3.5c-0.5-1.7,1.7-1.7,3.1-1.7
	C215.9,232,218.1,233.4,218,236z"/>
<path class="ww20" d="M237.1,288c-0.4-1.1-0.6-2.1-0.1-3.2c2.5-1.9,5.1-2.6,7.9-0.9c0.4,0.7,0.8,1.4,1.2,2.1
	C243.3,287.4,240.2,287.5,237.1,288z"/>
<path class="ww21" d="M237.1,288c2.8-1.8,5.8-2.3,9-2c1.1,0.4,0.6,1.4,0.9,2.2c-3.4-1.1-6.6,0.5-10,0.6
	C236.9,288.5,236.9,288.2,237.1,288z"/>
<path class="ww22" d="M245,283.9c-2.8-0.7-5.2,1.1-7.9,0.9c0-0.4,0-0.9,0-1.3c1.9-2.1,4-3,6.8-1.6
	C244.2,282.6,244.6,283.3,245,283.9z"/>
<path class="ww23" d="M243.8,281.9c-2.4-0.1-4.5,1.1-6.8,1.6c0-4.5,3.6-2.9,5.9-3.6C243.2,280.6,243.5,281.3,243.8,281.9z"/>
<path class="ww24" d="M219.8,178c-1.1-0.8-2.9-1.8-2.2-3.2c0.8-1.5,2.8-0.9,4.3-0.8C221.2,175.4,220.5,176.7,219.8,178z"/>
<path class="ww25" d="M145,221c-0.4,2.6,1.3,5.7-1.9,7.6c-3.6-0.3-7.1-1.5-10.7-0.5c-1.7,0.2-3.2,1-4.9,1.1
	c-4.4,0.1-7.4,1.7-7.3,6.7c0,1-0.3,2-1.4,2.5c-2.8-0.8-5.8-1-7.4-4.1c-4-7.7-3.6-8.7,6.6-13.2c0.4-0.4,0.7-0.7,1.1-1
	c2.7-1.6,5.9-1.2,8.9-2.1c1.3-0.2,2.6-0.3,3.9,0.2c0.5,0.2,0.9,0.5,1.3,0.9c3.6,0.4,7.1,0.8,10.7,1.2
	C144.2,220.5,144.6,220.8,145,221z"/>
<path class="ww26" d="M116.8,253.8c-1.8,0.6-1.1,1.7-0.6,2.7c1,1.9,0.5,3.5-1,5.3c-1.4-1.6-3.1-3-4-4.8c-2.6-5.4-1.5-7.8,4.1-10.5
	c1.2-0.6,2.3-1.3,3.4-1.9c2.9-1.9,5.9-3.3,9-4.7c3.9-0.9,1.9-5.4,4.5-7.1c2.3,0.4,5.3-0.1,5.6,3.3c0.3,3.1,1.6,6.6-2.2,8.7
	c-1,0.6-1.9,1.3-2.8,2c-0.2,0.4-0.5,0.7-0.8,1.1c-1.3,1.7-3.4,2.1-5.1,3c-2.5,1-5,2.1-7.5,2.9C118.6,254,117.7,253.4,116.8,253.8z"
	/>
<path class="ww27" d="M119.4,193c-0.6-0.8-1.2-1.6-1.9-2.3c-2.9-2.9-1.4-4.6,1.6-5.9c2-0.9,4.8,0,5.8-2.9c0.1-0.3,0.4-0.4,0.7-0.6
	c1.5,4.3,7.3,2.1,9,5.9c1.3,3-2.2,3.7-2.9,5.8c0,1.1,0,2.2-1.3,2.8c-3.2,0.9-6.5,0.9-9.7,0C119.4,195.2,119.4,194.1,119.4,193z"/>
<path class="ww28" d="M119.4,193c0.2,0.6,0.5,1.3,0.7,1.9c-0.7,5.4,3.8,2.8,5.1,2.6c1.8-0.3,6.3,3.4,5.7-2.6
	c0.2-0.6,0.5-1.3,0.7-1.9c3.7,1.7,3.8,3.5,2.3,7.6c-2.2,5.7-1.2,12.2-0.8,18.4c-0.4,0-0.7,0-1.1,0c-2.2-2.6-1.2-5.7-1.5-8.6
	c-0.2-2.4-0.7-4.4-3.8-3.9c-6.2,0.1-6.2,0.2-6.4,6.3c-0.1,2.7,0.6,5.6-1.3,8c-0.4,0.1-0.8,0.1-1.2,0.2c0.1-6.4,0.1-12.7,0.2-19.1
	c0-0.8-0.3-1.2-0.7-1.6C114.2,196.9,115.8,194.7,119.4,193z"/>
<path class="ww29" d="M116.8,253.8c0.6-0.7,1.3-0.8,2.1-0.7c2.1,2.3,1.4,5.2,1.5,7.9c0.2,2.4-0.3,4.9,0.7,7.2
	c6.2,3.5,9.1,1.9,9.4-4.8c0.2-5.4-1.2-10.9,1.3-16.1c0.4-0.1,0.7-0.3,1.1-0.4c0.3,8.4-0.6,16.8,0.4,25.1c0.2,1.3-0.1,2.7,1.6,3.2
	c1.2,2.6-0.9,2.3-2.2,2.3c-3.3,0.1-6.6,0-9.9,0c-2.3,0-4.2,0.6-5.5,2.6c-0.7,0.5-1.5,0.7-2.3,0.4c-0.1-2.1-0.2-4,1.7-5.8
	c1.4-1.4,1.5-3.9,1.3-6C117.4,263.7,119.6,258.5,116.8,253.8z"/>
<path class="ww30" d="M127.9,241c-2.8,1.7-5.6,3.5-9.1,3.6c0-2,0-4.1,0-6.1c0.1-0.7,0.3-1.3,0.3-2c0.3-8,0.4-8.2,8.8-8.4
	C130.4,232.4,130.4,236.7,127.9,241z"/>
<path class="ww31" d="M149.9,241.1c0.1,11.3,0.1,22.7,0.2,34c0,1.1,0.4,2.4-1.3,2.7c-0.7-0.8-2-1.2-1.9-2.6
	c-1.7-10.4-0.6-20.8-0.8-31.3C146,241.5,146.8,239.6,149.9,241.1z"/>
<path class="ww32" d="M117,280.1c-0.4-2.8,0.4-4.3,3.6-4.1c4.1,0.2,8.2,0.1,12.3,0.2c1.1,0,2,0.4,2.1-1.1c1.9,1.6,0.7,3.8,1.1,5.7
	C129.7,281.5,123.2,283.8,117,280.1z"/>
<path class="ww33" d="M149.9,241.1c-3.2-0.4-3,1.8-2.9,3.8c0.4,9.7-0.9,19.5,0.7,29.2c0.1,0.3-0.5,0.8-0.8,1.2
	c-1.4-2.2-1.9-4.5-1.9-7.1c0-12.8,0.1-25.6,0.1-38.4c1.3,1.4,1,3.1,0.8,4.6C145.4,237.9,146.4,240.2,149.9,241.1z"/>
<path class="ww34" d="M138.3,288.7c1,3-0.8,2.3-2.6,2.2c-6.7-0.1-13.5-0.2-20.3,0c-1.8,0-3.5,0.8-2.5-2.1c0.6-0.4-0.2,0,0.3-0.4
	C117.4,285.9,134.1,286.1,138.3,288.7z"/>
<path class="ww35" d="M138.3,284.7c0,1,0.1,1.9,0.1,2.9c-7.8-0.6-15.7-0.2-23.5-0.1c-1.4,0-2.2-0.4-2.5-1.8c0.2-0.4,0.3-0.7,0.5-1.1
	c0.6-0.4-0.2,0,0.3-0.4C117.4,281.9,134.1,282.2,138.3,284.7z"/>
<path class="ww36" d="M117,280.1c6.3,1.9,12.7-0.6,19,0.7c1.7,0.2,3.2,0.5,2.4,2.8c-8.2-0.3-16.4-0.5-24.6,0c-0.5,0-0.9-0.4-1.3-0.6
	c-0.2-1.9,1.7-1.7,2.6-2.5C115.7,280.3,116.4,280.2,117,280.1z"/>
<path class="ww37" d="M127.9,241c0-4.3,0-8.6,0-12.9c1.5-0.2,3-1.5,4.4,0.1c0,1.5,0,3,0,4.5C131.6,235.9,133.6,240.5,127.9,241z"/>
<path class="ww38" d="M112.4,285.8c0.2,0.2,0.5,0.7,0.7,0.7c5.4-1.7,10.9,1.8,16.3-0.1c3.3-1.2,6.1,0.3,9.1,1.3
	c0.1,0.3,0.2,0.5,0.2,0.8c0,0.1-0.2,0.2-0.3,0.3c-8.5-0.4-16.9-0.8-25.3,0C112.4,287.9,111.9,286.9,112.4,285.8z"/>
<path class="ww39" d="M112.5,282.9c8.7-0.3,17.3-1.6,25.9,0.7c0.1,0.3,0.2,0.5,0.2,0.8c0,0.1-0.2,0.2-0.3,0.3
	c-8.5-0.4-16.9-0.9-25.4,0C112.8,284.2,112.6,283.5,112.5,282.9z"/>
<path class="ww40" d="M194.1,147.3c-0.1,0.3-0.1,0.7-0.2,1c-0.6,1.2-2.6,1.7-2.8,1.4c-3.8-4.5-9.9,3.5-13.4-2.5c1.3-1.6,2.5,1,4,0.1
	c0.7-0.4,2.3,1,1.7-1.4c-0.4-1.4,0.3-2,1.5-0.8c0.8,0.8,1.8,0.9,2.7,0.8c1.8-0.3,4-2,4,1.7C192.5,147.4,193.3,147.4,194.1,147.3z"/>
<path class="ww41" d="M150.1,154.2c-1.4,2.6-3.9,4-6,5.8C143.6,155.5,146.9,154.9,150.1,154.2z"/>
<path class="ww42" d="M193.2,281.8c4.6,4.8,11,5.3,16.9,7.1c-4,1.9-8.6,1-12.6,3.1c-3,0.9-6,0.4-9,0.4c-1.6-2.1,0.2-2.6,1.6-3.3
	c1.5-0.7,3.6,0.2,4.7-1.7c-1.1-0.8-3-0.6-3.2-2.5C191.8,283.7,192,282.5,193.2,281.8z"/>
<path class="ww43" d="M187.8,291.2c3.1,1.9,6.5-0.1,9.7,0.8c-6.5,1.7-13.1,1.6-19.6,0.1c3.1-1,6.4,1.1,9.4-0.9
	C187.5,290.8,187.7,290.8,187.8,291.2z"/>
<path class="ww44" d="M197.1,239.8c0,6.3-4.2,11.3-9.6,11.2c-5-0.1-9.3-5.2-9.3-11.1c0-6.1,4.4-11.2,9.7-11.1
	C193.2,229,197.1,233.7,197.1,239.8z"/>
<path class="ww45" d="M177.1,284.9c-0.6,0.4-1.2,0.7-1.9,1.1c-1.4-0.6-1.2-1.9-1.2-3c0-11.7,0-23.3,0.1-35c0-0.5-1-2.1,0.9-1.7
	c0.4,0.1,0.6,0.7,0.9,1.1c0.2,0.5,0.4,1,0.7,1.5c1.4,1.1,2.1,2.4,2.1,4.2c-0.3,9.4-0.1,18.9-0.1,28.3
	C178.5,282.9,178.5,284.2,177.1,284.9z"/>
<path class="ww46" d="M193,193.8c-3.9-0.4-5.4,0.9-5.2,5.2c0.4,7.1,0.2,14.2,0.1,21.3c0,2.1,0.1,4,2.6,4.6c-1.8,0-3.7,0-5.5,0
	c-0.1-0.3-0.2-0.6-0.2-0.8c1.4-8.1,0.5-16.2,0.7-24.3c0.1-3.2-1.6-4.2-4.6-4.4c-4-0.3-8.3,1.3-12-1.5c2.3-2,5.7,0.5,8-1.8
	c0.4-0.5,0.8-0.9,1.4-1.1c5-0.4,10-0.2,14.7,1.9C193,193.2,193,193.5,193,193.8z"/>
<path class="ww47" d="M184.3,255l0.5,0c1,0.6,2.8,0.5,2.7,2.3c-0.1,5.6,0.5,11.2-0.5,16.8c-0.2,1.4-1,2.4-3.3,3.2
	C183.8,269.7,182.7,262.4,184.3,255z"/>
<path class="ww48" d="M184.3,255c0,7,0,14,0,21.1c3.6-5.6,3.8-17.7,0.5-21.1c2.9-0.5,3.3,1.2,3.2,3.5c-0.1,4.8,0,9.6-0.1,14.4
	c-0.1,2.3-0.5,4.5-2.3,6.2c-0.7,0.6-1.5,1.2-2.5,0.7c-0.1-7.6-0.2-15.2-0.1-22.8C183,256.4,182,254.6,184.3,255z"/>
<path class="ww49" d="M177.1,284.9c1.6-2.4,0.9-5.2,0.9-7.8c0.1-7.3,0-14.6,0.1-21.9c0-2.2-0.3-4.3-1.5-6.2c2.6,1.1,3.1,2.4,2.8,5.7
	c-0.9,8.9-0.3,17.9-0.2,26.9c0,0.5,0.8,1,1.2,1.5C179.4,284,178.6,285.1,177.1,284.9z"/>
<path class="ww50" d="M206.3,260.1c-0.6-0.3-1.2-0.5-1.7-0.8c-1.9-3-7.2-3.8-6-8.8c5.6,0,5.6,5.9,8.9,8.5
	C207.4,259.7,207,260.1,206.3,260.1z"/>
<path class="ww51" d="M183.1,280c0.6-0.4,1.1-0.7,1.7-1.1c1.6-0.9,3.2-2,5.2-1.2c1,1.4,2.1,2.7,3.1,4.1c-0.3,1.1,0.1,2.4-0.9,3.3
	c-0.2-0.1-0.4-0.2-0.6-0.3c-1-1-1.1-2.7-2.8-3c-0.6,0-1.2,0-1.8,0.1c-1.8,0.4-1.7,2.5-3.1,3.3c-1.5-0.5-0.3-2.9-2.1-3.2
	C182.2,281.3,182.7,280.7,183.1,280z"/>
<path class="ww52" d="M206.3,260.1c0.4-0.4,0.7-0.7,1.1-1.1c0,0,0.2-0.1,0.2-0.1c0.6,0,1.1,0,1.7,0c0,0,0.2,0.1,0.2,0.1
	c0.4,0.4,0.9,0.8,1.3,1.2c0.1,0.2,0.1,0.4,0.2,0.6c0,0.4,0,0.9,0,1.3c-0.1,0.2-0.2,0.4-0.2,0.6c-0.4,0.4-0.9,0.8-1.3,1.1l-0.1,0
	c-0.6,0-1.1,0-1.7,0c0,0-0.2,0-0.2,0c-0.5-0.4-0.9-0.9-1.4-1.3l-0.1-0.4C206.1,261.5,206.2,260.8,206.3,260.1z"/>
<path class="ww53" d="M190.1,277.7c-1.7,0.4-3.5,0.8-5.2,1.2c1-2,2.1-3.9,3.1-5.9C188.7,274.6,189.4,276.2,190.1,277.7z"/>
<path class="ww46" d="M185,225c-2.6,2-5.3,4.1-7.9,6.1c0,0-0.1-0.2-0.1-0.2c-1.1-1.7-0.2-3,0.8-4.3C180,225.2,182.1,223.1,185,225
	L185,225z"/>
<path class="ww54" d="M185,225c-2.7-0.4-4.5,1.9-7,2.1c-2.6,1-2.8-1-3-2.6c-0.4-2.3-0.5-4.7-0.1-7c0.9-4.1,0.3-7.8-1.8-11.5
	c-1.9,0.3-1.1,4.5-4,3.1c-3.6-1.8-1.3-5.3-1.9-8.2c-1.7,1.1-0.9,2.5-1,3.7c-0.2,1.8,0.4,4-1.9,4.6c-2.3,0.6-1.6-2.6-3.5-3.3
	c-1.8,3.2-3.7,5.9-2.1,10.3c1.4,3.7,1.5,8.1-1.2,12c-2,2.8-0.9,4.3,2.4,4.5c1.5,0.1,3,0,4.5,0c1.9,0,3.7,0,5.6,0
	c1.5,0,2.9,0.2,3.9,1.4c0.6,3.8-0.9,5.3-4.9,5.1c-6-0.3-12-0.2-17.9,0c-3.3,0.1-4.3-1.1-4.2-4.3c0.2-13.6,0.1-27.2,0.1-40.8
	c7.3,0,14.5,0,21.8,0c4.7,0,9.3,0.2,14,0.1c2.8-0.1,4.3,0.6,4.2,3.8c-0.2,7.6-0.1,15.3,0,23C187.1,222.7,186.2,223.9,185,225z"/>
<path class="ww26" d="M162.9,161.9c1.7,2,4.7,3,2.7,7.1c-1.1,2.2,2.6,1.9,4.4,2c0.6,0.5,1,1.2,2,1.1c-0.6-0.5-1.5-0.4-2-1.1
	c0.1-3.3-3.6-6.6,0-9.9c3.7-3.4,7.9-4.9,12.9-3.1c0.8,0.4,1,1.1,1,1.9c-0.9,2.5,2.1,3.1,2.4,5.1c0.1,1.2-2.1,1.8-0.8,3.3
	c-0.2,0.7-0.6,1.2-1.2,1.5c-0.6,0.5-2,0.6-1.9,1.2c0.2,0.9,1.3,0.3,2,0.2c2.9-2.3,4.7-1.7,5.5,1.9c-0.1,0.8-0.3,1.5-1,1.9
	c-0.8-0.5-1.2-2.9-2.5-0.2c-1.7,3.3-4.3,4.2-7,1c-1-1.1-1.2-1.2-1.8,0.2c-0.2,0.6-0.7,1.2-1.3,1.4c-3,1.5-4.9-0.7-7.4-1.8
	c-1-0.5-2,5.4-5.9,3.8c-1.8-0.8-2.5-0.5-4.1,0.7c-2.1,1.6-3.9-0.2-5-2.2c1.7-0.6,4.1-1.3,1.3-3.3c-3.3-2.4-6.7-6.1-7.1-8.8
	C152,161.6,158,160,162.9,161.9z"/>
<path class="ww9" d="M189,175.1c0.1-0.8,0.1-1.5,0.2-2.3c0.3-0.3,0.7-0.5,1.1-0.7c0.8-0.5,2.1-0.1,2.3-1.1c0.1-0.5-1.2-0.7-1.9-1.1
	c-0.6-0.3-1.1-0.8-1.5-1.4c-0.8-1.7-1.5-3.4-0.4-5.2c0.3-0.3,0.6-0.7,0.9-1c1.7-1,1-2.8,1.4-4.3c5.2-1.8,9.6,0.2,13.7,3.2
	c1.4,1,0.1,2.7,1.1,3.8c1.3,1.6-0.4,2.8-0.4,4.3c-0.3,0.9-0.7,1.6-1.5,2.1c-3.1,2.5,1.7,1.3,1.2,2.6c0.2,0.4,0.1,0.8-0.2,1.2
	c-0.3,0.6-0.5,1.2-0.8,1.8c-0.9,1.2-3.1,1.7-3.5,1C197.7,173.1,191.6,181.1,189,175.1z"/>
<path class="ww55" d="M193,192.9c-5.1,0.6-10-1.1-15-1c-2.2-5.1,2.9-2.5,4.1-4c9.3-0.8,18.6-0.2,27.8,2.7c-2.7,0.4-5.4,1.1-8.2,1.2
	C198.8,192.1,196,193.5,193,192.9z"/>
<path class="ww56" d="M182.1,188c-1.1,1.6-4.8,0.5-4.1,4c-0.4,0.1-0.8,0.1-1.1,0.2c-4.1,0.1-8-0.6-13.4-1.7
	C170.5,188.2,176.3,187.8,182.1,188z"/>
<path class="ww57" d="M205.1,175.2c-0.1-0.5-0.2-0.9-0.3-1.4c-0.1-1.3,0.2-2.4,1.3-3.3c1-0.4,1.9-0.4,2.8,0.3c1.1,0.3,2.6-0.1,3,1.6
	c-0.9,1-2,1.7-2.9,2.6c-0.7,0-1.5,0.1-2.2,0.1C206.3,175.1,205.7,175.2,205.1,175.2z"/>
<path class="ww58" d="M183.3,183.1c3.2-1.3,5.2-1.4,8.2,0.1C188.5,184.4,186.5,184.4,183.3,183.1z"/>
<path class="ww59" d="M199.3,184c1.6-1.2,3.2-1.4,4.7,0.4C202.2,185.6,200.7,184.9,199.3,184z"/>
<path class="ww60" d="M204.9,161.2c-4.6-1.1-8.9-3-13.7-3.2c-0.2-5.4,0.9-6.6,6.3-6.9c4.9-0.3,10.1,2.9,10.4,6.5
	C208.1,159.6,207.1,160.9,204.9,161.2z"/>
<path class="ww60" d="M182.9,158c-4.5,0.1-8.6,2-12.9,3.1c-3.6-2-4.1-5.2-0.8-7.5c3.7-2.6,7.8-3.4,12.3-1.6
	C185,153.4,182.5,156,182.9,158z"/>
<path class="ww60" d="M162.9,161.9c-5.3-0.3-10.1,1.7-14.7,3.9c-0.5-6.9,6.5-12.4,13-9.9C164,157,161.7,160.1,162.9,161.9z"/>
<path class="ww57" d="M205,169.1c-1.9-1.9,1.8-2.5,1-4.1c1.1-1.4,2-1.2,3,0.1c-1.1,1.7,3.1,3.2,0.2,5
	C207.8,169.6,206.9,167.3,205,169.1z"/>
<path class="ww61" d="M189.9,162.3c0,0.3-0.1,0.6-0.1,0.8c-1,0.6-2,1.4-3.3,1.3c-1-0.6-1.3-1.4-0.4-2.3c0.7-0.9-0.8-2.4,0.9-2.9
	C190,158.1,187.6,162.4,189.9,162.3z"/>
<path class="ww4" d="M186,162c0.1,0.7,0,1.6,1,1.8c0.3,1-0.1,1.5-1.2,1.3c-1.6-1.4-4-2.5-1.9-5.2C184.3,160.9,185,161.6,186,162z"/>
<path class="ww62" d="M198.8,204.1c-1.1,0.1-2.4-0.8-3.1,0.6c-0.7,1.4,0.4,2.4,1.2,3.4c-3.3,0.6-4.1-1.2-3.4-4
	c0.7-2.7,3.6-1.3,5-2.8C199.4,202.1,199.1,203.1,198.8,204.1z"/>
<path class="ww63" d="M198.2,215c-1.7,1.8-1.5,2.8,1.1,3c-0.6,0.9-0.1,3.4-1.9,2.3c-1.7-1-3.4-3-2.5-5.4
	C195.7,212.7,197,214.1,198.2,215z"/>
<path class="ww64" d="M207.5,263.9c0,0,0.2,0,0.2,0c0.1,2.3,0.7,4.5-1.1,6.6c-1.3,1.5-0.1,3,0.8,4.5c0.8,1.3,0.9,3-0.5,4.1
	c-1.6,1.4-2.2-0.4-3.2-1.1c-0.8-0.5-1.7-1-2.7-1.2c-3.3-0.8-2.6-3.6-1.1-4.3C204,270.8,204.7,266.6,207.5,263.9z"/>
<path class="ww64" d="M209.4,263.9c0,0,0.1,0,0.1,0c2.5,2.8,3.5,6.7,7.4,8.7c1.8,0.9,2.4,4.1-1.3,4.3c-2.4,0.1-3.3,4.2-5.7,2.2
	c-2.3-1.9,0.5-4.1,0.7-6.2C210.9,269.8,207.9,267.2,209.4,263.9z"/>
<path class="ww65" d="M209.5,259.1c0,0-0.2-0.1-0.2-0.1c-1.4-3.5,3.2-6.9,0.3-10.6c-0.2-0.3,1.4-1.8,2.3-1.2c2.5,1.8,5,0.2,8.5-0.2
	C216.3,251.5,211.6,254.2,209.5,259.1z"/>
<path class="ww66" d="M211,260.9c-0.1-0.2-0.2-0.4-0.2-0.6c3.8-3.2,7.5-6.6,10.3-11c-0.7,2.8-1.5,5.2-0.2,8.1c0.8,1.7-0.6,4.4-2.7,3
	C215.3,258.4,213.4,259.8,211,260.9z"/>
<path class="ww67" d="M206,262.2c0,0,0.1,0.4,0.1,0.4c-2.9,3.3-7.2,5.2-9.4,9.5c-0.4-2.7,0.7-4.9-1-7.3c-0.9-1.3,1.5-3.2,2.5-2.4
	C201.1,264.8,203.4,262.8,206,262.2z"/>
<path class="ww68" d="M210.8,262.7c0-0.2,0.1-0.4,0.2-0.6c2.2,1,4.3,2.9,6.8,0.6c0.9-0.8,1.9-0.5,2.7,0.2c0.8,0.7,1.3,1.6,0.4,2.6
	c-1.8,1.9-0.5,4-0.5,6.4C217.3,268.6,214.1,265.6,210.8,262.7z"/>
<path class="ww69" d="M174,234c-1.4-0.1-2.8-0.2-4.2-0.3c-1-1-0.7-2.6-1.8-3.6c-0.8-0.5-1.5-0.6-2.3,0c-0.8,1.1-0.6,2.7-1.8,3.6
	c-1.7,0.1-3.3,0.2-5,0.1c-1.4-0.1-3.3,0.7-3.8-1.3c-0.4-1.7-1-3.9,0.6-5.2c4.3-3.5,2.2-7.9,1.5-11.7c-0.5-2.7-2.5-5,0.9-7.1
	c0.3-0.2,0.6-0.9,0.5-1.2c-1.3-2.9,0.1-3.5,2.7-3.5c3.7,0,2.5,2.4,2.5,4.6c1.6-2.1,1.5-4.3,0.7-6.5c-0.4-1.1-0.9-2.4,0.7-2.8
	c1.2-0.3,2.8-0.3,3.9,0.1c1.4,0.6,0.7,1.9,0.1,2.9c-1.5,2.3-1.5,4.4,1,7.3c0.6-2.8-1.3-6.3,3-5.7c1.9,0.2,3,0.2,2.3,2.9
	c-0.6,2.5,2.9,4.7,1.4,7.7c-1.6,3.1-0.6,6.5-0.8,9.8c-0.1,1.5,0.3,2.7,2,2.8c-0.3,1.3-0.7,2.5-1,3.8C176,231.9,175,233,174,234z"/>
<path class="ww70" d="M171.2,287.1c-1.7-1.2-1.2-3-1.2-4.6c0-12.3-0.1-24.6,0-36.9c0-1.5-1-4,1.3-4.2c2.5-0.2,1.6,2.4,1.6,3.9
	c0.1,12.3,0,24.6,0.1,36.9C173,284.2,172.4,285.7,171.2,287.1C171.2,287.1,171.2,287.1,171.2,287.1z"/>
<path class="ww71" d="M205,169.1c2.3-3.1,3.4-1.8,4.2,1c-0.1,0.2-0.2,0.4-0.3,0.7c-1.1,0-2.1,0.1-3.2,0.1c-0.5,0.7-1.1,0.6-1.7,0.1
	C204.4,170.4,204.7,169.7,205,169.1z"/>
<path class="ww72" d="M209.1,175c-0.4-2.4,0.3-3.6,2.9-2.6c0.4,0.6,1.5,1.2,0.7,2C211.7,175.4,210.4,175.7,209.1,175z"/>
<path class="ww73" d="M187.8,291.2l-0.3-0.1c0,0-0.3,0-0.3,0c-2.6-2.3-7.4-0.3-8.9-4.6c1.6-2.1,3.9,1.6,5.6-0.7
	c0.8-0.5,1.7-0.3,2.6-0.2c0.9,0.1,1.8,0.2,2.7,0.3c2.6,0.5,5.2,0.2,7.7,0.7c0.7,3.4-2.2,2.7-3.7,3
	C191.4,290.1,189.4,289.7,187.8,291.2z"/>
<path class="ww74" d="M186.1,286.8c-0.7-0.3-1.4-0.5-2.1-0.8c0-0.3,0-0.5-0.1-0.8c0.2-2.1-0.1-4.4,3.1-4.2
	C187.3,283,188.4,285.2,186.1,286.8z"/>
<path class="ww30" d="M119.1,220.9c-0.1-2.8-0.2-5.6-0.2-8.4c0-7.7,0-7.7,8-7.4c3.2,3.4,3.5,8.8,0.9,13.9
	C125,219.6,122,220.2,119.1,220.9z"/>
<path class="ww75" d="M127.9,219c-0.3-4.6,1.1-9.3-0.9-13.9c4.3-1,5.6,0.8,5.2,5c-0.3,3-0.1,6-0.1,9C130.6,219,129.3,219,127.9,219z
	"/>
<path class="ww76" d="M118,223c1.2,0,2.2,0.3,1.8,1.6c-0.4,1.4-1.2,3.7-2,3.8c-1.5,0.2-1.9-1.9-2.2-3.2
	C115.2,223.2,116.9,223.3,118,223z"/>
<path class="ww77" d="M128.1,221.1c1,1.3,2,2.6,3.4,4.4C128.4,224.6,128.4,224.6,128.1,221.1z"/>
<path class="ww78" d="M125.1,226.6c-3.4,0.1-3.2-1.9-2.9-4.1C124.7,222.9,123.3,225.9,125.1,226.6z"/>
<path class="ww79" d="M119.1,270c-0.1-5.6-0.1-11.3-0.2-16.9c2.6-1,5.2-2.1,7.9-3.1c2.7,0.1,2.4,2.3,2.6,3.9
	c0.4,2.6,0.2,5.2,0.2,7.9C129.6,271.1,128.8,271.7,119.1,270z"/>
<path class="ww80" d="M119.1,270c10.7,0.1,8.7,0.9,8.7-8.5c0-3.8,1.3-7.9-1-11.5c1.7-0.9,3.4-1.8,5-2.7c0.1,6.8,0.1,13.6,0.3,20.4
	c0,2.2-0.4,3.6-3,3.3C125.8,270.5,122.3,272,119.1,270z"/>
<path class="ww81" d="M130.9,194.9c1.4,0.2,3.2,0,3,2.3c-0.2,1.9-1.7,1.7-3,1.8c-3.6,0-7.3,0-10.9,0c-1.3,0-2.8,0.2-3-1.8
	c-0.2-2.3,1.5-2.1,3-2.3C123.7,194.9,127.3,194.9,130.9,194.9z"/>
<path class="ww51" d="M197.1,286.8c-2.8-0.6-5.5,1.4-8.3,0.1c-0.1-0.4-0.1-0.8,0.2-1.2c0.9-0.7,1.8-1.3,3-0.7c0,0,0.3,0.2,0.3,0.2
	C193.5,286.9,195.8,285.3,197.1,286.8z"/>
<path class="ww82" d="M187.5,240.1c2.5,2.9,3.7,5.4,1.3,8.3c-0.6,0.7-1.9,0.9-2.1,0.1c-0.4-1.6-3.2-2.9-0.9-5.1
	C186.6,242.6,186.9,241.4,187.5,240.1z"/>
<path class="ww83" d="M192.1,232.9c2.4,2.6,3.3,5.1,0.8,7.9c-0.5,0.5-1.3,0.4-1.7-0.1C188.9,237.8,189.9,235.3,192.1,232.9z"/>
<path class="ww84" d="M183.3,232.7c2.1,2.7,3.1,5.3,0.8,8c-0.5,0.6-1.3,0.5-1.7,0C180.1,238,181,235.4,183.3,232.7z"/>
<path class="ww85" d="M189.2,285.9c-0.1,0.3-0.3,0.6-0.4,1c-0.9,0-1.8-0.1-2.7-0.1c0.8-1.8-1-4.1,1-5.8c0.6,0,1.2,0,1.8,0
	C191.4,282.5,191.4,284.2,189.2,285.9z"/>
<path class="ww74" d="M189.2,285.9c0.6-1.7,0.6-3.3-0.3-4.9c3.1-0.3,2.9,2,3,3.9C191,285.3,190.1,285.6,189.2,285.9z"/>
<path class="ww86" d="M168.9,229.1c1.5,1.3,0.6,3.1,0.9,4.7c-1.9,0-3.9,0-5.8,0c0.3-1.6-0.8-3.5,0.9-4.9
	C166.2,230.5,167.5,231.5,168.9,229.1z"/>
<path class="ww5" d="M185.8,165.1c0.4-0.4,0.8-0.8,1.2-1.3c0.7-1.1,1.8-0.6,2.8-0.8c-1.1,1.7,0.5,3.3,0.1,4.9
	c-1.6,2.5-3.2,2.3-4.7,0C183.7,166.7,184.9,165.9,185.8,165.1z"/>
<path class="ww4" d="M185.1,168c1.6,1.1,3.2,1.1,4.7,0c0.4,0.4,0.8,0.8,1.3,1.2c0.4,1.4-0.1,2.5-1,3.5c-0.3,0-0.7,0-1,0.1
	c-1.4-4.2-2.9-2-4.4,0c-0.9-1-1.3-2.2-1-3.5C184.3,168.8,184.7,168.4,185.1,168z"/>
<path class="ww87" d="M183.9,169.2c0.9,1,1.3,2.2,1,3.5c-1.9,0.9-3.4-0.4-5.2-1.2C180.7,169.9,182,169.1,183.9,169.2z"/>
<path class="ww88" d="M166.8,173.5c-0.3,1.5-1.3,2-2.5,1.8c-0.8-0.2-2.2-0.4-2-1.7c0.2-1.2,1.3-1.8,2.6-1.8
	C166,171.9,166.7,172.5,166.8,173.5z"/>
<path class="ww89" d="M170,171c1.5-0.4,3.2-1.1,4.5,0.4c0.8,0.8-0.1,1.5-0.7,2c-1,0.9-2.1,1-3-0.1C170.4,172.7,170.3,171.8,170,171
	C170,171,170,171,170,171z"/>
<path class="ww90" d="M204.1,171c0.6,0,1.1-0.1,1.7-0.1c0.1,1.1,0.3,2.2-1,2.9c-1.8,0.4-4.3,0.6-4.4-1.6
	C200.3,170,202.5,170.4,204.1,171z"/>
<path class="ww87" d="M190.2,172.8c-0.3-1.3,0.1-2.5,1-3.5c1.8-0.2,3,0.8,4.3,2.1C193.7,172.5,192.3,173.6,190.2,172.8z"/>
<path class="ww91" d="M172,222.9c-2,0-2-1.4-1.9-2.8c0-1.4,0.1-2.9,1.9-2.9c1.7,0,1.9,1.6,1.9,2.9
	C173.9,221.5,173.9,222.9,172,222.9z"/>
<path class="ww92" d="M161.9,217.1c1.8,0.6,1.8,2.1,1.8,3.6c0,1.3-0.6,2.2-2.1,2.1c-2-0.1-1.7-1.6-1.7-2.9
	C159.9,218.7,160.1,217.4,161.9,217.1z"/>
<path class="ww93" d="M168.9,229.1c-0.4,1.5,0.9,4-2.1,3.9c-2.8-0.1-1.6-2.5-1.9-4.1C166.3,227.5,167.6,227.7,168.9,229.1z"/>
</svg>
