<?xml version="1.0" encoding="utf-8"?>
<svg version="1.1" id="Calque_1" xmlns="http://www.w3.org/2000/svg" xmlns:xlink="http://www.w3.org/1999/xlink" x="0px" y="0px"
	 viewBox="0 0 316.7 423.1" style="enable-background:new 0 0 316.7 423.1;" xml:space="preserve">
<style type="text/css">
	.nn0{fill:#FEFEFE;}
	.nn1{fill:#EC2939;}
	.nn2{fill:#002394;}
</style>
<path class="nn0" d="M155.4,278.8c-3.8,7.9-7.4,15.7-11.2,23.4c-18.5,38.1-37.1,76.1-55.4,114.2c-2.3,4.9-5.4,6.8-10.8,6.7
	c-21.2-0.3-42.3-0.2-63.5,0c-4.7,0-8-1.3-9.9-5.7c-0.7-1.7-1.7-3.2-2.8-4.7c-2.5-3.5-2.2-6.8-0.1-10.6
	c20.5-37.4,40.9-74.9,61.2-112.4c14.1-26,28.2-51.9,42.4-77.8c1.5-2.7,1.4-4.5,0-7.1C72,143.5,38.8,82.1,5.6,20.9
	c-1.8-3.2-1.6-6-0.2-9.4C9,3,14.5-0.4,24.2,0c19.6,0.9,39.3,0.4,59,0.2c5.1,0,8.1,1.6,10.5,6.4C115.1,49.5,137.3,92,158,135.3
	c0.3,0.5,0.5,1.1,1.1,2.3c3.5-7.3,6.7-14,10-20.6c18.5-37.1,37-74.2,55.5-111.3c1.9-3.9,4.6-5.6,9-5.6c21.8,0.2,43.7,0.1,65.5,0
	c4.2,0,7.4,1.1,9.3,5.2c0.8,1.8,1.8,3.6,3,5.2c2.6,3.5,2.3,6.8,0.2,10.6c-19,33.5-37.8,67.1-56.7,100.7
	c-15.3,27.2-30.6,54.4-46,81.6c-1.3,2.3-1.4,3.9-0.1,6.3c35.3,63.8,70.5,127.6,105.9,191.3c2.5,4.5,3,8.2-0.2,12.3
	c-1.2,1.6-2.1,3.4-3,5.1c-1.6,3.2-4.1,4.4-7.7,4.4c-22.7-0.1-45.3-0.1-68,0c-4.4,0-6.5-2.3-8.3-5.8c-23.7-45.9-47.5-91.7-71.3-137.5
	C156.1,279.5,155.9,279.3,155.4,278.8z"/>
<path class="nn1" d="M209.1,220.6c6.8,12.3,13.6,24.6,20.4,36.9c26.9,48.6,53.7,97.1,80.6,145.7c3.5,6.3-1.5,14.8-8.8,14.8
	c-21.1,0-42.3-0.1-63.4,0.1c-3.4,0-5-1.1-6.4-4c-6.9-13.8-14-27.5-21.2-41.2c-1.3-2.6-2.2-5.1-2.2-8c0.1-47.3,0-94.6,0-141.9
	c0-0.7,0.1-1.3,0.1-2C208.5,220.8,208.8,220.7,209.1,220.6z"/>
<path class="nn1" d="M208.1,194.4c0-26.4,0-51.2,0-76c0-21.3,0-42.7,0-64c0-3.2,0.6-6.2,2.1-9.1c6.2-12,12.2-24,18.1-36.1
	c1.4-2.9,3-4.1,6.4-4.1c21.2,0.2,42.3,0.1,63.5,0.1c6.3,0,11.4,9,8.3,14.5c-32.1,57.1-64.2,114.2-96.2,171.4
	C209.9,191.8,209.4,192.5,208.1,194.4z"/>
<path class="nn2" d="M103.8,227.3c0,1.7,0,3.3,0,5c0,45.1,0,90.3,0,135.4c0,4.1-0.8,7.8-2.6,11.5c-5.8,11.6-11.4,23.3-16.9,35
	c-1.3,2.7-2.8,3.9-6,3.9c-21.3-0.2-42.6-0.1-64-0.1c-5.2,0-10.7-9-8.3-13.5c31.8-58.5,63.6-117,95.4-175.5c0.4-0.7,0.8-1.3,1.2-1.9
	C103.1,227.1,103.4,227.2,103.8,227.3z"/>
<path class="nn2" d="M102.7,189.5c-7.2-13.4-14.5-26.7-21.7-40.1C57.7,106.5,34.4,63.6,11.2,20.6c-3.8-6.9,1.2-15.3,9-15.3
	c20.7,0,41.3,0.1,62-0.1c3.8,0,6.4,0.6,7.5,4.6c0.4,1.4,1.3,2.7,2,4c12.1,22.6,12.1,22.6,12.1,48.1c0,40.6,0,81.3,0,121.9
	c0,1.8,0,3.6,0,5.5C103.4,189.3,103,189.4,102.7,189.5z"/>
</svg>
