<?xml version="1.0" encoding="utf-8"?>
<!-- Generator: Adobe Illustrator 23.0.3, SVG Export Plug-In . SVG Version: 6.00 Build 0)  -->
<svg version="1.1" id="Calque_1" xmlns="http://www.w3.org/2000/svg" xmlns:xlink="http://www.w3.org/1999/xlink" x="0px" y="0px"
	 viewBox="0 0 5059.3 5928" style="enable-background:new 0 0 5059.3 5928;" xml:space="preserve">
<style type="text/css">
	.st0{fill:#FFFFFF;}
</style>
<g>
	<path d="M5048,5932c-17.3,0-34.7,0-52,0c-10.6-7-23-9.6-34.7-13.9c-315.3-117.1-630.8-234-946.1-351c-5-1.9-9.9-3.9-14.9-5.7
		c-7.8-2.8-11.9-8.3-12.3-16.5c-0.4-8.7-0.6-17.3-0.6-26c0-375.9,0-751.9,0-1127.8c0-220,0-440,0.1-660c0-6,0-12.1,1-17.9
		c0.8-4.8,4.5-6.1,9-3.8c0.6,1.2,1.6,2.4,1.6,3.6c0.1,28,1.7,56.1-0.4,83.9c-1.6,22-2.1,43.9-1.4,65.8c0.5,17.3,2,34.6,2.1,51.9
		c0.2,154.7,0.1,309.3,0.2,464c0,11.5-0.5,22.5-5.9,33c-3.9,7.5-3.9,15.4,0.6,23c4.6,7.8,4.9,16.4,4.8,25.1c-0.1,26.7-0.2,53.3,0,80
		c0.1,14,0.9,28-8.8,41.2c11.6,11.6,9.7,25.9,9.6,39.9c0,10,0.1,20-0.1,30c-0.3,19.3,0.8,38.6-2.8,57.8c-1.5,7.6,0.1,15.9,0.7,23.9
		c0.4,6.6,2,13.3,1.9,19.9c-0.3,29.3-1,58.6-1.4,87.9c-0.1,6-0.2,12,0.1,17.9c0.4,9.3,1.4,18.6,1.6,27.9
		c2.2,69.9-3.8,139.9-0.2,209.8c0.2,3.3-0.1,6.7-0.2,10c-0.4,38-1.5,76-1.1,114c1.1,102-3.6,203.9-0.4,305.9
		c0.7,22.5,0.2,22.5,20.9,30.2c233.6,86.4,467.3,172.9,700.9,259.3c86.2,31.9,172.4,63.8,258.6,95.7c5.4,2,11.1,3.2,18,5.1
		c1-6.7,2.2-11.7,2.3-16.9c0.4-18,0.7-36,0.7-54c0.1-245.3,0.2-490.6,0.2-736c0-473.3,0.1-946.6,0-1420c0-63.3-1.1-126.7-1.1-190
		c0-92,0.7-184,0.7-276c0-124.7-0.2-249.3-0.7-374c-0.2-59.3-1.3-118.6-1.8-178c-0.1-17.3,0.5-34.6,0.6-52
		c0.2-18.6,0.4-37.3,0.3-55.9c-0.2-29.3-1.3-58.7-0.7-88c0.4-19.3,2.5-38.6-0.4-57.8c-0.6-3.9-0.2-8,0.1-12
		c2.1-31.9,2.7-63.8,1.2-95.8c-1.2-24.6-3.1-49.2,0.7-73.9c0.8-5.2-0.2-10.6-0.4-15.9c-0.5-11.3-1.5-22.6-1.6-33.9
		c-0.6-63.3,1.2-126.6,0-189.9c-0.4-22,1.4-43.9,1.9-65.9c0.3-12.6-0.1-25.3-0.3-38c-0.4-33.9-1.2-67.9-1.1-101.8
		c0-21.3,1.1-42.6,2-63.9c1.1-26.6-4.2-53.1,0-79.7c0.5-3.2-0.3-6.6-0.4-10c-0.7-15.3-2-30.6-2-45.9c-0.3-91.3-0.3-182.7-0.4-274
		c4.1-28.5,0-57.1,0.7-85.7c1.1-50.6-2.9-101.3,1.3-151.9c0.2-2-0.2-4-0.3-6c-0.2-12-0.7-23.9-0.6-35.9c0.3-28,1.5-56,1.3-84
		c-0.4-54-2.1-108-2.2-161.9c-0.1-38,1.6-75.9,2.3-113.9c0.2-8-0.2-16-0.3-24c-0.3-21.3-0.6-42.6-0.8-63.9c-0.1-10,0.4-20,0.4-30
		c0-19.3-0.4-38.6-0.4-57.9c0-10.7,0.4-21.3,0.3-32c-0.4-46-1.3-91.9-1.3-137.9c0-29.3,1.3-58.5,0.6-87.9c-1.4-55.9,0.5-112,1.1-168
		c0.1-11.3,0.6-22.7,0.4-34c-0.1-3.7-1.7-7.3-2.7-11c-9.5-0.6-16.6,3.6-23.9,6.3c-248.1,91.5-496.1,183.1-744.1,274.8
		c-69.4,25.6-138.7,51.2-208.1,76.9c-6.7,2.5-14.2,3.6-19.9,10c-0.3,6.3-0.8,12.9-0.8,19.5c-0.1,37.3,0,74.7,0,112
		c0,103.3,0.1,206.7-0.1,310c-0.1,41.3-0.7,82.7-1.4,124c-0.1,7.9-1.8,15.8-2.6,23.8c-0.3,3.2-1,6.9,0.2,9.5
		c4.2,8.9,3.6,18.2,3.6,27.5c0,88.7,0,177.3,0,266c0,5.3,0.3,10.8-0.5,16c-1.5,9.8-5.4,19.6-5.4,29.3c0.1,10.5,4.9,20.9,5.2,31.3
		c0.8,30.6,0.4,61.3,0.5,92c0,2,0,4.1-0.6,5.9c-1.4,4.6-4,8.2-9.7,9c-0.9-1.6-2.6-3.2-2.6-4.9c-0.1-25.3-0.6-50.6,0.5-75.9
		c0.6-13.3,1.8-26.5,0.2-39.9c-0.9-7.3-1-14.6-1.1-21.9c-0.1-45.3-0.2-90.7,0.1-136c0-9.3,0.6-18.7,2.1-27.8
		c2.6-16,2.1-31.8,1.1-47.8c-1.3-19.3-2.8-38.6-2.9-57.8c-0.3-190-0.2-380-0.2-570c0-30,0.4-60,0.6-90c0-6,0.4-12.1-4.9-18.5
		c-10.8-0.2-22.7-0.6-34.7-0.6c-923.3-0.1-1846.6-0.1-2769.9-0.2c-24.7,0-49.3-0.4-74,0c-22.2,0.3-25.7,3.6-25.1,25.9
		c1.1,41.3,3.2,82.6,4.9,123.9c0.4,10,1.4,20,1.3,30c0,3.7-1.3,8.4-3.8,10.7c-6,5.5-7.8,12-7.7,19.7c0.1,28,0.1,56,0.2,84
		c0,2.3,1.3,4.5,2.8,9.2c48.3-39.9,96.6-76.2,148.4-107.7c52.3-31.9,106.6-60.1,163.3-83.3c56.1-22.9,113.5-41.8,172.5-56.2
		c59.3-14.5,119.3-23.8,181-29.7c-2.6-1.7-4-2.7-7.6-5.1c72.4-2.4,142.1-2.6,212.2-0.1c-0.8,2.4-1.2,3.6-1.9,5.6
		c12,1.4,23.9,2.5,35.7,4.1c26.4,3.7,52.9,6.5,79,11.8c31.3,6.4,62.1,15.2,93.1,22.6c40.9,9.7,80.2,24.2,119.2,39.4
		c41.5,16.1,81.7,35.5,121,56.5c60.6,32.4,118,69.6,172,112.2c56.6,44.7,109,93.6,156.6,147.9c42.7,48.7,81.7,100.1,115.9,155.1
		c24,38.4,46.1,77.8,65.4,118.8c19.5,41.6,36.8,84.1,51.8,127.5c1.5,4.3,2.4,9,2.4,13.5c0,1.6-3.2,4.3-5.3,4.7
		c-2.3,0.5-5.2-0.7-7.5-1.9c-17.4-8.3-35.2-15.9-52-25.3c-32.7-18.3-62.9-40.1-88.9-67.2c-27.8-29.1-50-62.1-67.9-98.2
		c-8-16.1-16.5-32-26.1-47.1c-13.2-20.8-29-39.4-48.7-55c-34.4-27.3-74.3-41.3-115.9-50.9c-32.4-7.4-65.4-12.9-98.3-17.6
		c-29.2-4.1-57.5-10.8-85.5-19.7c-29-9.2-55.1-23.6-77.3-44.3c-17.5-16.4-34.5-33.4-50.7-51c-17.2-18.7-35.8-35.7-56.1-51
		c-24.5-18.4-50.3-35.2-78.4-47.5c-31.7-13.8-64.6-24.1-98.7-31c-30.3-6.1-60.8-7.3-91.4-8c-31.4-0.7-62.1,6.4-92.8,11.9
		c-1.8,0.3-3.1,3-5.9,5.9c12.7,3.5,23.4,2,33.6,0.1c13.3-2.4,26.5-3.1,39.8-2.4c16.6,0.8,33.2,2.6,49.8,3.3
		c21.6,0.9,42.2,7,62.6,12.6c34.6,9.6,67.7,23.7,98.7,42.2c31.7,18.9,60.3,41.6,85.7,68.2c17,17.8,31.6,37.8,48.1,56.2
		c13.3,14.9,26.7,29.9,41.9,42.8c31.9,27.1,69.3,44.3,109.4,55.7c14.1,4,28.3,7.4,42.5,10.8c21.4,5.1,42.7,10.2,64.2,14.7
		c30.7,6.4,60.8,14.6,89.5,27.6c32.6,14.8,58.3,37.1,75,69.1c7.7,14.7,14.5,29.9,21.8,44.9c7,14.4,13.2,29.2,21.2,42.9
		c35.1,59.9,82.3,107.8,143.1,141.6c25.6,14.2,52.4,25.6,81.2,32.4c16.9,4,33.8,7.4,51.1,8.8c8.2,0.7,13.7,3.9,15.5,12.6
		c5.3,26.1,12.5,51.9,16.1,78.2c4.5,32.3,10.8,64.4,11.4,97.2c0.2,8.7,0.4,17.4,1.4,25.9c4.2,34.6,0.9,69.3,2,103.9
		c0,1.3-0.1,2.7-0.3,4c-1.2,7.9-5.1,13.2-13,16c-16.7,5.9-33.4,8.1-51.1,4.8c-24.9-4.6-49-11.2-72.4-21.6
		c-56.2-24.9-102.4-61.2-136.9-112.4c-19.4-28.7-40.2-56.4-60.6-84.4c-16.2-22.2-35-41.9-56.6-58.9c-21.6-17-45-31.4-71.6-38.7
		c-25.7-7-51.9-11.8-78.9-10.6c-26.1,1.1-51.8-2.3-77.3-8c-13.9-3.1-26.2-9.1-38.2-16.6c-29.8-18.7-53.2-44.4-75.8-70.6
		c-24.6-28.5-53-52.4-83.3-74.2c-28.2-20.3-58.7-36.7-90.6-50.3c-28.1-12-56.4-23.8-86.2-31.1c-12.2-3-24.2-7.1-36.5-10.2
		c-20.6-5.3-41.2-10.6-61.9-15.5c-16.8-3.9-34.1-6.2-50.7-11c-24.5-7-49.6-10.6-74.6-13.7c-43.6-5.5-87.2-11.1-131.4-10.6
		c-16.6,0.2-33.3-0.8-49.9-2c-29.2-2-58.4-4.6-87.6-6.9c-50.6-4.1-100.5-12-148.7-28.5c-37.7-12.9-75.2-26.3-113.2-38.5
		c-17.7-5.7-36-9.8-54.3-13.1c-38.3-7-77.1-4.4-115.7-4.6c-8-0.1-15.8,1.2-23.5,6.6c-0.2,7.9-0.6,15.8-0.4,23.7
		c0.2,8.5-1.3,17.1,2,26.3c5,0.5,9.5,1.3,14,1.4c13.3,0.2,26.7,0.4,40,0c44.6-1.1,87.3,8.6,129.2,22.7
		c40.3,13.6,80.6,27.2,120.6,41.7c34.7,12.6,70.9,18,107,23.5c17.7,2.7,35.7,4.3,53.6,5.4c33.2,2,66.5,3.2,99.7,4.6
		c18,0.8,36,0.7,53.9,2.1c27.2,2,54.4,4.4,81.5,7.7c24.4,3,48.8,7.1,73,11.6c19.6,3.7,39,8.6,58.4,13.1c29.8,7,59.8,13.1,89.3,21.4
		c39.1,10.9,76.8,25.8,113.4,43.6c51,24.8,95.2,58.7,133,100.7c18.4,20.4,37.9,39.3,58.7,57c31.9,27,69.1,42.2,110.8,45.4
		c18.6,1.4,37.3,2.6,55.9,1.8c23.7-1,46.3,4.6,69.2,8.6c3.9,0.7,7.6,2.5,11.3,4c29.8,11.8,54.4,31.2,74.8,55.2
		c22.9,26.8,44.4,54.9,65.6,83.1c18,24,35.1,49,57.5,69c55.2,49.4,118.3,83.3,192.8,93.3c16.6,2.2,33.1,3.2,49.6-0.6
		c6.2-1.4,12.9-3.7,20.3,0.7c0.3,2.8,1.4,6.1,1,9.1c-3.8,29.1-7.2,58.2-12,87.1c-3.7,22.3-8.5,44.5-13.8,66.5
		c-6.4,26.5-13.2,53-21,79c-7.1,23.6-15.7,46.7-24,69.8c-12.9,35.7-28.8,70.1-45.2,104.3c-4.2,8.7-9,9.9-17.9,5.7
		c-10.2-4.9-20.2-10-30.6-14.5c-29.3-12.8-60-21.6-91.1-29.1c-26.6-6.5-53.6-11-80.8-13.1c-51.9-4.1-103.6-3.4-155.4,5.1
		c-57.6,9.5-112.9,25.4-164.9,52c-4.4,2.2-12.9,2.4-11.6,8.6c1.7,7.8,9.9,3.9,15.3,3.6c30.6-1.3,61.1-3.9,91.7-4.4
		c30.6-0.5,61.2-1,91.8,2.2c25.1,2.6,50.5,3,75.4,8.1c21.5,4.4,43.3,7.5,64.8,11.8c17.6,3.5,35.2,7.4,52.5,12.3
		c26.9,7.6,53.6,15.9,80.2,24.6c9.8,3.2,20.5,5.3,29.4,13c-1,3.6-1.1,7.1-2.7,9.7c-20.6,32.7-41.5,65.1-66,95.1
		c-1.5,1.9-4.4,2.6-7,4c-12.4-8.4-24.2-17.1-36.6-24.6c-28.6-17.2-59.4-29.2-91.8-37.8c-28.5-7.6-57.2-12.7-86.5-14.5
		c-25.2-1.6-50.6-1.3-75.9-1.6c-40.9-0.4-80.9,7.1-121,13.7c-21,3.5-41.7,8.5-62.5,13.3c-28.5,6.7-56.9,13.8-85.4,20.8
		c-18.1,4.4-36.1,9.4-54.3,13.2c-21.5,4.5-43.5,7-64.7,12.3c-28.7,7.3-58.1,8.8-87.1,10.7c-59,3.9-117-3.9-173-23.8
		c-41.5-14.7-80.6-34.4-118.6-56.7c-59.3-34.7-114.1-75.9-169.8-115.9c-43.8-31.4-88.1-62.2-135.7-87.7
		c-48.9-26.2-99.5-47.4-153.6-60.5c-37.3-9-74.9-12.2-113-11.1c-15.3,0.4-30.5,3.2-45.7,5.2c-3.1,0.4-6.6,1.6-5.6,7.5
		c10.3,3.2,21.7,3.8,32.7,4.6c36,2.5,70.9,9.4,105.3,20.9c33,11,64.8,24.4,95.2,40.7c51.1,27.3,99.2,59.7,145.5,94.6
		c45.2,34.1,89.9,68.7,135.5,102.3c62.3,45.8,126.9,87.6,199.8,115.3c39.5,15,80,26.3,121.9,29.5c37.1,2.9,74.5,1.3,111.8,1.4
		c8,0,16-0.9,23.9-2.1c40.1-6.2,80.3-11.7,119.7-21.9c30.3-7.8,61-13.7,91.5-20.7c15.6-3.5,31.1-7.5,46.6-11.1
		c20.8-4.7,41.4-10.7,62.4-13.5c30.3-4,60.4-9.9,91.2-10.9c46.1-1.4,91.7-1.5,137.2,8.5c36.2,8,69.8,21.6,101.3,40.7
		c18.3,11.1,18.6,13.8,4.2,29.8c-28.1,31.2-57.6,61.1-89.1,88.9c-43.5,38.4-89.2,73.9-137.8,105.7c-55.2,36.1-112.5,68.4-173.2,94.4
		c-22.6,9.7-45.4,18.9-68.3,27.6c-21.7,8.2-43.7,16-65.8,22.9c-19.7,6.2-39.7,11.2-59.7,16.2c-15.5,3.9-31,7.9-46.7,10.6
		c-26.2,4.6-52.7,7.8-79,12.3c-51.4,8.8-103.4,9.1-155.3,10.7c-16.6,0.5-33.2-1.5-49.8-2.3c-18-0.9-36-1-53.9-2.8
		c-33.8-3.3-67.6-7-100.8-14.2c-33.8-7.3-67.9-13.9-101.4-22.5c-25.7-6.6-50.8-15.8-76.1-24.2c-40.4-13.4-79.7-29.9-117.9-48.6
		c-63.5-31-124.5-66.4-181.2-108.7c-24-17.9-47.4-36.7-71.1-55c-3-2.3-5.8-5.9-11.5-2.1c0,47.2,0,95.2,0,143.1
		c0,7.3,2.8,12.6,9,16.7c18.4,12,36.4,24.6,55,36.2c58.8,36.8,120.2,68.5,184.4,94.8c27.7,11.3,55.9,21.4,84.2,31.1
		c22,7.5,44.4,14,66.8,20.2c19.2,5.4,38.5,10.3,58,14.6c20.8,4.6,41.8,8.4,62.7,12.3c37.4,6.8,75,11.9,112.9,14.2
		c17.3,1,34.6,1.7,51.8,2.8c9.9,0.6,19.8,2.2,29.7,2.6c13.3,0.5,26.7,0.4,40,0c9.3-0.3,18.5-1.6,27.7-2.4c6-0.5,11.9-1,17.9-1.3
		c17.3-0.9,34.6-1.1,51.8-2.8c26.5-2.6,53-5.7,79.4-9.5c19.1-2.7,38.1-6.5,57-10.5c19.5-4.2,38.9-8.9,58.2-14
		c26.3-7,52.8-13.8,78.7-22.3c28.4-9.4,56.1-20.6,84.2-31c43.2-15.9,84.2-36.6,124.7-58.2c71.8-38.4,138.9-84.1,201.6-136.1
		c40-33.2,78.6-68.1,113.9-106.4c43.4-47,83.7-96.6,120.1-149.4c36-52.2,67.7-106.7,95.8-163.5c19.2-38.8,35.8-78.7,50.9-119.2
		c7.2-19.3,14-38.8,19.8-58.6c7.8-26.1,14.7-52.5,21.5-78.9c4.9-19.3,9.8-38.8,13.2-58.4c4.8-27.5,7.9-55.4,12.6-82.9
		c6.7-39.6,8.2-79.5,8.4-119.4c0.1-22.7-0.4-45.3,0.1-68c1.1-52.8-5.7-105.1-12.3-157.3c-2.5-19.8-6.5-39.4-10.6-59
		c-4-18.9-9.4-37.4-13.4-56.3c-7.5-35.9-19.3-70.6-30.9-105.3c-9.1-27.1-20.4-53.4-31-80c-23.9-59.4-53.7-115.9-87.1-170.4
		c-44.3-72.4-95.3-139.8-153.6-201.4c-39.8-42.1-82-81.9-127.3-118.2c-56.8-45.4-116.8-85.9-180.4-121.2
		c-30.8-17.1-62.3-32.9-94.4-47.4c-39.7-17.9-80.1-33.9-121.8-47.2c12.1-1.2,24-1.9,36-1.9c137.3-0.2,274.7-0.4,412-0.4
		c395.3,0,790.6,0,1186,0c32.7,0,65.3-0.4,98-0.4c8.6,0,17.3,0.7,25.9,1.6c6.7,0.7,10.9,5.2,11.9,11.7c1,6.6,1.2,13.3,1.2,19.9
		c0,106-0.1,212-0.2,318c0,5.3,0.3,10.7-0.6,15.9c-3.8,21.9-3.6,43.6,1.3,65.3c1.4,6.4,1,13.2,0.8,19.8c-0.4,19-6.2,37.9-0.8,57.1
		c1.4,4.9,0.1,10.6-0.4,15.9c-1,11.2-3.2,22.4-3.1,33.7c0.3,31.3-2.5,62.6,2.7,93.8c0.6,3.9,0.4,8,0.4,12c-0.1,58-0.1,116-0.4,174
		c0,6.6-1.1,13.2-1.8,19.8c-2.4,23.2-4,46.5,1.2,69.5c3.4,15.1,4.8,30.2,4,45.6c-3.3,58.6-2.3,117.3-1.7,175.9
		c0.2,17.8,3.4,35.9-3.2,53.5c-1,2.7,0.7,6.3,1.1,9.5c2.8,23.2,4.4,46.5-0.2,69.6c-3.7,18.6-3.6,37.3-0.8,55.6
		c3.6,23.3,3.9,46.6,1,69.7c-1.9,15.3-2.1,30.5-2.2,45.7c0,4.5,0.7,9.4,2.5,13.5c6.4,14.9,5.9,30,1.1,44.9
		c-3.1,9.8-4.1,19.5-3.8,29.5c0.7,31.3,1.9,62.6,2,93.9c0.5,192.7,0.8,385.3,1,578c0.3,266.7,0.5,533.3,0.6,800
		c0.1,364.7,0.2,729.3,0.2,1094c0,326,0,652,0,978c0,6.7,0.2,13.3-0.1,20c-0.2,4.5-1.2,8.9-1.7,13c-2.8,1.2-4.7,2.6-6.5,2.6
		c-950.6,0.3-1901.2,0.5-2851.9,0.7c-3.9,0-7.8-0.8-11-1.2c-6.7-6.7-4.9-14.4-4.9-21.5c-0.2-33.3-0.1-66.7-0.3-100
		c0-3.4,1.8-8.1-4.4-10.1c-1.3,2-2.9,4-3.8,6.3c-6.2,15.7-9.2,32-9.4,48.8c-0.1,8.6,0.4,17.1-5.1,24.9c-2.3,3.3-1.8,9-1.8,13.6
		c-0.2,17.3,0.2,34.7-0.2,52c-0.4,18.6-2.5,21.5-19.6,27.9c-20.6,7.7-41.3,15-61.9,22.6c-307.3,113.9-614.6,227.9-921.8,341.9
		c-1.7,0.6-2.9,2.4-4.4,3.6c-20,0-40,0-60,0C4,3958.7,4,1985.3,4,12c8-2.7,16-5.3,24-8c6.7,0,13.3,0,20,0c6.1,2.5,12.1,5.3,18.3,7.5
		c22.6,7.9,45.5,15.2,68,23.5c110.5,41,220.9,82.3,331.4,123.4c107.4,39.9,214.8,79.8,322.2,119.6c7.3,2.7,14.3,7.3,23.9,6.2
		c0.4-5.9,1.1-11.7,1.2-17.6c1.3-40.6,2.5-81.3,3.9-121.9c0.3-7.9-0.9-16.1,5.3-24.6c5.4-0.2,12-0.8,18.5-0.8
		c333.9-0.2,667.9-0.3,1001.8-0.5c304.6-0.1,609.2-0.2,913.8-0.4c454.6-0.2,909.1-0.3,1363.7-0.5c13.3,0,26.7,0,40,0
		c46.7-0.1,93.3-0.3,140-0.4c6,0,12,0,18,0.5c20.6,1.8,22.7,4.1,23.5,24.1c0.2,4.7,0.1,9.3,0.1,14c-0.1,27.3-0.2,54.7-0.2,82
		c0,3.8-0.9,8.1,4.4,11.2c4.2-1.4,9.2-2.8,14.1-4.6c130.5-48.4,260.9-97,391.5-145.2c85-31.4,169-65.3,255.4-92.6
		c1.8-0.6,3.4-1.9,5.2-2.9c6.7,0,13.3,0,20,0c5.4,2.2,10.8,4.3,16.4,6.6c3.3,10.6,1.8,21.3,1.8,31.8
		c0.1,1952.6,0.1,3905.3,0.1,5857.9c0,6.7,0.2,13.3-0.1,20C5049.9,5924.3,5048.7,5928.1,5048,5932z M61.1,5916.4
		c13.7-2.6,23.4-7,33.2-10.6c315.5-116.7,630.9-233.4,946.4-350.1c3.7-1.4,7.5-2.8,11.2-4.3c5.6-2.2,8.4-6.3,8.4-12.3
		c0.1-6.7,0.2-13.3,0.2-20c0.2-20,0.5-40,0.7-60c0.2-17.3,0.9-34.6,0.8-51.9c-0.4-38.7-1.6-77.3-1.7-116
		c-0.1-80,0.3-159.9,0.4-239.9c0-4-0.1-8-0.1-12c-0.5-54-1.9-108-1-162c0.4-26-0.4-51.9-0.6-77.9c-0.1-17.3-0.3-34.7,0.8-52
		c1.3-19.3,3.8-38.4-0.2-57.6c-0.8-3.8-0.3-8-0.3-12c-0.1-21.3-0.1-42.7-0.1-64c0-8.6,0-17.1,3.6-25.5c1.9-4.5,2.2-10.9,0.5-15.4
		c-3.5-9.1-3.3-18.2-3.3-27.5c0-28.7-0.2-57.3,0.1-86c0.1-7.2,1.2-14.5,2.9-21.5c2.3-10,3.4-20.1,0.2-29.6
		c-3.5-10.5-3.5-20.9-3.5-31.5c0-152,0-304,0-455.9c0-10.7,0.5-21.3,0.7-32c0.4-24,1.3-48,1.1-72c-0.2-30-1.4-59.9-2-89.9
		c-0.1-5.3-1.3-11.5,0.9-15.8c7.5-14.7,3.3-30.1,4.3-45.2c0.2-3.1-0.3-7.1-2.1-9.4c-4.2-5.4-3.3-11.2-3.3-17.1
		c0.3-46,0.6-91.9,0.7-137.9c0-26-0.4-52-0.7-78c-0.8-70.6,0.8-141.1,0.1-211.7c-0.9-96.6-0.4-193.3-0.1-289.9
		c0-11.9,2.8-23.7,3.9-35.6c1.9-19.8,4.3-39.6-2.7-59.2c-3.6-10.1-4.2-20.8-3-31.6c3.4-30.4,4.7-60.9,2.9-91.4
		c-0.3-5.3-0.8-10.7-0.5-16c0.4-6.5,1-13.2,2.7-19.5c2.6-10,2.9-19.5-0.4-29.4c-1.9-5.5-2.9-11.6-3-17.5c-0.4-16-0.2-32-0.1-48
		c0-4.6-0.1-9.6,1.4-13.8c2.2-6.7,1.7-12.9,0.7-19.6c-2.5-15.7-5.2-31.4-6.3-47.2c-1.1-15.9-0.2-32-0.2-48c0-488.6,0-977.2,0-1465.8
		c0-6-0.3-12,0.1-18c0.3-4.6,0.3-9.7,2.4-13.5c3.5-6.4,3-12.8,3-19.4c0-108.7-0.1-217.3-0.1-326c0-61.3,0-122.6-0.1-184
		c0-7.2,1.1-14.6-2.3-21.9c-6.8-2.7-13.6-5.6-20.4-8.1C752.4,283.4,467.5,178.1,182.6,72.9C148.2,60.2,113.8,47.6,79.4,35
		c-5.5-2-10.8-5.5-17.1-2.2c-3.2,6.3-1.9,13.1-1.8,19.6c0.6,60,1.3,120,2,179.9c0.1,7.3-0.3,14.6-0.5,22c-0.4,14.6-1.2,29.3-1,43.9
		c0.5,40.6,1.4,81.2,2,121.8c0.1,9.3-0.9,18.6-0.9,28c-0.1,22.6,0.1,45.3,0.2,67.9c0,9.3,0.3,18.6,0.2,27.9
		c-0.2,18-0.5,35.9-0.7,53.9c-0.2,16-0.3,31.9-0.4,47.9c-0.1,13.3-0.6,26.6-0.3,40c0.7,34.6,2,69.2,2.4,103.9
		c0.3,22-0.6,44-1.1,65.9c-0.4,20-1.4,40-1.6,59.9c-0.3,27.3,0.4,54.7-0.3,82c-0.7,27.3,5.3,54.5,0.6,81.8c-0.4,2.5,0.5,5.3,0.7,7.9
		c0.6,9.3,1.5,18.6,1.6,27.9c0.1,39.3-0.1,78.6-0.2,118c0,4.7-0.2,9.3-0.5,14c-1.4,19.9-4,39.8,0.7,59.7c0.9,3.8,0.4,8,0.3,12
		c-0.1,88.6-0.2,177.3-0.4,265.9c0,11.3-0.4,22.7-1.1,34c-1.1,16.6-2.9,33.2,0.3,49.8c0.6,3.2,0,6.6-0.2,9.9
		c-0.5,10-1,19.9-1.5,29.9c-2.3,41.9,4.2,83.8,0.5,125.8c-0.2,2,0,4,0.3,6c2.5,15.3,1.6,30.5,0.1,45.8c-1,10.6-1.5,21.3-1,32
		c2.2,44.6,4,89.2,0.4,133.9c-0.1,1.3,0,2.7,0,4c0.6,31.3,1.7,62.6,1.7,93.9c0,24-1.3,47.9-1.9,71.9c-0.2,6.7,0,13.3,0.2,20
		c0.3,14.6,1.4,29.3,0.9,43.9c-1.5,41.3-2.5,82.6,0.8,123.8c0.4,4.6-0.6,9.3-0.7,13.9c-0.3,13.3-1.5,26.7-0.6,39.9
		c2,28,1.3,55.9,0.5,83.9c-0.7,28.6,0.1,57.3,0.2,85.9c0.1,12,0.4,24,0.2,36c-0.4,20.7-1.5,41.3-1.6,61.9
		c-0.2,54.7,0.1,109.3,0.1,164c-0.3,267.3-0.9,534.6-1,801.9c-0.1,657.9,0,1315.8,0.1,1973.8c0,74,0.2,148,0.4,222
		C60.2,5899.5,60.7,5906.7,61.1,5916.4z M1060.2,379.7c5.3-12.8,15.5-12.8,25.8-12.7c7.3,0.1,14.7,0,22,0c868,0,1736,0,2604,0
		c70.7,0,141.3,0.1,212,0.2c21.3,0,42.7,0.2,64,0.6c3.2,0,6.9,0.4,9.6,1.9c2.5,1.4,3.9,4.7,6.3,7.8c25.4-10.1,50.2-19.8,74.9-29.6
		c2.5-1,4.8-2.3,7.1-3.6c0.5-0.3,1-0.8,1.2-1.4c0.2-0.6,0-1.3-0.2-3.2c-6.5,0-13,0-19.6,0c-72.7,0.1-145.3,0.3-218,0.3
		c-259.3,0.1-518.7,0.4-778,0.3c-591.3,0-1182.7-0.2-1774-0.4c-69.3,0-138.7-0.3-208-0.5c-6.5,0-13.4,1.4-20.7-2.9
		c0.2-3.7,0.5-7.9,0.8-13.2c9.7-0.6,18.2-1.5,26.8-1.7c10.7-0.2,21.3,0.2,32,0.2c986,0,1972,0,2958,0c16.7,0,33.3-0.2,50-0.3
		c11.4,0,22.4-1.8,33.2-5.9c45.5-17.2,91.2-33.9,136.7-50.8c5.6-2.1,11-4.4,16.8-6.8c2.3-19.7,1.2-39,0.9-58.3
		c-0.3-19.1,1.7-38.4-2.6-57.2c-9.3-4-18.1-2.5-26.6-2.5c-1143.3-0.1-2286.6-0.1-3430-0.1c-7.3,0-14.7-0.3-22,0
		c-4.5,0.2-8.9,1.5-13.5,2.3c-0.8,4.1-1.9,7.3-2,10.5c-0.1,46-0.1,91.9-0.1,136.7c2.1,2,3,3.3,4.1,3.8c25.6,9.4,51.2,18.9,76.9,28.1
		c12.5,4.5,25.4,7.9,37.8,12.8C983.1,348.9,1020.2,363.8,1060.2,379.7z M2728.4,1952.6c-9.9-6.1-16.2-10.9-23.2-14.3
		c-31.2-15.1-64-26.2-97.6-34.8c-21.2-5.4-43.1-8.2-64.7-12.6c-42.7-8.6-86.1-8.7-129.3-10.1c-41.2-1.4-82.5-1.7-123.8,1.9
		c-30.5,2.7-61.3,1.5-91.9,2c-6,0.1-12,0.1-18,0.4c-53.3,3.2-106.6,1.6-159.8-1.4c-22.5-1.3-45-4.9-67.4-7.6
		c-24.5-2.9-48.7-7.8-72.2-15.2c-19.6-6.2-39.1-13-58.4-20.1c-42.5-15.7-82.9-36-121.9-58.8c-52.5-30.6-101.4-66.5-148.3-104.8
		c-56.2-45.9-111.4-93.1-166.5-140.4c-64.2-55.1-127.6-111.1-197.2-159.5c-33.9-23.6-68.3-46.4-104.6-66c-2.6-1.4-5.8-1.9-9.9-3.3
		c-0.6,4.8-1.2,8-1.2,11.1c-0.1,15.3,0.3,30.7-0.2,46c-0.3,10.3,3.2,16.9,12.5,22.7c21.5,13.2,42.5,27.5,63,42.2
		c51.5,36.9,100.1,77.4,147.8,119c61.7,53.8,121.9,109.5,185.1,161.6c52.4,43.2,106.4,84.4,164.1,120.5
		c29.3,18.3,59.7,34.9,91.6,48.5c25.1,10.7,50,21.9,75.7,30.7c27,9.2,54.7,16.5,82.9,21.9c42,8,84.2,14,126.8,14.8
		c58.6,1.1,117.1,0.4,175.6-6.6c44.9-5.4,90.2-8.1,135.3-12.1c25.9-2.3,51.7-4.8,77.6-6.7c13.9-1,28-0.2,41.9-1.5
		c35.3-3.3,70.7-1.5,105.9,1c55.2,3.8,109.4,13.9,161.5,33.3C2721.1,1954.9,2723.2,1953.7,2728.4,1952.6z M33.2,24.6
		c-3.5,9.9-1.9,19.3-1.9,28.5c-0.2,607.9-0.5,1215.8-0.5,1823.7c-0.1,1335.1,0,2670.2,0,4005.4c0,6.7,0,13.3,0.2,20
		c0.1,2.6,0.1,5.7,1.3,7.8c1.2,2,3.9,3.9,6.1,4.1c2.2,0.2,5.3-1.2,6.7-3c1.5-1.8,2-4.9,2.1-7.4c0.3-8.7,0.4-17.3,0.4-26
		c-0.1-1358.4-0.3-2716.9-0.4-4075.3c0-567.9,0-1135.8,0-1703.7c0-18,0.3-36,0.3-54c0-6.6,1.2-13.4-3.3-19.9
		C40.9,24.6,37.2,24.6,33.2,24.6z M5013.4,24.6c-0.6,5.6-1.5,10.8-1.6,16c-0.2,12,0.2,24,0.2,36c-0.1,595.2-0.3,1190.5-0.3,1785.7
		c0,1339.1,0,2678.3,0,4017.4c0,7.3,0,14.7,0.2,22c0.1,2.6-0.1,5.6,1.1,7.8c1.1,2,3.9,4.5,5.8,4.4c2.9-0.2,6.3-1.9,8.2-4.1
		c1.5-1.7,1.2-5.1,1.2-7.7c0.2-7.3,0.1-14.7,0.1-22c-0.1-1356.5-0.2-2712.9-0.3-4069.4c0-584.6,0-1169.2,0-1753.7
		c0-7.3,0.1-14.7-0.1-22c-0.1-3.2-1-6.4-1.6-10.4C5021.9,24.6,5018.2,24.6,5013.4,24.6z M1595.8,1463.3c13,1.7,21.5,3,30,3.1
		c47.4,0.4,94.3,6.4,141.5,9.7c29.2,2,58.2,6.3,87.2,10.3c15.8,2.2,31.6,5.1,47.1,8.8c29.7,7.2,59.6,14,88.5,24.3
		c28.8,10.2,57.9,19.5,85.3,33.6c18.3,9.4,36.9,18.3,56,26.1c12.9,5.3,26.4,9.6,40.1,11.8c29.6,4.8,59.4,7.4,89.5,7
		c30.3-0.4,59.8,4.8,88.7,12.9c42.7,12,81.6,31.9,116.8,59c12.9,9.9,23.3,21.9,31,36.1c2.8,5.1,4.5,11.2,5,17
		c0.8,9.3-9.3,18.4-18.4,16.4c-11-2.5-22-5.5-32.4-9.8c-14.8-6-28.8-13.7-43.5-20.1c-25.8-11.2-52.8-18.5-81-20.5
		c-47.6-3.3-94.4,3.4-141,12.2c-19,3.6-37.7,8.2-56.6,12.4c-15.6,3.4-31.1,7.1-46.8,10.3c-21.5,4.4-43.1,8.7-64.7,12.5
		c-13.7,2.4-27.6,4.9-41.5,5.8c-20.6,1.3-41.3,1.7-61.9,1.8c-48.2,0.3-93.7-11.6-136.3-33.7c-17-8.8-32.8-20.1-49.3-30.1
		c-5.4-3.2-9.7-8.9-18.1-9c1.4,8.1,6.2,12.7,10.8,17.1c3.8,3.7,8.2,6.8,12.1,10.4c48.8,43.1,105.6,69.2,169.9,77.9
		c38.4,5.2,77.2,4.2,115.8,1.8c21.9-1.3,43.7-4.8,65.4-7.9c33-4.7,65.9-9.7,98.7-14.8c39.6-6.2,79.3-10.4,119.4-8.8
		c27.4,1.1,53.7,6.5,78.8,19.2c26,13.2,51.8,26.8,81.1,32.8c18.3,3.8,35.2,4.2,52.8-2.1c15.7-5.7,28.3-14.7,37.4-28.3
		c18-26.8,17-55.3,5.5-83.8c-13.1-32.7-37.5-56.2-66-75.7c-30.8-21.2-64-37.9-99.4-50.1c-28.5-9.8-57.6-17.1-87.4-19.6
		c-27.2-2.3-54.6-2.5-81.9-1.7c-31.3,1-60.7-5-89.4-17.3c-25.6-11-51.1-22.5-78.1-30c-26.3-7.3-52.1-16.4-78.6-22.4
		c-35.7-8.1-72.2-12.4-108.7-15.1c-19.2-1.4-38.5-2.7-57.8-2.8c-48.6-0.3-97.3-1.3-145.8,2.6c-19.9,1.6-39.7,3.6-59.6,5.6
		C1604.2,1458.4,1602.2,1460.1,1595.8,1463.3z M1075.3,797.5c4-0.5,8.7-0.4,12.9-1.8c18.9-6.3,37.7-13.1,56.6-19.6
		c34-11.6,68.2-22.9,104.2-26.5c28.7-2.9,57.4-0.9,84.6,9.6c20.4,7.9,40.1,17.6,60.2,26.4c15.8,6.9,31.4,14.9,47.7,20.2
		c45.7,14.9,93,16.3,140.4,13.6c40.6-2.3,80.8-8.9,120.8-15.4c35-5.7,70.1-7.6,105.4-8.1c40-0.5,78.1,8.6,114.8,22.8
		c44.5,17.3,84.1,43,117,78c18.2,19.4,35.5,39.7,52.6,60.1c30.6,36.6,70.5,56.2,116.7,63.2c26.3,4,52.9,6.2,79.5,8.1
		c19.4,1.4,38.3,4.4,56.9,10c32.1,9.7,60.1,25.1,78.2,54.8c0.4,0.7,2.3,0.5,3.5,0.7c2.8-7.8,3.2-8.4,1.9-10.6
		c-4.9-7.9-9.2-16.3-15.1-23.4c-24.4-29.1-56.3-46.6-92.4-56.1c-27-7.1-54.4-12.7-81.8-17.9c-18.4-3.5-35.9-9.3-53.2-16.4
		c-13.9-5.7-25.4-14.1-36-24.5c-14.4-14.1-26.4-30-37.6-46.6c-25.6-37.9-56-71.1-93.5-97.6c-36.1-25.5-74.9-45.2-117.7-57.4
		c-16.1-4.6-32.4-7.3-48.7-10.4c-38.4-7.1-77-6.4-115.5-2.9c-43.1,3.9-85.9,9.9-128.8,15.3c-25.2,3.2-50.5,4.2-75.8,3.2
		c-22-0.8-44-2.7-64.7-11c-20.3-8.2-40.6-16.5-60.5-25.7c-33.3-15.5-67.1-28.2-104.2-32.5c-32.5-3.7-64-0.7-95.2,5.9
		c-43.7,9.1-85.4,24.9-126.5,42.1c-6.4,2.6-9.6,6.8-9.6,13.6c0.1,17.3,0.2,34.6,0.4,52C1073,794.1,1074.1,795.2,1075.3,797.5z
		 M2443.1,1526.4c-4-7.5-5.1-11.2-7.5-13.9c-21.7-24.5-45.8-46.3-72.3-65.6c-55.6-40.6-118-66.4-183.2-86.2
		c-35.6-10.8-72-19.4-109-24.3c-38.2-5.1-76.4-10.8-115.1-13c-32.5-1.9-65-5.4-97.5-7.8c-19.2-1.4-38.7-1.2-57.8-3.4
		c-42.9-4.9-86.2-7.3-128.8-14.9c-15.7-2.8-31.4-5.6-47.2-8.1c-36.2-5.8-71.9-13.9-107.1-24c-4.5-1.3-9-2.4-13.5-3.7
		c-25.6-7.1-51.3-14-76.8-21.4c-24.9-7.2-49.5-15.5-74.5-22.5c-28.2-7.9-56.6-14.7-84.9-22.2c-37.4-9.9-75.5-16.1-113.8-21
		c-21.1-2.7-42.5-2.9-63.8-3.8c-5.7-0.3-12.2-1.4-17.5,5.2c-0.9,18.1-1.9,37.1,0.7,56.9c5.3,0.7,9.8,1.5,14.3,1.7
		c13.3,0.5,26.7,0.1,39.9,1.3c17.2,1.6,34.3,4.7,51.4,6.7c35.2,4.2,69.2,13.9,103.5,22c26.5,6.3,52.4,15,78.7,22.4
		c26.3,7.3,52.6,14.4,79,21.4c41.2,10.8,82.1,22.8,123.7,31.7c44.2,9.4,88.9,17.1,134.2,20.1c21.2,1.4,42.3,5,63.5,6.3
		c46.5,2.9,93.1,1.8,139.5,6.1c21.2,2,42.4,2.7,63.7,3.5c34,1.4,67.7,5,101.3,9.5c25.7,3.5,51.5,6.8,76.9,11.9
		c33.2,6.7,66.3,14.6,98.7,24.7c33.7,10.5,66.6,23.3,98.1,39.3c30.2,15.5,58.8,33.8,85.7,54.7
		C2429.8,1519.1,2434.5,1521.3,2443.1,1526.4z M3457.1,1517.8c-6.4,3.5-12.4,6.4-17.9,10c-12.3,8-24.8,15.7-36.2,24.8
		c-6,4.8-11.1,11.7-14.5,18.7c-6,12.5-0.4,24.1,12.5,28.9c7.6,2.8,15.5,3.6,23.6,2.2c15.7-2.8,31.5-5.3,47.2-8.5
		c68.1-14.1,133.5-36.7,197.3-64.2c96.8-41.7,189.5-91.6,282-141.9c2.9-1.6,5.8-3.2,8.6-5.1c6.2-4,6.8-9.2,2.8-16.3
		c-10.6,5.5-21.1,10.8-32.2,16.6c-7.5-15.8-16-29.9-22.5-45.5c17.9-11.5,37.8-15.3,56.7-23.1c-0.3-4.1-0.6-7.8-1-12.8
		c-7.8,2.3-14.2,4-20.4,6c-7,2.3-13.7,5.2-20.7,7.3c-6,1.8-11.4,6.6-21.4,4.9c5.3-3.7,8-6.3,11.3-7.8c15.2-6.9,30.5-13.4,45.7-20.1
		c6.9-3,6.9-3.3,4.6-15.1c-27.2,7-51.3,21-75.6,32.5c-1.6-0.6-2.4-0.7-2.8-1.1c-3.8-3.7-7.5-7.5-11.4-11.1
		c-70.8-66.2-153.7-86.3-246-58.9c-104.6,31-168.4,126.6-171.7,222.7c-0.3,8.5-0.7,17-1.1,25.7c-6.6,2.4-12.3,4.4-17.9,6.4
		c-22.7,8-44.6,17.7-65.4,29.8c-29.6,17.2-56.8,37.4-79.2,63.4c-7.3,8.5-13.7,18-19.2,27.9c-5.1,9.2-2.7,18.6,5.9,24.7
		c5.8,4.1,12.8,7.2,19.7,9c8.3,2.1,17.1,2.8,25.7,3.3c24.7,1.5,49.3-1.3,73.7-5.2c29-4.6,57.3-12.3,85.5-20.4
		c6.9-2,13.6-5.7,21.6-4.2c3.9,4.4,7.7,9,11.7,13.5c104.6,118.6,291.9,109.1,383.9-19.7c33.4-46.7,48.2-99,45.4-156.3
		c-0.3-7.2-2.5-14.5,0.4-22c4.9-3.2,10-6.3,14.9-9.9c5.1-3.8,5.1-6.2,0.6-15.6c-6.3,3.7-12.6,7.2-18.8,11
		c-76.7,46.1-156.7,85.5-239.9,118.4c-86.9,34.3-177.1,58.3-267,83.1c-9,2.5-18.1,4.4-27.3,6.1c-31.5,6.2-63.4,9.1-95.4,6.1
		c-7.8-0.7-15.6-3.3-22.9-6.1c-5.8-2.2-7.5-8.1-3.7-13.3c7.8-10.8,15.5-21.8,24.8-31.2c37.1-37.9,81.9-63.5,131.8-80.6
		c3.6-1.2,7.6-1.2,12.3-1.9C3455.7,1508.5,3456.4,1512.9,3457.1,1517.8z M1969.1,2078.9c-2.9-4-3.4-5.7-4.3-5.9
		c-15-3-29.9-6.3-45-8.7c-26.3-4.1-53-6.5-79-11.7c-41.7-8.4-83.3-17.5-123.2-33.1c-49-19.1-92.4-46.7-131.2-82
		c-28.1-25.6-53.5-53.8-79.5-81.4c-6.4-6.8-12.5-13.9-18.5-21c-36.5-43.3-74.5-85-116.5-123.3c-42.7-38.9-90.6-69.8-142.3-95
		c-24.4-12-49.4-22.8-74.5-33.5c-20.8-8.9-41.9-16.9-63-25.1c-5.5-2.2-11.1-4.8-17.2-2.6c-3.6,16.4-3.4,72.2,0.4,87.3
		c5.7,2.8,11.4,6.3,17.6,8.6c36.8,13.6,72.7,29.5,107.7,47.3c30.3,15.4,59.8,32.1,87,52.6c19.7,14.8,38.2,31.1,56,48.2
		c51.5,49.3,97.3,104.2,150,152.3c21.2,19.4,43.1,37.8,66.3,54.6c20,14.5,41.1,27.4,63.6,37.3c22.5,9.8,45.8,18,69.4,24.8
		c19.1,5.5,38.9,9.3,58.7,11.6c36.4,4.2,73,6.6,109.7,5c20.6-0.9,41.2-2.2,61.8-3.3C1937.5,2080.9,1952,2079.9,1969.1,2078.9z
		 M3768.7,5331.3c11.3,0,22.5,0,33.8,0c18.9-0.1,37.3,2.1,54.2,11.1c9.3,5,18,10.8,23.6,21.2c-10.9,13.4-24.3,21.7-39.6,27.1
		c-17.1,6.1-34.9,8.5-53,8.4c-32.1-0.3-63.7-5.5-95-12.1c-14.1-3-26.2-9.9-35.5-21c-16.9-20.2-38.8-32.1-63.6-39.5
		c-12.8-3.8-25.7-7-38.5-10.7c-12.1-3.6-24.3-7.1-36.2-11.5c-18.7-6.8-33.6-18.8-44.8-35.3c-6-8.8-11.8-17.7-17.7-26.6
		c-10.9-16.4-24.8-29.5-41.9-39.3c-7.5-4.3-15.2-8.3-22.7-12.7c-19.5-11.6-39.4-22.5-58.2-35.1c-39.4-26.5-70.4-61-92.4-103.2
		c-25.5-49-41.3-101.3-49.1-155.6c-4.8-33-12.5-63.9-32.1-91.2c-3.1-4.3-5.5-9.2-7.8-13.9c-2.1-4.2-4-8.4-5.5-12.8
		c-6.1-18.3-6-35.3,10.2-49.2c10-8.6,12.4-20.1,10.9-32.7c-0.3-2.6-0.7-5.3-1.3-7.9c-0.6-2.6-1.3-5.2-2.2-7.7
		c-14.3-39.6-11-78.9,3.8-117.3c9-23.2,14.8-46.9,20-71c3.1-14.3,7-28.4,11.8-42.3c4.6-13.6,13.4-24.5,26-31.9
		c42.7-24.9,77-59.1,107.4-97.5c12.4-15.7,24.4-31.7,36.7-47.4c3.6-4.6,7.8-8.8,11.2-12.6c47.5,9.7,77.8,3.2,98-22.1
		c-10.8,1.2-19.1,6-28,7.3c-8.5,1.3-17.2,2.2-25.8,2.2c-9.1,0-18.7,1-26.5-5.3c0.1-1.1-0.1-1.8,0.2-2.4c0.5-1.2,1-2.5,1.8-3.5
		c25.1-26.9,54.2-47.3,90.9-54.8c14.3-2.9,28.8-5.4,43.4-7c44.2-4.7,86.9-13.9,124.3-39.8c1.3-0.9,3.6-0.4,5.7-0.6
		c1,2.1,2,3.8,2.8,5.6c8.5,21,25,30.5,46.8,31.4c9.9,0.4,20.1,0.1,29.8-1.7c9.5-1.7,19.7-1.8,29.1-7.7c-2.1-1.2-3-2.1-4-2.2
		c-10-0.4-20-0.4-30-1.2c-9.9-0.8-19.9-1.7-29.6-3.7c-9.4-2-16.9-7.6-21.6-16.4c-6.5-12.3-4.4-19.5,8.2-26
		c14.4-7.4,29.6-11.6,45.7-13.9c33.3-4.6,66.5-0.8,99.8,0.5c5.1,0.2,8.7,2.6,12.1,6.1c5.9,5.9,9.1,13,9.8,21.3
		c1.9,22.6-7,40.2-24.2,54.1c-14.3,11.5-31.1,17.9-48.6,22.4c-26.9,6.9-54.1,5.9-81.4,2.7c-5.7-0.7-11.4-1.4-20.1-2.5
		c8.4,9.9,17.5,12.5,26.1,15.1c41.2,12.7,81.7,9.5,120.8-8.3c8.4-3.8,16.3-9.3,23.4-15.2c22.7-18.9,32.3-43.4,29-72.8
		c-0.6-5.8-1.6-11.5-2.5-18.3c8.7-2,16.6-0.6,24.4,0.2c8.6,0.9,17.1,2.5,25.7,3.5c2.9,0.3,6.6,2.3,8.8-3.1c-3.6-4.2-7.7-8.4-11.3-13
		c-6.2-7.9-14.4-11.5-24.2-11.9c-3.3-0.1-6.6-0.5-10-0.7c-29.9-1.8-59.8-3.9-89.8-5.2c-17.9-0.8-36-1.1-53.9-0.5
		c-31.3,1.1-60.3,10.2-86.8,26.8c-11.3,7.1-22.7,14-34,21c-18.9,11.7-39.4,19-61.2,23.5c-33.9,6.9-68.3,10.7-101.9,19.4
		c-15.8,4.1-30.4,9.4-44,18c-15.3,9.7-29.3,21-41.4,34.4c-14.7,16.3-28.7,33.3-42.6,50.3c-16,19.6-31.1,40-47.4,59.3
		c-22.5,26.5-47.9,50.3-78.3,67.6c-22.8,13-37.1,32.1-44.7,56.5c-4.2,13.3-7.2,27-10,40.7c-4.3,20.9-9.3,41.5-17.4,61.4
		c-9.8,24.3-14.7,49.7-14.9,76c-0.2,21,3.5,41.1,10.3,60.8c3.6,10.5,2.4,18.9-6.3,27c-13.7,12.7-17.5,29.3-16.3,47.5
		c0.9,12.8,4.3,25,10.3,36.3c5.6,10.6,11.7,20.9,18,31.1c9.6,15.5,15.6,32,17.8,50.4c6,50.5,19.3,99.3,38.3,146.5
		c17.6,43.8,42.3,83,76.9,115.5c26.9,25.3,57.7,45.1,89.9,62.7c8.8,4.8,17.6,9.5,26.4,14.3c17.3,9.5,31.5,22.3,42,39
		c5,7.9,10.2,15.6,15.5,23.3c13.9,20.5,32.6,35,55.7,43.7c11.2,4.2,22.7,7.6,34.2,11c11.5,3.4,23.1,6.3,34.7,9.3
		c24.4,6.4,45.9,17.6,62.5,37.2c12.1,14.3,28.2,22.1,46.1,26.2c5.8,1.3,11.7,2.5,17.6,3.5c31.6,5.2,63.2,10.2,95.4,8.4
		c37.9-2.1,71.9-13.4,98.4-42.3c1.3-1.5,2.9-2.7,4.3-4.2c9.2-9.9,20.7-14,34.1-13.8c4.4,0.1,8.9-0.6,13.8-0.9
		c0.4-5,0.9-8.9,0.9-12.8c0-2.5-0.7-5-1-7.3c-18.5-4.1-19.2-4-48.7,2.1c-17.2-16.8-38.2-27.4-63.3-28.7
		C3814.5,5313.8,3790.5,5316.2,3768.7,5331.3z M2073.6,2576.3c-0.4-1.5-0.8-3-1.2-4.5c-4.4,0.5-8.8,0.4-13,1.5
		c-20,4.9-39.8,10.8-60,14.9c-38.7,7.8-77.8,9.9-117.3,9.6c-33.6-0.2-66.4-5.1-99-11.5c-26-5.1-51.4-13-76.5-22.4
		c-37-13.9-72.1-31.1-104.3-53.8c-26.7-18.8-52.9-38.2-78.9-57.9c-48.4-36.8-102.1-62.1-161.3-75.9c-14.3-3.3-28.5-6.9-42.8-9.9
		c-33.9-7-67.6-13.9-100.5-25.4c-41.6-14.5-78.2-36.4-109.4-67.5c-9.4-9.4-18.6-19.1-28.1-28.5c-1.6-1.6-4.1-2.3-5.8-3.2
		c-1.5,1.3-2.4,1.7-2.4,2.2c-0.3,29.3-0.6,58.6-0.9,87.9c0,5.9,3.2,10.1,7.6,13.4c9.6,7.1,19.3,14.2,29.2,20.9
		c38.6,26.2,82,41,126.8,51.4c32.4,7.5,65.4,12.1,98.1,18.5c18.3,3.5,36.5,7.4,54.5,12c10.3,2.6,20.5,6.1,30.1,10.4
		c32.9,14.8,63.3,33.7,92.5,54.8c36.7,26.4,74,52,115,71.5c25.3,12,51.5,21.6,78.2,29.8c22.3,6.8,45.2,11.4,68.4,14.1
		c15.2,1.8,30.4,3.6,45.6,4.3c15.3,0.7,30.7-0.2,46,0.3c30.3,1,59.8-5,89-11.1c34.6-7.1,67.6-19.8,99.9-34.2
		C2060.6,2584.8,2067,2580.2,2073.6,2576.3z M1620.9,542.8c8.2,0.5,14.8,1.4,21.3,1.1c18.6-0.7,37.2-2.9,55.8-2.7
		c95.3,0.8,190.6-3.2,285.8,2.8c22.6,1.4,45.2,3.4,67.5,7c21,3.4,41.6,9.2,62.3,13.8c26.8,6,52,16.5,75.7,30
		c22.6,12.9,43.3,28.9,60.4,48.7c9.2,10.6,17.7,21.7,26.3,32.7c28.3,36.1,65.2,60.2,107.2,77.4c37.7,15.5,77.5,24.2,116.9,33.3
		c31.8,7.3,63.3,15.4,93.5,28.1c29.7,12.5,57.8,27.3,79.7,51.7c4.4,4.9,9.6,9.1,14.6,13.6c1.7,1.5,2.9,5,7,0.8
		c-6.2-9.8-11.8-20.5-19.1-29.8c-25.3-32.3-59.2-53.2-95.6-70.4c-31.9-15.1-65.8-25.3-99.4-35.9c-33-10.4-65.7-21.6-96.4-37.9
		c-23.6-12.6-45.3-28-62.1-49.3c-14-17.8-28.3-35.4-43.1-52.5c-20.7-23.9-45.3-43.1-73.4-57.6c-24.9-12.8-50.9-22.8-78.1-29.8
		c-26.5-6.8-53.2-12-80.5-14.3c-23.9-2.1-47.9-0.1-71.8-3.9c-10.4-1.6-21.3-0.1-31.9,0.3c-9.3,0.4-18.5,1.6-27.8,2
		c-28.6,1.4-57.3,1.5-85.8,4.2c-45.7,4.5-91.3,10.5-136.9,16.3c-19.8,2.5-39.5,6-59.2,9.3C1628.7,532.8,1623.2,533.7,1620.9,542.8z
		 M3463.6,4745.8c16,0.2,28.4-2.3,40.1-7.2c43.1-17.7,74.9-47.7,94-90.2c4.8-10.7,7.9-22.8,9.1-34.5c3.5-33.2-17.8-56.7-51.2-57.4
		c-5.9-0.1-12,0.5-17.8,1.6c-25.6,4.5-47.4,16.8-67.1,33.2c-23.4,19.5-41.7,42.9-51.6,72c-5.2,15.3-8.1,30.8-3.5,47
		c5.1,18.4,17,29.7,35.5,33.9C3456.1,4745.3,3461.4,4745.5,3463.6,4745.8z M3950.6,4491.6c-2.7-1-5.6-2.7-8.7-3.3
		c-13.9-2.6-28-2.6-41.8,0.4c-27.7,6-51,19.6-66.9,43.7c-10.8,16.5-9.2,33.8,4.8,47.4c19.1,18.5,41.9,30.8,68.6,34.3
		c16.3,2.2,31.8-0.6,44.5-11.4C3953.1,4581.5,3952.8,4507.4,3950.6,4491.6z M3795.9,4894.2c8.3-10.9,9.4-21.7,6-33.1
		c-4.8-16.5-15.9-27.2-31.5-33.6c-16.9-7-34.8-8-52.8-8.1c-13.7-0.1-24.1,6-32.6,16.4c-18.9,23-20.3,59.5-3.1,83.8
		c8.4,11.9,19.9,19.2,34.1,22.4c8.1,1.8,15.7,1,22.6-3.4C3731.9,4896.9,3760.3,4878,3795.9,4894.2z M3711.4,5247.3
		c14.5,0.4,16.5-0.1,23.3-5.4c6.6-5.1,10.7-11.7,12.7-19.7c6.6-26.2-8.4-53.6-34.3-61.9c-6.3-2-13-3.3-19.5-3.8
		c-31.4-2.4-60.7,5.1-88.1,20.5c-9.4,5.3-17.4,12.4-22.4,22.2c-6.7,12.9-6.4,25.7,2.4,37.5c8.8,11.8,18.8,13,30,3.3
		c14.9-12.8,31.5-22.5,50.8-26.3c9-1.7,18.6-2.3,27.7-1.2c13.6,1.7,20.5,11.7,19.2,25.5C3713,5241.1,3712.1,5244.1,3711.4,5247.3z
		 M3596,4534.8c1.6,1.9,2.5,3.7,3.9,4.5c15.6,8.5,26.8,21.6,37.5,35.3c18.4,23.5,19.7,48.8,7.7,75.1c-4.4,9.6-9.7,19.1-16,27.6
		c-15.9,21.4-31.9,42.7-49.2,63c-9.8,11.6-21.3,22.1-33.4,31.4c-21.1,16.3-45.2,25.3-72.4,24.3c-2.8-0.1-5.7,0.5-10.5,0.9
		c8.4,6.7,16.4,7.2,24.3,7.8c24,1.9,46.3-3.7,67.1-15.6c14.6-8.3,27.6-18.6,39.3-30.6c21.9-22.5,41.6-46.9,58.5-73.3
		c6.4-10,11.7-21,15.4-32.3c3.3-9.9,4.8-20.8,5.2-31.3c0.8-19.5-6.5-36.4-19.2-51.1C3635.8,4549.3,3618.4,4538.3,3596,4534.8z
		 M3609.7,4368.9c22.2,5.6,43.9,4.5,65-3.1c6.2-2.2,12.3-5.4,17.6-9.2c18.6-13.3,29.6-31.2,26.4-54.6c-3.2-23.5-19-37.3-40.4-45.2
		c-14.1-5.2-28.8-5.7-43.4-3.5c-37.3,5.7-72.3,18.1-104.6,37.6c-7.3,4.4-14.1,10.1-20.1,16.2c-11.3,11.4-14.1,25.3-9.3,40.6
		c0.7,2.2,1.8,5.3,6.3,3.5c-4.7-21.2,7-33.5,24.2-42.7c2.9-1.6,6-2.9,9-4.2c24.6-10.3,50-18.5,76.2-23.6c11.1-2.2,22.4-3.5,33.6-4.2
		c10.8-0.7,21.2,2.2,30.5,8.1c16.9,10.7,20.9,27.6,10.9,44.9c-5.9,10.1-14.4,17.8-25.1,22.1c-11.7,4.7-23.9,8.2-35.9,11.9
		C3623.7,4365.7,3616.7,4367.2,3609.7,4368.9z M3458.2,4379.8c6.2,15.8,11.9,23.2,25.2,33.5c20.1,15.5,43.1,23.4,67.9,26.9
		c22.7,3.2,45.2,1.6,67.8-0.4c23.3-2,46.3-5.6,68.8-12.2c20-5.9,38.9-14.3,54.4-28.6c24.2-22.2,35.4-49.5,29.5-82.7
		c-0.7-4.2-2.1-8.1-6.9-11.1c-0.2,3.3-0.6,5.3-0.5,7.2c1.6,34.1-14.4,58.5-42.4,76.1c-11.4,7.2-23.9,11.8-36.8,15.3
		c-25.2,6.8-50.9,10.5-76.8,12.8c-18.5,1.6-37.2,3.3-55.8,2.8c-32.9-1-62.8-11.1-87.3-34.3
		C3463.5,4383.4,3461.3,4382.1,3458.2,4379.8z M3951.7,5008.9c0.7-9.5,1.5-17.9-1-27.9c-3.7,1.9-6.8,3-9.2,4.9
		c-7.8,6.2-15.7,12.4-22.9,19.2c-40.5,38.1-60,84.4-50.6,140.1c7.7,45.4,33.6,77.3,77.1,94c1.6,0.6,3.6,0.1,6.3,0.1
		c0-5.1,0-9.6,0-14.1c-2.6-1.7-4.8-3.1-7-4.5c-2.8-1.7-5.9-3.2-8.6-5c-28.4-18.9-44.5-45.6-47.4-79.4c-3.4-40,9-74.8,37.7-103.3
		C3934.2,5025.1,3942.5,5017.6,3951.7,5008.9z M3558.9,5247.7c-0.3-4-0.2-5.3-0.5-6.5c-8-29.7-0.2-52.5,25-69.1
		c9.3-6.2,19.6-11.6,30.2-15c18.9-6.1,38.2-11.4,57.7-15.2c26-5.1,51.6-3.2,75.7,9.5c2.1,1.1,4.5,2.8,6.8,0c-0.1-0.7,0-1.5-0.4-2
		c-1.2-1.6-2.3-3.3-3.8-4.6c-15.6-14.7-34.6-22.6-55.6-24.2c-38.7-3.1-75.3,5-109.6,23.3c-11.9,6.3-22.2,14.7-30.1,25.7
		c-12.7,17.8-16.9,37.3-10.2,58.5C3546.5,5235.7,3549.8,5242.9,3558.9,5247.7z M3682.7,4972.9c2.9,3,3.9,4.9,5.6,5.7
		c21.2,11.1,43.6,15.7,67.5,11.6c39.6-6.7,70.1-27.7,92.9-60c6-8.5,10-18.8,13.2-28.8c4.2-13.2,1.9-26.4-5.1-38.4
		c-1.4-2.4-2.7-6-7-4.6c1.9,27.7-2.1,41.1-21.7,61.3c-11,11.4-23.1,22.3-36.1,31.2c-29,19.9-61.4,28.1-96.7,22.8
		C3691.9,4973.2,3688.2,4973.2,3682.7,4972.9z M3625.5,4863.7c25.9-83.6,82.6-106.6,156-85.1c-18.6-28.9-72.1-37-110-16.6
		C3633.3,4782.6,3611.3,4831.3,3625.5,4863.7z M3490.4,4548.8c-18.3,0.2-30.2,4.3-46.6,15.3c-19.8,13.2-34.9,30.6-44.6,52.4
		c-9.6,21.8-13.5,44.5-9.7,68.1c2.7,16.9,6.9,33.5,21.4,50.7c-2.3-14-4.5-23.5-5.3-33.1c-0.9-10.6-1.2-21.3-0.3-31.8
		c0.9-9.9,2.9-19.8,5.9-29.2c3.2-10,7.5-19.9,12.7-29.1c4.8-8.6,10.8-16.8,17.5-24.1c7.1-7.8,15.3-14.8,23.5-21.4
		C3472.4,4560.6,3480.7,4555.5,3490.4,4548.8z M3349.8,4423.6c2,6.5,2.9,9.5,3.9,12.5c11.8,33.2,4.1,62.8-17.4,89.5
		c-9.2,11.5-20.5,21-33.3,28.3c-10.9,6.3-22.2,12-33.3,18c-3.3,1.8-7.7,2.4-8.9,8.1c4.8-0.2,9.4,0.1,13.8-0.8
		c23.1-4.9,44.6-13.7,62.8-29c8.5-7.2,16.7-15.6,22.6-24.9c15.1-23.6,18.9-49.4,9.5-76.4C3366.3,4439.6,3361.4,4431.4,3349.8,4423.6
		z M3380.5,4990.2c-12.7-18.2-26.6-24.7-42.3-20.9c-17.5,4.2-29.6,14.8-34,32.7c-3.3,13.5-1.2,26.5,5.2,38.7
		c13,24.7,33,41.3,59.7,49.6c7.4,2.3,14.9,3.1,26-0.1c-6.6-2.9-10-4.5-13.4-5.9c-20.9-8.8-37.2-23.3-49.1-42.2
		c-4.5-7.2-8.1-15.5-9.8-23.7c-4.7-22.8,17-41.9,39.4-35.3C3367.2,4984.4,3371.9,4986.7,3380.5,4990.2z M3326.2,4430
		c-6.4-4.9-13.1-6-20.3-4.7c-10,1.8-19.2,5.4-26.7,12.4c-18,16.8-29.4,37.5-33.7,61.7c-1,5.6-0.2,12,1.5,17.5
		c5.9,19.5,25.8,26.4,43,15.1c4.2-2.7,8.1-5.9,8.9-13.2c-6,1.5-10.3,2.9-14.7,3.6c-11.2,1.7-17.7-4.9-16.1-16.4
		c0.5-3.9,1.7-7.8,3.2-11.4c2.2-5.5,4.6-11,7.3-16.3C3293.4,4447.5,3297.1,4443.8,3326.2,4430z M3254.6,4704.7
		c-2.7,2.4-5.2,3.7-6.3,5.7c-3.5,7.1-7.5,14.2-9.6,21.8c-5.5,20.2-4.9,40.9-2,61.4c1.3,9.3,5.7,17.7,12.7,24.3
		c10.4,9.8,23.8,12.8,34.8,6.5c14.7-8.5,22.8-21.4,23.3-40.8c-4.1,3.2-6.6,5.2-9.1,7.2c-5.2,4.2-10,8.8-15.5,12.4
		c-6.6,4.3-13.3,3-17.3-3.6c-3-5-5.2-10.8-6.2-16.6c-3.7-23.6-8.3-47.2-3.9-71.3C3255.9,4710,3255.1,4708.1,3254.6,4704.7z
		 M3406.6,5162.2c3.6-0.2,5,0.1,6-0.4c32.8-14.4,51.5-39.9,54.6-75.1c3.1-35.2-10.9-63.6-40.6-83.6c-1.8-1.2-4.4-3.5-6.2,0.3
		C3461.5,5066.4,3458.8,5100,3406.6,5162.2z M3950.4,5162.8c0.6-1.7,1.7-3.4,1.7-5.2c0.1-29.9,0.1-59.9-0.1-89.8
		c0-1.4-1.9-2.9-3.4-4.8c-10.2,8.1-17.2,17.7-21.5,29c-5.7,15.2-8.8,30.7-3.3,46.8C3928.4,5152,3935.2,5158.4,3950.4,5162.8z
		 M3796.9,4521c4.8-4.1,8.9-7.1,12.5-10.5c22.9-22,49.4-38.2,78.9-49.7c5-1.9,10-3.7,15-5.6c2.7-1,4.4-2.7,3-5.8
		C3853.7,4443.9,3798.7,4479.1,3796.9,4521z M3745.5,4673.4c8.1-0.2,13.4-5.8,13.2-14.1c-0.4-16.7-18.2-35.8-35.3-38
		c-8.9-1.1-15.7,4.5-15.9,13.3C3707,4653.1,3727.2,4673.8,3745.5,4673.4z M3275.8,4675.2c10.8,4.6,18.6,6.8,25.1,11
		c7.1,4.6,14,10.2,19.2,16.8c4.7,6.1,8,13.8,10.1,21.2c2.2,7.8,2.4,16.2,3.8,26.2c7.9-7.3,8.5-15.3,9-22.8c0.7-10.8-2.4-21-8.1-30.2
		C3322.9,4677.7,3302.2,4669.1,3275.8,4675.2z M3317.8,4930.3c-5.5-0.7-9.1,1.9-12.6,4.5c-11.5,8.5-19.6,19.7-24.9,32.8
		c-5.7,14-6.2,28.5-4.1,43.1c0.9,6.3,2.1,12.8,8.6,17.4C3290.5,4963.2,3298.5,4963.4,3317.8,4930.3z M3860.9,4326
		c0.2-11-2.4-18-8.1-23.5c-7.8-7.5-18.5-5.7-23,3.9c-4.9,10.5-1.9,25.1,6.8,32.9c8,7.2,18.7,4.7,22.5-5.4
		C3860.3,4330.8,3860.6,4327.4,3860.9,4326z M3488.8,4931.1c-5.7-4.4-11.6-8.5-16.9-13.3c-4.9-4.4-9.7-9.2-13.7-14.4
		c-4.4-5.8-7.8-12.3-11.6-18.6c-3.4-5.7-3.8-13.1-10-19.5c-5.6,18.8-0.9,33.5,9.1,46.7C3456.2,4925.8,3469.8,4934.2,3488.8,4931.1z
		 M3950.3,4664.9c-11.5,3-22.8,6.5-34.3,8.8c-12.1,2.4-24.5,3.8-38.6,5.9c20.6,10,48.5,11.8,73.2,5.4
		C3953.2,4678.6,3953,4672.2,3950.3,4664.9z M3644.5,5033c5.1,9.5,13.9,12.4,19.8,18.4c6.1,6.2,12.3,12.2,18.4,18.3
		c5.7,5.7,8.5,14.3,17.8,19.5c1-17.2-5.9-29.1-15.8-39.2C3674.3,5039.4,3661.8,5032.4,3644.5,5033z M3951.8,4880
		c0-20.3,0-36.8-0.1-53.3c0-0.9-1.5-1.7-3.2-3.5c-9.1,6.9-12.4,16.5-12.4,27.3C3936.1,4861.3,3939.1,4871,3951.8,4880z
		 M3205.7,4836.7c-0.9,3.2-1.6,5-1.9,7c-2.8,21.3,9,37.7,29.9,41.4c2,0.4,4.3-1,7.9-1.9c-7-7.5-13.3-13.3-18.4-20
		C3217.6,4856,3213.1,4848,3205.7,4836.7z M3543.8,5004c4.8-0.2,8.7-3.9,9.2-8.8c1-10.5-7.3-19.8-17.8-19.8
		c-6.3,0-11.4,5.7-10.6,11.9C3525.8,4996.8,3534.4,5004.3,3543.8,5004z M3474.4,4497.1c3.2-21.4-0.2-30.3-11.8-36.3
		c-5.3-2.7-11-4.9-17.1-3c-2,0.6-3.6,2.4-7,4.8C3454.1,4470.1,3464.1,4481.1,3474.4,4497.1z M3950.7,4277.9
		c4.5-14.9-1.6-25.2-8.9-35.8C3933.6,4255.6,3936,4265.2,3950.7,4277.9z"/>
	<path class="st0" d="M28,4c-8,2.7-16,5.3-24,8c0-2.7,0-5.3,0-8C12,4,20,4,28,4z"/>
	<path class="st0" d="M33.2,24.6c3.9,0,7.6,0,11,0c4.5,6.5,3.3,13.4,3.3,19.9c0,18-0.3,36-0.3,54c0,567.9-0.1,1135.8,0,1703.7
		c0.1,1358.4,0.3,2716.9,0.4,4075.3c0,8.7-0.1,17.3-0.4,26c-0.1,2.5-0.6,5.6-2.1,7.4c-1.5,1.8-4.5,3.2-6.7,3
		c-2.2-0.2-4.9-2.1-6.1-4.1c-1.3-2.1-1.2-5.1-1.3-7.8c-0.2-6.7-0.2-13.3-0.2-20c0-1335.1,0-2670.2,0-4005.4
		c0-607.9,0.3-1215.8,0.5-1823.7C31.3,43.9,29.8,34.5,33.2,24.6z"/>
	<path class="st0" d="M5013.4,24.6c4.8,0,8.5,0,13,0c0.6,4,1.5,7.2,1.6,10.4c0.2,7.3,0.1,14.7,0.1,22c0,584.6,0,1169.2,0,1753.7
		c0.1,1356.5,0.2,2712.9,0.3,4069.4c0,7.3,0,14.7-0.1,22c-0.1,2.6,0.2,6-1.2,7.7c-1.9,2.2-5.3,3.9-8.2,4.1c-1.9,0.1-4.7-2.4-5.8-4.4
		c-1.2-2.2-1.1-5.2-1.1-7.8c-0.2-7.3-0.2-14.7-0.2-22c0-1339.1,0-2678.3,0-4017.4c0-595.2,0.2-1190.5,0.3-1785.7c0-12-0.4-24-0.2-36
		C5011.8,35.3,5012.8,30.2,5013.4,24.6z"/>
	<path d="M4114.6,3571.2c-0.4,12.3-0.8,22.2-1.1,32.1c-0.3,10-0.2,20-0.9,29.9c-0.3,4.6-3,7.3-9.7,4.8c-2.2-25.2-0.5-51.1-0.8-76.9
		c-0.1-5.1,1.2-10.3,1.9-15.6c3.8-0.4,6.4-1.1,9-0.9c239.5,15.2,478.9,30.5,718.4,45.8c3.2,0.2,6.4,1.4,9.3,2.1
		c4.7,7.2,2.8,14.8,2.8,21.9c-0.5,106-1.2,212-1.7,318c-1,221.3-1.8,442.7-2.8,664c-1.1,250-2.4,500-3.7,750c0,6.6-0.4,13.2-0.6,19
		c-6.9,5-12.5,1.9-18,0.3c-39.1-11.2-78.1-22.4-117.2-33.6c-133.7-38.6-267.6-76.8-401.2-116.1c-58.1-17.1-115.5-36.6-173.3-55
		c-18.1-5.8-22.5-4.9-23.1-31.1c-0.3-13.3,0.3-26.7,0.3-40c0-280.7,0.1-561.3,0-842c0-132.7-0.4-265.3-0.4-398
		c0-14,1.2-27.9,2.2-41.9c0.3-3.8,1.1-8,7.4-9.3c0.6,2.2,1.6,4.4,1.7,6.6c0.3,6.7,0.2,13.3,0.2,20c0,351.3-0.1,702.7-0.1,1054
		c0,76.7,0.1,153.3,0.2,230c0,8,0.7,15.9,1.6,23.9c0.5,5,4,8.4,8.6,10.1c3.1,1.2,6.4,2,9.6,2.8c59.7,14,117.8,33.7,176.7,50.7
		c158.7,45.7,317.5,91.5,476.2,137.2c11.6,3.4,23.3,5.8,35.3,2c4.9-6.6,3.1-14.2,3.1-21.4c0.3-64.7,0.4-129.3,0.7-194
		c1.5-364,2.9-728,4.5-1092c0.6-130,1.7-260,2.5-390c0-7.2-0.3-14.5-0.5-21.2c-10.6-5.4-20.8-4.6-30.7-5.2
		c-57.9-3.8-115.7-7.5-173.6-11.3c-2.6-0.2-5.3-0.5-9.3-1c-3.3-4.7-7-9.9-11.7-16.5c-2.7,3.3-4.7,5.5-6.4,8
		c-1.5,2.1-2.6,4.5-3.8,6.8c-2.4,0.5-4.3,1.3-6.2,1.2c-28-1.5-55.9-3.1-83.8-4.8c-35.9-2.2-71.8-4.4-107.8-6.7
		c-53.2-3.4-106.4-7-159.6-10.3c-37.3-2.3-74.5-4.3-111.8-6.4C4123.8,3571,4120.5,3571.2,4114.6,3571.2z"/>
	<path d="M4802.4,3687.3c2.8,31.5-5.2,1563.7-8.1,1582.2c-6.8,1.8-12.9-1.4-19.1-3.2c-82.5-23.8-165-47.6-247.6-71.5
		c-119-34.4-237.9-68.9-356.9-103.4c-8.3-2.4-16.5-5.2-24.3-7.6c-4.6-7.4-2.9-14.9-2.9-22.1c-0.2-68.6-0.4-137.3-0.4-205.9
		c0-395.2,0.1-790.4,0.1-1185.6c0-7.2,0.2-14.5,0.3-22.6c4.8-0.9,8.6-2.3,12.2-2.1c67.2,4.2,134.3,8.8,201.5,13.1
		c25.9,1.7,51.9,3,77.8,4.6c75.8,4.6,151.6,9.2,227.4,13.9c40.6,2.5,81.1,5.1,121.7,7.8C4790.3,3685.1,4796.1,3686.4,4802.4,3687.3z
		 M4155.1,3670.1c-4,8-2.5,16.1-2.6,23.9c-0.2,244.6-0.3,489.3-0.7,733.9c0,17.3-1.9,34.6-2.3,51.9c-0.4,16-0.3,32,0.1,47.9
		c0.5,17.3,2.2,34.6,2.3,51.9c0.2,130,0.2,260,0.2,389.9c0,26-0.1,52,0.1,78c0,5.1,1.1,10.2,1.6,15.1c4.3,1.7,7.3,3.1,10.5,4.1
		c205.1,60.2,410.2,120.3,615.4,180.4c0.6,0.2,1.4,0.2,2,0c0.6-0.2,1.1-0.6,3-1.7c3.5-5.6,2.1-13.1,2.1-20.2
		c1.9-425.3,3.7-850.5,5.4-1275.8c0.3-73.3,0.6-146.6,0.7-220c0-7,2.3-14.7-4.7-22.1c-207.8-12.8-416.6-25.8-625.4-38.6
		C4160.4,3668.6,4157.8,3669.6,4155.1,3670.1z"/>
	<path d="M4836.1,479.4c-10.1,2.4-17.2,3.9-24.2,5.8C4591,546,4370.1,606.7,4149.2,667.4c-26.5,7.3-24.3,3.9-24.4,31.8
		c-0.5,148.7-1.1,297.3-1.6,446c-0.4,126.7-0.6,253.3-0.9,380c0,5.9-0.5,11.7-0.7,17.1c-4.7,2.2-5.9-0.9-6.3-3.1
		c-1.3-6.5-3-13-3-19.6c0.5-61.3-1.5-122.7,3.5-183.9c0.9-11.2-0.5-22.6-0.9-33.9c-0.3-7.3-1.1-14.6-1.1-21.9
		c0.8-196.7,1.7-393.3,2.6-590c0-6.7,0-13.4,0.6-20c0.7-7.2,4.5-12.3,11.9-14.3c13.5-3.7,26.9-7.7,40.4-11.4
		c160.6-44,321.2-87.9,481.8-132c55.9-15.3,111.7-30.9,167.6-46.3c7-1.9,14.1-3.5,20.1-4.9c5.6,2.9,5,7.2,5.1,11
		c0.2,4.7,0.1,9.3,0.1,14c-0.4,404-0.6,808-1.1,1212c-0.2,190-1.1,380-1.5,570c-0.6,260-1.1,520-1.5,780c-0.1,72,0.3,144,0.4,216
		c0,7.2,0.8,14.5-1.2,20.3c-1.6,1.6-2,2.2-2.6,2.5c-0.5,0.3-1.2,0.6-1.9,0.6c-65.3,0.2-130.6,0.5-195.9,0.7c-4,0-8-0.2-12-0.5
		c-1.2-0.1-2.4-1-3.5-1.6c-2.1-10.5-0.8-13,7.2-13.6c5.3-0.4,10.7-0.2,16-0.2c54,0,108,0,162,0c6.6,0,13.1-0.2,18.6-0.3
		c6.4-7.8,4.4-15.4,4.5-22.5c0.1-43.3-0.1-86.7-0.3-130c0-10,0.2-19.8,3.7-29.5c2.2-6,1.9-13.1,1.9-19.7c0.1-50,0-100,0-150
		c0-803.3,0-1606.6-0.1-2409.9C4836.6,500.8,4836.3,491.6,4836.1,479.4z"/>
	<path d="M4146.6,1399.6c-6.6-1.3-6.5-4.3-6.6-6.7c-0.3-7.3-0.4-14.7-0.4-22c0.3-148,0.6-296,0.9-444c0.1-58-0.1-116-0.2-174
		c0-6.7-0.2-13.3,0.1-20c0.6-13.2,1.3-14.1,14.1-17.6c120.1-33.1,240.2-66,360.2-99.4c62.2-17.3,124.1-35.9,186.3-53.6
		c33.3-9.5,66.8-18.4,100.2-27.4c4.4-1.2,8.9-1.9,14.1-2.9c0.9,4.8,1.9,8.6,2.1,12.5c0.3,6.6,0.2,13.3,0.1,20
		c-0.3,303.3-0.7,606.6-0.9,910c-0.1,176.7,0.2,353.3,0.1,530c0,69.3-0.6,138.6-0.5,208c0.1,60,1,120,1.2,180
		c0.1,31.3-0.8,62.7-0.8,94c-0.1,48.7,0.1,97.3,0.2,146c0,13.3,0,26.7-0.1,40c0,40.6,0.1,81.3-0.1,121.9c-0.2,36.7-1,73.3-1.3,110
		c-0.3,35.3-0.4,70.7-0.2,106c0.1,11.3,1.7,22.6,2.1,33.9c0.2,5.2-0.4,10.6-1.4,15.7c-0.4,1.9-3,3.4-4.6,5.1c-6-4-4.1-9.1-4.2-13.4
		c-0.1-40,0-80,0-120c0.3-351.3,0.6-702.6,0.9-1054c0.4-395.3,0.8-790.6,1.2-1186c0-40,0.2-80,0.1-120c0-6.5,1.4-13.4-2.7-19.5
		c-6.9-2-13.1,0.8-19.5,2.6c-74.3,21.1-148.6,42.3-223,63.2c-130.1,36.7-260.3,73.2-390.5,109.8c-21.9,6.1-22.4,4.7-22.6,29.9
		c-0.9,172-1.9,344-2.8,516c-0.2,36.7-0.3,73.3-0.5,110C4147.9,1388.7,4147.1,1393.9,4146.6,1399.6z"/>
	<path d="M4228.8,1031.4c-0.2,7.6-0.4,15.5-0.5,23.4c-0.1,8,0,16,0,24c0,8.7-0.1,17.3-0.1,26c0,8-0.1,16-0.1,24c0,8,0,16-0.2,24
		c-0.1,7.6,0.5,15.3-1.9,22.7c-5.2-1.3-4.3-4.4-4.4-6.8c-2-56.2,0-135.4,4-151.9c2-1.2,4.1-3.1,6.5-3.8
		c165.3-46.8,330.6-93.6,496-140.2c2.4-0.7,5.2-0.3,9.2-0.5c0.8,4,2,7.6,2.3,11.3c0.4,5.3,0.1,10.7,0.1,16
		c-0.2,519.9-0.4,1039.8-0.7,1559.7c-0.1,106.6-0.4,213.3-0.8,319.9c0,11.3-1.2,22.6-1.4,33.9c-0.4,19.3-0.4,38.6-0.6,57.9
		c0,5.8,0,11.7,0,18c-3.6,0.8-6.1,1.8-8.6,1.7c-168.6-3.1-337.2-6.2-505.8-9.5c-2.5,0-4.9-1.5-7.8-2.5c-0.5-4.3-1.2-8.2-1.2-12.1
		c-0.3-44-2.4-88,1.9-131.9c0.8-8.6,0.1-17.3-0.5-25.9c-1.4-22.6-1-45.2,0.2-67.9c1.4-25.9,0.3-52,0.4-77.9c0-7.6-1.2-15.5,4.3-25.9
		c1.7,15,0.8,26.9,0.8,38.8c0.1,12-0.1,24-0.2,36c0,12,0,24,0,36c0,12-0.1,24-0.1,36c0,11.3,0,22.7,0,34c0,12,0,24,0,36s0,24,0,36
		s0,24,0,36c0,11.9,0,23.9,0,34.4c5.3,7,11.3,7.3,17.3,7.3c14,0.2,28,0.1,42,0.3c127.3,2.3,254.6,4.7,381.8,7.1
		c16.7,0.3,33.3,0.7,50,0.8c5.2,0,10.5-0.6,14.7-0.9c6.6-6.9,6.4-14.4,6.4-21.6c0.1-16-0.4-32-0.4-48
		c0.3-573.2,0.6-1146.5,0.9-1719.7c0-57.3,0.1-114.6,0.1-172c0-7.9-0.4-15.8-0.6-23.8c-8.8-2.6-15.5,1.4-22.3,3.2
		c-99.4,27.8-198.7,55.9-298.1,84c-54.5,15.4-108.9,30.9-163.4,46.3C4241.8,1025.4,4235.3,1026.8,4228.8,1031.4z"/>
	<path d="M4257.8,2829.2c6.2-3.2,12.8-1.9,19.2-1.9c96-0.2,191.9-0.2,287.9-0.3c42,0,84-0.1,126-0.3c6.5,0,13.4,1.4,20.4-2.9
		c0.5-2.5,1.6-5.6,1.7-8.8c0.3-7.3,0.3-14.7,0.3-22c0-605.2,0-1210.3,0-1815.5c0-9.3,0-18.7-0.3-28c-0.1-3.2-1.2-6.3-1.8-9.5
		c-3.4,0-6.2-0.6-8.6,0.1c-149.1,42.8-298.2,85.7-447.3,128.7c-2.4,0.7-4.5,2.7-7.8,4.8c-0.1,14.3,0.1,28.9-0.2,43.5
		c-0.3,13.7,2.2,27.7-6.1,40.9c-0.4-2.7-1-5.5-1-8.2c0-22.7,0.2-45.3,0.3-68c0-2.7,0.1-5.3,0.3-8c0.6-9.7,4.8-16,14.8-18.6
		c15.5-4,30.7-8.7,46.1-13.2c124.1-36,248.1-72.1,372.2-108.1c10.2-3,20.4-6.1,30.7-8.7c4.3-1.1,9-1.1,13.9-1.6
		c0.7,3.5,1.6,6.1,1.6,8.7c-0.1,634.5-0.3,1269-0.5,1903.5c0,1.8-1.2,3.6-1.6,4.8c-1.1,1-1.5,1.5-2.1,1.8c-0.6,0.3-1.3,0.5-1.9,0.5
		c-5.3,0.1-10.6,0.4-15.9,0.2c-145.2-3.3-290.5-6.6-435.7-10c-1.1,0-2.3-1-3.3-1.7C4258.4,2831,4258.3,2830.2,4257.8,2829.2z"/>
	<path d="M4139.6,3196c9.2,0.5,15.7,1.1,22.2,1.1c117.3,1.4,234.5,2.6,351.8,4.1c52.6,0.7,105.3,1.8,157.9,3
		c7.2,0.2,14.3,2.2,21.4,3.8c1.3,0.3,2.9,3.1,2.8,4.6c-0.3,2.3-1.4,5.2-3.2,6.6c-1.9,1.4-4.9,1.7-7.5,1.9c-5.3,0.3-10.7,0.2-16,0.1
		c-162.6-1.8-325.2-3.7-487.8-5.5c-14.6-0.2-29.3-1.1-43.3,4.9c-1,0.4-2.5-0.3-4.7-0.6c-5.1-5-3.2-11.9-3.1-18.3
		c0.4-34.6,1.4-69.3,1.4-103.9c-0.1-88.6-1.1-177.3-1-265.9c0.1-77.3,1.2-154.6,1.7-231.9c1.3-185.9,2.5-371.8,3.7-557.8
		c1.2-198.6,2.3-397.2,3.4-595.7c0-6.7,0.2-13.3,0.8-19.9c0.2-2,2.4-3.8,4.5-6.8c4.8,7.7,3.3,14.4,3.3,20.7
		c-0.2,64.6-0.5,129.3-0.8,193.9c-1.5,282.6-3,565.1-4.4,847.7c-1.1,216.6-2.2,433.2-3.2,649.7
		C4139.4,3152.2,4139.6,3172.8,4139.6,3196z"/>
	<path d="M1095.1,562.2c-1.3-53.9-0.4-104.4-0.7-155.5c4.6-1.4,8.2-3.2,11.9-3.6c5.3-0.6,10.6-0.3,16-0.3c86.6,0,173.2,0,259.8,0
		c12,0,23.9,0.7,36,1.9c-37.5,12-73.9,26.5-109.9,41.9c-36.7,15.7-72.7,32.8-107.2,52.7C1166.5,519.1,1132.6,539.8,1095.1,562.2z"/>
	<path d="M4116.8,1971.7c0.7,12.9,1.3,23.3,1.7,33.8c0.6,16,1.4,32,1.3,47.9c-1.1,187.9-2.3,375.9-3.6,563.8c-0.1,14-0.2,28-0.2,42
		c0,3.3-0.5,6.8,0,10c2.8,15.7-11.1,30.9-1.5,46.7c0.5,16.6,1.2,33.3,1.5,49.9c0.3,16,0.3,32,0.3,48c0,16-0.1,32-0.3,48
		c-0.1,16-0.4,32-0.5,48c-0.2,16.7-0.3,33.3-0.3,50c0,16,0.4,32,0.3,48c-0.3,48-0.7,95.9-1.1,143.9c-0.2,33.3-0.5,66.6-0.5,99.9
		c0,3.8,1,7.6,1.6,12c4.7,0.5,8.6,1.3,12.4,1.4c87.3,1.1,174.6,2.3,261.9,3c65.3,0.6,130.6,0.6,195.9,0.9c5.3,0,10.7,0,16,0.7
		c2.3,0.3,4.7,2.3,6.4,4.1c2.8,2.8,1,9.5-2.7,9.8c-5.3,0.5-10.6,0.5-16,0.6c-63.3,0-126.6,0-190,0c-90.6,0-181.3,0-271.9,0
		c-6.6,0-13.2,0-20.6,0c-1.1-4.7-2.5-8.4-2.8-12.1c-0.4-5.3-0.1-10.7-0.1-16c0.9-175.3,2-350.6,2.8-525.9
		c1-215.2,1.7-430.5,2.5-645.7c0.1-31.3,0.4-62.6,0.8-94c0.1-5.3,0.7-10.6,1.6-15.8C4112,1973.7,4114.6,1973,4116.8,1971.7z"/>
	<path d="M3987.7,2836.2c0-6.6,0-13.2,0-19.8c0-35.3,0-70.6,0-105.9c0-296.4,0-592.7,0-889.1c0-8.7-0.1-17.3,0.6-25.9
		c0.3-3.6,2.6-7,4.1-10.5c6.3,2.6,6.9,7.6,6.8,12c-0.1,15.3-0.8,30.5-1.2,45.8c-0.2,5.9-0.7,11.9-0.6,17.8c0.3,12.6,1,25.2,1.4,37.8
		c0.3,8.6,0.4,17.3,0.7,25.9c0.7,18.6,1.5,37.2-1.8,55.8c-1,5.7-0.6,12,0.5,17.8c2.7,14,2.8,27.8,0.2,41.7
		c-2.3,12.6-2.1,25.1-0.8,37.8c3,30.5,4.8,61-0.8,91.5c-0.5,2.6-1,5.6-0.2,7.9c4.1,12.5,1.8,25,0.7,37.5c-0.6,6.6-0.1,13.3,0.1,20
		c0.9,38.6,2.3,77.2,2.6,115.8c0.5,50.6,0.3,101.2,0,151.9c-0.1,13.3-1.9,26.5-2.7,39.8c-0.3,4.6-1.1,9.5-0.1,13.8
		c5.9,24.4,1.9,49.1,2.4,73.6c0.1,4.9-2.8,10.2-5.3,14.8c-3.5,6.4-4.7,12.6-0.8,18.9c6.4,10.3,6.3,21.4,5.4,32.8
		c-0.8,10-1.6,19.9-1.9,29.9c-0.2,5.9,0.7,11.8,1.2,17.7c0.2,2,1.4,4,1.2,5.8c-2.7,18.7,1.8,37.2,1.8,55.8c0,9.3-0.2,18.7-5,27.2
		c-1.2,2.1-3.1,3.7-4.7,5.5C3990.2,2837,3989,2836.6,3987.7,2836.2z"/>
	<path d="M3988.3,2876.9c5.5,1.3,6.3,5,6.8,7.9c1.9,11.1,4.6,22.3,4.6,33.5c0.3,99.3,0.2,198.6,0.1,297.9c0,6.7-0.7,13.3-1.2,19.9
		c-0.2,2.7-1.3,5.4-0.9,7.9c4.2,29.8,0.8,59.8,1.6,89.7c0.8,29.3,0.6,58.7,0.4,88c-0.2,29.3-1,58.6-1.6,87.9c0,2,0,4,0,6
		c0.2,17.3,0.3,34.6,0.5,51.9c0.2,20.6,0.3,41.3,0.6,61.9c0.1,7.9,1.6,15.8,0.1,23.4c-6.5,2.8-9.9,0.3-11-5
		c-0.9-4.5-0.7-9.3-0.7-13.9c0.1-86.7,0.3-173.3,0.3-260c0-104.6-0.2-209.3-0.3-313.9c-0.1-54.6-0.1-109.3-0.1-163.9
		C3987.5,2889.9,3988,2883.6,3988.3,2876.9z"/>
	<path d="M4239.7,1832.5c1.1,2.1,3,4.1,3.2,6.3c0.5,5.3,0.6,10.6,0.3,16c-4.8,101.2-2.8,202.5-3.1,303.8
		c-0.6,209.2-1.2,418.4-1.8,627.7c0,11.3,1.2,22.6,1.6,33.9c0.1,3.1-0.4,6.2-0.8,11.7c-3.4-3.2-6.4-4.6-6.7-6.4
		c-0.8-6.6-0.9-13.3-0.9-19.9c1.2-212.5,2.5-425.1,3.6-637.6c0.6-104.6,0.8-209.2,1.2-313.8c0-7,0.4-14,0.6-21
		C4237.9,1832.9,4238.8,1832.7,4239.7,1832.5z"/>
	<path d="M4223.9,1800.1c0.6,8.6,1.7,17.1,1.6,25.7c-0.8,171.3-1.5,342.6-2.6,513.9c-0.3,54.7-1.6,109.3-2.5,163.9
		c-0.1,5.2-0.6,10.4-3.2,15.7c-0.7-3.5-1.9-6.9-2-10.4c-0.3-10.7-0.2-21.3-0.2-32c1-218.6,1.9-437.2,2.9-655.9
		C4218.1,1813.9,4217,1806.6,4223.9,1800.1z"/>
	<path d="M4119.5,1569.8c3.6,13.5,3.9,24.5-0.2,35.2c-1.7,4.6-2.4,8.4-1,13.3c1.6,5.6,1.9,11.8,1.9,17.7c0.1,99.3,0.1,198.7,0,298
		c0,5.6,2.3,12.1-3.5,16.4c-3.1,2.3-5.6-4.1-5.6-16.5c0.3-112,0.6-224,1.1-336c0-6.6,1.2-13.2,2.3-19.7
		C4114.9,1576,4116.9,1574.1,4119.5,1569.8z"/>
	<path d="M3991.5,1489.1c2.2,3.1,5.4,5.9,6.2,9.3c1.2,5.1,0.8,10.6,0.8,15.9c0,31.3,0.5,62.6-0.2,93.9c-0.3,14.5-2.1,29.1-4.6,43.4
		c-1.3,7.5-2,14.5,0.3,21.6c6.3,20.2,4.6,40.8,3.9,61.4c0,1.1-1.3,2.1-2.2,3.4c-4.4,0.6-5.4-3.5-5.8-6c-1.7-8.4-3.4-17-3.4-25.6
		c-0.4-42.6-0.5-85.2-0.2-127.8c0.1-9.2,1.2-18.8,3.8-27.5c5.2-17.1,6.7-33.7,0-50.7c-1.1-2.9-1.1-6.3-1.7-9.4
		C3989.4,1490.4,3990.5,1489.8,3991.5,1489.1z"/>
	<path d="M4720.1,3204.7c29.4,0,55.8,0,82.7,0c8.1-19.9,1.2-40.5,7-59.3c2,0.3,4.2,0.3,4.3,0.8c2.9,12.8,2.4,56.1-0.8,72.2
		c-3.2,0.7-7,2.1-10.7,2.1c-22.6,0.2-45.2,0.2-67.9,0.2c-2,0-4.1,0.2-5.9-0.4c-2.4-0.8-5.6-1.7-6.6-3.6
		C4720.5,3214.1,4720.9,3210.6,4720.1,3204.7z"/>
	<path d="M4242.2,1226.6c0,25.9,0,47.9,0,69.9c-0.9,0.1-1.7,0.3-2.6,0.4c-0.9-2.8-2.3-5.6-2.6-8.5
		C4234.7,1260.1,4235.9,1244.4,4242.2,1226.6z"/>
	<path d="M4223.2,1224.1c0,18.6,0,33.3,0,50.4c-2.4-3.1-4.7-4.7-4.8-6.4c-0.7-11.7-1-23.4-1-35.1
		C4217.4,1231,4219.8,1229.1,4223.2,1224.1z"/>
	<path d="M4242.3,1798.6c-9.4-15-4.1-29.6-6.4-47.1C4244,1767.2,4244.9,1774.9,4242.3,1798.6z"/>
	<path d="M4110.3,3752.4c-2.8-3.4-5.1-5.1-5.7-7.2c-2.4-9.6-2.9-19.3-0.1-30.8c3,1.5,6.5,2.2,6.7,3.5
		C4113,3728.7,4113.9,3739.6,4110.3,3752.4z"/>
	<path d="M4222.9,1719c2,8.7,2.7,16.7,0,25.3C4214.5,1734.3,4214.5,1730.1,4222.9,1719z"/>
	<path d="M4238.2,1444.8c5.7,6.4,4.6,12.8,0,21.5C4238.2,1457.5,4238.2,1451.2,4238.2,1444.8z"/>
	<path d="M4221.7,1325.4c3.7,13.4,5.7,26.5-0.5,42.6C4217.2,1351.6,4218.2,1338.3,4221.7,1325.4z"/>
	<path d="M4238.7,1612.3c5.1,10.7,2.2,18.1,4.1,25.7c-2.3-1-3.8-1.2-4.2-2C4235.7,1629.4,4236.4,1622.8,4238.7,1612.3z"/>
	<path d="M4218.8,1682.9c-4.1-11.7-1-18.9,4.5-29C4225,1665.4,4225,1673.3,4218.8,1682.9z"/>
	<path d="M4216.7,1458.4c1.2-4.4,2.6-9.1,4.1-14.3c1.6,0.9,3.2,1.4,3.2,1.9c0.2,5.1,0.3,10.3-4.2,14c-0.4,0.3-1.1,0.6-1.5,0.4
		C4217.8,1460.1,4217.5,1459.4,4216.7,1458.4z"/>
	<path d="M4220.7,1603c-1-5.6-2-11.2-3-16.7c3.4-2.7,5.3-0.8,5.7,1.9c0.7,5,0.6,10,0.9,15.1
		C4223.1,1603.2,4221.9,1603.1,4220.7,1603z"/>
	<path d="M4222.1,1777c-1.4-7.3-2.2-11.2-3.3-17C4223.6,1765.7,4223.6,1765.7,4222.1,1777z"/>
	<path d="M948.3,3796.3c7.4,7,7.8,13.8,8.1,20.4c0.4,10,0.6,20,0.6,30c-0.1,413.9-0.2,827.9-0.3,1241.8c0,14,0.3,28,0.1,42
		c-0.2,21.5-1.3,23.5-21.5,29.9c-73.6,23.3-147.1,47.4-221.2,69.2c-153.3,45.1-307.1,88.9-460.7,133c-8.7,2.5-17.4,7.1-26.7,5.3
		c-0.9-1.8-2.1-2.9-2.1-4.1c-3-585.9-5.9-1171.8-8.8-1757.7c0-3.9,0.5-7.8,0.8-12.5c8.4-4.1,17-3.9,25.5-4.4
		c21.9-1.5,43.9-2.8,65.8-4.1c53.2-3.2,106.4-6.2,159.7-9.6c50.5-3.2,101.1-6.8,151.6-10.1c49.9-3.2,99.8-6,149.7-9.2
		c53.9-3.4,107.7-7.1,161.6-10.6c7.8-0.5,15.7-1.9,23.5-0.1c1,2.6,2.4,4.4,2.4,6.2c0.2,27.3,0.2,54.6,0.1,82c0,1.8-1.2,3.5-2.4,6.8
		c-3-2.2-6.5-3.5-7.4-5.9c-1.4-3.6-1.3-7.8-1.4-11.8c-0.2-11.3,0-22.7-0.2-34c-0.1-5.2-0.7-10.4-1.1-16.9c-4.7-0.3-8.5-0.9-12.3-0.7
		c-39.3,2.2-78.5,4.6-117.7,7c-24.6,1.5-49.2,3.3-73.8,4.8c-76.5,4.6-153,9-229.5,13.6c-15.3,0.9-30.5,2.1-46.3,3.2
		c-3.4-5.4-6.5-10.3-9.6-15.1c-1.8,0.7-3.4,0.9-4.1,1.8c-3.2,4.2-6.1,8.6-9.7,13.7c-69.9,5.6-140.4,8.2-210.1,14.4
		c-5.4,7.9-3.6,15.4-3.6,22.5c0.2,72.7,0.5,145.3,0.9,218c1.8,412.6,3.5,825.2,5.3,1237.8c0.3,73.3,0.8,146.6,1.3,220
		c0,7.2,0.6,14.4,1,22.3c12.8,4.9,24.5,2.5,35.9-0.7c26.3-7.3,52.6-14.8,78.8-22.4c156.1-45.3,312.1-90.7,468.1-135.9
		c33.9-9.8,67.9-19.2,102-28.4c24.2-6.5,24.7-6.5,24.8-32.7c0.2-45.3,0-90.7,0.1-136c0-11.3,0.9-22.6,1.3-33.9c0.3-8,0.5-16,0.4-24
		c-0.4-24-1.5-48-1.5-71.9c-0.2-340.6-0.2-681.2-0.2-1021.8c0-7.3-0.1-14.7,0.3-22C945.6,3802.9,947,3800.5,948.3,3796.3z"/>
	<path d="M914,5082c-16.1,7.3-630.4,185.1-648.4,187.7c-4.2-5.9-2.6-12.7-2.7-19.2c-0.8-101.3-1.6-202.6-2.1-303.9
		c-1.9-411.2-3.6-822.3-5.3-1233.5c0-7.9,0-15.8,0-24.9c6.2-1.3,11.1-3,16.2-3.3c44.5-3,89.1-5.6,133.7-8.5
		c58.5-3.7,117-7.5,175.5-11.2c24.6-1.6,49.2-3.1,73.8-4.6c62.5-3.9,125-7.7,187.5-11.6c19.9-1.2,39.9-2.6,59.8-3.7
		c3.8-0.2,7.6,0.7,12.6,1.3c0.5,6.6,1.2,12.4,1.2,18.2c0.1,49.3,0.2,98.6,0.2,147.9c-0.1,415.2-0.2,830.3-0.4,1245.5
		C915.7,5066.3,917,5074.4,914,5082z M272.7,5245.5c3.8,0.9,5.2,1.7,6.3,1.4c205.8-60.2,411.6-120.5,617.3-180.9
		c3.1-0.9,5.9-2.7,10-4.6c0.2-7.3,0.6-14.5,0.7-21.7c0.1-152-0.5-304,0.6-455.9c0.4-54.6,0.1-109.2-0.1-163.8
		c-0.9-233.3-0.7-466.6-0.9-699.9c0-12.7,0.1-25.3-0.4-38c-0.2-4.3-2-8.5-3.2-13.2c-5.9,0-10.5-0.2-15.1,0
		c-25.3,1.5-50.6,3.1-75.8,4.7c-54.5,3.5-109.1,7-163.6,10.4c-30.6,1.9-61.2,3.3-91.8,5.2c-83.2,5.1-166.3,10.2-249.4,15.4
		c-13.2,0.8-26.3,2.5-39.6,3.8c-1,4.5-2.2,7.7-2.2,10.9C267.8,4227.8,270.3,4736.3,272.7,5245.5z"/>
	<path d="M230.5,3271.7c7.6,0.1,14.2,0.3,20.8,0.3c53.3,0,106.7,0,160,0c5.3,0,10.7-0.1,16,0.1c9.1,0.4,9.5,1.1,9.2,13.8
		c-2.2,0.6-4.6,1.9-7,1.9c-66.7,0.1-133.3,0.1-200,0.1c-2.5,0-5.1-0.7-8.7-1.3c-0.6-4.2-1.6-8-1.7-11.8c-0.4-54-2.4-108-0.5-162
		c2.7-75.3,0.5-150.6,0.5-225.9c0-124.6-1.5-249.3-1.7-373.9c-0.8-659.3-1.4-1318.5-2-1977.8c0-18.7-0.2-37.3,0-56
		c0-5.8,0.8-11.6,1.2-17.7c9.6-0.4,17,2.7,24.6,4.7c140,38.5,280,77.1,419.9,115.6c84.8,23.3,169.6,46.4,254.4,69.6
		c2.6,0.7,5.2,1.2,7.8,2c16.6,5,18.9,7.3,19.1,25.4c0.6,48,0.9,96,1,144c0.5,152,0.9,304,1.3,456c0,10-1,19.9-1.3,29.9
		c-0.3,7.3-0.9,14.7-0.4,21.9c4.3,62.6,3.9,125.2,3.9,187.9c0,7.2-2.1,14.4-3.4,21.5c-0.3,1.8-1.5,3.5-3.6,8.2
		c-4.1-9.2-3.2-14.3-3.3-19.2c-0.2-6,0-12,0-18c0-5.3,0-10.7,0-16c0-5.3,0-10.7,0-16c0-6,0-12,0-18c0-5.3,0-10.7,0-16c0-6,0-12,0-18
		c0-5.3,0-10.7,0-16c0-5.3,0-10.7,0-16c0-6,0-12-0.1-18c0-5.3,0-10.7,0-16c0-5.3,0-10.7,0-16c0-6,0-12,0-18c0-5.3,0-10.7-0.1-16
		s0-10.7-0.1-16c0-6-0.1-12-0.2-18c-0.1-5.3-0.1-10.7-0.2-16c-0.1-6-0.2-12-0.2-18c-0.1-5.3-0.1-10.7-0.2-16c0-5.3,0-10.7,0-16
		c0-6,0.1-12,0.1-18c0-5.3,0.1-10.7,0.1-16c0-5.3,0.1-10.7,0.1-16c0-6,0-12-0.1-18c0-5.3,0-10.7-0.1-16c0-6-0.1-12-0.1-18
		c0-5.3-0.1-10.7-0.1-16s0-10.7-0.1-16c0-6-0.1-12-0.1-18c0-5.3-0.1-10.7-0.1-16c0-5.3,0-10.7-0.1-16c0-6-0.1-12-0.1-18
		c0-5.3-0.1-10.7-0.1-16c0-5.3-0.1-10.7-0.1-16c0-6-0.1-12-0.1-18c0-5.3-0.1-10.7-0.1-16c-0.1-6-0.1-12-0.2-18
		c0-5.3-0.1-10.7-0.1-16c0-5.3-0.1-10.7-0.1-16c0-6-0.1-12-0.2-18c-0.1-5.3-0.1-10.7-0.2-16c0-5.3,0-10.7,0-16c0-6,0-12,0-18
		c0-5.3-0.1-10.7-0.2-16c0-5.3,0-10.7,0-16c0-6,0-12,0-18c0-5.3,0-10.7,0-16c0-6,0-12,0-18c0-5.3,0-10.7,0-16c0-5.3,0-10.7,0-16
		c0-6,0.2-12,0-18c-0.2-5.2-0.9-10.5-1.2-14.1c-1.4-2.1-1.8-2.7-2.2-3.1c-0.5-0.4-1.1-0.8-1.7-0.9c-4.4-1.4-8.8-3-13.3-4.2
		c-228-62.6-456-125.1-684-187.6c-1.2-0.3-2.6-0.1-3.9-0.1c-0.7,0-1.3,0.2-2.8,0.5c-0.7,2.8-1.9,5.9-2.1,9.1
		c-0.4,7.3-0.2,14.7-0.2,22c0,325.3,0,650.6,0,975.9c0,521.9,0.1,1043.9,0.2,1565.8c0,15.3-1.2,30.5,4.6,45.4c2.1,5.3,1,11.9,1,17.8
		c0,43.3-0.2,86.7-0.2,130C227.9,3254.8,226.9,3262.2,230.5,3271.7z"/>
	<path d="M244.5,531.9c3.6,0.6,6.2,0.8,8.7,1.5c220.5,61.8,441,123.7,661.6,185.5c4.6,6.5,4,14,4,21.2c-0.1,22.7-0.7,45.3-0.8,68
		c-0.1,32,0,64,0,96c0,10.7,0.4,21.3,0.5,32c0.4,142,0.8,284,1.2,426c0,10.7-0.2,21.3-0.7,32c-0.1,1.9-2.4,3.8-4,6.2
		c-5.1-6.4-3.5-12.5-3.5-18.2c-0.7-84.7-1.4-169.3-1.8-254c-0.6-122-1.1-244-1.6-366c-0.1-30.6,0.9-27.7-28-35.9
		c-198.7-56-397.4-112.1-596.1-168.2c-10.1-2.8-20-7.1-29.7-6.9c-6.6,4.6-5.1,10.3-5.1,15.4c-0.1,33.3-0.1,66.7,0,100
		c0.5,272.6,1.2,545.3,1.5,817.9c0.6,517.9,1.1,1035.9,1.6,1553.8c0,8.5,1.1,17.2-1.2,25.3c-4.8,1.5-7.5-0.8-8.1-4.2
		c-1-5.8-1.5-11.8-1.3-17.6c0.5-13.3,2.4-26.6,2.4-39.8c0.1-54,1-108-0.9-162c-1.5-43.3,1.2-86.5,0.5-129.8c-0.1-3.3,0.3-6.7-0.1-10
		c-3.8-36.6-1-73.2-0.5-109.9c0.5-37.3-1.2-74.6-1.3-112c-0.2-51.3,0.3-102.6,0.3-153.9c0-44.6-0.2-89.3-0.3-133.9
		c-0.2-50-0.7-100-0.7-150c0-95.3,0.2-190.6,0.4-285.9c0.1-69.3,0.4-138.6,0.3-208c-0.1-116.7-0.5-233.3-0.6-350
		C241,982.1,241,767.4,241,552.8C241,546.3,239.6,539.5,244.5,531.9z"/>
	<path d="M842.7,2538.3c0.7,8,1.6,13.2,1.6,18.3c0,54.6-0.1,109.3-0.1,163.9c0,10.7,0.2,21.3,1,32c3.1,40,1.5,79.9,0.2,119.9
		c-0.1,1.9-0.8,3.8-1.4,7c-4.1,0.8-8.4,2.2-12.8,2.6c-7.3,0.6-14.6,0.7-22,0.9c-152.6,2.7-305.2,5.5-457.8,8.2
		c-8.6,0.2-17.3,0-27.1,0c-0.9-3.9-2.7-7.6-2.3-11.1c3-24,3-47.8-0.6-71.7c-1.3-8.5-0.8-17.3-0.8-26c-0.2-222-0.5-443.9-0.6-665.9
		c-0.2-405.3-0.3-810.5-0.3-1215.8c0-9.1-1.9-18.6,2.1-27.2c8.1-2.8,14.9,1.1,21.8,3c76.9,21.6,153.8,43.5,230.7,65.2
		c78.8,22.3,157.7,44.5,236.5,66.7c26.6,7.5,25.6,5.6,25.7,33.7c0.2,38.7,0.3,77.3,0.3,116c0,5.8-0.6,11.7-1.2,21.1
		c-5.1-9.9-4.1-17-4.1-23.8c-0.3-34.7-0.4-69.3-0.6-104c-0.1-22,1.8-21.4-21.7-28.1C656,979.9,502.9,936.5,349.7,893.2
		c-6.3-1.8-12.8-3.2-20.5-5.1c-1,4.5-2.2,8.1-2.4,11.8c-0.4,7.3-0.3,14.7-0.3,22c0.4,627.2,0.9,1254.5,1.3,1881.7
		c0,17.3-0.2,34.7,0,52c0.1,6.5-0.7,13.5,5.3,19c7.3,2.9,15.4,1.5,23.3,1.3c121.3-2.3,242.6-4.9,363.8-7.1c32-0.6,64-0.6,96-0.9
		c7.2-0.1,14.8,1,21.2-4.6c3.4-5.9,2.1-12.7,2.1-19.2c0-94-0.2-188-0.2-281.9C839.3,2555.1,837.5,2547.7,842.7,2538.3z"/>
	<path d="M913.5,1419c3,3.9,5.4,5.7,5.6,7.7c0.7,6.6,0.8,13.3,0.8,19.9c0.4,145.3,0.2,290.6,1.2,435.8c1.7,251.2,4.4,502.4,6,753.6
		c1,161.3,0.5,322.5,0.8,483.8c0,26.7,0.6,53.3,0.8,80c0,6.6,1.2,13.3-2,19.8c-2.1,0.3-4.3,1.5-5.8,0.8c-14-5.7-28.7-5-43.4-4.8
		c-162.6,1.9-325.2,3.7-487.7,5.5c-6.7,0.1-13.3,0.1-20-0.5c-5.9-0.5-7.1-5-6.9-11.4c4.7-1.6,9.5-3.7,14.5-4.7
		c4.5-0.9,9.3-0.5,14-0.6c137.9-1.7,275.9-3.4,413.8-5.2c32-0.4,64-1,95.9-1.6c5.2-0.1,10.5-0.8,15.2-1.2c5.5-7.4,3.4-15,3.4-22.1
		c0-68-0.1-135.9-0.4-203.9c-1.4-304.5-2.8-609.1-4.4-913.6c-1-200.6-2.4-401.2-3.6-601.7c0-8-0.2-16,0-24
		C911.4,1427.6,912.4,1424.6,913.5,1419z"/>
	<path d="M952.8,3284.1c-165.1,0-329,0-492.9-0.1c-3.2,0-6.4-1-9.5-1.4c0-9.7,1-12.1,6.1-12.7c5.9-0.7,11.9-0.9,17.9-0.9
		c80.7-0.4,161.3-0.4,242-1.1c63.3-0.5,126.6-1.9,189.9-2.9c11.9-0.2,23.7-0.2,36.5-0.4c0.8-5,1.9-8.7,1.9-12.5
		c-0.6-145.3-1.3-290.6-1.9-435.9c-0.1-27.3,0.9-54.7,0.4-82c-0.2-11.6,5.6-22.4,4.5-33.2c-1-10.3-4.5-20.6-4.6-31.3
		c-0.8-104-2-208-2.6-311.9c-0.6-102-1-204-1.1-305.9c0-19.3,1.5-38.6,2.2-57.9c0.2-6.6,0-13.2,0-20.5c2.6-2.4,5.5-1.6,6.2,2.5
		c0.9,5.2,0.8,10.6,0.8,15.9c1.2,226.6,2.3,453.3,3.4,679.9c1,195.3,2,390.6,3,585.9C955.1,3265.6,956,3273.6,952.8,3284.1z"/>
	<path d="M347.6,2824.4c8.1,3.7,16.2,2.3,24,2.3c114,0.2,227.9,0.2,341.9,0.3c24,0,48,0.1,72,0.2c5.3,0,10.5,0.5,20.2,1.1
		c-6.4,2.9-8.8,4.8-11.4,4.9c-14,0.8-28,1.4-41.9,1.7c-102.6,1.9-205.2,3.7-307.8,5.6c-25.3,0.5-50.6,1.6-75.9,2.2
		c-8.6,0.2-17.1,0-25.1,0c-5.9-6.5-3.9-13.5-3.9-19.9c-0.3-50-0.3-100-0.3-150c-0.1-527.8-0.3-1055.7-0.4-1583.5
		c0-48.7,0.1-97.3,0.3-146c0-6.5-1.5-13.3,2.4-19.3c7.1-2,13.2,1.1,19.6,2.9c94.7,27.4,189.3,54.9,284,82.3
		c49.9,14.4,99.8,28.7,149.7,43.1c21.9,6.3,23.4,8,23.9,30.1c0.5,22.7,0.4,45.3,0.5,68c0,2.5-0.5,5-0.8,7.7c-6.6-2-6-7.3-6.1-11.7
		c-0.3-17.3-0.2-34.7-0.3-52c0-7.2-0.3-14.5-0.4-21.3c-3.4-2-5.6-3.8-8-4.5c-149.7-43.1-299.5-86.1-449.3-129.1
		c-1.7-0.5-3.8,0.1-6.9,0.3c-0.7,3.2-1.9,6.2-2,9.3c-0.3,9.3-0.3,18.7-0.3,28c0,605.2-0.1,1210.3,0,1815.5
		C345.1,2803.3,343.5,2814,347.6,2824.4z"/>
	<path d="M818.5,1831.2c5.6,9.9,4.3,16.6,4.3,23c0.4,54.6,0.5,109.2,0.8,163.9c1.4,262.4,2.8,524.9,4.2,787.3
		c0,6.7,0.2,13.4-0.6,19.9c-0.4,3.5-3.3,5.6-8.5,2.7c0.6-6.5,1.4-13.6,1.7-20.7c0.3-6.6,0.2-13.3,0.1-20
		c-0.5-189.2-1.1-378.4-1.5-567.5c-0.2-83.3,0.3-166.5-0.1-249.8c-0.2-38-1.9-75.9-2.9-113.9
		C815.9,1849.1,815.1,1841.9,818.5,1831.2z"/>
	<path d="M841.4,2519.3c-4.1-7-2.8-13.8-2.9-20.3c-0.9-55.9-1.8-111.8-2.2-167.7c-1.2-165.1-2.2-330.2-3.2-495.3c-0.1-8,0-16,0.3-24
		c0.2-4.5,1.3-8.9,5-14c1.2,3.3,2.2,4.9,2.2,6.5c1.2,236.3,2.3,472.7,3.3,709C843.7,2515.1,842.5,2516.7,841.4,2519.3z"/>
	<path d="M936.8,1569.8c3.6,2.7,6.1,3.6,6.3,4.9c1.6,8.5,3.7,17,3.8,25.5c0.6,111.3,0.9,222.6,1.1,333.9c0,4.6-0.4,9.3-1.3,13.8
		c-0.2,1.2-2.8,2.1-5.2,3.7c-1-3.2-2.3-5.5-2.5-7.9c-0.4-5.3-0.3-10.7-0.3-16c0-95.3,0-190.6,0-285.9c0-6.7-0.4-13.5,0.9-19.9
		c1.3-6.7,1.7-12.5-1.1-19.2C934.6,1592.8,937.3,1582.2,936.8,1569.8z"/>
	<path d="M244.2,3217.1c-0.9-23.9-1.1-47.6-0.3-71c6-1.4,7.3,1.7,7.4,5.1c0.5,11.3,0.6,22.6,1.1,33.9c0.3,5.8,1.1,11.6,1.7,18.2
		c6.4,0.5,11.5,1.1,16.7,1.2c16.6,0.2,33.3,0.1,49.9,0.1c4,0,8,0.1,12,0.4c3.7,0.3,6.7,2.6,6.1,6.3c-0.5,2.9-2.7,5.7-4.8,7.9
		c-1.1,1.2-3.7,1.3-5.7,1.3c-25.9-0.1-51.9-0.3-77.8-0.6C249.3,3219.9,248.1,3218.9,244.2,3217.1z"/>
	<path d="M816.7,1231.4c7.9,23.7,7.8,48.5,0,67C816.7,1274.4,816.7,1252.9,816.7,1231.4z"/>
	<path d="M839.8,1322.9c0,15,0,28.1,0,44.4c-2.9-4.1-4.7-5.6-5.2-7.5c-2.4-10.5-2.3-21.1,0.7-31.5
		C835.8,1326.8,837.5,1325.7,839.8,1322.9z"/>
	<path d="M817.2,1795.8c-2.3-12.6-1.3-25.3,0.3-39.2C824,1767.1,824.1,1774.9,817.2,1795.8z"/>
	<path d="M948.1,3750.9c-2.6-11.8-2.4-22.1-0.3-32.4c0.3-1.3,2.7-2.4,4.4-2.9c0.7-0.2,2.7,1,2.9,1.8c1.9,10.3,2.9,20.7-2,30.5
		C952.6,3748.7,951,3749.1,948.1,3750.9z"/>
	<path d="M839.7,1228.5c3.6,16,3.1,27.8-2.4,46.4c-3.8-16.7-2.5-31.3-0.7-45.8C836.6,1228.8,838.6,1228.7,839.7,1228.5z"/>
	<path d="M836.5,1657.2c3.3,6.9,8.5,13.7,2.1,24C834.7,1671.8,833.8,1664.7,836.5,1657.2z"/>
	<path d="M837.5,1716.2c5.4,12,5.8,19.7,1,28.5C834,1734.2,834,1734.2,837.5,1716.2z"/>
	<path d="M817.2,1639.4c0-8.5,0-15.3,0-22.3C822.8,1624.2,822.8,1624.2,817.2,1639.4z"/>
	<path d="M839.4,1602.7c-7-6-4.7-11.4,0-20.7C839.4,1591.7,839.4,1597.2,839.4,1602.7z"/>
	<path d="M817.4,1460.8c0-5.5,0-11,0-16.5c0.8,0,1.6,0,2.4-0.1c0.3,5.4,0.5,10.8,0.8,16.2C819.5,1460.6,818.5,1460.7,817.4,1460.8z"
		/>
	<path d="M835.8,1775.6c-1.9-7-0.6-11.5,2.9-17.2C840.8,1765.1,840.6,1769.8,835.8,1775.6z"/>
	<path d="M836.5,1445.1c4.9,2.5,3.5,6.9,4.4,10.3c0.4,1.3-0.7,3-2.3,8.8c-1.8-7.4-2.9-10.8-3.4-14.2
		C835,1448.4,836,1446.8,836.5,1445.1z"/>
	<path d="M3569.3,1481.7c-5.3,2.6-10.4,5.8-15.9,7.7c-20.1,7-40.3,13.7-60.5,20.4c-3.7,1.2-7.6,1.5-11.1,2.2
		c-9.6-20.4-9.8-66.6-0.3-95.9c37.1-9.2,74.9-19.4,111.3-34.2c36.5-14.8,71.5-32.4,105-53.2c33.5-20.7,64.6-44.6,93.7-70.2
		c22.5,5.6,47.6,21.5,68,43.1c-2.6,3.3-5,7.1-8.2,10c-15,13.1-29.5,27.1-45.7,38.7c-30.2,21.8-61.5,42.1-92.4,63
		c-5.8,3.9-11.7,7.7-21,13.7c24.4-5.7,53.5-20.9,97-49.5c28.9-19,56.5-39.7,80.7-64.4c20.7,17.4,41.2,51.2,46.6,76.7
		c-3,2-6,4.5-9.5,6.3c-77.6,41.2-155.2,82.6-235.9,117.6c-48.3,21-97.6,39.2-148.2,53.6c-5.1,1.5-10.3,2.9-15.5,4
		c-5.7,1.2-6.4,0.5-10.3-9.6c22.2-6.7,44.6-12.8,66.5-20.3c21.4-7.3,42.6-15.3,63.3-24.3c21.3-9.3,42.3-19.6,62.9-30.4
		c20-10.5,39.5-21.9,57.2-35.5c-0.6-2.9-1-4.8-1.4-6.8c0.9,0.8,1.7,1.7,2.6,2.4c0.4,0.3,1,0.5,1.5,0.4c0.4,0,0.8-0.5,1.2-0.8
		c-0.7-0.4-1.4-0.8-2.2-1.1c-1-0.4-2.1-0.6-3.2-0.9c-2.4,2.1-4.4,4.9-7.1,6.3c-77,39.6-156.8,72.2-240.7,94.5
		c-1.9,0.5-3.9,0.8-6.3,1.2c-5.6-4.5-7-10.6-7.5-18.7c4.4-2,8.9-4.5,13.7-6.2c23.2-8.4,45.6-18.3,67.1-30.4c3.4-1.9,7.2-4.2,4.4-9.3
		c0.5-0.2,1.1-0.5,1.6-0.4c0.5,0.1,1,0.6,1.5,0.9C3571.3,1482.2,3570.3,1482,3569.3,1481.7z M3549.3,1438.2
		c69.8-0.8,185.6-58.6,216.3-107.5c-18.5,12-34.8,23.2-51.7,33.4c-16.5,9.9-33.3,19.4-50.6,28c-17.9,8.8-36.2,16.7-54.7,24.2
		C3590.2,1423.7,3571.5,1430.1,3549.3,1438.2z"/>
	<path d="M3930.2,1446.4c0,5.3,1.1,9-0.2,11c-2.9,4.3-6.9,8.1-10.8,11.7c-20.7,19-43.3,35.4-67.9,49.1c-6.4,3.5-12.6,7.3-18.1,13.1
		c3.5-0.9,7.1-1.5,10.4-2.8c25.7-9.8,49.2-23.5,71.4-39.6c4.6-3.4,8.3-9,16-8.4c0.3,17.5-3.3,34.4-8.7,50.7
		c-1.8,5.4-6.6,9.9-10.6,14.3c-56.9,64.4-127.4,106.4-210.9,126.2c-18.1,4.3-36.8,6.1-55.1,9.6c-11,2.1-21.1,0.5-31-4.3
		c-6.5-3.2-13.1-6.2-20-9.5c2-6.6,7.1-6.2,11.2-7.2c52.6-13.1,103.2-31.5,151.4-56.2c11.8-6.1,23.3-12.9,34.8-19.6
		c2.6-1.5,4.8-3.7,6.1-7.5c-7.2,2.8-14.5,5.5-21.7,8.5c-62.1,26.3-125.6,48.1-191,64.5c-10.2,2.5-17.8,1.8-25.6-5.2
		c-10.4-9.3-21.3-17.9-30.7-30.5c17.1-8.6,34.9-11,51.5-16.6c17-5.8,34.3-10.7,51.4-16.4c17.1-5.7,34.1-11.6,50.9-17.8
		c17.5-6.5,34.8-13.4,52.1-20.5c16.6-6.9,33.1-14.1,49.4-21.6c16.4-7.4,32.7-15.1,48.8-23c16.1-8,32-16.4,47.9-24.8
		C3896.8,1464.8,3912.4,1456.1,3930.2,1446.4z"/>
	<path d="M3534,1347.7c5.1-0.5,10.4-0.5,15.4-1.5c29.1-5.3,56.2-16.3,82.5-29.4c34.2-17,65.4-38.5,93.3-64.7
		c3.9-3.6,7.9-7.1,12.9-11.6c11.8,2.8,23.9,5.6,35.5,8.3c2.2,7.3-3,9.3-6.3,12.1c-53.3,45.1-112.3,80.9-177.1,107.1
		c-30.3,12.3-61.3,22.3-93.1,29.8c-3.1,0.7-6.2,1-10.4-0.9c2.2-1.6,4.1-4.1,6.6-4.7c25.8-7.1,50.7-16.4,74.6-28.2
		c12.5-6.2,25-12.4,39.7-24.2c-23.1,5.1-40,14-58,19.7c-17.5,5.5-34.6,12.7-53.4,16c15.5-74.8,145.8-154.5,217.9-134.2
		c-0.3,5.4-5,7.3-8.4,10c-35.3,27.7-73.4,50.7-114.5,68.6c-15.3,6.7-30.7,12.9-46,19.5c-4.1,1.8-8,4-11.9,6
		C3533.5,1346.1,3533.8,1346.9,3534,1347.7z"/>
	<path d="M3897.4,1583c-8.3,20.8-29.2,45.4-55.8,65.6c-34.2,25.9-72.7,40.9-115.3,45.4c-22.7,2.4-30.8,2.1-42.1-2.9
		c25.7-8,51.7-15.1,77.1-24.1c25.1-8.8,49-20.8,71-35.9C3854.4,1615.9,3875.5,1599.2,3897.4,1583z"/>
	<path d="M3461.4,1534.1c5.1,14.1,10.2,28.2,15.3,42.2c-15.7,6.9-49.5,13.5-63,12.4c-3.2-0.3-6.6-1.1-9.5-2.4
		c-3.4-1.5-4.8-4.9-3.4-8.3c1.5-3.6,3.6-7.2,6.1-10.1C3417.1,1555.6,3441.2,1540.7,3461.4,1534.1z"/>
	<path class="st0" d="M3549.3,1438.2c22.2-8.1,40.9-14.5,59.3-21.9c18.5-7.5,36.8-15.4,54.7-24.2c17.3-8.5,34.1-18,50.6-28
		c16.9-10.2,33.2-21.4,51.7-33.4C3734.9,1379.7,3619.1,1437.5,3549.3,1438.2z"/>
	<path class="st0" d="M3745.6,1444.7c1.1,0.3,2.2,0.5,3.2,0.9c0.8,0.3,1.5,0.7,2.2,1.1c-0.4,0.3-0.8,0.8-1.2,0.8
		c-0.5,0.1-1.1-0.1-1.5-0.4C3747.3,1446.3,3746.4,1445.5,3745.6,1444.7C3745.6,1444.6,3745.6,1444.7,3745.6,1444.7z"/>
	<path class="st0" d="M3569.3,1481.7c1,0.3,2,0.5,3,0.8c-0.5-0.3-0.9-0.8-1.5-0.9c-0.5-0.1-1.1,0.3-1.6,0.4
		C3569.2,1482,3569.3,1481.7,3569.3,1481.7z"/>
	<path d="M4201.5,4659.2c4.7,24.5,3.1,49.1,3.4,73.5c0.3,24.7,0.1,49.3,0.1,74s0,49.3,0,74c0,24.6,0.2,49.1,0.3,71.8
		c6.5,8.3,14.5,8.4,21.3,10.4c108.5,32.3,217,64.4,325.5,96.5c53.6,15.9,107.2,31.7,160.9,47.5c8.2,2.4,16.6,4.2,26.2,6.7
		c2.4,4.9,1.5,11.2-0.2,18.4c-7.8,1.7-14.6-1.3-21.4-3.2c-85-24.7-170.1-49.3-255.1-73.9c-79.9-23.1-159.9-46.2-239.8-69.3
		c-2.6-0.7-5.2-1.2-7.8-1.9c-7.3-1.8-11.5-6.8-13.1-13.7c-1.2-5.1-1.6-10.5-1.6-15.8c-0.1-93.3-0.1-186.6,0-279.9
		C4200.2,4669.3,4201.1,4664.2,4201.5,4659.2z"/>
	<path d="M4201.2,3792.4c7.4-0.6,12.6-1.4,17.8-1.3c18,0.3,36,0.5,53.9,1.4c41.9,2.2,83.8,4.7,125.7,7.1c5.3,0.3,10.6,1.3,15.9,1.8
		c11.9,1,23.8,2,35.7,2.7c4.6,0.3,9.3-0.4,14-0.1c8.6,0.5,12.4,4,11.6,10.3c-0.7,6-4.7,8.3-13.7,7.8c-1.3-0.1-2.6-0.3-4-0.4
		c-59.7-5.6-119.3-11.3-179-16.9c-8-0.7-15.9-1.4-23.9-1.8c-3.9-0.2-8.9-0.9-11.7,1c-10.7,7.4-21.8,3.6-33.8,1.8
		c-0.8,4.1-2.1,7.8-2.2,11.5c-0.3,12-0.2,24-0.2,36c0,240.5,0,480.9-0.1,721.4c0,6.9,1.2,14-2,23.7c-2.3-4.5-4.2-6.6-4.4-8.8
		c-0.6-5.9-0.7-12-0.7-17.9c0-252.5,0.1-504.9,0.2-757.4C4200.4,3807.8,4200.9,3801.2,4201.2,3792.4z"/>
	<path d="M4736,3833.8c-7.8-0.2-14.4-0.6-21-0.6c-64,0.8-127.9-3.1-191.9-5.9c-8.6-0.4-17.3-1.3-25.9-2.6c-8.6-1.3-9.5-3.6-7.8-16.8
		c3-0.2,6.3-0.9,9.4-0.7c81.1,4.6,162.3,9.3,244.3,14c1.2,5.2,2.8,9.5,3.1,13.9c0.5,6,0,12,0,18c-1.1,268-2.2,536-3.3,804
		c-0.2,53.3,0,106.6-2.3,160c-0.2-9.1-0.4-18.1-0.5-27.2c-0.6-224.7-1.3-449.3-1.8-674c-0.2-83.3,0.1-166.7,0-250
		C4738.6,3856.2,4739.6,3846.1,4736,3833.8z"/>
	<path d="M852.4,4956.5c1.7-20.9,0.6-40.8,0.8-60.7c0.2-20,0-40,0-60c0-19.3,0-38.6,0-58c0-20,0-40,0-60c0-19.7,0-39.3,2.7-59.4
		c0.9,2.2,2.4,4.4,2.6,6.7c0.5,6.6,0.7,13.3,0.7,20c0,86.6,0.1,173.2,0,259.9c0,7.3-0.3,14.7-1.3,21.9c-1.3,9.4-6.7,14.9-16.5,17.5
		c-39.8,10.8-79.5,22.1-119.2,33.6c-124,36-248,72.2-372,108.2c-9.4,2.7-18.6,7.3-30.3,5.7c-0.3-5.8-0.7-11.5-1-17.2
		c60.4-17.8,119.6-35.3,178.8-52.7c58.7-17.3,117.5-34.6,176.2-52.2C733.2,4992.2,792.7,4975.4,852.4,4956.5z"/>
	<path d="M851.9,4595.8c0-6.9,0-13.4,0-20c0-245.2,0-490.5,0-735.7c0-8,0.1-16-0.2-24c-0.1-3.1-1.2-6.2-1.9-10.1
		c-5.4,0.8-9.9,2-14.5,2.1c-4.5,0.1-9.8,0.4-13.5-1.6c-7.6-4.1-15.4-3.9-23.3-3.2c-19.9,1.8-39.8,3.8-59.7,5.7
		c-45.8,4.2-91.5,8.5-137.3,12.6c-3.9,0.4-7.9,0.5-11.9,0.1c-3.9-0.4-7.2-4.6-6.3-8.7c0.7-2.8,2.8-6.1,5.3-7.5
		c2.7-1.5,6.5-1.7,9.7-1.4c18.7,1.4,37.1-0.8,55.7-3.6c15.7-2.4,31.9-2.6,47.8-3.4c39.3-2,78.5-4,117.8-5.6
		c11.9-0.5,23.9-1.8,35.3,1.3c4.7,5.5,3.7,11.7,3.7,17.6c0.2,24.7,0.2,49.3,0.2,74c0,227.2,0.1,454.5,0.1,681.7
		c0,7.3-0.2,14.7-0.8,21.9C858,4591,857.4,4594.6,851.9,4595.8z"/>
	<path d="M312.2,3824c17.6-4.1,186.8-15.2,244.6-16.6c4.5-0.1,9.1,0.5,13.4,0.8c0.9,13.5,0.2,15.4-8.8,16.6
		c-10.6,1.4-21.2,2.3-31.8,2.8c-63.2,3.1-126.5,6.3-189.8,5.7c-5.9-0.1-12.1-1.1-17.2,3.2c-0.4,0.6-0.7,1.1-1,1.7
		c-0.3,0.6-0.5,1.2-0.6,1.9c-0.2,1.3-0.3,2.6-0.4,4c-0.1,2.7-0.1,5.3-0.1,8c-0.3,380.6-0.6,761.1-1.9,1141.7
		C316,4604,315.2,4214.3,312.2,3824z"/>
</g>
</svg>
