<?xml version="1.0" encoding="utf-8"?>
<!-- Generator: Adobe Illustrator 25.4.1, SVG Export Plug-In . SVG Version: 6.00 Build 0)  -->
<svg version="1.1" id="Calque_1" xmlns="http://www.w3.org/2000/svg" xmlns:xlink="http://www.w3.org/1999/xlink" x="0px" y="0px"
	 viewBox="0 0 60 60" style="enable-background:new 0 0 60 60;" xml:space="preserve">
	  <style>
		circle {						
			
			animation-name: changewidth;
			animation-iteration-count: infinite;
			animation-direction: alternate
			transition: all 3s ease;
			animation-duration: 3s;
		}

			@keyframes changewidth {
			from {
				transform: translate(0px, 0%);
				opacity: 1;
				r:0px;
			}

			25% {
				transform: translate(0px, 25%);
				r:3px;
			}

			75% {
				transform: translate(0px, 50%);
				r:3px;
			}

			to {
				transform: translate(0px, 50%);
				opacity: 1;
				r:0px;
			}
			
			}
	 </style>
<g>
	<path d="M46,29.6c0,4.4,0,8.7,0,13.1c0,2.8-0.5,5.4-1.9,7.9c-1.2,2.2-2.8,4-4.8,5.5c-1.9,1.4-4,2.3-6.4,2.7
		c-3.3,0.6-6.5,0.2-9.6-1.2c-2.1-1-3.9-2.4-5.4-4.1c-1.8-2.1-3-4.5-3.5-7.2c-0.2-1.4-0.3-2.8-0.3-4.3c0-8.6,0-17.2,0-25.8
		c0-3.5,1.1-6.7,3.2-9.5c1.6-2,3.5-3.7,5.8-4.8C25,1,26.8,0.6,28.8,0.4C30.9,0.1,33,0.4,35,1.1c1.9,0.6,3.6,1.5,5.1,2.8
		c1.8,1.5,3.3,3.3,4.3,5.4c0.7,1.5,1.2,3,1.4,4.6C45.9,15,46,16,46,17.1C46,21.3,46,25.4,46,29.6z M45.2,29.6c0-4.5,0-9.1,0-13.6
		c0-1-0.1-2.1-0.4-3c-0.8-3.6-2.7-6.6-5.7-8.8C35.5,1.4,31.5,0.4,27,1.4c-3.9,0.8-7,2.9-9.3,6.2c-1.9,2.6-2.7,5.6-2.7,8.8
		c0,8.2,0,16.4,0,24.5c0,1.2,0.1,2.5,0.1,3.7c0.1,1.6,0.6,3.2,1.2,4.6c1.3,2.9,3.3,5.2,6.1,6.8c3.3,2,6.9,2.6,10.6,1.9
		c4.1-0.8,7.4-3,9.7-6.5c1.7-2.5,2.5-5.2,2.5-8.2C45.2,38.7,45.2,34.1,45.2,29.6z"/>
</g>
<circle cx="30" cy="10" r="1"/>
</svg>
