<?xml version="1.0" encoding="utf-8"?>
<svg version="1.1" id="Calque_1" xmlns="http://www.w3.org/2000/svg" xmlns:xlink="http://www.w3.org/1999/xlink" x="0px" y="0px"
	 viewBox="0 0 290.2 536" style="enable-background:new 0 0 290.2 536;" xml:space="preserve">
	 <style>
		.circle {						
			
			animation-name: changewidth;
			animation-iteration-count: infinite;
			animation-direction: alternate
			transition: all 3s ease;
			animation-duration: 3s;
		}

			@keyframes changewidth {
			from {
				transform: translate(0px, 0%);
				opacity: 1;
				r:0px;
			}

			25% {
				transform: translate(0px, 25%);
				r:20px;
			}

			75% {
				transform: translate(0px, 50%);
				r:20px;
			}

			to {
				transform: translate(0px, 50%);
				opacity: 1;
				r:0px;
			}
			
			}
	 </style>
<g>
	<path d="M290.2,267.7c0,39.8,0,79.7,0,119.5c0,25.3-5,49.4-17.1,71.8c-10.8,20-25.5,36.6-43.9,50c-17.5,12.7-36.9,21.1-58,24.8
		c-30.1,5.2-59.4,1.7-87.4-11.4c-19.2-8.9-35.5-21.6-49.1-37.5c-16.3-19-27.6-40.9-31.5-65.8c-2-12.8-3-25.9-3-38.9
		c-0.3-78.5-0.4-157,0-235.5c0.2-31.9,9.7-61,29.2-86.7c14.2-18.7,31.6-33.4,52.7-43.5c16.1-7.8,33.2-12,51.2-13.8
		c19.6-2,38.4,0.8,56.7,6.5c17.1,5.3,32.6,14,46.5,25.5c16.5,13.6,29.7,29.8,38.9,49c6.4,13.4,11.4,27.4,12.7,42.4
		c0.8,9.9,1.9,19.7,1.9,29.6C290.3,191.7,290.2,229.7,290.2,267.7z M283.2,267.7c0-41.5,0.2-83-0.1-124.5
		c-0.1-9.3-1.2-18.8-3.2-27.8c-7.6-33-24.7-60-52-80.4C194.6,10.3,157.6,1.4,117,10c-35.7,7.5-64.1,26.8-85,56.6
		c-16.9,24-24.8,50.9-24.8,80.2c0,74.7,0,149.3,0.1,224c0,11.3,0.5,22.5,1,33.8c0.6,14.9,5.1,29,11.1,42.4
		c11.9,26.4,30.5,47.2,55.5,62.2c30,18.1,62.5,24,96.5,17.3c37.5-7.4,67.4-27.8,88.7-59.5c15.1-22.5,23-47.6,23.1-74.8
		C283.3,350.7,283.2,309.2,283.2,267.7z"/>
</g>
<circle class="circle" cx="145.1" cy="62.7" r="100%"/>
</svg>
