<?xml version="1.0" encoding="utf-8"?>
<!-- Generator: Adobe Illustrator 25.4.1, SVG Export Plug-In . SVG Version: 6.00 Build 0)  -->
<svg version="1.1" id="Calque_1" xmlns="http://www.w3.org/2000/svg" xmlns:xlink="http://www.w3.org/1999/xlink" x="0px" y="0px"
	 viewBox="0 0 7954 6787" style="enable-background:new 0 0 7954 6787;" xml:space="preserve">
<style type="text/css">
	.st0{fill:#FFFFFF;}
</style>
<g>
	<path d="M5292.8,439.1c-5.6-0.6-11.5-1.5-17.4-1.7c-7.3-0.3-14.7-0.1-22-0.1c-549.2,0-1098.4,0-1647.6,0
		c-294.6,0-589.2-0.2-883.8-0.3c-49.3,0-98.6-0.2-148-0.2c-6.6,0-13.4,0-19.9,1.1c-10.8,1.8-15.2,6.5-15.1,17.6
		c0.3,32.6,0.3,65.3,2,97.9c2.7,49.9,6.6,99.7,10.2,149.6c1.2,15.9,3,31.7,7.1,47.4c0-96.1,0-192.1,0-289.1c4.8-0.9,8.5-2,12.3-2.2
		c6.6-0.3,13.3-0.1,20-0.1c283.3,0,566.5,0,849.8,0c550.5-0.1,1101-0.2,1651.6-0.3c49.3,0,98.6-0.3,148-0.3c7.3,0,14.6,0.5,21.9,1.2
		c8.4,0.8,13.4,6,14.8,13.9c1.2,6.5,1.3,13.2,1.3,19.9c0,32.7-0.3,65.3-0.4,98c-0.1,89.3,0,178.6,0,268c0,7.3,0,14.5,0,21.1
		c-5.7,4.4-8.2,0-11.1-2.2c-27-21.7-53.3-44.4-81.1-65c-99-73.3-207.4-127.6-327-158.7c-55.6-14.5-112-23.7-169.3-27.4
		c-154-9.9-303,12.8-446.3,70c-111.6,44.6-209.8,110-295.2,194.4c-114.7,113.3-200.7,244.8-250.7,398.9
		c-22.3,68.7-36.9,139-42.9,211c-18.4,222.1,29.5,428.7,152.8,614.6c131.1,197.7,311.1,332,540.4,397.6
		c56.5,16.2,114.2,25.7,172.8,31.1c54.6,5.1,109.2,5.8,163.8,2.1c157.2-10.5,302.9-57.5,436.4-141.5c48.1-30.2,93.2-64.3,136-101.6
		c5-4.4,10-8.7,14.8-12.7c5.1,1,4.8,4.7,4.8,7.9c0.2,12,0.4,24,0.4,36c0.2,65.3,0.4,130.6,0.5,196c0.4,210.6,0.7,421.3,1,631.9
		c0.2,99.3,0.4,198.6,0.4,298c0.2,383.9,0.3,767.9,0.4,1151.8c0.1,558.6,0.1,1117.2,0.2,1675.7c0,7.9-0.2,15.8-0.4,24.6
		c-4.7,0.8-8.5,1.8-12.2,2c-6,0.3-12,0.1-18,0.1c-885.8,0-1771.5,0-2657.3,0c-8.6,0-17.2,0-24.8,0c-6.1-6-4.5-12.3-4.5-18.1
		c-0.2-39.3-0.1-78.7-0.1-118c0-6.6-0.4-13.1-0.7-22.7c-3.6,3.5-5.7,4.8-6.5,6.6c-10.3,23.6-14.9,48.2-14.1,74
		c0.4,12.2,0,12.2-11.6,21.3c-1.1-2.5-2.8-4.8-3-7.2c-0.5-6.6-0.4-13.3-0.4-20c0-1229.1,0-2458.3,0-3687.4c0-8.6,0.2-17.2,0.3-25.8
		c5.6-2,9.8-4,14.3-5.1c46.4-11.9,92.9-23.7,139.4-35.3c23.3-5.8,24.9-5.4,41.4,13.3c50.9,57.5,113.1,96.5,187.8,115.3
		c215.3,54,413.1-93.2,447.7-286.6c5.3-29.6,8.1-59.4,5.2-89.5c-0.5-5.3-0.4-10.7,0.2-15.9c1.1-9.8,6.1-17.6,14.3-23
		c6.1-4,12.5-7.7,18.8-11.4c48.5-28.3,94.4-60.1,135.5-98.5c19.5-18.2,38.1-37.4,54-58.8c7.1-9.6,14.1-19.6,19.4-30.2
		c17.3-34.4-3.5-68-42-67.5c-26,0.3-51.7,4.6-77.2,9.6c-68.5,13.5-132.8,38.7-194.8,70.2c-4.7,2.4-9.4,4.7-14.2,7.1
		c-7.9-3.9-12.4-10.7-18-16.2c-51.2-50.3-111.5-84.4-181.7-99.2c-112.4-23.7-214.7,0.5-304.8,71.2c-79.3,62.2-124.2,144.7-135.8,245
		c-1.5,13.2-2.9,26.5-3.9,39.7c-1.1,13.9-6.9,23.7-20.7,28.8c-18.1,6.7-35.7,14.7-53.9,21.2c-7.9,2.8-16.6,3.2-25.1,4.7
		c-5.1-7.5-5.1-14.5,1.5-19.9c7-5.7,6.9-12.5,4.9-19.8c-1.9-7-4.1-14.1-7.1-20.7c-5.9-12.8-6.5-24.3,4.8-34.6c0.9-0.8,1.2-2.3,2.4-5
		c-3-5.3-6.5-11.5-10.2-18.1c0.8-2.4,1.3-5.1,2.6-7.3c8.3-13.2,5.8-26.8,1.4-40.4c-1.2-3.7-3.2-7.4-3.4-11.1
		c-0.9-18.6-1.3-37.3-1.8-55.9c-0.2-8.5-0.7-17.1,2-25.3c3.9,0,6.9,0,10.7,0c0.8-25-1-49.5-2.7-74.1c-0.3-4.4-2.7-7.3-5.8-10
		c-5.5-4.8-5-10.7-2-16.3c2.8-5.3,6.6-10,9.6-15.2c2.1-3.7,2.8-8.2-0.5-11.1c-4.2-3.8-4.1-7.8-3.2-12.6c2.4-13,4.5-26.2,6.9-40.4
		c-5.5-1.7-10.3-3.1-15.7-4.8c-0.3-1.5-1.3-3.5-0.9-5.2c2.6-11.7,5.5-23.3,8.3-35c2.2-9.2,2.5-18.3-0.3-27.6
		c-4.6-14.8-5.5-30-5.3-45.5c0.2-14-0.2-28-0.8-42c-0.6-13.7,1.2-26.2,9.4-37.9c10.9-15.5,10.1-31.3-2.9-45.6
		c-4.4-4.8-5.9-10.1-5.9-16.4c0-48.7,0.3-97.3-0.2-146c-0.1-10.8,9.1-19.9,4.7-30.9c-3.7-9.5-4.6-19.3-4.6-29.4
		c0.1-33.3-0.1-66.7-0.1-100c-0.1-286-0.1-571.9-0.2-857.9c0-7.9,0.2-15.9,0.3-24.4c4.9-0.9,8.7-1.9,12.5-2.1
		c6.6-0.3,13.3-0.1,20-0.1c737.8,0,1475.6,0,2213.4,0c168.6,0,337.2,0.3,505.9,0.5c6.7,0,13.4,0.1,20,0.8
		c10.7,1.2,20.8,3.9,27.6,13.7c117.7-21.3,234.8-42.6,351.2-64.2c3-17.8,3.1-188.8,0.4-208.5c-3.3-0.5-7.1-1.4-10.8-1.6
		c-6-0.3-12-0.1-18-0.1c-1122.4,0-2244.8,0-3367.1,0.1c-9.2,0-18.6-1.5-28.6,2c-0.5,3.6-1.5,7.4-1.6,11.3c-0.3,7.3-0.1,14.7-0.1,22
		c0,809.9,0,1619.8,0,2429.6c0,9.2,0.4,18.4-0.6,27.1c-7.7,2-10-2.6-10.9-7.1c-1.1-5.1-0.9-10.6-0.9-15.9c0-306,0.2-611.9,0.1-917.9
		c-0.1-187.3-0.3-374.6-1.1-561.9c-1-230.6-2.6-461.2-3.9-691.8c-0.5-98.7,4-197.2,6.7-295.8c0.2-7.9-0.1-15.9,2.7-23.7
		c8.2-3.1,16.2-1.9,24.1-1.9c108-0.1,215.9,0,323.9-0.1c456.5-0.1,913.1-0.3,1369.6-0.5c265.9-0.1,531.9-0.3,797.8-0.4
		c235.9-0.1,471.9-0.2,707.8-0.3c66,0,132-0.2,197.9-0.2c7.3,0,14.6,0.7,21.8,1.9c7.3,1.2,11.8,6.1,12.5,13.6
		c0.6,6.6,0.7,13.3,0.7,19.9c-0.1,60.7-0.3,121.3-0.3,182c0,5.1,0.8,10.2,1.4,16.6c11.1-1.5,20.9-2.5,30.6-4.1
		c101.1-17.1,202.2-34.1,303.3-51.3c89.9-15.3,179.8-30.9,269.8-46.2c82.1-14,164.2-27.6,246.2-41.5
		c74.8-12.7,149.6-25.7,224.5-38.4c82.1-14,164.2-27.7,246.2-41.8c89.3-15.3,178.5-30.8,267.7-46.1c73.5-12.6,147.1-25,220.6-37.5
		c57.8-9.8,115.5-20.1,173.3-29.5c50.6-8.2,101.3-16.1,152.1-23.1c17.7-2.4,35.9-2,53.8-1.9c17.3,0.1,34.6,1.4,51.9,2.3
		c2.5,0.1,5,0.8,8.5,1.4c0.4,3.8,1,7,1,10.1c0,2253.6,0,4507.2,0,6761.8c-5.5,0.8-10,2-14.4,2c-43.3,0.2-86.7,1.2-129.8-4.3
		c-28.4-3.7-56.6-8.9-84.8-13.7c-65.6-11.2-131.2-22.7-196.9-34c-74.8-12.8-149.7-25.6-224.5-38.3c-65.6-11.2-131.3-22.3-197-33.5
		c-67-11.4-133.9-22.8-200.9-34.2c-67-11.4-133.9-22.8-200.9-34.2c-66.3-11.3-132.6-22.7-198.9-34c-66.3-11.3-132.6-22.5-198.9-33.7
		c-66.3-11.2-132.6-22.4-199-33.7c-67-11.4-133.9-22.8-200.9-34.2c-66.3-11.3-132.6-22.5-198.9-33.7c-67.6-11.5-135.2-23-202.9-34.4
		c-57.8-9.7-115.6-19.1-173.4-28.9c-25.3-4.3-30.3-10.3-30.3-35.6c0.2-217.3,0.5-434.6,0.7-651.9c0-4,0.1-8,0.1-12
		c-1.4-463.9-0.3-927.8-0.6-1391.7c0-8.6-1.1-17.3,2.4-26.9c8.1-1.2,16.4-2.4,26.1-3.8c0.9,5.6,2.2,9.9,2.2,14.2
		c0.2,34,0.1,68-1.1,102.2c-0.8-4.5-1.6-9-2.4-13.5c-6.8,39.2-0.6,78-1.1,117c4.2-7.5,2.8-15.4,3-23.2c0.2-7.3,0-14.7,0.8-22
		c0,11.1,0,22.3,0,33.4c0,185.3,0,370.6,0,555.9c0,5.3-0.4,10.7,0.1,16c0.7,8.6-2.3,15.3-8.5,21.3c-20.2,19.7-16.9,21.8,0.9,37.2
		c2,1.7,3.6,3.9,5.9,6.3c0,45.6,0,91.5,0,138.3c-6.2,5.3-12.7,10.7-20.1,17c6.1,4.9,11,9.2,16.2,13c4.6,3.4,6.9,7.6,6.9,13.5
		c-0.3,32-0.2,64-0.7,96c-0.1,5.1-2,10.4-4,15.2c-4.4,10.2-5.4,20.1-2.2,31c10.1,33.2,9.2,67.1,6.1,101.1
		c-0.8,8.6-1.7,17.3-3.4,25.8c-2.1,10-2.9,19.4,2.2,29.1c2.3,4.3,1.9,10.4,1.9,15.6c0.1,43.3,0.4,86.7-0.1,130
		c-0.2,15.3-1.5,30.7-3.8,45.8c-2.8,18.8-1.7,37.2,1.9,55.6c2.2,11.3,1.7,22.2,0.3,33.7c-2.3,18.4-3.1,37.2-3.3,55.8
		c-0.2,28,0.9,56,1,83.9c0.2,39.3,0.6,78.7-0.1,118c-0.6,33.3-2.8,66.6-4.1,99.9c-0.4,9.3-0.8,18.8,0.4,27.9
		c4.1,29.9,3.8,59.8,3.3,89.8c-0.4,26,0.2,26.7,25.1,30.9c103.8,17.3,207.6,34.5,311.3,52c82.7,13.9,165.4,28.3,248.1,42.3
		c89.9,15.2,179.9,30.2,269.9,45.5c82.1,13.9,164.1,28.2,246.1,42.2c74.2,12.6,148.4,25.1,222.6,37.7c74.2,12.6,148.3,25.4,222.5,38
		c66.3,11.3,132.6,22.5,198.9,33.7c67,11.4,133.9,22.8,200.9,34.2c66.3,11.3,132.6,22.5,198.9,33.7c67.6,11.5,135.2,22.9,202.9,34.4
		c42,7.1,84,14.3,126.1,21.3c6.5,1.1,13.1,1.5,20.6,2.4c1-3.6,2.5-6.6,2.7-9.7c0.9-19.3,2.2-38.6,2.2-57.9
		c0.3-228.6,0.3-457.3,0.4-685.9c0.1-203.3,0.2-406.6,0.2-609.9c0.1-391.9,0.2-783.9,0.1-1175.8c0-44-1.6-87.9-2.3-131.9
		c-0.5-28.7-1.2-57.3-1.1-86c0.5-96,1.9-191.9,2.1-287.9c0.1-58.6-1.6-117.3-2.3-175.9c-0.3-21.3-0.2-42.7,0.2-64
		c1-50.6,1.5-101.3,0-151.9c-1-33.9,0.8-68,0.8-102c0-46.6-0.3-93.3-1.1-139.9c-0.3-16-3.4-31.9-3.6-47.8
		c-0.2-15.2,0.6-30.6,2.6-45.7c3.1-23.4,1.9-46.6,0-69.8c-3.1-37.3-5.4-74.4,0.6-111.7c2.2-13.8,1.8-27.8-1.7-41.7
		c-2.3-9-3.2-18.2,0.9-27.4c1.7-3.9,1.2-9,1.3-13.6c0-6.6-1.4-13.4-0.5-19.9c3.6-25.4,1-50.6-0.7-75.8c-0.9-14-1.8-27.9-2.5-41.9
		c-0.5-9.3-0.3-18.5,2.8-27.6c3.6-10.4,2.4-21.2-0.2-31.6c-2.9-11.8-3.3-23.6-2.8-35.7c0.5-10.6-0.3-21.3-0.2-32
		c0.2-16,0.5-31.9,0.9-47.9c0.1-4,1-8.1,0.6-12c-2.2-17.4-1.4-34.5,1.8-51.7c1-5.1,0.4-10.7-0.2-15.9c-4.6-41.9-5-83.7,0.6-125.6
		c2.7-19.9,2.2-39.8-1.5-59.7c-2.8-15.7-4.2-31.4,0.4-47.5c2.1-7.2,0.9-16-0.7-23.6c-2.9-14-2.5-27.7,0.5-41.6
		c1.7-7.7,2.7-15.8,2.7-23.7c0.2-26,0-52-0.4-78c-0.1-5.8-0.6-12-2.6-17.4c-2.1-6.1-2.8-11.9-0.4-17.5c5.4-12.3,4-25,1.9-37.4
		c-3.5-20.5-4.1-41.1-4.2-61.7c-0.2-36-1.3-72-0.7-107.9c0.4-24.7,1.3-49.3-0.9-73.9c-0.4-3.9-0.1-8,0.4-12
		c3.3-23.3,1.9-46.6,0.9-69.9c-0.5-12-0.6-24-1-36c-0.2-8,0.5-15.5,4.4-23.1c2.8-5.6,3.1-12.8,3-19.3c-0.1-7.3-2.4-14.5-3.1-21.7
		c-1.2-12.6-3.3-25.3-2.5-37.8c2.8-42,0.2-84-0.9-125.9c-0.3-12.1-0.3-23.9,3.4-35.6c1.8-5.8,2.8-11.9,0-17.6
		c-3.7-7.6-3.6-15.6-2.4-23.5c8.3-54.4,2.8-109.2,4.5-163.7c0.7-22.5-2.7-45.2-4.2-67.8c-0.3-4.6-1.2-9.4-0.6-13.9
		c2.2-16.7,0.6-33.2-1.1-49.8c-0.7-7.2-1.1-14.7-0.1-21.9c2.5-17.3,2.7-34.5,1.6-51.9c-0.9-14.1-0.3-27.9,2.4-41.8
		c3.3-16.5,3.8-33.2,0.5-49.7c-3.9-19.3-3.5-38.5-1.1-57.7c2.5-19.9,4-39.3-1.1-59.4c-2.8-11.2-1.1-23.9,0.5-35.7
		c3.6-25.3,3.2-50.3,0-75.6c-3.7-29.8-1.4-59.9,1-89.8c0.7-9.3,1.6-18.3-1.8-27.6c-1.7-4.7-1-10.5-0.5-15.8
		c1.4-18.6,3.6-37.1,4.7-55.8c0.5-8.5-0.1-17.4-2.1-25.7c-2.1-8.6-2.8-16.9-2.3-25.7c0.6-10.6,0.8-21.3,0.5-32
		c-1.3-44.7-0.8-89.3,2.2-133.9c1.2-17.9,1.4-36,2-54c0.2-5.9,0.8-12-3-18.2c-5.1,0.4-10.4,0.3-15.6,1.2
		c-824.6,139.6-1649.2,279.2-2474.6,418.9c-0.6,5.6-1.3,10-1.5,14.5c-0.5,16-0.9,31.9-1.3,47.9c-0.2,7.3-0.7,14.7-0.4,22
		c3.1,68.6,1,137.3,1.3,205.9c0.5,100,0.3,200,0,299.9c-0.1,22.6-1.6,45.3-2.3,67.9c-0.3,9.9-2.3,18.6-14.1,23.4
		c5.8,5.3,10.5,9.5,15.7,14.2c0.2,3.4,0.7,7.3,0.7,11.3c0,107.3-0.2,214.6-0.1,321.9c0,13.7-0.9,26.4-11.2,37.1
		c-5.2,5.3-5.5,12.6-0.5,18.3c10.6,12,11.9,26,11.7,41.1c-0.4,28.7,0,57.3,0,86c0,5.2-0.7,10.5-1,15.9c-7,2.4-13.5,4-19.4,7
		c-2.3,1.1-4,5.1-4.3,8c-0.2,1.9,2.2,5,4.2,5.9c5.4,2.4,11.3,4,17.9,6.2c0.5,2.5,1.8,5.7,1.8,8.8c0.1,45.3,0.1,90.7,0,136
		c0,3.9-0.7,7.8-1.1,12.2c-1.9-1.3-3-2-5-3.3c-3,7.2,0.8,14.2-0.4,21.8c-1.2,1.4-2.7,3.7-4.6,5.5c-5.6,5.4-6,11.5-2.8,18.2
		c2,4.2,3.4,9,6.3,12.5c7.5,9,8,19.3,7.7,30.1c-0.4,14-0.2,28-0.4,42c0,1.1-1,2.2-1.6,3.3c-19.7-9.1-27.9-20.2-28.3-40.5
		c-0.5-35.3-0.4-70.6-0.5-106c0-14,0.4-28,0.2-42c-0.2-12.4,2.3-23.8,10.2-33.7c1.3-1.5,2.3-3.3,3.3-5c9.6-15.7,10.6-32.2-0.3-47
		c-11.5-15.5-14.7-32.2-14.3-50.7c0.5-20,1.7-40.2-0.3-59.9c-1.8-17.6,10.5-33.4,4.7-50.7c-5.4-16.3-4-33-4.1-49.6
		c-0.3-49.4,0-98.8,0-148.2c0-10.8,0.7-21.1,7-30.6c2.4-3.6,3.4-8.8,3.4-13.3c0.1-16.6,1.4-33.1-6.8-48.9c-3.1-6-2.6-14.3-2.8-21.5
		c-0.4-28-0.5-56-0.5-84c0-230.6,0-461.3-0.1-691.9C5296.2,459.8,5297.7,449.7,5292.8,439.1z M7857.6,25.5
		c-3.2,10.8-1.9,20.8-1.9,30.7c-0.1,2224.7-0.1,4449.5-0.1,6674.2c0,6.7-0.2,13.3,0.1,20c0.2,3.8,1.5,7.5,2.3,11.6
		c12.6,0.7,24.4,2.5,36.5-1.2c0.5-4.5,1.4-8.4,1.4-12.3c-0.1-2238.7-0.2-4477.4-0.4-6716.2c0-1.8-1.4-3.6-2.5-6.4
		c-5-0.4-10.1-1-15.3-1C7871.2,24.8,7864.7,25.2,7857.6,25.5z"/>
	<path d="M3785.2,1834.9c22,13.7,41.6,26.9,57.2,45.5c39.4,47,76.3,96,111.1,146.5c15.1,22,30,44.1,45.6,65.7
		c18.4,25.6,40.1,48,65.4,67c40.8,30.8,86.7,49.9,137.3,55.7c76,8.8,144.3,36,206,80.6c21.1,15.2,43,29.1,66.2,41
		c64.7,33.1,133.3,45.4,205.3,38.2c34.6-3.5,68.2-12,100.7-24.3c8.5-3.2,17.1-6.6,27.6-15.7c-10.1,1.2-15.9,1.6-21.6,2.5
		c-32.2,5.3-64.4,10.3-97.2,11.2c-96.5,2.8-182.6-24.6-257.5-86c-62.8-51.4-134.4-82.8-214.7-95.4c-71.9-11.3-129.2-47.5-172.4-106
		c-8.7-11.8-16.7-24.1-24.6-36.4c-20.3-31.3-39.8-63.2-60.7-94.1c-16.4-24.3-33.5-48.2-51.9-70.9c-27.6-34.1-61.1-61.2-101.4-79.4
		c-10.9-4.9-21.4-10.7-32.1-16.3c-8.8-4.6-13.7-11.5-15.7-21.7c-6.5-32-11.3-64.3-14.5-96.8c-5.1-51.9-5-103.8,0-155.7
		c1.5-15.2,3.2-30.5,5.4-45.6c2.2-15.1,5.1-30,7.6-44.4c5.2-2,7.2,1,9.1,3.6c3.1,4.3,5.8,8.9,8.7,13.4
		c49.1,75.3,114.7,130.9,197.4,166.1c41.7,17.8,83.4,35.3,125.5,52.1c77.5,30.8,144.1,76.9,200.5,138.5
		c29.2,31.9,60.1,62.5,91.4,92.3c51.3,48.8,113.1,76.6,183.1,86.3c45.9,6.3,91.7,5.7,137.4-0.8c3.8-0.5,8.2-0.1,10.4-6.3
		c-10.3-1.9-20.4-3.8-30.6-5.5c-24.3-4-48.8-7.2-72.9-11.9c-81.8-16-150.8-54.9-206.3-117.5c-24.3-27.4-48.6-54.8-72.7-82.5
		c-59.8-68.8-132.5-119-217.1-152.2c-43.4-17.1-86.7-34.3-129.7-52.4c-40.8-17.1-78.4-39.7-112-68.7c-36.8-31.8-65.5-69.7-88-112.8
		c-10.6-20.4-12.1-39.6-2.2-61c19-41.1,36.6-82.9,54.7-124.4c1.9-4.3,4-8.4,5.8-12.7c5.7-13.4,16.2-20.9,30.2-23.5
		c66.9-12.5,134.1-21.8,202.5-20c49.7,1.3,97.8,9.7,144,29c59.5,24.8,121.9,38.2,186.1,43c25.9,1.9,51.9,2.9,77.8,3.7
		c85,2.6,168.3,15.8,250.3,37.8c32.8,8.8,65.2,19,96.1,33.5c45.3,21.2,84.8,49.9,117.5,88c7.8,9.1,16.2,17.8,25.1,25.8
		c39.7,35.6,86.8,51.7,139.6,48.6c44.2-2.6,81.2,11.4,112.3,41.9c9.5,9.3,18.3,19.4,26.3,30c17.8,23.8,26.3,51.1,24.8,80.6
		c-4.3,80.6-1.9,161.3-1.8,241.9c0,8.6-0.2,17.2-0.3,24.9c-5.5,4.5-9.8,1.9-14.1,0.8c-24.5-6.1-48.9-13.1-73.7-18
		c-45.3-8.9-91.3-11.2-137.3-11c-52,0.2-103.9,2.2-155.9,2.8c-48.6,0.5-97.3,0.9-145.9-2.6c-57.3-4.1-111.4-19.1-163.1-43.3
		c-40-18.7-77.4-41.9-111.8-69.5c-58.7-47.1-117-94.9-175.2-142.6c-38.2-31.2-75.7-63.2-114.1-94.1c-33.2-26.8-68.2-51.2-104.9-73.1
		c-32.6-19.5-66.3-36.9-101.9-50.6c-4.9-1.9-9.5-4.5-14.1-6.9c-0.4-0.2-0.5-1.2-0.8-2c0.4-4.4,4.5-4.1,7.3-4.7
		c58.2-10.9,116.6-13.8,174.6-0.3c59.7,13.9,119,29,178.4,43.9c51,12.8,102,25.7,153.8,35.2c43.4,8,87.1,11.9,131,14.5
		c54.5,3.1,109.2,4.9,163.7,9c61.9,4.6,123,14.3,181.8,35.6c35.2,12.7,68.4,29.7,101.7,46.5c6.9,3.5,13.5,8,24.9,9.7
		c-4.7-5.6-7.1-9.1-10.2-11.9c-38.5-36.1-82.9-62.2-132.3-80.5c-37-13.7-75.4-21.8-114.3-27.9c-68.5-10.9-137.5-16.3-206.7-20.5
		c-52.6-3.2-104.6-11.3-156.2-21.6c-66.7-13.3-132.1-31.4-197-51.4c-37.6-11.6-75.5-21.8-114.3-28.5c-52.3-9.1-104.7-10-157,0.2
		c-17.6,3.4-35.3,6.7-53,10.1c-4.6,0.9-9.2,1.9-13.6,3.2c-17.7,5.4-27.8,18-29.3,36.3c-1.5,17.9,6.8,33.1,22.7,41
		c3.5,1.8,7.4,3,11.2,4.3c56.8,18.7,108.9,46.5,158.1,80.1c42.5,29,82.1,61.6,121.3,94.7c67.2,56.8,134.5,113.4,202,169.8
		c13.3,11.1,27,21.7,40.9,32c78.2,57.8,165.5,93.2,261.7,106.9c53.7,7.6,107.4,8.7,161.5,4.4c67.7-5.4,135.6-9.5,203.4-13.9
		c26.6-1.7,53.2-2.4,79.9-3.9c28.8-1.6,57.2,1.3,85.5,6.4c9.7,1.8,19.5,3.4,28.8,5.1c3.3,15.3,3.9,61,1,83.5
		c-3.5,0.5-7.2,1.4-11,1.4c-21.3,0.2-42.7-0.6-64,0.6c-52.3,2.8-102.9,13.6-150.9,35.3c-5.9,2.7-11.6,5.7-17.4,8.6
		c1.7,5.8,5.7,4.3,8.5,4.3c22.7,0.1,45.3,0,68-0.2c42.8-0.5,85.1,4.5,127.5,9.4c7.9,0.9,15.9,1.8,23.8,2.9c5.2,0.8,10.3,2.1,15,3.1
		c2.5,19.4,2.3,67.6-0.4,83.6c-6.4-1.5-12.9-2.9-19.2-4.5c-49.5-12.9-99.6-16.5-150.6-12.4c-54,4.3-106.6,15.7-159.3,27.6
		c-59.8,13.5-120,24.5-180.7,33.1c-52.8,7.5-103.7,0.5-152.4-20.9c-16.4-7.2-32.4-15.6-48-24.6c-52.5-30.5-102.3-65-152.4-99.3
		c-30.8-21.1-61.9-41.8-93.7-61.2c-35.9-21.9-74.1-39.3-114.7-51c-29-8.3-58.4-13.2-88.6-13.5c-16-0.2-31.7,2.1-47.1,5.1
		c-0.6,4.3,1.7,5.2,4.5,5.6c22.4,3.4,45,5.9,67.1,10.4c36.8,7.5,71.5,21.4,104,40.1c22.5,12.9,44.8,26.5,65.8,41.6
		c47.1,33.8,93.4,68.7,140,103.2c31.1,23,62.6,45.3,96.6,64c39.3,21.6,80.5,38.2,124.8,46.8c40.9,7.9,82.1,8.5,123.4,4.7
		c55.9-5.2,110.2-18.6,164.6-31.8c38.8-9.4,77.7-18.6,117.3-24.3c55.2-8,110.2-8.7,164.6,6.1c6.4,1.7,12.7,4.1,19.1,5.9
		c12.6,3.5,18.3,12.2,19.7,24.7c2.3,21.3-1.2,41.5-13.9,58.9c-7.4,10.2-16,19.7-25.3,28.1c-42.8,38.4-88.9,72.2-138.1,102
		c-101,61.1-209.7,101.1-326.3,119.3c-73.4,11.5-147.2,13.5-221.2,6c-221.6-22.6-410-114.2-564.9-273.9
		c-92.8-95.7-159.2-208-203.6-333.5C3786.3,1851.1,3782.4,1845.2,3785.2,1834.9z M4468.5,1477.5c4.6,2.5,6.2,3.9,8,4.2
		c5.2,0.8,10.6,1.2,15.9,1.7c46.4,4,93,7.1,139.3,12.2c66,7.3,129.3,24.3,189.1,54.1c46,22.9,95,34.4,146.5,34.3
		c53.2-0.1,100.5,17.3,143.3,48.3c10.9,7.9,20.3,17.2,28.2,28.1c5.7,7.8,8.4,16.3,5.6,25.4c-11.1,6.2-21.5,5-31.7,0.9
		c-9.9-4-19.5-8.6-29.2-13c-38.5-17.4-78.4-25.7-120.6-18.5c-26.2,4.5-52.4,9.4-78.6,14.3c-43.2,8-86.2,17.2-129.6,24
		c-35,5.5-70.5,4.7-105.4-2.7c-31.6-6.7-60.8-19.2-87.6-37.4c-3.5-2.3-6.5-7.3-12.2-4.2c0.5,1.2,0.7,2.5,1.5,3.3
		c1.8,2,3.7,3.8,5.7,5.6c47.1,42.3,102.9,62.6,165.6,65.5c49,2.3,96.9-5.6,144.9-13.8c32.2-5.5,64.4-10.7,97.1-11.6
		c44.2-1.3,86.3,6.1,124.7,29.1c13,7.8,27.3,10.3,42,11.3c42.7,3,71.1-28.7,63.7-71c-0.7-3.9-1.8-7.8-3-11.6
		c-7.3-23.2-22-40.8-41.1-55.1c-47.6-35.6-100.8-56.6-160-61.5c-23.2-1.9-46.6-2.3-69.8-3.2c-19.5-0.8-38.3-4.7-56.1-12.7
		c-74-33.2-152.1-48.4-232.6-51.3c-37.2-1.3-74.6-0.2-111.9,0.4C4504.4,1472.7,4488.5,1474.2,4468.5,1477.5z"/>
	<path d="M3881.8,1082.4c5.9-8.2,8.8-12.4,11.9-16.5c14.5-19.1,29.3-38,43.4-57.4c7-9.7,15.4-15.4,27.4-17.9
		c35.8-7.6,71.5-15.9,106.9-25.1c25.8-6.7,51-15.3,76.6-22.7c10.8-3.1,21.9-5.7,33-7.8c34.1-6.5,66.2-0.1,96.5,16.4
		c24.7,13.5,50.5,23.7,78.1,29.6c34.9,7.4,70.1,8.9,105.3,4.8c28.4-3.2,56.7-8.2,85.1-11.9c32.4-4.3,64.8-7.5,97.6-2.5
		c67.3,10.2,124,39,166.4,93.4c7.4,9.4,14.8,18.9,23.1,27.5c29.9,31,66.9,47.5,109.6,51.9c21.9,2.2,43.7,4.3,65.6,6.7
		c26.9,2.9,49.4,15,68.7,33.6c3.2,3.1,6.7,5.7,12.8,11c-2.8-12.8-8-20.3-13.7-27.3c-6.9-8.4-15.6-14.6-25.5-18.8
		c-24.5-10.5-49.5-19.8-75.5-25.8c-10.4-2.4-20.8-4.6-31.1-7.2c-38.3-9.6-69.1-30.5-92.7-62.1c-4.8-6.4-9.3-13-14.1-19.4
		c-55.7-74.1-130.4-111.6-222.5-115.4c-35.4-1.5-70.5,2.4-105.7,6c-36.5,3.7-73,6.5-109.7,7.2c-22.5,0.4-43.6-4.4-63.9-13.6
		c-6.1-2.7-12-5.9-17.8-9c-61.6-32.5-125.6-37.2-191.6-15.9c-17.7,5.7-35,12.9-52.6,19c-17,5.9-34.1,11.3-51.2,16.8
		c-3.7,1.2-7.6,1.6-13,2.7c0.4-7.2,5.1-9.9,8.6-13.1c55.9-51.9,116.5-97.4,182.8-135.2c86.5-49.2,178.8-82.6,276.9-99.4
		c77.2-13.2,154.9-16,233-9.9c80.2,6.3,158.2,22,233.9,49.2c117.1,42,219.7,107.6,310.8,191.9c4.4,4.1,8.3,8.6,12.1,13.2
		c8.8,10.7,13.1,23.1,12.5,37c-0.6,12.6-1.1,25.3-1.7,37.8c-3.8,3-6-0.1-8.5-1.9c-4.3-3.1-8.4-6.7-13-9.2
		c-31.3-16.4-62.4-33-94.2-48.4c-14.3-6.9-29.9-11.2-44.8-16.8c-18.1-6.7-36.6-12.5-54.1-20.6c-27.1-12.4-49.8-30.9-67-55.5
		c-40.6-58.2-97.9-88.7-166.6-99.7c-44.2-7.1-88.8-8.3-133.5-6.5c-70,2.7-139.4,11.7-208.4,23.1c-3.9,0.6-7.8,1.8-11.6,3
		c-1,0.3-1.8,1.6-4.2,3.8c7.8,0,14.1,0,20.5,0c75.3,0.1,150.6,0,225.9,0.4c37.4,0.2,74.5,4.2,111,12.3c16.8,3.7,33.5,8.9,49.6,15.1
		c35.6,13.8,65.4,36,87.8,67c25.2,34.9,58.6,57.9,99,70.8c23.4,7.5,47.4,13.5,71.4,18.9c42,9.5,81,26.2,119.1,45.6
		c15.7,8,23.8,20.6,22.5,38.8c-0.8,11.1-1.1,22.3-1.6,35.1c-3.4-1.3-6-1.6-7.8-3c-36.9-28.7-80.1-41.4-125.3-48.6
		c-22.3-3.6-44.8-6.5-67.1-10.6c-48.7-9.1-89.8-32.6-124.7-67.3c-5.7-5.6-11.1-11.5-16.5-17.5c-53.4-58.5-119.1-92.8-198.1-101.6
		c-28.6-3.2-57.1-4.2-85.6,1c-5.8,1.1-11.4,2.2-18.6,7.3c10.6,0,18.3,0.2,26.1,0c33.5-1,66.6,1.6,99,10.4
		c56.4,15.3,103.2,45.5,140.8,90.1c6.9,8.2,13.5,16.5,20.6,24.5c50.6,56.7,113.2,91.8,188.3,104.8c22.9,4,45.6,9.7,68,15.8
		c32.7,9,58.6,28.1,77.3,56.6c15.7,23.8,25,48.9,24.3,78.6c-1.5,65.3-0.5,130.6-0.5,195.9c0,7.3,0,14.5,0,20.8
		c-4.5,3.9-7.2,2.1-9.6-0.4c-3.7-3.9-7.2-7.9-10.8-11.8c-34.9-36.5-77.7-55.1-128-56.8c-10-0.3-20,0.2-30-0.1
		c-40.8-1.1-75.8-15.7-101.6-47.7c-55.4-68.8-127.4-112.1-209.9-139.8c-58.9-19.8-119.4-32.4-181-40.6
		c-64.2-8.6-128.7-11.8-193.2-15.2c-55.6-2.9-109.5-12.9-161.1-35.1c-57.3-24.7-117.8-32.3-179.8-30.8
		c-54.8,1.3-108.7,9.5-162.5,19.6C3902.4,1079.3,3894.6,1080.4,3881.8,1082.4z"/>
	<path d="M7411.6,6139.7c-7.1-0.5-14.3-0.7-21.4-1.6c-80.6-10.5-161.1-21.2-241.7-31.8c-90.5-12-180.9-24-271.4-36
		c-90.5-12-180.9-24-271.4-36c-80.5-10.7-161.1-21.4-241.7-32c-81.2-10.7-162.5-20.9-243.7-31.9c-71.9-9.7-143.8-20-215.6-30.4
		c-84.4-12.2-168.7-24.9-253-37.5c-15.1-2.3-30.3-4.7-45.4-7.2c-13.7-2.3-21.3-10.6-21.6-24.2c-0.2-9.3,0.5-18.6,0.5-28
		c0-243.3,0.1-486.6,0-729.9c-0.1-221.3-0.2-442.6-0.4-663.9c0-21.3-0.5-42.7-0.3-64c0.1-8.6,0.5-17.4,2.2-25.8
		c1-4.9,4.1-9.9,7.5-13.7c3.9-4.4,9.2-7.7,17.5-5.8c0.5,2.4,1.5,5.4,1.6,8.4c0.3,6,0.1,12,0.1,18c0,406.6,0,813.2-0.1,1219.8
		c0,13.3-1.3,26.6-2.7,39.8c-1,9.4-1.2,18.5,0.6,27.8c1.4,7.8,2.2,15.9,2.2,23.8c0.2,55.3,0.1,110.6,0.1,166c0,6.7,0.1,13.3,0.7,20
		c0.8,8.2,5.6,13.4,13.5,15.4c5.8,1.5,11.8,2.5,17.7,3.2c49.6,5.9,99.3,11.2,148.8,17.6c52.8,6.8,105.6,14.4,158.4,21.7
		c42.9,5.9,85.8,11.9,128.7,17.7c43.6,6,87.1,11.9,130.7,17.8c44.9,6.1,89.8,12.1,134.6,18.1c46.2,6.2,92.4,12.3,138.6,18.4
		c44.9,5.9,89.8,11.8,134.7,17.7c46.2,6.1,92.4,12.3,138.7,18.3c45.6,6,91.2,11.8,136.7,17.7c46.2,6,92.4,12.2,138.7,18.3
		c44.9,5.9,89.8,11.8,134.7,17.7c46.9,6.1,93.8,11.9,140.7,18.3c25.2,3.4,50.4,2.1,75.7,1.5c4.4-9.2,3.2-17.9,3.3-26.4
		c0.5-43.3,0.8-86.6,1.1-130c1.4-201.3,2.9-402.6,4.3-603.8c0.8-106.6,1.5-213.3,2.2-319.9c0.5-65.3,0.5-130.6,1.5-195.9
		c2.4-163.9,5.4-327.8,7.9-491.8c0.9-60.6,1.5-121.3,2-181.9c0.1-6.5,1.8-13.3-3.1-20.8c-88.3-3.9-177.4-5.5-266.5-8.5
		c-89.2-2.9-178.5-5.1-267.5-7.6c-9.7-7.7-16.9-18.1-29.2-20.7c-9.7,3.5-14.6,11.6-21.4,19.8c-200.3-5.6-401.4-10.9-602.5-16.8
		c-200.3-5.9-400.6-11.7-601.7-17.2c-3.4,26.6,0.1,51.2-2.4,76.5c-4.5,1.5-8.8,3.2-13.2,4.1c-3.8,0.8-7.9,0.8-12.4,1.2
		c-4.7-11.9-1.9-23.9-2.3-35.6c-0.5-12.6-0.3-25.3,0-38c0.3-11.8-1.4-23.8,1.6-36.5c5.2-0.3,9.7-0.9,14.2-0.8
		c103.9,3.1,207.8,6.4,311.7,9.5c49.3,1.5,98.6,3,147.9,4.3c67.3,1.9,134.6,3.5,201.9,5.5c113.2,3.3,226.5,6.8,339.7,10.2
		c49.3,1.5,98.6,3,147.9,4.3c68.6,1.9,137.2,3.5,205.8,5.5c111.9,3.3,223.8,6.8,335.7,10.1c39.3,1.2,78.6,2,117.9,3.1
		c7.9,0.2,15.7,1.1,23.3,1.7c1,3.1,2.2,5,2.2,6.8c-7,673.1-14.1,1346.2-21.3,2019.3C7413.9,6134.7,7412.7,6136.6,7411.6,6139.7z"/>
	<path d="M7335.3,4215.4c0.4,5.2,0.9,8.4,0.8,11.7c-6.1,598.5-12.3,1196.9-18.5,1795.4c0,1.2-1.1,2.3-1.9,3.8
		c-1.6,0.3-3.6,1.3-5.4,1.1c-536.8-71.2-1073.5-142.4-1610.2-213.7c-3.9-0.5-7.7-2-11.3-3c-2.3-15.1-2.9-1615.2-0.6-1640.9
		c3.4-0.7,7-1.8,10.7-2.1c4-0.3,8,0,12,0.1c116.6,3.4,233.1,6.8,349.7,10.3c50,1.5,99.9,3,149.9,4.3c69.9,1.9,139.9,3.5,209.8,5.5
		c113.2,3.3,226.5,6.8,339.7,10.1c50,1.5,99.9,3,149.9,4.4c70.6,1.9,141.2,3.6,211.8,5.6c65.3,1.9,130.6,4,195.8,6.1
		C7322.8,4214.2,7328.1,4214.8,7335.3,4215.4z M7290.2,6001.2c4.3-6.9,2.9-13.7,2.9-20.1c1.8-178.6,3.5-357.2,5.3-535.8
		c2.1-205.2,4.4-410.5,6.5-615.7c1.1-104.6,1.8-209.2,2.8-313.9c0.8-84.6,1.8-169.3,2.5-253.9c0.1-7.1,1.7-14.5-2-22
		c-3.5-0.4-6.7-1-10-1.1c-25.3-1-50.6-2-75.9-2.7c-72.6-2-145.2-3.7-217.8-5.6c-50.6-1.4-101.2-2.9-151.9-4.4
		c-113.9-3.4-227.8-6.9-341.7-10.1c-69.9-2-139.9-3.6-209.8-5.5c-50-1.4-99.9-2.8-149.9-4.3c-112.6-3.3-225.1-6.7-337.7-10
		c-28.6-0.8-57.3-1.4-85.9-1.9c-5.1-0.1-10.8-2-15.8,4.4c-0.2,5.2-0.6,11.8-0.6,18.4c-0.1,34.7-0.2,69.3-0.2,104
		c-0.4,251.3-0.8,502.5-1.4,753.8c0,11.9-1.2,24-3.8,35.6c-6,26.6-5.2,52.7,0.2,79.2c2.3,11,3.5,22.4,3.6,33.6
		c0.3,130,0.3,259.9,0.4,389.9c0,52-0.1,104,0.1,156c0,6.5-1.7,13.3,3.2,20.6c516.7,69.7,1034,139.5,1551.3,209.2
		C7273,5999.8,7281.6,6000.4,7290.2,6001.2z"/>
	<path d="M2694.8,2388.6c42.7-14.3,83.9-27.4,124.5-42c41.4-14.8,81.6-32.6,120.8-52.6c38.5-19.6,76.1-40.8,115-68.3
		c-11.6,1.3-17.5,5.3-23.8,8.3c-68.8,32.3-138.4,62.3-210.1,87.6c-42.7,15-85.9,28.7-129.8,39.7c-1.9,0.5-3.8,0.7-6.4,1.2
		c-7.6-6.4-9.4-15.3-10.7-24c3.2-6.8,9.7-7.8,14.9-10.1c35.8-16.3,71.6-32.3,107.5-48.4c4.6-2.1,9.6-3.8,13.3-7
		c-0.8-1.8-1-2.4-1.4-2.8c-0.4-0.4-1.1-0.9-1.7-0.9c-1.3,0.1-2.7,0.3-3.9,0.7c-43.6,14.4-87.2,28.8-130.8,43.2
		c-0.6,0.2-1.3-0.2-2.8-0.4c-7-12.8-8.1-27.5-9.2-41.9c-2.1-26.6-0.8-53.2,2.5-79.8c1.7-13.6,8.4-22,21.3-25.9
		c6.4-1.9,12.8-3.7,19.3-5.2c153-37,289.3-106.7,409-208.8c4.1-3.5,8-7,12.2-10.3c8.2-6.2,16.9-7.4,26.1-1.9c1.1,0.7,2.4,1.3,3.5,2
		c26.3,17,52.6,34,78.8,51.1c1.1,0.7,1.8,1.9,2.8,3c1.2,5.7-3.8,8-6.8,11.1c-31.2,31.1-65,59.3-101,84.7
		c-33.2,23.5-67.1,45.8-100.7,68.7c-6,4.1-12.1,8-20.1,13.3c7.8,2.1,11.9-1.4,16.1-3.3c68.7-31.8,132-72.3,189.9-121
		c13.7-11.5,27.1-23.5,40.2-34.9c1.5,0.2,2.2,0.2,2.8,0.4c0.6,0.2,1.2,0.6,1.6,1.1c1.9,2.7,3.9,5.4,5.6,8.2
		c20.8,34.1,41.5,68.2,62.6,102.9c-2.4,2.2-4.1,4.4-6.2,5.6c-124.3,65.6-248.2,131.9-377.6,187.1c-69.9,29.8-141.4,55-214.5,75.9
		C2716.5,2397.9,2705.4,2400.9,2694.8,2388.6z M2788.1,2197.4c0.2,1.1,0.5,2.3,0.7,3.4c9.1-1,18.5-1.4,27.4-3.2
		c84.1-17.6,160-53.5,228.5-105.1c12.2-9.2,22.7-20.4,33.8-31c2-1.9,5.5-4.4,2.3-7.8c-31.5,19-62.3,38.9-94.4,56.4
		c-31.5,17.2-63.9,32.9-96.8,47.3C2856.4,2172.1,2822,2184.2,2788.1,2197.4z"/>
	<path d="M6881,3758.5c-2.7-12.5-1.2-16.1,7.4-17c6.6-0.7,13.3-0.6,20-0.6c156.6,0,313.2,0,469.9-0.1c7.9,0,16,1.3,23.7-1.7
		c4.2-6.1,2.7-13,2.7-19.5c-0.3-49.3-0.7-98.6-1.1-147.9c0-4,0.3-8-0.1-12c-1.1-10.7,1.9-19.7,10.5-26.6c1.5-1.2,2.5-3,3.4-4.1
		c0.4-1.2,0.7-1.9,0.8-2.5c0.1-0.6,0.2-1.3,0.2-2c0.1-986.5,0.2-1973,0.3-2959.5c0-3.3,0-6.7-0.1-10c0-1.3-0.2-2.7-0.5-4
		c-0.1-0.6-0.6-1.2-1-1.7c-0.4-0.6-0.7-1.1-1.3-1.9c-3.8,0-7.8-0.4-11.7,0.1C6817.8,621.2,6231.7,695,5646.2,768.7
		c-5.6,6.5-3.7,13.5-3.7,19.9c-0.3,74,0.1,148-0.8,222c-1.2,105.3-3.3,210.6-5,315.9c-0.1,5.3,0.2,10.7,0.3,16
		c0.3,25.3,2.2,50.7,0.7,75.9c-2.8,48-2.3,95.9-2.5,143.9c-0.3,62.7-0.1,125.3-0.1,188c0,6.6,0,13.2,0,21.9
		c-14.6-8.1-24.8-15.9-24.5-33.3c1.3-59.3-0.9-118.7,4.1-177.9c1-11.9,2.9-23.8,5.4-35.5c2.5-12.1,3.3-24-2.4-35.2
		c-3.9-7.7-3-15.6-3-23.5c0.5-68,1.2-136,1.8-203.9c0.9-108,1.7-215.9,2.8-323.9c0.5-54.6,1.5-109.3,2.3-163.9c0-2,0.1-4,0.2-6
		c0.5-10,5.8-16,15.4-18.2c4.5-1,9.1-1.9,13.7-2.5c61.4-7.8,122.9-15.7,184.4-23.3c58.2-7.3,116.4-14.2,174.5-21.6
		c58.2-7.3,116.3-15,174.4-22.3c47.6-6,95.2-11.5,142.8-17.5c47.6-5.9,95.1-12.1,142.7-18.2c45.6-5.8,91.2-11.5,136.8-17.2
		c50.2-6.3,100.4-12.7,150.7-19c47.6-5.9,95.2-11.7,142.8-17.7c47.6-6,95.1-12.3,142.7-18.3c46.9-5.9,93.9-11.6,140.8-17.5
		c46.9-5.9,93.8-12.1,140.7-18.1c32.4-4.1,64.8-8.1,97.2-12.1c3.9-0.5,7.8-0.1,12.6-0.1c0.9,4.7,2.2,8.4,2.2,12.1
		c-0.5,176.6-1.2,353.3-1.7,529.9c-0.4,128-0.5,255.9-0.8,383.9c-0.3,143.3-0.5,286.6-0.9,429.9c-0.9,308.6-1.9,617.2-2.8,925.8
		c-0.5,178-0.8,355.9-1.3,533.9c-0.2,64.6-0.8,129.3-1,193.9c0,12,1.1,24,1,35.9c-0.4,57.3-1,114.6-1.6,171.9
		c0,4.6-0.7,9.1-1.1,13.5c-7.4,4.6-14.9,2.7-22,2.7c-93.3,0.2-186.6,0.1-279.9,0.1c-74,0-148,0-222,0
		C6895.1,3759,6887.8,3758.6,6881,3758.5z"/>
	<path d="M5695.8,1602.7c-4.6-0.7-9.7-1.5-13.9-2.1c-1.4-2.2-2.6-3.2-2.7-4.3c-0.4-8-1-15.9-0.9-23.9c1.1-106.6,2.6-213.3,3.5-319.9
		c0.5-56.7-0.2-113.3-0.2-170c0-18,0-36,1-54c2.3-38,1.3-75.9-0.5-113.9c-1.2-23.3-0.8-46.6-1.1-69.9c0-2.7,0-5.3,0.2-8
		c1.1-15.3,4.1-17.8,19.8-18.7c8.6-0.5,17.2-1.5,25.8-2.6c17.2-2.2,34.3-4.9,51.4-6.9c30.4-3.6,60.9-6.7,91.3-10.4
		c46.9-5.8,93.8-12.1,140.7-18.2c45.6-5.9,91.2-11.8,136.7-17.7c46.2-6,92.5-12.1,138.7-18.1c49.5-6.4,99.1-12.6,148.7-18.8
		c48.3-6,96.5-11.7,144.8-17.6c46.3-5.7,92.5-11.6,138.8-17.6c44.9-5.9,89.8-12.1,134.6-18.2c43.6-5.9,87.1-11.9,130.7-17.7
		c36.3-4.8,72.6-9.5,109-14.1c50.2-6.3,100.5-12.5,150.7-18.8c41.6-5.2,83.2-10.6,125.8-16c0.8,4.1,2,7.8,2.2,11.5
		c0.4,6,0.1,12,0.1,18c0,208,0.3,415.9-0.1,623.9c-0.3,153.3-1.6,306.6-1.9,459.9c-0.1,59.3,1.8,118.6,1.6,177.9
		c-0.3,100-1.7,199.9-2.3,299.9c-0.2,29.3,0,58.6,1,87.9c2.2,64.6,2.9,129.3,1.5,193.9c-0.1,4.7-0.1,9.3-0.5,14
		c-3.2,37.2-4.9,74.5-1.1,111.8c-4.2,32.7,1.9,65.1,1.8,97.7c-0.1,32,0.6,64,0,96c-0.4,22.6-2.4,45.2-3.5,67.9
		c-2,42-3,83.9,0.8,125.8c2.5,27.3,3.9,54.4-1.4,81.7c-3,15.1-1.4,30.5,0.1,45.8c0.6,5.9,1.7,12.2,0.3,17.8
		c-3.7,14.7-1.3,29.1,0.2,43.7c0.8,7.9,2.4,15.9,2.6,23.8c0.2,6.6-0.2,13.4-1.8,19.7c-2.6,9.8-2.8,19.5-2.6,29.6
		c0.4,20-0.5,39.9-1,59.9c-0.2,7.3-1.2,14.6-1.2,21.9c-0.1,32.6,0,65.3-0.1,97.9c-0.1,14.8,1.3,29,6.2,43.2
		c6.5,18.6-2.4,29.3-24.9,29.9c-0.4-4.3-1.2-8.8-1.2-13.2c0.2-84,0.5-168,0.8-251.9c0.3-68.7,0.8-137.3,0.9-205.9
		c0.6-260.6,1-521.2,1.5-781.9c0.2-118,0.7-236,1-353.9c0.9-301.3,1.7-602.5,2.6-903.8c0.3-114.6,0.6-229.3,0.7-343.9
		c0-7.8,1.3-15.9-2.3-24.6c-7.4,0.5-14.6,0.5-21.8,1.4c-67.4,8.6-134.7,17.4-202.1,26.1c-56.1,7.3-112.3,14.3-168.5,21.7
		c-66,8.6-132,17.6-198.1,26.2c-56.1,7.3-112.3,14.3-168.5,21.6c-46.2,6-92.4,12.3-138.7,18.2c-46.2,6-92.5,11.7-138.8,17.7
		c-46.2,6-92.4,12.1-138.7,18.2c-44.9,5.8-89.8,11.5-134.8,17.3c-48.2,6.2-96.4,12.6-144.7,18.7c-46.9,6-93.8,11.8-140.8,17.7
		c-10.6,1.3-21.2,2.5-31.7,4.2c-8.9,1.5-12.8,5.6-13.9,14.5c-0.7,5.9-0.6,12-0.7,18c-1.9,185.9-3.7,371.9-5.6,557.8
		c-0.5,52.6-1.3,105.3-2.1,157.9C5699.6,1590.5,5700.7,1596.7,5695.8,1602.7z"/>
	<path d="M5862.8,3293.3c-1.2-53.6-6.2-104.7,1.7-155.9c2.1-13.7,1.6-28,0.3-41.8c-2.2-24.6-3.5-49.1,0.4-73.7
		c1.6-10.4,1.1-21.3,1.1-31.9c0-19.3-0.1-38.7-0.7-58c-0.4-14.2-2.1-28.5,11.6-36.4c-0.6-3.5-0.4-5.2-1.2-6
		c-8.7-9.3-10.3-20.2-10-32.8c1.3-70.6,1.4-141.3,2.2-211.9c2-184.6,4.2-369.2,6.3-553.8c0.2-13.8,0-27.7,0-40.8
		c5.3-2.5,7.7,0,10,2.3c6.4,6.6,8.8,14.8,9.2,23.6c0.3,6,0,12-0.1,18c-1.4,104.6-3,209.2-4.3,313.9c-1,82-1.6,163.9-2.8,245.9
		c-0.4,28.6-2.1,57.3-2.9,85.9c-0.5,17.3-0.5,34.6-0.9,52c-0.8,39.3-1.8,78.6-2.6,117.9c-0.6,28-1.5,56-1.6,83.9
		c-0.2,88-0.2,176-0.2,263.9c0,5.2,0.5,10.5,0.7,16.8c12.9,2.8,25.3,4,37.9,4.1c70.6,0.3,141.3,0.5,211.9,1
		c191.3,1.4,382.5,2.8,573.8,4.5c139.3,1.2,278.5,2.8,417.8,4.2c6.7,0.1,13.4,0.2,20-0.5c8.7-0.9,13-5.3,14.1-14.2
		c0.8-6.6,0.8-13.3,0.9-19.9c0.2-66,0.3-132,0.4-197.9c0.1-88.6,0.3-177.3,0.4-265.9c0.3-211.3,0.6-422.6,0.8-633.8
		c0.1-116.6,0.1-233.3,0.3-349.9c0.4-246.6,1-493.2,1.5-739.8c0-13.3,0-26.7-0.2-40c-0.1-3.9-0.6-7.8-0.9-10.8
		c-1.5-1.2-1.9-1.7-2.5-1.9c-0.6-0.3-1.3-0.4-2-0.4c-412.8,53.4-825.6,106.8-1238.4,160.3c-3.3,0.4-6.6,1.2-9.8,2.1
		c-1.2,0.3-2.2,1.4-4.7,3c0,13,0.1,26.9,0,40.9c-0.4,34.6-0.8,69.3-1.5,103.9c-0.1,6.6-1.6,13.2-3,19.7c-1,4.7-3.9,8.3-8.6,9.7
		c-5.3-2.4-3.6-7-3.5-10.5c0.2-37.3,0.7-74.6,1-112c0.1-14.7,0.2-29.3,0.3-44c0.1-4.7,0.1-9.3,0.6-14c0.7-6.7,4.5-11.1,11-12.7
		c5.2-1.3,10.4-2.3,15.7-3c77.3-9.8,154.6-19.4,231.9-29.4c66.1-8.5,132-17.6,198.1-26.2c56.1-7.3,112.3-14.3,168.5-21.6
		c56.1-7.3,112.2-15,168.4-22.3c56.8-7.4,113.7-14.4,170.5-21.7c56.8-7.3,113.6-14.8,170.4-22.2c42.3-5.5,84.5-11.1,126.8-16.4
		c8.5-1.1,17.1-1.1,27.1-1.6c0.7,6.1,1.8,11.1,1.8,16.2c0,36-0.2,72-0.2,108c-0.1,139.3-0.1,278.6-0.3,417.9
		c-0.4,329.3-0.8,658.5-1.3,987.8c-0.2,177.3-0.5,354.6-0.9,531.9c-0.1,44-0.4,88-0.9,132c-0.1,9.3-0.6,18.8-2.7,27.8
		c-6.4,26.6-5.3,52.8,1.1,79.1c0.5,1.9,0.4,3.9,0.6,5.9c-4.3,5.1-9.9,3-14.9,2.9c-104-0.5-207.9-1-311.9-1.9
		c-160.6-1.3-321.2-2.8-481.8-4.2c-157.9-1.4-315.8-2.7-473.8-4.1C5880.7,3294.3,5872.9,3293.7,5862.8,3293.3z"/>
	<path d="M2397.5,3440.8c-6.2-9.8-14.1-13.4-22.3-18.1c-0.3-4.7-0.9-10-0.9-15.2c0.1-107.3,0.2-214.6,0.6-321.9
		c0-9.2,2.1-18.4,3.9-27.5c2.1-10.5,3.7-20.8,1.4-31.6c-5.8-26.9-5.3-54.3-5.3-81.6c0-164.6-0.2-329.2-0.2-493.8
		c0-162.6,0.2-325.2,0.2-487.8c0-7.3-0.5-14.6-0.3-22c0.1-5.5,2.1-6.6,11.6-7.8c3.5,8.6,3.6,17.9,4.4,27.1
		c2.7,28.5,5.3,57.1,7.5,85.6c1.2,16.6,2.5,33.3,2,49.9c-1.3,40.8,1.8,81.2,6.1,121.7c1,9.9,1.2,20,1.8,29.9
		c0.6,10.1,0.4,20-3.2,29.6c-2.5,6.5-2.5,13,0.1,19.5c3.8,9.5,4,19.5,4.1,29.5c0.1,47.3,0.4,94.6,0.4,141.9
		c0.2,222.6,0.3,445.2,0.4,667.8c0,6-0.1,12,0,18c0.3,11.3-2.9,20.3-12.8,27.5c-9.6,6.9-9.6,16.2,0.2,22.9
		c10.4,7.1,12.9,16.2,12.6,27.4c-0.1,5.3,0,10.7,0,16c0,444.5,0.1,889,0,1333.5c0,98.6-0.5,197.3-0.8,295.9
		c-0.1,42-4.5,83.8-8.8,125.6c-0.4,3.9-1.3,8-3.1,11.4c-1.3,2.5-4.6,3.9-8,6.6c-4.6-11.5-4.5-22.1-4.4-32.7
		c0.6-45.3,1.5-90.6,1.8-135.9c0.5-62.6,0.8-125.3,0.9-187.9c0.1-54-3.5-107.9-6.5-161.8c-2.6-45.9-3.7-91.9-4.2-137.9
		c-1.3-121.3-2.5-242.6-2.7-363.8c-0.3-175.3,0.4-350.5,0.7-525.8c0-6,0-11.9,0-17.2C2382.5,3451.9,2389.4,3446.8,2397.5,3440.8z"/>
	<path d="M2837.7,2535.4c51.4-13.8,102.5-28.2,151.9-48.1c49.5-19.9,97.3-42.8,143-73.7c-8.3-2-13.2,2.1-18.4,4.3
		c-55.9,23.3-112.3,45.5-170.2,63.2c-38.2,11.6-76.9,21.5-115.2,32.5c-16.8,4.8-31.6,2-44.5-9.7c-11.4-10.3-22.8-20.5-33.9-31
		c-3.2-3.1-5.4-7.3-9-12.3c5.2-2.1,9.2-4.1,13.5-5.3c90.6-24.8,179.7-54.1,266.9-88.8c101.6-40.4,200-87.5,295-141.5
		c5.2-3,10.3-6.1,15.8-8.6c2.1-1,4.9-0.6,7.6-0.8c-2.1,16.2-3.2,18.9-12.2,26.1c-6.7,5.4-13.8,10.4-20.9,15.4
		c-29.8,21.3-59.7,42.5-89.5,63.8c-5.4,3.8-10.6,7.8-19.6,14.5c7.5-1.3,10.9-1.5,13.9-2.5c38.9-13.2,73.4-34.3,106.4-58.3
		c5.4-3.9,10.9-7.6,16.4-11.3c0.4-0.3,1.2,0,2,0c3.9,1.8,3,5.6,3,8.6c0.3,38.9-11.6,72.7-38.8,101.6
		c-87.7,93.1-194.6,151.5-319.2,178.4c-16.9,3.6-34.1,5.6-51.1,9.2c-25.3,5.3-48.9,0-71.9-10.2c-7.2-3.2-14-7.3-21-11
		C2837.8,2538.1,2837.7,2536.8,2837.7,2535.4z"/>
	<path d="M5678.2,3652.9c10.6,3,19.2,2.6,27.8,2.7c64,0.3,127.9,0.6,191.9,0.9c215.9,1.1,431.8,2.1,647.7,3.3
		c159.9,0.9,319.8,2.1,479.8,3.6c13.9,0.1,27.8,2.6,41.6,4.2c1.7,0.2,3.2,1.8,4.8,2.8c-7.6,11.5-8.7,12.4-22.2,12.5
		c-20,0.2-40-0.1-60-0.2c-189.2-1.2-378.5-2.5-567.7-3.5c-125.9-0.6-251.9-0.5-377.8-1.1c-98.6-0.5-197.2-1.5-295.8-2.5
		c-22.8-0.2-45.3,0.8-67.4,6.2c-7.9,1.9-15.7,2.3-24.8-0.4c-0.5-3.6-1.8-7.4-1.6-11c6.5-117.2,3.1-234.5,5.4-351.8
		c0.4-21.2-2.5-42.5-3.7-63.8c-0.5-8.6-1-17.3-0.8-26c3.1-150.6,6.6-301.1,9.4-451.7c1.5-82.6,2.1-165.3,2.9-247.9
		c0.7-66,1-131.9,1.9-197.9c0.3-22.6,2.3-45.2,3.3-67.8c0.4-8,0.5-16,0.5-24c1.2-181.9,2.4-363.9,3.6-545.8
		c0.1-17.3,0.4-34.7,0.7-52c0.1-5.3,0.6-10.5,1-16.4c4.2-1.1,8-2.3,11.8-2.9c2.5-0.4,5-0.1,8.9-0.1c1.7,20.4-0.2,40.3-0.2,60.1
		c0,20-0.5,40-0.7,60c-0.2,20-0.4,40-0.7,60c-0.2,19.3-0.4,38.7-0.7,58c-0.4,20-1,40-1.3,60c-0.4,20-0.6,40-0.8,60
		c-0.2,20-0.4,40-0.5,60c-0.2,20-0.3,40-0.5,60c-0.2,20-0.4,40-0.7,60c-0.3,20-0.8,40-1.2,60c-0.3,19.3-0.6,38.6-0.8,58
		c-0.2,20-0.4,40-0.5,60c-0.2,20-0.3,40-0.5,60c-0.2,20-0.3,40-0.5,60s-0.3,40-0.6,60c-0.3,20-0.7,40-1.1,60c-0.3,20-0.5,40-0.7,60
		c-0.2,19.3-0.3,38.7-0.5,58c-0.2,20-0.3,40-0.5,60c-0.1,20-0.2,40-0.4,60c-0.1,20-0.3,40-0.5,60c-0.2,20-0.4,40-0.7,60
		c-0.3,20-0.6,40-0.9,60c-0.3,19.3-0.4,38.6-0.6,58c-0.2,20-0.4,40-0.6,60c-0.2,20-0.2,40-0.4,60c-0.1,20-0.3,40-0.5,60
		c-0.2,20-0.3,40-0.5,60c-0.2,20-0.4,40-0.7,60c-0.3,20-0.8,40-1.1,60c-0.3,19.3-0.4,38.7-0.6,58c-0.2,20-0.3,40-0.5,60
		c-0.2,20-0.4,40-0.5,60C5678.2,3611.4,5678.2,3631.3,5678.2,3652.9z"/>
	<path d="M7125.5,1053.7c0.7,3.1,1.6,5.6,1.7,8.1c1.8,30.1,0.4,2171.5-1.4,2185.7c-6.3,4.8-13.9,2.5-20.8,2.5
		c-56-0.5-111.9-1.4-167.9-1.9c-220.6-2-441.1-3.9-661.7-5.9c-97.3-0.9-194.6-1.9-291.9-2.9c-6.4-0.1-13.2,1.4-20-2.8
		c1.3-1.5,2.3-3.8,3.5-3.9c7.3-0.5,14.6-0.8,21.9-0.8c236.6-0.1,473.2-0.1,709.7-0.2c129.3,0,258.6-0.1,387.9-0.2
		c7.2,0,14.4-0.4,22.8-0.7c0.6-4.7,1.4-8.4,1.6-12.2c0.3-6,0.1-12,0.1-18c0-699.8,0-1399.6,0-2099.4c0-9.2-0.2-18.5-0.3-26.2
		c-4.4-5.2-8.6-3.8-12.3-3.4c-26.4,3.3-52.9,6.7-79.3,10.2c-45.6,6-91.1,12.1-136.7,18.1c-44.9,5.9-89.8,11.8-134.7,17.7
		c-46.2,6.1-92.4,12.2-138.6,18.4c-45.6,6.1-91.1,12.2-136.6,18.2c-44.9,5.9-89.8,11.8-134.7,17.7s-89.8,11.8-134.7,17.7
		c-45.6,6-91.1,12.2-136.7,18.2c-33.7,4.4-67.4,8.7-101,13.2c-5.8,0.8-11.6,2.4-18.2,3.8c-0.3,6.3-0.9,12.2-0.9,18.1
		c0,18,0.2,36,0.5,54c0.1,10.2-1.2,20-7.4,28.5c-1.9,2.6-3.8,5.6-9.1,4.4c-0.4-2.7-1.1-5.7-1.1-8.8c0.4-28.7,1-57.3,1.5-86
		c0-2,0-4,0.2-6c1.2-12,6.2-18.1,18.2-20.5c9.1-1.8,18.4-2.9,27.7-4.1c85.2-11.2,170.4-22.2,255.6-33.5
		c78.6-10.4,157.1-21,235.6-31.6c64-8.7,128-17.6,192-26.2c54.8-7.3,109.6-14.3,164.4-21.5c44.9-5.9,89.8-12,134.7-17.9
		c52.8-6.9,105.7-13.8,158.5-20.6C7119.8,1052.8,7122.4,1053.4,7125.5,1053.7z"/>
	<path d="M5606.7,2252c8.1,0,14.6,0,22.9,0c-3.3,6.9-6.1,12.7-9.2,19.3c11.2,34.3,9.9,70.2,7.6,106.2c-1.5,23.9-2,47.9-2.1,71.9
		c-0.3,86.6,0.4,173.2-0.5,259.9c-1.3,114.6-3.7,229.2-5.6,343.7c-0.2,11-1.3,20.9-10.6,28.8c-5.4,4.5-5.4,11.7,0.3,15.4
		c8.1,5.3,9,12.2,9.2,20.5c0.7,30.6,2.5,61.3,2.4,91.9c-0.1,37.3-1.4,74.6-2.9,111.9c-1.4,34.6-1.7,69.2-0.5,103.9
		c1.1,30.6,2.3,61.3-2.4,91.8c-1.1,7.2-0.8,14.6-0.7,22c0.3,28.6,0.4,57.3,1.3,85.9c1,30.7,2.1,61.3-1.5,91.8
		c-0.5,4.5-0.1,9.1-0.1,14.7c5.1,0.7,9.5,1.9,13.9,1.9c25.3,0,50.6-0.5,75.9-0.3c135.9,0.8,271.8,1.8,407.7,2.7
		c60.6,0.4,121.3,0.7,181.9,0.8c119.3,0.2,238.5,0.2,357.8,0.4c59.3,0.1,118.6,0.5,177.9,0.9c5.3,0,10.6,0.4,15.9,1.1
		c1.8,0.2,3.8,1.4,5.1,2.7c1.3,1.3,2.5,3.2,2.8,5c0.4,1.8-0.4,3.8-0.6,5.9c-2.1,0.7-3.9,1.8-5.8,1.8
		c-416.4,0.1-832.8,0.1-1249.2,0.1c-1.8,0-3.7-1.1-5.6-1.8c-0.6-2.1-1.7-3.9-1.7-5.7c4.9-494.4,9.9-988.7,15-1483.1
		C5605.4,2260.7,5606.1,2257.5,5606.7,2252z"/>
	<path d="M5485.4,386.2c-17.5,2.4-2937.3,2.5-2955.5,0.2c-3.8-5.1-3.2-10.7-1-17.4c3.5-0.6,7.3-1.8,11.2-2c8.7-0.3,17.3-0.2,26-0.2
		c956.8,0,1913.6,0,2870.4,0c10.7,0,21.3-0.4,32,0.3C5480.1,367.8,5482,370.3,5485.4,386.2z"/>
	<path d="M2528.4,2491.8c-2.5-23.7-1.1-44.9-0.9-65.7c3.8-2.4,5.1,0.6,6.5,2.4c12.1,15.2,28.6,19.1,46.6,16.5
		c15.8-2.2,31.4-6.1,47-9.4c69.7-14.7,139.1-30.5,206.7-53.5c82.1-27.9,161.4-62.5,239.2-100.6c117.3-57.4,231.6-120.4,344.1-186.7
		c15.5-9.1,31.2-17.9,46.6-27.2c9.1-5.5,17.8-11.6,26.5-17.8c17-12.1,27.5-28.4,32.4-50c-13.4-9.9-27.3-17.3-45.2-16.3
		c-28.8,1.5-56.9,6.3-84.4,14.8c-27.3,8.5-54.4,17.8-81.6,26.6c-4.2,1.4-8.7,2.2-16.2,4.1c2.9-4.6,3.6-7,5.3-8.1
		c5-3.2,10.3-6.2,15.6-8.8c61.4-29.9,125.6-51.6,193-63c12.5-2.1,25.1-3.5,37.6-5c10.2-1.2,19.9,0.8,28.9,5.9c7,4,10.5,10,10.4,18
		c-0.2,11-4,20.7-10.2,29.7c-17.8,26-38.4,49.4-61.5,70.8c-23.6,21.7-49.2,40.7-76,58.4c-199.2,131.9-414,230.3-643.5,296.4
		c-79.3,22.9-159.5,42.6-239.3,63.5C2547.8,2489,2539.2,2489.9,2528.4,2491.8z"/>
	<path d="M2320,1702.4c8.8,6.1,7.6,13.6,7.8,20.5c1,30,2,59.9,2.2,89.9c0.1,22.6-1.5,45.3-1.7,67.9c-0.3,46-0.5,92,0.1,137.9
		c1.5,119.9,3.7,239.9,5.2,359.8c0.4,32-0.8,64-0.7,95.9c0.4,187.9,2.2,375.9,1.2,563.8c-3.3,614.4-0.6,1228.9-1.6,1843.3
		c-0.1,38.7-0.1,77.3-0.3,116c0,11.9-0.3,23.8-8,36.1c-2.1-3-4.2-4.7-4.5-6.6c-0.6-5.3-0.4-10.6-0.4-16c0-1096.3,0-2192.6,0-3288.9
		C2319.5,1715.6,2319.8,1709,2320,1702.4z"/>
	<path d="M3021.8,1909.6c-4.9,4.4-9.6,8.9-14.7,13.1c-45.6,37.4-95.8,67.5-149,92.5c-30.7,14.4-62.2,27.1-93.4,40.7
		c-5.2,2.3-11.3,3.3-16.8,10.4c5.8,0.1,9.4,0.7,12.8,0.2c30.5-4.3,59.7-13.5,88.3-24.5c64.8-24.8,122.9-60.6,174.1-107.4
		c5.4-4.9,10.8-9.9,16.4-14.7c11-9.3,23.7-11.7,37.5-8c10.2,2.8,20.3,6.1,31.8,9.6c-2,4-3,7.9-5.4,10.5
		c-7.7,8.2-15.5,16.6-24.2,23.7c-14.5,11.7-29.3,23.2-44.8,33.5c-84.3,55.7-174.2,100.1-270,132.5c-23.9,8.1-48.3,14.5-77.5,18
		c4.5-3.2,6-4.6,7.7-5.4c2.4-1.2,4.9-1.9,7.4-2.9c26-10.4,52.2-20,77.7-31.4c18.2-8.1,35.3-18.6,52.8-28.3
		c4.5-2.5,8.5-6.1,12.2-10.3c-26,5.4-50.4,15.7-75.4,23.8c-25.1,8-49.5,18.2-77.4,25.7c2.4-7.3,3.6-12.2,5.6-16.9
		c15.2-35.4,37.6-65.9,65.5-92.3c66.8-63.1,146-96.2,238.2-97.3c6.4-0.1,12.9,0.8,19.4,1.3C3020.9,1907,3021.3,1908.3,3021.8,1909.6
		z"/>
	<path d="M5301.8,3249.8c-0.9-4.1-1.9-6.5-2-9c-0.3-7.3-0.4-14.7-0.4-22c0-381.9,0-763.7,0-1145.6c0-5.3-0.1-10.7,0.2-16
		c0.7-11.3,6-18.7,18.5-20.1c8.5,5.9,10.4,15.4,11,24.4c1.2,17.1,1.5,34.4-6.5,50.5c-1,2-0.9,5-0.5,7.3c0.7,3.9,2,7.7,3.1,11.6
		c3.1,10.9,5,21.2,2.2,33.1c-2.6,10.6-1.6,22.7,0.6,33.6c4.4,22.2,4.1,43.6-3.6,64.9c-2.6,7.1-2.8,13.9,0.9,21.2
		c7.5,14.4,7.7,29.8,1.8,44.6c-6.8,17-5.8,33.5-1.4,50.8c6.3,24.7,4.7,50.2,4.5,75.5c0,6.4-2.1,13.5-5.4,19
		c-5.9,9.6-4.4,17.5,2,25.7c1.2,1.5,1.7,3.6,3.1,6.6c-9.1,19.4-6.4,40.6-4.4,61.8c3.5,38.5,5.7,76.9,5.2,115.6
		c-0.8,56.6-0.3,113.3,0.1,169.9c0.1,18.8-0.9,37.2-8.1,54.9c-1.2,3-1.6,6.4-2.5,9.8c1.6,2.3,2.7,4.9,4.6,6.5
		c4.5,3.8,5.7,8.5,5.7,14.2c-0.2,23.3-0.1,46.6-0.1,71.2c-8.1,7.2-16.6,14.7-25,22.2c4.6,12.7,16.8,16.7,23.6,27.9
		c-2.4,23.5-5.1,48.6-7.7,73.7c3.2,1.8,5.8,3.3,8.7,5c-0.1,1.9,0.2,4.1-0.5,5.8c-5.5,12.4-4.6,24.5,0.1,36.9
		c2.1,5.5,3.2,11.6,4,17.5C5336.9,3222.7,5327.3,3238.7,5301.8,3249.8z"/>
	<path d="M5332.2,4178.4c-12.7,0.5-22.4,1.3-32.2-4.1c-0.4-5.2-1.1-10.4-1.1-15.7c-0.1-85.2-0.3-170.5,0-255.7
		c0.1-22,1.6-43.9,2.2-65.9c0.3-9.3,0.2-18.6,0-27.9c-0.6-24.6-2-49.2-2.1-73.8c-0.3-88.6-0.2-177.1,0-265.7
		c0-10.6,1.4-21.2,2.9-31.7c1.7-12,2.7-23.7-1.7-35.5c-1.4-3.6-1.6-7.8-1.6-11.8c-0.1-34.6,0-69.2,0.1-103.9c0-1.3,0.6-2.5,0.9-3.8
		c3.9-2.2,6.1,0.7,8.4,2.9c15.1,14.7,22.2,32.6,22.1,53.8c-0.2,86.6-0.1,173.1-0.2,259.7c0,19.3-0.3,38.6,0,57.9
		c0.3,18-0.2,35.9-6.8,53.9c1.9,3.3,4,6.6,5.8,10c2.6,4.9,4,10.4,0.9,15.3c-4.9,7.6-3,15.5-2.2,23.3c1.2,11.3,2.7,22.5-0.1,33.8
		c-0.5,1.9-0.8,4-0.5,5.9c5.9,41.1,1.3,82.4,2.7,123.6c0.3,10.6,0.3,21.3,0,32c-0.2,7.3-1.4,14.5-1.9,21.8
		c-0.5,7.3-1.3,14.6-0.8,21.8c0.4,4.8,0.3,8.9-1.7,13.5c-1.1,2.6-0.9,6.6,0.2,9.4c4.8,11.6,3.8,23.3,2.7,35.4
		c-2.6,29.2-6.1,58.3-1.5,87.6C5328.6,4154.9,5330.2,4165.4,5332.2,4178.4z"/>
	<path d="M2244.8,3439.8c1.8,2.1,3.3,3,3.3,3.9c0.3,917.6,0.6,1835.2,0.8,2752.8c0,6.5-0.5,13.1-0.8,19.3c-5.2,2.2-7.1-0.3-7.9-3.5
		c-0.7-2.5-0.7-5.3-0.8-7.9c-0.1-6-0.1-12-0.1-18c0-905,0-1809.9,0-2714.9c0-8-0.2-16,0.5-24C2240.2,3445,2243,3442.6,2244.8,3439.8
		z"/>
	<path d="M5935.3,3234.8c-2.8,0.4-5.2,1.2-7.6,1.2c-5.9,0-11.8-0.4-17.6-0.6c-4.6-7.6-2.6-15.1-2.5-22.2
		c0.6-56.6,1.7-113.3,2.4-169.9c2.1-187.2,4-374.5,6.1-561.7c1.4-120.6,2.9-241.2,4.4-361.8c0.1-8,0.3-16,0.7-24
		c0.1-2.4,1.4-4.8,2.3-7.5c2.6,0.6,5.1,0.3,6.2,1.5c6.1,6,8,13.2,7.4,21.8c-9,122.4-8,245-7.3,367.7c0.7,132.6,0.3,265.2-2,397.8
		c-1.9,106.6-2.3,213.2-3.4,319.8C5924.2,3215.4,5924.8,3217.6,5935.3,3234.8z"/>
	<path d="M2368.2,1708.7c-2.5-18.5-2.3-1025.6,0.3-1043c2.4,1.5,5.2,2.3,5.9,4c6.7,16.1,9.6,32.8,9.6,50.5
		c-0.2,251.8-0.1,503.7,0,755.5c0,47.3,0.7,94.6-0.5,141.9c-0.7,26.6-4.4,53-7,79.5C2376,1701.6,2375.6,1706.6,2368.2,1708.7z"/>
	<path d="M2331.5,611c4.9,9.8,3.3,17.3,3.3,24.4c0.1,56.6,0.1,113.3,0.1,169.9c-0.1,228.6-0.1,457.1-0.2,685.7
		c0,26.7,0.8,53.3-0.5,79.9c-1.4,29.2-4.6,58.4-7.4,87.6c-0.2,2.5-3.2,4.7-6.9,9.8c-0.6-9.3-1.3-15.2-1.4-21.1
		c-1.1-98.6-2.2-197.2-3.1-295.8c-0.6-68,3.1-135.9,6.2-203.8c2.4-51.9,3-103.9,3.2-155.9c0.4-92.6-0.3-185.2-0.1-277.9
		c0-28.6,1.2-57.3,2-85.9C2326.9,623.1,2326.6,617.8,2331.5,611z"/>
	<path d="M2425.7,6018.8c-7.9,0-13.8,0-20.6,0c-0.8-3.9-1.9-7.6-2.2-11.3c-0.4-4-0.1-8-0.1-12c0-207.2-0.1-414.4-0.1-621.7
		c0-4-0.4-8.2,0.6-11.9c0.9-3.4,3.6-6.3,5.5-9.4c8.8,3.5,9.6,10,9.6,16.9c-0.1,20.7-0.2,41.3-0.3,62c-0.5,85.3-1.7,170.6-1.2,255.8
		c0.3,52.6,3.3,105.2,5,157.8c1.7,51.9,3.2,103.9,4.7,155.8C2426.7,6006,2426.1,6011.2,2425.7,6018.8z"/>
	<path d="M3499.9,2008.3c-2.5,3.3-4.3,6.8-7.1,9c-17.6,14.2-34.5,29.5-53.3,42c-29.8,20-60.9,38.1-91.5,57c-2.1,1.3-4.7,2-8.2,3.5
		c-12.3-22.5-24.2-44.4-34.4-67.2C3348.5,2025.2,3462.3,1995.6,3499.9,2008.3z"/>
	<path d="M5630.7,2230.9c-9,0-14.9,0-20.4,0c-5.2-5.5-3.5-11.8-3.5-17.6c0.5-82.5,0.9-165,1.7-247.6c0.4-47.2,1.6-94.5,1.9-141.7
		c0.1-16.4,6.6-27.7,21.2-34.2c1.2,0.5,2,0.6,2.4,1c0.4,0.4,0.6,1.2,0.6,1.9c0,11.9,0,23.9,0,36.6c-4.9,3.9-10,7.9-15.6,12.4
		c3.9,4.4,7.4,8.3,11.7,13.2C5630.7,1979,5630.7,2104,5630.7,2230.9z"/>
	<path d="M2966.5,2577.2c22.9-8.8,47.3-11.8,70.4-19.8c23.2-8,46.7-15.5,69.3-25.1c22.6-9.6,44.8-20.6,66-32.8
		c21.3-12.2,41.8-26,61.6-40.6c19.7-14.5,38.1-30.8,57-46.3c3.5,2.4,1.2,5.1,0.2,6.8c-7.1,12-13.6,24.5-22.1,35.4
		c-8.9,11.5-19,22.4-29.9,32.1c-58.8,52.1-127,84.5-205,95.3C3011.7,2585.3,2989,2585.2,2966.5,2577.2z"/>
	<path d="M2419.6,605.2c2.2,2.9,3.6,3.9,3.6,4.8c0.2,176.5,0.2,353,0.2,529.6c0,1.7-1.2,3.5-1.8,4.9c-3.8,1.1-5.3-0.7-6.4-3.4
		c-3.5-8.2-3.9-16.7-3.9-25.5c0.1-26.6-0.1-53.3-0.1-79.9c-0.1-124.6-0.1-249.1-0.2-373.7c0-12,0.2-24,0.4-36
		C2411.6,618.7,2412.9,611.8,2419.6,605.2z"/>
	<path d="M7126.4,3665.2c18.1-2.4,35.9-0.8,53.7-1.1c18-0.3,36-0.1,53.9-0.1c17.3,0,34.6,0,51.9,0c17.9,0,35.8-0.1,54.9-0.1
		c2.4-23.3,4.2-45.5,4.7-67.8c6.6-1.5,12.1-2.8,19.1-4.3c2.1,9.8,1,19,1.1,28c0.1,10-0.2,20-0.3,30c-0.1,9.2-0.1,18.5-0.2,27.6
		c-9.7,5.4-19.1,4.7-28.2,4.7c-39.9,0.1-79.9,0-119.8,0c-22,0-43.9,0.3-65.9,0.2c-5.9,0-12-0.6-17.6-2.3
		C7127,3678.1,7124.5,3672.9,7126.4,3665.2z"/>
	<path d="M2665.7,2409.7c-11.3,4.2-21.9,5.1-32.3,6.5c-13.8,1.8-27.6,4.2-41.5,6c-7.2,1-14.6,1.5-21.9,1.7
		c-7.7,0.1-15.3-2.2-18.2-9.7c-3-7.7,2-14,7.5-19.2c1.9-1.8,4-3.5,6.2-5.1c23.5-17.4,47-34.8,71.4-52.9c9,11.6,11.3,24.7,16,36.7
		C2657.5,2385.3,2661.4,2397.3,2665.7,2409.7z"/>
	<path d="M2246.1,3154.3c-4.7-2.1-5.8-6.6-6.2-11c-0.5-5.3-0.4-10.6-0.4-16c0-139.9,0-279.7,0-419.6c0-5.3-0.1-10.7,0.5-16
		c0.5-4.3,1.3-9,6.9-11.2c1,1.9,2.6,3.6,2.6,5.2c-0.1,155.1-0.3,310.3-0.6,465.4C2248.9,3152.1,2247.3,3153,2246.1,3154.3z"/>
	<path d="M2527.3,2399.4c0-12.6,0-25.2,0-37.7c-0.1-18,8.5-30.4,24.7-37.2c17.7-7.4,35.7-14.4,53.6-21.3c7.4-2.9,14.9-5.2,21.9-7.5
		c6.7,4.1,8.1,9.7,7.7,15.9c-0.4,5.8-3.9,9.8-8.4,12.9c-4.4,3-9.1,5.4-13.6,8.2c-15.1,9.6-30.5,18.7-45.2,29
		C2552.8,2372.1,2537.9,2383.1,2527.3,2399.4z"/>
	<path d="M2245.5,3403.2c-1.8-3.2-4.5-6.3-5.2-9.8c-1-5.2-0.9-10.6-0.9-15.9c-0.1-52-0.1-104,0-156c0-5.3-0.1-10.8,0.9-15.9
		c0.7-3.4,3.3-6.5,6.4-12c1.8,4.7,3.3,6.8,3.4,9.1c0.4,6,0.3,12,0.3,18c0,54,0,108,0,162c0,6.5-0.5,12.9-0.8,19.4
		C2248.3,3402.4,2246.9,3402.8,2245.5,3403.2z"/>
	<path d="M5937.3,1395.5c2.4,9.6-2.8,16.8-3.1,24.6c-0.1,3.9-1.5,8.9,0.4,11.4c6.5,8.7,4.1,16.1-1.1,23.8c-0.7,1.1-1,2.4-2.1,5.1
		c1.8,5.1,4.1,11.2,6.1,17.5c1.1,3.6-2.2,7.9-6.4,8.4c-3.7,0.5-7.1-1-7.5-4.8c-2.6-21.8-4.9-43.8-0.5-65.6c1.2-5.7,4.5-11,7.5-16.1
		C5931.6,1398.1,5934.4,1397.3,5937.3,1395.5z"/>
	<path d="M5885.9,1461.9c-7.7-1.8-10.8-7.2-11.6-13.1c-1.6-11.1-2.4-22.3-2.7-33.5c-0.2-6.7,2.5-13.1,8-17.4
		c1.9-1.5,4.5-2.1,6.8-3.2c3.2,10.7,4.9,45.2,2.9,61C5889.1,1457.9,5887,1459.9,5885.9,1461.9z"/>
	<path d="M5877.2,1567.3c-0.8-3.1-1.7-4.9-1.7-6.6c-0.1-18.5-0.1-37.1-0.1-55.2c4.5-3.2,6.7-0.5,8.6,2.1
		c10.7,14.5,11.3,30.6,7.1,47.2C5889.5,1560.8,5885.6,1565.4,5877.2,1567.3z"/>
	<path d="M5610.3,4292c-9.4-0.6-16.7-4.4-20.8-11.2c-2.9-4.7-3.3-11.2-3.6-17c-0.3-5.8,1-11.6,1.8-18.8c8.2,1,15.1,1.8,22.6,2.7
		C5612.5,4263,5612.5,4277.2,5610.3,4292z"/>
	<path d="M2382.5,1768.1c1.4,1.7,3.8,3.5,4.4,5.7c2.6,9.6,1.7,61.4-1.1,74.5c-3.5-2.1-7-3.5-9.3-6c-1.5-1.7-1.8-5-1.8-7.5
		c-0.1-18.6-0.1-37.1,0.1-55.7C2374.8,1774.3,2376.4,1770,2382.5,1768.1z"/>
	<path d="M5940.5,2061.7c-10.5-2.5-15.6-8.9-17.1-16.8c-3.4-17.6-3.1-35.4,1.7-52.9c0.1-0.3,1.2-0.4,1.8-0.6
		C5933.4,2002.9,5937.5,2023.5,5940.5,2061.7z"/>
	<path d="M5881.7,1999.8c-7.8-8.7-12-16.1-9.6-25.2c2.1-7.8,6.8-13.8,15-16.5c3.6,11.9,5.6,26.2,3.2,32.9
		C5889.3,1994,5885.3,1996.2,5881.7,1999.8z"/>
	<path d="M5887.5,1870.3c5.5,12.6,6.2,24.6,2.8,36.2c-2.4,8.2-6.2,15.6-15.4,20.6c-5.2-9.5-5.4-19.6,0.8-26.3
		C5884.1,1891.8,5886.7,1882,5887.5,1870.3z"/>
	<path d="M5923.4,1685.6c-0.6-14.4-0.4-28.7-0.1-42.9c7.4-0.5,10.8,2.8,11.4,7.8c1.6,12.8-1,24.8-8.9,35.3
		C5925.6,1686,5924.5,1685.7,5923.4,1685.6z"/>
	<path d="M5937.2,1881.4c-4.1-2-6.6-2.6-8.1-4.1c-9.1-9.9-8.3-21.7-5.2-33.5c0.5-1.8,4-3.8,6-3.7c1.8,0.1,5,2.8,5,4.5
		c0.2,5.8-1.2,11.8-1,17.6C5934.3,1867.8,5935.9,1873.4,5937.2,1881.4z"/>
	<path d="M5871.2,1803.5c11.2,3.3,17.1,8.9,19.8,17.3c2.5,7.8,1.6,15.4-6.4,22.7c-2.8-7.3-5-13.4-7.3-19.4
		C5874.9,1818.1,5873.3,1811.9,5871.2,1803.5z"/>
	<path d="M5877.6,1675.7c-3-2.2-4.5-3.3-7-5.1c1.8-9.8,8.3-17.3,12.8-25.4c2,0,3.4-0.4,4.4,0.1c1.7,0.8,3.1,2.2,5.5,4
		C5890,1659.4,5883.9,1667.4,5877.6,1675.7z"/>
	<path d="M5880.2,2002.8c7.4,8.5,9.5,17.6,14.2,25.1c-6.8,7.5-8.8,8-11.9,2.5c-2.9-5.2-5.6-10.5-7.8-16
		C5872.9,2010.1,5875.4,2007,5880.2,2002.8z"/>
	<path class="st0" d="M7857.6,25.5c7.2-0.3,13.7-0.7,20.2-0.7c5.2,0,10.3,0.7,15.3,1c1.1,2.8,2.5,4.6,2.5,6.4
		c0.2,2238.7,0.3,4477.4,0.4,6716.2c0,3.9-0.9,7.8-1.4,12.3c-12.1,3.7-23.9,1.9-36.5,1.2c-0.8-4-2.1-7.8-2.3-11.6
		c-0.4-6.6-0.1-13.3-0.1-20c0-2224.7,0-4449.5,0.1-6674.2C7855.6,46.3,7854.4,36.3,7857.6,25.5z"/>
	<path class="st0" d="M2788.1,2197.4c33.9-13.2,68.3-25.4,101.6-39.9c32.9-14.4,65.3-30.1,96.8-47.3c32.1-17.5,62.8-37.4,94.4-56.4
		c3.2,3.3-0.3,5.9-2.3,7.8c-11.1,10.6-21.7,21.8-33.8,31c-68.5,51.6-144.3,87.5-228.5,105.1c-9,1.9-18.3,2.2-27.4,3.2
		C2788.6,2199.7,2788.4,2198.6,2788.1,2197.4z"/>
	<path d="M7177.4,5870.9c-14.8-1.6-27.3-2.8-39.8-4.4c-56.1-7.3-112.2-14.8-168.4-22.1c-44.9-5.9-89.8-11.6-134.7-17.5
		c-44.9-6-89.7-12.1-134.6-18.2c-43.6-5.9-87.1-11.7-130.7-17.6c-44.9-6.1-89.7-12.3-134.6-18.3c-43.6-5.9-87.1-11.7-130.7-17.5
		c-46.9-6.3-93.7-12.5-140.6-18.7c-44.9-5.9-89.8-11.6-134.7-17.5c-46.2-6-92.4-12.2-138.6-18.2c-7.9-1-15.9-1.6-23.8-2.6
		c-5.3-0.7-10.6-1.2-15.7-2.7c-12.7-3.6-20.1-13-20.6-26.1c-0.4-14-0.4-28-0.3-42c0.1-92,0.2-183.9,0.1-275.9c0-11.5,1-22.6,6-33.1
		c0.8-1.6,2.3-2.9,3.3-4.2c4.6,0.1,3.9,3.4,4,5.7c0.3,6,0.2,12,0.2,18c0,102,0,203.9,0,305.9c0,7.3,0,14.5,0,21.3
		c3,1.6,4.7,3.2,6.5,3.4c437.4,59.4,874.9,118.7,1312.4,177.9c2.5,0.3,5.2-0.2,8.7-0.3c0.7-4.2,1.5-8,1.8-11.8c0.3-4,0.1-8,0.1-12
		c0.1-470.5,0.2-940.9,0.3-1411.4c0-8.5-0.3-17.1-0.5-26.9c-7.1-0.5-12.8-1.3-18.6-1.3c-65.3-0.2-130.6,0.2-195.9-0.7
		c-95.3-1.4-190.5-3.7-285.8-5.7c-32-0.7-63.9-1.8-95.9-2.8c-6.6-0.2-13.3-0.7-19.9-1.9c-8.7-1.6-10.5-4.8-11.6-18.2
		c2.4-0.5,4.9-1.6,7.3-1.5c212.4,5.7,424.7,11.5,636.8,17.3c5.5,8.4,3.6,16.6,3.5,24.3c-0.2,35.3-1,70.6-1.3,105.9
		c-0.9,103.9-1.6,207.9-2.6,311.8c-2.5,273.2-5.1,546.4-7.7,819.6c-0.7,73.3-1.6,146.6-2.5,219.9
		C7178.4,5856.7,7177.9,5862.6,7177.4,5870.9z"/>
	<path d="M5848.1,4351.6c-2.1,22.6-0.7,45.8-1,69c-0.2,23.3-0.1,46.7-0.1,70s0,46.7,0,70s0,46.7,0,70s0,46.7,0,70s0,46.7,0,70
		c0,24,0,48,0,72c0,23.3,0,46.7,0,70s0,46.7,0,70c0,23.3,0,46.7,0,70s0,46.7,0,70s0,46.7,0,70c0,23.2,0.2,46.5-0.2,71.7
		c-4-1.7-6.9-2-8.1-3.6c-5.7-7.6-9.1-16.2-8.5-26c0.3-4.6,0-9.3,0-14c0.2-287.3,0.3-574.5,0.5-861.8c0-7.2,0.5-14.4,0.8-22.6
		c6.3-0.8,11.4-2,16.5-2c28-0.1,56-0.4,83.9,0.2c77.3,1.7,154.5,3.9,231.8,5.8c55.3,1.4,110.6,2.1,165.9,4
		c25.9,0.9,51.8,4.2,77.7,5.5c17.9,0.8,35.9,0.6,53.8-0.3c17.4-0.9,34.7-1.3,51.7,2.3c2.8,0.6,7.2,3.6,7.1,5.3
		c-0.1,3.5-2,8.7-4.6,9.9c-5.2,2.3-11.5,3.4-17.2,3.2c-32-0.9-63.9-2.3-95.9-3.7c-44.6-1.9-89.2-4.1-133.8-6
		c-47.3-2-94.6-3.5-141.8-5.6c-44.6-1.9-89.2-4.3-133.8-6.4c-14.6-0.7-29.3-1.5-44-1.3c-7.2,0.1-14.9,0.7-21.4,3.5
		c-12.9,5.5-25.8,5.4-39.2,3.5c-11.9-1.7-23.8-3-35.7-4.3C5851.6,4349.5,5850.3,4350.6,5848.1,4351.6z"/>
</g>
</svg>
