<?xml version="1.0" encoding="utf-8"?>
<!-- Generator: Adobe Illustrator 25.4.1, SVG Export Plug-In . SVG Version: 6.00 Build 0)  -->
<svg version="1.1" id="Calque_1" xmlns="http://www.w3.org/2000/svg" xmlns:xlink="http://www.w3.org/1999/xlink" x="0px" y="0px"
	 viewBox="0 0 1200 1492" style="enable-background:new 0 0 1200 1492;" xml:space="preserve">
<style type="text/css">
	.st0{fill:#FFFFFF;}
</style>
<g>
	<path d="M206,1492c1.2-7.7-1.4-14.5-5.4-20.6c-9.5-14.8-15.7-30.9-21.5-47.3c-5-14.3-10-28.7-15.1-43c-0.7-2-1.7-3.9-3.1-5.5
		c-5.7-6.5-11.4-13-17.3-19.2c-4.3-4.5-5.1-9.8-5.5-15.5c-0.2-3.1-0.5-6.2-1.1-9.2c-1.8-9-5.1-18-5.4-27.1
		c-0.2-8.1,1.9-16.5,4.5-24.3c3.6-10.4,8.9-20.3,13.2-30.5c1.4-3.3,1.6-7.1,2.8-10.5c0.7-2,1.9-4,3.5-5.3
		c11.7-9,25.7-13.2,39.1-18.8c3.8-1.6,7.4-3.6,11.4-5.6c0-151.9,0-303.8,0-456.3c102,0,203.8,0,306.2,0c-1.4-4.1-1.7-7.3-6.7-8.4
		c-11-2.5-19.2-10-27-17.8c-11.9-11.9-17.3-27.2-23.7-42.2c-13.7-31.7-31-61-56.5-84.8c-14.6-13.5-31.2-24.2-47.9-34.7
		c-24.6-15.5-48.6-31.8-69.8-52c-28.6-27.2-49.1-59.5-61.8-96.7c-5.9-17.4-11.8-34.9-16.1-52.7c-5.6-23-7.5-46.6-6.8-70.3
		c0-0.4,0.3-0.9,0.9-2.1c1.2,1.1,2.5,1.8,3,2.9c17.1,32.1,38.1,61.4,61.3,89.3c10.5,12.6,21.5,24.8,32.1,37.4
		c2.9,3.4,4.9,7.5,7.4,11.2c7.4,10.5,16.3,20.4,29.1,22.6c11.6,1.9,24.4,3.5,35.1-4.4c8.4-6.1,10.2-23.4,4.2-31.9
		c-2.5-3.4-3.9-7.6-6.2-11.2c-1.5-2.4-3.3-5-5.6-6.7c-18.8-14.7-38.4-28.6-56.5-44.1c-15.4-13.1-29.3-28.1-43.8-42.3
		c-0.7-0.7-1-1.7-1.5-2.6c-0.6,0.5-1.1,1-1.7,1.5c7.6,8.5,14.9,17.3,22.9,25.5c8.3,8.4,17.1,16.4,25.8,24.3c8.5,7.8,17.3,15.3,26,23
		c-1,1-1.4,1.7-1.6,1.7c-5.9-1.9-13.3-2.2-17.3-6c-22.3-21.6-44.6-43.3-65.4-66.3c-25.7-28.5-48.9-59.1-67.4-93.1
		c-8.6-15.8-14.9-32.4-14.4-50.7c0.2-6,1.7-12.3,4.2-17.7c4.2-9.3,11.8-12.2,21-8c5.4,2.5,10,7,14.8,10.8c0.7,0.6,0.6,2.3,0.9,3.5
		c-0.3,0.3-0.7,0.6-1,0.9c-2.1-1.4-4.3-2.7-6.2-4.3c-12.4-10.4-20.8-6.6-22.9,8.2c-1.4,9.7,0.5,18.9,4.4,27.2
		c7.1,15.1,15.8,29.5,23.8,44.2c0.3,0.5,1,0.6,1.6,1c2.3-8.5,4.3-16.8,6.7-25c7.6-26.1,19.8-50,36.1-71.5
		c12.4-16.4,25.3-32.6,39.6-47.3c17.1-17.6,35.6-34,56.6-47c16.7-10.3,34.4-18.6,53.3-24.2c12.5-3.7,25-8,37.8-10.3
		c15.2-2.7,30.6-4.1,46-4.7c18.9-0.8,37.9-0.4,56.8,2.3c5.2,0.7,11-1.8,16.3-3.4C569.1,1,586.1-1.4,603.2,4
		c4.3,1.4,8.3,3.7,12.4,5.5c-0.1,0.6-0.3,1.2-0.4,1.9c-1.2,0-2.5,0.3-3.7,0c-23-6.1-44.9-3.3-65.5,8.3
		c-11.9,6.7-21.1,16.5-28.9,27.8c-9.5,13.9-13.8,29.6-14.3,46c-0.6,20.3,6.7,38.5,19.8,54c15.7,18.5,36.4,28.5,60.2,32.1
		c15.4,2.4,29.8-1.8,43.3-8.7c17.7-9,31.9-22.1,41-40.1c15-29.4,9.4-57.1-7.5-83.8c-1-1.6-2-3.3-3-4.9c0.3-0.4,0.5-0.8,0.8-1.1
		c1,0.4,2.4,0.4,2.9,1.1c4.7,6.2,9,12.6,13.7,18.8c4.2,5.5,7.8,11.7,13,16.1c17.9,15.4,33.6,32.6,46.7,52.2
		c18.9,28,32.9,58.5,43.4,90.4c9.2,28.2,13.7,57.5,10.9,87.4c-1.5,15.5-3.1,31.1-5.5,46.5c-1.6,10.3-4.6,20.3-7.1,30.4
		c-0.9,3.5-0.5,5.9,2.4,8.8c5.8,5.6,11.2,11.7,16.2,18.2c2.3,3.1,3.2,7.3,3.8,11.6c-18.4-23.7-43.6-36.5-71.2-47
		c-0.6,4.9-1.3,9.1-1.6,13.3c-0.1,0.9,1,2.2,1.9,2.7c6,3.3,12.1,6.5,18.6,9.2c-3.2-3.1-6.5-6.2-9.7-9.3c0.2-0.4,0.3-0.8,0.5-1.2
		c1.1,0.1,2.5-0.2,3.3,0.4c5,3.5,10.4,6.7,14.6,11.1c2.3,2.4,3.8,7,3.3,10.2c-0.3,2.1-4.9,4.8-7.6,4.9c-13.2,0.8-26.6,1.5-39.8,0.8
		c-14.1-0.7-28.1-2.8-42.1-4.7c-15.1-2-30.3-4.3-45.3-6.9c-18.3-3.2-36.6-6.4-54.8-10.3c-28-6.1-56-12.8-81.8-25.7
		c-9.1-4.6-17.5-10.7-25.9-16.6c-3.1-2.1-6.1-5.4-4.5-9.7c1.7-4.5,6-5.9,10.5-6.5c1.7-0.2,3.5,0,5.3,0c0.1,0.5,0.3,0.9,0.4,1.4
		c-3.5,1.9-7.1,3.8-11.4,6.1c9.6-2.3,18-4.3,26.4-6.2c0.5-0.1,1.3,0,1.4-0.2c3.5-7.5,10.5-3.3,15.7-4.9c1.4-0.4,2.7-1.2,4.1-1.8
		c-1.4-0.8-2.7-2.3-4.2-2.4c-22.2-2-44.2-0.5-65.6,6.4c-4.6,1.5-9.1,4.2-13,7.2c-8.6,6.8-8.4,18.2-0.2,27.7
		c9.4,10.9,21.5,18.2,34.1,24.6c28.7,14.6,58.9,25,90.1,32.3c19.7,4.6,39.5,9.3,59.4,12.4c21.6,3.4,43.5,5.6,65.4,7.2
		c20.9,1.5,41.9,2.1,62.8,2.2c14.4,0.1,28.9-1.1,42.6-6.6c1.1-0.4,2.5-0.3,3.7-0.4c0.3,0.4,0.5,0.9,0.8,1.3c-2.1,1.6-4,3.5-6.3,4.7
		c-4.3,2.2-8.6,4.3-13.2,5.9c-2.9,1-3.5,2.5-3.5,5.1c-0.3,21,1.7,41.9,7.5,62.1c5.3,18.4,12,36.5,17.5,54.8
		c5,16.4,4.9,33.1-0.1,49.6c-1.1,3.6-3,7.1-5.1,10.1c-1.6,2.3-2.1,3.9-1.4,6.7c2.6,9.5,2.8,19-1.3,28.3c-1.2,2.7-1.2,5,1.5,7
		c7.1,5.2,9,12.2,5.7,20.2c-1.4,3.5,0.8,5,2.6,6.8c4.5,4.4,8.6,9,9,15.6c0.2,3.2,0.2,6.6-0.6,9.7c-1.5,5.7-0.5,8.7,4.3,12.6
		c2.8,2.3,5.6,4.8,7.5,7.8c1.6,2.7,3.5,2.9,6.1,2.9c36,0,72,0,108,0c24,0,48,0,72.6,0c0,246.5,0,492.8,0,739
		C732,1492,469,1492,206,1492z M833.9,1108.8c4.1,5.1,8.8,9.8,12,15.3c3.7,6.5,6,13.9,9.2,20.8c1.5,3.2,3.3,6.4,5.8,8.8
		c5.4,5.1,8.3,11.8,8.8,18.4c1,12.3,0.8,24.8-5.1,36.3c-0.5,0.9-0.9,1.9-0.9,2.8c0.1,3.1-0.7,6.8,0.8,9c3.5,5.1,2.5,10.3,1.3,15.4
		c-1,4.1-3.2,7.9-5.3,11.6c-11.6,21.5-24.6,42-40.3,60.7c-13.5,16.1-27.1,32.1-40.6,48.2c-4.7,5.6-9.6,11-13.7,17
		c-7.2,10.7-13.7,21.9-20.9,32.6c-4.4,6.5-9.5,12.5-14.4,18.7c-4.5,5.7-9.1,11.2-13.6,16.9c-1.2,1.6-2.6,3.5-2.7,5.4
		c-0.2,4.4,0.5,8.9,0.4,13.3c0,1.4-1.6,2.7-2.5,4.1c-0.6,0.9-1.9,2.1-1.7,2.7c0.3,0.9,1.7,1.9,2.7,2c5.9,0.8,11.8,1.4,17.7,2.1
		c5.4,0.6,10.6,2.3,13.4,7.2c2,3.3,4.3,3.9,7.7,3.9c75.7-0.1,151.3-0.1,227-0.1c1.8,0,3.6,0,5.5,0c0-239.9,0-479.3,0-718.8
		c-58.6,0-116.9,0-175.1,0c-2.9,6-3,6,0.8,11.5c1.4,2,3.2,3.9,4.7,5.9c4.5,6,4.8,13.2,1,19.6c-1.5,2.6-3.2,5-4.3,7.8
		c-2.3,6-3.7,12.4-6.3,18.3c-10.6,23.9-23.7,46.2-39.8,66.9c-2.8,3.6-6.5,7.4-7.5,11.6c-2.2,9.9-8.9,14.9-17.2,18.4
		c-8.9,3.7-17.9,7-27,10c-8.4,2.8-16.9,4.1-24.3-3.1c-1.4-1.3-3.9-1.8-6-2.1c-15.1-2.2-30.3-4.1-45.4-6.3
		c-14.6-2.2-29.6-3.7-39.3-17.3c-0.3-0.4-0.7-0.7-1.2-0.9c-9.6-3.3-13.5-10.1-12.7-20c0-0.4-0.4-0.9-0.7-1.4
		c-6.7-0.1-13.5-1.9-15.2-8.8c-1.4-5.9,0-12.5,0.1-19.3c-19.3-4.6-19.6-18.4-14.1-34.6c-18.4-2.5-19.4-13.8-14.2-28
		c-1.9-0.2-2.9-0.3-3.8-0.4c-11-0.5-18.6-9.5-17.2-20.4c0.8-5.7-1-7.7-6.7-7.7c-97.2,0-194.3,0-291.5,0c-1.9,0-3.8,0-5.7,0
		c0,147.3,0,293.9,0,441c2.3-1.1,4.3-1.8,6.1-2.9c13.1-7.7,26.1-15.6,39.2-23.2c10.6-6.1,21.5-11.3,34.3-10
		c7.1,0.7,14.2,1.3,21.3,2.1c5.9,0.7,11,0.4,15.4-4.9c5.8-7,14.2-10.2,22.9-12.3c4.3-1,8.8-1.8,13.2-1.7c5.9,0.2,11.8,0.9,17.5,2.2
		c3.4,0.8,6.3,3.2,8.4,4.3c4.1,2.8,7.3,6.8,10.6,6.9c11.4,0.6,22.9,0,34.3-0.5c6.9-0.3,13.8-1.3,21.3-2c4.6-6.7,4.5-8.5-0.3-16
		c-2.4-3.7-4.3-7.7-6.7-11.4c-4.5-7-0.7-14.3,5.8-17.7c6.1-3.2,12.6-3.2,19.1-4c5.8-0.8,11.7-1.8,17.2-3.6
		c5.6-1.8,10.7-4.8,16.2-6.9c7.2-2.8,11.5-8.7,12-16.4c0.1-2,0.9-4.3,2.2-5.7c3.2-3.4,6.6-6.7,10.4-9.6c6.5-4.9,13.3-9.3,19.8-14.2
		c4.7-3.5,9.1-7.4,13.5-11.2c7.3-6.4,16.9-11.5,15.2-23.8c0-0.1,0.1-0.3,0.2-0.5c7.3-13.7,12-30.1,32-30.5c1,0,1.9-0.7,2.8-0.9
		c4.9-0.9,9.7-2.4,14.6-2.6c4.9-0.1,9.8,1.4,14.8,1.6c21.8,0.7,42.5,5.4,62.1,15.2c6.4,3.2,13.1,5.5,19.7,8.3c7.3,3,14.5,6.1,23,9.7
		c-7.7,4-14,7.6-20.5,10.8c-24.7,12-46.5,28.1-66.1,47.2c-10.2,9.9-20,20.1-28.2,31.8c-2.7,3.9-5,9.6-12.1,8.4
		c-9.7-1.7-19.1,0.2-28.4,3c-21,6.2-36.9,19.2-46.9,38.4c-11.4,22-12.6,45-3.2,68.3c8.5,21.2,23.8,35.4,44.6,43.9
		c12.8,5.2,26.3,7,39.8,4.9c20.2-3.1,37.9-11.9,51-28.3c11.5-14.4,19-30.5,19.7-49.1c0.5-13.3,0.4-26.7,0-40
		c-0.2-5.9,1.3-10.6,5.2-14.8c0.9-0.9,1.6-2.1,2.3-3.2c9.5-15.5,22.2-27.9,36.6-38.8c7.6-5.7,14.8-11.9,22.6-17.4
		c7-5,14.3-9.8,21.8-14c4.7-2.7,11.1-4.3,15.2-0.6c6.2,5.6,11.2,12.7,16.2,19.5c3.2,4.4,5.6,9.4,8.3,14.1
		C832.6,1106.9,833.3,1107.8,833.9,1108.8z M531.6,17.7c-5.7-0.8-10.9-2-16-2.1c-13.8-0.2-27.6-0.5-41.3,0.3
		c-14.1,0.8-28.4,1.6-42,4.7c-17.4,4-34.4,9.7-51.3,15.8c-10.4,3.7-20.6,8.5-30,14.3c-10.4,6.4-20,14-29.4,21.8
		c-11,9.1-21.9,18.3-31.8,28.5c-18.3,18.9-34.9,39.4-48.4,62.1c-4.6,7.8-9,15.9-13,24.1c-7.3,14.9-11.9,30.6-15.8,46.7
		c-1.1,4.3-3.5,8-7.8,8.7c-5.2,0.8-4,2.8-2,5.5c10.8,14.5,21.5,29.1,32.6,43.4c3.3,4.3,6.4,9.6,13.8,8.3c2.3-0.4,5.4,1.7,7.5,3.4
		c3.9,3.2,7.4,7,10.9,10.7c4.1,4.3,7.8,9,12.1,13c7.5,7,15.3,13.7,23.2,20.3c15.7,13,31,26.5,47.4,38.6c9.9,7.3,19.3,14,24.7,25.7
		c3.3,7.1,6.3,13.8,5.7,21.7c-1.1,15.2-8.3,28-24.3,29.3c-3.1,0.3-6.2,1-9.4,1.1c-9.3,0.3-18.7,1-27.4-3.4
		c-9.5-4.8-17.1-12-23.7-20.2c-13.5-16.8-27.1-33.5-40.5-50.4c-9.7-12.2-19.3-24.4-28.6-36.9c-5-6.8-9.2-14.1-13.9-21.1
		c-1.9-2.8-4-5.3-6.9-9.1c0,3.6-0.3,5.9,0.1,8c2.2,12.9,4,25.9,6.9,38.6c5.8,25.2,14.2,49.7,25.5,72.8
		c12.5,25.4,28.9,48.6,50.3,67.3c13.8,12.1,28.5,23.4,43.5,34c18.5,13.1,38.3,24.6,56.7,38c28,20.3,48,47.6,63.3,78.2
		c7,13.9,12.6,28.6,19.4,42.6c6.6,13.6,16.3,24.6,29.7,32c6.1,3.4,12.2,6.6,18.5,10c3.8-1.6,8.5-3.8,13.4-5.6c2.3-0.8,5-0.6,7.3-1.3
		c20.2-6.2,40.4-12.1,60.3-18.9c19.9-6.8,39.7-14.1,59.1-22.3c13.6-5.7,27.1-11.5,41.4-15.3c9.8-2.6,16.5-0.9,19.1,12.8
		c0.6,3.1,0.6,6.4,0.9,10.6c10.1-4.8,19.6-9.4,27.7-16.3c1.1-1,1.1-4.2,0.5-6.2c-1.5-5-4.4-9.8-5-14.8c-0.5-3.5,0.7-8.5,3.1-10.8
		c5.6-5.4,11.6-11,20.6-10.1c1,0.1,3.3-1.7,3.2-2.4c-0.8-7,3-12.4,5.6-18.3c2.3-5.3,3.7-10.7,3.2-17.4c-1.9,1.2-3,1.8-4,2.6
		c-5,3.9-9.7,8-14.8,11.6c-6.7,4.8-14.1,4.4-19.9-1.3c-5.8-5.8-11.1-12.1-16.8-18c-2.1-2.2-4.5-2.9-7.5-1c-2.4,1.6-5.3,2.8-8.2,3.2
		c-9.7,1.4-19.2,2.9-28.9-1.3c-4.1-1.8-6.6-3.6-7.3-7.6c-1.1-6.2-2.7-12.4-0.2-18.7c0.6-1.5,0.2-3.3,0.6-4.9
		c0.9-4.1,2.2-8.1,2.9-12.2c0.3-1.8,0.3-4.5-0.7-5.5c-5.6-5.1-11.5-9.9-17.6-14.4c-8.5-6.4-9.7-15.8-1.8-22.7
		c4.6-4,10.1-6.9,15.2-10.1c8.8-5.6,16.1-4.6,22.8,3.4c5,6,9.4,12.5,14.1,18.7c1.4,1.8,2.6,3.7,5.7,2.2c9.6-4.7,18.4-3,26.3,3.9
		c8.4,7.4,15.6,19.2,9.8,31.3c-1.4,2.9-0.7,4.7,1.8,6.3c7.3,4.6,14.5,9.3,21.8,14c2,1.3,3.9,2.5,5.9,3.7c0.4-0.3,0.7-0.5,1.1-0.8
		c-0.6-3.2-0.8-6.5-1.8-9.6c-4.9-15-10.5-29.8-15-44.9c-7-23.7-11.3-47.9-10.4-72.8c0.2-5.6-0.6-6.2-6.1-6.2
		c-18.6,0-37.3-0.3-55.9-0.2c-2.5,0-5,1.7-7.3,3c-1.5,0.9-2.6,2.6-4,3.7c-10,8-21.6,12.9-33.7,16.7c-17.5,5.5-35.4,6.5-53.3,3.1
		c-22.4-4.2-42.1-14.6-58.5-30.3c-5.8-5.5-11.2-12-14.7-19.1c-2.1-4.4-4.2-7-8.4-8.5c-9.1-3.2-18.2-6.2-27.1-9.9
		c-10.2-4.2-20.3-8.8-30.2-13.8c-13.4-6.7-26-14.8-35.6-26.6c-11-13.6-9.4-32.7,6.5-42.1c8.8-5.3,18.3-7.8,28-9.7
		c16.8-3.3,33.7-3.3,50.7-1.9c3.9,0.3,6.2-1.3,7.6-4.4c8.4-17.9,21.4-31.8,37-43.6c14.9-11.3,31.6-18.8,50.1-20.8
		c35.9-4,68.1,4.9,95,30.1c9.3,8.7,16.7,18.9,22.6,30c8.6,16.2,12.7,33.8,13.1,52.2c0.1,3.2,1.4,4.2,4.1,5.1
		c5.6,1.9,11.2,4.2,16.6,6.5c5.6,2.4,11,5.2,16.8,7.9c19-65.6,19.6-129.6-8.8-192.6c-17.9-39.6-39.3-76.6-73.7-105.4
		c0.1,52.5-26.2,84.8-74.5,99.4c-34.6,10.5-77.3-9.6-95.3-35.2C480.5,102,491.3,58.1,531.6,17.7z M706.9,411.4
		c4,2.8,5.7,1.2,7.1-2.2c5.3-12.6,7.6-26.1,7.5-39.5c-0.3-41.1-16.6-73.9-52.6-95.8c-20.5-12.4-42.9-17.2-66.2-14.3
		c-40.6,5.1-68.5,28.5-86.5,64.5c-6.6,13.3-9.2,27.7-10.2,42.4c-0.2,3.1,0.4,5.6,3.8,6.6c14.6,4.5,29.1,9.2,43.8,13.6
		c1,0.3,3.4-0.7,3.5-1.4c0.9-4.8,3.9-3.5,6.8-2.8c2.5,0.6,5,1.1,7.5,1.6c0.2-0.6,0.3-1.3,0.5-1.9c-1.2-0.5-2.5-1.1-3.7-1.6
		c-8.4-3.5-17.4-6-25-10.8c-7.9-4.9-14.6-11.9-21.5-18.3c-2.2-2.1-3.7-5.1-4.9-8c-0.8-1.9-0.5-4.2-0.7-6.3
		c6.2,6.5,10.8,13.8,19.8,16c0.6,0.1,1,0.8,1.6,1.2c6.2,3.4,12.4,6.8,18.6,10c4.2,2.2,6.9,1.1,7.7-4c0.5-2.8,1.6-5.2,5.7-4.3
		c12,2.7,24.1,4.9,36.1,7.2c1.6,0.3,3.2,0,4.9,0c0.1-0.4,0.1-0.9,0.2-1.3c-0.9-0.5-1.8-1.3-2.8-1.5c-13.3-3.1-26.6-5.8-39.8-9.2
		c-15.2-3.9-26.2-14.5-36.6-25.4c-2.2-2.3-2.8-6.3-3.8-9.6c-0.3-0.9,0.4-2.2,0.6-3.3c1.7,1.5,2.2,3.1,3,4.4c2.5,3.7,4.6,8,8,10.6
		c5.6,4.4,11.7,8.2,18.2,11.1c5.8,2.6,12.2,3.8,18.4,5.5c2.2,0.6,4.6,0.4,6.9,0.8c16.2,2.9,31.2,10.3,47.8,12
		c10,1,19.9,3.5,29.9,5.2c2,0.4,4,0.5,6,0.8c0,0.7,0,1.3-0.1,2c-11.3,0-22.6,0-33.9,0c0,0.7-0.1,1.4-0.1,2.1
		c1.6,0.3,3.3,0.9,4.9,0.9c14.8,0.1,29.6,0.2,44.4,0c5.1-0.1,10.3-0.7,15.3-1.7c2.6-0.5,4.8-2.6,7.2-4c-0.3-0.7-0.6-1.4-0.9-2.1
		c-3.9,1-7.8,1.9-11.8,2.9c5.9-7,14.7-6,22.6-9.4c0.3,3.1,0.8,5.7,0.9,8.3c0.5,9.4-0.6,11.1-9.1,14.9c-2.3,1-4.7,1.9-6.6,3.5
		c-7.9,6.6-17.6,6.8-26,3.8c-6-2.1-11.8-3.5-18-4.6c-18.9-3.1-37.7-6.5-56.5-9.8c-4.8-0.8-9.6-1.5-14.4-2.2
		c-0.1,0.4-0.3,0.9-0.4,1.3c1.7,0.8,3.2,1.9,5,2.3c9.2,2.1,18.5,4.1,27.7,6c14.1,3,28.5,4.6,42.1,10.1c7.1,2.9,14.4,6.6,22.9,5.2
		c9.7-1.5,19.6-2.1,29.8-3.1c1.2,2.5,0.7,5.6-2.3,7c-3.5,1.7-7.5,3-11.3,3.2c-10.8,0.5-21.6,0.3-32.4,0.5c-0.5,0-1.1,0.4-1.6,0.7
		c0,0.4,0,0.9,0.1,1.3c14.6,3.6,29.7,1.8,44.8,2.8C708.1,408,707.5,409.5,706.9,411.4z M570,752.9c0.2,0.5,0.4,1,0.6,1.5
		c1.4,0,2.9,0.3,4.3,0c11.5-2.8,22.9-5.7,34.3-8.5c5.9-1.4,11.9-2.6,17.8-3.8c0.3,0.8,0.6,1.5,0.9,2.3c-1.5,1-2.8,2.6-4.4,3
		c-18.2,5.3-36.4,10.4-54.6,15.5c-3.8,1.1-4.8-1.6-6.1-4.3c-0.7-1.6-2.3-4.1-3.3-4c-8.2,0.7-16.3,2-23.3,6.8
		c-4.1,2.8-6,8.5-4.1,12.3c2.2,4.3,6.1,5.3,10.6,4.5c4.2-0.8,8.6-1.4,12.6-2.8c37.5-12.6,75.6-23.6,111.9-39.6
		c1.3-0.6,2.8-0.6,4.2-0.8c-0.4,1.9-1,2.8-1.9,3.3c-19.8,10.2-39.3,21.1-59.6,30.3c-15.7,7.1-32.3,12.2-48.5,18.3
		c-2.7,1-5,3-7.5,4.6c0.3,0.6,0.6,1.2,0.8,1.8c1.9-0.2,3.7-0.4,5.6-0.7c11.6-1.5,22.3-6.6,33.8-9.1c24.6-5.5,47.8-15.3,70.4-26.3
		c3.5-1.7,7.2-2.8,10.8-4.2c0.4,0.6,0.7,1.3,1.1,1.9c-1.8,1.7-3.4,3.8-5.5,5c-6.7,3.7-13.6,7.1-20.5,10.4
		c-19.1,9.3-38.9,16.4-59.8,20.3c-1.7,0.3-4.5,1-5.2,0.1c-2.3-2.6-4-0.8-6.1-0.1c-7.3,2.5-14.8,4.6-22.2,7c-1.9,0.6-4.6,1.6-5.1,3
		c-1.1,3.2,1.1,5.3,4.3,6.1c1.8,0.4,3.6,0.4,5.5,0.5c14.7,0.5,28.6-3.6,41.5-9.7c31.3-14.8,62.1-30.4,93-46.1
		c5.5-2.8,10.2-7.4,14.6-11.8c4.7-4.8,4.5-7.4,0.1-12.5c-3-3.6-2.1-4.9,1.8-6.7c11.3-5.3,22.5-10.8,33.5-16.6
		c7.3-3.9,13.2-1.7,15.4,6.4c0.4,1.3,1,2.5,1.6,3.7c0.6,0.1,1.2,0.2,1.7,0.3c3-5.5,6.1-10.8,8.9-16.4c2.3-4.8,0.7-9-2.6-12.9
		c-1.7-2.1-3.2-2.5-5.4-0.5c-19.3,17.3-43,26.9-65.9,38.1c-1,0.5-2.2,0.4-3.4,0.5c-0.2-0.4-0.5-0.9-0.7-1.3
		c6.6-4.6,14.1-8.3,16.7-16.7c3.2-10,1.3-17.8-6.2-21.8c1.1,3.5,2.5,6.3,2.8,9.2c0.4,3.2,0.2,6.7-0.4,9.9c-0.5,2.7-2,5.2-3,7.8
		c-0.5-0.2-1.1-0.4-1.6-0.6c0.2-1.3,0.6-2.5,0.5-3.8c-0.4-5.2-0.7-10.5-1.6-15.6c-0.2-1.1-2.4-1.9-3.7-2.8c-0.3,1.4-0.8,2.8-0.7,4.2
		c0.1,1.5,1,2.9,1,4.3c0,2.6-0.4,5.2-0.7,7.7c-0.7,0-1.3,0-2,0c-0.8-3.1-1.7-6.1-2.3-9.3c-0.8-3.8-2.4-4.3-6-2.8
		c-18.8,8.1-37.4,16.7-56.7,23.6c-27.7,10-55.8,18.9-83.8,27.8c-7,2.2-14.6,2.7-21.9,4c1,9.4,3.7,11.2,11.8,7.7
		c1.2-0.5,2.5-1,3.7-1.4c8-2.2,16.1-3.8,23.9-6.6c18.6-6.8,36.9-14.3,55.4-21.4c2.1-0.8,4.6-0.7,6.8-1c0.3,0.9,0.6,1.7,0.9,2.6
		C611,739,590,744.9,570,752.9z M777.9,709.5c-5.2,3.8-9.9,7.9-15.2,11c-17.3,10.2-34.8,20.4-52.4,30
		c-27.6,15.1-55.3,29.9-83.1,44.7c-17.9,9.6-36.1,18.7-56.3,22.6c-1.2,0.2-2.5,1.1-3.3,2.1c-3.5,4.5-3.4,9.5-1.5,14.6
		c1.9,4.8,5.7,6.6,10.3,6.1c9-1,18.5-1.2,26.9-4.2c18-6.4,35.4-14.5,53-21.8c1.5-0.6,3.2-1.1,4.7-1.7c0.2,0.4,0.5,0.9,0.7,1.3
		c-1,0.9-1.9,1.9-3.1,2.6c-5.1,3.2-10.1,6.5-15.3,9.4c-19.5,10.7-38.4,22.8-60.8,27.1c-3.2,0.6-5.5,3-4.9,6.5c0.6,3.4,3.3,4.6,6.4,4
		c9.8-1.7,19.5-3.6,29.3-5.5c1.6-0.3,3.2-0.7,4.8-1c0.2,0.6,0.4,1.2,0.6,1.8c-6.5,2.7-13,5.4-19.6,8.1c1,0.9,1.8,1,2.4,0.8
		c7.1-2.3,14.5-4,21.3-7c31.1-13.9,62.2-28.1,93.1-42.5c5.1-2.4,9.5-6.7,14-10.3c3.4-2.8,4-6.8,3.5-10.9c-0.8-5.4-2.4-6.1-7.2-3.4
		c-2.8,1.6-5.9,2.9-8.8,4.3c-0.4-0.7-0.8-1.4-1.2-2.1c3.6-2.4,7-5,10.7-7.3c10.1-6.4,20.3-12.7,30.4-19.1c2-1.3,3.6-3.2,5.3-4.9
		c-0.4-0.5-0.8-1-1.2-1.4c-26.8,16.5-53.6,32.8-83.9,42.8c0.7-1.6,1.6-2.9,2.9-3.6c11.8-7.1,23.7-14.2,35.6-21.2
		c7.9-4.6,10.5-12.2,11.3-20.6c0.4-4.4-1.4-5.5-5.8-4c-3.5,1.2-6.9,2.5-10.4,3.6c-3.5,1.2-7,2.2-10.5,3.3c-0.3-0.6-0.6-1.2-0.9-1.8
		c4.2-2.4,8.3-4.9,12.5-7.2c16.1-8.8,32.3-17.3,48.2-26.4c4-2.3,5.8-1.5,7,2.3c0.8,2.7,1.1,5.5,1.5,8.3c0.2,1.5,0.2,3.1,0.3,4.6
		c0.4,0.2,0.9,0.3,1.3,0.5c2.9-3.6,5.9-7,8.6-10.7C785.3,725.3,784.7,716.9,777.9,709.5z M368.7,1348.4c-0.7,5.2,3.6,8.3,9.6,6
		c9.1-3.5,16.1-2.4,20.7,6.8c0.2,0.4,0.6,0.8,1,1.1c2.8,3.3,6,4.3,10.2,2.5c3.5-1.5,7.4-2.1,10.9-3.6c7.4-3.2,13.8-1.3,20.1,3.2
		c12.9,9.1,26,17.9,38.9,26.9c3,2.1,4.7,1.6,5.3-2.3c1.4-8.5,3.4-16.9,4.6-25.5c1.4-9.4,1.7-18.6-5.6-26.4
		c-8-8.6-17.2-15.5-27.9-20.3c-10.7-4.9-22-8.5-32.5-13.8c-9.6-4.8-18.3-11.1-18.3-23.8c0-3-5.1-7-7.8-6.1c-5.5,1.8-11.1,3.6-14.3,9
		c-5.2,8.8-12.4,15.5-20.6,21.4c-3.2,2.3-3,4.7,0.6,6.1c3.5,1.3,5,3.7,5.5,7c0.4,3,1.1,5.9,1,8.9
		C369.8,1333.3,369.2,1340.8,368.7,1348.4z M798.9,778.2c-10.8,6.6-21.2,13.6-32.3,19.6c-25.3,13.8-51,26.7-76.2,40.7
		c-29.4,16.4-59.5,31.1-91.6,41.5c-4.2,1.3-3.7,3.6-2.2,6.4c2.7,5,8.9,8.3,14.9,6.8c7.9-2,15.7-4.3,23.2-7.5
		c23.7-10,47.3-20.4,70.9-30.8c10.6-4.7,21.7-8.6,30.7-16.4c4.3-3.7,5.9-7.7,4.4-13.2c-2-7.5-1.8-7.5,5-10.9c1.3-0.7,2.7-1.3,4-2.1
		c11.9-7.3,23.8-14.7,35.7-21.9c1.6-1,3.4-1.6,5.1-2.4c0.5,0.7,1,1.3,1.5,2c-1.9,1.5-3.9,2.9-5.8,4.5c-1.1,1-2.6,2.3-2.6,3.4
		c0.3,4.5,1.1,9,1.7,13.4c2.2-0.4,4.2-0.7,6.3-1.1c0.3,0.6,0.5,1.2,0.8,1.9c-25.5,20.9-53.7,37.7-82.9,52.7
		c-29.3,15.2-60.1,27.4-92.2,37.5c3.5,4.1,7.4,6.6,12.1,5.4c15.1-3.8,30.3-7.7,45.2-12.3c6.4-2,12.3-5.2,17.6-10.2
		c4.2-4,10.9-5.2,16.4-7.9c10.2-4.9,20.2-9.9,30.4-14.7c1.4-0.6,3.2-0.3,4.9-0.3c-0.4,1.8-0.3,4.5-1.5,5.3
		c-4.1,3.1-8.4,6.1-13.1,8.2c-16.5,7.4-33.2,14.5-49.9,21.6c-5.3,2.2-10.6,4.2-16,6.3c1.1,0.9,2.1,1.1,2.9,0.9
		c16.6-5.3,33.6-9.8,49.8-16.2c10.2-4,19.9-10.1,28.8-16.6c9.3-6.9,9.6-11.5,5.4-22.2c-0.5-1.2,0-3.7,0.9-4.4
		c9.2-6.6,18.4-13.1,27.9-19.4c0.9-0.6,4,0.2,4.6,1.3c1.1,1.9,1.3,4.4,1.4,6.7c0,2.9-0.5,5.7-0.8,8.6c1.6-0.6,2.4-1.5,2.9-2.6
		c3.6-7.7,7.2-15.4,10.5-23.2c0.8-2,0.5-4.5,0.8-6.8C811.6,797.5,805.6,788.4,798.9,778.2z M655.6,526.8
		c10.1,8.4,18.7,15.4,27.1,22.6c3.2,2.8,5.9,3.7,9.6,0.8c1.1-0.9,3.6,0,5.5,0.1c-0.7,1.7-1,3.9-2.3,5c-3.6,3.2-7.7,5.8-11.3,9
		c-1.7,1.5-3.9,4.4-3.4,5.7c1.1,3,1.3,6.9,6.4,7.6c7.1,0.9,11.7,6.4,11.5,12.3c0,1.4-1.1,2.8-1.7,4.2c-1.2-0.8-2.5-1.4-3.5-2.4
		c-3.4-3.1-6.6-6.4-10.2-9.3c-1-0.8-3-0.2-4.5-0.3c0.1,1.5-0.3,3.5,0.5,4.4c2.8,3.3,3.8,6.5,0,10.5c4.8-3.8,8.3-1.6,11.8,1.2
		c2.7,2.1,5.5,1.6,7-1.6c1.8-3.8,3.8-3,6.1-0.8c3,2.8,5.5,2.1,8.1-0.6c3.8-4,7.5-8.1,11.6-11.7c1.1-1,3.6-0.6,5.5-0.8
		c-0.1,1.7,0.5,4.3-0.4,5.1c-3.5,3.1-2,5.4,0.4,8c5.3,5.7,10.6,11.5,15.8,17.3c5.5,6.1,5.7,6.2,12.5,1.1c2.1-1.6,4.2-3.2,6.3-4.9
		c3.8-3.1,7.5-6.3,11.8-9.8c-2.3-1.9-3.7-3.3-5.4-4.3c-7.9-5.2-16-10.2-23.8-15.6c-3.2-2.2-5.9-2.7-8.6,0.5
		c-1.8,2.1-4.3,2.7-5.8,0.1c-0.7-1.3-0.1-4,0.9-5.4c2.7-3.6,5.8-6.8,8.8-10.2c2.9-3.2,4.1-6.9,1.7-10.5c-3.2-4.9-6.6-10-10.9-13.9
		c-5.5-5.1-9.7-4.8-15.7-0.5c-3.6,2.6-7,5.7-10.8,8.1c-1.6,1-4.8,1.6-5.9,0.7c-2.6-2.1-0.4-4.1,1.7-5.5c2.7-1.8,2.9-3.8,1.1-6.3
		c-5.7-7.8-11.3-15.7-17.1-23.4c-0.9-1.2-3.6-2.4-4.6-1.9C673,516.2,665,521.2,655.6,526.8z M525.8,427.8
		c20.6,29.6,48.4,46.9,84.3,48.8c25.8,1.3,48.8-7.8,69.2-23.8c-23.2,9.2-46.9,4.9-70.6,3.9c1.4,0.8,2.8,1.6,4.4,1.7
		c7.6,0.8,15.2,1.4,22.8,2c4.1,0.3,8.3,0.3,12.4,0.8c1.6,0.2,3.1,1.2,5.2,2.1c-1.3,1.2-1.8,2-2.4,2.3c-6.4,2.2-12.7,4.9-19.8,4
		c-2.8-0.3-6.4-2-8.2,2.2c-0.2,0.5-1.8,0.7-2.8,0.5c-9-1.4-18.2-2.1-26.9-4.5c-10.2-2.8-20-7.1-29.9-10.9c-1.3-0.5-2.5-1.5-3.7-2.3
		c0.2-0.6,0.4-1.1,0.6-1.7c3.1,0.3,6.2,0.7,9.2,1c0.2-0.4,0.3-0.8,0.5-1.2c-2.9-1.2-5.7-2.8-8.7-3.6c-5.5-1.5-11.1-2.3-16.5-3.8
		c-1.8-0.5-3.2-2.2-4.8-3.4c0.3-0.5,0.6-1,0.9-1.5c10.6,1.9,21.3,3.9,31.9,5.8c0.2-0.5,0.3-1,0.5-1.4c-4.2-1.5-8.4-3-12.6-4.5
		c-1.5-0.5-4.5-0.9-4.5-1.4c-0.4-5.9-5.3-4.5-8.5-5.4C540.5,431.4,533.1,429.7,525.8,427.8z M772.1,860.8c-0.4-0.5-0.8-0.9-1.2-1.4
		c-30.5,27.3-65.8,45.4-105.8,54.1c3.5,0.7,6.8,0.9,10.1,1.1c13.4,0.6,25.1-5.8,37.5-9.4c0.7-0.2,1.1-1.6,1.6-2.3
		c0.5-0.7,1.1-1.6,1.8-1.9c2.6-1.1,5.2-2.3,7.9-2.8c2.6-0.5,5.4-0.1,8.1-0.1c-7,5.1-13.7,9.4-20.7,13.2c-4.4,2.5-9.2,4.4-13.8,6.6
		c-0.1,0.5-0.1,1.1-0.2,1.6c2.6,0.7,5.5,2.5,7.9,1.9c13.4-3,26.3-7.6,37.7-15.3c5.4-3.7,7.2-11,4.6-16.4c-5.6,1.4-9.8,7.6-16.9,4.9
		c6.8-5.7,14.3-10.2,21.1-15.6C758.9,873.4,765.3,866.9,772.1,860.8z M735.4,768.5c3.1-1.6,5.1-2.9,7.4-3.8
		c5.6-2.3,11.1-5.2,16.9-6.5c5.1-1.2,7.7-5,5.1-9.8c-0.6-1.2-1.8-2.1-2.1-3.3c-1.5-5-4.5-4.9-8.3-2.7c-5.8,3.2-11.6,6.3-17.3,9.5
		c-0.7,0.4-1.5,1.4-1.5,2.2C735.3,758.4,735.4,763,735.4,768.5z M779.1,779.9c5-5,9.7-9,13.4-13.8c1.9-2.4,3.6-6.8,2.6-9.3
		c-1.7-4.6-5.4-8.4-8.1-12.3c-5.3,4.5-10.1,8.6-15,12.8C778.1,764.2,778.1,764.2,779.1,779.9z M768.8,770.8
		c-7.2,5.6-13.4,11.3-20.4,15.7c-6,3.8-8.3,6.2-5,13.6c2-0.6,4.2-0.8,6-1.8c6.4-3.8,12.7-7.9,18.9-11.9c1.2-0.8,2.8-2.2,2.7-3.2
		C770.5,778.8,769.5,774.5,768.8,770.8z M751,662.2c1.5,6.2,2.8,11.3,4,16.3c9.9-5.7,14.8-16.6,11.7-27.4
		C761.2,655.1,755.7,659,751,662.2z M474.3,350.1c0.1,0.5,0.1,1.1,0.2,1.6c6.1,3.6,12.3,7.2,18.4,10.8c3.5,2.1,4.8,1,4.9-2.8
		c0.1-2.6,0.4-5.3,0.9-7.9c0.7-3.5-0.7-4.8-3.9-4.4C488,348.2,481.2,349.2,474.3,350.1z M775.3,840c-4.4,2.7-9.1,5.3-13.5,8.4
		c-0.8,0.5-0.8,3-0.3,4.2c0.4,0.8,2.2,1.3,3.5,1.5c4.2,0.5,8.4,0.7,12.6,1c0.2,0.5,0.3,1,0.5,1.5c2-2.8,3.9-5.6,5.5-7.9
		C780.4,845.4,778,842.9,775.3,840z M750.5,829.5c0.7,0,1.3,0.2,1.7,0c7.1-4.5,14.3-8.9,21.2-13.9c1.6-1.1,1.8-4.1,2.7-6.3
		c-0.5-0.3-1-0.5-1.5-0.8c-7,3.9-13.8,8-20.9,11.8C749.6,822.4,748.5,825.1,750.5,829.5z M753.9,713.1c-2.8,0-4.6-0.5-5.9,0.1
		c-7.9,3.8-15.7,7.8-23.3,12.1c-1.4,0.8-2.1,2.9-3.1,4.4c1.7,0.2,3.8,1.2,5.1,0.6c7.6-3.6,15-7.5,22.3-11.5
		C750.5,717.9,751.5,715.9,753.9,713.1z M602.4,388.1c-0.1,0.4-0.2,0.8-0.3,1.3c11.9,2.7,23.8,5.4,35.8,8.1
		C626.4,392.8,615.1,387.4,602.4,388.1z M734.8,408.3c0.1-0.3,0.2-0.7,0.3-1c-2.7-1.6-5.5-3.1-8.8-5c-0.7,2.4-1.1,4.1-1.7,6
		C728.5,408.3,731.6,408.3,734.8,408.3z"/>
	<path d="M555.6,85.8c5.1,11.4,12.1,21.8,20.8,30.7c5.3,5.5,12.1,9.2,20.1,8.2c7.7-0.9,13.1,3.1,18.5,7.1
		c9.4,6.9,19.7,11.6,31.3,13.3c0.4,0.1,0.8,0.5,2.2,1.4c-6.5,5-12.2,10.3-18.8,14.1c-2.6,1.5-7.4-0.1-11-1.1
		c-4.3-1.2-8.4-3.2-12.4-5.1c-3.7-1.7-7.1-3.7-11.2-1c-0.8,0.5-2.6-0.2-3.7-0.7c-4.6-2.2-9.2-4.6-13.8-6.8c-1.4-0.7-2.8-1.2-4.5-1.2
		c4.4,5.9,10.2,10.7,17,11.7c6.5,1,11.9,3.4,17.6,5.9c3.3,1.5,6.8,2.3,11.1,3.8c-5,3.5-10.4,4.7-15.2,4.3c-4.9-0.5-9.6-3.4-15.2-5.6
		c1,1.7,1.7,2.8,2.8,4.5c-9-0.9-15.9-5.1-21.9-10.4c-5.4-4.7-9.8-10.6-14.4-16.3c-6.2-7.8-10.8-17.6-18.5-23.3
		c-9-6.5-13-16.6-21.1-23.4c-5.2-4.4-6.5-11.4-4.9-18.6c0.5,0.9,1.1,1.8,1.4,2.7c1.7,6.2,4.2,11.2,9.8,15.4c4.4,3.2,6.7,9.2,10,14
		c0.8,1.2,2,2.2,3,3.3c0.4-0.3,0.8-0.6,1.3-0.9c-1.2-2.4-2.3-4.8-3.5-7.2c0.3-0.3,0.5-0.5,0.8-0.8c1,0.9,2.4,1.5,3.1,2.6
		c3,4.4,6,8.8,8.6,13.4c4.4,7.7,10.5,13.5,18.6,17.6c-0.8-1.2-1.5-2.5-2.5-3.5c-7.4-8.4-13.1-17.3-16.3-28.5
		c-1.7-6.2-8.4-11-13-16.4c-2.2-2.6-5.2-4.6-7.1-7.4c-2.8-3.9-5.1-8.1-7.4-12.4c-2-3.8-3.2-7.8-1.1-12.2c3.6,7.2,7,14.1,10.3,21
		c1.5,3.1,3.1,5.9,7.4,5.3c1-0.1,2.6,0.9,3.3,1.9c4.7,6.6,10.2,12.9,13.7,20.1c4.5,9,8.9,17.4,18.8,21.6c2.6,1.1,5.1,2.7,7,4.7
		c5.6,5.4,12.1,7.7,19.8,8.1c3.4,0.2,6.6,2.6,9.9,4.1c4.2,2,8.3,4.1,13.5,6.6c-0.5-2.3-0.5-3-0.7-3.1c-8.1-4-16-9.2-24.5-11.7
		c-16.9-4.9-28-16-36.8-30.2c-3-4.8-6.3-9.4-9.5-14c-0.5-0.8-1.6-1.8-1.5-2.5c1.4-5.5-3-7.5-5.8-10.5c-3.4-3.7-6.6-7.5-9.6-11.4
		c-0.9-1.1-1.1-2.7-0.9-4.6c5.4,5.3,10.8,10.7,16.6,16.4c1.3-2,2.1-2.8,2.5-3.8c2.1-5.3,3.2-5.6,7.6-1.8c7,6.1,13.9,12.4,20.9,18.5
		c1.7,1.5,3.8,3.1,6,3.5c9.7,2,17.6,7.5,25.6,12.9c2,1.4,4.5,2,6.9,2.6c5.8,1.3,11.7,2.4,17.2,3.5c-0.3-1.7-2.1-4.6-7-5.1
		c-10.1-1-16.3-8.4-24.3-12.9c-6.3-3.6-11.7-8.9-19.8-8.5c-1.2,0.1-2.6-1.3-3.6-2.3c-5.3-5.1-10.2-10.6-15.9-15.2
		c-4-3.2-8.7-5.9-13.5-7.7c-4.4-1.7-7.5-3.6-9.1-8.3c-0.8-2.3-2.8-4.4-4.7-6.1c-3.4-2.9-4.7-6.4-5.4-10.2c0.5-0.4,1-0.7,1.5-1.1
		c2.9,3.2,6.4,6.1,8.6,9.8c3.7,6,10.1,7.3,15.5,10.3c0.5,0.3,1.9-0.2,2.5-0.8c6.5-6.2,4.7-12.7-4.1-15.3
		c-5.4-1.6-11.4-9.1-12.1-16.4c2.9,2.7,4.9,5,7.4,6.6c2.2,1.4,5,1.9,7.3,3.2c2.7,1.5,5.6,3.1,7.8,5.2c8.1,7.6,15.7,15.8,24.1,23
		c6.6,5.7,14.2,9.9,23.7,7.6c1.6-0.4,3.8,0.8,5.6,1.6c5.1,2.4,10,5.4,15.3,7.4c2.5,0.9,6.4,1.2,8.5-0.1c3.8-2.4,7.2-3.9,11.7-1.1
		c-1.9-4.1-6.9-6.1-9.7-3.5c-4.4,4.1-8.4,2.6-12.8,0.4c-6.6-3.4-13-8-20.1-9.5c-9.7-2-17.8-6.5-26-11.3c-1.4-0.8-2.5-2.1-3.7-3.3
		c-0.1-0.1,0-0.6,0.1-1.6c1.6,0.9,3,1.5,4.3,2.3c6.8,4.1,14.1,5.9,22,6.9c4.9,0.6,9.6,4.1,14.2,6.5c3.4,1.7,6.4,4.1,9.8,5.8
		c6.5,3.2,9.3,1.9,11.7-4.8c0.2-0.6,0.4-1.2,0.7-1.8c11,2.6,29.6,22.8,22.7,40.7c-1-1.6-1.7-2.7-2.4-3.8c-3.6-6.2-7.8-11.8-14.6-15
		c-4-1.9-7.2-1.5-9.4,2.4c-1.6,2.8-3.3,2.7-5.7,1.2c-2.5-1.6-5.3-2.8-7.8-4.5c-4.3-2.8-8.1-3.8-13.4-1.1c-2.7,1.3-7.6-0.6-11-2.2
		c-3.9-1.8-7.1-4.9-10.7-7.2c-7.8-4.9-17.1-7.5-23-15.3c-0.2-0.2-0.9,0-2.3,1.1c4.4,4,8.5,8.4,13.3,11.8c8.5,6,17.5,11.4,26.2,17.1
		c4.5,3,9,4.5,14.4,1.7c1.7-0.9,4.7-0.1,6.8,0.8c3.6,1.5,6.9,4.1,10.6,5.4c2.2,0.8,5.4,0.7,7.3-0.5c2.6-1.6,4.5-1.3,6,0.7
		c4.4,5.5,9.1,10.9,12.6,17c3.2,5.7-0.6,10.2-7.2,9.5c-2.8-0.3-5.6-0.9-8.5-1.3c-0.2,0.7-0.4,1.3-0.6,2c4.3,1.4,8.5,2.7,12.9,4.2
		c-0.7,4.1-3.3,6.2-7.1,6.2c-4.1-0.1-8.7,0.1-12.2-1.6c-11.5-5.4-22.7-11.6-34-17.3c-6.7-3.4-13.5-6.6-20.2-9.8
		c-0.3,0.6-0.6,1.1-0.9,1.7c5.7,3.1,11.4,6.2,17.2,9.3c-0.3,0.7-0.5,1.4-0.8,2.2c-4.2-1.2-8.8-1.7-12.6-3.6
		c-5.7-2.9-11.1-6.7-16.4-10.3c-4.7-3.2-8.8-6.9-10.9-12.6c-1.1-3-3.8-5.3-5.7-7.9C556.5,85,556.1,85.4,555.6,85.8z"/>
	<path d="M199.5,271.5c17.5,26.3,34.9,52.9,52.9,79.1c18,26.2,39.3,49.6,63.1,70.8c3.5-2.9,4.6-5.8,3-9.6c-1.8-4.1,0.3-6.5,4-8.9
		c0.1,1.4,0.3,2.3,0.2,3.1c-1.1,6.5,2,11,8.5,11.2c1.8,0,4.4-1.6,5.2-3.3c0.7-1.3-0.4-4-1.5-5.5c-1.2-1.6-3.3-2.5-5.4-4
		c6.1-5.3,11.9-3.6,17.6-1.2c5,2.1,19.3,22.2,20,27.6c1.4,12-6.3,19.6-19,18.9c-3.6-0.2-7.3-0.3-10.9-0.3c-6.9,0-11.3-4.3-15.5-8.8
		c-6.7-7.1-13.4-14.1-19.8-21.5c-18.4-21.2-36.7-42.5-54.8-63.9c-15.4-18.3-29-38-41.2-58.6c-0.3-0.6-0.6-1.2-1.1-1.7
		C198,288,196.4,280,199.5,271.5z M349.8,426.5c2.3,3.1,4.4,6.4,7,9.3c0.9,1,3.5,1.7,4.2,1.2c1.2-0.9,2.5-3.6,2-4.5
		c-2.1-3.6-4.4-7.4-7.5-10C352.9,420.5,350.9,422.9,349.8,426.5z M343.6,436.1c-2.7-2.4-4.5-4.2-6.6-5.8c-0.1-0.1-2.8,2.3-2.6,2.7
		c1.3,2.3,2.9,4.4,4.7,6.3C339.3,439.4,341.4,437.7,343.6,436.1z M323.3,422.9c-1,1.8-2.1,3-1.9,3.5c0.7,1.3,1.9,2.3,3,3.4
		c0.6-0.8,1.9-1.8,1.8-2.3C325.7,426.1,324.6,424.9,323.3,422.9z"/>
	<path d="M559,25.6c4.6,2.6,9.1,5.4,13.8,7.8c1.3,0.7,3.1,0.4,4.7,0.4c1.9,0,4.1-0.8,5.7,0c7.5,3.7,14.6,7.1,23,1.9
		c1.8-1.1,4.8-0.4,7.3-0.2c3.2,0.2,6.4,0.8,9.7,1.2c0.2-0.4,0.5-0.9,0.7-1.3c-1-0.9-1.8-2.6-2.9-2.7c-5.5-0.8-11.1-1.3-16.7-1.7
		c-4-0.3-8.2,0.4-12.1-0.3c-6.2-1.1-12.4-2.6-18.2-4.9c-3.7-1.5-6.8-4.7-9.8-7.7c10.3,3.6,19.7,11.6,31.5,4.7
		c-6.1-1.6-12.5-1.6-17.2-6.8c2.4,0.8,4.8,1.9,7.4,2.4c3.1,0.5,6.8,1.5,9.3,0.3c6-2.9,11.7-1.1,16.9,0.9c16.3,6,30.9,14.7,41.3,29.1
		c0.7,1,1.2,2.1,1.2,3.7c-3.5-2.4-6.8-5.2-10.5-7.1c-3-1.5-6.4-2.4-9.7-2.8c-3.6-0.5-5.7,1.8-5.4,5.5c0.4,5-2.4,4.9-5.6,3.5
		c-4.2-1.9-8.4-4-12.5-6.2c-3.9-2.1-7-1.9-10.3,1.5c-1.2,1.3-4.2,1.8-6,1.4c-8.9-2.4-16.7-7-23.8-12.9c-3.7-3.1-8.1-5.4-12.1-8.1
		C558.5,26.5,558.8,26.1,559,25.6z"/>
	<path d="M782.1,435c-6.3,1.6-12.6,3.6-18.9,4.8c-24.1,4.8-48.4,3.6-72.6,2c-16.1-1-32-3.4-48-5.2c-2.4-0.3-4.7-0.9-7.1-1.4
		c0-0.4,0.1-0.8,0.1-1.3c1.6,0,3.3-0.1,4.9,0c27.5,1.8,55.1,4.5,82.6,5.1c17,0.4,34.1-2.5,51.1-4.1c2.5-0.2,4.9-1.4,7.4-2.2
		C781.7,433.6,781.9,434.3,782.1,435z"/>
	<path d="M612.5,433.2c-38.6-2.3-74.1-16.5-110.4-27.8c0.1-0.5,0.3-1,0.4-1.4C539.2,413.8,575.8,423.5,612.5,433.2z"/>
	<path d="M555.9,158.9c-4.8-5.4-9.4-11-14.5-16.1c-2.4-2.4-6-3.7-8.5-6.1c-3.2-3-6-6.4-8.7-9.8c-2.5-3.2-4.8-6.7-7-10.1
		c-2.5-3.9-4.7-8-6-12.6c4.2,5.5,8.4,11,12.6,16.5c3.7,4.8,6.7,10.3,13.3,12.1c1.4,0.4,2.6,2,3.5,3.3c5.4,7.3,10.6,14.7,15.9,22.1
		C556.4,158.4,556.1,158.7,555.9,158.9z"/>
	<path d="M429.1,349.3c-3.3,9,1.3,15,7.6,19.4c11.6,8.1,23.9,15.5,35.8,23.2c0.7,0.4,1.3,0.9,1.5,2.3c-4.3-2.1-8.6-4-12.8-6.2
		c-11.4-5.9-23.6-10.9-31.6-21.8c-2-2.7-3.5-6-4.6-9.2C424.1,353.7,425.3,350.9,429.1,349.3z"/>
	<path d="M669.3,420.9c-19.9-1.6-39.6-4-58.9-9.5c0.1-0.4,0.1-0.9,0.2-1.3c19.6,2.9,39.3,5.9,58.9,8.8
		C669.5,419.6,669.4,420.3,669.3,420.9z"/>
	<path d="M305.4,396.6c4.5,2.2,6.7,5.1,6.9,9.2c0.1,2.2-1.5,3.9-3.4,2.1C306,405.2,304,401.8,305.4,396.6z"/>
	<path d="M832,1106c-1.8-5.3-2.4-11.3-5.5-15.6c-5.2-7.5-12-13.9-18.1-20.7c-0.7-0.7-1.4-1.4-1.9-2.3c-1.8-3.5-4.5-3.6-8-2.9
		c-11.7,2.1-20.7,9.2-29.8,15.9c-11.9,8.7-23.7,17.7-35.1,27.1c-4.6,3.8-8,8.9-12,13.4c-3.6,4.2-7.4,8.4-10.8,12.8
		c-4.4,5.7-8.5,11.6-12.5,17.6c-0.9,1.4-1.3,3.4-1.3,5.1c-0.1,14.7,0.1,29.3-0.1,44c-0.3,18.6-7.7,34.4-19.9,48.2
		c-10.2,11.6-23.1,19-38.1,22c-15.6,3.1-30.9,2.3-45.8-4.2c-15.6-6.8-27.3-17.6-35-32.2c-9.3-17.6-11.2-36.6-5.3-55.8
		c8.8-28.7,28.4-45.7,57.6-51c7.5-1.4,15.4-0.1,23.1-0.4c1.5-0.1,3.2-1.3,4.2-2.5c10.1-11.7,19.4-24.2,30.2-35.1
		c10.4-10.5,22-19.9,33.7-29c16-12.5,34.2-21.6,52.1-31.1c2.6-1.4,4.6-4,7-5.8c1.1-0.9,2.4-1.8,3.7-2.1c25-4.2,46.4,3.5,62.8,22.3
		c7.4,8.5,13.6,19.3,16.8,30.1c2.4,8.1,3.4,18.2-1.7,27c-1.8,3.1-1.5,7.5-6.1,8.5c-0.7,0.2-1.6-0.1-2.4-0.2
		C833.3,1107.8,832.6,1106.9,832,1106z"/>
	<path class="st0" d="M474.3,350.1c6.8-0.9,13.6-1.9,20.5-2.7c3.2-0.4,4.7,0.9,3.9,4.4c-0.6,2.6-0.8,5.3-0.9,7.9
		c-0.1,3.8-1.4,4.9-4.9,2.8c-6.1-3.7-12.3-7.2-18.4-10.8C474.5,351.2,474.4,350.7,474.3,350.1z"/>
	<path class="st0" d="M734.8,408.3c-3.2,0-6.3,0-10.2,0c0.5-1.9,1-3.6,1.7-6c3.4,1.9,6.1,3.5,8.8,5C735,407.6,734.9,408,734.8,408.3
		z"/>
	<path d="M361.7,302.8c-46-0.2-79.7-34.2-78.8-76.6c0.8-40.1,32.5-71.8,72.6-72.3c19.7-0.2,36.7,7.6,51.2,20.5
		c15.4,13.7,23.7,32.2,24.6,51.7c0.8,17.8-4.8,35.7-17.4,50.2C398.6,293.8,379.4,302.5,361.7,302.8z M289.8,227.5
		c-1.3,35.7,29.6,68.7,66.2,68.6c37.7-0.1,67.7-28,67.8-66.7c0.1-39.9-32.5-68.5-68.4-68.6C317.8,160.7,289.4,192.4,289.8,227.5z"/>
	<path d="M553.8,612.2c3.2,1,5.3,1.5,7.3,2.2c3.5,1.2,4.6,3.9,4.4,7.5c-0.2,4.4-3.2,5.8-6.5,6.3c-3,0.5-6.3,0.2-8-3.4
		c-3.4-6.9-3.5-6.6-9.5-1.9c-12.8,10.4-27.5,16.6-44.1,15.4c-28.9-2.1-57.2-21.6-62.3-54.1c-2.9-18.3-0.2-35.3,10.7-50.3
		c8.4-11.6,19.7-19.7,33.8-24.1c19.5-6.1,37.3-2.9,54.3,7.7c25.2,15.7,33.9,38.7,29.7,67.1c-1.1,7.2-4.8,14.1-7.3,21.1
		C555.5,607.8,554.6,609.8,553.8,612.2z M440.9,571.6c-0.7,39.3,31.7,59.7,59.2,59.9c28.2,0.2,57.9-22.9,57.6-58.1
		c-0.3-33.4-26.2-59.7-59.3-59.7C466.3,513.7,440.9,539.2,440.9,571.6z M562.2,620.9c-2.1-1.3-3.4-2.7-4.6-2.7c-1,0-2.9,2-2.7,2.7
		c0.3,1.3,1.8,2.9,2.9,3.1C558.9,624.1,560.2,622.4,562.2,620.9z"/>
	<path d="M408.2,43.1c3.8,0.6,7.8,0.4,11.2,1.9c7.2,3.2,13.5,2.1,20.4-0.9c3.7-1.6,8.7-2.3,12.4-1.1c7.7,2.4,10.2,10.2,6.3,17.9
		c-2.1,4.1-4.8,8.3-8.3,11c-4.8,3.8-6.1,8.7-7.4,14.1c-3.9,16.4-16.8,28.1-33.7,27.6c-7.5-0.2-13.9,0.4-20.5,3.5
		c-2.8,1.3-6.1,1.6-9.2,2c-4.9,0.5-9.8,0.3-12.7-4.6c-3-4.9-2.4-9.9,0.3-14.7c1.2-2.1,3.4-3.8,4.4-5.9c1.3-2.5,2.9-5.5,2.5-8
		c-2.3-14.2,1.6-26,12.4-35.4C392.5,45.2,400.1,43.7,408.2,43.1z M448.4,52.5c0.5,0.7,0.9,1.3,1.4,2c-4.1,4.5-8.1,9.1-12.5,14
		c-6-8.2-11-15.6-20.7-17.7c-9.5-2-18.2-0.9-26,5.2c-5.9,4.6-9.4,10.7-10.2,18.2c-1.3,11.5,2.4,21.2,12.3,28.9
		c-5.8,2.8-10.5,6.1-18,4.5c2.5-3.1,4.5-5.2,6.1-7.6c0.7-1,0.7-2.5,1.1-3.8c-1.3,0.3-3.1,0.1-3.9,0.9c-2.3,2.3-4.6,4.9-6.1,7.7
		c-0.9,1.7-1,5,0.1,6.3c1.3,1.5,4.5,2.6,6.4,2.1c4.5-1,9.1-2.4,13-4.7c20.2-12.1,38.8-26.3,55.6-42.8c3-2.9,5-7,6.7-10.9
		c1.4-3-0.2-5.6-3.4-6.6c-4.1-1.3-15.8,3.9-17.8,9.4C437.8,55.9,443.1,54.2,448.4,52.5z M436.6,79.1c-0.9,1.3-1.8,2.2-2.2,3.3
		c-2.4,6.9-7.2,10-14.3,12.2c-6.2,1.9-11.2,7.3-16.8,11.1c0.3,0.6,0.7,1.2,1,1.8c9.2,0.4,17.6-1.9,24.4-8.8
		C435,92.3,438.5,84,436.6,79.1z"/>
	<path d="M453.3,170.4c2,10,4.1,19.9,5.9,29.8c4,21.8,8,43.5,11.8,65.3c0.4,2.4-0.3,5,0.2,7.4c0.3,1.7,1.4,4.1,2.8,4.7
		c1.7,0.6,4.5,0.3,5.9-0.8c1.3-1.1,2.4-3.9,1.9-5.6c-2.5-9.1-6.1-17.8-8.3-26.9c-5.6-23.6-10.8-47.4-16-71.1c-0.3-1.5-0.4-3-0.5-4.5
		c0.6-0.3,1.3-0.6,1.9-0.9c1.4,2.3,3.5,4.5,4.1,7c3.6,13.6,6.8,27.4,10.3,41c4.3,16.7,8.7,33.4,13.2,50.1c1.4,5.3,2.4,10.5-2.2,14.9
		c-3.8,3.6-8.2,4.2-13,2.1c-5-2.1-6.1-6.8-6.8-11.4c-1.8-10.8-3.2-21.7-5-32.6c-2.2-13.8-4.7-27.5-7-41.2c-1.2-7-2.5-14-3.4-21.1
		C448.9,174.2,448.1,170.8,453.3,170.4z"/>
	<path d="M608.4,588.4c4.7,4.9,4.1,9.8,3.5,14.2c-2.5,20.8-5.5,41.5-8.2,62.3c-0.5,4.1-0.3,8.3-0.8,12.4c-0.5,4.5-1,9.3-6.3,10.9
		c-4.3,1.3-8.9,2.4-12.7-1.1c-4.2-3.8-4.3-8.7-3-13.8c1.7-6.6,3.7-13.1,5-19.8c3.5-17.6,6.7-35.2,10.2-52.9
		c0.8-4.2,1.8-8.6,7.6-11.2c-0.5,4.2-0.9,7.8-1.5,11.4c-4,22.3-8,44.5-12.2,66.8c-0.4,2.2-1.4,4.5-2.8,6.2c-2.2,2.9-2.4,5.7,0,8
		c1.4,1.3,4.3,2.3,6,1.8c3.4-1,3.9-4,3-7.4c-0.4-1.7-0.4-3.6-0.2-5.4c3.5-25.2,7.1-50.4,10.6-75.6
		C607.1,593.4,607.7,591.5,608.4,588.4z"/>
	<path d="M386.5,335.1c-7.3,0.1-11.5-4.1-11.5-11.4c0-6.6,4.7-11.1,11.4-11.3c5.7-0.1,11.1,5.2,11.3,11.1
		C397.8,329.8,392.8,335,386.5,335.1z M380,322.8c0,0.8,0,1.6,0,2.3c2.1,1.3,4.4,3.9,6.3,3.6c2-0.4,3.6-3.4,5.4-5.2
		c-1.9-1.8-3.6-4.8-5.6-4.9C384.2,318.5,382.1,321.3,380,322.8z"/>
	<path d="M372.2,518c0,6.5-4.5,11.2-10.8,11.3c-6.9,0.1-11.7-4.6-11.8-11.4c-0.1-6.5,4.7-11.4,11.2-11.5
		C367.8,506.3,372.2,510.7,372.2,518z M367.3,519.2c0-0.7,0-1.5,0.1-2.2c-2.1-1.7-4.2-4.6-6.3-4.6c-1.9,0-5.4,3.3-5.3,4.9
		c0.1,2.2,2.9,5.4,4.9,5.8C362.6,523.5,365.1,520.7,367.3,519.2z"/>
	<path d="M333.1,115.7c6.9,0,11.5,4.4,11.5,11.1c0,5.7-5.5,11.6-11.2,11.1c-7.7-0.8-11.5-3.6-11.6-10.9
		C321.8,120.2,326.3,115.7,333.1,115.7z M339.5,127.7c0-0.7-0.1-1.5-0.1-2.2c-2.1-1.4-4-3.7-6.2-4c-3.5-0.5-5.9,2.4-5.2,5.5
		c0.4,2.1,3.4,5.1,5.2,5.1C335.2,132.1,337.3,129.3,339.5,127.7z"/>
	<path d="M701.8,484.3c0-6,4.4-10.1,10.5-10.1c7.5,0.1,11.7,3.9,11.7,10.6c-0.1,6.8-4.5,11.1-11.4,11.1
		C706,495.9,701.8,491.4,701.8,484.3z M720.5,484.7c-3.5-2.5-5.7-5.3-7.6-5.1c-1.9,0.2-4.6,3.2-5,5.4c-0.7,3.1,2,5.6,5.1,5
		C715.2,489.6,717.1,487.2,720.5,484.7z"/>
	<path d="M705.9,151.3c0.1,6.4-4.7,11.1-11.3,11.3c-6.4,0.2-11.1-4.4-11.1-10.8c0-6.6,4.3-10.8,11-10.8
		C701.7,141,705.9,144.8,705.9,151.3z M693.1,157.7c0.8,0,1.6,0.1,2.4,0.1c1.6-1.9,4.5-4,4.3-5.8c-0.2-2.1-3-3.9-4.7-5.9
		c-1.9,1.7-4.9,3.1-5.3,5.1C689.4,153.2,691.9,155.6,693.1,157.7z"/>
	<path d="M254.3,212.6c7.1,0.1,11.3,4.3,11.2,11.1c-0.2,6.1-5,10.3-11.8,10.3c-6.4,0-10.6-4.4-10.5-10.8
		C243.4,216.3,247.4,212.5,254.3,212.6z M253.2,229.4c0.7,0,1.4,0,2.1,0c1.4-2.1,4.2-4.3,3.9-6.2c-0.3-2-3.2-4.7-5.3-5
		c-1.4-0.2-4.7,3.1-4.7,4.9C249.2,225.2,251.8,227.3,253.2,229.4z"/>
	<path d="M723.5,238.7c7.3,0.3,11.3,4.3,11,11.2c-0.2,6.8-3.1,10.2-10.1,10.4c-8.4,0.3-12.1-3.8-11.7-11.8
		C713,242.1,717.1,238.4,723.5,238.7z M731.2,249.6c-3.5-2.5-5.6-5.3-7.5-5.1c-2,0.2-3.7,3.2-5.5,4.9c1.8,1.8,3.4,4.9,5.4,5.1
		C725.4,254.8,727.6,252.1,731.2,249.6z"/>
	<path d="M577.2,519.8c0-6.7,4.1-10.3,11.6-10.3c6,0,10.2,4.3,10.1,10.5c-0.1,6.4-4.5,10.7-11.1,10.8
		C581.3,530.8,577.3,526.6,577.2,519.8z M593.8,521.5c0-0.8,0.1-1.5,0.1-2.3c-1.8-1.4-3.9-4.2-5.5-3.9c-2.1,0.4-3.8,3.1-5.7,4.8
		c1.8,1.7,3.3,4.5,5.3,4.8C589.6,525.2,591.8,522.7,593.8,521.5z"/>
	<path d="M494.2,470.6c-0.1,5.3-5.4,10.5-10.8,10.4c-6.3-0.1-11.7-5.4-11.5-11.3c0.2-6.1,4.9-10.6,11.1-10.5
		C489.6,459.2,494.4,464,494.2,470.6z M489.1,471.1c0-0.7,0-1.5,0-2.2c-2.1-1.3-4.3-3.8-6.3-3.6c-1.8,0.1-4.4,3-4.7,5
		c-0.5,3.1,2.2,5.4,5.3,4.8C485.5,474.7,487.2,472.5,489.1,471.1z"/>
	<path d="M276.8,468.4c-6.8,0-10.6-3.9-10.6-11c0-5.8,4.4-10.8,10.2-10.6c6.4,0.3,11.3,3,11.4,10.3
		C287.8,464.3,283.9,468.4,276.8,468.4z M284.4,457.6c-3.4-2.4-5.2-4.5-7.3-4.9c-3.2-0.6-5.8,1.7-5.2,4.9c0.4,2,3,5,4.7,5
		C278.8,462.7,280.9,460.1,284.4,457.6z"/>
	<path d="M619.4,233.6c-7-0.3-10.9-4.1-10.7-10.5c0.2-8,4.1-11.5,12.4-11.1c6.4,0.3,10,4.4,9.9,11.2
		C630.8,229.5,625.9,233.9,619.4,233.6z M619.6,215.1c-2.5,3.5-5.2,5.7-5,7.6c0.2,2,3.1,4.7,5.2,5.1c3,0.6,5.7-1.9,5.1-5.1
		C624.6,220.5,622.2,218.6,619.6,215.1z"/>
	<path d="M513.3,680.5c0.8,7-4.4,9.7-10.6,10.5c-5.8,0.8-11.1-4.9-11.1-10.8c0-6.8,4.3-11.1,10.8-11
		C509.5,669.3,513.4,673.3,513.3,680.5z M508.5,681.3c0-0.8,0-1.5,0-2.3c-2.1-1.3-4.3-3.8-6.3-3.7c-1.8,0.1-4.7,3.3-4.6,5
		c0.1,1.9,3,4.9,4.8,5C504.4,685.4,506.5,682.7,508.5,681.3z"/>
	<path d="M423.1,413c7.1-0.3,11.1,3.2,11.4,9.5c0.2,6.4-4.3,11.2-10.7,11.3c-6.1,0.2-10.4-3.8-10.8-9.9
		C412.7,417.7,416.8,413.3,423.1,413z M423.3,430.5c2.5-3.5,4.9-5.5,5.2-7.7c0.2-1.4-2.7-3.2-4.3-4.8c-1.8,1.8-4.5,3.3-5.2,5.5
		C418.6,424.8,421.1,427.1,423.3,430.5z"/>
	<path d="M534.8,229.3c-6.6-0.2-10.3-4.1-10.2-10.8c0.1-6.1,4.9-10.7,10.8-10.5c5.5,0.2,11,5.4,10.3,10.6
		C544.8,226.1,541.8,229.7,534.8,229.3z M541.9,218.4c-3.1-2-5.2-4.6-6.8-4.2c-1.9,0.4-3.3,3.2-4.9,5c1.8,1.6,3.5,4.2,5.5,4.4
		C537.3,223.6,539.1,220.8,541.9,218.4z"/>
	<path d="M479.1,103.2c0.1,5.7-4.3,10.2-10.3,10.5c-4.8,0.2-10.5-5.3-10.5-10.1c0.1-6.3,4.2-10.7,10-10.7
		C474.9,92.8,479,96.7,479.1,103.2z M474.1,104.3c0-0.7,0-1.4,0.1-2.2c-1.8-1.2-3.7-3.5-5.3-3.3c-1.8,0.2-3.3,2.7-4.9,4.2
		c1.6,1.6,3,4.3,4.8,4.5C470.2,107.9,472.2,105.6,474.1,104.3z"/>
	<path d="M696.2,642.7c-0.1,6.2-4.2,10.4-10.2,10.4c-6.4,0-10.6-4.2-10.5-10.5c0.1-6.3,4.2-10.1,10.9-10.1
		C691.7,632.6,696.2,637.3,696.2,642.7z M685.8,635.9c-2.2,3.2-4.6,5.1-4.4,6.7c0.2,1.7,2.8,4.5,4.4,4.5c1.7,0,4.4-2.6,4.6-4.3
		C690.6,641.1,688.1,639.1,685.8,635.9z"/>
	<path d="M775.3,272.5c0,5.1-3.6,8.7-8.8,8.8c-4.3,0-8.6-3.9-8.7-7.9c-0.1-5.6,2.9-9.3,7.5-9.4C772.1,264,775.3,266.7,775.3,272.5z
		 M766.8,278.1c1.5-2.9,3.1-4.5,3-6c-0.1-1.2-2.2-2.2-3.4-3.4c-1.2,1.3-3.3,2.6-3.3,3.9C763,274,764.9,275.5,766.8,278.1z"/>
	<path d="M751,511.8c0.1,4.8-3.5,8.6-8.2,8.6c-4.7,0-8.3-3.4-8.4-8c-0.2-4.7,3.6-8.6,8.3-8.7C747.3,503.7,750.9,507.1,751,511.8z
		 M743.2,507.3c-1.8,2.1-3.5,3.3-3.6,4.7c-0.1,1,1.8,3.4,2.6,3.3c1.4-0.2,3.5-1.6,3.7-2.8C746.1,511.3,744.5,509.7,743.2,507.3z"/>
	<path d="M669.9,205.9c-3.7-0.1-6.6-3.6-6.5-8c0.1-4.7,3.7-8.1,8.3-7.9c4.7,0.2,7.9,3.8,7.6,8.6C679,203.2,675.3,206.1,669.9,205.9z
		 M675.6,197.8c-2-1.3-3.3-2.8-4.4-2.7c-1.2,0.2-2.2,1.9-3.2,3c1.2,1.1,2.3,2.8,3.6,3.1C672.5,201.3,673.8,199.4,675.6,197.8z"/>
	<path d="M489.6,44.7c-0.2,5.7-3.1,8.7-8.1,8.4c-4.5-0.3-7.8-3.8-7.6-8.2c0.2-3.9,4.5-7.8,8.3-7.6C487.2,37.5,489.8,40.2,489.6,44.7
		z M486.5,45c-2.1-1.3-3.4-2.9-4.5-2.7c-1.1,0.1-2.1,2-3.1,3c1.1,1,2.2,2.8,3.3,2.8C483.3,48.1,484.5,46.5,486.5,45z"/>
	<path d="M288.4,156.6c0.1,4.2-3.7,8.9-7.4,9.1c-3.5,0.2-8.6-4.5-8.8-8.1c-0.2-4.4,3.9-8.5,8.5-8.6
		C284.8,149,288.3,152.5,288.4,156.6z M280.8,162c1.5-2.5,2.9-3.9,2.9-5.2c0-1-2.3-3-3.1-2.8c-1.4,0.4-3.2,2-3.3,3.3
		C277.2,158.3,279,159.7,280.8,162z"/>
	<path d="M747.8,312.9c4.4,0.1,7.7,3.6,7.7,8.6c0,3.8-3.8,7.3-8,7.3c-4.8,0-7.4-2.6-7.3-7.3C740.3,315.9,742.9,312.9,747.8,312.9z
		 M747.5,316.5c-1.4,2-3,3.3-2.9,4.4c0.1,1.2,1.8,2.9,3,3c1,0.1,2.9-1.8,3-2.9C750.6,319.8,749,318.6,747.5,316.5z"/>
	<path d="M259.2,280.3c0.1-5,2.7-8,7.1-8c5.7,0,9.2,3,9,7.6c-0.2,4.2-4.8,8.4-8.9,8.2C262.7,287.9,259.2,284.2,259.2,280.3z
		 M271.6,279.5c-1.8-1.5-3.2-3.1-3.7-2.9c-1.6,0.7-2.9,2.2-4.3,3.3c1,1.1,2.3,3.3,2.9,3.1C268.1,282.7,269.5,281.1,271.6,279.5z"/>
	<path d="M559.1,712.3c-0.1,4.2-3.5,7.7-7.5,7.8c-4.9,0.1-8.4-3.5-8.3-8.6c0.1-4,3.4-7.2,7.5-7.1C556,704.5,559.2,707.5,559.1,712.3
		z M555.5,712.4c-1.9-1.6-3.1-3.3-4.3-3.3c-1,0-2.8,2-2.8,3.1c0,1.1,1.8,2.9,2.9,3C552.4,715.3,553.7,713.7,555.5,712.4z"/>
	<path d="M441.9,231c-4.6,0-8.2-2.9-8.3-6.7c0-4.3,4.2-8.8,8.2-8.7c4.3,0.1,8,3.8,7.9,8C449.7,227.8,446.3,231,441.9,231z
		 M442.1,227.7c1.3-1.9,2.8-3.2,2.6-4.1c-0.2-1.3-1.7-2.4-2.6-3.5c-1,1.1-2.8,2.1-2.9,3.3C439,224.4,440.6,225.7,442.1,227.7z"/>
	<path d="M407.1,549.4c3.9-0.1,7.7,3.6,7.9,7.5c0.2,3.9-3.8,7.8-8,7.8c-4.2,0-7.1-3-7.2-7.7C399.7,552.7,402.8,549.5,407.1,549.4z
		 M411.7,557c-2.2-1.4-3.6-2.9-4.6-2.7c-1.1,0.2-2.3,2-2.7,3.3c-0.1,0.6,1.9,2.4,2.9,2.3C408.5,559.9,409.6,558.5,411.7,557z"/>
	<path d="M341.8,331.8c0,4.4-3.6,8.4-7.4,8.3c-3.5-0.1-8.2-4.4-8.1-7.3c0.2-3.9,4.6-8.5,8.2-8.4
		C337.9,324.4,341.8,328.4,341.8,331.8z M338.5,332.6c-1.8-1.6-3-3.5-4-3.4c-1.2,0.1-3.1,1.8-3.2,2.9c-0.1,1.1,1.6,2.9,2.9,3.2
		C335.1,335.5,336.5,333.9,338.5,332.6z"/>
	<path d="M423.3,141.6c4.7-0.1,8.7,2.9,8.9,6.6c0.2,3.5-4.1,8.1-7.7,8.4c-3.5,0.2-7.2-4.1-7.3-8.5C417,144.7,420,141.6,423.3,141.6z
		 M428.7,148.8c-1.9-1.4-3.2-3-3.9-2.8c-1.3,0.4-2.3,1.9-3.4,2.9c0.9,1,1.9,2.7,2.8,2.7C425.5,151.6,426.7,150.2,428.7,148.8z"/>
	<path d="M747.3,199.9c2.9,0,7.9,4.7,8.1,7.6c0.1,3-4.4,7.8-7.4,7.9c-3.2,0.1-7.6-3.8-7.7-7C740,203.8,743.2,199.9,747.3,199.9z
		 M752,207.7c-2.2-1.4-3.6-2.9-4.7-2.7c-1.1,0.2-2.4,2-2.7,3.3c-0.1,0.6,1.9,2.5,2.8,2.4C748.8,210.5,749.9,209.1,752,207.7z"/>
	<path d="M582.3,209c-4,0-7.5-4-7.6-8.7c0-2.8,4-6.4,7.1-6.4c3.8,0,8,3.7,8.1,7.1C590.1,204.8,586.1,209,582.3,209z M582,205.8
		c1.5-2,2.9-3.1,3-4.3c0.1-1-1.7-3-2.4-2.9c-1.3,0.2-3.1,1.5-3.3,2.6C579.1,202.3,580.6,203.6,582,205.8z"/>
	<path d="M442.6,310.8c-4.1-0.1-7.6-3.6-7.4-7.2c0.3-4.1,3.5-7.4,7.3-7.4c4.5,0,7.7,3.3,7.5,7.5
		C449.8,307.9,446.7,310.9,442.6,310.8z M442.6,299.2c-1.3,2-2.7,3.2-2.7,4.6c0,0.8,2.2,2.6,2.9,2.4c1.2-0.4,2.6-1.9,2.8-3.2
		C445.6,302.1,444,300.9,442.6,299.2z"/>
	<path d="M522.2,282c-4.1,0.1-7.7-3.2-7.9-7.3c-0.2-4,2.9-7.3,7-7.5c4.2-0.2,7.8,3.1,8,7.2C529.4,278.1,526,281.8,522.2,282z
		 M525.8,274.5c-1.9-1.3-3.1-2.8-4.3-2.8c-1,0-2.9,1.9-2.8,2.6c0.2,1.3,1.7,3.1,2.8,3.2C522.6,277.6,523.9,275.9,525.8,274.5z"/>
	<path d="M381,392.8c0-4.3,3.4-8.3,7-8.1c3.6,0.1,7.7,4.1,7.8,7.6c0.1,2.8-4.3,7.9-7,8C385.5,400.5,380.9,396.1,381,392.8z
		 M388.3,388.4c-1.5,1.7-3.3,3-3.2,4.1c0,1.1,2,2.1,3.1,3.2c1-1.1,2.5-2.1,2.8-3.4C391.1,391.3,389.5,390.1,388.3,388.4z"/>
	<path d="M345.5,76.6c0,4.4-2.9,6.9-8,6.8c-4.3-0.1-7-2.7-6.8-6.8c0.1-4,3.1-7.1,6.9-7.2C341.6,69.2,345.5,72.8,345.5,76.6z
		 M342,76.9c-1.7-1.4-2.7-2.9-3.7-2.8c-1,0-2.1,1.4-3.1,2.2c1,1.1,1.7,2.7,2.9,3.2C338.8,79.7,340.1,78.2,342,76.9z"/>
	<path d="M631.9,627.9c0.1-3.5,4.2-7.5,7.5-7.3c3.4,0.2,7,4.5,6.7,8c-0.2,3.3-3.9,6.4-7.2,6.3C635.2,634.7,631.8,631.3,631.9,627.9z
		 M639.3,623.8c-1.4,1.6-3.2,2.9-3,3.7c0.3,1.3,1.9,2.2,2.9,3.3c0.9-1,2.5-1.9,2.6-2.9C641.9,626.9,640.5,625.7,639.3,623.8z"/>
	<path d="M315.4,493.8c4.8-0.7,6.4,2,6.3,6c-0.1,3.7-1.5,6.9-6,7.1c-3.3,0.2-8.3-4.6-7.8-7.5C308.6,495.3,310.7,492.6,315.4,493.8z
		 M318.8,500.1c-1.9-1.4-2.9-2.6-4-2.7c-0.8-0.1-2.5,1.6-2.4,2.2c0.2,1.2,1.3,2.8,2.3,3C315.6,502.8,316.9,501.4,318.8,500.1z"/>
	<path d="M641.1,506.4c-3.4,2.8-5.2,5.5-7.6,6.1c-3.4,0.8-8.2-3.5-7.2-6.3c1-2.7,4.1-6.2,6.5-6.4
		C635.1,499.6,637.6,503.4,641.1,506.4z M628.6,505.9c1.9,1.5,2.9,3.1,3.9,3c1-0.1,2.4-1.6,2.7-2.7c0.2-0.7-1.4-2.5-2.3-2.5
		C631.8,503.6,630.6,504.8,628.6,505.9z"/>
	<path d="M241.9,405.4c0.2-3.8,2-6.3,6.1-6.4c3.7,0,5.9,1.8,6,5.7c0.1,3.1-3.2,7.5-5.6,7.5C245.3,412.3,242,408.8,241.9,405.4z
		 M252.1,405.3c-2-1.2-3.1-2.4-4.3-2.4c-0.8,0-2.5,1.9-2.3,2.5c0.3,1.1,1.6,2.6,2.7,2.7C249.1,408.2,250.3,406.7,252.1,405.3z"/>
	<path d="M412.8,495c-1.8-3.1-4-5.1-4.1-7.1c0-3.3,2.5-6.9,5.6-6.1c2,0.6,3.4,5.1,4,8C418.6,490.8,415.6,492.5,412.8,495z"/>
	<path d="M562.6,298.5c1.4,0.7,2.8,1.6,4.3,2.2c7.9,2.7,15.8,5.6,23.9,8c6.5,2,9.7-3.4,14.6-6.9c-13-7.7-28.5-9.4-39.6-21.3
		c10.1,3.8,19,7.2,28,10.3c5.8,2,11.7,3.6,17.5,5.4c0.5,0.1,1.1,0.4,1.5,0.2c6.1-3.7,12.3-0.5,18.4-0.1c7,0.4,14.1,0.1,21.2,0.1
		c0.2-0.5,0.3-1,0.5-1.5c-1.6-0.5-3.1-1.5-4.7-1.6c-14.9-0.2-29.2-3.7-43.4-7.5c-4.1-1.1-7.9-3-11.9-4.5c0.2-0.8,0.4-1.5,0.6-2.3
		c4.3,1,8.6,1.8,12.8,3.1c12.7,3.9,25.3,6.7,38.9,4.6c11.6-1.8,22.7,1.9,32.7,8.1c3.7,2.3,7.2,4.8,10.8,7.2
		c-0.2,0.6-0.4,1.3-0.5,1.9c-10.1,1.5-20.2,3.1-31.3,4.7c4.4,3.2,29.1,1.7,37-1.6c3.1,4,6.3,8.2,10.3,13.5c-3.7,0.7-6.4,1-8.9,1.7
		c-2.7,0.8-5.4,2.1-8,3.3c-0.9,0.4-1.5,1.5-2.3,1.8c-12.6,3.4-25.1,8.1-38.6,4.9c-0.4-0.1-0.8-0.5-1.4-1c2.7-5.4,8.1-4.2,12.5-5.2
		c7.4-1.7,14.7-3.5,22.1-5.3c0.5-0.1,0.8-0.9,2.2-2.6c-4.8-0.4-8.6-0.7-12.3-0.9c-4.7-0.3-9.9,1.6-13.2-4.3
		c-1.2-2.1-3.7-1.9-5.5,0.8c-1.3,1.8-3.8,3.8-5.8,3.9c-5.1,0.3-10.3,0-15.3-0.9c-6.2-1.2-8.1-4.1-8.6-10.4c-0.1-1-0.3-1.9-0.7-3.8
		c-2.6,0.4-5.2,0.4-7.6,1.1c-3.5,1.1-5,5-2.8,7.8c2.2,2.8,3.9,6,8,7.4c3.2,1.1,6.3,4.4,8.1,7.5c3.1,5.5-0.7,11.2-7,10.7
		c-4.7-0.4-9.4-2-14.1-3.2c-3.7-0.9-7.3-2.3-11.1-2.9c-2.1-0.3-4.4,0.7-6.5,1.7c26.3,14,87.7,20.2,99.3,9.6c-4.1,0-7.3-0.1-10.4,0
		c-7.4,0.2-14.9,1-22.3,0.5c-3.3-0.2-6.4-2.9-9.6-4.5c0.2-0.7,0.4-1.4,0.6-2.1c3.2,0,6.4,0.1,9.6,0c6.1-0.2,12.3-0.5,18.4-0.9
		c5.1-0.3,10.3-0.7,15.3-1.4c4.2-0.6,8.4-1.8,12.6-2.8c2.8-0.7,5.8-3.6,8.1,0.8c2.3,4.4,1.6,8.4-2.4,11c-3.1,2-6.6,3.1-9.7,5.1
		c-14.4,9.2-30.4,8-46.3,7.3c-25.2-1.2-49-8.3-72.6-16.6c-5.3-1.9-10.8-3.4-16.1-5.1c-0.8-0.3-1.4-1.1-1.8-2.8
		c1.1,0.2,2.2,0.3,3.2,0.6c3.6,0.8,7.1,1.8,10.7,2.3c2.5,0.4,7.4-4.3,6.9-6.6c-0.3-1.2-2.1-2.1-3.4-2.8c-10-5.7-20.5-10.8-27.6-20.4
		c-1-1.4-1.6-3-3.1-5.8c2.1,0.9,3.1,1,3.4,1.5c5.3,7.2,12.4,12.6,20.6,15.2c9.3,3,17.1,9.5,27.9,9.4c6.7,0,13.4,4.4,20.2,6.7
		c1.5,0.5,3,0.9,4.5,1.4c0.3-0.4,0.5-0.8,0.8-1.2c-1-0.9-2-2-3.1-2.7c-5.4-3.5-10.7-7-16.2-10.3c-2.2-1.4-4.7-2.4-7.2-3.3
		c-10.1-3.7-20.2-7.2-30.3-10.9c-2.1-0.8-3.8-2.6-5.7-3.9C561.8,299.5,562.2,299,562.6,298.5z M647.1,307.8
		c-8.2-0.8-15.5-1.6-22.8-2.3C632.9,311.5,642,312.4,647.1,307.8z"/>
	<path d="M639.8,278.7c-4.2,2.8-26.4-2.2-31.4-7.8C618.7,273.5,629.1,276.1,639.8,278.7z"/>
	<path d="M514.3,362.3c8.4,4.8,16.9,9.5,25.3,14.3c-0.3,0.5-0.6,1.1-1,1.6C530.1,373.6,520.4,370.8,514.3,362.3z"/>
	<path d="M602.2,813.8c1.1,1,2.6,1.8,3.3,3.1c2.2,4.1,5.2,4.4,9.2,2.8c18-7.3,36.1-14.4,54.1-21.5c3.3-1.3,6.8-2,10.2-3
		c0.3,0.5,0.5,1,0.8,1.5c-1.2,1.1-2.2,2.5-3.6,3.1c-22.7,9.1-45.4,18.1-68,27.2c-2.9,1.1-4.5,0.2-5.3-2.5c-1-3.2-1.7-6.5-2.5-9.8
		C601,814.4,601.6,814.1,602.2,813.8z"/>
	<path d="M612.9,849.9c12.7-4.8,24.8-9.4,36.8-13.8c10.9-4,21.8-7.8,32.7-11.6c1.1-0.4,2.4-0.3,3.5-0.5c0.2,0.4,0.4,0.8,0.6,1.3
		c-1.5,1.1-2.8,2.6-4.4,3.2c-21.4,8.1-42.9,16.1-64.4,24.1C614.7,853.7,613.1,852.5,612.9,849.9z"/>
	<path d="M678.2,807.5c-0.1,7.4-9.9,12.5-16.4,9C667.4,813.5,672.6,810.7,678.2,807.5z"/>
	<path d="M678.8,859.9c-2.3,1.3-4.4,3-6.9,3.9c-11.7,4.3-23.4,8.4-35.2,12.6c-3.7,1.3-4.3-0.5-4.3-2.8c15.4-5.3,30.3-10.5,45.2-15.7
		C678.1,858.6,678.4,859.3,678.8,859.9z"/>
	<path d="M739.2,561.2c-1.4-1.9-2.9-3.8-4.3-5.7c-0.3,0.1-0.6,0.2-0.9,0.3c0.2,1.4,0.5,2.8,0.8,4.8c-1.3-0.7-2.3-1.2-2.1-1.1
		c-2,1.1-3.2,1.6-4.3,2.4c-2,1.5-3.9,3.1-5.8,4.6c-1.1,1-2.1,2.1-3.3,3c-6.1,4.5-11.3,9.2-5.4,17.5c0.6,0.8,0.1,2.5,0.1,5.4
		c-1.9-2.1-3.1-3-3.8-4.2c-4.5-7.9-10.3-14.7-17.9-19.8c-3.4-2.3-3.7-3.9,0.1-6.5c8.4-5.7,16.4-11.9,24.6-17.8
		c6.1-4.4,9.4-4.4,15,0.7c4.7,4.2,8.2,9.2,8.7,15.6C740.2,560.7,739.7,561,739.2,561.2z"/>
	<path d="M663.1,527.1c2.7-1.5,5-3.2,7.6-4c1.2-0.4,3.3,0.7,4.2,1.8c0.6,0.7,0,3.1-0.8,3.9C669.7,532.9,667.7,532.5,663.1,527.1z"/>
	<path d="M769,599.9c-2.4,1.8-4.6,3.8-7.2,5c-0.9,0.5-3.1-0.4-4-1.4c-0.7-0.7-0.7-3.1,0-3.7C762.3,595.6,763.6,593.9,769,599.9z"/>
	<path d="M747.8,593.6c4.8-5.5,5.8-5.5,11.4-0.4C754.7,599.8,751.7,599.9,747.8,593.6z"/>
	<path d="M684.9,535.8c-3.3,1.5-5.5,3.2-7.4,3c-1.8-0.2-3.5-2.5-5.2-3.8c2.2-1.4,4.2-3.7,6.6-4C680.3,530.8,682.1,533.5,684.9,535.8
		z"/>
	<path d="M758.5,608.2c-3.3,1.5-5.5,3.1-8,3.6c-0.9,0.2-3.4-2.8-3.3-3.1c1.3-2.1,3.1-3.9,5-6.1C754.4,604.5,755.9,605.9,758.5,608.2
		z"/>
	<path d="M686.4,522.7c-2.6,0.6-5.2,1.6-7.8,1.6c-0.9,0-2.7-3.3-2.5-3.5c1.4-1.5,3.3-3.4,5-3.4c1.9,0,3.7,2,5.6,3.1
		C686.6,521.2,686.5,522,686.4,522.7z"/>
	<path d="M688,535.7c-2.3-3-4.4-4.7-4.6-6.5c-0.1-1.1,3.1-3.7,4.4-3.5c1.7,0.4,4,2.7,4.3,4.4C692.3,531.6,689.9,533.4,688,535.7z"/>
	<path d="M749.8,587.2c-4.9,4.8-5,4.8-10.8-0.9C741.2,580.9,743.2,581,749.8,587.2z"/>
	<path d="M679.9,542.9c4-3.7,6.6-5.2,9.7-1.2c1.2,1.6,3.1,3,0.6,4.8C684.9,550.1,684.1,543.7,679.9,542.9z"/>
	<path d="M749.4,600.2c-2.6,2.3-4.3,6.5-8.1,2.6c-0.9-0.9-1.2-3.8-0.4-4.7C744.3,594,746.8,596.8,749.4,600.2z"/>
	<path d="M689,537.6c3.5-2.1,5.7-5.4,8.7-1.2c1.4,1.9,2.4,3.6-0.2,5.4C692.3,545.3,692.4,539.3,689,537.6z"/>
	<path d="M742.3,592.5c-2.6,1.7-4.7,4-5.9,3.6c-1.8-0.5-3.4-2.8-4.2-4.7c-0.3-0.6,2.6-3.6,3.3-3.4
		C737.6,588.7,739.4,590.5,742.3,592.5z"/>
	<path d="M731,906.2c-3,2.1-5.9,4.1-8.9,6.2c-0.5-0.7-0.9-1.4-1.4-2c3.1-1.8,6.2-3.7,9.4-5.5C730.4,905.3,730.7,905.7,731,906.2z"/>
	<path class="st0" d="M562.2,620.9c-2,1.5-3.3,3.2-4.3,3.1c-1.2-0.1-2.6-1.8-2.9-3.1c-0.2-0.7,1.7-2.7,2.7-2.7
		C558.8,618.2,560.1,619.6,562.2,620.9z"/>
	<path class="st0" d="M424.3,151.6c-1,0-1.9-1.8-2.8-2.7c1.1-1,2.1-2.5,3.4-2.9c0.8-0.2,2,1.4,3.9,2.8"/>
	<path class="st0" d="M342,76.9c-1.8,1.2-3.2,2.8-3.9,2.6c-1.2-0.4-2-2-2.9-3.2c1-0.8,2.1-2.2,3.1-2.2
		C339.2,74.1,340.2,75.5,342,76.9z"/>
	<path class="st0" d="M318.8,500.1c-1.9,1.2-3.2,2.7-4.1,2.5c-1-0.2-2.1-1.8-2.3-3c-0.1-0.6,1.6-2.3,2.4-2.2
		C315.9,497.5,317,498.8,318.8,500.1z"/>
	<path class="st0" d="M647.1,307.8c-5.1,4.6-14.2,3.7-22.8-2.3C631.6,306.2,638.9,307,647.1,307.8z"/>
	<path d="M312.8,189c2.1,2.7,5,5.1,6.3,8.2c4.6,11,12.9,18.2,23,23.4c9.3,4.8,19.1,8.4,28.9,12c3.5,1.3,7.5,1.2,11.3,1.3
		c5,0.2,8.6-2.2,10.2-7.1c1.5-4.4,4.5-6.1,9.2-6c3.7,0.1,7.5-0.8,11.3-0.8c1.2,0,3.3,1.3,3.5,2.3c1.7,7.8,0.9,9.1-7.1,10.5
		c-5.5,1-9.9,3-13,8.1c-1.1,1.8-4.5,3.5-6.6,3.3c-6.6-0.7-13-2.2-19.5-3.6c-2.9-0.6-5.8-1.5-8.7-2.2c-3.8-0.8-6.3,0.5-7.9,4.2
		c-2.1,5.2-14,6.7-17.4,2.3c-0.6-0.8-0.9-2.4-0.5-3.1c0.4-0.7,1.9-1.1,2.9-1.2c2.8-0.2,5.7,0.3,8.4-0.4c4.6-1.1,5.6-4.1,2.5-7.7
		c-1.8-2.1-4.1-3.8-6.4-5.5c-5.7-4.3-11.7-8.2-17.2-12.7c-2.6-2.1-5-5-6.6-8c-2.9-5.3-5.2-10.9-7.8-16.4
		C312,189.8,312.4,189.4,312.8,189z"/>
	<path d="M416.3,234.8c-0.3,5.9-0.4,9.7-5.4,11.6c-2.5,1-4.9,3-6.6,5.2c-5.6,7-12.6,8.3-20.6,5.7c-4.9-1.6-9.6-3.9-14.4-5.6
		c-4.8-1.6-8.7-1.6-11.8,3.8c-3.9,6.7-14.1,6.7-19.4,1c-1.6-1.7-4.1-2.6-6.3-3.7c-8-4.3-16.2-8.4-24.1-12.8
		c-1.7-0.9-3.1-2.5-4.3-4.1c-6.4-8.3-4-16.1,6-19.5c1-0.4,2.1-0.8,3.6-1.5c-4.8-5.4-9.6-10.4-10.9-17.6c1-0.1,1.5-0.3,1.6-0.2
		c4.5,5.5,8.9,11,13.4,16.5c1.9,2.3,1.1,4-1.2,5.2c-0.6,0.3-1.2,0.6-1.9,0.7c-4.1,0.9-8.3,2.4-8.7,7c-0.5,4.5,2.2,8.2,6,10.8
		c9.9,6.9,20.3,12.7,32.5,14.6c6,0.9,11.2,0.4,14.5-5.9c0.7-1.3,4.4-1.8,6.4-1.5c7.2,1.3,14.2,3.5,21.4,4.8c6.5,1.2,12,0,16.5-6.3
		C405.1,239.4,410.9,237.9,416.3,234.8z"/>
	<path d="M339.6,171.5c4.8,2.9,9.6,5.7,14.4,8.6c3.8,2.3,7.6,2.6,11.8,0.7c9.5-4.3,18.8-2.8,27.9,1.4c0.7,0.3,1.4,0.9,2.1,1.4
		c0.2,0.2,0.2,0.6,0.6,1.9c-4.6-0.7-8.9-1.6-13.1-1.8c-3.4-0.1-7,0.1-10.1,1.2c-2.9,1-3.5,3.9-0.7,5.8c3.4,2.3,7,4.8,10.9,5.7
		c7,1.7,14.3,2.5,21.6,3c3.8,0.3,6,1.3,6.6,6.2c-2.9,0-5.7,0.3-8.5-0.1c-4.8-0.6-9.5-2-14.2-2.1c-2.6-0.1-5.2,1.9-7.9,2.9
		c-3.1,1.2-6.7,3.9-9.3,3.1c-8.2-2.4-16-6.1-23.9-9.5c-0.8-0.4-2-2.1-1.7-2.6c2.1-3.7-0.9-4.8-2.9-6.8c-5.1-5.2-10-10.7-14.8-16.1
		c-0.6-0.7-0.6-2-0.9-3c0.4-0.3,0.7-0.6,1.1-0.9c3.3,3.1,6.6,6.1,9.7,9.2c2.3,2.4,4.2,5.1,6.6,7.4c2.4,2.3,4.8,4.6,8.7,2
		c1.2-0.8,3.5,0.1,5.4,0.2c1.7,0.1,3.3,0,5.2-0.7c-10-3.3-19.2-7.6-25.2-16.3C339,172.2,339.3,171.9,339.6,171.5z M363.6,191.3
		c-2.6,1.4-4.7,2.3-6.6,3.7c-0.5,0.4-0.4,2.3,0.1,3.1c2,3.8,10.9,6.9,15,5.5c3.6-1.3,4.6-4.3,1.6-6.7
		C370.8,194.5,367.2,193.2,363.6,191.3z"/>
	<path d="M319.6,178.1c3,2.6,7.5,4.7,8.9,8c5,11.9,15.6,17.5,25.2,24c6.6,4.5,14.2,7.1,22.5,7c3.7-0.1,6.4-1,8.2-4.4
		c2.1-4,5.3-4.8,9.6-4.2c5.8,0.8,11.8,0.9,17.7,1.5c1,0.1,2.7,1.3,2.8,2.1c0.1,1.2-0.7,3.3-1.5,3.5c-2.7,0.7-5.5,0.9-8.3,0.9
		c-3.6,0.1-7.3-0.4-10.9-0.2c-3.9,0.1-7,1.6-8.8,5.5c-1.6,3.3-4.4,4.3-8.2,4.5c-14,0.9-25.2-6.4-36.8-12.5c-0.8-0.4-1.4-2.8-1-3.7
		c1.6-3.2,0.2-4.8-2.2-6.7c-5-3.9-9.4-8.2-11.7-14.5c-1.3-3.5-4.6-6.2-7-9.3C318.7,179,319.2,178.5,319.6,178.1z"/>
	<path d="M295.1,241.2c2.5,2.6,4.6,5.7,7.5,7.7c2.7,1.9,6.1,2.7,9.2,3.9c2.1,0.8,4.5,1.1,6.4,2.2c8.2,4.6,16.4,8.8,26,9.7
		c5.3,0.5,10.3-0.1,14.5-3.8c3.8-3.4,7.9-3.7,12.5-2c4.4,1.6,8.8,3,13.3,4.2c9.3,2.5,16.7-0.5,22.4-8.1c1.4-1.8,2.8-3.5,5.2-4.9
		c-0.1,1,0,2.1-0.3,3c-3.2,8.3-9.4,14.5-16.8,18.5c-3.5,1.9-9.2,0.3-13.8-0.6c-4.8-0.9-9.5-3.8-14.2-3.8c-5.1,0-10.2,2.6-15.3,3.6
		c-2,0.4-4.2-0.1-6.2-0.6c-2.9-0.7-5.7-1.7-8.4-2.6c-4.5-1.6-9.2-2.9-13.5-5.1c-5.1-2.7-10-5.2-16-6.1c-7.5-1.1-10.9-7.7-13.5-14.2
		C294.3,241.9,294.7,241.5,295.1,241.2z"/>
	<path d="M388.7,278.5c-4.6,1.8-9,4.5-13.7,5.3c-4.2,0.7-9.2,0.4-13.2-1.1c-6.7-2.5-13.4-3.1-20.4-3c-9.9,0.1-18.7-2.7-25.3-10.5
		c-0.4-0.5-0.9-1-1.2-1.6c-0.2-0.3-0.1-0.6-0.3-1.4c0.9,0.2,1.8,0.2,2.3,0.6c11.9,9.3,25.4,10.6,39.6,7.5
		c10.9-2.4,21.2,0.2,31.7,2.2C388.3,277.2,388.5,277.8,388.7,278.5z"/>
	<path d="M319.5,224.6c-0.8,0.9-1.6,1.8-3.5,3.8c6.1,1.5,11.2,3.1,16.5,3.9c1.2,0.2,2.9-2.2,5.1-4.1c0.8,0.6,2.5,1.4,3.7,2.7
		c2.4,2.7,1.7,5.2-1.9,5.5c-8.4,0.8-16.6-0.3-23.6-5.5c-1.4-1.1-1.9-3.4-2.8-5.2c1.9-0.9,3.7-1.9,5.6-2.8
		C318.9,223.5,319.2,224,319.5,224.6z"/>
	<path d="M379.5,188.8c6.3-3.6,24.1,0.5,26.2,6.1C399.7,197.8,382,193.6,379.5,188.8z"/>
	<path d="M370.6,177.6c-5.5-2.9-10.9-5.9-16.4-8.8c-0.7,0.9-1.4,1.8-2.1,2.6c2.6,1,5.2,2,7.7,3c-0.6,0.6-1.1,1.1-1.7,1.7
		c-0.3,0.2-0.7,0.5-0.8,0.4c-2.9-2.5-5.9-4.9-8.6-7.6c-0.3-0.3,0.8-2.8,1-2.8c3.8,0.6,7.8,0.8,11.3,2.3c3.8,1.7,7.1,4.6,10.6,7.1
		C371.3,176.2,370.9,176.9,370.6,177.6z"/>
	<path d="M353.1,287.8c-5.8,3.6-19.8,0.3-23.7-5.2C337.3,284.3,344.8,286,353.1,287.8z"/>
	<path d="M295.9,212.7c1.5-0.5,2.9-1,4.6-1.6c-0.5-1.9-0.9-3.6-1.3-5.3c0.4-0.3,0.9-0.6,1.3-0.8c1.4,2.4,3,4.8,4.1,7.4
		c0.3,0.7-1.1,2.9-1.8,3c-2.3,0.2-4.7-0.4-7.1-0.6C295.8,214,295.8,213.3,295.9,212.7z"/>
	<path d="M483,608.3c1.1-0.4,1.9-0.5,2.6-0.9c2.1-1.3,5.6-2.3,6-4c0.4-1.9-1.4-5.2-3.2-6.6c-2.8-2.2-6.2-4-9.6-4.9
		c-3.6-1-5.6-2.4-5.7-6.2c-0.1-3.8-1.6-5.3-6-4.9c-3.2,0.3-6.9-1.2-9.7-3c-4-2.5-3.2-6.8,1.3-8.2c2.7-0.8,5.9-0.9,8.8-0.5
		c3.3,0.4,4.8-0.4,4.5-3.8c-0.3-4.2,1-6.3,5.7-5.3c1.6,0.3,3.6-0.3,5.3-1c4.7-2,5-4.9,1.3-8.3c-0.2-0.2-0.5-0.4-0.8-0.6
		c-5.6-4.4-5.6-8.5,0.3-12.9c1.2-0.9,3.6-0.6,5.3-0.2c7.5,1.9,14.9,4.5,22.5,6c2.1,0.4,5.9-1.2,6.9-3.1c0.8-1.5-0.7-5.1-2.2-6.9
		c-1.8-2.2-4.7-3.6-7.3-5c-2.5-1.4-5.2-2.5-7.8-3.7c0.1-0.6,0.2-1.2,0.3-1.8c1.7-0.2,3.5-0.7,5.2-0.5c25.2,2.5,42.7,21.3,44.6,47.6
		c1.7,24.6-13.1,46.5-35.6,52.6C503.7,625.5,489.3,619.6,483,608.3z M514.8,591.1c1.6-0.2,3,0.1,3.9-0.4c2.1-1.1,5.1-2.3,5.6-4
		c0.4-1.6-1.6-4.8-3.4-5.7c-5.5-2.8-11.4-5.3-17.3-7.1c-2.6-0.8-6-0.1-8.7,0.8c-4.8,1.6-5.3,4.7-1.5,8.1
		C499.6,588.2,507.3,590.2,514.8,591.1z M514,601c-2,0.5-4,0.6-5.4,1.6c-0.8,0.6-0.8,3.7-0.6,3.8c4.6,1.4,9.3,2.8,14,3.7
		c0.9,0.2,3-1.7,3-2.6c0-1.3-1.1-3.3-2.3-3.8C520,602.4,516.9,601.8,514,601z M515.6,563.2c1.8-1.3,3.6-2.6,5.3-3.8
		c-1.3-1.4-2.4-3.5-4.1-4.1c-2.3-1-5.1-1.3-7.7-1.2c-1.1,0-2.7,1.3-3.2,2.4c-0.3,0.7,0.6,2.7,1.5,3.2
		C509.8,561,512.4,561.9,515.6,563.2z M539.5,591.9c-2.3-1.1-4.2-2.4-4.5-2.1c-1.8,1.8-3.5,3.9-4.8,6.1c-0.2,0.3,1.6,1.9,2.5,2.8
		C534.7,596.8,536.7,594.8,539.5,591.9z M538.6,573.6c-2.5,2.7-4.3,4.4-4.2,4.5c1.2,1.5,2.6,3.1,4.3,4c0.6,0.3,3.3-1.9,3.2-2.4
		C541.4,577.7,540,576,538.6,573.6z M534.9,547.6c-0.8-0.4-1.5-0.9-2.3-1.3c-0.5,1.4-1.7,3.2-1.2,4c0.9,1.5,2.7,2.7,4.4,3.3
		c0.7,0.2,2-1.4,3.1-2.2C537.5,550.1,536.2,548.9,534.9,547.6z"/>
	<path d="M467.4,603.8c2.5,0.6,4.2,0.5,5.3,1.4c1.9,1.5,3.4,3.5,5.1,5.3c-2.5,1.1-5,2.4-7.6,3.1c-1.2,0.3-3.1-0.5-4.1-1.5
		c-1.5-1.4-2.4-3.4-3.6-5.1C464.4,605.8,466.2,604.6,467.4,603.8z"/>
	<path d="M466.7,529.5c3.1,3.1,5.4,5.5,7.7,7.8c-1.4,1.2-3.5,3.6-4,3.3c-2.7-1.6-5-3.8-7.2-6C463,534.2,464.9,532,466.7,529.5z"/>
	<path d="M491.2,523.5c2.1,2.1,3.7,3.6,5.3,5.2c-1.1,0.9-2.7,2.8-3.3,2.5c-2.1-0.8-3.9-2.5-5.8-3.8
		C488.3,526.4,489.3,525.4,491.2,523.5z"/>
	<path d="M463.9,553.3c-2,1.3-3.3,2.7-4.2,2.5c-1.3-0.2-2.4-1.7-3.6-2.7c1.1-1,2.1-2.8,3.2-2.8C460.5,550.3,461.8,551.9,463.9,553.3
		z"/>
	<path d="M461.2,589.9c-2.2,1.3-3.4,2.6-4.3,2.4c-1.3-0.3-2.4-1.6-3.6-2.6c1-0.9,2-2.5,2.9-2.5C457.6,587.3,458.9,588.6,461.2,589.9
		z"/>
	<path d="M399.6,89.4c1.7-0.5,3.4-0.8,5-1.5c0.9-0.4,1.6-1.5,2.4-2.2c-0.9-0.8-1.8-2-2.8-2.3c-8.3-1.9-9.2-3.1-11.2-11.6
		c-0.6-2.7-3.2-4.9-5.2-7.8c1.3-0.1,2.5-0.3,3.7-0.3c3.9,0,8.3,1,8.5-5.4c0-0.9,2.4-2.1,3.8-2.6c10.3-3.7,25.2,3.6,28.8,14.1
		c0.4,1.1-0.4,3.3-1.4,4.2c-6,5.2-12,10.6-18.6,15.1c-3.6,2.5-8.3,3.7-12.9,1.9C399.7,90.5,399.6,89.9,399.6,89.4z M405.5,78.4
		c2.9-1.6,5.5-2.9,8-4.5c0.3-0.2-0.3-2.5-0.5-2.5c-2.8-0.2-5.7-0.7-8.4-0.1c-1.6,0.4-2.9,2.5-4.3,3.9
		C401.8,76.1,403.3,77.1,405.5,78.4z M412.8,66.6c1.6-1.6,2.8-2.8,3.9-3.9c-0.8-0.8-2-2.4-2.4-2.2c-1.6,0.7-3,1.9-4.4,2.9
		C410.7,64.3,411.5,65.2,412.8,66.6z"/>
	<path d="M388.9,89.3c-1.5-1.5-2.6-2.4-3.6-3.4c1.4-0.9,2.7-2.4,4.1-2.5c1.2-0.1,2.4,1.5,3.7,2.3C392,86.8,390.7,87.8,388.9,89.3z"
		/>
	<path class="st0" d="M363.6,191.3c3.6,1.9,7.2,3.3,10.1,5.5c3,2.4,2.1,5.4-1.6,6.7c-4.1,1.5-13-1.7-15-5.5
		c-0.5-0.9-0.6-2.7-0.1-3.1C358.8,193.6,361,192.6,363.6,191.3z M370.9,201.5c-2.1-5.7-5.3-6.9-10.5-4
		C363.5,198.7,366.7,199.9,370.9,201.5z"/>
	<path d="M370.9,201.5c-4.2-1.6-7.4-2.8-10.5-4C365.6,194.7,368.8,195.9,370.9,201.5z"/>
</g>
</svg>
