<?xml version="1.0" encoding="utf-8"?>
<!-- Generator: Adobe Illustrator 25.4.1, SVG Export Plug-In . SVG Version: 6.00 Build 0)  -->
<svg version="1.1" id="Calque_1" xmlns="http://www.w3.org/2000/svg" xmlns:xlink="http://www.w3.org/1999/xlink" x="0px" y="0px"
	 viewBox="0 0 741.6 1502.2" style="enable-background:new 0 0 741.6 1502.2;" xml:space="preserve">
<style type="text/css">
	.st0{fill:#FFFFFF;}
</style>
<g>
	<path d="M865-78.9c-5.2,6.7-5.6,6.7-15,0C855-78.9,860-78.9,865-78.9z"/>
	<path d="M171.9,1132.8c-24.4-115-38.2-231.7-57.6-346.1c-7.5,0.2-14.2,0.8-20.9,0.4c-7.3-0.4-12.6-5.2-16.4-10.9
		c-11-16.5-21.8-33.1-32.2-50c-7.9-12.9-12.8-26.9-16.5-41.7c-4.5-18.1-4-36.4-6.7-54.6c-1.8-12.3-2.9-24.7-3.6-37.1
		c-0.3-5.9,0.3-12,1.9-17.7c4.2-15.5,14.2-23.3,30.8-24.6C28.5,510.7,23.3,469,37.3,425.8c14.1-43.4,42.3-75.2,83.6-94.6
		c57.9-27.2,122.8-15.9,167.9,22.3c28.3,24,45.8,54.6,53.2,90.9c7.5,36.9,1.1,71.8-16.2,105.3c17.3,10,34.3,20,51.5,29.6
		c2,1.1,5.2,0.8,7.7,0.5c5.3-0.6,10.4-1.9,15.7-2.4c1.8-0.2,3.9,0.8,5.5,1.8c8.9,5.4,17.8,10.9,26.6,16.6c2.6,1.7,4.4,1.7,7.1-0.2
		c14.1-10,28.3-19.7,42.6-29.4c1.5-1,4-1.4,5.7-1c9.5,2.2,18.8,4.9,28.3,7.2c1.9,0.5,4.2,0.2,6.1-0.3c16-4.5,32-9.2,48-13.6
		c1.5-0.4,3.5,0.9,5.2,1.5c12.1,4.4,24.1,9.4,36.4,13.2c8.9,2.8,18.2,5,27.5,5.7c7.3,0.6,14.7-1.6,22.1-2.4c8.6-1,17.2-1.9,25.7-2.9
		c3.8-0.4,7.6-1.1,12.4-1.8c-1.3,2.4-2,3.9-2.9,5.2c-6.8,9.9-7,21.1-6.3,32.3c1.1,16.9,3.4,33.6,4.1,50.5c1.3,31-5.8,60.6-17.3,89.2
		c-11.7,29.3-26.4,57.1-41.5,84.7c-17.4,31.8-32,65-46.3,98.3c-10.4,24.1-24.6,45.3-46.2,60.9c-2.8,2-5.7,4.1-8.9,5.1
		c-6.6,2.2-7.9,7-7.7,13c0.4,11.6,0.5,23.3,1,34.9c1,22.8,7.8,44.4,15.2,65.8c1.4,4.1,2.9,8.2,4.5,12.3c0.2,0.5,1.1,0.8,1.6,1.2
		c11.5,10.7,26.2,15,40.2,20.9c13.3,5.6,27.3,9.2,40.9,14c14,4.9,28,9.7,41.9,14.8c24.6,9,46.6,22.1,64.6,41.5
		c0.8,0.9,1.5,1.8,2.3,2.6c3.4,3.5,3,6.2-0.5,10c-12.4,13.6-24.4,27.7-36.5,41.7c-12.3,14.2-24.6,28.4-37,42.5
		c-13.6,15.5-27.2,31-40.8,46.5c-7.8,8.9-15.7,17.7-23.6,26.4c-0.9,1-2.5,1.5-3.8,2c-17.6,5.4-35.3,10.6-52.8,16.2
		c-2.7,0.9-5.5,2.4-7.5,4.4c-7.6,7.5-14.5,15.7-22.6,22.6c-3.4,2.9-8.9,3.7-13.6,4.7c-13.8,2.9-27.9,4.9-41.6,8.5
		c-6.8,1.8-13.1,6.1-19.4,9.6c-28,15.6-56,31.3-84,46.9c-0.7,0.4-1.5,0.6-2.9,1.2c-9.3-11.1-18.7-22.3-28.1-33.5
		c-2.5-2.9-5.1-5.7-7.3-8.8c-2.9-4.1-7.5-4.4-11.7-5.6c-7.1-2-14.4-3.6-21.3-6.2c-47.7-17.7-84.8-48-111.6-91.4
		c-11.6-18.8-25.3-36.2-38.2-54.1c-1-1.3-2.9-2.2-4.5-2.8c-14.3-5.2-28.6-10.3-42.9-15.6c-2.7-1-5.4-2.7-7.3-4.8
		c-7.8-8.4-15.3-17.1-22.8-25.8c-1.3-1.5-2.3-3.2-3.4-4.9c-6.2-10.2-6-12,2.2-20.6c22-23.1,46.9-42.9,72.2-62.1
		C142.6,1154.9,157.2,1143.9,171.9,1132.8z M173,1141c-1.4,1-2.9,1.9-4.3,3.1c-18.6,15.1-37.6,29.7-55.6,45.4
		c-17.1,15-33.2,31.2-49.7,46.9c-2.1,2-2.5,4.1-0.9,6.5c7,10.1,13.7,20.3,21.1,30.1c2,2.7,5.5,4.7,8.7,5.9
		c13.9,5.3,27.9,10.1,41.9,15.2c1.6,0.6,3.5,1.4,4.5,2.8c13.8,18,28.4,35.6,41,54.4c19.5,29.2,43.8,52.9,74.7,69.5
		c11.2,6,22.9,11.5,34.9,15.8c8.5,3.1,17.8,3.9,26.7,5.5c3.6,0.6,6.3,1.9,8.8,4.9c9.5,11.4,19.4,22.5,28.8,33.9c2.2,2.7,3.9,3,7,1.5
		c26.1-12.4,52.3-24.7,78.5-37c5.3-2.5,10.4-5.7,15.9-6.9c16.5-3.8,33.2-6.8,49.8-10.3c2.3-0.5,4.9-2.1,6.3-4
		c6.2-8.3,11.8-16.9,18-25.2c1.8-2.3,4.5-4.5,7.2-5.5c16.8-5.9,33.7-11.3,50.5-17.1c3.1-1.1,6.4-3,8.6-5.4
		c45.1-47.7,90.1-95.5,135.1-143.3c1.2-1.3,2.3-2.6,4.2-4.8c-1.8-1.4-3.4-2.4-4.8-3.6c-1.9-1.6-3.7-3.4-5.6-5
		c-18.9-16-40.9-25.8-64.2-33.4c-25.9-8.4-52-16.5-77.7-25.6c-10.3-3.7-19.9-9.4-29.6-14.7c-9.6-5.3-16.8-13-19.9-23.7
		c-3.6-12.8-7.5-25.6-10.1-38.6c-3.3-17-6-34.2-5.1-51.7c0.4-7.1,1-14.2,1.6-21.5c-4.7,0.7-9.1,1.3-13.6,2.1
		c-13.8,2.6-27.7,1.5-41.2-0.9c-14.6-2.6-28.8-7.1-43-11.3c-42.9-12.7-85.9-25.4-127.2-43c-10.5-4.5-21-9.1-31.4-13.9
		c-24.5-11.3-48.6-23.1-70-39.8c-21.2-16.6-37.5-36.7-44.5-63.2c-3-11.4-3.8-22.8-1.6-33.5c1.8,8.1,3,17,5.8,25.4
		c9.9,30.5,30.8,52.5,56.9,69.6c32.3,21.2,68.1,35.6,103.7,50c46.3,18.7,94.3,32,142.1,45.9c18.4,5.4,37.3,8.4,56.4,2.6
		c18.1-5.5,35.2-13,46-29.2c8.9-13.3,16.8-27.5,23.9-41.9c13.1-26.3,24.9-53.3,37.9-79.6c15.5-31.4,32.6-62.2,47.5-93.9
		c17-36.1,23.3-74.3,19-114.2c-2.1-19-5.4-38.2,2.5-57.4c-8.6,5.3-17.9,4.5-27.1,5.5c-5.8,0.6-11.4,3.2-17.1,4.8
		c-1.3,0.4-3,0.6-4.2,0.2c-17.7-6.3-35.3-12.8-53.1-19c-7.2-2.5-13.6-8.2-22.4-5.3c-6.9,2.3-9.2,3.5-8,10.8
		c1.8,10.9,4.1,22,8.1,32.3c6,15.4,14.4,29.8,20.3,45.2c4.2,11,5.8,22.9-3.2,33.3c-0.7,0.9-0.8,2.4-0.9,3.7c-0.2,3.5,0.2,7-0.4,10.4
		c-1.6,9.6-3.5,19.1-10.7,26.3c-1.9,1.9-4.7,2.9-7.1,4.3c13.1-10,11.9-24.6,14-38.9c-1.8,0.9-2.8,1.5-3.8,1.9c-1,0.3-2,0.4-3.2,0.7
		c0.1-0.6,0-0.8,0.1-1c1.1-1.4,2.3-2.8,3.4-4.3c9-12,9.4-24.9,3.4-38.2c-4.5-10.1-9.2-20.1-13.7-30.3c-2.1-4.7-3.2-9.9-6-14
		c-4.6-7-6.7-14.5-6.8-22.7c0-5.4,0-10.8,0-16.6c-8.8,3.5-17.5,7.1-26.3,10.3c-2.8,1-6.1,1.3-9,1c-8.4-1.1-16.7-2.9-25.1-4
		c-2.1-0.3-4.6,0.5-6.5,1.6c-14.7,8.4-29.4,16.9-43.9,25.5c-2.5,1.5-4.3,1.5-6.7,0c-6.4-4.2-13.4-7.6-19.3-12.3
		c-7.8-6.1-15.4-7.9-24.3-2.6c-2.4,1.4-5.3,1.8-7.8,3.1c-2.6,1.3-4.7,1.1-7.3-0.4c-19.5-11.8-39-23.5-58.6-35.1
		c-3-1.8-6.6-3-10.1-3.6c-5.2-0.9-10.6-0.7-15.9-1.4c-12.9-1.7-26.2-0.5-38.2-7.5c-8.7-5-18.2-8.6-27.3-13.1
		c-2.5-1.3-4.1-0.9-6.1,0.8c-7.3,6.1-14.5,12.2-22.1,17.9c-2.3,1.7-5.7,2.8-8.5,2.7c-5.4-0.1-10.8-1.2-16.3-2
		c-18.9-2.5-37.8-5.1-56.8-7.3c-2.4-0.3-5.5,1-7.3,2.6c-7.1,6.5-13.7,13.5-21,20.7c13.7,11.6,27.8,23.6,34.1,36.5
		c-4.2-3.7-11.5-10.2-18.9-16.7c-13.1-11.4-26.9-21.2-44.6-24.4c-14.2-2.6-27.3,7.5-28.3,22.2c-0.8,12.7,0.2,25.6,0.8,38.4
		c0.7,13.9,1.6,27.8,2.9,41.7c0.8,9.2,1.3,18.6,3.8,27.4c3.1,10.9,7.3,21.6,13.8,31.2c10.7,15.8,21,32,31.6,47.9
		c7.2,10.8,14.2,13.7,26.8,10.8c5-1.1,9.7-3.2,14.5-5c1.9-0.7,3.8-1.6,5.7-2.3c-0.2,1.5-0.8,2.4-1.6,2.9c-5,2.9-6,7-4,12.2
		c0.3,0.8,0.3,1.6,0.5,2.4c5.2,30.2,10.5,60.4,15.5,90.7c3.4,20.6,6.5,41.3,9.6,62c3.2,20.8,6.3,41.7,9.4,62.5
		c2.1,14.4,4,28.8,6.3,43.1c1.9,11.9,4.5,23.7,6.7,35.6c5.9,32,11.7,64,17.6,96.1c1.4,7.6,2.6,15.3,3.8,23c-0.6,0.1-1.2,0.3-1.8,0.4
		C184.7,1182.9,178.9,1162.2,173,1141z M131.8,395.6c0.1,0.6,0.2,1.2,0.3,1.8c-2.5,0.4-5.2,1.5-7.6,1c-7.3-1.3-11.4-7.7-10.9-15.6
		c1.1-15.8,19.1-27.5,35-22.9c20.7,6,27.7,30.5,13.3,47.5c-11.2,13.3-26.1,19.4-43.1,19.7c-25.4,0.4-39.3-20.1-28.5-43
		c13.5-28.4,35.9-47.3,66.5-55.3c18.8-4.9,32.2,4.2,36,23.1c3.8,19.1,2.1,37.7-4,56.1c-14.1,42.5-54.8,68-97.5,60.8
		c-16.1-2.7-30.2-9.7-40-23.2c-3.6-5-5.6-11.1-9-18c-2,11.6-3.9,22.4-5.5,33.2c-0.4,2.9-1,6.3,0.1,8.8c4.9,11.2,12.1,20.6,24.9,23.2
		c6.8,1.4,13.9,2.1,20.8,1.6c23.9-1.7,46.1-8.7,66.2-22.2c27.1-18.2,46.3-42.5,56.1-73.6c4.7-15,7.1-30.7,11.1-46
		c2.2-8.4,5.5-16.5,8.3-24.9c-0.6-0.2-1.2-0.5-1.8-0.7c-49.2-10.8-93.4-0.5-132.4,31.3c-6.1,5-13.4,10.3-16.5,17.1
		c-11,24-6.4,46.9,20.9,59.8c2.5,1.2,5.3,2.2,7.5,3.9c4.5,3.7,3.6,10-1.4,11.7c-9.5,3.1-26.5-2.2-33.7-11.1c2,0.9,3.3,1.6,4.6,2
		c6.3,1.8,12.6,4,19.1,5.2c2.9,0.5,8.8-0.6,8.9-1.5c0.6-4.7-4.3-4.5-7.2-5.7c-19.8-8.1-30.7-25.4-29.2-46.8c0.1-1.2,0-2.4,0-3.7
		c-4.2,5.1-7.6,10.6-10.5,16.2c-6.4,12.3-4.1,28.4,5.6,38.5c16.4,16.9,37,21.5,59.2,17.5c35.7-6.4,56.8-29.2,66.6-63.2
		c4.5-15.9,5-32.2,1.1-48.4c-2.5-10.3-9.1-15-19.5-15c-10.4-0.1-19.5,4-28.2,9c-19.4,11-34.7,25.9-42.6,47.1
		c-5.1,13.9,1.9,26.2,16.4,29c5.7,1.1,12,1,17.8-0.1c13-2.4,24.3-8.4,31.7-19.8c7.3-11.2,4.2-25.5-6.8-33.1
		c-10-6.9-24.4-4.4-32.2,5.6c-3.9,5-5.6,10.7-3,16.8C121.1,395.4,126.5,395.6,131.8,395.6z M110.1,531.6c8.4,1.5,15.5,2.9,22.6,4
		c6.7,1,13.4,1.7,20.2,2.4c10.2,1.1,20.4,1.8,30.5,3.2c4.2,0.6,7.7,0.8,11.2-1.7c7.6-5.4,15.4-10.6,23.1-15.9c2.8-1.9,6.1-3.5,8.2-6
		c8.9-10.4,17.9-20.8,26-31.7c9.7-13.1,18.5-26.9,22.8-43c2.6-9.7,7.3-19,8.6-28.8c2.2-16.7,2.5-33.7,3.6-50.5
		c0.1-1.1-0.2-2.5-0.9-3.2c-8.2-7.7-17.4-14-28.8-19.7c7.9,20.6,5.3,40.5,3.4,60.2c-1.8,19.8-11.8,36.1-26.5,48.9
		c-7.8,6.7-16.7,12.4-25.8,17.3c-13.1,7-26.9,12.5-40.1,19.3c-16.5,8.5-32.4,18.1-46.7,30.1c-2.8,2.3-5.4,5-7.7,7.8
		C112.2,526.1,111.5,528.7,110.1,531.6z M82.4,555.5c7.2-6.4,14.7-12.9,21.9-19.5c0.9-0.8,1.6-2.4,1.5-3.6
		c-0.8-8.6,4.4-14.2,10.3-18.9c7.5-6,15.4-11.5,23.4-16.7c11.3-7.3,22.9-14.3,34.6-21c5.4-3.1,11.5-4.9,17-7.7
		c3-1.5,5.4-4.9,8.6-5.7c10.6-2.8,18.9-9,26.7-16.1c4.9-4.4,10.2-8.6,14.3-13.7c7.4-9.4,9.6-20.9,12.2-32.3
		c3.7-16.4,2.7-32.6,1.2-48.9c-1-10.4-4.9-17.6-16-19.3c-0.5-0.1-0.9-0.4-1.4-0.5c-6.6-2.3-7.4-2.5-9.4,4.2
		c-4.6,15.2-8.9,30.5-12.3,46.1c-11.6,54.1-43.6,90.6-94.8,110.1c-11.9,4.5-25,6.7-37.8,7.9c-16.6,1.6-32.3-1.4-43.3-16.1
		c-0.5-0.7-1.2-1.2-1.9-1.8c0.2,8.3,1.6,16.1,2.8,23.9c0.8,5,3.3,8,7.8,10.5c10.1,5.4,20.4,11,26.5,21.3
		C77.6,542.9,79.6,549.1,82.4,555.5z M327.9,418.7c-0.5,0-0.9,0.1-1.4,0.1c-3.4,19.4-14.9,34.1-27.2,48.4
		c-11.6,13.6-23.3,27-29.7,44.2c-3.3,8.8-7.7,17.2-11.9,26.5c3.6,0.9,6.8,2.1,10.2,2.4c8.8,0.7,17.6,1.1,26.4,1.3
		c1.5,0,3.5-1.3,4.4-2.6c4.2-6,7.6-12.5,12.1-18.2c5.5-6.9,12-12.9,17.7-19.6c4.5-5.3,9.4-10.5,9.4-18.2c0.1-15,0.4-29.9-4-44.5
		C332,431.9,329.9,425.3,327.9,418.7z M293,365.1c-0.5,0.2-0.9,0.5-1.4,0.7c0.9,29.6-1.9,58.4-12.9,86.5
		c-11.2,28.5-28.6,51.7-50.8,71.8c5.1,3,9.8,6.1,14.8,8.6c1.7,0.8,4.9,0.8,6.1-0.3c5.9-5.3,12.8-10.4,14.8-18.4
		c3-12.4,8.9-23.2,16.4-33.2c10-13.4,20.1-26.7,30.6-39.8c5.8-7.2,8.1-15.5,10.6-24.1c2-6.8,1.6-12.6-2.6-18.2
		c-2.5-3.4-4.8-6.9-7.3-10.3C305.2,380.6,299.1,372.9,293,365.1z M335.9,506.1c-0.7-0.3-1.4-0.7-2.1-1
		c-10.2,11.7-22.7,21.6-28.8,36.2c5.4,1.4,10.2,2.7,16.3,4.3"/>
	<path d="M405.3,96.9c15.9,0.8,31,1.1,46.1,2.4c8.7,0.8,17.3,2.8,25.7,5c4.5,1.2,8.4,4,8.9,9.5c0.6,5.7-2.3,9.7-7,11.5
		c-11.6,4.6-23.3,9.1-35.3,12.5c-11.3,3.2-22.9,4.8-34.4,7.4c-1.3,0.3-3,2.3-3.3,3.7c-5.6,25.2-17.1,47.3-35.8,65.3
		c-19.7,18.9-43.1,30.6-70.4,33.9c-41.9,5-77.6-7.9-107-37.8c-11.9-12.1-20.6-26.4-26.4-42.3c-1.1-3.1-2.6-3.8-5.7-4
		c-10.3-0.4-20.6-0.9-30.8-2.1c-8.8-1-17.5-3-26.2-4.9c-2.6-0.6-5.2-2.2-7.3-4c-4.9-4.2-5.4-10.8-0.2-14.6
		c5.4-3.9,11.6-7.3,17.9-9.1c13.6-4,27.5-6.9,41.3-10c2.7-0.6,3.5-1.5,3.6-4.1c3.2-55.5,46.1-103.8,101-113.1
		c43.8-7.4,81.8,4.4,113.2,35.9c15.2,15.2,25.1,33.6,30.8,54.3C404.4,93.9,404.9,95.5,405.3,96.9z M180.9,62.1
		c15.3,1.1,29.5,2,43.7,3c-11.6,1.1-23.2,1.3-34.8,1c-12.3-0.4-12.2-0.7-16.6,11c-0.2,0.4-0.1,1-0.3,2.2c11.3,1.2,22.6,2.4,33.8,3.6
		c-1.5,1.5-3.1,2.3-4.7,2.3c-7.6-0.3-15.4-0.3-22.9-1.3c-10.2-1.4-7.8-1-10.7,6.9c-0.2,0.5-0.3,1-0.3,1.4
		c-1.4,10.2-2.6,20.4-4.2,30.5c-2,11.7,0,14.8,11.2,16.2c1.3,0.2,2.7,0.2,4,0.3c9.4,0.5,18.8,0.9,28.2,1.4c0,0.3,0,0.6,0,0.9
		c-13.9,0-27.8,0-41.7,0c0.5,9.2,0.6,9.5,9.2,9.3c25.1-0.7,50.3-1.1,75.4-2.5c26.4-1.5,52.8-3.6,79.2-6.3
		c23.3-2.4,46.5-5.9,69.8-9.1c1.3-0.2,3.3-1.9,3.5-3.1c0.5-3.5,0.2-7.1,0.2-11.4c-47.8,18.4-97.1,21.8-145.9,21.8
		c28.4-3.2,58-5.6,87.2-10.3c18.4-2.9,36.3-9.2,54.4-14.2c1.5-0.4,3.7-2.1,3.7-3.1c-0.1-4.4-0.9-8.8-1.4-13.4
		c-53.4,23.2-108.2,29-164.7,22.7c34.8,0.8,69.5-0.6,103.8-7.6c19.1-3.9,37.7-9.4,55.6-17.3c1.5-0.7,3.7-2.8,3.5-3.8
		c-0.8-4.2-2.4-8.2-3.7-12.4c-29.4,12.5-59.5,17.8-90.5,18.3c30.1-4.8,60.3-9.2,89-22c-1.5-3.1-2.7-5.7-3.6-7.6
		c-15.8,3.9-30.9,7.7-46,11.5c-0.1-0.3-0.1-0.5-0.2-0.8c14.6-4.7,29.2-9.4,44.4-14.3c-2-3.4-3.5-5.4-4.5-7.6
		c-1.5-3.1-3.3-3.4-6.7-2.2c-10.9,3.9-21.9,8-33.1,10.6c-13.9,3.2-28.1,4.9-42.1,7.3c-0.1-0.5-0.2-1-0.3-1.5
		c26.4-4,52.4-9.4,77.3-21.1c-1.9-2.4-3.4-4.1-4.7-6c-1.7-2.4-3.7-2.6-6.5-1.9c-18.5,4.5-37.1,9.1-55.8,12.9
		c-11.1,2.2-22.5,2.9-33.8,4.3c15.1-3.5,30.4-5.8,45.5-9.1c14.9-3.3,29.6-7.5,45.7-11.7c-3.9-3.6-6.5-5.9-8.9-8.3
		c-2.4-2.4-4.7-2.7-8-1.4c-5.9,2.3-11.9,4.3-18.1,5.6c-8.2,1.7-16.6,2.7-24.9,4c7.1-2.6,14.5-3.9,21.7-5.9c7.2-2,14.3-4.7,22.1-7.3
		C312-4.6,252.2-1.9,216.9,25c10.4,0.5,19.6,1.3,28.9,1.4c9.3,0.1,18.7,0,27.9-0.9c9-0.9,17.9-2.8,26.9-4.3c0.1,0.6,0.2,1.1,0.2,1.7
		c-14,2.1-28,5.1-42,6c-14.1,0.9-28.2-0.4-42.4-0.7c-2.1,0-4.7-0.2-6.1,0.9C198.7,37.6,189.3,48.2,180.9,62.1z M231.8,204.1
		c1.3,0,2.6,0,4,0c20.5-0.3,41,0.3,61.4-1c29.9-1.9,58.8-8.5,86.5-20.3c6.3-2.7,7.4-8,10.1-14.2c-19.2,8.3-38,12.8-57.2,16.1
		c-18.2,3.1-52,5-55.5,3.7c18.4-2.5,38.9-4.8,59.3-8.2c18.4-3,36.2-8.7,53-16.9c1.7-0.8,2.9-2.8,4.9-4.7c-15.6,3.3-29.6,7-43.8,9.2
		c-14.1,2.1-28.5,2.6-42.8,3.8c-0.1-0.6-0.1-1.2-0.2-1.8c0.7-0.1,1.4-0.3,2.2-0.4c13.7-1.7,27.6-2.6,41-5.3
		c13.9-2.8,27.5-7.4,41.2-11.4c2.5-0.7,5.1-1.9,3.6-5.9c-75.6,11.8-151.6,18.1-228.6,17.5c1.1,2.8,2,4.7,2.5,6.8
		c2.2,8.4,7.8,12.6,16.3,13.7c11.8,1.5,23.6,3.1,33.5,4.4c-12.3,2.1-26.6,0.1-42-2.8c23.6,34.7,54.8,54,95.6,56.3
		c32.8,1.8,61.6-8.6,85.9-30.8c-21,6.9-42.3,11.9-64.6,11.1c3.5-0.8,7.2-1.2,10.8-1.7c22.4-3.3,44-8.9,63.6-20.5
		c4.2-2.5,7.1-7,10.6-10.6c-0.4-0.4-0.7-0.9-1.1-1.3C333.4,207.7,282.9,209.7,231.8,204.1z M159.1,124.8c-0.2-0.5-0.5-1-0.7-1.5
		c-0.9,0-1.9-0.2-2.8,0c-10.4,2.2-20.9,4.1-31.1,6.9c-7.8,2.2-15.4,5.3-22.7,8.8c-2.3,1.1-4.7,4.8-4.7,7.2c0,2.1,3.1,5.3,5.4,6.1
		c8.6,2.7,17.4,5.1,26.3,6.5c7.8,1.2,15.9,0.9,23.9,1.2c44.5,1.7,88.9-0.2,133.3-3.7c44.8-3.5,89.5-8.3,133.6-17.3
		c17.4-3.5,34.3-9,51.4-13.9c3.2-0.9,6.3-3.1,8.9-5.3c3.7-3.2,3.4-7.4-0.7-10c-2.9-1.8-6.3-3.1-9.6-3.8c-20.1-4.5-40.7-4.3-61.1-4.6
		c-0.5,0-1.1,0.5-1.6,0.8c-0.1,0.4-0.2,0.9-0.2,1.3c1.6,0.4,3.3,1.1,4.9,1.2c12.3,0.9,24.6,1.3,36.9,2.7c8.4,0.9,16.7,2.9,24.8,5
		c3.7,0.9,3.9,3.5,0.6,5.5c-3,1.8-6.2,3.4-9.5,4.2c-18.2,4.5-36.3,10-54.8,12.6c-39.5,5.7-79.2,10.4-118.9,14.5
		c-40.6,4.2-81.4,5.8-122.3,5.2c-11.3-0.2-22.5-1.1-33.7-2.1c-9-0.8-18-2-27-3.3c-1.3-0.2-3.5-2-3.4-2.7c0.2-1.7,1.3-4,2.7-4.7
		c3.9-2.1,8.1-3.9,12.4-5.1c11.5-3.2,23.1-6.1,34.7-9.2C155.8,126.7,157.4,125.6,159.1,124.8z M469.8,115.5c-20.4-6-41.4-6-62-7.3
		c0,8,0,15.4,0,23.4C429.3,127.6,450.2,124.2,469.8,115.5z M109.2,145.6c2.4,0.5,4.7,1.2,7.1,1.5c6.1,0.8,12.4,0.7,18.2,2.5
		c5.4,1.7,9.1,0.2,12.7-3.1c3.6-3.4,7.4-6.7,10.6-10.5c1.3-1.5,1.3-4.2,2.1-6.9C142,134.7,124.7,136.7,109.2,145.6z"/>
	<path d="M600.4,445c-12.1-0.4-23.5-2.8-34.2-9c-4.9-2.8-11.1-4.4-16.8-4.7c-12.3-0.7-20.7-6.7-23.5-18.8c-1.3-5.4-3.6-9.9-8.5-12.8
		c-19.1-11.4-25.6-29.6-26.3-50.5c-0.3-8.3-0.5-16.3-3.8-24.3c-2.6-6.4-2.4-13.5,0.7-20.3c2.2-4.7,2.5-10.5,5.3-14.7
		c4.1-6.1,9.8-11.2,14.6-16.8c1.5-1.8,3.9-4,3.8-5.9c-0.4-11,5.1-18.7,12.9-25.2c6.5-5.4,12.8-10.5,22.4-10.3
		c4.6,0.1,9.5-3.4,13.8-6.1c6.8-4.3,14-4.5,21.6-3.7c3.7,0.4,7.9,0.6,11.2-0.6c24.7-9.1,46.8-3.5,67.5,11.2c4.1,2.9,9,4.9,13.8,6.3
		c6.8,2.1,12.1,5.1,13.1,13c0.1,1.1,1.6,2.4,2.8,3c7.5,3.8,12.2,10,15.8,17.3c1.7,3.4,3.6,6.7,5.7,9.9c4.2,6.3,5.8,12.5,4.9,20.5
		c-1.1,10.4-0.4,21.2,0.9,31.6c1.6,12.6,0.1,23.8-8.3,33.6c-5.9,7-8.9,15.2-11.3,24c-1.5,5.5-4.6,11.1-8.5,15.3
		c-11.9,13.1-25.3,24.6-41.9,31.5c-4.6,1.9-9.8,2.9-14.8,3.5C622.5,443.3,611.4,444.1,600.4,445z M661.3,241
		c-19.1-14.6-39-22.8-62.9-14c-5.9,2.2-11.8,2.6-18.1,1.3c-7.6-1.6-14.5-0.1-20.7,5.3c-3.2,2.7-8,4.9-12.1,5
		c-10.9,0.1-17.4,7-23.6,14c-2.9,3.3-3.3,8.6-5,13c-1.4,3.6-2.2,7.7-4.6,10.5c-6.2,7-14.4,11.8-17.7,21.8
		c-3.1,9.2-5.3,17.9-2.4,27.5c1.8,6,2.7,12.2,3.6,18.4c1,7.2,1.1,14.6,2.3,21.8c0.8,4.3,3,8.4,4.6,13c8.6-7.1,14.4-7.7,20.7-3.1
		c5.6,4.2,7.7,11.3,5.1,17.1c-0.8-2.7-1.3-5.5-2.4-8c-2.7-6.3-9.2-9-14.7-6.4c-5.3,2.5-5.9,5.4-1.4,9.3c4.5,3.9,9.8,7,14,11.2
		c3.1,3,5.8,2.7,8.2,0.5c2-1.9,4.1-5.1,3.8-7.5c-0.5-5.4-2.5-10.6-3.7-15.4c4.9,3.8,8.6,9.1,7.5,16.7c-1,6.6-5.5,9.3-11.7,10.1
		c0.8,3.2,1.4,6.1,2.2,9c2.1,7.8,7.9,12.2,16,12.4c2.8,0.1,5.7,0.1,8.4,0.9c5.3,1.6,10.5,3.6,15.7,5.5c1.6-9.6,3.8-12.9,9.6-14.8
		c-5.4,6.7-6.9,13.3-4.1,17.7c1.7,2.7,10.7,4.6,14.8,3.2c-7.3-3.8-9.6-7.8-7.3-13c2.3-5.5,9.9-8.5,16.1-6.1
		c-1.4,0.2-2.4,0.2-3.3,0.5c-4.4,1.2-9.1,2.6-10,7.8c-0.8,4.9,3.3,6.7,6.8,8.8c1,0.6,1.4,2.2,2.5,4.2c9.7-1.1,20-3.6,30.1-3.2
		c12.9,0.4,23.1-5,33.2-11.5c3.1-2,5.9-4.5,9.2-7c-7.1-4.8-9.6-10.7-7-18.2c3-9,8.6-15.4,19.3-18.3c-3.5,3.8-6.2,6.6-8.7,9.7
		c-3.4,4.3-5.8,9-5,14.7c0.6,4.7,5.6,8.1,8.3,5.5c5-4.8,9.5-10.2,13.8-15.5c0.9-1.1,0.5-3.3,0.6-5c-2,0.2-4.3-0.2-6,0.6
		c-2.5,1.2-4.6,3.3-7.6,5.6c4.1-9.6,7.4-11.9,15.9-11.6c1.5-9.2,7.4-16.1,12.7-23.3c4.3-5.8,6.5-12.1,5.1-20.4
		c-2.5,2.1-4.4,3.7-6.4,5.4c0.6-2.9,1.7-5.3,3.6-7c2.3-2.1,3-4.1,2.5-7.3c-1.8-11.2-2.6-22.4-0.5-33.8c0.6-3.2-1.1-7.1-2.6-10.2
		c-2-4.3-5.1-8.2-7.2-12.5c-3.3-6.6-7.7-11.8-14.2-15.6c-2.5-1.4-4.7-4.7-5.4-7.5c-0.8-3.4-2.4-5.4-5.4-6.4
		c-4.1-1.4-8.2-2.5-12.4-3.7c-0.4-0.1-1,0-1.4,0c0.1,1,0.3,1.9,0.5,3.2c-3.2-0.3-6-0.6-8.9-0.9c-0.1-0.5-0.2-1-0.3-1.5
		C655.9,242.6,658.3,241.9,661.3,241z"/>
	<path d="M373,311c-5,1-9.9,2.4-15,3c-5.4,0.6-7,3.8-7,8.4c0,9.5,0,18.9,0,28.4c-0.7,0.1-1.3,0.1-2,0.2c-1.3-6.4-2.7-12.7-4-19.1
		c-0.6-2.9-1.5-5.8-1.7-8.7c-0.2-6.2-4.2-7.6-9.3-8.1c-4.1-0.4-8.2-0.9-12.5-2.3c5-1.5,9.9-3.3,15-4.6c3.4-0.9,5.1-2.8,5.4-6.2
		c0.7-8.4,1.5-16.9,3-25.4c1.3,6.4,2.8,12.7,4,19.1c1.9,10.5,1.8,10.5,12,12.3c4,0.7,8,1.5,12,2.3C373,310.6,373,310.8,373,311z"/>
	<path d="M473.6,509.6c0-10-0.2-19.3,0.1-28.6c0.1-4.6-1.1-7.5-5.8-8.9c-4.7-1.4-9.2-3.3-13.7-5.7c5.2-0.4,10.4-1,15.6-1.1
		c4,0,6.1-1.9,7.2-5.4c2.4-7.4,4.8-14.8,8-22c0,7.4,0.3,14.8-0.1,22.2c-0.2,4.6,1.5,7,5.6,8.7c4.9,1.9,9.6,4.3,14.2,7.5
		c-4-0.2-7.9-0.4-11.9-0.7c-8.7-0.7-9.6-0.1-11.8,8.1C478.6,492,476.2,500.4,473.6,509.6z"/>
	<path d="M58.4,211.8c1.2,6.9,2.5,13.8,3.6,20.8c0.6,4.3,2,7.4,7.1,8.1c5.2,0.7,10.2,2.3,15.2,4.4c-4.8,0.7-9.6,1.6-14.5,2.2
		c-5.3,0.6-6.6,4-6.8,8.7c-0.5,9.1-1.3,18.2-2.7,27.3c-1.7-9.6-3.6-19.1-5-28.7c-0.7-4.6-3.2-6.1-7.3-6.4c-3.5-0.3-6.9-1.2-9.8-1.7
		c5.6-4.7,12.8-8.3,16.1-14.1c3.3-5.7,2.6-13.6,3.7-20.6C58,211.7,58.2,211.7,58.4,211.8z"/>
	<path d="M695.4,477.4c1.7,8.8,3.4,16,4.4,23.4c0.5,4,2.9,5.3,6.1,6.1c5.3,1.3,10.6,2.4,16,4.7c-5.1,0.7-10.2,2-15.3,2
		c-4.2,0-5.9,1.8-6.3,5.3c-0.5,4.4-0.5,8.9-0.8,13.4c-0.4,6.1-1,12.2-2.5,18.5c-1.1-8.3-2.3-16.6-3.3-24.9
		c-1.3-10.7-1.6-11.6-12.1-12.2c-3.6-0.2-7.2-1-10.8-2.4c5.4-1.2,10.7-2.5,16.1-3.5c3.8-0.7,5.3-3,5.7-6.5
		C693.4,493.9,694.3,486.4,695.4,477.4z"/>
	<path d="M530.4,122.9c6.3-1.8,11.1-3.6,16.1-4.5c4.9-0.9,6-4,6.4-8.1c0.7-7.1,1.4-14.2,2.2-21.3c0-0.4,0.4-0.7,1.2-2.1
		c1.4,7.5,2.7,14.1,3.7,20.6c1.2,8.2,1.8,9,9.8,10.6c4.5,0.9,8.9,1.9,13.3,3.8c-4.7,0.8-9.5,1.5-14.2,2.3c-4.1,0.7-7.1,2-7.2,7.1
		c-0.2,8.1-1.1,16.2-1.7,24.3c-0.1,1.4-0.3,2.9-1.5,4.4c-1.2-6.3-2.4-12.6-3.5-18.9c-3.2-17.9-0.7-14.1-18.2-17
		C535.2,123.9,533.6,123.5,530.4,122.9z M557.4,128.4c1.7-2.4,3.6-5,5.3-7.4c-2.1-2.2-4.1-4.3-5.9-6.2c-1.9,2.4-3.9,4.8-5.6,6.8
		C553.3,124,555.5,126.3,557.4,128.4z"/>
	<path d="M453.6,232.1c-3.8-0.3-6.1-3.1-5.8-7.2c0.3-3.7,3.4-6.2,7.2-5.8c3.6,0.4,6.3,3.7,5.9,7.3
		C460.6,230.1,457.6,232.4,453.6,232.1z"/>
	<path d="M48.9,146.8c3.6,0,6.7,3,6.6,6.6c0,3.5-3.1,6.7-6.6,6.7c-3.5,0.1-7.1-3.6-6.9-7C42.2,149.4,45.1,146.8,48.9,146.8z"/>
	<path d="M156,293.3c-0.1,3.3-3.6,6.8-6.8,6.7c-3.7-0.2-6.4-3.1-6.3-7c0.1-3.7,3.1-6.8,6.6-6.7C152.8,286.4,156,289.9,156,293.3z"/>
	<path d="M376.3,485.2c-3.9-0.1-6.4-2.8-6.3-6.7c0.1-3.9,2.9-6.4,6.8-6.3c3.9,0.1,6.4,2.7,6.3,6.8
		C382.9,482.9,380.3,485.3,376.3,485.2z"/>
	<path d="M6.5,524.8C3,524.7-0.1,521.5,0,518c0.1-3.4,3.5-6.8,6.8-6.7c3.6,0.1,6.4,3.1,6.4,6.9C13.1,521.9,10.2,524.8,6.5,524.8z"/>
	<path d="M443.3,23.3c-3.8,0-6.6-2.7-6.6-6.5c0-3.7,2.9-6.7,6.5-6.7c3.5,0,6.8,3.2,6.8,6.6C450,20.5,447.1,23.3,443.3,23.3z"/>
	<path d="M617.2,187.7c-5.3-0.3-9.2-3.9-9.1-6.9c0.2-3.3,3.8-6.6,7.1-6.5c3.1,0.1,7,4.6,6.1,8.1
		C620.7,184.6,618.2,186.4,617.2,187.7z"/>
	<path d="M448,66.8c-2.3-2.8-4.7-4.4-4.7-6.1c0-1.5,2.5-4.1,4-4.2c1.4-0.1,4.1,2.3,4.3,3.9C451.9,61.9,449.8,63.8,448,66.8z"/>
	<path d="M125.7,72.2c-1-1.7-2.9-3.5-2.7-5.2c0.1-1.4,2.8-3.9,3.8-3.6c1.7,0.4,3.9,2.5,4.1,4c0.2,1.5-2,3.3-3.1,4.9
		C127.1,72.3,126.4,72.3,125.7,72.2z"/>
	<path d="M211,298.4c-1-1.7-2.9-3.5-2.8-5.2c0.1-1.4,2.6-4,3.7-3.8c1.7,0.3,4.2,2.4,4.3,3.9c0.2,1.6-2,3.4-3.2,5.1
		C212.3,298.4,211.7,298.4,211,298.4z"/>
	<path d="M574.9,512c1.9,3,4.1,4.9,3.8,6.3c-0.3,1.5-2.9,3.5-4.6,3.6c-1.3,0.1-3.9-2.6-3.8-3.9C570.5,516.3,572.6,514.8,574.9,512z"
		/>
	<path d="M164.9,271.5c-2.2-3-4.5-4.8-4.3-6.3c0.2-1.5,2.7-3.6,4.4-3.9c1.1-0.2,3.7,2.3,3.8,3.7
		C168.8,266.7,166.8,268.4,164.9,271.5z"/>
	<path d="M396.4,524.2c-2.1-3-4.4-4.9-4.1-6.3c0.3-1.6,2.8-3.6,4.6-3.9c1.2-0.2,3.8,2.5,3.8,3.9
		C400.7,519.6,398.6,521.3,396.4,524.2z"/>
	<path d="M420.3,233.4c1,1.7,2.9,3.5,2.8,5.1c-0.1,1.4-2.7,3.9-3.9,3.7c-1.6-0.3-3.8-2.4-4-4c-0.2-1.4,1.9-3.2,3.1-4.8
		C418.9,233.4,419.6,233.4,420.3,233.4z"/>
	<path d="M31.9,343c3.3-1.9,5.1-3.9,6.7-3.8c1.5,0.1,2.9,2.4,4.3,3.8c-1.5,1.5-2.9,3.9-4.5,4.1C36.9,347.3,35.1,345.1,31.9,343z"/>
	<path d="M429.6,369.2c-2.7,2.1-4.3,4.1-6.1,4.4c-1.1,0.2-2.6-2.2-4-3.4c1.6-1.6,2.9-3.7,4.8-4.6
		C425.1,365.3,427.1,367.5,429.6,369.2z"/>
	<path d="M696.7,441.5c-2.1,1.7-3.4,3.6-5,3.7c-1.1,0.1-3.6-2.3-3.4-3.2c0.3-1.5,2-3.5,3.4-3.9C692.8,437.9,694.5,439.9,696.7,441.5
		z"/>
	<path class="st0" d="M173,1141c5.9,21.2,11.7,42,17.5,62.7c0.6-0.1,1.2-0.3,1.8-0.4c-1.3-7.7-2.4-15.4-3.8-23
		c-5.8-32-11.7-64-17.6-96.1c-2.2-11.9-4.7-23.7-6.7-35.6c-2.3-14.3-4.2-28.8-6.3-43.1c-3.1-20.8-6.2-41.7-9.4-62.5
		c-3.2-20.7-6.2-41.3-9.6-62c-5-30.2-10.3-60.4-15.5-90.7c-0.1-0.8-0.2-1.7-0.5-2.4c-2-5.2-1-9.3,4-12.2c0.8-0.5,1.3-1.4,1.6-2.9
		c-1.9,0.8-3.8,1.6-5.7,2.3c-4.8,1.7-9.6,3.8-14.5,5c-12.6,2.9-19.6,0-26.8-10.8c-10.6-15.9-20.8-32.1-31.6-47.9
		c-6.5-9.6-10.7-20.3-13.8-31.2c-2.5-8.8-2.9-18.2-3.8-27.4c-1.2-13.9-2.2-27.8-2.9-41.7c-0.6-12.8-1.6-25.7-0.8-38.4
		c0.9-14.7,14.1-24.8,28.3-22.2c17.7,3.2,31.5,13,44.6,24.4c7.4,6.4,14.7,13,18.9,16.7c-6.3-13-20.4-25-34.1-36.5
		c7.2-7.2,13.9-14.2,21-20.7c1.8-1.6,5-2.9,7.3-2.6c19,2.2,37.9,4.8,56.8,7.3c5.4,0.7,10.8,1.8,16.3,2c2.9,0.1,6.2-1,8.5-2.7
		c7.6-5.7,14.8-11.8,22.1-17.9c2-1.7,3.6-2.1,6.1-0.8c9,4.5,18.6,8.1,27.3,13.1c12,7,25.3,5.8,38.2,7.5c5.3,0.7,10.7,0.5,15.9,1.4
		c3.5,0.6,7.1,1.8,10.1,3.6c19.6,11.5,39.1,23.3,58.6,35.1c2.6,1.6,4.6,1.8,7.3,0.4c2.5-1.3,5.4-1.7,7.8-3.1
		c8.8-5.3,16.5-3.5,24.3,2.6c6,4.7,12.9,8.1,19.3,12.3c2.4,1.5,4.2,1.5,6.7,0c14.5-8.7,29.2-17.2,43.9-25.5c1.9-1.1,4.4-1.8,6.5-1.6
		c8.4,1.1,16.7,2.9,25.1,4c2.9,0.4,6.2,0,9-1c8.8-3.2,17.5-6.8,26.3-10.3c0,5.8,0,11.2,0,16.6c0,8.2,2.2,15.7,6.8,22.7
		c2.7,4.2,3.9,9.4,6,14c4.5,10.1,9.2,20.2,13.7,30.3c6,13.4,5.7,26.2-3.4,38.2c-1.1,1.5-2.3,2.9-3.4,4.3c-0.1,0.1-0.1,0.3-0.1,1
		c1.2-0.2,2.2-0.3,3.2-0.7c1-0.4,2-0.9,3.8-1.9c-2.1,14.3-0.9,28.9-14,38.9c2.4-1.4,5.2-2.4,7.1-4.3c7.2-7.2,9.1-16.8,10.7-26.3
		c0.6-3.4,0.2-6.9,0.4-10.4c0.1-1.2,0.2-2.8,0.9-3.7c9-10.4,7.4-22.3,3.2-33.3c-5.9-15.4-14.3-29.8-20.3-45.2
		c-4-10.3-6.3-21.4-8.1-32.3c-1.2-7.3,1.1-8.5,8-10.8c8.8-2.9,15.2,2.8,22.4,5.3c17.8,6.1,35.4,12.7,53.1,19
		c1.2,0.4,2.9,0.2,4.2-0.2c5.7-1.6,11.3-4.2,17.1-4.8c9.1-0.9,18.5-0.2,27.1-5.5c-7.8,19.2-4.5,38.4-2.5,57.4
		c4.3,39.9-2,78.1-19,114.2c-15,31.7-32,62.4-47.5,93.9c-13,26.4-24.8,53.3-37.9,79.6c-7.1,14.4-15,28.5-23.9,41.9
		c-10.8,16.2-27.9,23.7-46,29.2c-19.1,5.8-38.1,2.7-56.4-2.6c-47.8-13.9-95.8-27.3-142.1-45.9c-35.7-14.4-71.4-28.7-103.7-50
		c-26.2-17.2-47.1-39.1-56.9-69.6c-2.7-8.4-4-17.4-5.8-25.4c-2.1,10.7-1.4,22.1,1.6,33.5c7,26.6,23.3,46.6,44.5,63.2
		c21.4,16.7,45.5,28.5,70,39.8c10.4,4.8,20.9,9.4,31.4,13.9c41.3,17.6,84.3,30.3,127.2,43c14.2,4.2,28.5,8.7,43,11.3
		c13.5,2.4,27.4,3.5,41.2,0.9c4.4-0.8,8.9-1.4,13.6-2.1c-0.5,7.3-1.2,14.4-1.6,21.5c-0.9,17.5,1.7,34.7,5.1,51.7
		c2.5,13,6.4,25.8,10.1,38.6c3.1,10.8,10.3,18.4,19.9,23.7c9.6,5.3,19.3,11.1,29.6,14.7c25.7,9.1,51.8,17.2,77.7,25.6
		c23.3,7.6,45.3,17.4,64.2,33.4c1.9,1.6,3.7,3.4,5.6,5c1.4,1.2,2.9,2.2,4.8,3.6c-1.9,2.2-3,3.5-4.2,4.8
		c-45,47.8-90,95.6-135.1,143.3c-2.3,2.4-5.5,4.3-8.6,5.4c-16.8,5.9-33.7,11.3-50.5,17.1c-2.7,1-5.4,3.1-7.2,5.5
		c-6.2,8.2-11.8,16.9-18,25.2c-1.4,1.9-4,3.5-6.3,4c-16.6,3.6-33.3,6.5-49.8,10.3c-5.6,1.3-10.7,4.5-15.9,6.9
		c-26.2,12.3-52.4,24.5-78.5,37c-3.1,1.5-4.8,1.2-7-1.5c-9.5-11.4-19.4-22.5-28.8-33.9c-2.4-2.9-5.2-4.2-8.8-4.9
		c-9-1.6-18.3-2.5-26.7-5.5c-12-4.3-23.7-9.8-34.9-15.8c-30.9-16.6-55.2-40.3-74.7-69.5c-12.6-18.9-27.2-36.4-41-54.4
		c-1-1.3-2.9-2.2-4.5-2.8c-13.9-5.1-28-9.9-41.9-15.2c-3.2-1.2-6.7-3.2-8.7-5.9c-7.3-9.8-14.1-20.1-21.1-30.1
		c-1.7-2.4-1.3-4.5,0.9-6.5c16.6-15.7,32.6-31.9,49.7-46.9c18-15.8,37-30.3,55.6-45.4C170.1,1142.9,171.6,1142,173,1141z M194,598.9
		c0.2,1.2,0.2,2.5,0.5,3.6c2.7,10.6,8,19.9,14.8,28.4c11.9,14.9,27.4,25.6,42,37.4c12.7,10.3,25.5,20.7,33.4,35.2
		c6,10.9,10.5,22.6,15.5,33.4c0-0.8,0-2.6,0-4.3c-0.4-16.5-6.2-31-15.6-44.4c-9.3-13.1-21.7-22.8-34.6-32.1
		C228.1,640.4,205.1,625.6,194,598.9z M655.5,1209.8c-0.1-0.4-0.2-0.8-0.2-1.2c-9.5,1.4-19.1,2.3-28.5,4.3
		c-27.9,5.8-53.3,18-78.6,30.5c-27.8,13.7-55.9,27.1-83.8,40.5c-3,1.4-6.2,2.3-9.4,3.4c5-0.5,9.9-1.6,14.6-2.9
		c26.4-7.4,50.6-19.8,75-32C580.1,1234.5,615.4,1215.9,655.5,1209.8z M571.4,825c0.5-0.1,0.9-0.3,1.4-0.4c-1-4.3-2-8.7-2.9-13
		c-0.9-4.4-1.3-8.9-2.5-13.2c-1.2-4.4-2.7-8.9-4.9-13c-5.6-10.4-15-14.3-26.5-11.5c-2.3,0.6-4.5,1.7-6.7,1.7c-4.7-0.1-9.6,0-14-1.4
		c-5.7-1.8-11.9-3.9-16.4-7.7c-7.1-6.1-13.3-2.8-19.6,0.2c-9.4,4.4-18.6,9.3-27.6,14.5c-4.6,2.6-8.6,6.2-12.9,9.3
		c6.5-1.4,12.6-3.6,18.5-6.3c9.4-4.2,18.5-9,27.9-13c3.1-1.3,7.1-1.4,10.4-0.6c3.5,0.9,6.7,3.4,9.8,5.5c9.6,6.4,19.5,8.1,30.8,4.3
		c9.8-3.3,16.8-0.2,21.8,9c3.1,5.6,4.8,11.9,7,18C567.2,813.3,569.3,819.2,571.4,825z M403.3,800.9c1.8,0.8,3.5,1.6,5.3,2.3
		c13.6,4.6,27.4,7.3,42,8c12.7,0.6,25.1,0,37.6-1.3c1.1-0.1,2.4-0.2,3.3,0.3c12.5,6.1,25.6,7.8,39.3,6.1c1.6-0.2,3.8,0.8,5.1,1.9
		c11,9.4,23.9,14.1,38,16c1.3,0.2,2.7,0.3,4,0.2c1.2,0,2.3-0.2,4.6-0.5c-16-4.1-29.9-9.6-42.4-19c0.9-0.8,1.7-1.5,3.1-2.8
		c-22.8,1.2-44.2-1.4-64.6-13.5c2,2.9,3.1,4.6,4.4,6.5C455.9,809.3,429.7,805.9,403.3,800.9z M434.4,829.5
		c32.3,34.1,92.1,45.3,122.2,23.6c-5.7,0.9-10.9,2-16.1,2.6c-22.6,2.7-45,2.1-66.2-6.9c-12-5.1-23.4-11.7-35.2-17.6
		C437.6,830.4,435.9,830,434.4,829.5z M133.8,1215c-0.2,0.2-0.3,0.4-0.5,0.6c0.4,0.4,0.7,0.9,1.1,1.3c19.1,18.9,40.3,34.8,64.8,46.2
		c9.8,4.6,19.1,10.4,28.6,15.8c2.1,1.2,3.9,3.1,5.8,4.7c1.9,1.5,3.7,3.1,5.6,4.6c-8.1-12.7-19.2-21.8-32.3-28.9
		c-17.3-9.3-34.1-19.6-50.9-29.7C148.3,1225.1,141.1,1219.9,133.8,1215z M106.2,655.6c3.3-12,0.1-25.7-3.8-39.1
		C98,601.3,88.8,589,76.8,578.8c-7.4-6.3-15.8-9.6-25.6-8.7c-5.1,0.5-9.6,2.3-13.2,6.4c15.3-7.6,27.8-2.2,38.4,8.8
		c5.6,5.8,10.2,12.6,14.8,19.3c3.3,4.8,7,9.8,8.3,15.3C102.5,632.1,104.2,644.7,106.2,655.6z M115.4,715.4c-7.3,0-9.6-1.4-11.9-7.1
		c-0.9-2.1-1.6-4.3-2.2-6.6c-2.4-8.2-7.8-12.2-16.3-12.7c-4.7-0.2-9.5-0.7-13.9-2.2c-7-2.5-13.8-13.4-12.4-19.3
		c1.8-7.7,4.4-15.2,9.8-21.4c2.3-2.6,4.5-5.4,6.7-8.1c-13.9,9.1-22.8,20.7-19.3,38.4c1.5,7.5,6.2,12.8,13,15.2
		c5.2,1.8,11,2.2,16.6,2.5c5.6,0.3,9.4,2.6,11.7,7.7c1.4,3.2,2.7,6.4,4.6,9.4C105,716.4,109.6,717.9,115.4,715.4z M54.5,707
		c0.4-0.3,0.7-0.5,1.1-0.8c-0.4-0.8-0.7-1.6-1.2-2.4c-7.2-11-10.7-23.1-11.1-36.1c-0.3-9,0-18-0.4-26.9c-0.4-9.5-2.1-18.8-6.8-27.4
		c0,2.5,0.7,4.9,0.9,7.3c0.7,13.8,1.2,27.5,2,41.3c0.4,7.4,0.7,14.9,2.3,22.1C43.2,693,47.4,701,54.5,707z M514.7,688.5
		c-4.3,0.6-9,0.2-12.7,1.9c-4.6,2.1-8.9,5.5-12.4,9.3c-2.5,2.7-0.7,5.3,3,4.6c3.8-0.7,7.9-1.8,11.1-3.9c6.1-4.1,11.5-4.9,17.6-0.1
		c1.2,0.9,4.4,0.5,5.9-0.5c2.5-1.7,1.9-4.2,0-6.5C524,689.2,519.5,688.6,514.7,688.5z M560.7,682.6c-8.1-2-14.8-6-19.1-13.3
		c-3.2-5.3-8.1-8-13.9-9.1c-12.1-2.3-19.5,5.9-27.4,12.9c5.6-1.8,10.9-4.1,16.3-6.4c6-2.6,11.7-2.3,16.7,2.1c2.8,2.4,5.3,5,7.8,7.7
		C546.4,682.1,552.9,684.2,560.7,682.6z M464.7,657.5c-10.2,1.8-16.5,16.8-12.5,34.1c1,4.5,3.4,9,6.2,12.7c2.7,3.7,5.7,7.9,12.1,8.1
		C455.5,698.5,453.1,672.8,464.7,657.5z M130.9,723c0.4-2,0.9-4.1,1.1-6.2c0.6-10.4-4.9-18.7-9.7-27.2c-4-7.2-7.4-14.7-7.1-23.4
		c-1.1,2.2-1.8,4.5-2.1,6.8c-1,9.7,3.6,17.7,8.2,25.6C125.6,706.2,129.9,713.8,130.9,723z M476.1,875.4c13.2,1.8,26.2,3.6,39.4,5.4
		C506.4,872.2,486.1,869.5,476.1,875.4z M560.9,699.5c-0.5-0.1-1.1-0.3-1.6-0.4c-2.1,3.2-4,6.4-6.2,9.5c-2.4,3.4-0.1,5.8,1.6,8.1
		c0.7,1,3.2,1.8,4,1.3c2-1.3,3.7-3.3,5.2-5.2c0.5-0.7,0.6-2,0.3-2.9C563.2,706.4,562,703,560.9,699.5z M536.8,760.3
		c-0.5-7.9-0.9-15.9-1.4-23.8c-0.5,0-1.1,0.1-1.6,0.1C530.5,744.7,532.2,752.6,536.8,760.3z M507.5,730.4
		c-4.9,6.5-6.1,13.8-3.6,21.8C505.2,744.8,506.3,738.3,507.5,730.4z"/>
	<path d="M194,598.9c11.1,26.7,34.1,41.5,56.1,57.3c12.9,9.3,25.3,18.9,34.6,32.1c9.4,13.3,15.2,27.9,15.6,44.4c0,1.7,0,3.5,0,4.3
		c-5-10.8-9.5-22.5-15.5-33.4c-8-14.6-20.7-25-33.4-35.2c-14.6-11.8-30.1-22.5-42-37.4c-6.8-8.5-12.1-17.8-14.8-28.4
		C194.2,601.4,194.1,600.1,194,598.9z"/>
	<path d="M655.5,1209.8c-40.1,6.1-75.4,24.7-110.9,42.5c-24.3,12.2-48.6,24.6-75,32c-4.8,1.3-9.6,2.4-14.6,2.9
		c3.1-1.1,6.4-2,9.4-3.4c28-13.4,56-26.7,83.8-40.5c25.3-12.5,50.7-24.8,78.6-30.5c9.4-1.9,19-2.9,28.5-4.3
		C655.3,1209,655.4,1209.4,655.5,1209.8z"/>
	<path d="M571.4,825c-2.1-5.9-4.2-11.7-6.3-17.6c-2.2-6-4-12.4-7-18c-5-9.2-12-12.3-21.8-9c-11.3,3.7-21.2,2.1-30.8-4.3
		c-3.1-2.1-6.3-4.6-9.8-5.5c-3.2-0.8-7.3-0.7-10.4,0.6c-9.5,3.9-18.6,8.7-27.9,13c-5.9,2.7-12,4.9-18.5,6.3
		c4.3-3.1,8.3-6.7,12.9-9.3c9-5.1,18.2-10,27.6-14.5c6.2-2.9,12.4-6.2,19.6-0.2c4.5,3.8,10.6,5.9,16.4,7.7c4.4,1.4,9.3,1.3,14,1.4
		c2.2,0,4.5-1.1,6.7-1.7c11.5-2.8,20.9,1,26.5,11.5c2.2,4,3.7,8.5,4.9,13c1.2,4.3,1.6,8.8,2.5,13.2c0.9,4.4,1.9,8.7,2.9,13
		C572.3,824.7,571.9,824.9,571.4,825z"/>
	<path d="M403.3,800.9c26.3,5,52.6,8.4,79.8,4.1c-1.3-2-2.5-3.6-4.4-6.5c20.4,12.2,41.8,14.7,64.6,13.5c-1.4,1.3-2.2,2-3.1,2.8
		c12.5,9.4,26.4,14.9,42.4,19c-2.3,0.3-3.5,0.5-4.6,0.5c-1.3,0-2.7-0.1-4-0.2c-14.1-1.9-27-6.6-38-16c-1.3-1.1-3.5-2.1-5.1-1.9
		c-13.7,1.7-26.8,0-39.3-6.1c-0.9-0.5-2.2-0.4-3.3-0.3c-12.5,1.4-24.9,1.9-37.6,1.3c-14.6-0.7-28.4-3.4-42-8
		C406.8,802.5,405.1,801.7,403.3,800.9z"/>
	<path d="M434.4,829.5c1.6,0.6,3.2,1,4.7,1.7c11.7,5.9,23.1,12.5,35.2,17.6c21.2,9,43.6,9.7,66.2,6.9c5.2-0.6,10.4-1.7,16.1-2.6
		C526.5,874.7,466.7,863.6,434.4,829.5z"/>
	<path d="M133.8,1215c7.4,4.9,14.5,10.1,22.1,14.6c16.8,10.1,33.6,20.4,50.9,29.7c13.2,7.1,24.2,16.1,32.3,28.9
		c-1.9-1.5-3.7-3.1-5.6-4.6c-1.9-1.6-3.7-3.4-5.8-4.7c-9.4-5.4-18.7-11.2-28.6-15.8c-24.5-11.4-45.7-27.3-64.8-46.2
		c-0.4-0.4-0.7-0.9-1.1-1.3C133.4,1215.4,133.6,1215.2,133.8,1215z"/>
	<path d="M106.2,655.6c-1.9-10.8-3.6-23.4-6.7-35.7c-1.3-5.5-5-10.5-8.3-15.3c-4.6-6.7-9.2-13.5-14.8-19.3
		c-10.6-11-23.1-16.3-38.4-8.8c3.6-4,8.1-5.9,13.2-6.4c9.8-0.9,18.2,2.3,25.6,8.7c12,10.2,21.2,22.5,25.6,37.6
		C106.3,629.8,109.4,643.6,106.2,655.6z"/>
	<path d="M115.4,715.4c-5.8,2.5-10.4,1-13.7-4.4c-1.8-2.9-3.1-6.2-4.6-9.4c-2.3-5.1-6.1-7.3-11.7-7.7c-5.6-0.3-11.4-0.6-16.6-2.5
		c-6.8-2.4-11.5-7.7-13-15.2c-3.5-17.7,5.4-29.3,19.3-38.4c-2.2,2.7-4.4,5.5-6.7,8.1c-5.4,6.1-8,13.6-9.8,21.4
		c-1.4,5.9,5.4,16.8,12.4,19.3c4.4,1.5,9.2,2,13.9,2.2c8.6,0.5,13.9,4.5,16.3,12.7c0.7,2.2,1.4,4.4,2.2,6.6
		C105.8,714,108.1,715.4,115.4,715.4z"/>
	<path d="M54.5,707c-7.1-6-11.3-14-13.3-22.9c-1.6-7.2-1.9-14.7-2.3-22.1c-0.8-13.8-1.3-27.5-2-41.3c-0.1-2.4-0.8-4.8-0.9-7.3
		c4.7,8.5,6.4,17.8,6.8,27.4c0.4,9,0.1,18,0.4,26.9c0.4,13,3.9,25.1,11.1,36.1c0.5,0.7,0.8,1.6,1.2,2.4
		C55.3,706.5,54.9,706.8,54.5,707z"/>
	<path d="M514.7,688.5c4.8,0.1,9.3,0.7,12.6,4.8c1.8,2.3,2.4,4.8,0,6.5c-1.5,1-4.7,1.4-5.9,0.5c-6.1-4.8-11.5-4-17.6,0.1
		c-3.2,2.1-7.3,3.2-11.1,3.9c-3.7,0.7-5.5-1.9-3-4.6c3.5-3.7,7.8-7.1,12.4-9.3C505.7,688.7,510.4,689,514.7,688.5z"/>
	<path d="M560.7,682.6c-7.8,1.6-14.3-0.5-19.7-6.2c-2.5-2.7-5-5.3-7.8-7.7c-5.1-4.4-10.8-4.6-16.7-2.1c-5.4,2.3-10.7,4.6-16.3,6.4
		c7.9-7,15.3-15.1,27.4-12.9c5.8,1.1,10.7,3.8,13.9,9.1C545.9,676.6,552.5,680.6,560.7,682.6z"/>
	<path d="M464.7,657.5c-11.6,15.3-9.1,40.9,5.8,54.9c-6.4-0.2-9.4-4.5-12.1-8.1c-2.8-3.7-5.2-8.2-6.2-12.7
		C448.2,674.3,454.5,659.3,464.7,657.5z"/>
	<path d="M130.9,723c-1-9.2-5.3-16.8-9.7-24.4c-4.6-7.9-9.2-15.9-8.2-25.6c0.2-2.3,1-4.6,2.1-6.8c-0.2,8.7,3.1,16.2,7.1,23.4
		c4.8,8.5,10.3,16.8,9.7,27.2C131.8,718.9,131.3,720.9,130.9,723z"/>
	<path d="M476.1,875.4c10-5.9,30.3-3.2,39.4,5.4C502.3,879,489.3,877.2,476.1,875.4z"/>
	<path d="M560.9,699.5c1.1,3.5,2.3,6.9,3.3,10.4c0.3,0.9,0.2,2.2-0.3,2.9c-1.5,1.9-3.2,3.9-5.2,5.2c-0.8,0.5-3.3-0.3-4-1.3
		c-1.7-2.3-4-4.8-1.6-8.1c2.2-3.1,4.2-6.3,6.2-9.5C559.8,699.2,560.3,699.4,560.9,699.5z"/>
	<path d="M536.8,760.3c-4.6-7.7-6.4-15.5-2.9-23.7c0.5,0,1.1-0.1,1.6-0.1C535.9,744.4,536.4,752.3,536.8,760.3z"/>
	<path d="M507.5,730.4c-1.3,7.9-2.4,14.3-3.6,21.8C501.5,744.2,502.6,736.9,507.5,730.4z"/>
	<path d="M250.3,459.6c-4.8,13.4-10,26.7-20.3,37.2c-6.5,6.7-12.2,14.8-19.8,19.8c-8.7,5.7-16.6,13.6-27.7,14.9
		c-3.6,0.4-7.3,0.7-10.8,0.2c-9.5-1.4-12.8-8.4-6.9-16.1c4.8-6.4,10.9-12,17-17.2c4.7-4.1,10.4-7.1,16.2-9.9
		c-7.9,7.1-15.8,14-23.5,21.3c-2.7,2.6-5.2,5.6-6.8,9c-2.2,4.6,0.1,7.7,5.2,8.1c7.3,0.5,14-0.2,20.2-5.4c7.7-6.5,17-11.2,24.5-17.9
		c12.5-11.3,24-23.7,29.4-40.3c0.5-1.5,1.3-2.9,2-4.3C249.5,459.1,249.9,459.4,250.3,459.6z"/>
	<path d="M245.7,84.6c-12.3,0-24.5,0-36.3,0C211.2,82.9,232.2,82,245.7,84.6z"/>
	<path d="M588.3,301.2c1-5.7,4.5-9.3,9.9-10.2c5.3-0.9,10.3,1.2,12.9,5.6c4.4,7.3,3,21-2.7,27.2c-3.8,4.2-8.6,5.8-14,4
		c-4.3-1.5-7.3-4.5-7.2-10.3c3.1,4.8,6.5,7.9,11.9,6.1c5.7-1.9,7.3-6.8,8-12.1c0.3-2.1,0.1-4.3,0.1-6.5c0-3.9-1-7.3-5-9
		c-4-1.6-7.5-0.4-10.7,2.1C590.4,299,589.4,300.1,588.3,301.2z"/>
	<path d="M614.3,342.6c-14,6.3-22.4,17.6-21.4,28.1c0.8,8.8,8.7,16.5,19.2,18.9c-5.4,2.9-11.2,1.5-17.7-4.4
		c-7.9-7.1-9.8-15.9-5.6-25.7C594,347.3,604.9,340.5,614.3,342.6z"/>
	<path d="M661.1,378.3c-7.2-3.3-9.8-8.3-9.1-15.8c1.1-12,16-29.4,27.7-31.8c2.8-0.6,5.7-0.1,7.7-0.1c-4.7,2.9-10.4,5.2-14.3,9.1
		c-5.3,5.4-9.7,11.8-13.7,18.2C655.3,364.4,655.4,371.2,661.1,378.3z"/>
	<path d="M640.6,282.1c-8.2,12.3-4.5,24.5-1,36.3c0.8,2.6,5.2,4.4,8.3,6c1.7,0.9,4,0.7,6.3,1c-7.2,5.3-17.3,2.4-20.4-4.9
		c-3.9-9.3-5.2-18.9-2.2-28.6C632.9,287.6,635.5,284,640.6,282.1z"/>
	<path d="M547.3,309.7c1.1,3,2.7,6,3.3,9.1c1.1,6.4-3.5,11.8-10,12.4c-9.9,0.9-19.5-6.4-20.9-16c-1.2-8.1,3.7-14.1,13.8-14.8
		c-6.6,2.8-10.3,6.2-9.7,12.7c0.8,8,10.9,15.4,18.6,13.2c4.8-1.4,5.4-5.4,5.3-9.6c0-2.3-0.8-4.5-1.3-6.7
		C546.7,309.9,547,309.8,547.3,309.7z"/>
	<path d="M554.5,323.2c-2.1-23.3-9.1-30.3-29.8-30.4c5.7-6.1,15.6-6.2,23.5-0.3C556.1,298.2,561.3,312.4,554.5,323.2z"/>
	<path d="M671.3,352.3c-1.3,3.1-3.2,6-3.6,9.2c-0.3,2.5,0.7,6.3,2.5,7.6c1.4,1.1,5.5,0,7.4-1.4c5.7-4.1,11.9-17.9,11.7-24.9
		c0.4-0.1,0.9-0.2,1.3-0.3c0.4,2.4,1.7,5.2,1,7.3c-2.4,6.6-5.3,13.2-8.6,19.4c-1.2,2.2-4.2,4.4-6.6,4.8c-3.1,0.5-7.5,0.4-9.5-1.5
		c-2.2-2.1-3.6-6.7-2.9-9.6c0.9-4.1,4-7.6,6.2-11.4C670.5,351.7,670.9,352,671.3,352.3z"/>
	<path d="M570.7,239.4c6.7,0.6,10.5,4.3,11.1,10.4c0.9,8.6-8,22.3-16.3,24.8c-1.7,0.5-3.5,0.5-5.6,0.4c7.1-4.5,11-11.3,14.3-18.5
		C577.7,248.8,577,245.3,570.7,239.4z"/>
	<path d="M580.1,294.8c-4.6,14.1-3.1,26.8,7.2,37.7c-6,0.9-10.4-2.6-13.7-10.7C569.4,311,571.8,300.5,580.1,294.8z"/>
	<path d="M607.7,234.3c4.5-4.8,12.6-6.2,17.9-2.8c3.6,2.3,5.3,5.6,4,9.7c-1.1,3.8-3.8,5.6-7,5c1-2.4,3.3-5.5,2.6-7.2
		c-0.9-2.1-4.2-3.9-6.8-4.5C614.9,233.7,611.2,234.3,607.7,234.3z"/>
	<path d="M664.7,315.1c1.6-11.3-2.2-20.3-11.5-27.4c6.5,0.1,11.8,3.9,14.3,9.9C670,304,669.4,309.9,664.7,315.1z"/>
	<path d="M599.6,231.4c0.7,11.7,6.8,18,17.7,20.8c-6.7,2.5-12.5,0.9-16.6-4C596.6,243.3,596,237.6,599.6,231.4z"/>
	<path d="M500.4,303.6c8.1,6.8,8.7,20.4,0,28.3C500.4,322.2,500.4,312.7,500.4,303.6z"/>
	<path d="M525.4,267.5c7.9-5.6,15.1-10.7,22.4-15.9C547.8,260.8,535.6,269.8,525.4,267.5z"/>
	<path d="M703.7,308.5c-1.1-4.2-1.7-8.4-3.2-12.1c-2-5-3.7-5.2-8.1-2c0.1-4.5,2.8-7.2,6.5-6c5.1,1.6,6.8,6.1,7.8,10.7
		C707.5,303,707.2,306.7,703.7,308.5z"/>
	<path d="M688.7,284.2c-4.7,17-3.1,21.9,8.5,28.3c-5.4,0.7-10.5-2.4-13.2-7.8C680.9,298.5,682.5,290.9,688.7,284.2z"/>
	<path d="M555.8,397.9c4.7-1.7,8.4-0.2,11.2,3.2c3.1,3.8,4,8.3,1.2,14C565.6,407.9,563,401.2,555.8,397.9z"/>
	<path d="M631.3,356.3c5.4,7.6,3.3,16.8-4.8,21.7C628.1,370.7,629.6,363.8,631.3,356.3z"/>
	<path d="M673.3,266.2c-3.1-2.5-5.5-4.6-8-6.4c-5.5-4.1-6.8-3.5-8,3.7c-2.1-3-3-6.2-0.2-8.1c1.8-1.2,5.7-1.3,7.6-0.2
		C668.6,257.3,672,260.6,673.3,266.2z"/>
	<path d="M623.2,358c-7.8-2.2-13.9-1.2-19.2,6.1c1-6.5,3.9-9.3,8.4-10.4C616.5,352.6,619.8,354.1,623.2,358z"/>
	<path d="M620.8,410.7c-6.8,3.7-13.9,0.5-16.1-7.5C609.9,405.6,615.5,408.2,620.8,410.7z"/>
	<path d="M658.9,273.7c5.2,0.6,10.2,1.1,15.1,1.7c-1.3,2.6-4.3,3.9-7.9,3.6C662.3,278.6,659.8,276.5,658.9,273.7z"/>
	<path d="M636.9,243.9c-2.5-4.9-4.9-9.7-7.3-14.4C636.4,230.8,639.5,236.9,636.9,243.9z"/>
	<path d="M623.5,337.1c-2.1-1.6-3.7-2.8-5.2-3.9c1.7-1,3.3-2.7,5-2.7c1.6,0,3.2,1.8,4.9,2.8C626.7,334.4,625.4,335.6,623.5,337.1z"
		/>
	<path d="M618,268.6c5.1-4.6,9.5-4.1,13.9,1.6C627.2,269.7,622.8,269.2,618,268.6z"/>
	<path d="M520.5,353.2c-2.1-2.3-4.5-5-6.9-7.6c-0.5,0.1-1,0.3-1.5,0.4c2.2,0.6,5,0.6,6.4,2C520,349.4,520.1,352.2,520.5,353.2z"/>
	<path d="M649.4,388.1c-1.7,1.5-2.9,2.9-3.1,2.7c-1.7-1-3.1-2.4-4.7-3.6c0.7-0.7,1.7-2,2.2-1.9C645.5,385.8,647,386.9,649.4,388.1z"
		/>
	<path d="M566.9,359.1c1.8,6.7,0.7,8.8-5.2,10.4C563.5,366,565,363,566.9,359.1z"/>
	<path d="M646.3,424.2c-3.7-0.5-6.6-0.9-9.6-1.3C640.1,418.9,642.8,419.1,646.3,424.2z"/>
	<path d="M673.6,319.7c2.4,0,4.8,0,8.2,0c-1.4,1.4-2.3,3.1-3.3,3.1c-1.8,0.1-3.6-0.9-5.4-1.4C673.2,320.8,673.4,320.2,673.6,319.7z"
		/>
</g>
</svg>
