<?xml version="1.0" encoding="utf-8"?>
<!-- Generator: Adobe Illustrator 23.0.3, SVG Export Plug-In . SVG Version: 6.00 Build 0)  -->
<svg version="1.1" id="Calque_1" xmlns="http://www.w3.org/2000/svg" xmlns:xlink="http://www.w3.org/1999/xlink" x="0px" y="0px"
	 viewBox="0 0 6651.9 6936.1" style="enable-background:new 0 0 6651.9 6936.1;" xml:space="preserve">
<g>
	<path d="M582.9,6935.9c-20,0-40,0-60,0c0-1973.3,0-3946.6,0-5920c8-2.7,16-5.3,24-8c6.7,0,13.3,0,20,0c6.1,2.5,12.1,5.3,18.3,7.5
		c22.6,7.9,45.5,15.2,68,23.5c110.5,41,220.9,82.3,331.4,123.4c107.4,39.9,214.7,79.8,322.2,119.6c7.3,2.7,14.3,7.3,23.8,6.1
		c0.4-5.9,1-11.8,1.2-17.6c1.3-40.6,2.5-81.3,3.9-121.9c0.3-7.9-1-16.1,5.4-24.5c5.5-0.2,12-0.8,18.6-0.8
		c185.3-0.1,370.6-0.2,555.8-0.2c221.3-0.1,442.5-0.1,663.8-0.2c201.9-0.1,403.9-0.2,605.8-0.3c290.6-0.2,581.2-0.3,871.7-0.4
		c74.6,0,149.3,0.4,223.9,0.4c164.6-0.1,329.2-0.3,493.8-0.4c229.9-0.2,459.9-0.3,689.8-0.4c6.7,0,13.4-0.2,20,0.3
		c22.2,1.6,25.2,4.7,25.4,26.5c0.2,29.3,0,58.7,0,88c0,5.2,0,10.5,0,15.5c9.2,2.5,15.6-2.1,22.1-4.6
		c148-54.9,295.8-110.1,443.8-164.9c64.9-24,129.3-49.8,195.4-70.5c2.4-0.7,4.5-2.6,6.7-3.9c8,0,16,0,24,0c2.7,1.3,5.3,2.7,8,4
		c0,1974.7,0,3949.3,0,5924c-14.7,0-29.3,0-44,0c-12.4-4.7-24.7-9.6-37.1-14.2c-315.3-117-630.7-233.9-946-350.9
		c-4.4-1.6-8.7-3.5-13.1-4.9c-8.7-2.8-13.1-9-13.8-17.7c-0.7-8.6-0.9-17.3-0.9-25.9c0-378.6,0-757.3,0-1135.9
		c0-209.3,0.1-418.6,0.1-628c0-10-0.2-20,0-30c0.1-4,0.1-8.2,1.6-11.7c1-2.3,4.6-3.4,7.4-5.3c4.8,8,3.4,15.4,3.3,22.5
		c-0.3,49.3-0.9,98.6-1.2,147.9c-0.1,11.3,0.8,22.6,0.8,34c0.1,156,0,312,0.1,468c0,12.2-0.7,24-6.7,34.9
		c-3.2,5.8-3.4,11.2,0.3,16.9c5.3,8.2,6,17.3,5.9,26.8c-0.3,28-0.3,56,0,84c0.1,13.4,0,26.5-5.5,35.8c2.6,11.7,6.4,20.7,6.4,29.6
		c-0.1,33.3,1.8,66.7-2.1,99.9c-0.8,6.6-0.6,13.3,0.1,19.9c3.7,34.6,3.6,69.2,1.1,103.8c-0.6,8.6-0.7,17.3-0.5,26
		c0.3,14.6,1.2,29.3,1.6,43.9c2,64.6-3.8,129.3-0.4,193.9c0.1,2.7-0.1,5.3-0.2,8c-0.4,28.7-1,57.3-1.2,86c-0.4,72-0.7,144-0.8,216
		c0,42.7,0.5,85.3,0.8,128c0,1.3,0.1,2.7,0.1,4c-0.2,7.6,3.4,12.5,10.6,15c13.2,4.7,26.3,9.6,39.4,14.4
		c251.7,93.2,503.4,186.4,755.1,279.6c57.5,21.3,114.9,42.6,172.4,63.6c6.6,2.4,13,6.9,21.4,4.2c0.4-5.4,1-10.6,1.1-15.9
		c0.3-18.7,0.6-37.3,0.6-56c0.1-242.7,0.4-485.3,0.3-728c-0.2-527.3-0.7-1054.6-1-1581.9c-0.1-260,0.1-520,0-780
		c0-40.7-0.7-81.3-0.8-122c-0.1-26.7,0.2-53.3,0.2-80c-0.1-46.6-0.7-93.3-0.6-139.9c0-32.6,1-65.3,1-97.9c0-43.3-0.8-86.6-0.9-129.9
		c-0.1-54,0-108,0.2-161.9c0.1-26.7,0.5-53.3,0.6-80c0.1-18.7,0-37.3-0.1-56c-0.2-30-0.7-59.9-0.6-89.9
		c0.2-51.3,1.3-102.6,1.1-153.9c-0.2-62-1.3-124-1.9-185.9c-0.4-43.3-0.5-86.6-0.6-129.9c0-7.3,0.5-14.6,0.8-22
		c0.5-12.6,1.3-25.3,1.3-37.9c-0.4-53.3-1.1-106.6-1.5-160c-0.1-18.6,0.2-37.2,0.6-55.8c0.4-20.7,1.1-41.3,1.4-62
		c1.4-83.3-3.2-166.6-1.4-249.9c0.9-40.6,0.1-81.3,0-121.9c0-2.7,0.1-5.3,0.2-8c0.3-46.6,0.6-93.3,0.8-139.9c0-5.3-0.4-10.7-0.4-16
		c-0.1-22-0.3-44-0.3-66c0-9.3,0.6-18.7,0.5-28c-0.1-43.3-0.7-86.6-0.6-129.9c0.1-58.7,0.8-117.3,1.1-176c0-6.5,1.3-13.3-2.1-20
		c-8.4-2.3-15.5,2.4-22.7,5.1c-249.6,93.1-500.1,183.5-749.6,276.8c-67.4,25.2-135,49.8-202.4,74.8c-7.3,2.7-15.5,4-22.1,11.1
		c-0.2,7.9-0.7,16.5-0.7,25.1c0,149.3,0,298.7,0,448c0,12,0,24,0,36c-0.1,12.7-0.1,25.3-0.3,38c-0.3,12,1.8,24.8-1.9,35.7
		c-4.6,13.6,2.8,24.6,2.7,37.1c-0.7,92.7-0.3,185.3-0.6,278c0,9.9-1.9,19.8-3.7,29.5c-1.3,6.7-1.3,13,0,19.7
		c1.8,9.1,3.5,18.4,3.7,27.6c0.5,26.7,0.2,53.3,0.2,80c0,8.1,0,15.7-7.2,21.8c-3.7,3.2-4.1,9,0.4,12.3c6.5,4.7,6.5,11.1,6.5,17.9
		c0,31.3-0.4,62.7,0.2,94c0.3,16.8-1.7,33.2-4.3,49.6c-1.5,9.6-1.1,18.5,1,27.6c3.8,16.7,4.4,40.1,1.3,62.6
		c-2.4-2.4-4.6-3.9-5.6-5.9c-4.1-8.6-4.6-17.9-4.6-27.3c0-39.3,0.2-78.7-0.1-118c-0.1-15.4,1-30.5,5.9-45.3
		c3.9-11.7,4.1-23.7,0.5-35.5c-5.3-17.4-6.3-35.3-6.6-53.3c-0.7-39.3,1.5-78.5,0.4-117.8c-1.3-48.6-0.4-97.3-0.2-146
		c0-8,0.3-16.1,1.9-23.8c3.4-16.6,2.3-33.1,0.9-49.7c-1-11.2-2.6-22.5-2.6-33.8c-0.2-221.3-0.2-442.6-0.2-664c0-8,0.4-16,0.1-24
		c-0.4-9.8-1.6-10.6-15.4-10.3c-1.3,9-1.3,18.1-0.1,27.3c1.2,9.2,2.2,18.5,2.2,27.8c0.1,40-0.2,80-0.3,120
		c-0.1,62.7,0.1,125.3-0.1,188c0,8.6-1.9,17.1-2.1,25.7c-0.5,15.3-2.9,31.1,0,45.8c4.2,22,5.4,43.3-0.3,65c-0.8,3.1-0.6,6.8,0.4,9.9
		c5.4,17.1,3.2,34.1,0.2,51.3c-1.3,7.7-2.1,16.4-0.1,23.7c3.6,12.5,3.2,25,3.2,37.6c0.1,32,0,64,0,96c0,52,0.5,104-0.1,156
		c-0.6,52.6,1.1,105.2,0.7,157.9c-1.1,140.6-0.5,281.3-0.5,422c0,15.3-0.7,30.6,2.4,45.8c0.9,4.4,0.2,9.3,0,13.9
		c-0.7,13.9-2.3,27.9-2.3,41.8c-0.1,1181.9-0.1,2363.9-0.1,3545.8c0,7.3,0.1,14.7-0.1,22c-0.1,3.8-0.8,7.6-1.2,11.9
		c-11.2,3.6-21.9,2.2-32.4,2.2c-633.8,0.1-1267.7,0.1-1901.5,0c-519.9,0-1039.7,0-1559.6-0.1c-10.6,0-21.2-1.4-31.8-1.7
		c-7.8-0.2-15.9-2.3-23.6,2.6c-0.3,4.7-1,9.4-0.8,14c0.5,14.1-6.3,21.8-19.7,26.1c-20.9,6.7-41.4,14.7-62,22.4
		c-307.2,113.9-614.4,227.9-921.6,341.9C585.6,6932.9,584.3,6934.7,582.9,6935.9z M1578.6,6551c0.3-9.1,0.7-17,0.8-24.9
		c0.3-20.7,0.5-41.3,0.7-62c0.3-18.6,1-37.3,0.8-55.9c-0.2-28-1.6-56-1.6-84c-0.1-89.3,0.2-178.6,0.4-267.9c0-5.3-0.2-10.7-0.3-16
		c-0.5-24-1-48-1.3-72c-0.9-59.9,2.2-119.9-0.3-179.9c-0.4-10-0.1-20,0.5-30c1.5-22.5,4.9-45,0.1-67.5c-0.4-1.9-0.1-4-0.1-6
		c-0.1-23.3-0.1-46.7-0.2-70c0-7.3,0.3-14.4,3.4-21.5c2-4.6,3.1-11.1,1.3-15.4c-5.2-12.3-3.7-24.9-3.8-37.4
		c-0.2-25.3-0.1-50.7-0.1-76c0-8,1-15.6,2.9-23.5c2.2-9.4,2.6-20.2,0.2-29.5c-2.6-9.9-3.4-19.6-3.4-29.5c0-153.3,0-306.6,0-459.9
		c0-9.3,0.5-18.6,0.6-28c0.3-27.3,0.8-54.6,0.6-81.9c-0.2-30-1-59.9-1.5-89.9c0-2-0.3-4.3,0.5-5.9c7-14.6,3.7-30.1,4.2-45.2
		c0.1-3.8-0.3-8.4-2.3-11.4c-3.7-5.7-2.5-11.5-2.5-17.4c0.3-44.6,0.7-89.3,0.7-133.9c0-26.7-0.5-53.3-0.8-80
		c-0.8-71.9,0.8-143.8,0.1-215.7c-0.9-94.6-0.4-189.3-0.1-284c0-12.5,2.8-25.1,3.6-37.6c1.2-20.5,4.1-41-2.7-61.3
		c-3.4-10.2-3.7-20.9-2.5-31.7c3.1-29.1,4.6-58.2,2.9-87.4c-0.3-5.3-0.4-10.7-0.6-16c-0.3-8-0.1-15.7,2.7-23.6
		c3.1-8.8,2.3-18.3-0.2-27.5c-1.7-6.3-3-12.9-3.2-19.4c-0.5-14.6-0.3-29.3-0.1-44c0.1-6,0.2-12.1,1.8-17.8
		c1.7-6.1,1.4-11.7,0.3-17.7c-5.7-31.5-6.8-63.2-6.8-95.1c0.3-489.3,0.2-978.5,0.2-1467.8c0-6-0.2-12,0.1-18
		c0.2-3.9,0.2-8.4,2.1-11.6c4.1-6.9,3.3-14.1,3.3-21.4c0-101.3,0-202.6-0.1-304c0-68,0-136-0.1-204c0-7.2-0.5-14.5-0.8-22
		c-8.4-3.3-15.8-6.3-23.2-9.1c-251.7-93-503.4-186.1-755.2-279.1c-65.6-23.9-131.1-48.2-196.8-72.2c-6.6-2.4-13-7.2-21-4.3
		c-4.1,6.1-2.5,12.9-2.4,19.3c0.6,42,1.6,84,2.1,126c0.3,24,1.1,48.1-0.6,72c-1.7,24.1-1.3,47.9,0.2,71.9c0.5,7.3,0.4,14.6,0.4,22
		c-0.1,12-0.5,23.9-0.6,35.9c-0.2,25.3-0.5,50.6-0.5,75.9c0,20,0.5,40,0.6,59.9c0.1,11.3-0.2,22.6-0.4,33.9
		c-0.2,14.6-0.4,29.3-0.4,43.9c0,6.7,1.6,13.4,1.1,19.9c-2.8,38.6-1.1,77.2,0.2,115.8c0.4,12,0.3,24,0.3,36
		c-0.1,29.3,0.6,58.7-0.8,87.9c-2.6,57.3-1.6,114.6-1.2,171.9c0.1,17.3,4.2,34.5,0,51.8c-0.6,2.5,0.1,5.3,0.2,8
		c0.6,15.3,1.7,30.6,1.8,45.9c0.1,26-0.3,52-0.7,78c-0.3,19.3-1,38.6-1.3,57.9c-0.1,10,0.1,19.9,0.5,29.9c0.4,9.3,1.8,18.6,1.9,27.8
		c0.2,57.3,0.2,114.6,0,171.9c-0.1,38.7-0.2,77.3-1.1,116c-0.4,19.3-3.8,38.5,0,57.8c0.5,2.5,0,5.3-0.2,8
		c-2.7,37.9-1.9,75.8-0.1,113.8c1.3,28.5,0.4,57.2,0.2,85.7c-0.1,20.6-1.9,41.3-0.9,61.9c1.7,34,2.4,67.9,0,101.9
		c-0.4,5.3-0.5,10.7-0.4,16c0.6,34,1.6,67.9,1.7,101.9c0.1,20.6-1.3,41.3-2,61.9c-0.2,6.7-0.8,13.4,0.2,19.9
		c2.5,16,1.6,31.9,0.9,47.9c-1.8,40-2.4,79.9,0.7,119.8c0.4,4.6-0.5,9.3-0.6,13.9c-0.3,14-1.5,28-0.6,41.9
		c1.8,27.3,1.2,54.6,0.5,81.9c-0.7,28.6,0,57.3,0.1,85.9c0.1,12.7,0.4,25.3,0.2,38c-0.3,18.7-1.5,37.3-1.5,55.9
		c-0.2,56,0.1,112,0.1,168c-0.3,264.6-0.9,529.2-1,793.9c-0.1,721.2,0.1,1442.4,0.2,2163.7c0,16.7,0.2,33.3,0.5,50
		c0.1,4.4,1.1,8.8,1.7,12.8c2.5,0.5,4,1.4,5,1c326.7-120.6,653.4-241.2,980-362C1569.7,6555.7,1573.1,6553.7,1578.6,6551z
		 M1587.4,1327.4c10.5-0.7,19.1-1.5,27.7-1.7c9.3-0.2,18.7,0.2,28,0.2c1204.9,0,2409.9,0,3614.8,0c16.7,0,33.3-0.4,50-0.4
		c9.4,0,18.4-1.7,27.3-5.1c46.8-17.5,93.7-34.7,140.5-52.1c4.9-1.8,9.6-4.1,15.4-6.5c2-34.2,0.6-68.1-0.3-102
		c-0.1-4.5-1.2-8.9-1.9-13.5c-8.7-3.2-16.7-2.2-24.6-2.2c-1358.9,0-2717.8,0-4076.7,0c-8.7,0-17.3-0.3-26,0
		c-4.5,0.2-8.9,1.5-13.6,2.3c-0.8,4.1-2,7.3-2,10.5c-0.1,45.9-0.1,91.9-0.1,136.1c2.3,2.5,2.9,4,4.1,4.5c5.5,2.4,11.1,4.6,16.7,6.7
		c51,19.3,103.7,34.1,153.7,56.2c14,6.2,28.4,11.4,42.7,17c4.8,1.9,9.7,3.5,15.3,5.5c6.2-11.1,16-11.9,26.3-11.7
		c6.7,0.2,13.3,0,20,0c309.2,0,618.5-0.1,927.7-0.1c579.1,0,1158.3,0.1,1737.4,0.1c156.6,0,313.2-0.1,469.8,0
		c127.3,0,254.6,0.2,381.9,0.4c8.6,0,17.2-0.6,24.9,1.9c1.3,3.2,2.2,5.4,3.6,8.7c23.7-9.3,46.6-18.2,69.5-27.3
		c5.5-2.2,10.9-5,16.2-7.6c0.3-0.1,0.1-1.2,0.2-3c-7.1-0.2-14.2-0.5-21.3-0.5c-205.9,0.1-411.9,0.4-617.8,0.5
		c-371.9,0.1-743.8,0.2-1115.6,0.2c-561.8,0-1123.6-0.2-1685.4-0.4c-69.3,0-138.6-0.3-207.9-0.5c-6.5,0-13.4,1.5-20.3-2.9
		C1587.4,1337.4,1587.4,1333.7,1587.4,1327.4z M6182.7,1028.1c-4.4,7.3-3.7,14-3.6,20.6c0.2,12.7,0.6,25.3,0.6,38
		c-0.2,595.2-0.6,1190.5-0.8,1785.7c-0.1,278.6,0,557.3,0,835.9c0,1057.2,0,2114.4,0,3171.5c0,7.3-0.1,14.7,0.2,22
		c0.2,3.9,0.7,8.1,2.1,11.7c0.8,2,3.5,3.9,5.7,4.5c3.6,0.9,6.6-1.2,7.8-4.6c1.1-3.1,1.5-6.5,1.6-9.8c0.2-7.3,0.1-14.7,0.1-22
		c-0.2-1349.8-0.5-2699.6-0.7-4049.4c-0.1-590.6,0-1181.2,0-1771.7c0-8,0.2-16-0.4-24c-0.2-2.9-1.9-6.7-4.2-8.2
		C6189,1027,6185.1,1028.1,6182.7,1028.1z M550.7,1028.5c-0.2,9.8-0.6,18.4-0.6,26.9c-0.2,609.9-0.4,1219.8-0.4,1829.7
		c-0.1,1332.4,0,2664.9,0,3997.3c0,8,0,16,0.2,24c0.1,2.6,0.1,5.7,1.4,7.7c1.2,1.9,4.2,3.6,6.4,3.6c2.2,0.1,5.2-1.5,6.6-3.3
		c1.4-1.9,1.8-4.9,1.9-7.5c0.3-9.3,0.4-18.7,0.4-28c-0.1-1357.1-0.3-2714.2-0.4-4071.3c0-523.2,0-1046.5,0-1569.7
		c0-63.3,0.2-126.6,0.3-190c0-4,0-8-0.3-12C565.5,1029.2,564,1028.4,550.7,1028.5z M3990.3,6118.8c0.1-31.1-22.7-54.5-53.5-55
		c-32.2-0.5-54.4,22.2-56,54.4c-1.5,29.5,26.4,55.8,53.5,55C3966.7,6172.4,3990.2,6150.7,3990.3,6118.8z M4913.2,6327
		c-0.3-23.4-20-43-43.4-43c-24,0-44.1,20.8-43.5,45c0.6,22.2,20.7,42.6,42.4,42C4894.2,6370.4,4913.1,6352.1,4913.2,6327z
		 M2508.1,3088c-0.2-15.6-13.2-28.3-28.2-27.6c-14.3,0.7-26.1,13.3-26.1,27.8c0,15.3,11.1,26.8,26.1,27.2
		C2495.6,3115.9,2508.3,3103.6,2508.1,3088z M2539.8,2059c-9-0.1-16.3,7.1-16.4,16.1c-0.1,9,7.3,16.4,16.2,16.3
		c9.1-0.1,16.6-7.3,16.5-16.1C2556.1,2066.4,2548.8,2059.1,2539.8,2059z M2375.5,6280.7c9.2,0.2,16.6-6.8,16.8-16
		c0.2-8.7-7.6-16.1-16.9-16c-8.5,0.1-16.2,8.5-15.9,17.3C2359.8,6273.8,2367,6280.5,2375.5,6280.7z M4173.9,5077.3
		c0.2-7.8-5.5-14.1-13.2-14.6c-8.8-0.6-15.9,5.4-16.3,13.7c-0.4,8.4,6.2,15.8,14.2,16C4166.7,5092.7,4173.7,5085.7,4173.9,5077.3z
		 M3829.6,5968.1c6.1,0.2,11.6-4.6,12-10.7c0.4-6-4.3-11.8-10.3-12.5c-6.8-0.9-13,4.8-12.9,11.7
		C3818.5,5962.9,3823.3,5967.8,3829.6,5968.1z M3013.5,3892.1c-4.3-2.9-7-5.8-10.2-6.6c-3.5-0.9-7.3,3.7-7.4,7.5
		c-0.1,4.8,4.8,9.4,8.9,7.6C3007.9,3899.3,3009.9,3895.8,3013.5,3892.1z M3764,5758.8c2.1,1.1,5,3.7,8.2,4.1
		c3.5,0.4,6.5-4.9,5.3-8.6c-1-3.4-3.4-5.4-7.1-5.1C3766.4,5749.5,3763.3,5753.2,3764,5758.8z M2352.2,3247c1.2-1.2,4-3,5.1-5.4
		c1.5-3.5-2.2-7.7-6.1-7.9c-3.8-0.2-6,2.1-7,5.4C2343.1,3242.7,2346.5,3246.7,2352.2,3247z M2334.7,6295.2c3.5,3.3,5.3,6,7.8,7.2
		c2.8,1.3,6.6-1.9,6.9-5.3c0.4-3.9-1.8-6.9-5.3-6.9C2341.6,6290.2,2339,6292.8,2334.7,6295.2z M2616.6,3035.7
		c-3.2-3.2-4.9-6.3-7.4-7.2c-3.3-1.1-6.3,0.9-7.4,4.6c-1.2,4,2,8.7,5.9,8C2610.4,3040.8,2612.7,3038.3,2616.6,3035.7z
		 M4838.5,4885.4c-3.5-2.7-5.6-5.4-8.2-6c-3.4-0.9-6.2,1.5-6.8,5.2c-0.7,3.9,2.9,8.1,6.9,7C4833,4890.9,4835,4888.2,4838.5,4885.4z
		 M1940.1,2449.6c3.9,2.7,6.1,5.2,8.7,5.7c3.7,0.8,7.3-3.8,6.6-7.5c-0.7-3.6-3.5-6.5-6.5-5.7
		C1946,2442.8,1943.8,2446.2,1940.1,2449.6z M3104.8,4914.5c-2.2,3.7-4.5,5.9-4.8,8.4c-0.1,1.4,2.9,3.8,5,4.4
		c2.9,0.8,6.2-3.2,5.1-6.1C3109.4,4919.1,3107.4,4917.6,3104.8,4914.5z M4288.3,2617.7c-3.3-1.9-5.2-3.8-7.3-4
		c-3.3-0.4-6.2,4-4.4,6.7c1.1,1.7,4,3.3,5.9,3.1C4284.3,2623.2,4285.7,2620.5,4288.3,2617.7z M2729.9,3141.7c3-3.3,5.7-5.2,6.4-7.7
		c0.4-1.2-2.5-4.3-4.5-5.2c-2.9-1.3-6.9,2.1-6.3,5.2C2725.9,3136.2,2727.7,3138.1,2729.9,3141.7z M2468.2,5215
		c-4.2-1.3-6.3-2.6-8.3-2.4c-1.2,0.1-3.3,3.3-3,3.9c1.1,1.8,3.1,4.2,4.8,4.3C2463.3,5220.8,2465,5218.1,2468.2,5215z M4751.1,5855
		c-2.5-2.3-4.3-4.6-5-4.4c-1.9,0.9-3.3,2.8-5,4.2c1.2,1.3,2.5,3.7,3.6,3.6C4746.6,5858.3,4748.4,5856.6,4751.1,5855z M3396.8,6176.6
		c-1.8-1.7-3-3.9-4.2-3.9c-1.2-0.1-3.6,1.9-3.6,3.2c-0.1,1.3,1.7,3.6,3,3.9C3393.1,6179.9,3394.7,6178,3396.8,6176.6z
		 M2839.8,5919.2c-1.1,2.4-2.1,3.8-2.3,5.3c-0.1,0.6,2,2.3,2.5,2.1c1.4-0.7,3.3-1.9,3.4-3.1
		C2843.6,5922.4,2841.6,5921.2,2839.8,5919.2z M3625.8,5658.6c1.7-1.7,3.8-2.9,3.9-4.2c0.1-1.2-2-3.5-3.2-3.5
		c-1.3-0.1-3.6,1.6-3.9,2.9C3622.4,5654.9,3624.4,5656.5,3625.8,5658.6z M4581,6346.3c1.9-2,3.3-3.1,4-4.5c0.3-0.6-1.1-2.9-1.7-2.8
		c-1.5,0.1-3.8,0.7-4.2,1.7C4578.7,6341.9,4580,6343.7,4581,6346.3z M3071.2,6339c-1.5-2.1-2.4-4.4-3.6-4.6c-1.2-0.2-3.7,1.5-4,2.7
		s1.2,3.7,2.5,4.2C3067.2,6341.6,3069,6340,3071.2,6339z M3088.8,2393.8c-1.5,1.8-3.5,3.3-3.4,4.5c0.1,1.3,2.3,3.5,3.5,3.5
		c1.3-0.1,3.4-2.1,3.6-3.5C3092.5,2397.1,3090.4,2395.6,3088.8,2393.8z M4002.6,4578c-2-1.3-3.5-3-4.9-2.9c-1.3,0.1-3.3,1.9-3.7,3.3
		c-0.7,2.6,2.5,5.3,4.7,4.1C4000.1,4581.8,4001,4579.9,4002.6,4578z M4408.8,5833c1-2,2.5-3.6,2.2-4.8c-0.3-1.4-2.3-2.3-3.5-3.5
		c-1.2,1.7-2.4,3.5-3.6,5.2C4405.3,5830.8,4406.7,5831.7,4408.8,5833z M4695.9,4588.3c-0.8-0.6-1.5-1.3-2.4-1.7
		c-0.2-0.1-1.3,0.8-1.2,0.9c0.3,0.9,0.9,1.8,1.4,2.6C4694.4,4589.5,4695.2,4588.9,4695.9,4588.3z M3752.2,4572.1
		c1.1,0.5,2.4,1.6,3.2,1.3c0.8-0.3,1.1-2,1.6-3.1c-1.1-0.4-2.4-1.4-3.3-1.1C3753,4569.3,3752.7,4571,3752.2,4572.1z M1809.1,3867
		c1.7-0.9,2.7-1.4,3.7-1.9c-0.8-1.3-1.6-2.8-2.6-3.9c-0.2-0.2-2.7,1-2.6,1.4C1807.7,3864.1,1808.5,3865.5,1809.1,3867z M2116,2186.9
		c-0.6,1-1.2,2.1-1.9,3.1c1.1,0.5,2.2,1.5,3.1,1.4c0.7-0.1,1.1-1.8,1.7-2.7C2118,2188,2117,2187.4,2116,2186.9z M3642.8,4095.8
		c-2.5-1.4-3.8-2.6-5.3-2.9c-0.7-0.1-2.5,1.7-2.4,2.1c0.5,1.5,1.5,3.5,2.7,3.8C3638.8,4099.2,3640.4,4097.4,3642.8,4095.8z
		 M1749,2105.6c-0.4,1.1-1.4,2.3-1.1,3.2c0.2,0.7,1.9,1,2.9,1.4c0.5-1.1,1.5-2.4,1.2-3.1C1751.7,2106.3,1750.1,2106.1,1749,2105.6z
		 M4292.6,2600.9c-0.7,1.5-1.5,2.9-1.7,4.4c-0.1,0.4,2.4,1.8,2.6,1.5c1.1-1.1,1.9-2.5,2.7-3.8
		C4295.3,2602.4,4294.3,2601.8,4292.6,2600.9z M2698.3,3144.4c-1,0.6-2.6,1.1-2.7,1.8c-0.1,1,0.8,2.2,1.3,3.3c1.3-1,2.7-2,4-3
		C2700,3145.8,2699.2,3145.1,2698.3,3144.4z M4043.7,3184.3c-0.9-1.7-1.4-2.7-2-3.7c-1.3,0.9-2.8,1.6-3.7,2.8
		c-0.3,0.5,0.9,2.1,1.4,3.2C4040.9,3185.8,4042.3,3185.1,4043.7,3184.3z M2646.6,1952.9c-0.8,1.6-1.7,3-2,4.6
		c-0.1,0.3,2.7,1.8,2.9,1.6c1.1-1.1,1.9-2.6,2.4-4C2650,1954.8,2648.2,1953.8,2646.6,1952.9z M5104.6,4168.4
		c0.5,0.2,1.1,0.7,1.4,0.6c0.3-0.1,0.5-0.9,0.7-1.4c-0.5-0.2-1.1-0.7-1.4-0.6C5104.9,4167.2,5104.8,4167.9,5104.6,4168.4z
		 M2161.7,6085.6c-0.9,0.6-2.4,1.1-2.5,1.9c-0.2,1,0.6,2.2,0.9,3.3c1.2-0.9,2.5-1.8,3.7-2.6
		C2163.1,6087.4,2162.4,6086.5,2161.7,6085.6z M4794.8,3409.8c-0.7,0.6-2.2,1.2-2.4,2.1c-0.2,0.9,0.9,2,1.4,3c1.2-1,2.3-1.9,3.5-2.9
		C4796.5,3411.3,4795.7,3410.6,4794.8,3409.8z M3740.3,4343.5c-1-0.6-1.9-1.3-3-1.7c-0.2-0.1-1.3,1.1-1.2,1.3c0.4,1,1.2,1.9,1.8,2.8
		C3738.8,4345.1,3739.5,4344.3,3740.3,4343.5z M3339.4,4560.4c1.6,0.7,3,1.7,4.6,2c0.3,0.1,1.8-2.6,1.5-2.9c-1-1.2-2.6-1.9-4-2.8
		C3340.9,4557.7,3340.3,4558.8,3339.4,4560.4z M2137.1,1685.2c-0.5,1-1.2,1.9-1.5,2.9c-0.1,0.3,1,1.4,1,1.3c1-0.6,1.8-1.3,2.7-2
		C2138.6,1686.7,2137.9,1685.9,2137.1,1685.2z M4213.7,1656.6c0.5,1,0.7,2.7,1.4,2.9c0.8,0.3,2.1-0.7,3.1-1.1
		c-0.5-1.1-0.9-2.1-1.4-3.2C4215.7,1655.7,4214.7,1656.1,4213.7,1656.6z M3122.9,3064.9c-1-0.5-2-1-3-1.3c-0.1,0-1,1.2-0.9,1.4
		c0.5,0.9,1.2,1.6,1.9,2.4C3121.6,3066.5,3122.2,3065.7,3122.9,3064.9z M3129.9,5212.1c-0.4-1.1-0.8-2.2-1.1-3.3
		c-1.1,0.4-2.8,0.7-3.1,1.4c-0.3,0.8,0.7,2.1,1.2,3.2C3127.8,5213,3128.9,5212.6,3129.9,5212.1z M4222.9,5150.3
		c-0.5-1-0.7-2.5-1.5-2.9c-0.5-0.3-2.5,0.5-2.7,1.2c-0.3,0.8,0.6,2,1,3C4220.8,5151.2,4221.9,5150.7,4222.9,5150.3z M1819.5,5831
		c0.8,0.5,1.6,1.1,2.5,1.4c0.2,0.1,1.1-1,1-1.2c-0.4-0.8-1.1-1.5-1.6-2.3C1820.8,5829.6,1820.1,5830.3,1819.5,5831z M4586.8,5409.2
		c-1-0.6-1.9-1.3-2.9-1.8c-0.1-0.1-1.2,1.1-1.1,1.4c0.4,1,1.1,1.8,1.7,2.7C4585.3,5410.8,4586,5410,4586.8,5409.2z M3713.3,5526.5
		c-0.8-0.6-1.6-1.4-2.6-1.8c-0.4-0.1-1.1,0.6-1.6,0.9c0.6,1,1.1,2,1.7,2.9C3711.7,5527.8,3712.5,5527.1,3713.3,5526.5z
		 M2964.6,4646.9c0.5-1,1.1-2,1.4-3.1c0.1-0.3-0.9-1.2-1.4-1.2s-1.5,0.9-1.4,1.2C2963.5,4644.9,2964.1,4645.9,2964.6,4646.9z
		 M1835.5,1870c-0.3-0.5-0.5-1.2-0.9-1.3c-0.5-0.2-1.2,0.1-1.7,0.2c0.4,0.7,0.8,1.4,1.2,2.2C1834.6,1870.7,1835,1870.4,1835.5,1870z
		 M3453.2,3325.5c-0.9-0.3-1.8-0.7-2.7-0.8c-0.4,0-0.8,0.8-1.2,1.2c0.8,0.6,1.7,1.3,2.5,1.9
		C3452.3,3327.1,3452.7,3326.3,3453.2,3325.5z M2304.9,3339.1l-0.8,1.3l1.2,0.2L2304.9,3339.1z M3221.7,2378.7
		c0.5-0.2,0.9-0.4,1.4-0.6c-0.4-0.3-0.7-0.8-1.2-0.9c-0.4-0.1-0.9,0.3-1.4,0.5C3220.9,2378.1,3221.3,2378.4,3221.7,2378.7z
		 M3874.9,3640.9c-0.6,0.2-1.2,0.3-1.7,0.5c0.1,0.5,0.3,1.3,0.4,1.3c0.6,0,1.1-0.2,1.7-0.4C3875.2,3641.9,3875,3641.4,3874.9,3640.9
		z M1964.6,1854.6c-0.4,0.4-1.3,0.8-1.3,1.1c0.2,1,0.7,1.9,1.1,2.9c0.5-0.3,1.4-0.8,1.3-1
		C1965.6,1856.5,1965.1,1855.6,1964.6,1854.6z M3853.5,1818.2c-0.4-0.4-0.9-1.1-1.3-1.1c-0.4,0-0.9,0.7-1.4,1c0.7,0.6,1.4,1.1,2,1.7
		C3853.1,1819.2,3853.3,1818.7,3853.5,1818.2z M3404.5,2181.9c-0.4-0.5-0.9-1.5-1.2-1.4c-1.1,0.2-2.2,0.8-3.3,1.2
		c0.4,0.5,0.9,1.5,1.2,1.4C3402.3,2182.9,3403.4,2182.3,3404.5,2181.9z M2233.1,3814.1c-0.3-0.5-0.4-1.4-0.8-1.5
		c-0.5-0.2-1.2,0.2-1.8,0.3c0.4,0.8,0.8,1.5,1.2,2.3C2232.2,3814.8,2232.6,3814.4,2233.1,3814.1z"/>
	<path d="M546.9,1007.9c-8,2.7-16,5.4-24,8c0-2.7,0-5.3,0-8C530.9,1007.9,538.9,1007.9,546.9,1007.9z"/>
	<path d="M6209.7,1011.9c-2.7-1.3-5.3-2.7-8-4c2,0,4,0.1,6,0C6211.7,1007.7,6208.8,1010.7,6209.7,1011.9z"/>
	<path d="M2116,2186.9c1,0.6,2,1.1,3,1.7c-0.6,1-1,2.6-1.7,2.7c-0.9,0.2-2.1-0.8-3.1-1.4C2114.8,2188.9,2115.4,2187.9,2116,2186.9z"
		/>
	<path d="M1749,2105.6c1.1,0.5,2.7,0.7,3,1.5c0.3,0.7-0.8,2-1.2,3.1c-1-0.5-2.7-0.7-2.9-1.4
		C1747.6,2107.9,1748.6,2106.7,1749,2105.6z"/>
	<path d="M3874.9,3640.9c0.1,0.5,0.3,0.9,0.4,1.4c-0.6,0.2-1.2,0.4-1.7,0.4c-0.2,0-0.3-0.9-0.4-1.3
		C3873.7,3641.3,3874.3,3641.1,3874.9,3640.9z"/>
	<path d="M5997.4,4619.8c-22.5-5.8-46-3.8-69-6.2c-23.8-2.5-47.8-3.5-71.8-4.9c-23.3-1.4-46.5-2.7-70-4c-4.1-5.6-7.8-10.8-12.7-17.4
		c-4.2,6-7.4,10.7-11.2,16.2c-158.9-8.6-318.3-20-479-29.1c-0.7,6.9-1.7,12-1.8,17.1c-0.3,14.7-0.1,29.3-0.5,44
		c-0.2,5.3-3.1,8.6-9.1,7.4c-3-14.5-3.3-72.2-0.4-92.7c4-0.5,8.4-1.7,12.7-1.5c18,0.9,35.9,2.4,53.9,3.5
		c74.5,4.8,148.9,9.7,223.4,14.5c51.9,3.3,103.7,6.4,155.6,9.7c73.8,4.7,147.6,9.6,221.4,14.3c14.6,0.9,29.3,1.3,43.9,2.2
		c8.5,0.5,17.1,1.7,24.8,2.6c4.9,8.1,3.1,15.6,3.1,22.8c-0.4,144.7-0.8,289.3-1.5,434c-1.7,363.3-3.6,726.6-5.4,1089.9
		c-0.4,69.3-0.9,138.6-1.3,208c0,6.6-0.4,13.2-0.7,20.1c-6.5,3.5-12,0.9-17.6-0.7c-34.6-9.9-69.1-19.8-103.7-29.7
		c-133.7-38.6-267.6-76.7-401.1-116c-62.6-18.4-124.5-39.2-186.6-59.1c-21.7-7-22.8-8.9-23-31.1c-0.1-12,0.1-24,0.1-36
		c-0.1-415.3-0.1-830.6-0.2-1245.9c0-10,0.1-20,0.4-30c0.2-7.3,1-14.4,6.5-19.6c4.3,0.5,4.6,3.2,4.7,5.8c0.2,6,0.2,12,0.2,18
		c0,352.6-0.1,705.3-0.1,1057.9c0,77.3,0,154.6,0.1,231.9c0,29.3,0.3,28.6,27.8,36.3c57.7,16.2,115.1,33.2,172.7,49.8
		c157.4,45.4,314.8,90.7,472.2,136c11.6,3.3,23.2,5.9,34.9,1.6c5.2-7.7,3.4-15.9,3.4-23.7c0.3-61.3,0.4-122.7,0.6-184
		c0.8-281.3,1.3-562.6,2.5-843.9c0.9-214.6,2.9-429.3,4.3-643.9C6000.2,4636.2,6001.9,4628.1,5997.4,4619.8z"/>
	<path d="M5312.8,4651.1c2.9-0.8,4.8-1.9,6.7-1.8c214.1,13.3,428.1,26.7,642.2,40.3c2.5,0.2,5,1.6,7.1,2.4
		c3.9,7.4,2.4,14.8,2.4,22.1c-0.8,207.9-1.5,415.8-2.4,623.8c-1.4,304.5-2.9,609.1-4.4,913.6c0,7.1,1.8,14.7-3,22.6
		c-6.8,0.2-13.5-2.5-20.3-4.4c-80.6-23.3-161.2-46.5-241.7-69.9c-122.8-35.6-245.5-71.2-368.2-106.8c-6.3-1.8-13-2.7-18.1-7.4
		C5309.7,6065.3,5309.4,4673.8,5312.8,4651.1z M5323.9,4672.3c-4.1,9.9-2.9,17.9-3,25.8c-0.3,225.9-0.5,451.9-0.9,677.8
		c0,28,0.4,56-1.1,83.9c-1.7,32-2.3,63.9,0.2,95.9c0.7,8.6,0.8,17.3,0.8,26c0.1,58,0.2,116,0.2,174c0.1,96.6,0.1,193.3,0.3,289.9
		c0,7.2-1.6,14.7,4,22.7c205.7,60.5,412.6,121.3,619.6,182c2.4,0.7,5.2,0.4,7.6,0.5c3.8-6.7,2.5-13.5,2.5-20
		c0.8-136.6,1.6-273.3,2.3-409.9c1.2-253.9,2.2-507.9,3.3-761.8c0.5-108,1.1-215.9,1.6-323.9c0-7.2,1.9-14.7-3.2-22.8
		c-7.6-0.9-16-2.4-24.6-2.9C5730.7,4697,5527.9,4684.7,5323.9,4672.3z"/>
	<path d="M5975.9,1556.7c-8.3-3.2-15,0.4-22,2.3c-68.6,19.4-137.1,38.9-205.7,58.2c-135.9,38.3-271.7,76.5-407.6,114.7
		c-21.5,6-21.9,6.1-22,28.6c-0.5,132-0.8,264-1.4,395.9c-0.3,76.7-1,153.3-1.6,230c0,5.6,1.4,11.7-2.8,16.5c-5-0.9-5.3-4.5-5.4-7.7
		c-0.3-11.3-0.4-22.7-0.4-34c0.6-100,1.6-200,1.8-299.9c0.3-103.3-0.2-206.6-0.2-309.9c0-9.2-1-18.6,2.8-28.9
		c111.7-31,223.7-62.8,336-93.1c111.7-30.1,221.8-66.1,333.5-93.3c5.2,3.3,4.4,7.5,4.5,11.3c0.2,6.7,0.1,13.3,0.1,20
		c-0.2,326.6-0.3,653.2-0.5,979.8c-0.1,138-0.3,276-0.3,413.9c0,61.3,1.5,122.7,0.6,184c-1.1,82.6-0.3,165.3,0,247.9
		c0.2,46-1.3,92-1.6,138c-0.2,27.3,0.1,54.6,0.7,82c0.7,28.7,2.2,57.3-1.2,85.9c-0.2,2-0.3,4-0.3,6c0.5,27.9,1.1,55.9,1.4,83.8
		c0.2,14-0.3,27.9-0.5,41.9c-0.5,32.6-1.3,65.3-1.6,97.9c-0.3,23.3-0.4,46.7,0.1,70c0.3,14.6,1.7,29.2,2.4,43.8
		c0.3,6,0.7,12,0.1,17.9c-0.4,3.8-2,7.9-7.7,7.7c-4.6-3.1-2.9-8.1-2.9-12.4c-0.1-38.7-0.1-77.3,0-116c0.3-208,0.7-415.9,1-623.9
		c0.8-578.6,1.5-1157.1,2.2-1735.7C5977.5,1572.2,5978.7,1564.1,5975.9,1556.7z"/>
	<path d="M6002.5,1485.2c-17.2,1.9-670.5,180.3-706.4,192.7c-4.5,6.5-2.8,14.1-2.9,21.2c-0.2,64.7,0,129.3-0.4,194
		c-0.5,78-1.8,156-2.1,234c-0.5,132-0.5,264-0.8,395.9c0,7.9,0,15.9,0,27.2c-4-4.4-7-6.2-7.3-8.4c-1.2-7.9-2.2-15.8-2.2-23.8
		c0-34,0.1-68,0.6-102c0.3-23.3-0.6-46.9,2.5-69.9c3.2-23.6-2.4-46.4-2.1-69.7c1.1-73.3,0.6-146.6,1-220c0.7-122,1.6-244,2.3-365.9
		c0.2-28.8,0.3-28,26.7-35.3c164.4-45,328.8-90.1,493.2-135.2c60.4-16.6,120.7-33.3,181-50c7-1.9,14.1-3.7,20.1-5.2
		c5.6,2.8,5.5,7,5.6,10.8c0.2,13.3,0.2,26.7,0.2,40c-0.4,342.6-1,685.2-1.4,1027.9c-0.6,513.3-1.1,1026.5-1.6,1539.8
		c-0.1,61.3-0.1,122.6-0.3,184c0,7.8,1,15.9-3.6,24.6c-67.3,0-134.5,0-201.8-0.1c-3.9,0-7.8-0.7-12.5-1.2c0-4.5,0-8.2,0-11.7
		c7.2-4.8,14.8-2.9,21.9-3c54.6-0.2,109.3-0.1,163.9-0.1c6.5,0,13-0.6,19.5-0.9c4.1-7.9,2.8-15.3,2.8-22.5c0-42-0.1-84-0.4-126
		c-0.1-12.1,0.7-23.7,5.1-35.3c2.7-7.2,2.6-15.6,2.6-23.5c0-95.3-0.3-190.6-0.4-286c-0.2-517.9-0.4-1035.9-0.6-1553.8
		c-0.1-238.6,0-477.3-0.1-715.9C6004.8,1503.5,6006.3,1494.7,6002.5,1485.2z"/>
	<path d="M5900.1,1893c-18.5,2.5-480,132.3-500.6,140.4c-4.4,5.8-2.8,12.7-2.9,19.2c-0.4,34-0.7,68-1,102
		c-0.1,9.2-0.4,18.5-4.4,27.6c-0.5-3.5-1.4-6.9-1.4-10.4c0-44,0.2-88,0.3-132c0-2,0-4,0.1-6c0.7-12,2.4-14.6,14.5-18.1
		c25.6-7.4,51.3-14.2,77-21.4c131.9-37.5,263.8-75,395.8-112.3c8.7-2.5,17.3-7.2,26.8-4.8c4.1,7.2,2.7,14.7,2.7,21.9
		c0.1,53.3-0.1,106.6-0.1,160c-0.3,543.9-0.5,1087.8-0.8,1631.6c0,31.3,0.2,62.7-0.4,94c-0.3,17.3-2.4,34.5-3,51.8
		c-0.4,10.6,0.2,21.3,0.7,31.9c0.4,7.9,1.4,15.8,2,22.3c-5.5,6.2-11.2,4.6-16.2,4.5c-42.6-0.6-85.3-1.5-127.9-2.2
		c-113.3-2-226.5-3.9-339.8-6c-12.6-0.2-25.3,0.7-37.3-2.7c-0.7-0.9-1.1-1.4-1.4-2s-0.8-1.2-0.9-1.8c-0.5-31.3-1.5-62.6-1.3-93.9
		c0.5-79.3,1.5-158.6,2.3-237.8c0-0.6,0.4-1.3,0.8-1.8c0.3-0.4,0.9-0.7,2.2-1.6c0.8,1.6,2.1,3,2.2,4.4c0.3,4,0.1,8,0.1,12
		c-0.3,94-0.7,187.9-1,281.9c0,7.9-1.2,16,1.9,23.2c5.7,5.9,12.5,5.1,19.1,5.2c20.7,0.2,41.3,0.1,62,0.5
		c129.2,2.4,258.5,5,387.7,7.4c11.9,0.2,23.8,0,36.2,0c1.6-4.7,3.5-8.3,3.9-12c0.7-7.3,0.6-14.6,0.6-22
		c0.2-231.9,0.4-463.9,0.6-695.8c0.2-225.3,0.3-450.6,0.6-675.8c0.2-183.3,0.6-366.6,0.8-549.9
		C5900.8,1914.3,5900.4,1904.4,5900.1,1893z"/>
	<path d="M5312,2421.6c5.5,10.5,4.2,17.9,4.2,25c-0.2,38-0.9,76-1.1,114c-1.2,214.6-2.4,429.2-3.4,643.9
		c-1.1,235.3-1.9,470.6-3,705.8c-0.4,88.6-1.2,177.3-1.7,265.9c0,7.2,0.5,14.4,0.7,20.6c7.2,5.8,14.1,4.2,20.5,4.3
		c68,1,135.9,1.8,203.9,2.7c101.9,1.4,203.9,2.8,305.8,4.2c9.2,0.1,18.8-0.6,26.1,6.4c0.5,5.9-1.9,9.6-7.3,10.3
		c-5.3,0.6-10.6,0.5-16,0.5c-103.3-1.2-206.6-2.4-309.8-3.5c-64-0.7-127.9-1.4-191.9-2.1c-10-0.1-20,0.1-29.4,4.2
		c-2.3,1-5,0.8-8.9,1.3c-1-3.5-2.4-6.4-2.6-9.4c-0.4-5.3-0.1-10.7,0-16c0.6-98,2.3-196,1.6-293.9c-2-281.9,3-563.8,4.5-845.8
		c1.1-202,1-403.9,2.6-605.9c0.1-7.3,0.1-14.7,0.6-22C5307.5,2429.7,5309.3,2427.4,5312,2421.6z"/>
	<path d="M5884.5,3846.3c-3.9,0.3-7.8,0.9-11.6,0.8c-148.5-3.5-297-7.1-445.5-10.7c-0.5,0-1-0.7-1.4-1.2s-0.6-1.2-1.5-3.3
		c7-0.3,13.5-0.7,19.9-0.7c103.9-0.1,207.9-0.2,311.8-0.3c34.6,0,69.3-0.1,103.9-0.3c6.5,0,13.4,1.3,19.8-3.6
		c0.4-2.9,1.3-6.2,1.3-9.4c0-622.5-0.1-1244.9-0.3-1867.4c0-1.9-1.1-3.7-1.7-5.5c-7.1-2.9-13.2,0.4-19.5,2.2
		c-63.4,18.2-126.7,36.3-190,54.6c-76.8,22.1-153.5,44.2-230.3,66.5c-8.2,2.4-17.3,2.8-24.3,10.3c-0.2,4.6-0.7,9.9-0.8,15.2
		c-0.1,6,0,12,0,18c0,5.3,0.1,10.7,0.1,16c0,6,0.1,12-0.1,18c-0.2,5,0.1,10.1-3.9,17.9c-1.5-5.5-2.6-7.7-2.6-9.9
		c0.2-24.7,0.3-49.3,1-74c0.4-14.7,2.1-16.7,16.5-20.9c42.2-12.3,84.5-24.3,126.7-36.5c104.2-30.2,208.4-60.6,312.6-90.8
		c6.3-1.8,12.7-3.2,20.2-5.1c1.2,5,2.7,8.6,2.8,12.3c0.4,12.7,0.4,25.3,0.4,38c0.1,316.6,0.2,633.1,0.2,949.7
		c0,209.3-0.3,418.5-0.5,627.8c-0.1,89.3-0.4,178.6-0.7,267.9C5887.1,3829.7,5888.5,3837.8,5884.5,3846.3z"/>
	<path d="M5285.2,2974.4c0.8,31.6,2.1,60.8,2.2,90c0.1,36.6-1,73.3-1.2,109.9c-0.8,159.9-1.3,319.9-2.1,479.8
		c-0.1,16.5,1.6,33.4-5.7,49.2c-1,2.1-0.6,5.6,0.5,7.6c5,9.3,4.4,19.4,4.5,29.3c0.1,52,0,103.9-0.1,155.9c0,8.7-0.5,17.3-0.5,26
		c-0.2,89.3-0.3,178.6-0.4,267.9c0,19.3-0.2,38.6-0.3,58c0,5.9,0,11.8,0,18.6c4.8,1,8.5,2.3,12.3,2.3c96.6,1.2,193.2,2.4,289.8,3.2
		c56,0.5,111.9,0.5,167.9,0.7c6,0,12,0.2,17.9,0.9c5.4,0.6,6.3,2.6,6.6,12.4c-2.4,0.6-4.8,1.5-7.3,1.7
		c-29.5,1.7-479.5,0.3-493.7-1.5c-5.1-5.4-3.2-12.4-3.2-18.8c0-30.7,0.4-61.3,0.5-92c0.5-147.9,0.9-295.9,1.6-443.8
		c1.1-244.6,2.4-489.1,3.6-733.7c0-6,0.1-12,0.8-17.9C5279,2978.6,5281.9,2977.3,5285.2,2974.4z"/>
	<path d="M5157,3657c1.9,4.3,3.3,8,5.2,11.4c3.8,6.6,4.9,13.6,4.5,21.2c-0.5,9.3-0.8,18.6-1,28c-0.4,25.9-0.3,51.7,3,77.5
		c1.6,12.6,1.9,25.4-3.2,37.4c-1.4,3.3-4,6.2-7.4,11.3c-1.4-4.8-2.7-7.1-2.8-9.5c-0.3-7.3-0.3-14.7-0.3-22c0-329.9,0-659.8,0-989.7
		c0-8.6,0.6-17.3,1.5-25.9c0.3-3,1.1-6.6,5.3-7c3.7,0.6,3.9,3.7,4,6.1c0.4,14.6,0.5,29.3,0.5,43.9c0,4.6-1.4,9.3-1.3,13.9
		c0.5,25.3,1.4,50.6,1.7,75.9c0.2,15.3,0.3,30.6-0.6,45.9c-0.7,11.4-0.9,22.5,0.5,33.9c1.1,8.5,1.3,17.3,0.3,25.8
		c-2,16.6-2.2,33.2-1.2,49.9c1.1,17.9,1.8,35.9,2,53.9c0.1,9.3-1.2,18.6-1.9,27.9c-0.3,4-1.5,8-1.2,11.9c3.2,33.2,0,66.5,1.7,99.8
		c1.6,32.6,1.3,65.3,1.5,97.9c0.2,33.3,0.1,66.6,0.1,100c0,8,0.4,16,0,24c-0.9,18.6-4.6,37.5-2.7,55.8c1.9,18.6,2,37.2,2.7,55.7
		C5168.8,3628,5167.7,3643.7,5157,3657z"/>
	<path d="M5158.5,3879.1c4.7,8.6,7.1,16.1,7.6,24.1c0.7,10.6,1.6,21.3,1.6,31.9c0.1,90.6,0,181.2-0.2,271.8c0,10.6-1,21.3-1.2,31.9
		c-0.1,6.6,0.4,13.2,0.8,19.8c0.2,2.6,1.3,5.3,1.1,7.9c-3.7,61.9,0.7,123.8-0.7,185.7c-0.4,16.6-1.7,33.3-1.1,49.9
		c1.9,49.2-4,98.6,1.5,147.8c0.1,1.3,0.3,2.9-0.2,3.9c-0.9,1.6-2.2,3.6-3.7,4s-4.2-0.2-5.2-1.4c-1.7-1.8-3.1-4.4-3.4-6.9
		c-0.6-5.3-0.5-10.6-0.5-16c0.4-91.9,1.1-183.9,1.2-275.8c0.1-43.3-1.1-86.6-1.2-129.9c-0.2-62-0.1-123.9,0-185.9
		c0-8,0.4-16,1.1-23.9c1.1-13.3,0.6-26.5-0.3-39.8c-1.5-19.9-0.9-39.9-0.9-59.9c0-12,0.4-23.9,0.7-35.9
		C5155.6,3882,5156.3,3881.6,5158.5,3879.1z"/>
	<path d="M5408.6,2836.6c0.7,4.3,1.9,8.6,2,12.8c0,13.3-0.5,26.7-0.6,40c-0.6,90-1.3,180-1.6,269.9c-0.8,204-1.6,407.9-2.2,611.9
		c-0.1,19.2-2,38.6,2.5,57.7c0.3,1.2-2.3,4.4-2.7,4.3c-2.2-0.8-5.7-2-6-3.6c-0.9-5.8-1.1-11.9-1.1-17.8c0.7-88,1.6-176,2.1-263.9
		c1.1-203.3,1.9-406.6,2.9-609.9c0.1-28,0.5-56,0.8-84c0.1-5.8,0.9-11.6,1.3-17.4C5406.9,2836.7,5407.8,2836.6,5408.6,2836.6z"/>
	<path d="M5385.9,2802.8c6.4,1.9,6.9,5.4,7.1,8.6c0.5,6.6,0.7,13.3,0.7,19.9c-1.6,226.4-3.2,452.9-4.8,679.3c0,4.6,0,9.2,0,14.1
		c-5.2-0.8-5.8-4.2-6-7.5c-0.4-6-0.6-12-0.5-18c1.2-227.8,2.4-455.5,3.5-683.3C5385.9,2812.1,5385.9,2808.1,5385.9,2802.8z"/>
	<path d="M5288.5,2571.5c1.3,15.6,3.1,27.1-1.5,38.7c-1.3,3.4-1,7.7-0.8,11.5c0.5,7.9,2.1,15.8,2.1,23.7c0.2,96.5,0.1,193,0.1,289.4
		c0,4.7,0.2,9.4-0.5,13.9c-0.3,2.2-2.6,4-4.1,6c-1.7-1.7-4.4-3.2-4.9-5.1c-0.9-3.8-0.6-7.9-0.6-11.9c0.6-106.5,1.1-212.9,1.8-319.4
		c0.1-11.3,0.6-22.6,1.7-33.8C5282.2,2581.2,5285.1,2578,5288.5,2571.5z"/>
	<path d="M5971.8,4206.8c5.7-19-1.4-38.8,6.2-56.8c0.1-0.3,1.2-0.2,1.9-0.3c4.3,12.2,4.7,51.7,0.5,72.6c-3.3,0.7-7.1,2-10.8,2.1
		c-22.5,0.2-45.1,0.2-67.6,0.2c-2.6,0-5.3-0.3-7.9-0.8c-3.6-0.7-6.8-5.2-6.3-9c0.5-3.7,3-6,6.7-6c18.6-0.2,37.1-0.2,55.7-0.4
		C5957.4,4208.3,5964.6,4209.3,5971.8,4206.8z"/>
	<path d="M5271.9,4720.5c4.9-1.9,7.4,0.3,8.2,3.7c0.8,3.8,0.9,7.9,0.9,11.8c-0.1,5.8-0.5,11.6-0.8,16.7c-4.3,2.3-6,0.4-7-2.1
		C5269,4740.5,5269.1,4730.3,5271.9,4720.5z"/>
	<path d="M5388.2,2276.3c-3.2-14.7-4.4-29.4-1.5-45C5393.4,2241.8,5394.3,2258.6,5388.2,2276.3z"/>
	<path d="M5386.5,2322.6c9.1,20.1,9.1,34.1,2.1,46.3c-0.7-0.8-2-1.6-2-2.3C5386.5,2353.4,5386.5,2340.3,5386.5,2322.6z"/>
	<path d="M5408,2299.5c-3-20.7-5-41.5-0.1-65.9C5412.4,2257.9,5409.5,2278.7,5408,2299.5z"/>
	<path d="M5407.3,2802.5c-2.9-16.3-2.7-29.7-1.4-43.8c6,3.7,3.6,9,4.3,13.3c0.7,4.5,0.9,9.1,0.9,13.7
		C5411,2790.5,5413.9,2795.7,5407.3,2802.5z"/>
	<path d="M5388,2720.7c6.7,18.1,6.7,18.3-0.4,27.8C5384,2739.9,5384.5,2732,5388,2720.7z"/>
	<path d="M5393.8,2658.8c-1.3,8.1-2.5,16.2-4.1,26.4C5383.6,2673.3,5383.6,2673.3,5393.8,2658.8z"/>
	<path d="M5386.9,2588.4c5.5,7.9,5.5,7.9,5.1,19c-1-0.5-2.5-0.8-3-1.6C5386.1,2600.4,5385.3,2594.7,5386.9,2588.4z"/>
	<path d="M5409,2620.7c0,7,0,13.9,0,25.2C5404.3,2634.7,5405.8,2627.5,5409,2620.7z"/>
	<path d="M5386.9,2466.2c-1.7-8.2-1.7-13.7,4.6-19.3C5393.5,2454.3,5390.9,2459.2,5386.9,2466.2z"/>
	<path d="M5408.8,2448.9c0,6,0,12,0,18c-0.7,0-1.4,0-2.1,0c0-6.2,0-12.4,0-18.5C5407.4,2448.5,5408.1,2448.7,5408.8,2448.9z"/>
	<path d="M5389.2,2762.8c1.4,4.8,2.8,9.5,4.4,15C5383.9,2775.6,5387.8,2768.9,5389.2,2762.8z"/>
	<path d="M743.1,6370.9c-2.9-588.7-6.3-1176.5-8.4-1764.4c0-3.2,1-6.4,1.7-10.8c9.5-1,18.7-2.3,27.9-2.9c61.2-4,122.3-8,183.5-11.7
		c53.2-3.3,106.4-6.2,159.6-9.5c52.5-3.3,105-6.9,157.6-10.2c50.5-3.2,101.1-6.3,151.6-9.6c11.3-0.7,22.6-1.9,33.9-2.4
		c7.2-0.4,14.4-0.1,22.5-0.1c4.7,16,2.1,32,2.3,47.7c0.2,15.2,1.9,30.5-1.3,45.4c-5.5,1.7-8.6-0.8-9.2-5.2c-0.9-6.6-0.8-13.3-1-19.9
		c-0.3-13.2,0.7-26.5-1.1-40.9c-5-0.4-9.4-1.3-13.8-1.1c-35.3,1.8-70.5,3.7-105.8,5.9c-28.6,1.8-57.2,4.1-85.7,5.9
		c-54.5,3.3-109.1,6.4-163.6,9.7c-30.6,1.9-61.2,4.1-91.8,5.9c-6,0.4-12,0.1-19.3,0.1c-2.6-4-5.8-8.9-8.9-13.6
		c-1.7,0.3-3.5,0.2-4,0.9c-3.2,4.2-6.1,8.6-9.5,13.4c-23.4,3.7-47.4,3.8-71.3,5.2c-23.3,1.3-46.6,2.3-69.8,4.7
		c-23.7,2.5-47.8,1-70.8,5.9c-1,3.4-2.1,5.3-2.1,7.2c2.4,567.2,4.8,1134.4,7.3,1701.7c0,3.3,0.8,6.5,1.4,10.9
		c4.5,0.9,8.9,2.9,13.2,2.5c8.6-0.8,17.2-2.1,25.4-4.4c191.6-54.2,383.1-108.5,573.7-166.1c24.8-7.5,50.1-13.6,75.2-20.4
		c20-5.4,21.2-6.4,21.4-27.2c0.3-45.3,0-90.7,0.2-136c0.1-13.3,1-26.6,1.4-39.9c0.2-7.3,0.4-14.7,0.3-22
		c-0.4-25.3-1.5-50.6-1.5-75.9c-0.2-339.9-0.2-679.9-0.2-1019.8c0-7.3,0-14.7,0.5-22c0.2-2.2,2.2-4.3,3.4-6.7
		c6.4,5.6,6.9,12.3,7.2,19c0.4,10,0.6,20,0.6,30c-0.1,415.3-0.2,830.5-0.3,1245.8c0,14,0.4,28,0.1,42c-0.4,17.7-2.1,20.4-19,25.8
		c-63.4,20.3-126.6,41.5-190.4,60.2c-165.5,48.5-331.3,95.9-497,143.6C761.5,6369.6,754.1,6373.6,743.1,6370.9z"/>
	<path d="M1434,6085.6c-4.6,2-8.1,4.1-11.8,5.1c-212.2,61.5-424.4,122.9-636.7,184.4c-5.2-6.9-3.6-13.7-3.7-20.1
		c-0.6-71.3-1.3-142.6-1.6-213.9c-2-441.1-3.9-882.3-5.8-1323.4c0-7.9,0-15.9,0-22.8c5.5-6.4,11.8-5.7,17.6-6.2
		c19.3-1.5,38.5-2.8,57.8-4c53.9-3.2,107.7-6.1,161.6-9.4c49.9-3.1,99.7-6.7,149.5-9.9c25.3-1.6,50.5-2.8,75.8-4.4
		c61.2-3.8,122.3-7.8,183.5-11.6c3.8-0.2,7.7,0.6,10.8,0.8c5.4,6,3.5,12.3,3.5,18.1c0.2,49.3,0.3,98.6,0.3,147.9
		c-0.1,415.2-0.2,830.3-0.3,1245.5C1434.4,6069.6,1434.1,6077.6,1434,6085.6z M1425.1,6065.3c0.2-7.2,0.7-14.4,0.7-21.7
		c0.1-151.3-0.5-302.6,0.6-453.9c0.4-55.3,0.2-110.5,0-165.8c-0.9-233.3-0.7-466.6-0.9-699.9c0-12.7,0.1-25.3-0.4-38
		c-0.2-4.3-2-8.5-3.1-13.3c-5.8,0-10.5-0.2-15,0c-25.3,1.5-50.5,3.1-75.8,4.7c-54.5,3.5-109,7.1-163.6,10.4
		c-30.6,1.9-61.2,3.3-91.8,5.2c-83.1,5.1-166.3,10.2-249.4,15.4c-13.2,0.8-26.4,2.5-38.5,3.6c-5,8.3-3.4,15.8-3.3,23
		c1.9,407.9,4,815.9,5.9,1223.8c0.4,90,0.5,180,0.9,270c0,7.1-1.7,14.6,2.1,20.9c1.9,0.5,3.4,1.3,4.5,1
		c205.8-60.2,411.5-120.5,617.2-180.9C1418.1,6069,1421,6067.2,1425.1,6065.3z"/>
	<path d="M742.3,1482.9c-0.5,9.9-1.1,16.4-1.1,22.9c-0.1,38.7,0,77.3,0,116c0,284,0,567.9,0,851.9c0,529.3,0.1,1058.6,0.2,1587.8
		c0,13.9-0.7,27.8,4.4,41.4c2.2,5.9,1.2,13.2,1.2,19.8c0,42.7-0.2,85.3-0.2,128c0,7.2,0.3,14.5,0.5,20.7c6.8,6.4,13.8,4.3,20.2,4.4
		c54.6,0.2,109.3,0.1,163.9,0.1c7.3,0,14.5,0,22.9,0c0.6,5.4,1.1,9.5,1.5,13.1c-2.5,1.3-3.6,2.4-4.7,2.4c-22,0.2-44,0.4-66,0.5
		c-41.3,0.1-82.6,0-124,0c-6.6,0-13.1-0.4-20.8-0.6c-0.9-5.1-2.3-9.4-2.3-13.8c-0.4-54.7-2.1-109.4-0.4-164
		c1.7-51.3,1-102.6,0.8-153.9c-0.5-144-1.9-287.9-2.1-431.9c-0.8-662.6-1.4-1325.2-2-1987.8c0-19.3-0.1-38.7,0-58
		c0-5.2,0.8-10.5,1.2-15.9c9.1-1.8,16.4,2,23.9,4c60.4,16.5,120.6,33.4,181,50c165,45.3,330.1,90.5,495.1,135.7
		c25.4,7,25.7,7.1,25.8,34.3c0.6,133.3,1.1,266.6,1.6,400c0.2,59.3,0.5,118.7,0.5,178c0,16.6-1.3,33.3-1.8,49.9
		c-0.2,6.6-0.1,13.3,0.3,20c4.1,61.9,3.6,123.9,3.8,185.9c0,12.6-0.3,12.6-7.6,24.8c-4.1-3.9-2.7-8.7-2.7-12.7
		c-0.1-54,0.1-108-0.1-162c-0.8-225.3-1.8-450.6-2.7-675.9c0-6.6,1.2-13.4-4-21C1215.1,1612.6,980.3,1548,742.3,1482.9z"/>
	<path d="M1433.6,2404.4c-4.8-6.7-3.4-12.7-3.4-18.4c-0.7-84.7-1.3-169.3-1.8-254c-0.6-122-1.1-244-1.6-366
		c-0.1-30.6,0.9-27.8-28-35.9c-198.7-56-397.3-112.2-596-168.1c-10.1-2.8-19.9-7.4-29.9-6.9c-6.5,4.4-5,10.2-5,15.2
		c-0.1,33.3-0.1,66.7,0,100c0.5,272.6,1.2,545.3,1.5,817.9c0.6,517.9,1.1,1035.9,1.6,1553.8c0,8.5,1.1,17.2-1.1,25.3
		c-4.7,1.5-7.5-0.7-8.1-4.1c-1-5.8-1.6-11.8-1.3-17.6c0.5-13.3,2.4-26.6,2.4-39.8c0.1-54,1-108-0.9-162
		c-1.5-43.3,1.2-86.5,0.5-129.8c-0.1-3.3,0.3-6.7-0.1-10c-3.8-36.6-1-73.2-0.5-109.9c0.5-37.3-1.2-74.6-1.3-112
		c-0.2-51.3,0.3-102.6,0.3-153.9c0-44.6-0.2-89.3-0.3-133.9c-0.2-50-0.7-100-0.7-150c0-95.3,0.2-190.6,0.4-285.9
		c0.1-69.3,0.4-138.6,0.3-208c-0.1-116.7-0.5-233.3-0.6-350c-0.1-214.6-0.2-429.3-0.2-643.9c0-6.5-1-13.2,2.7-20.5
		c3.9,0.6,7.8,0.7,11.4,1.7c83.9,23.8,167.7,47.9,251.7,71.4c115.4,32.3,231,64.1,346.5,96c20.5,5.7,41,10.9,60.3,16.1
		c5.7,7.8,5,15.3,5,22.5c-0.1,21.3-0.6,42.7-0.6,64c-0.1,34-0.1,68,0,102c0,32,0.2,64,0.3,96c0.4,122,0.9,244,1.3,365.9
		c0,8.7-0.1,17.3-0.7,26C1437.6,2399.8,1435.4,2401.7,1433.6,2404.4z"/>
	<path d="M841.7,3894.9c-0.5-5.1-1.3-8.3-0.9-11.4c3.2-24,2.9-47.8-0.6-71.7c-1.2-8.5-0.8-17.3-0.8-26
		c-0.2-283.3-0.5-566.6-0.7-849.9c-0.2-343.3-0.2-686.6-0.3-1029.8c0-9.3,0.3-18.5,0.5-27.5c6.1-4.1,11.1-1.9,16.1-0.5
		c37.2,10.5,74.3,21,111.5,31.5c121.8,34.4,243.5,68.7,365.3,103c23.2,6.5,23.3,6.5,23.4,31.5c0.2,39.3,0.3,78.7,0.3,118
		c0,5.8-0.7,11.7-1.2,20.7c-5.2-9.8-4-17.1-4.1-24.1c-0.3-33.3-0.4-66.7-0.6-100c0-4.7,0.1-9.3-0.1-14c-0.4-9.9-1.5-11.5-10.4-14.5
		c-6.3-2.1-12.7-3.9-19.1-5.7c-149.9-42.3-299.9-84.7-449.8-127c-7-2-14-3.6-22.3-5.7c-0.9,5.4-2.2,9.8-2.3,14.1
		c-0.3,20.7-0.3,41.3-0.3,62c0.2,218,0.6,435.9,0.7,653.9c0.3,396.6,0.4,793.2,0.5,1189.8c0,15.3-0.2,30.7-0.1,46
		c0,4.6,0.5,9.3,1.1,13.9c0.3,1.9,1.6,3.6,3.1,6.7c4.5,0.5,9.6,1.6,14.7,1.5c24.7-0.2,49.3-0.8,74-1.2
		c125.9-2.2,251.8-4.5,377.8-6.7c8-0.1,16,0.2,24-0.4c5.1-0.4,10.1-2,16.1-3.2c0.4-7,1-12.9,1-18.8c0-93.3-0.1-186.6-0.2-279.9
		c0-7.9,0-15.8,2.8-24.1c0.7,2.4,2,4.9,2.1,7.3c0.3,6.7,0.1,13.3,0.1,20c0.3,30.7,0.8,61.3,0.9,92c0.3,65.9,0.6,131.9,0.7,197.8
		c0,6.6-0.8,13.1-1.2,20.7c-5,0.9-9.4,2.1-13.8,2.5c-7.3,0.6-14.6,0.7-22,0.8c-152.6,2.7-305.1,5.5-457.7,8.2
		C861.3,3895,852.7,3894.9,841.7,3894.9z"/>
	<path d="M1444.6,4224.1c-2.1,0-5,0.8-7.1-0.1c-12.1-5.3-24.7-4.6-37.4-4.5c-163.2,1.9-326.4,3.7-489.6,5.5c-7.3,0.1-14.7,0-22-0.4
		c-4.1-0.2-4.5-1.2-6.8-11.5c4.7-1.6,9.5-3.7,14.5-4.6c4.5-0.9,9.3-0.5,14-0.5c137.9-1.7,275.8-3.4,413.7-5.2
		c32-0.4,63.9-1,95.9-1.6c5.2-0.1,10.4-0.8,15.2-1.2c5.4-7.5,3.3-15.1,3.3-22.1c-0.1-76-0.3-151.9-0.6-227.9
		c-1.3-296.5-2.6-593.1-4.2-889.6c-1-200.6-2.4-401.2-3.6-601.7c0-8-0.2-16,0-24c0.1-3,1.1-5.9,2.3-11.7c3,4.1,5.3,5.9,5.5,7.9
		c0.7,6.6,0.8,13.3,0.8,19.9c0.5,158.6,0.4,317.2,1.4,475.8c1.6,237.9,4.3,475.8,5.7,713.7c1,161.3,0.5,322.5,0.8,483.8
		c0,26.7,0.6,53.3,0.7,80C1447.3,4210.4,1448.9,4217.2,1444.6,4224.1z"/>
	<path d="M969,4286c0.3-9.2,1.4-11.6,6.6-12.2c5.9-0.7,12-0.8,17.9-0.9c88-0.4,175.9-0.5,263.9-1.2c64.6-0.5,129.3-1.7,193.9-2.7
		c3.2,0,6.4-0.8,10.6-1.3c0.6-4.4,1.5-8.1,1.5-11.9c0.1-50.7,0.3-101.3,0-152c-0.5-94.6-1.4-189.3-1.9-283.9
		c-0.1-28.7,0.1-57.3,0.9-86c0.3-10.4,5.2-21.2,3.7-31.1c-1.5-9.7-4.1-19.4-4.2-29.4c-0.9-117.3-2-234.6-2.8-351.9
		c-0.6-88-0.9-176-1-264c0-20,1.5-39.9,2.2-59.9c0.2-6.6,0-13.2,0-20.4c2.8-2.1,5.7-1.2,6.3,3c0.7,5.2,0.6,10.6,0.7,15.9
		c1.2,224.6,2.3,449.3,3.4,673.9c1,197.3,2,394.6,3,591.9c0,7.9,1.1,15.9-2,24.6c-4,0.5-7.8,1.4-11.6,1.5c-9.3,0.2-18.7,0.1-28,0.1
		c-146.6,0-293.2,0-439.8-0.1C984.6,4288,976.5,4289.6,969,4286z"/>
	<path d="M858.8,1925.8c9.5,2.4,15.9,3.8,22.2,5.6c108.1,31.3,216.1,62.8,324.2,94.1c36.4,10.6,73,20.8,109.4,31.3
		c20.4,5.9,22.4,8.1,22.8,28.9c0.4,25.3,0.1,50.6,0.1,79.1c-3-4.8-5.5-6.9-5.8-9.3c-0.8-7.9-0.9-15.9-1-23.9c-0.1-18,0-35.9,0-52.6
		c-6.9-7.8-15.3-8.3-22.8-10.5c-63.3-18.4-126.7-36.4-190-54.7c-74.2-21.4-148.4-42.9-222.6-64.4c-8.8-2.6-17.8-4.6-28-7.3
		c-1.3,5-2.8,8.6-3,12.2c-0.5,8-0.3,16-0.3,24c0,606.5,0,1213,0,1819.4c0,9.9-1.2,19.9,2.3,30.7c4.5,0.7,8.9,2.1,13.3,2.1
		c23.3,0.3,46.6,0.3,70,0.3c117.3,0.1,234.5,0.1,351.8,0.3c6.3,0,13-1.3,19.1,1.8c-1.6,4.5-5.2,4.2-8.4,4.4
		c-12.6,0.6-25.3,1.2-37.9,1.4c-99.3,1.9-198.5,3.6-297.8,5.5c-26.6,0.5-53.3,1.5-79.9,2.1c-11.3,0.3-22.6,0-33.9,0
		c-5.8-4.5-4-11-4-16.7c-0.2-49.3-0.3-98.6-0.3-148c-0.1-533.8-0.3-1067.7-0.4-1601.5c0-44,0.1-88,0.2-132
		C858,1941.8,858.5,1935.2,858.8,1925.8z"/>
	<path d="M1338.1,3832.4c0.4-15.8,1.2-30.4,1.2-45c-0.3-255.1-0.5-510.2-1.2-765.4c-0.1-53.3-2.2-106.5-3.2-159.8
		c-0.2-7.8-1.3-15.7,1.2-23.2c4.1,0,5,2.3,5.1,5.2c0.2,10,0.5,20,0.5,30c0.9,195.2,1.6,390.3,2.6,585.5
		c0.6,117.2,1.5,234.5,2.2,351.7c0,6,0.2,12-0.6,17.9C1345.5,3832.7,1342.6,3834.8,1338.1,3832.4z"/>
	<path d="M1359.1,2804.1c1.9,236.9,3.8,473.8,3.6,710.8c0,2.5-1,5-1.8,8.7c-5.2-7-3.6-13.9-3.7-20.2c-0.9-55.9-1.9-111.8-2.3-167.7
		c-1.2-165.1-2.2-330.2-3.2-495.3c0-7.3-0.3-14.7,0.2-22c0.4-5,2.1-9.9,3.2-14.9C1356.5,2803.7,1357.8,2803.9,1359.1,2804.1z"/>
	<path d="M1460.4,2955.6c-1-3.2-2.3-5.5-2.5-7.8c-0.4-5.3-0.3-10.7-0.3-16c0-95.3,0-190.6,0-286c0-6.7-0.4-13.5,0.9-19.9
		c1.3-6.7,1.6-12.5-1.1-19.2c-3.9-9.9-2.3-20.5-1-32.2c2.7,2,5.2,2.8,5.4,4.1c1.6,8.5,3.8,17,3.8,25.5
		c0.6,111.3,0.9,222.6,1.1,333.9c0,4.6-0.4,9.3-1.3,13.8C1465.3,2953.1,1462.8,2953.9,1460.4,2955.6z"/>
	<path d="M764.6,4149.4c5.1,0.1,5.7,3.6,5.8,6.8c0.4,10,0.4,20,0.8,29.9c0.3,6.5,0.9,13,1.5,20.6c4.6,0.6,8.4,1.5,12.2,1.6
		c18.6,0.2,37.3,0.1,55.9,0.2c2.7,0,5.3,0,8,0.1c4.1,0.2,8.2,0.9,9.2,5.8c0.9,4.3-3,9-7.9,9.8c-0.7,0.1-1.3,0.2-2,0.2
		c-27.2,0-54.4,0.8-81.8-0.2c-1.4-3.4-3.3-5.7-3.3-8.1c-0.3-20.6-0.3-41.2-0.2-61.9C762.7,4152.5,764,4150.9,764.6,4149.4z"/>
	<path d="M1335.5,2230.9c7.8,27.3,7.8,51.8,0,71.8C1335.5,2278.2,1335.5,2256.6,1335.5,2230.9z"/>
	<path d="M1358.3,2368.7c-8.5-17.8-8.2-26,0-42C1358.3,2341.8,1358.3,2355.2,1358.3,2368.7z"/>
	<path d="M1336.5,2759.3c6.5,15,5.9,27.3-0.9,41.1c-3-7.3-1-14.7-0.9-21.9C1334.8,2772.8,1335.8,2767.2,1336.5,2759.3z"/>
	<path d="M1472.3,4717.5c4.3,11.7,3.4,21.9,0.7,32c-0.5,1.9-3.2,3.3-5.6,5.7c-3.6-11.7-2.8-22-1-32.3
		C1466.7,4721.2,1469.6,4719.9,1472.3,4717.5z"/>
	<path d="M1356.2,2276.5c-3-14.9-3.1-29.6-1.1-45c2.1,1.4,3.8,1.9,3.9,2.7c0.8,5.2,1.8,10.4,1.6,15.6
		C1360.2,2258.7,1360.9,2268,1356.2,2276.5z"/>
	<path d="M1355.5,2661.1c3.2,6.8,7.9,13.5,3.1,22.1C1353.2,2673.4,1353.3,2673.4,1355.5,2661.1z"/>
	<path d="M1356.1,2720.3c5.6,11.8,5.9,19.5,1.4,28.2C1352.8,2738.6,1352.8,2738.6,1356.1,2720.3z"/>
	<path d="M1336,2643.4c0-8.5,0-15.3,0-22.3C1341.5,2628.2,1341.5,2628.2,1336,2643.4z"/>
	<path d="M1354.3,2607.9c-2.7-7.4-1.4-13,3.3-19.5C1358.7,2599.7,1358.6,2599.7,1354.3,2607.9z"/>
	<path d="M1357.7,2449.4c0.8,4.6,1.7,9.3,2.7,14.9c-2.6-1.1-4.4-1.4-4.5-2c-1-4.1-1.6-8.3-2.3-12.5
		C1354.9,2449.6,1356.3,2449.5,1357.7,2449.4z"/>
	<path d="M1358.2,2761.9c0.2,4.1,0.6,6.6,0.4,9c-0.2,2.3-1.2,4.6-2.2,8.2C1353.8,2772,1353.8,2772,1358.2,2761.9z"/>
	<path d="M1338.4,2448.8c0,5.5,0,11,0,16.5c-0.7,0-1.4,0-2.1,0c0-5.5,0-11.1,0-16.6C1337,2448.8,1337.7,2448.8,1338.4,2448.8z"/>
	<path d="M5907.1,6135c-8.8,3.1-15.5-0.6-22.4-2.5c-81.2-23.5-162.4-47.1-243.7-70.6c-82.5-23.9-165.1-47.7-247.6-71.5
		c-3.8-1.1-7.8-2-11.6-3.1c-7-2.2-11.3-7-12.3-14.3c-0.8-5.9-1.5-11.9-1.5-17.9c-0.1-90-0.1-180,0-270c0-7.9,1.2-15.8,2.1-27.2
		c4.7,9.5,3.2,15.9,3.2,22.1c0.1,85.3,0.1,170.7,0.1,256c0,7.3,0,14.6,0,20.5c5.9,8.1,13.9,8.2,20.7,10.2
		c95.7,28.5,191.5,56.8,287.3,85.1c66.4,19.6,132.8,39.4,199.2,58.9c7.5,2.2,14.8,6.3,23.2,4.5c5.4-6.6,3.6-14.2,3.6-21.3
		c-0.1-51.3-0.7-102.7-0.7-154c-0.3-345.3-0.5-690.6-0.7-1035.9c0-16.7,0-33.3-0.1-50c0-4.6-0.7-9.2-1-13.1
		c-5.9-4.8-12.1-3.7-18-3.8c-16.7-0.2-33.3,0.2-50-0.4c-49.9-1.7-99.9-3.8-149.8-5.8c-7.3-0.3-14.6-1.1-21.9-2.3
		c-8.7-1.4-9.6-3.3-8.9-16.6c3.7-0.3,7.6-0.9,11.5-0.9c47,0.8,229,12.7,244,16c3.3,6.3,2,13.7,2,20.8c-0.1,54-0.2,108-0.5,162
		c-1.8,361.3-3.6,722.6-5.4,1083.9c0,8.7,0.6,17.3,0.5,26C5908.4,6125,5907.6,6130.2,5907.1,6135z"/>
	<path d="M5376.8,4809.7c-0.8,5.3-1.9,9.1-1.9,13c-0.2,11.3-0.1,22.7-0.1,34c0,239.9,0,479.9-0.1,719.8c0,7.8,1.3,15.9-2.4,24.7
		c-4.9-9.2-3.9-17.8-3.9-26.2c-0.1-80.6-0.1-161.3,0-241.9c0-136.6,0.1-273.2,0.2-409.9c0-35.3,0.1-70.6,0.2-106
		c0-6.5,0.7-13,1.1-20.4c4.9-0.7,8.7-1.8,12.5-1.7c22,0.4,44,0.7,65.9,1.7c37.9,1.9,75.8,4.3,113.7,6.5c4,0.2,8.1,0.1,11.9,0.9
		c17.7,3.7,35.6,5,53.6,3.7c3.9-0.3,8,0.4,11.7,1.8c3.1,1.1,5.7,4.3,4.5,7.9c-1,2.9-3,6.2-5.5,7.5c-2.7,1.4-6.5,1.1-9.7,0.8
		c-28.5-2.6-57-5.3-85.6-8c-37.8-3.5-75.6-7.1-113.4-10.5c-8.6-0.8-17.1-1.3-25.2,3.5C5396.3,4815.7,5387.7,4810.6,5376.8,4809.7z"
		/>
	<path d="M838.9,6138c-0.6-6.2-1.2-9.4-1.1-12.6c0-2.5,0.7-5.1,1.1-7.2c177.5-52.1,354.1-104.6,530.1-156.7c4.3-8.2,3-15.7,3-22.8
		c0.1-85.3,0.1-170.6,0.1-255.9c0-6.6,0-13.3,0-20.1c5.1,0.6,5.2,4.1,5.4,7.2c0.4,6.6,0.6,13.3,0.6,20c0,86,0,171.9,0,257.9
		c0,6,0.2,12-0.5,18c-1.6,15.2-4.9,18.6-20.2,23c-56.9,16.3-113.9,32.5-170.8,49c-105.5,30.6-210.9,61.5-316.3,92.1
		C860.7,6132.7,851,6134.9,838.9,6138z"/>
	<path d="M1375.8,4796.2c0.7,5.7,1.5,8.9,1.5,12.2c0.1,259.9,0.1,519.8,0.1,779.7c0,2.6-0.8,5.2-1.6,7.8c-0.3,1.1-1.4,2-2.4,3.3
		c-4.1-0.2-2.6-3.7-2.7-5.6c-0.3-6.6-0.2-13.3-0.2-20c0-244.6,0-489.1,0-733.7c0-9.2-0.3-18.5-0.5-28.7c-4.4,0-7.5-0.5-10.4,0.1
		c-8,1.8-15.3,1.7-23.2-2.1c-5-2.4-11.7-2.2-17.5-1.8c-13.9,1-27.8,2.9-41.7,4.1c-51.7,4.7-103.5,9.4-155.2,14
		c-4.6,0.4-9.3,0.6-13.8,0.2c-4-0.4-7.1-4.7-6-8.9c0.7-2.8,3-6.2,5.4-7.3c3.5-1.5,7.8-1.6,11.7-1.4c16.7,1.1,33.1-0.5,49.7-3.2
		c15.7-2.6,31.8-2.8,47.8-3.6c40.6-2.1,81.2-4.1,121.8-5.9C1350.6,4794.7,1362.5,4794.2,1375.8,4796.2z"/>
	<path d="M831.1,4827.9c17.6-4,187.4-15.2,244.5-16.6c4.5-0.1,9,0.5,13.4,0.8c0.9,13.6,0.2,15.4-8.8,16.6
		c-10.6,1.4-21.2,2.3-31.8,2.8c-63.2,3.1-126.4,6.3-189.8,5.7c-5.9-0.1-12.1-1.1-17.2,3.2c-0.4,0.6-0.7,1.1-1,1.7
		c-0.3,0.6-0.5,1.2-0.6,1.9c-0.2,1.3-0.3,2.6-0.4,4c-0.1,2.7-0.1,5.3-0.1,8c-0.3,380.6-0.6,761.1-1.9,1141.7
		C834.9,5607.9,834,5218.2,831.1,4827.9z"/>
</g>
</svg>
