<?xml version="1.0" encoding="utf-8"?>
<!-- Generator: Adobe Illustrator 23.0.3, SVG Export Plug-In . SVG Version: 6.00 Build 0)  -->
<svg version="1.1" id="Calque_1" xmlns="http://www.w3.org/2000/svg" xmlns:xlink="http://www.w3.org/1999/xlink" x="0px" y="0px"
	 viewBox="0 0 16141.9 16134.7" style="enable-background:new 0 0 16141.9 16134.7;" xml:space="preserve">
<style type="text/css">
	.st0{fill:#FFFFFF;}
</style>
<g>
	<path class="st0" d="M16141.9,5423.5c-2.2,3.1-6.1,6.1-6.4,9.3c-1.8,20.5-10.5,38.5-20.3,55.9c-14.4,25.5-35.6,42.4-64.8,49.2
		c-14.5,3.4-28.9,4.8-43.5,4.9c-24,0.2-47.9,0.4-71.9,1c-1.8,0-3.7,3-5.1,4.9c-0.6,0.8-0.2,2.4,0.1,3.6c0.3,1.3,0.8,2.6,1.6,3.6
		c1.7,2,3.7,3.9,5.6,5.7c47.6,47.1,78.7,103.7,96.6,167.8c12.5,45.1,21.6,90.8,20.1,137.9c-1.8,58.2-23.7,108.9-61.3,152.7
		c-27.6,32.1-64.9,46.1-105.7,50.3c-30.5,3.2-61.2,2.3-91.7-2.3c-72.5-11-143.8-27.6-214.1-48.4c-53.6-15.9-107-32.5-160.5-48.5
		c-8.8-2.6-18.1-3.6-27.3-4.7c-1.8-0.2-5,2.2-5.8,4.1c-0.9,2.1-0.6,6,0.9,7.3c7.6,7.3,15.6,14.4,23.8,21.1
		c74.4,60.6,149.1,120.9,223.4,181.7c24.8,20.3,48.9,41.3,72.9,62.4c33.3,29.2,62.4,62,85,100.2c12.3,20.7,22.5,42.3,29.8,65.3
		c22.4,70.6,7.1,134.2-37,191.8c-14,18.2-32.8,31-54.2,39.8c-16.1,6.6-32.7,11.8-49.8,14.3c-76.9,11-153.8,13.1-231.2,3.7
		c-62.6-7.6-122.8-23.4-181.8-44.8c-17.5-6.4-35-12.7-52.7-18.5c-11.3-3.7-23-6.7-35.1-5.7c-1.8,0.2-3.6,3.2-4.9,5.2
		c-0.7,1-1.1,3-0.5,3.8c4.6,6.4,9.1,13.1,14.4,19c54.5,60.4,109.3,120.5,163.5,181.1c16.9,18.8,33,38.4,48.2,58.7
		c16.8,22.5,30.6,46.9,39.1,73.9c8.1,25.6,12.2,51.5,7.6,78.7c-10.8,64.6-48.6,106.2-109.9,124.2c-48.7,14.3-99.2,18.6-150.4,12.9
		c-49.6-5.6-96.4-19.1-141.2-40.9c-27.5-13.3-55.3-26.4-84.5-35.8c-11.4-3.7-22.8-7.1-34.4-10.3c-7.7-2.1-16.6,5.8-15.3,13.7
		c1.3,7.8,3,15.7,5.7,23.1c10.9,30.4,16.8,61.7,18.6,93.8c1.7,30.8-0.3,61.2-9.6,90.9c-9.9,31.7-28.4,57.3-55,76.5
		c-36,26-75.9,43.8-119.6,53.1c-18.6,3.9-37,4-55.6,1.3c-34.4-5-67.6-14.7-100.6-25.1c-31.7-10.1-63.5-20-95.1-30.3
		c-25.4-8.2-51.5-13.6-77.9-17.1c-7.8-1.1-15.6,6.8-14.6,15c0.6,5.3,1.6,10.5,2.7,15.6c6.9,32.9,8,66,4.4,99.4
		c-2.1,19.5-9.9,35.8-23.2,49.6c-6.4,6.7-13.4,13-20.8,18.7c-76.9,59.1-163.4,82.2-259.2,66.6c-25.2-4.1-50.2-5.9-75.6-4.8
		c-47.9,2.1-83.4,24.5-106.6,66.4c-8.4,15.2-14.8,31.3-19.7,47.9c-1.1,3.8-1.4,7.9-2.4,11.8c-12.6,51.2-43.2,88.2-90.3,110.8
		c-56.4,27.1-115.5,39.4-178.5,29.4c-29.2-4.6-57.1-12.5-84.2-24c-13.5-5.7-26.9-11.5-41.5-13.9c-18.8-3.2-34.2,2.5-46.2,17.1
		c-4.2,5.1-8,10.7-11.5,16.3c-40.3,64.2-93.2,116.2-154.3,160.3c-43.3,31.3-89.4,58-137,82.1c-32.1,16.2-64.3,32.1-96.8,47.6
		c-62.6,29.9-123.2,63.1-181.7,100.4c-46.1,29.4-92.1,58.8-138.7,87.2c-31.8,19.4-64.1,38.1-97.1,55.4c-56.9,29.8-117,51.1-179.7,65
		c-3.9,0.9-7.7,2.3-11.7,2.7c-39.1,3.5-74.8,17.8-110.2,33.6c-114.2,51.1-228.6,101.9-344.9,148.1c-87.8,34.9-176.4,67.7-267.1,94.6
		c-79.3,23.6-159.8,41.8-241.9,51.8c-34.2,4.1-64.3,16.4-91.4,36.8c-10.6,8-20.6,16.9-30.8,25.5c-30.4,26.1-62.2,50.2-96.6,70.9
		c-40.1,24.2-82.6,42.6-127.7,55.7c-48.8,14.2-97.2,14-145.9,0.9c-23.2-6.3-45.9-13.8-67.9-23.4c-7.3-3.2-14.5-6.8-21.9-9.7
		c-20.1-7.6-39.2-6.1-56.5,7.6c-3.1,2.5-6.2,5.1-9.3,7.6c-49.1,39.7-106.3,60.1-167.9,69.1c-34.3,5-68.8,7.4-103.5,8.6
		c-53.3,1.9-106.5,5-159.7,8.9c-34.7,2.6-68.3,10.9-100,26.2c-6,2.9-11.9,6-18,8.8c-32.3,14.6-64.5,13.8-96.8-0.4
		c-17.2-7.6-32.9-17.4-48.1-28.4c-74.7-53.9-134.2-121.4-179.3-201.5c-34.1-60.6-59.7-124.9-80.5-191.1c-2.8-8.9-5.4-17.9-7.5-27
		c-7.4-32.1-26.8-54.3-55.7-69.1c-16.8-8.5-33.9-15.2-52.9-16.8c-13.3-1.1-26.5-3-39.7-5c-46.3-6.7-86-27.2-119.7-59.4
		c-25.4-24.2-44.6-53-60.4-84c-19.4-38.1-34.9-77.7-47.8-118.4c-19.7-62.3-35.2-125.6-48.6-189.5c-0.8-3.9-1.5-7.9-3.1-11.5
		c-0.9-2.1-3.5-3.6-5.7-4.8c-3-1.7-4.8-0.4-5.3,3.3c-2.6,17.1-5.7,34.1-7.7,51.3c-3.2,27.8-5.7,55.7-8.4,83.5
		c-3.6,37.1-6.5,74.4-10.9,111.4c-2.7,22.4-7.5,44.6-11.9,66.8c-6.2,31.3-13.2,62.5-19.6,93.8c-8,39.3-10.7,79.4-11.6,119.3
		c-1.8,80.4-14.7,159.1-31.5,237.4c-32.5,151.1-63.1,302.5-93.1,454.1c-45.2,228.7-90,457.4-141.4,684.8
		c-22.6,100-43.3,200.5-65,300.7c-12.4,57.4-28.1,113.8-50.5,168.1c-14.9,36-22.5,73.8-29.4,111.8c-3.6,19.7-6,39.5-10.1,59.1
		c-5.4,26-10.9,51.9-20.5,77.1c-14.2,37.4-23.1,76.6-30.2,115.9c-16.3,90.8-43.9,178.3-72.3,265.8
		c-57.6,177.4-122.2,352.2-189.4,526.2c-7.2,18.6-14.4,37.3-21.5,55.9c-12.3,32.4-25.3,64.5-41.9,94.9c-9.8,18-15.8,36.5-14.8,57.2
		c0.5,9.3-0.2,18.7-0.7,28c-1,18.9-5.3,36.9-14.4,53.6c-21.8,40.1-35.5,83.3-47.4,127c-31.2,114.3-64.6,228.1-98.7,341.6
		c-12.7,42.2-22.9,84.9-30,128.3c-17.3,106.5-33.6,213.2-50.4,319.8c-14.5,92.1-29.1,184.2-43.5,276.4c-3.7,23.7-7,47.5-9.4,71.3
		c-6.4,63.7-12,127.4-18.4,191c-3.6,35.8-7.3,71.6-9,107.6c-2.7,58.6-3.8,117.3-3.6,175.9c0.1,40-0.4,80-0.8,120
		c-0.1,12,0.3,23.4,6.1,34.8c10.5,20.3,14.4,42.7,16.9,65.4c3.5,31.8,9.9,62.9,20.8,93.3c10.3,28.8,17.5,58.7,25.6,88.2
		c7,25.7,15.4,51,26,75.5c13.3,30.8,30.6,59.1,53.2,84.1c26,28.6,52,57.2,77.7,86.1c13.6,15.4,28.9,26.8,50.1,30.1
		c15.7,2.4,30.9,8.3,44.9,16.2c52.5,29.7,109,49.4,165.7,68.8c11.3,3.9,22.9,7,34.3,10.8c45.6,15.2,89.8,33.6,131.3,58
		c18.5,10.9,38.1,18,59.2,22.9c79.2,18.6,156.1,44.6,230.6,77.4c153,67.2,298,148.3,431.9,248.7c45.9,34.4,89.7,71.3,132.1,110
		c32.5,29.6,64.8,59.6,98.7,87.5c106,87.2,193.9,190.1,268.2,305.1c31.8,49.2,65.1,97.5,97.1,146.7
		c52.5,80.8,94.7,166.6,126.4,257.7c26.4,75.7,44.5,153.3,55.5,232.8c4.9,35.9,6.2,71.6,5.4,107.6c-0.1,5.3,0,10.7-0.7,16
		c-3.3,24.3-16,41.9-38.5,52.1c-12.7,5.8-28.3,3.8-36.7-6.9c-19.8-25-39.3-50.4-57.9-76.3c-5.3-7.3-8.5-16.7-10.5-25.6
		c-2.9-12.5-9.9-21.2-19.2-29.4c-19.1-16.7-37.8-33.7-56-51.4c-17.5-17-37.6-29.8-60.4-38c-88.9-31.9-177.9-63.8-267.1-94.9
		c-34-11.9-69.3-19.3-104.9-24.6c-56.6-8.5-113.4-16.7-170.3-22.7c-47.7-5.1-95.7-7.8-143.6-10.1c-39.9-1.9-80-2-120-1.8
		c-28.2,0.1-56.1-2.7-83.4-8.6c-23.7-5.1-47.5-7.7-71.4-7.2c-40,0.7-79.9,2.9-119.9,4.6c-8,0.3-15.9,1.9-23.9,2.3
		c-63.9,3.8-127.7,7.7-191.6,11.2c-29.3,1.6-58.6,2.7-87.9,4c-78.7,3.5-157.4,0-235.8-6.4c-73-6-145.5-16.9-216.2-37.4
		c-44.5-12.8-83.1-34.3-115.7-67.8c-26.9-27.7-56-53.3-84.2-79.7c-7.8-7.3-13.9-7.6-20.8-1.1c-27.2,25.6-55,50.5-81.2,77.1
		c-29.8,30.2-64.7,50.8-105,63c-48.6,14.7-98.2,24.3-148.4,31.3c-109.9,15.2-220.5,18.6-331.2,14.4c-67.9-2.6-135.7-7.6-203.6-11.8
		c-45.2-2.8-90.4-6.7-135.6-9.1c-25.3-1.4-50.7-1.6-76-1.1c-14.6,0.3-29.3,1.9-43.6,4.8c-38,7.7-76.2,11.9-115.1,10.9
		c-73.4-1.9-146.6,3.1-219.7,9.7c-53,4.7-105.8,12.8-158.6,19.7c-19.8,2.6-39.4,6.6-59.2,9.5c-37.1,5.5-72.9,15.8-108.1,28.2
		c-77.8,27.4-155.2,56-233.1,83.2c-30.8,10.8-57.6,26.7-80.6,50c-16.8,17.1-35.3,32.5-53.1,48.6c-6.1,5.5-11.2,11.7-12.5,19.9
		c-3.2,19.2-13.4,34.6-25.5,49c-13.7,16.3-27.5,32.5-38.9,50.7c-13.9,22.4-37.8,18.5-52.3,8.4c-18.8-13.1-28.5-31.1-29.1-54
		c-0.9-38.7-0.3-77.1,5.1-115.7c8.5-60.9,20.8-120.7,38.1-179.6c31-105.4,76.4-204.5,134.8-297.5c14.9-23.7,30.6-46.9,46-70.2
		c22-33.4,44.3-66.6,66.2-100c52.2-79.3,110.6-153.6,178.6-220c23.8-23.3,49.1-45,74-67.2c36.8-32.8,74.1-65.1,110.6-98.2
		c51.4-46.6,104.8-90.7,161.3-131c135.1-96.2,279.5-175.6,432.8-238.9c62.8-26,127.2-47.2,193.6-62.5c20.7-4.8,40.9-10.4,59.7-21.7
		c45.7-27.7,95.1-47.6,146-63.9c31.7-10.2,63.1-21.2,94.3-32.6c28.8-10.5,56.9-22.7,83.7-37.7c18.8-10.5,38.4-18.7,59.4-22.7
		c17.9-3.4,31.8-12.5,43.8-25.8c27.5-30.8,55.5-61.2,83-92.1c26.9-30.3,46.2-65.2,59.6-103.2c8.8-25.1,16.1-50.8,23.9-76.2
		c8.2-26.7,15.5-53.7,24.3-80.3c8.5-25.5,12.5-51.8,15.5-78.2c2.7-24,7.3-47.5,18.2-69.2c4.4-8.8,5.1-17.6,5-27
		c-0.4-64,0-128-1.2-192c-1-53.3-3.3-106.6-6.3-159.8c-1.8-31.9-5.8-63.7-9-95.5c-4-39.8-8.6-79.5-12.3-119.3
		c-5.2-55.8-13.8-111-22.8-166.3c-9.6-59.2-18-118.6-27.2-177.8c-11.5-73.7-23.3-147.4-35-221.1c-6.7-42.1-13.4-84.2-20-126.3
		c-7.7-48.8-19.3-96.6-33.1-143.9c-32.6-111.2-64.5-222.5-96.5-333.8c-12.6-43.5-25.5-86.9-47.4-127c-9.1-16.7-13.2-34.7-14.7-53.5
		c-0.2-2.7-0.4-5.3-0.4-8c-0.5-56.8,0.4-45.7-23.7-95.1c-9.9-20.3-18.8-41.2-27-62.3c-58.2-150.2-116.7-300.4-168.3-453.1
		c-26.8-79.5-52.3-159.4-78.7-239c-16.4-49.4-28-100-38.2-150.9c-10.8-53.6-22.7-106.8-41.9-158.2c-8-21.3-10.4-44-14.7-66.2
		c-5.6-28.8-10.4-57.7-15.9-86.5c-4.5-23.6-10.9-46.7-20.1-68.9c-27.2-65.5-44.3-133.9-59.2-203c-28.1-130.2-56.6-260.3-84.3-390.6
		c-23.5-110.7-46.2-221.7-68.8-332.6c-20.7-101.8-40.7-203.7-61.2-305.6c-19.4-96.6-39.1-193.2-58.7-289.8
		c-11.4-56.1-23.1-112.2-34.2-168.4c-8.6-43.2-13.8-86.8-15.3-130.9c-1-26.6-3-53.2-4.6-79.8c-2.8-46.7-11.1-92.5-22.5-137.9
		c-9.7-38.9-16.6-78.1-20-118.1c-4.8-57.1-10.9-114.1-16.9-171.1c-1.7-15.9-5-31.5-7.4-47.3c-0.6-3.8-2.3-5-5.5-3.1
		c-2.1,1.3-4.7,2.6-5.6,4.6c-1.7,3.5-2.4,7.5-3.2,11.4c-13.2,62.6-28.4,124.6-47.6,185.7c-11.6,36.9-25,73.1-42.1,107.8
		c-9.4,19.1-19.9,37.8-31.7,55.4c-42.8,63.8-103,98.8-179.6,105.2c-16,1.3-31.9,2.1-46.9,8.7c-7.3,3.2-14.9,5.9-21.9,9.7
		c-28.5,15.1-47.6,37.4-55.3,69.5c-13,54.6-34.4,106.4-57.2,157.5c-27.3,61.2-62.7,117.4-107,167.9c-31.8,36.3-67.3,68.5-106.8,96
		c-14.1,9.8-29.1,18.9-44.8,26c-32,14.4-64.6,14.1-96.9,0c-2.4-1.1-4.7-2.4-7.1-3.7c-42.1-22.4-87.8-30.5-134.7-33.2
		c-59.9-3.4-119.8-6.2-179.7-9.1c-37.4-1.8-74.3-7.4-110.4-17.1c-41.5-11.2-79.9-29.3-113.8-56.3c-6.2-5-12.6-9.8-19.2-14.4
		c-13-9-27.4-10-42-5.2c-10.1,3.3-19.6,8.2-29.5,12.3c-25.8,10.8-52.3,19.5-79.6,25.9c-46.6,11-92.4,8.6-138.1-4.8
		c-48.9-14.4-94.5-35.9-137.3-63.3c-29.2-18.8-56.6-39.9-82.9-62.6c-11.1-9.6-22.2-19.2-34-27.8c-25.2-18.4-53.2-30.4-84.3-33.9
		c-94.3-10.6-186-33.1-276.4-61.4c-114.4-35.8-225.9-79.6-336.2-126.4c-80.9-34.3-161.2-69.9-241.4-105.7
		c-37.9-16.9-76.8-28.8-117.8-36.3c-67.1-12.3-130.8-36.3-191.1-68.2c-33-17.4-65.1-36.4-96.9-55.8c-38.7-23.5-76.8-48.1-114.9-72.5
		c-67.4-43.2-136.9-82.3-209.3-116.4c-36.1-17-71.7-35.2-107.2-53.5c-37.9-19.5-74.5-41.4-109.5-65.9
		c-65.1-45.6-121.4-99.8-163.9-167.4c-1.4-2.3-3-4.4-4.4-6.7c-16.7-25.7-31.7-30.1-61.5-24.3c-10.3,2-20.2,6.6-29.9,10.9
		c-25.7,11.3-52.4,19.4-80.1,24.2c-69.8,12.1-135.2-1-196.8-34.6c-39.3-21.4-64.8-54.6-77.3-97.6c-3.7-12.8-6.3-25.9-11-38.3
		c-23.4-61.8-61.9-95.8-136.3-95.7c-13.3,0-26.6,1.5-39.8,2.9c-11.9,1.3-23.9,2.7-35.6,5.2c-32.1,6.9-63.9,2.9-95.4-2.7
		c-53.3-9.4-101.8-30.7-144.7-64c-5.3-4.1-10.3-8.5-15.3-12.9c-19.9-17.6-30.4-39.2-32.2-66.2c-2.1-30.9-0.7-61.2,5.5-91.5
		c1.1-5.2,2.1-10.4,2.8-15.7c0.7-5.5-6.8-14.3-12-13.7c-13.2,1.6-26.7,2.4-39.4,5.7c-28.3,7.4-56.4,15.6-84.4,24.4
		c-44.4,13.9-88.5,29.1-134.2,38.7c-37.6,7.9-73.9,5.5-109.9-8c-25-9.4-49.1-20.4-71.7-34.8c-44.5-28.3-69-68.7-75-121.2
		c-5.5-47.2-0.2-93,13.4-138.2c2.7-8.9,6.1-17.6,8.7-26.6c3.5-12.2-4.8-22.2-16.6-19.7c-7.8,1.6-15.5,3.7-23.1,6.1
		c-31.7,10.3-62.1,23.9-92,38.4c-28.8,14-58.6,25.7-89.8,32.8c-49.8,11.3-99.9,15.5-150.7,6.8c-18.4-3.2-36.9-5.5-54.8-10.9
		c-85.1-26.1-118.6-104.6-108.3-169.5c3.2-20,8.7-38.9,17.4-57.1c10.9-23,24.2-44.5,40.1-64.3c13.3-16.6,27.2-32.9,41.5-48.7
		c54.4-60.4,109.1-120.6,163.6-181c4.4-4.8,10-9.2,10.3-16.4c0.1-2.1-1.5-5.5-3.1-6.1c-3.6-1.3-7.8-1.9-11.6-1.4
		c-17.3,2.2-33.6,8.2-49.9,13.8c-27.7,9.6-55.1,19.7-83.1,28.5c-61.3,19.3-124.2,30.6-188.6,31.3c-38.6,0.4-77.3-0.2-115.9-1.8
		c-28-1.1-55.5-5.9-82.7-13.3c-42.2-11.6-73.1-36.7-94.3-74.8c-32.5-58.4-37.1-118.3-12.2-180.6c17.6-44,43.2-82.6,75.6-116.7
		c13.8-14.5,28.6-28,43.6-41.1c90.5-78.9,183.6-154.4,277.8-228.8c10.5-8.3,20.9-16.6,30.7-25.6c2.3-2.1,3.5-8.3,2-10.6
		c-1.5-2.5-7-4-10.4-3.6c-6.5,0.7-13,2.7-19.3,4.6c-58.7,17.5-117.4,34.8-176,52.6c-62.6,18.9-126.3,32.9-190.7,43.6
		c-35.6,5.9-71.8,7-107.7,3.1c-47.2-5.2-86.1-25.8-114.1-65.5c-36-50.9-53.5-106.9-47.6-169.3c4.1-43.9,12.2-87.1,26.7-128.8
		c18.7-53.6,46.6-101.6,87-141.8c2.8-2.8,5.9-5.5,8.1-8.8c1.3-1.9,1.9-5.1,1.3-7.3c-0.6-2-3.1-4.7-5.1-4.9c-7.9-0.8-15.9-0.9-23.9-1
		c-21.3-0.2-42.7,0.2-64-0.4c-45.5-1.3-77.9-22.4-98.1-63.6c-33-67.6-35.9-136-5.5-204.6c43.7-98.9,110.2-178.7,202.8-235.7
		c38.7-23.7,78.9-44.3,122.4-58c6.3-2,12.2-5.1,18.3-7.9c3.9-1.8,5.4-10.3,2.6-14.3c-3-4.3-5.9-8.9-9.5-12.7
		c-8.2-8.8-16.8-17.1-25.1-25.8c-28.1-29-49.9-62.4-67.1-98.7c-5.1-10.7-9.4-22.2-11.6-33.8c-5.6-28.8,0.2-55.7,17.8-79.5
		c15.1-20.5,32.4-39,53.4-53.7c93.8-65.7,195.8-112.9,308.4-136.2c60-12.4,120.2-23.6,179.5-39c42.5-11.1,85-22.3,127.3-34.1
		c66.8-18.5,134.4-33.1,202.3-46.5c125.4-24.8,250.7-49.9,375.7-76.9c97.6-21.1,195.6-40.3,293.6-59.7
		c74.5-14.7,149.1-28.6,223.7-42.5c23.6-4.4,47.3-7.9,71-11.4c46.1-6.9,92.2-13.7,138.4-20.3c26.4-3.8,52.7-7.8,79.2-10.4
		c76.9-7.4,153.7-17.1,231.1-18.6c22.6-0.5,45.2-3,67.8-4.6c5.3-0.4,10.6-1.2,15.9-1.5c66.6-3.5,133.1-7.8,199.7-10.1
		c98.6-3.5,197.2-6.9,295.9-5.8c133.3,1.4,266.6,4.4,399.8,11.5c77.2,4.1,154.5,7,231.7,11.1c69.2,3.7,138.4,8.2,207.6,12.4
		c6.7,0.4,13.3,1,19.9,1.4c62.5,3.7,125.1,7.1,187.6,11.1c58.5,3.7,117,7.9,175.6,11.8c8,0.5,16,1.1,24,1.4
		c74.6,3.2,149.2,6.2,223.8,9.5c24,1.1,47.9,2.7,71.8,4.4c62.6,4.6,125.2,5.2,187.9,3.2c5.3-0.2,10.7-0.4,15.9-1.3
		c12.2-1.9,22.9-7.1,30.8-17c5.8-7.3,11.2-14.9,16.7-22.4c100.3-136.7,220.1-253.3,360.2-348.9c13.2-9,26.7-17.6,37.6-29.5
		c25.8-28.3,57.9-47.9,93.9-58.7c44.9-13.5,87.2-32.2,129.4-51.9c43.6-20.3,89.8-33.3,136-45.9c28.2-7.7,56.6-14.9,84.8-22.8
		c30.8-8.6,61.6-16.9,92-26.9c15.4-5,30.7-8.8,46.7-9.8c18.7-1.2,36.6-5.6,54.7-10.8c53.8-15.4,108.5-26.7,163.9-35.1
		c60.6-9.2,121.4-16.6,182.3-23.8c26.5-3.1,52.9-6.8,79.2-11.1c37.2-6.1,74.3-5.8,111.5-0.1c21.1,3.2,41.9,7.8,63,10.7
		c26.4,3.6,52.4,9.6,79.2,10.9c17.3,0.8,33.9,5.9,50.3,11.9c44.2,16,89.1,13,133.9,2.7c20.9-4.8,35.3-18.5,43.1-38.2
		c3.9-9.8,6.9-20.3,8.3-30.7c5.4-39.6,10.9-79.2,14.8-119c5.7-57,10.9-114,11.6-171.5c0.5-38.6,5.5-77.1,8.7-115.6
		c4.3-51.8,9.1-103.6,13.4-155.4c4.4-53.1,8.4-106.3,12.6-159.4c0.6-8,1.1-16,1.7-23.9c6.2-86.4,11.7-172.9,18.9-259.2
		c5.6-67.7,13.2-135.3,19.9-202.9c3.5-35.8,6.8-71.7,10.4-107.5c4.2-41.1,8.6-82.2,12.9-123.3c3.2-30.5,6.9-60.9,9.7-91.4
		c6.8-75.7,15.9-151.1,26.7-226.3c18.1-125.4,42.3-249.5,78.4-371.1c13.3-44.7,25.9-89.5,38.9-134.3c3.4-11.5,6.5-23.2,11-34.2
		c14.2-34.6,24.6-70.4,36.3-105.8c5.8-17.7,11.4-35.8,20.2-52c28.7-52.7,52.9-107.6,76.8-162.5c28.3-64.8,60.9-127.3,97.9-187.5
		c55.1-89.7,110.7-179.1,169.8-266.2c75.4-111.3,166.7-207.5,270.4-292.7c61.5-50.5,130.8-81.1,209.6-90.5
		c5.4-0.6,10.4-1.7,13.5-6.8c5.3,0,10.7,0,16,0c57.3,10.2,115.6,15.2,167.4,46.8c87.4,53.4,164.4,119.4,229.1,197.6
		c164.6,199.2,296.9,418.2,407,652.6c153,325.6,228.9,669.1,264.7,1024.2c20.9,206.7,42.8,413.3,60.7,620.3
		c10.5,122,15,244.5,26.9,366.4c16.8,172.3,21.4,345.6,41.8,517.5c11.1,93.2,59.8,122.2,158,100c105.2-23.8,211.2-51.2,319.8-38.8
		c125.7,14.3,251.7,27.7,375.7,54.9c139.3,30.5,277.5,65.4,413.1,109.7c72.1,23.6,140.9,56.3,211.7,83.7
		c64,24.8,109.4,79.4,164.9,118.5c115.2,81.2,213.8,180.6,296,295.1c29.7,41.3,65.1,58.3,115,56.5c150.3-5.5,300.3-16.1,450.5-22.3
		c103.8-4.3,207.3-12.3,310.9-18.8c116.9-7.4,233.9-11.5,350.7-21.3c59.7-5,119.7-5.9,179.5-8.5c202.3-8.7,405-16.4,607.3-8.1
		c119.5,4.9,239.2,14.1,358.7,20c192.4,9.5,381.9,37.2,570.9,69.5c219.5,37.4,435.9,91,654.8,131.2
		c232.4,42.6,458.9,109.5,690.2,156.2c95.2,19.2,183.2,56.2,267.3,103.6c17.4,9.8,34.1,20.9,50.2,32.8
		c97,71.8,108.4,138.9,41.1,239.3c-11.2,16.6-24.1,31.9-36.6,47.5c-30.6,38.2-30.4,37.4,13.5,55.9
		c97.7,41.2,181.3,100.4,242.2,189.4c31.1,45.5,58.3,91.8,61.1,148.6C16141.9,5354.2,16141.9,5388.8,16141.9,5423.5z"/>
</g>
</svg>
