<?xml version="1.0" encoding="utf-8"?>
<!-- Generator: Adobe Illustrator 26.0.1, SVG Export Plug-In . SVG Version: 6.00 Build 0)  -->
<svg version="1.1" id="Calque_1" xmlns="http://www.w3.org/2000/svg" xmlns:xlink="http://www.w3.org/1999/xlink" x="0px" y="0px"
	 viewBox="0 0 250 250" style="enable-background:new 0 0 250 250;" xml:space="preserve">
<style type="text/css">
	.st0{fill:#DC0000;}
	.st1{fill:#FECD00;}
	.st2{fill:#222222;}
	.st3{fill:#E12222;}
</style>
<g>
	<path class="st0" d="M249.9,135c0,1.3,0,2.7,0,4c-1.1,7.7-1.3,15.5-4.1,22.9c-0.9,2.3-1.3,4.9-3.9,6.1c-2.6,0.8-5.3,0.6-7.9,0.6
		c-72.6,0-145.3,0-217.9,0c-2.7,0-5.3,0.2-7.9-0.6c-2.8-1.2-3.2-3.9-4.1-6.4c-2.7-7.3-2.9-15.1-4-22.6c0-1.3,0-2.7,0-4
		c0.8-6.7,0.8-13.3,0-20c0-2,0-4,0-6c1.5-6.8,1.4-14,4-20.6C5,86,5.3,83.2,8.1,82c2.6-0.8,5.3-0.6,7.9-0.6c72.6,0,145.2,0,217.8,0
		c2.7,0,5.3-0.2,7.9,0.6c2.8,1.2,3.2,3.9,4.1,6.4c2.7,7,2.6,14.5,4,21.7c0,1.7,0,3.3,0,5C249.1,121.7,249.1,128.3,249.9,135z"/>
	<path class="st1" d="M7.4,166.8c78.4,0,156.8,0,235.2,0c1.6,1.9,0.1,3.5-0.5,5c-15.5,37.3-42.7,61.9-81.1,74.2
		c-7.5,2.4-15.2,2.9-22.9,3.9c-9,0-18,0-27,0c-13.6-0.9-26.4-4.6-38.7-10.3c-23.9-11-42.2-28.1-55.9-50.3
		c-3.4-5.5-6.2-11.4-8.4-17.5C7.4,170.3,5.8,168.7,7.4,166.8z"/>
	<path d="M242.6,83.2c-78.4,0-156.8,0-235.2,0c-1.6-1.9-0.1-3.5,0.5-5c10.6-27,28.9-47.5,53.7-62.3C76.3,7.2,92.1,1.9,109,0.1
		c2,0,4,0,6,0c6.7,0.8,13.3,0.8,20,0c1.3,0,2.7,0,4,0c13.6,0.9,26.4,4.6,38.7,10.3c23.9,11,42.2,28.1,55.9,50.3
		c3.4,5.5,6.2,11.4,8.4,17.5C242.6,79.7,244.2,81.3,242.6,83.2z"/>
	<path class="st2" d="M135,0.1c-6.7,1.6-13.3,1.6-20,0C121.7,0.1,128.3,0.1,135,0.1z"/>
	<path class="st3" d="M0.1,115c1.6,6.7,1.6,13.3,0,20C0.1,128.3,0.1,121.7,0.1,115z"/>
	<path class="st3" d="M249.9,135c-1.6-6.7-1.6-13.3,0-20C249.9,121.7,249.9,128.3,249.9,135z"/>
</g>
</svg>
