<?xml version="1.0" encoding="utf-8"?>
<!-- Generator: Adobe Illustrator 26.0.1, SVG Export Plug-In . SVG Version: 6.00 Build 0)  -->
<svg version="1.1" id="Calque_1" xmlns="http://www.w3.org/2000/svg" xmlns:xlink="http://www.w3.org/1999/xlink" x="0px" y="0px"
	 viewBox="0 0 250 250" style="enable-background:new 0 0 250 250;" xml:space="preserve">
<style type="text/css">
	.st0{fill:#D70027;}
	.st1{fill:#D30008;}
	.st2{fill:#EFEFEF;}
	.st3{fill:#0052B3;}
	.st4{fill:#D70127;}
	.st5{fill:#003CAB;}
	.st6{fill:#0051B3;}
	.st7{fill:#D70026;}
	.st8{fill:#D4000C;}
	.st9{fill:#0039AA;}
</style>
<g>
	<path class="st0" d="M0.1,137c0-8,0-16,0-24c1.1-1.4-0.3-3.8,1.7-4.9c2.2-0.9,4.6-0.5,6.9-0.5c29.8,0,59.5,0,89.3,0
		c2.5,0,5,0.4,7.3-0.8c0.4-0.4,0.9-0.8,1.2-1.3c1.3-2.3,0.9-4.9,0.9-7.3c0-29.7,0-59.4,0-89.2c0-2.3-0.3-4.7,0.5-6.9
		c0.7-1.9,2.8-0.9,4-1.9c8,0,16,0,24,0c1.6,1.3,4-0.4,5.5,1.3c0.2,0.6,0.3,1.2,0.2,1.8c-0.5,22.8-0.1,45.5-0.2,68.3
		c0,9.3,0,18.6,0,27.9c0,2.1-0.2,4.3,1.2,6.2c0.2,0.2,0.4,0.4,0.6,0.6c0.3,0.2,0.5,0.3,0.8,0.5c2.4,1.1,4.9,0.8,7.4,0.8
		c29.9,0,59.7,0,89.6,0c2.3,0,4.7-0.3,6.9,0.5c1.4,0.5,1.3,2,2,3c0,9.7,0,19.3,0,29c-2,2-4.7,1.5-7.1,1.5c-30.3,0-60.5,0-90.8,0
		c-2.5,0-5-0.3-7.4,0.7c-0.3,0.2-0.5,0.3-0.8,0.4c-0.2,0.2-0.4,0.4-0.7,0.6c-0.4,0.5-0.7,0.9-1,1.5c-1,2.4-0.7,4.9-0.7,7.4
		c0,29.7,0,59.4,0,89c0,2.3,0.3,4.6-0.4,6.9c-0.4,0.9-1.2,1.5-2.1,1.9c-9.7,0-19.3,0-29,0c-0.8-0.5-1.7-1-2.1-1.9
		c-0.7-2.3-0.4-4.6-0.4-6.9c0-29.9,0-59.9,0-89.8c0-2.3,0.2-4.7-0.6-6.9c-0.1-0.3-0.3-0.5-0.4-0.8c-0.4-0.5-0.8-0.9-1.3-1.2
		c-1.2-0.7-2.5-0.9-3.9-0.8c-32.7,0.1-65.4-0.3-98,0.2c-0.6,0.1-1.2,0.1-1.7-0.1C-0.3,140.5,1.3,138.3,0.1,137z"/>
	<path class="st1" d="M249.9,141c-0.3,0.1-0.7,0.2-1,0.3c-31.8,0.4-63.6,0.1-95.4,0.1c-3.8,0-7.6,0.4-11.4-0.3
		c1.8-1.8,4.1-1.1,6.1-1.1c33.9,0,67.8,0,101.7,0C249.9,140.3,249.9,140.7,249.9,141z"/>
	<path class="st2" d="M108.1,141.9c-34.4,0-68.9,0.1-103.3,0.1c-1.3,0-2.7,0.1-3.6-1.1c0.3,0,0.7,0,1,0c1.4-0.9,2.9-0.5,4.4-0.5
		c32.4,0,64.8,0,97.2,0c1.4,0,3-0.5,4.3,0.6C108.1,141.4,108.1,141.7,108.1,141.9z"/>
	<path class="st2" d="M142,141.1c35.6,0.1,71.2,0.1,106.8,0.2c-1.1,0.9-2.5,0.8-3.8,0.8c-34.4,0-68.7-0.1-103.1-0.1
		C142,141.7,142,141.4,142,141.1z"/>
	<path class="st2" d="M141.9,108c34.3,0,68.5-0.1,102.8-0.1c1.5,0,3-0.2,4.2,1c-33.8-0.1-67.5-0.1-101.3-0.2
		C145.7,108.7,143.7,109.5,141.9,108z"/>
	<path class="st2" d="M109,248.9c-1.3-1.2-1.1-2.7-1.1-4.2c0-34.3,0.1-68.5,0.1-102.8c1.6,1.3,0.7,3.1,0.7,4.6
		c0.1,32.3,0,64.6,0.1,96.9C108.8,245.3,108.9,247.1,109,248.9z"/>
	<path class="st1" d="M141,248.9c-0.3-0.1-0.7-0.1-1-0.2c0-33.7,0-67.4,0-101.1c0-1.9-0.6-4,1.1-5.6c0.5,1.1,0.4,2.3,0.4,3.4
		c0,33.2,0,66.4,0,99.6C141.5,246.3,141.8,247.7,141,248.9z"/>
	<path class="st2" d="M141,248.9c0.1-4.3,0.3-8.6,0.3-13c0-31.3-0.1-62.6-0.2-93.9c0.3-0.1,0.6-0.1,0.9,0c0,34.2,0.1,68.5,0.1,102.7
		C142.1,246.2,142.4,247.8,141,248.9z"/>
	<path class="st2" d="M1.1,109.1c0.8-1.1,2-1.2,3.1-1.2c34.6,0.1,69.3,0.1,103.9,0.2c-1.6,1.3-3.5,0.6-5.3,0.6
		c-31.9,0.1-63.9,0-95.8,0.1C5.1,108.8,3.1,109,1.1,109.1z"/>
	<path class="st2" d="M141,1.1c1.2,0.9,1.1,2.3,1.1,3.6c0,34.4-0.1,68.9-0.1,103.3c0,0-0.4,0-0.4,0l-0.4-0.1c-0.9-1-0.6-2.2-0.6-3.3
		c0-33.1,0-66.1,0-99.2c0-1.1-0.2-2.3,0.5-3.4C141,1.8,141,1.4,141,1.1z"/>
	<path class="st2" d="M108.1,108.2c-0.1-28.2-0.1-56.4-0.2-84.5c0-5.8,0-11.6,0-17.4c0-1.8-0.5-3.7,1.2-5.1c-0.1,2-0.3,4-0.3,6
		c0,32.1,0,64.2-0.1,96.3C108.7,105,109.5,106.7,108.1,108.2z"/>
	<path class="st1" d="M108,141.1c-35.3,0.2-70.6,0.5-105.9-0.1c1.5-1.4,3.4-1,5.2-1c31.8,0,63.7,0,95.5,0
		C104.6,140,106.5,139.5,108,141.1z"/>
	<path class="st1" d="M141,2.1c0.1,2,0.3,4,0.3,5.9c0,31.3,0,62.7,0,94c0,2-0.1,4-0.2,6c-1.6-1.5-1.1-3.4-1.1-5.2
		c0-31.8,0-63.7,0-95.5C140,5.5,139.6,3.6,141,2.1z"/>
	<path class="st2" d="M158.7,68.9c2.5,0,3.7-2,5.2-3.4c11.5-11.5,23-23,34.6-34.5c1.2-1.2,2.1-3,4.5-3.2c0.4,2.3-1.5,3.2-2.6,4.3
		c-13.2,13.3-26.6,26.6-39.8,39.9c-1.1,1.1-3.4,1.8-2.4,4.2c2.8,3.3,0.8,7.4,1.8,11.4c1.5-0.9,2.4-2.2,3.5-3.3
		c14.8-14.8,29.6-29.5,44.3-44.3c1.5-1.5,3.1-3,5.1-3.9c3.7,4.4,7.5,8.8,11.2,13.1c0,2.8-2,4.4-3.8,6.2c-10,10-19.9,20-29.9,29.9
		c-1.3,1.3-2.7,2.4-3.6,4c0.6,1.7,2,1.3,3,1.3c16.3,0,32.5,0,48.8,0c1.7,0,3.3-0.6,4.9-0.6c0.5,0.1,1,0.1,1.5,0.1
		c1.8,3.6-1,3.1-2.9,3.1c-9,0.1-18,0-27,0c-10.9,0-21.9,0-32.8,0.9c1.6,0,3.3,0,4.9,0c18,0,36,0,53.9,0c2.2,0,4.4-0.1,5.4,2.5
		c1.2,3.2,1.9,6.4,1.4,9.7c-0.2,1-2,0.8-3.2,0.8c-32.6,0-65.3,0-97.9,0c-3.1,0-4-1.3-4-4.2c0.1-32.1,0.1-64.3,0-96.4
		c0-3.7,1.5-4.7,4.8-4.3c7.2,0.7,8.2,1.8,8.2,8.8c0,17.5,0,35,0,52.4c0,1.9-0.7,4.1,1.3,5.5C157.8,68.5,158.3,68.5,158.7,68.9z"/>
	<path class="st3" d="M158.7,68.9c-0.5,0-1,0-1.4,0c0.1-0.2,0-0.4-0.2-0.5c0.8-7.8,0.3-15.5,0.3-23.3c0.1-12.1,0-24.2,0.1-36.3
		c0-1.5-1.5-4.6,2.4-3.9c13.1,4.4,25.6,10,37.1,18c3.4,2.4,4,3.5,0.7,6.7c-12,11.6-23.6,23.5-35.4,35.2
		C161.1,66.1,159.9,67.6,158.7,68.9z"/>
	<path class="st3" d="M245.1,90c-0.1,0.3-0.1,0.7-0.2,1c-1.2,0.9-2.6,0.5-3.9,0.5c-17.5,0-35,0-52.4,0c-1.2,0-2.3,0.2-3.4-0.3
		c-0.8-1.4,0.4-2.2,1.2-2.9c11.8-11.9,23.7-23.8,35.7-35.7c0.8-0.8,1.5-1.8,2.9-1.5c7.5,7.8,11.8,17.6,16,27.4
		C242.5,82.2,243.7,86.2,245.1,90z"/>
	<path class="st4" d="M213,36.1c0.1,0.9-0.4,1.6-1,2.2c-17.9,17.9-35.7,35.7-54.2,54.2c0.1-5.9-0.7-11.1,0.5-16.3
		c14-13.9,28.1-27.9,42.1-41.8c5.1-5.1,5.1-5.1,10.3-0.2C211.4,34.8,212.2,35.4,213,36.1z"/>
	<path class="st5" d="M224.9,51.1c-12.8,13.2-25.5,26.5-38.5,40c19.2,0,38.9,0,58.5,0c-0.3,2.2-2,1.3-3.1,1.3
		c-19.4,0.1-38.8,0-58.3,0c-0.4,0-0.9-0.2-1.8-0.4c14.3-14.4,28.4-28.6,42.5-42.7C224.7,49.7,225.2,50.2,224.9,51.1z"/>
	<path class="st2" d="M160,4.9c-3.4,0-2.2,2.7-2.3,4.4c-0.1,17.9,0,35.8-0.1,53.8c0,1.8,0.4,3.7-0.5,5.4
		c-0.1-20.2-0.2-40.4-0.2-60.6C156.9,6.1,156.4,3.2,160,4.9z"/>
	<path class="st2" d="M49.2,224.2c-1.7-1.3-3.5-2.6-5.2-3.9c0.3-2.2,2-3.4,3.4-4.7c12.6-12.6,25.1-25.1,37.7-37.7
		c1.8-1.8,3.7-3.4,4.6-5.8c1.2-2.7,0.7-5.5,0.7-8.6c-2.2,0.5-3.2,2.1-4.4,3.3c-14.3,14.2-28.6,28.5-42.9,42.8
		c-1.7,1.7-3,4.2-6.1,3.4c-11.3-9.3-11.3-9.3-1.1-19.4c10-10,20-19.9,29.9-29.9c1.4-1.4,3.1-2.6,3.1-4.9c-0.5-0.5-0.5-0.9-0.1-1.4
		c-1.5-2-3.6-1.3-5.5-1.3c-17.8,0-35.6,0-53.4,0c-5.5,0-9.7-6.1-7.7-11.2c1-2.6,3.3-1.8,5.2-1.8c26.8-0.1,53.6,0,80.4,0
		c5,0,10,0.1,15,0c3.3-0.1,4.3,1.2,4.3,4.4c-0.1,32.4-0.1,64.9,0,97.3c0,3.2-1,4.2-4.1,3.3c-1.3-0.4-2.6-0.8-3.9-0.8
		c-4.2,0-5.2-2.3-5.1-6.1c0.1-17.8,0.1-35.6,0-53.4c0-1.9,0.6-4-1.1-5.7c-3.2,4.7-7.6,8.3-11.5,12.3c-8.7,8.8-17.6,17.6-26.4,26.3
		C53.3,222.3,51.9,224.2,49.2,224.2z"/>
	<path class="st6" d="M68.9,157.3c0,0.5,0,0.9,0.1,1.4c-13,12.8-26.1,25.5-38.8,38.5c-3.1,3.2-4.6,3.6-7.3-0.4
		c-8-11.7-13.9-24.3-17.9-37.9c0.8-2.7,3.1-1.4,4.6-1.4c17.9-0.1,35.7-0.1,53.6-0.1c1.8,0,3.6,0.3,5.4-0.3
		C68.5,157.3,68.7,157.4,68.9,157.3z"/>
	<path class="st3" d="M90,245.1c-14-4.7-27.5-10.4-39.1-19.9c-0.6-1.7,0.8-2.4,1.7-3.3c11.7-11.8,23.5-23.5,35.2-35.3
		c0.8-0.8,1.5-2.1,2.9-1.6c1.6,0.5,1.3,2.2,1.3,3.4c0,18.1,0.1,36.2,0,54.3c0,0.7-0.1,1.3-0.5,1.9C91.1,245.2,90.6,245.3,90,245.1z"
		/>
	<path class="st7" d="M92,173c-9.2,10.4-19.5,19.8-29.2,29.8c-4.9,5-9.8,9.9-14.8,14.8c-1.1,1.1-2,2.8-3.9,2.7
		c-2.1-2.1-4.1-4.1-6.2-6.2c10.9-11.8,22.7-22.9,34-34.3c5-5.1,10.1-10.1,15.2-15.1c1.1-1.1,1.9-2.7,4.2-2.7
		C92.2,165.5,90.7,169.4,92,173z"/>
	<path class="st5" d="M91,244.9c0-19.6,0-39.1,0-58.5c-1.3-0.7-1.8,0-2.4,0.6c-12.1,12.1-24.2,24.2-36.2,36.3c-0.6,0.6-1,1.3-1.4,2
		c-0.6-0.3-1.2-0.7-1.7-1c13.6-13.6,27.2-27.3,40.8-40.9c0.8-0.8,1.3-2.1,2.8-1.2l-0.2,0.3l0.2,0.3c-0.8,9.3-0.2,18.6-0.3,27.9
		c-0.1,10.2,0,20.3-0.1,30.5C92.4,242.2,93.8,244.5,91,244.9z"/>
	<path class="st8" d="M92,173c-2.2-3-0.2-6.8-1.4-10.1c-2.2,0.4-3.1,2.1-4.4,3.4c-14.7,14.6-29.3,29.3-44,43.9
		c-1.4,1.4-3,2.6-4.5,3.9c-0.3-0.4-0.5-0.7-0.8-1.1c17.9-18.2,35.8-36.5,54.8-55.7C92.6,163.6,92.6,168.3,92,173z"/>
	<path class="st2" d="M91,244.9c2.5-0.9,1.3-3.1,1.3-4.6c0.1-17.4,0.1-34.9,0.1-52.3c0-1.8-0.4-3.7,0.5-5.4
		c0.1,20.1,0.2,40.1,0.2,60.2c0,1.9-0.2,4-3.1,2.4C90.4,245,90.7,244.9,91,244.9z"/>
	<path class="st2" d="M68.4,157.1c-2.2,1.1-4.6,0.5-6.9,0.5c-17.3,0.1-34.6,0-51.9,0.1c-1.6,0-3.7-1-4.9,1.2c-0.8-2.9,1.6-2,2.7-2
		C27.8,156.9,48.1,157,68.4,157.1z"/>
	<path class="st2" d="M92.6,68.9c2.1-1.4,1.4-3.6,1.4-5.5C94,45.6,94,27.8,94,10c0-5.5,6.1-9.7,11.2-7.7c2.6,1,1.8,3.3,1.8,5.1
		c0.1,26,0,51.9,0,77.9c0,5.8-0.1,11.7,0,17.5c0.1,3.3-1.2,4.3-4.4,4.3c-32.1-0.1-64.2-0.1-96.3,0c-3.8,0-4.5-1.8-4.2-5
		C2.9,95,3.9,94,11,94c18.8,0,37.6,0,56.4-0.9c-1.5,0-3,0-4.5,0C45,93.1,27,93.2,9,93c-1.3,0-4.3,1.9-4.2-1.9
		C5.1,91,5.4,91,5.6,90.9c15.4-0.8,30.8-0.1,46.2-0.4c3.8-0.1,7.6,0.8,11.2-0.7c-0.3-1.9-1.9-2.7-3-3.8C50,76,40,66.1,30.2,56.1
		c-1.8-1.8-4.4-3.3-3.3-6.6c0.3-2.2,1.7-3.8,3-5.5c2.1,1,3.8,2.6,5.5,4.2c11.1,11.2,22.5,22.1,33.4,33.5c5.4,5.7,10.8,10.4,19.2,8.2
		C73.1,75.2,58,60.1,43,45c-1.8-1.8-4.3-3.3-4.1-6.5c-1.1-3.8,1.7-5.6,4-7.6c2.3-2,4.7-3.9,7.1-5.9c1.2,0.8,2.6,1.4,3.7,2.5
		C66,40.2,78.7,52.3,90.8,65.1C91.8,66.1,91.9,67.7,92.6,68.9z"/>
	<path class="st3" d="M26.9,49.5c11.9,12,23.8,24,35.6,36.1c1.3,1.3,2.5,2.7,3.7,4c0.4,1.8-0.8,1.9-2,1.9c-19.5-0.1-39,0.4-58.5-0.3
		c-0.1,0-0.3-0.2-0.4-0.2c0,0-0.4,0.1-0.4,0.1C9.1,77.1,15,64,23.7,52.3C24.6,51.1,25,49.5,26.9,49.5z"/>
	<path class="st3" d="M89.6,66.2c-13-12.8-25.9-25.7-38.9-38.5c-0.8-0.8-1.3-1.5-0.7-2.6C62.3,16.3,75.7,9.6,90,5
		c0.7-0.2,1.3,0,1.6,0.7c0.8,9.6,0.2,19.2,0.4,28.8c0.1,9.1,0.1,18.2,0,27.4C91.9,63.5,93,66.2,89.6,66.2z"/>
	<path class="st4" d="M38.9,38.5c17.8,17.4,35.7,34.8,53.5,52.3c-0.3,0.5-0.7,1.1-1,1.6c-6.8-0.5-13.6,1.9-19.9-5
		c-12.3-13.5-25.7-26-38.6-39c-1.2-1.2-3.1-2.1-3.1-4.3c1.7-1.8,3.5-3.5,5-5.5C36.4,36.6,37.6,37.4,38.9,38.5z"/>
	<path class="st9" d="M89.6,66.2c2.1-1.6,1.4-4,1.4-6c0-18.3,0-36.6,0-54.9c2.9,0.6,1.4,2.9,1.4,4.4c0.1,17.5,0.1,35,0.1,52.4
		c0,1.8-0.3,3.7,0.3,5.4c-0.1,0.5-0.2,0.9-0.3,1.4C91.1,68.5,90.4,67.3,89.6,66.2z"/>
	<path class="st2" d="M92.9,67.5c-1.1-4.4-0.4-8.9-0.5-13.3c-0.1-14.8,0-29.5-0.1-44.3c0-1.5,1.3-3.7-1.3-4.6C90.7,5.1,90.4,5,90,5
		c3.6-1.8,3,1.1,3.1,2.9c0.1,8.3,0.1,16.6,0,24.9C93.1,44.3,93,55.9,92.9,67.5z"/>
	<path class="st2" d="M224,200.9c-1.1,1.4-2.1,2.9-3.2,4.3c-3,0.3-4.5-1.9-6.2-3.6c-11.1-11-22.1-22.1-33.1-33.1c-8-8-8-8-18.9-9
		c15.2,15.3,30.8,30.6,46,46.2c1.5,1.5,2.9,3.2,2.5,5.7c1.1,5.4-3.8,7.1-6.6,10c-1,1.1-2.4,1.7-3.6,2.5c-2.2,0.4-3.9-0.7-5.3-2.1
		c-11.6-11.4-23.1-22.9-34.5-34.5c-0.9-0.9-1.2-2.3-2.2-3c1.6,1.5,1.2,3.5,1.2,5.4c0,16.3,0,32.5,0,48.8c0,2.6-0.4,4.9-1.7,7.1
		c-2.2-1.4-1.3-3.6-1.4-5.4c-0.1-17.6,0-35.3,0-52.9c0-1.6,0-3.3,0-4.9c-0.3,0-0.6,0-0.9,0c0,1.6,0,3.2,0,4.8c0,18.1,0,36.3,0,54.4
		c0,3.5-8.9,8.6-11.9,6.7c-1.9-1.2-1.1-3.3-1.1-5.1c-0.1-25.8,0-51.6,0-77.4c0-6,0.2-12-0.1-18c-0.1-3.6,1-5,4.8-5
		c32.1,0.1,64.3,0.1,96.4,0c3.6,0,4.6,0.9,3.9,4.5c-1.5,8.5-1.4,8.5-9.8,8.5c-17,0-34,0-50.9,0c-1.6,0-3.2,0-4.8,0
		c0,0.3,0,0.6,0,0.9c13.4,0,26.9,0,40.3,0c6.2,0,12.3,0,18.5,0c1.6,0,3.4-0.6,4.4,1.4c-2.2,1.3-4.6,1.8-7.1,1.7
		c-16.3,0-32.6,0-48.9,0c-1.9,0-3.9,0.4-5.2-1.4c12.9,12.2,25.3,24.8,37.8,37.4C223.5,197.3,224.3,198.9,224,200.9z"/>
	<path class="st6" d="M224,200.9c-14.2-14.1-28.4-28.2-43.4-43.3c4.7,0,8.1,0,11.5,0c16.1,0,32.2,0,48.3,0c1.8,0,3.7-0.4,5.4,0.6
		c-4.7,15-11.1,29.1-20.7,41.7C224.7,200.3,224.3,200.6,224,200.9z"/>
	<path class="st3" d="M158.3,245.7c-0.2-1-0.6-1.9-0.6-2.9c0-20.1-0.1-40.2,0-60.3c0-0.3,0.3-0.5,0.8-1.1
		c14.2,14.2,28.4,28.4,42.5,42.6c-12,9.8-25.7,16.3-40.4,20.9C159.8,245.1,159,245.4,158.3,245.7z"/>
	<path class="st7" d="M211.1,211.5c-16.4-16.5-32.8-33.1-49.2-49.5c-1.1-1.1-2.6-1.9-3.6-3.3c8.4-1.4,15.2-1.5,21.7,5.6
		c12.9,14.3,27.1,27.4,40.8,41c-1.8,2-3.8,4-5.4,6.2C213.8,213.5,212.5,212.8,211.1,211.5z"/>
	<path class="st9" d="M5.2,91c18.6,0,37.3,0,55.9,0c1.8,0,3.7,0.4,5-1.4c0.7,0.6,1.5,1.2,2.2,1.8c-0.5,1.3-1.4,1-2.1,1
		c-19,0-37.9,0-56.9-0.1C8,92.3,5.9,93.5,5.2,91z"/>
</g>
</svg>
