<?xml version="1.0" encoding="utf-8"?>
<!-- Generator: Adobe Illustrator 26.0.1, SVG Export Plug-In . SVG Version: 6.00 Build 0)  -->
<svg version="1.1" id="Calque_1" xmlns="http://www.w3.org/2000/svg" xmlns:xlink="http://www.w3.org/1999/xlink" x="0px" y="0px"
	 viewBox="0 0 249.8 249.8" style="enable-background:new 0 0 249.8 249.8;" xml:space="preserve">
<style type="text/css">
	.st0{fill:#FEC300;}
	.st1{fill:#C50A1E;}
	.st2{fill:#AA1318;}
	.st3{fill:#C9CBCA;}
	.st4{fill:#A88F03;}
	.st5{fill:#A72A14;}
	.st6{fill:#85250F;}
	.st7{fill:#9D8404;}
	.st8{fill:#A61919;}
	.st9{fill:#A71919;}
	.st10{fill:#AE9903;}
	.st11{fill:#A61817;}
	.st12{fill:#C7C7C4;}
	.st13{fill:#C9CACA;}
	.st14{fill:#AA9700;}
	.st15{fill:#A99504;}
	.st16{fill:#A32322;}
	.st17{fill:#A68C05;}
	.st18{fill:#B7B7B2;}
	.st19{fill:#BFBCB9;}
	.st20{fill:#A31018;}
	.st21{fill:#CACCCD;}
	.st22{fill:#A58B04;}
	.st23{fill:#245A98;}
	.st24{fill:#255C94;}
	.st25{fill:#9A8601;}
	.st26{fill:#C6C6C6;}
	.st27{fill:#CACCCC;}
	.st28{fill:#7F6904;}
	.st29{fill:#A41B14;}
	.st30{fill:#9B8713;}
	.st31{fill:#76300B;}
	.st32{fill:#997C06;}
	.st33{fill:#8896A7;}
	.st34{fill:#A9A9AA;}
	.st35{fill:#BFA700;}
	.st36{fill:#285E91;}
	.st37{fill:#AA8C02;}
	.st38{fill:#C3AA00;}
	.st39{fill:#A9A8A9;}
	.st40{fill:#A8A6A7;}
	.st41{fill:#AA1218;}
	.st42{fill:#796007;}
	.st43{fill:#B1993B;}
	.st44{fill:#B0993B;}
	.st45{fill:#B8BAC0;}
	.st46{fill:#BCA143;}
	.st47{fill:#84400B;}
	.st48{fill:#BDA143;}
	.st49{fill:#1B518C;}
	.st50{fill:#AD4611;}
	.st51{fill:#953D0C;}
	.st52{fill:#C08606;}
	.st53{fill:#807003;}
	.st54{fill:#921913;}
	.st55{fill:#C2B001;}
	.st56{fill:#0950A7;}
	.st57{fill:#AE9407;}
	.st58{fill:#B12C14;}
	.st59{fill:#774B06;}
	.st60{fill:#0555B6;}
	.st61{fill:#787A21;}
	.st62{fill:#1844C9;}
	.st63{fill:#968D83;}
	.st64{fill:#952E2C;}
	.st65{fill:#EBCA85;}
	.st66{fill:#C76C95;}
	.st67{fill:#A97C8C;}
	.st68{fill:#EC6EA7;}
	.st69{fill:#A46C7C;}
	.st70{fill:#926872;}
	.st71{fill:#99717C;}
	.st72{fill:#A21B16;}
	.st73{fill:#A71617;}
	.st74{fill:#A81618;}
	.st75{fill:#A21816;}
	.st76{fill:#7A1B10;}
	.st77{fill:#991315;}
	.st78{fill:#9D2D12;}
	.st79{fill:#C5BB00;}
	.st80{fill:#C4B100;}
	.st81{fill:#B20D1B;}
	.st82{fill:#D1BB00;}
	.st83{fill:#F7C000;}
	.st84{fill:#F9C200;}
	.st85{fill:#F6C002;}
	.st86{fill:#999495;}
	.st87{fill:#B3B6C3;}
	.st88{fill:#D0B900;}
	.st89{fill:#A69D7F;}
	.st90{fill:#3A7062;}
	.st91{fill:#8B98AA;}
	.st92{fill:#AE1D17;}
	.st93{fill:#AE1917;}
	.st94{fill:#AD1218;}
	.st95{fill:#AD1319;}
	.st96{fill:#DEC284;}
	.st97{fill:#1B5485;}
	.st98{fill:#C8C9C9;}
</style>
<g>
	<path class="st0" d="M0,138.9c0-9.3,0-18.7,0-28c0.9-4.7,0.9-9.5,1.5-14.2C3,85.1,7.8,74.6,13.2,64.4c1-1.9,2.5-3.5,4.9-3.9
		c2.9-0.8,5.9-0.8,8.9-0.8c65.2,0,130.4,0,195.6,0c3,0,6,0,8.9,0.7c4,0.8,5.4,4.1,6.9,7.2c6.6,13.3,11.1,27.3,10.8,42.4
		c0,0.7,0,1.3,0.5,1.9c0,9,0,18,0,27c-0.9,5.2-0.8,10.5-1.6,15.6c-1.8,10.7-5.9,20.6-11,30.1c-1.1,2.1-2.7,4.3-5.5,4.7
		c-2.9,0.8-5.9,0.8-8.9,0.8c-65.2,0-130.4,0-195.6,0c-3,0-6,0-8.9-0.7c-4-0.8-5.4-4.1-7-7.2c-6.4-12.9-10.7-26.3-10.8-40.9
		C0.5,140.4,0.6,139.6,0,138.9z"/>
	<path class="st1" d="M232.8,62.3c-71.9,0-143.8,0-215.7,0c-1.8-2.5-0.1-4.5,1.1-6.3c18.3-27,42.7-45.6,74.6-53.8
		c5.9-1.5,12.1-1,18.1-2.1c9,0,18,0,27,0c7.6,1.3,15.5,0.8,23,3.1c29.9,8.9,53,26.9,70.5,52.5C232.7,57.5,234.6,59.6,232.8,62.3z"/>
	<path class="st1" d="M17.1,187.5c71.9,0,143.8,0,215.7,0c1.8,2.5,0.1,4.5-1.1,6.4c-18.3,27-42.8,45.6-74.6,53.8
		c-6.2,1.6-12.8,1.1-19.1,2.1c-9,0-18,0-27,0c-6.2-1.1-12.6-0.6-18.6-2.2c-19.6-5.1-37.1-14.4-52.1-28.1
		c-8.1-7.4-15.5-15.5-21.5-24.8C17.4,192.6,15.2,190.5,17.1,187.5z"/>
	<path class="st2" d="M112.8,139.9c0,4.8,0.1,9.6,0.1,14.4c0,9.4-2.7,12.9-11.9,15.6c-2.5-0.9-5.2,0.7-7.7-0.4c-1.7-0.2-3-1-4.2-2.1
		c-0.7-0.3-1.2-0.7-1.7-1.3c-0.5-0.6-0.7-1.3-0.8-2.1c-0.2-4.7-1.1-9.5,0.9-14c0.9-0.7,1.9-0.5,2.9-0.7c2.2,1.6,1.8,4.1,1.8,6.3
		c0,1.9,0.6,3.2,1.7,4.4c0.3,0.4,0.5,0.8,0.7,1.2c2.8,4.4,4.8,4.6,10.3,1.3c0.3-0.4,0.6-0.7,1-1c2.3-3,3.4-12.2,1.7-14.9
		c-1.9-3.1-4.8-1.1-7.2-1.5c0.1,3.7-2.6,8.1-5.4,8.6c-3.7,0.7-2.4-3.2-4.2-4.4c-3.4,0.4-6.9,1.6-9.8-1.4c-0.9-0.7-1.3-1.6-1.4-2.7
		c-1.8-3,0.5-6,0.2-9c-1.4-3.3-2.1-6.7-1.3-10.2c0.8-3.2-1.7-4.3-3.3-4.3c-1.9-0.1-4,1.4-3.4,4.3c0.4,1.9,0.3,3.9-0.1,5.9
		c-0.5,2.5,0.8,3.3,3,3.3c1.1,0,2.1,0.1,3.2,0.3c0.9,0.3,1.5,0.9,1.8,1.8c0.1,2.4-0.9,3.9-3.4,3.8c-4.2,0-8.5,0.8-12.7-0.6
		c-1.9-1.7-0.3-4.1-1.4-6c0-0.3-0.1-0.5-0.2-0.7c-1.2-2.2,0.2-4.1,0.6-6.1c0-3.9,0.1-7.9,0-11.8c-0.1-2.7,0.6-4.1,3.5-3.7
		c3.3,0.4,6.5-0.6,9.7-1c2.6,0,5.3,0,7.9,0c3.3,0,4.9,1.6,4.8,4.9c-0.1,4,0.2,7.9,1.9,11.7c1.9,2.3,4.1,4.3,5.9,6.7
		c2.6,3.5,6.4,4,10.3,3.5C108.9,137.9,111.1,137.8,112.8,139.9z"/>
	<path class="st3" d="M112.8,139.9c-3.3,0.1-6.6,0.1-9.9,0.4c-4,0.4-7.2,0.1-8.4-4.9c-0.7-2.9-3.8-3.9-6.6-4.6
		c-1-5.4-0.2-10.8-0.4-16.2c-0.1-2.1,1.2-2.9,3.1-3.1c2.1-0.2,4.3-0.1,6.4-0.1c5.3,0.8,10.8,0.2,16,2c0,5,0,10,0,15
		c1.5,2,1.5,3.9,0,5.9C112.9,136.2,112.8,138,112.8,139.9z"/>
	<path class="st4" d="M113,113.4c-5.2-1.4-10.6,0-15.9-0.8c-0.4-0.1-0.6-0.4-0.6-0.8c-3.2-2.5-7-1.1-10.5-1.5
		c-3,0.1-6.1-0.5-8.8,1.3c-0.4,0.4-0.8,0.8-1.3,1.1c-13.4,0.3-13.4,0.3-13,15.8c-0.3,0.6-0.7,0.7-1.1,0.1c0-3.8,0.3-7.6,0.1-11.4
		c-0.2-3.7,0.8-5.7,4.9-5.3c1.4,0.1,3.7,1.1,4.3-1c0.6-1.9-0.9-3.5-2.5-4.5c-1.5-1-2.6-2.1-2.6-4c-0.1-0.5,0.1-0.8,0.5-1.1
		c1.1-0.5,2.2-0.4,3.3,0c2.4,1,4.6,0,6.8-0.9c1.8,1,3.7,0.4,5.6,0.3c2.5,1.1,4.7-1,7.3-0.5c4.8,0.9,9.9,0,14.5,2.3
		c1.6,0.8,3.8-0.4,5.1,1.4c-0.9,0.8-1.7,1.5-2.6,2.2c-1.5,1.2-3.1,2.6-2.6,4.5c0.6,2.4,3.1,1,4.7,1.3
		C110.1,112.3,111.9,111.6,113,113.4z"/>
	<path class="st5" d="M112.9,134.4c-0.5-2-0.5-3.9,0-5.9c2.6-0.3,5.2-0.6,7.8-0.9c1.2-0.8,2.4-1.4,3.9-1.1c1.6,0.4,3.1,1.1,4.3,2.3
		c2,1.5,5.8,1.4,5.7,4.8c-0.2,3.1-1.9,5.7-5.5,6.1c-2.3-0.4-1-4.5-4.1-4.1c-1.8-0.1-2.9-1.3-4.2-2.2
		C118,132.6,115.5,133.6,112.9,134.4z"/>
	<path class="st6" d="M62.9,139.9c4.1,0,8.3,0,12.4,0c2.1,0,3.7-0.4,3.6-3c0.3-1,0.9-1.5,2-1.2c-1.1,3.2-0.8,6.4-0.1,9.6
		c-0.9,0.3-1.8-0.1-2.5-0.6c-0.6-0.5-1.3-0.9-2.1-0.3c-1.6,8.1-0.5,16.2-0.6,24.2c-0.1,0.5-0.4,1-0.9,1.3c-1.3-0.4-2.5-0.7-3.8-1.1
		c-1.8-1.7-1.5-3.9-1.5-6c-0.2-5.9,0.3-11.8-0.3-17.7c-0.1-0.3-0.3-0.5-0.6-0.7c-0.3,0.1-0.6,0.3-0.7,0.7
		c-0.7,5.1-0.1,10.2-0.4,15.3c-0.1,1.7,0.4,3.7-1.5,4.9c-0.3-0.2-0.6-0.4-0.9-0.5c-0.8-0.9-0.7-2.1-1-3.2
		c-1.4-6.7,0.3-13.5-1.1-20.2C62.6,140.9,62.6,140.4,62.9,139.9z"/>
	<path class="st7" d="M99.9,87.1c0.7,0.3,1.4,0.6,2.1,0.8c0.5,0.5,1,1,1.2,1.6c0.4,1.6,0.1,3.2-0.2,4.7c-1.2,2.7,2.6,5.6-0.3,8.2
		c-4.6-0.9-6.1-3.2-6-9.2c0.4-1.6,0.9-3.4-1.5-3.7c-2.2-0.3-1.1,1.9-1.9,2.8c-1.2,2-2.8,3.6-5.3,3.9c-2.9,0.1-4.8-1.3-6.3-3.7
		c0.3-3.6-3.2-3.3-5-4.7c-0.2-0.5-0.1-0.9,0-1.4c3-2.8,7.1-0.3,10.3-2.2c0.2,0,0.5,0,0.7,0C91.6,86.1,96.2,84.2,99.9,87.1z"/>
	<path class="st8" d="M120.8,145.2c-5.2-4.8-5.3-7-0.1-9.5c2.6,0.7,2.8,4.2,5.4,4.8c1.4,0.5,1.7,2,2.8,2.8c2.5,1.5,6.4,2.1,4.7,6.6
		c-0.5,1.2-1.1,2.8-2.5,2.6c-1.8-0.2-0.7-1.8-0.7-2.8c0-0.8-0.7-0.9-1.4-1.1c-1.4,0.6-2.7,0.1-4-0.2
		C123,148.3,122.1,146.6,120.8,145.2z"/>
	<path class="st9" d="M46.1,148.9c-2.9,0.2,0.1,3-1.6,3.7c-5.1-3.5-4.6-5.9,1.7-9.2c1.1-2,3.1-3,4.9-4.1c1.7-0.7,0.9-3.7,3.4-3.6
		c4.9,2.5,5,5,0.4,9c-0.2,0.3-0.4,0.7-0.7,1c-0.3,0.5-0.7,1-1.2,1.3c-1,0.3-1.9,0.8-2.7,1.3C48.9,149,47.5,149.4,46.1,148.9z"/>
	<path class="st10" d="M54,145.1c0.3-0.1,0.6-0.3,0.9-0.4c0.4,6.7-1.4,13.7,2.2,20.1c-4.4,2.5-8.8,2.6-13.2-0.1
		c0.7-2.1,1.5-4.2,2.2-6.4c1.3-1,2.8-1.5,4.3-2c0.4-0.2,0.8-0.4,1.1-0.6C53.8,152.5,51,148.1,54,145.1z"/>
	<path class="st11" d="M102.8,101.7c0.2-1.9-1.5-2.8-2.2-4.3c-0.9-2.1-0.3-3.1,1.6-3.7c3.3-2.8,6.2-1,9,1c2.9,3.2-0.6,5.6-1.1,8.4
		c-0.3,0.3-0.6,0.6-0.9,0.9c-1.7-0.6-3.4,2.1-5.2,0C103.2,103.4,102.1,102.9,102.8,101.7z"/>
	<path class="st12" d="M51.7,158.8c-1.9,0.2-3.8,0.4-5.6-0.4c0-3.2,0-6.3,0-9.5c1-1.2,2.5-1.6,3.9-2c1.3-0.8,2.5-0.3,2.6,1
		C52.9,151.5,54,155.3,51.7,158.8z"/>
	<path class="st13" d="M120.8,145.2c1.7,0.6,3.3,1.3,5,1.9c2.3,4,2.3,8.1,0.4,12.3c-2,1.1-3.9,1.3-5.4-0.9
		C120.8,154.1,120.8,149.7,120.8,145.2z"/>
	<path class="st14" d="M68,141c0.3,0,0.7,0,1,0c1,8.2-0.1,16.5,0.7,24.7c0.2,0.7,0.7-0.4,0.1,0c-0.1,0.1-0.3-0.1-0.3-0.4
		c0-8.1-0.6-16.2,0.3-24.3c1.9,1.5,1,3.7,1.1,5.5C71,154,71,161.5,71,168.9c-1.4-0.1-2.4-0.8-3.3-1.8C66.7,158.4,66.1,149.7,68,141z
		"/>
	<path class="st15" d="M120.8,158.5c1.7,0.1,3.3,0.2,5,0.3c1.1-0.7,2.1-0.9,3.2-0.1c1.2,1.8,1.9,3.9,2,6.1c-4.1,2.6-8.2,2.6-12.3,0
		C118.8,162.4,119.5,160.3,120.8,158.5z"/>
	<path class="st16" d="M42.7,130.7c1.1-0.7,2.2-1.3,3.3-2c1.5-1.5,3.1-2.9,5.5-2.3c0.8,0.1,1.5,0.1,2.2,0.5c0.4,0.3,0.8,0.6,1.2,0.9
		c0.3,0.1,0.7,0.2,1,0.3c1.8,2,1.2,3.6-0.9,4.8c-0.2,0.2-0.4,0.3-0.6,0.4c-1,0.3-1.8,1.1-2.9,1.2c-1.8,0.6-3.6,1.3-5.5,0.5
		C44.2,134.1,42.9,132.8,42.7,130.7z"/>
	<path class="st17" d="M110,103.1c-1.1-1.2-3.4,1.3-4.2-1.8c2.7-0.7,6-1.1,4.9-5.3c-0.6-2.4-2.4-3.6-4.7-3.9c-1.5-0.2-2.9-0.7-4-1.8
		c-0.1-0.7-0.1-1.5-0.2-2.2c2.7-0.2,5.3,0,7.8,1c5,3.7,5.2,4.6,3.4,11.2C112.1,101.1,111.1,102.1,110,103.1z"/>
	<path class="st18" d="M74.8,170c0-0.3,0-0.7,0-1c0.2-0.5,0.5-0.8,0.9-1.1c1.3-0.7,2.8-0.8,4.3-1.2c0.7-0.1,1.4,0,2.1,0.3
		c2.9,3,6.5,1.6,9.9,1.7c0.4-0.2,0.7-0.4,1.1-0.6c2.5,1,5.5,0.2,7.9,1.8C92.3,172.7,83.5,173,74.8,170z"/>
	<path class="st19" d="M46.2,134.2c1.6-0.3,3.2-0.6,4.8-0.9c3.5,2.1,1,5,0.9,7.5c-1.6,1.6-3.6,2.3-5.8,2.6c-0.1-1.4-0.1-2.7-0.2-4.1
		C44.9,137.6,44.1,135.8,46.2,134.2z"/>
	<path class="st20" d="M68,141c-0.1,8.7-0.2,17.4-0.3,26c-0.6-0.6-1.2-1.1-1.8-1.7c0-6.6,0-13.3,0.1-20C66,143.7,65.4,141.6,68,141z
		"/>
	<path class="st21" d="M51.9,127.8c-2,0.3-3.9,0.6-5.9,0.9c0-3,0-6,0.1-9c0.4-0.5,1-0.9,1.6-1.1C53.6,118.8,55.1,121.9,51.9,127.8z"
		/>
	<path class="st22" d="M66.1,101.7c0,0.2,0,0.4,0,0.7c-2.1,0.5-3.1-1-4.3-2.3c-2-6.4-1.6-7.4,3.4-11.1c2.7-1.5,5.8-0.8,8.7-1.3
		c1,0.9,0.8,1.8,0.1,2.7c-1.4,1.3-3.2,1.5-5,1.6c-2.3,0.1-3.6,1.2-3.1,3.8C66,97.7,67.6,99.7,66.1,101.7z"/>
	<path class="st23" d="M43.8,164.7c4.4,0,8.8,0,13.2,0.1c1.3,1.4,1.6,2.8,0.1,4.2c-1.3,1.1-2.9,0.9-4.5,0.7
		c-1.9,0.2,0.2-3.5-2.7-2.7c-1.5,0.4,0.3,1.2-0.5,1.4c-2.2,1.3-4.3,2.5-6.7,0.5C43,167.5,41.6,165.7,43.8,164.7z"/>
	<path class="st24" d="M131.8,168.8c0.2,0.6,0.7,1.6,0.5,1.7c-1.6,1.3-13.1,0.6-15.1-0.8C120.7,164.8,127.2,164.4,131.8,168.8z"/>
	<path class="st25" d="M46.8,119.7c-0.2,0-0.5,0.1-0.7,0.1c-0.4-1.3-0.8-2.6-1.2-3.8c3.2-2.6,8-2.1,10.3,1
		c-0.1,3.6-0.1,7.2-0.2,10.8c0,0-0.3,0.1-0.3,0.1l-0.3,0c-1.2-0.6-1.2-1.8-1.3-3C52.5,119.2,52.5,119.2,46.8,119.7z"/>
	<path class="st26" d="M125.8,142.1c-3.7-0.5-5.3-2.8-5.1-6.4c0-0.8,0-1.7,0.1-2.5c1.8-0.5,3.5-0.4,5.1,0.5
		C127.9,136.6,128.4,139.4,125.8,142.1z"/>
	<path class="st27" d="M124.7,128c-1.3-0.2-2.6-0.3-4-0.5c0-2.5,0-4.9,0-7.4c1.7-1.8,3.5-2,5.5-0.6C127.3,122.7,129.4,126,124.7,128
		z"/>
	<path class="st28" d="M49.1,106.9c0.4-0.5,0.8-1,1.3-1.4c0.3,0.4,0.5,0.8,0.8,1.1c1.4,1.3,3.8,1.8,3.9,4.2c-0.3,0.7-0.5,1.3-0.8,2
		c-3,3.3-6.2,3-8.1-0.9c-0.1-0.3-0.1-0.6-0.2-0.9C45.8,108.8,48.1,108.3,49.1,106.9z"/>
	<path class="st29" d="M46.2,134.2c-0.1,1.7-0.2,3.4-0.3,5.2c-5.4-1.8-6.8-5.5-3.3-8.6C44.7,131.1,45.8,132.3,46.2,134.2z"/>
	<path class="st30" d="M125.9,119.8c-1.7-0.4-3.5-0.5-5.1,0.4c-0.3-1.1-0.6-2.2-0.9-3.3c2.6-3.5,7.3-3.5,9.9,0c-0.3,1-0.6,2-0.9,3
		C127.9,120.7,126.9,120.8,125.9,119.8z"/>
	<path class="st31" d="M120.6,111.1c-0.8-0.6-2-1.6-0.9-2.3c1.7-1.1,3.8-1.5,5.8-2.2c0.5,2,6.2-0.3,3.7,4.4
		C126.3,113,123.4,113,120.6,111.1z"/>
	<path class="st32" d="M72.8,90c0.8-0.6,1-1.4,1-2.3c0.3-0.3,0.6-0.6,0.8-0.9c0.8-0.5,1.6-0.6,2.3,0.1c0,0.3,0,0.6,0,0.9
		c1.2,1.5,0.4,3.5,1.3,5.1c0.3,2.2,0.6,4.3-0.7,6.4c-2,0.7-3,5.9-6.1,1.3c-0.6-2.4,1.3-4.4,0.9-6.8C72,92.6,71.7,91.2,72.8,90z"/>
	<path class="st33" d="M131.8,168.8c-3.8-0.7-7.7-1.4-11.6-2.1c-0.1,1.5,1.5,1.3,1.4,1.4c-1,1.6-2.7,1.7-4.4,1.6
		c-0.5-1.1-0.4-2.3-0.1-3.4c4.8-1.7,9.7-1.1,14.6-0.4C131.8,166.9,131.8,167.9,131.8,168.8z"/>
	<path class="st34" d="M129,158.6c-1.1,0-2.2,0.1-3.2,0.1c0-3.9,0-7.8,0.1-11.6c1.1,0.5,2.2,1.1,3.3,1.6
		C129.1,152.1,129,155.3,129,158.6z"/>
	<path class="st35" d="M129.8,116.9c-3.3-1.5-6.6-1.5-9.9,0c-1.3-1.7-1.8-3.2,0.9-4c2.6-0.9,5.4-0.3,8-1
		C130.4,113.3,132,114.7,129.8,116.9z"/>
	<path class="st36" d="M42.8,169c2,1.3,3.9-2,5.9,0c0.9-0.8,1.9-1,2.9-0.2c1.9,0.1,3.7,0.2,5.6,0.2c0,0.7,1.4,2,0.4,2
		c-4.9,0.2-9.8,0-14.7-0.2C42.9,170.8,42.8,169.6,42.8,169z"/>
	<path class="st37" d="M64.9,161.8c0,1,0.1,2,0.1,3c-2.2-2.3-3-5.1-3-8.2c0-7.3,0.1-14.6,0.1-21.9c1,1.6,0.5,3.4,0.8,5.1
		c0,0.4,0,0.7,0,1.1c1.6,2,0.9,4.4,1,6.7C64.2,152.4,63.4,157.2,64.9,161.8z"/>
	<path class="st38" d="M46.1,111.9c2.4,2.8,5.2,2.2,8.1,0.9c2.6,0.9,2,2.4,0.9,4.1c-3.3-1.9-6.8-1-10.3-1
		C43.1,114,45.1,113.1,46.1,111.9z"/>
	<path class="st39" d="M125.8,142.1c0-2.8,0-5.6,0.1-8.4c4.7-0.1,2.4,3.7,3.2,5.8c-0.1,1.3-0.1,2.5-0.2,3.8
		C127.7,143.3,126.7,143,125.8,142.1z"/>
	<path class="st40" d="M125.9,119.8c1,0,2,0.1,3,0.1c0,3,0,5.9,0.1,8.9c-1.5,0.1-2.9,0.1-4.2-0.7
		C126.9,125.5,125.6,122.5,125.9,119.8z"/>
	<path class="st41" d="M61.8,128.6c0.4,0,0.7,0,1.1-0.1c0,1.9,0.5,3.8-1,5.4c-1.4,0-2.8-0.1-3.9-1c-1.3-4-1-4.4,3.1-4.1
		C61.3,128.8,61.6,128.7,61.8,128.6z"/>
	<path class="st42" d="M128.9,111.9c-2.4,2.7-5.2,2-8,1c-0.1-0.6-0.2-1.2-0.3-1.8c2.9,0,5.7,0,8.6-0.1
		C129,111.3,129,111.6,128.9,111.9z"/>
	<path class="st43" d="M77,87c-0.8,0-1.5-0.1-2.3-0.1c1.6-1.6,3.7-2,5.8-2.4c1.8-0.3,4.2,1.1,5.2-2c0.1-0.3,1.4,0.9,1.4,2
		c-1.1,2.1-3,1.6-4.8,1.5C80.4,85.8,78.6,86,77,87z"/>
	<path class="st44" d="M99.9,87.1c-3.7-2.3-8.6,0.7-12.1-2.7c0.3-0.6,0.5-1.2,0.8-1.7C91.6,86,97.1,82.9,99.9,87.1z"/>
	<path class="st45" d="M52,140.8c-1.4-2.4,0.2-5.1-0.9-7.5c1.1,0,2.2,0,3.3,0c0,0.8,0,1.6,0.1,2.4C53.8,137.5,55.1,140.2,52,140.8z"
		/>
	<path class="st46" d="M65.1,89c-3.9,2.9-4.2,6.8-3.4,11.1C58.6,94.4,59.6,91.3,65.1,89z"/>
	<path class="st47" d="M49.1,106.9c0.7,2.8-1.4,3.3-3.3,4.1C43,106.5,47.1,107.6,49.1,106.9z"/>
	<path class="st48" d="M113.2,100.1c1-4.4,0.3-8.2-3.4-11.2C115.3,91.3,116.2,94.3,113.2,100.1z"/>
	<path class="st49" d="M131.8,166c-4.9,0-9.7-0.5-14.6,0.3c-0.1-1.2,0.8-1.4,1.6-1.7c4.1,0,8.2,0,12.3,0
		C131.3,165.1,131.5,165.5,131.8,166z"/>
	<path class="st50" d="M61.1,128.8c-2.9,0-3.2,1.8-3.1,4.1c-1,0-2,0-3,0c0.8-1.5,1-3.1,0.9-4.8C57.7,127.8,59.5,127.7,61.1,128.8z"
		/>
	<path class="st51" d="M55,110.8c-2-0.8-3.5-2-3.9-4.2C52.9,107.6,57,106.4,55,110.8z"/>
	<path class="st52" d="M105.9,162.9c-2.8,5-9.6,4.5-12.9-0.8c0.8-2,6,0.1,4-4.4c-0.3-0.3-0.5-0.5-0.8-0.8c-2.8-0.2-1.2,3.4-3.3,3.8
		c-2.9-0.9-2.6-3.2-2.3-5.5c0.2-1.7-0.1-3.5-0.1-5.2c0-1.2,0.9-1.6,1.8-2c0.2,0.6,0.6,1.2,0.5,1.8c-0.2,1.2-0.7,2.4,1,2.7
		c0.6,0.1,1.4-0.2,1.8-0.6c1.3-1.3-1.1-1.6-0.9-2.7c0.1-0.5-0.2-1-0.4-1.7c2.2-0.5,3.1,1.4,4.4,2.4c-0.9-1.5,2-5.3-2.7-4.4
		c-0.1,0-0.5-0.8-0.5-1.2c0.1-0.7,0.5-1.2,1.3-1.2c3.7,0,7.5-0.1,11.2-0.1c1,0,1.8,0.5,1.6,1.4c-1.1,5.1,1.1,10.3-0.7,15.3
		C108.4,161.4,108.1,163,105.9,162.9c-0.7-0.7-1-1.5-0.5-2.5c0.4-0.5-0.1,0.2,0.3-0.3c0.3-0.4,0.6-0.7,0.7-1.2c-0.1,0,0,0.1,0,0.1
		c-0.1,0.3-0.2,0.6-0.4,0.9C102.3,160.8,105.2,161.8,105.9,162.9z"/>
	<path class="st53" d="M80.9,135.7c-0.7,0.4-1.3,0.8-2,1.2c-0.7-0.1-1.4-0.1-2.2-0.2c-1-1.1-2-0.7-3,0c-3.6,0.1-7.7,0.8-4.2-5.2
		c1.1-1.9,0.3-4.5-0.4-6.8c-0.6-2.2,0.7-4.2,2-5.6c1-1.1,1.4,1.2,2.3,1.5c1.6-1.2-2-4.7,1.7-4.5c3.3,0.2-0.8,3.5,1.3,4.7
		c1.5-2.2,3-2.9,3.8,0.7c0.1,0.5,0.6,1,0.5,1.4C79.7,127.2,80.4,131.5,80.9,135.7z"/>
	<path class="st54" d="M92.3,148c-0.6,0.7-1.2,1.3-1.8,2c-0.9,0.1-1.8,0.1-2.7,0.2c-2.3,2.8-1.2,6.2-1.4,9.3
		c-0.2,2.2,0.3,4.5-0.4,6.8c-0.3,0.6-0.7,1-1.2,1.3c-1.3,0.5-2.5,0.1-3.5-0.8c-1.2-6.7-1.9-13.3,0.5-19.9
		C85.1,149.1,88.6,149.1,92.3,148z"/>
	<path class="st55" d="M81.8,146.8c0,6.6,0.1,13.3,0.1,19.9c0.4,0.6,0.2,0.9-0.5,0.9c-0.5,0.1-1.1,0.1-1.6,0.2
		c-1.8,0.1-2.3-1.2-2.4-2.5c-0.3-6.5,0-13.1,0.3-19.6c0-0.6,0.7-1.1,1.2-1.4c0.6,0.3,1.1,0.7,1.7,1
		C81.2,145.8,81.5,146.3,81.8,146.8z"/>
	<path class="st56" d="M91.1,135.5c2.7,1.8,2.5,4.5,1.9,7.1c-0.9,3.3-3.2,5-6.7,4.2c-3.6-0.8-4.9-4.4-3.5-9.1c1.3,0.1,2.1,0.9,2.7,2
		c3.7,3.1,2.7-1,3.5-2.3C89.4,136.4,90.2,135.9,91.1,135.5z"/>
	<path class="st57" d="M85.3,165.9c-0.1-4.4-0.3-8.8-0.4-13.2c-0.1-2,0.5-3.3,2.8-2.5c0.1,4.8,0.1,9.6,0.2,14.4
		c-0.2,0.4-0.4,0.8-0.7,1.1C86.6,166.1,86,166.2,85.3,165.9z"/>
	<path class="st58" d="M92.9,160.7c0-0.8-0.1-1.6,0.1-2.4c0.3-1.3-1.3-3.3,0.5-3.8c1.3-0.4,3.5-0.6,4.5,1.5
		c-0.2,0.2-0.4,0.4-0.6,0.6c0.2-0.2,0.4-0.4,0.6-0.6c3.1,2.2-0.1,5.3,1.9,8.2c-2.8-0.8-4.8-1.4-6.8-2
		C93,161.6,92.9,161.2,92.9,160.7z"/>
	<path class="st59" d="M96.9,111.9c0,0.3,0.1,0.5,0.2,0.8c-9.3,0.4-9.3,0.4-9.2,9.6c0,2.8,0,5.7,0,8.5c-1.7-4-0.9-8.1-0.7-12.1
		c0.2-4.6-1.4-6.3-5.9-5.8c-1.8,0.2-3.6-0.1-5.4-0.1c-0.1-0.6-0.1-1.1-0.2-1.7c3.1-2.1,6.4-0.2,9.6-0.7
		C89.2,110.8,93.3,109.3,96.9,111.9z"/>
	<path class="st60" d="M91.1,135.5c-0.3,0.8-0.5,1.6-0.8,2.4c-1.2,0.9-1.7,3.2-4,2c-1.3-1-2-2.5-2.7-4
		C86,133.2,88.4,132.8,91.1,135.5z"/>
	<path class="st61" d="M83.7,136c1.9,0,2.5,1.5,3.2,2.9c-0.5,1.3-0.4,3.6-2.8,1.9c-0.4-1-0.8-2-1.2-3.1
		C83.1,137.1,83.4,136.5,83.7,136z"/>
	<path class="st62" d="M73.7,136.8c-0.1-1.4-0.7-3.4,1.4-3.4c2,0,1.7,2,1.6,3.4C75.7,136.8,74.7,136.8,73.7,136.8z"/>
	<path class="st63" d="M93.1,168c0,0.2-0.1,0.4-0.1,0.6c-1.2,1.5-2.9,0.4-4.3,0.8c-0.9-0.2-1.2-0.8-1-1.6c0.5-1,1.8-1.6,2-2.9
		C91.5,165.3,91.1,168,93.1,168z"/>
	<path class="st64" d="M88.8,167.8c-0.3,0.3-0.6,0.6-1,0.8c-0.5,0.4-0.9,0.4-1.4,0c-0.9-1.4-0.3-2.6,0.4-3.8c0.3-0.1,0.7-0.2,1-0.3
		c0.3,0.4,0.5,0.8,0.8,1.2C89.6,166.4,89.6,167.1,88.8,167.8z"/>
	<path class="st65" d="M88.8,167.8c0-0.7-0.1-1.4-0.1-2.1c0.3-0.3,0.7-0.5,1-0.8C89.9,166.1,90.2,167.2,88.8,167.8z"/>
	<path class="st66" d="M102,132.9c-1.3,0-2.1,1.4-3.6,1.1c-2.1-0.4-3.3-0.8-1.4-3.1c0.8-0.9,2.4-1.9,1.8-3.2
		c-0.7-1.6-2.3-0.6-3.5-0.3c-1,0.2-2,0.6-2.6-0.5c-0.7-1.3,0.8-1.4,1.4-2c1.8-1.8-2.1-2-1.2-3.7c-0.4-1.2-0.8-2.5,1.3-2.2
		c1,1.8,2.7,2.2,4.6,1.8c0.3-0.3,0.6-0.5,1.1-0.6c1.6,0.9,3-1.6,4.7-0.4c0.7,0.7,0.9,1.5,0.9,2.4c-0.2,1.7-1,3.4,0.6,4.9
		c0.4,0.9,0.3,1.7-0.1,2.6c-1.2,2,1.5,4.1-0.1,6.1C102.4,137.5,103.9,133.1,102,132.9z"/>
	<path class="st67" d="M105.9,129.9c-0.3-0.6-0.7-1.2-1-1.8c0.5-1.5-0.4-3,0-4.6c0.1-0.5-0.6,0.2-1,0c-0.1-1.2-0.1-2.4-0.2-3.6
		c-0.9-1.1-0.8-2.2,0.1-3.3c1.7,2.1,3.6-0.3,5.9,0.3c-1,3.5-3,6.8-1.8,10.6C108.3,128.6,107,129.4,105.9,129.9z"/>
	<path class="st68" d="M103.9,116.6c0,1.1-0.1,2.2-0.1,3.3c-1.3,1-0.7,4-3.4,3.4c-1.3-0.3-0.8-1.5-0.6-2.5c-0.8-2.4,1-3.6,2.4-4.9
		C102.8,116.2,103.3,116.4,103.9,116.6z"/>
	<path class="st69" d="M102.2,116c-0.8,1.6-1.6,3.3-2.4,4.9c-0.4,0-0.7,0-1.1,0.1C96.3,118.2,96.3,118.2,102.2,116z"/>
	<path class="st70" d="M102,132.9c2.1,0,1.7,3.1,3.8,3.1c-0.5,2.9-1.9,2.1-2.9,0.5C102.3,135.5,102.3,134.1,102,132.9z"/>
	<path class="st71" d="M94.1,119.1c-1,0.4-1.3,1.2-1.3,2.2c-1.4-0.1-2-0.9-1.7-2.3c0.3-1.4,1.7-1.6,2.6-1.6
		C94.9,117.3,94.6,118.3,94.1,119.1z"/>
	<path class="st72" d="M102.8,101.7c0.4,0.8,0.7,1.6,1.1,2.4c-5.1-1.8-10.6-0.4-15.8-2.2c-1.9-0.6-4,2.3-6.2,0.1
		c-0.7-4.6,3.3-5,5.9-6.8c2.2-0.4,2.2-3.9,5-3.4c2.3-1.6,4-1,5.2,1.4c1.7,2.2-0.7,5.3,1.9,7.5C100.9,101.4,101.6,101.9,102.8,101.7z
		"/>
	<path class="st73" d="M87.8,95.1c-0.8,3.3-4.5,4-5.9,6.8c-2,1.8-3.8,2.2-5.2-0.7c-0.2-0.8,0.2-1.5,0.4-2.3
		c-0.5-1.9-0.7-3.9-0.2-5.8c1.2-2.4,2.9-3,5.1-1.4C85,91.1,85,95.6,87.8,95.1z"/>
	<path class="st74" d="M73.6,93.8c2,2.6,0.7,4.5-1.5,6.1c-0.6,1.4-1.7,2.3-3.2,2.8c-1-0.4-1.9-0.7-2.9-1.1c-0.7-1.9-2.7-3.4-1.9-5.8
		C67.2,91.4,69,91,73.6,93.8z"/>
	<path class="st75" d="M96.9,111.9c-4,0-7.9,0-11.9,0c-1.3-1.4-0.4-2.2,0.9-2.8c4.6-0.5,9.1,0.4,13.8,1
		C99.2,111.6,97.8,111.3,96.9,111.9z"/>
	<path class="st76" d="M85.9,109.1c-0.3,0.9-0.6,1.9-0.9,2.8c-3.1-0.3-6.3-0.5-9.4-0.8c-1.6-0.9-0.4-1.1,0.4-1.3
		C79.3,109.2,82.6,108.7,85.9,109.1z"/>
	<path class="st77" d="M69,102.8c0.8-1.2,1.8-2.3,3.2-2.8c2.7,4.7,3.1-1.6,5-1c0.8,0.9,0.3,1.6-0.4,2.3
		C74.9,105.4,71.7,103.2,69,102.8z"/>
	<path class="st78" d="M79.1,144.4c0.9,6.1-0.2,12.2,0.1,18.2c0.1,1.8-0.3,3.6,0.6,5.3c-1.2,1.2-2.7,1.1-4.1,0.9
		c-1.2-9.3-1.6-18.6,0.2-27.8C78.4,140.8,79,142.4,79.1,144.4z"/>
	<path class="st79" d="M75.9,141c-0.1,9.3-0.1,18.5-0.2,27.8c-0.3,0.1-0.6,0.2-1,0.2c-1.9-8.9-0.6-17.9-0.7-26.9
		C74.1,141.1,75.1,141,75.9,141z"/>
	<path class="st80" d="M64.9,161.8c-3.2-4.6-1.5-9.9-1.9-14.9c-0.2-2,0-4,0-5.9c2.7,0.1,2,2.1,2,3.6C65,150.3,64.9,156.1,64.9,161.8
		z"/>
	<path class="st81" d="M72.2,166.3c0-7.9,0-15.9,0-23.8c0.2,0,0.3,0,0.5,0c0,7.9,0,15.7,0,23.6C72.6,166.2,72.4,166.2,72.2,166.3z"
		/>
	<path class="st82" d="M69.9,141.1c0,8.1,0,16.2,0,24.3c-0.3,0-0.5,0-0.8,0c0-8.1,0-16.2,0-24.3C69.3,141,69.6,141,69.9,141.1z"/>
	<path class="st83" d="M82.1,91.8c-1.7,0.5-3.4,0.9-5.1,1.4c-3.5-1.7-1-3.5,0-5.2c1.2-0.3,2.5-0.7,3.7-0.8c1.6-0.1,3.4,0.1,4,1.9
		C85.4,91.2,82.9,90.8,82.1,91.8z"/>
	<path class="st84" d="M98,93.1c-1.7-0.5-3.4-0.9-5.2-1.4c-0.9-1-3.4-0.6-2.6-2.9c0.6-1.6,2.3-1.8,3.7-1.8c2.2,0.1,4.2,0.9,5.4,2.9
		C100.2,91.5,99.4,92.6,98,93.1z"/>
	<path class="st85" d="M102.1,90.2c6.8-0.6,8.6,0.5,8.6,5.8c-2.7-1.4-5.5-2.4-8.5-2.3C101.2,92.5,102,91.4,102.1,90.2z"/>
	<path class="st86" d="M51.7,158.8c-0.5-4,2.3-8.4-1.7-11.9c0.8-0.9,1.9-1.1,3-1.2c0.9,4.3,0.6,8.7,0.2,13
		C52.7,158.7,52.2,158.7,51.7,158.8z"/>
	<path class="st87" d="M53.1,158.7c-0.1-4.3-0.1-8.7-0.2-13c0.3-0.2,0.7-0.4,1-0.6C53.8,149.6,55.3,154.3,53.1,158.7z"/>
	<path class="st88" d="M121.6,163.1c2.2,0,4.4,0,6.7,0c0,0.2,0,0.3,0,0.5c-2.2,0-4.4,0-6.7,0C121.6,163.4,121.6,163.2,121.6,163.1z"
		/>
	<path class="st89" d="M46.8,119.7c7.2-1.7,7.8-1.1,7.5,8.2c-0.8,0-1.6-0.1-2.4-0.1C51.8,124.1,53.5,119.2,46.8,119.7z"/>
	<path class="st90" d="M87,168.5c0.3,0.1,0.6,0.1,0.9,0.2c1.7,0,3.4,0,5.1-0.1c-3.8,3.3-8.2,2.9-11.5-0.9c0.1-0.3,0.3-0.6,0.4-0.9
		c1,0,2-0.1,3-0.1C86,166.8,86.2,168,87,168.5z"/>
	<path class="st85" d="M73.6,93.8c-3.4-0.4-6.6,0.5-9.5,2.1c0.2-5.1,1.6-6.1,8.7-5.9C73.1,91.3,73.4,92.5,73.6,93.8z"/>
	<path class="st91" d="M51.6,168.7c-1,0.1-1.9,0.1-2.9,0.2c0.2-2.9-2.8-1.5-4.2-2.9c4.1,0,7.8,0,11.8,0
		C54.7,167.5,52.1,166.2,51.6,168.7z"/>
	<path class="st92" d="M105.9,162.9c-1.5-0.5-2.9,0.5-4.5,0.7c-0.7-2.3,0.7-4.5-0.3-6.7c1.7,1.2,2.9,2.7,4.9,3c0,0,0,0,0,0
		C105.9,160.9,105.9,161.9,105.9,162.9C105.9,162.9,105.9,162.9,105.9,162.9z"/>
	<path class="st93" d="M106.7,146.4c1.7,1-0.4,2.7,0.7,4c0.6,0.6,0.2,1.7-0.7,2c-0.7,0.2-1.7,0-2.3-0.5c-1.6-1.2,0.5-1.3,0.7-2
		c0.3-1.1,0.8-2.1,1.2-3.2L106.7,146.4z"/>
	<path class="st94" d="M106.7,146.4c0,0-0.3,0.3-0.3,0.3c-0.9,0.3-1.9,0.5-2.7,0.9c-0.8,0.4-1.5,0.7-2-0.3c-0.2-0.4-0.5-1-0.4-1.3
		c0.4-1.1,1.3-0.7,2-0.4C104.4,146,106,144.6,106.7,146.4z"/>
	<path class="st95" d="M105.9,159.9c-0.3-1.1-0.7-2.1-1-3.2c-0.1-0.6-1.9-0.7-0.6-1.7c0.5-0.4,1.2-0.6,1.8-0.6c1,0,1.5,0.8,1,1.7
		C106.5,157.3,108.1,159.2,105.9,159.9C105.9,159.9,105.9,159.9,105.9,159.9z"/>
	<path class="st96" d="M87,168.5c-1.1-0.1-1.6-0.9-2.1-1.8c0.1-0.3,0.3-0.5,0.4-0.8c0.5-0.3,1-0.7,1.6-1
		C86.9,166.1,87,167.3,87,168.5z"/>
	<path class="st97" d="M84,140.7c1.7,0.5,2-1.1,2.8-1.9c1.4,0.6,2-1.7,3.5-0.9c1,2.5-0.6,4.4-2.1,5.3
		C86.3,144.3,85.1,142.1,84,140.7z"/>
	<path class="st52" d="M97.9,155.9c0.1,2.4-1.6,3.2-3.7,4.3C94.7,157.7,95.1,155.7,97.9,155.9C97.9,155.9,97.9,155.9,97.9,155.9z"/>
	<path class="st98" d="M103.9,123.5c0.5-1.2,0.9-2.3,1.4-3.5c-0.7,2.7,3.4,5.7-0.5,8.1C103.2,126.8,102.5,125.4,103.9,123.5z"/>
</g>
</svg>
