<?xml version="1.0" encoding="utf-8"?>
<!-- Generator: Adobe Illustrator 26.0.1, SVG Export Plug-In . SVG Version: 6.00 Build 0)  -->
<svg version="1.1" id="Calque_1" xmlns="http://www.w3.org/2000/svg" xmlns:xlink="http://www.w3.org/1999/xlink" x="0px" y="0px"
	 viewBox="0 0 250 250" style="enable-background:new 0 0 250 250;" xml:space="preserve">
<style type="text/css">
	.st0{fill:#FEFEFE;}
	.st1{fill:#002394;}
	.st2{fill:#EC2939;}
</style>
<g>
	<circle class="st0" cx="125" cy="124.9" r="124.9"/>
	<path class="st1" d="M0.1,111c1.7-7,2.9-14.2,5.1-21.1c12-38.8,36.9-65.9,74.5-81.4C80.4,8.3,81.2,8,82,7.8
		c0.3-0.1,0.6,0.1,1.1,0.1c0,78,0,156.1,0,234.5c-6.1-1.6-11.4-4.2-16.6-7.1c-36.9-20.5-58.6-51.7-65.3-93.3
		C1,141,1.5,139.6,0.1,139C0.1,129.7,0.1,120.3,0.1,111z"/>
	<path class="st2" d="M249.9,139c-2.1,4.2-1.9,8.9-3,13.4c-10.5,42.3-35.9,71.9-76.1,88.8c-1.2,0.5-2.3,1.3-3.9,0.8
		c0-78,0-156,0-234.3c4.8,0.9,9,3,13,5.1c39.4,20.5,62.5,52.6,69,96.6c0.1,0.9-0.2,2.1,1,2.6C249.9,121,249.9,130,249.9,139z"/>
</g>
</svg>
