<?xml version="1.0" encoding="utf-8"?>
<!-- Generator: Adobe Illustrator 19.2.1, SVG Export Plug-In . SVG Version: 6.00 Build 0)  -->
<svg version="1.1" id="layer" xmlns="http://www.w3.org/2000/svg" xmlns:xlink="http://www.w3.org/1999/xlink" x="0px" y="0px"
	 viewBox="0 0 652 652" style="enable-background:new 0 0 652 652;" xml:space="preserve">
<style type="text/css">
	.st0{fill:#009FE8;}
</style>
<path class="st0" d="M424.2,298.1c13.3,0,24.1,10.8,24.1,24.1c0,13.3-10.8,24.1-24.1,24.1c-13.3,0-24.1-10.8-24.1-24.1
	C400.1,308.9,410.9,298.1,424.2,298.1 M424.2,282.1c-22.1,0-40.1,17.9-40.1,40.1c0,22.1,17.9,40.1,40.1,40.1
	c22.1,0,40.1-17.9,40.1-40.1C464.3,300,446.3,282.1,424.2,282.1"/>
<path class="st0" d="M175.6,284.6v6.5c-6.9-5.6-15.7-9-25.3-9c-22.1,0-40.1,17.9-40.1,40.1c0,22.1,17.9,40.1,40.1,40.1
	c9.6,0,18.4-3.4,25.3-9v6.5h14.8v-75.2H175.6z M151.2,347.1c-13.8,0-24.9-11.2-24.9-24.9c0-13.8,11.2-24.9,24.9-24.9
	c13.8,0,24.9,11.2,24.9,24.9C176.1,335.9,164.9,347.1,151.2,347.1"/>
<path class="st0" d="M583.8,284.6v6.5c-6.9-5.6-15.7-9-25.3-9c-22.1,0-40.1,17.9-40.1,40.1c0,22.1,17.9,40.1,40.1,40.1
	c9.6,0,18.4-3.4,25.3-9v6.5h14.8v-75.2H583.8z M559.3,347.1c-13.8,0-24.9-11.2-24.9-24.9c0-13.8,11.2-24.9,24.9-24.9
	c13.8,0,24.9,11.2,24.9,24.9C584.3,335.9,573.1,347.1,559.3,347.1"/>
<path class="st0" d="M490.5,289.3c-8.6,5.5-16,15.2-16,32.5v37.9h16v-37.9c0-24.9,25.7-23.6,25.7-23.6v-16v0
	C516.2,282.2,502.3,281.8,490.5,289.3"/>
<path class="st0" d="M266.5,290.1c-6.7-5-15-8-24.1-8c-9,0-17.4,3-24.1,8c-9.7,7.3-16,19-16,32.1v37.6h16v-5.5v-32.1
	c0-13.3,10.8-24.1,24.1-24.1c13.3,0,24.1,10.8,24.1,24.1v32.1v5.5h16v-37.6C282.5,309,276.2,297.4,266.5,290.1"/>
<path class="st0" d="M366,260.5c-4.1,0-7.4,3.3-7.4,7.4v23.2c-6.9-5.6-15.7-9-25.3-9c-22.1,0-40.1,17.9-40.1,40.1
	c0,22.1,17.9,40.1,40.1,40.1c9.6,0,18.4-3.4,25.3-9v6.5h14.8v-91.9v-7.4H366z M334.2,347.1c-13.8,0-24.9-11.2-24.9-24.9
	c0-13.8,11.2-24.9,24.9-24.9c13.8,0,24.9,11.2,24.9,24.9C359.1,335.9,348,347.1,334.2,347.1"/>
<path class="st0" d="M60.8,282.1c-9.6,0-18.4,3.4-25.3,9v-6.5H20.7v91.9v7.4h7.4c4.1,0,7.4-3.3,7.4-7.4v-23.2c6.9,5.6,15.7,9,25.3,9
	c22.1,0,40.1-17.9,40.1-40.1C100.9,300,82.9,282.1,60.8,282.1 M59.9,347.1c-13.8,0-24.9-11.2-24.9-24.9c0-13.8,11.2-24.9,24.9-24.9
	c13.8,0,24.9,11.2,24.9,24.9C84.8,335.9,73.7,347.1,59.9,347.1"/>
<path class="st0" d="M613.3,284.6c-4.1,0-7.4-3.3-7.4-7.4c0-4.1,3.3-7.4,7.4-7.4c4.1,0,7.4,3.3,7.4,7.4
	C620.7,281.3,617.4,284.6,613.3,284.6 M613.3,270.7c-3.6,0-6.5,2.9-6.5,6.5c0,3.6,2.9,6.5,6.5,6.5c3.6,0,6.5-2.9,6.5-6.5
	C619.8,273.6,616.9,270.7,613.3,270.7 M615.4,281.4l-2.2-3.3h-1.6v3.3h-1V273h3.4c1.4,0,2.6,1,2.6,2.6c0,1.9-1.7,2.5-2.2,2.5
	l2.3,3.4H615.4z M614,273.9h-2.4v3.2h2.4c0.7,0,1.5-0.7,1.5-1.6C615.5,274.6,614.7,273.9,614,273.9"/>
</svg>
